<svg width="20" height="20" viewBox="0 0 20 20" fill="none" xmlns="http://www.w3.org/2000/svg">
<path d="M1.25512 0.0438805C0.676435 0.207991 0.211142 0.676876 0.0586504 1.25517C-0.0195501 1.55213 -0.0195501 18.432 0.0586504 18.729C0.215052 19.3151 0.684255 19.784 1.27467 19.9403C1.54055 20.0145 11.5737 20.0223 11.7066 19.9481C11.8317 19.8816 11.8865 19.7957 11.8904 19.655C11.8904 19.5495 11.8278 19.4675 11.4525 19.0884C10.9794 18.6157 10.6744 18.1937 10.3929 17.631C9.54438 15.9196 9.67341 13.8721 10.7291 12.2701C11.0771 11.7348 11.7223 11.0822 12.2306 10.7423C13.0947 10.1718 14.0057 9.87485 15.0927 9.81233C15.5306 9.78889 15.5893 9.77716 15.6714 9.69511L15.7613 9.60524V5.5064C15.7613 1.50524 15.7574 1.39583 15.6831 1.14967C15.5385 0.680784 15.1748 0.297861 14.6665 0.0829544C14.4945 0.0126209 14.299 0.00871468 7.96082 0.000900269C2.81522 -0.00300789 1.39197 0.00480652 1.25512 0.0438805ZM13.1612 1.97022C13.3449 2.0679 13.5326 2.25937 13.6343 2.45083C13.7046 2.57586 13.7086 2.69699 13.7086 4.03332C13.7086 5.36964 13.7046 5.49077 13.6343 5.6158C13.5326 5.80727 13.3449 5.99873 13.1612 6.09641L13.0048 6.18237L7.96473 6.1941C2.25218 6.20582 2.68619 6.22926 2.34602 5.88932C2.05276 5.59236 2.03712 5.51031 2.03712 4.03332C2.03712 2.62275 2.05276 2.50553 2.29519 2.2242C2.43204 2.06009 2.58453 1.9624 2.78003 1.89989C2.83477 1.88426 5.15733 1.87253 7.94127 1.87644L13.0048 1.88426L13.1612 1.97022ZM4.67248 7.42101C4.87581 7.48353 5.1456 7.74923 5.20425 7.94851C5.23162 8.04229 5.24335 8.36269 5.23553 8.8433C5.2238 9.5818 5.2238 9.58961 5.11432 9.74981C5.05567 9.83968 4.93446 9.96081 4.84453 10.0194L4.68421 10.1288L3.7419 10.1406C2.70574 10.1562 2.58453 10.1366 2.36557 9.94518C2.08405 9.69511 2.05667 9.59742 2.05667 8.76125C2.05667 8.07355 2.0645 8.00712 2.1427 7.86255C2.24827 7.66718 2.40858 7.51479 2.58453 7.43664C2.76439 7.3585 4.42224 7.34677 4.67248 7.42101ZM9.00089 7.48353C9.15338 7.56168 9.24331 7.64373 9.32933 7.7844L9.44663 7.97196V8.76125V9.55054L9.32933 9.73809C9.24331 9.87876 9.15338 9.96081 9.00089 10.039L8.79365 10.1484H7.86698C6.85037 10.1484 6.75653 10.1288 6.52193 9.89048C6.29515 9.66385 6.27951 9.59742 6.26778 8.85502C6.25214 8.06182 6.27951 7.90553 6.48674 7.6789C6.7448 7.39366 6.81909 7.37413 7.86698 7.37413H8.79365L9.00089 7.48353ZM13.2003 7.44837C13.4075 7.54605 13.5952 7.74533 13.6695 7.95633C13.7398 8.15951 13.7516 9.29656 13.6851 9.53491C13.6343 9.72637 13.3997 9.98426 13.2003 10.0741C13.0634 10.1366 12.9305 10.1484 12.1211 10.1484H11.1944L10.9872 10.039C10.8347 9.96081 10.7448 9.87876 10.6587 9.73809L10.5414 9.55054V8.76125V7.97196L10.6587 7.7844C10.7448 7.64373 10.8347 7.56168 10.9872 7.48353L11.1944 7.37413H12.1211C12.9383 7.37413 13.0634 7.38585 13.2003 7.44837ZM4.6412 11.4183C4.86408 11.4847 5.09086 11.6918 5.1847 11.9145C5.27072 12.1255 5.27072 13.4071 5.18079 13.6181C5.1065 13.8018 4.95401 13.962 4.75459 14.0675C4.60992 14.1456 4.52781 14.1534 3.74972 14.1652C2.74484 14.1808 2.56107 14.1495 2.31083 13.8994C2.07231 13.6611 2.02539 13.4462 2.04494 12.6569C2.05667 12.0278 2.06059 11.9966 2.16616 11.8207C2.28346 11.6214 2.43986 11.4925 2.65882 11.4144C2.86996 11.3362 4.38314 11.3401 4.6412 11.4183ZM8.80538 11.3987C9.00871 11.4573 9.19248 11.5902 9.32933 11.7817L9.44663 11.9536L9.45836 12.6647C9.474 13.4618 9.45054 13.6142 9.26677 13.833C9.02826 14.1222 8.92268 14.1495 8.04293 14.1652C7.61283 14.173 7.17099 14.1691 7.05369 14.1534C6.75653 14.1183 6.50629 13.9385 6.36944 13.6689C6.26387 13.4618 6.25996 13.4384 6.25996 12.7858C6.25996 12.0747 6.28342 11.934 6.44373 11.7191C6.55321 11.5707 6.67442 11.4886 6.87774 11.4144C7.05369 11.3518 8.59033 11.3401 8.80538 11.3987ZM4.75459 15.4585C4.9501 15.5445 5.14951 15.7672 5.20425 15.9586C5.23162 16.0524 5.24335 16.3806 5.23553 16.8573L5.2238 17.6036L5.1065 17.7717C5.03221 17.8772 4.911 17.9827 4.77805 18.0491L4.57082 18.1585H3.69107C2.7292 18.1585 2.59235 18.139 2.36948 17.9553C2.1036 17.7326 2.06059 17.5919 2.04494 16.8886C2.02539 16.1306 2.0645 15.9274 2.26 15.6968C2.51415 15.4038 2.58844 15.3843 3.65979 15.3843C4.4848 15.3843 4.61774 15.396 4.75459 15.4585ZM9.07909 15.521C9.18466 15.5953 9.29023 15.7164 9.3567 15.8492C9.46618 16.0563 9.46618 16.068 9.46618 16.7557C9.46618 17.5333 9.44272 17.6466 9.21985 17.8811C8.97352 18.139 8.88358 18.1585 7.90217 18.1585C7.37822 18.1585 6.95985 18.139 6.86601 18.1155C6.65878 18.0569 6.36162 17.7599 6.30297 17.5528C6.27951 17.4669 6.25996 17.0957 6.25996 16.7284C6.25996 16.0954 6.26387 16.0563 6.35771 15.8649C6.45546 15.6695 6.63141 15.4976 6.81518 15.4233C6.86601 15.4038 7.34694 15.3921 7.90999 15.396L8.91095 15.4038L9.07909 15.521Z" fill="black"/>
<path d="M2.83092 2.62281L2.72144 2.71659V4.02947V5.33844L2.81137 5.42831L2.9013 5.51818L7.86703 5.5299L12.8328 5.53772L12.9501 5.42441L13.0635 5.31109V4.03338V2.75567L12.9501 2.64235L12.8367 2.52904H7.88658H2.9404L2.83092 2.62281ZM11.91 3.17375C12.0078 3.26753 12.0078 3.27535 12.0078 4.00993C12.0078 4.4163 11.996 4.77969 11.9843 4.81485C11.953 4.88909 11.7692 4.99069 11.6558 4.99069C11.6089 4.99069 11.519 4.93989 11.4564 4.87737L11.343 4.76406V4.25219C11.343 3.81457 11.3352 3.74033 11.2844 3.74033C11.1671 3.74033 11.0302 3.55668 11.0302 3.4082C11.0302 3.31051 11.0615 3.23627 11.128 3.17375C11.2101 3.08779 11.257 3.07607 11.519 3.07607C11.781 3.07607 11.8279 3.08779 11.91 3.17375Z" fill="black"/>
<path d="M2.76433 8.12451C2.7135 8.19484 2.70177 8.32769 2.70177 8.76141C2.70177 9.53898 2.63139 9.48428 3.62453 9.48428C4.10156 9.48428 4.45737 9.46865 4.50429 9.4452C4.57467 9.40613 4.57858 9.35533 4.57858 8.76141C4.57858 8.16749 4.57467 8.11669 4.50429 8.07762C4.45737 8.05417 4.10156 8.03854 3.62453 8.03854C2.84253 8.03854 2.82298 8.03854 2.76433 8.12451Z" fill="black"/>
<path d="M6.99128 8.10872C6.93653 8.17124 6.9248 8.27674 6.9248 8.76907C6.9248 9.28875 6.93262 9.36299 6.99519 9.4177C7.10076 9.51538 8.64522 9.51538 8.73906 9.4216C8.78989 9.37081 8.80162 9.25359 8.80162 8.76516C8.80162 8.23767 8.7938 8.15952 8.73124 8.10482C8.66868 8.04621 8.54747 8.03839 7.85539 8.03839C7.12813 8.03839 7.04993 8.04621 6.99128 8.10872Z" fill="black"/>
<path d="M11.2491 8.10104C11.1983 8.15184 11.1865 8.26906 11.1865 8.76139C11.1865 9.25372 11.1983 9.37094 11.2491 9.42173C11.2999 9.47644 11.4368 9.48425 12.121 9.48425C12.86 9.48425 12.9382 9.47644 12.9969 9.41392C13.0516 9.3514 13.0633 9.2459 13.0633 8.75357C13.0633 8.23389 13.0555 8.15965 12.993 8.10495C12.8874 8.00726 11.3429 8.00726 11.2491 8.10104Z" fill="black"/>
<path d="M2.7801 12.1021C2.70972 12.1725 2.7019 12.2311 2.7019 12.7469C2.7019 13.3017 2.70581 13.3212 2.79966 13.4111C2.8935 13.5088 2.89741 13.5088 3.64813 13.5088C4.26983 13.5088 4.42232 13.4971 4.4927 13.4463C4.57481 13.3877 4.57872 13.3642 4.57872 12.7664C4.57872 12.1686 4.57481 12.1451 4.4927 12.0865C4.41841 12.0357 4.26983 12.024 3.63249 12.024C2.90914 12.024 2.8544 12.0279 2.7801 12.1021Z" fill="black"/>
<path d="M7.00301 12.1021C6.93262 12.1725 6.9248 12.2311 6.9248 12.7586C6.9248 13.1962 6.93653 13.3564 6.97955 13.415C7.03038 13.4854 7.08903 13.4893 7.86321 13.4893C8.6374 13.4893 8.69605 13.4854 8.74688 13.415C8.78989 13.3564 8.80162 13.1962 8.80162 12.7429C8.80162 12.1686 8.79771 12.1412 8.7156 12.0865C8.64131 12.0357 8.49273 12.024 7.85539 12.024C7.13204 12.024 7.0773 12.0279 7.00301 12.1021Z" fill="black"/>
<path d="M2.76437 16.1344C2.71354 16.2047 2.70181 16.3376 2.70181 16.7791C2.70181 17.545 2.63534 17.4942 3.65586 17.4942C4.33229 17.4942 4.46523 17.4864 4.51606 17.4317C4.56689 17.3809 4.57862 17.2636 4.57862 16.7557C4.57862 16.3298 4.56298 16.1266 4.5317 16.0953C4.49651 16.0602 4.24627 16.0484 3.65586 16.0484C2.83866 16.0484 2.82302 16.0484 2.76437 16.1344Z" fill="black"/>
<path d="M6.98737 16.111C6.93653 16.1618 6.9248 16.2791 6.9248 16.7675C6.9248 17.295 6.93262 17.3731 6.99519 17.4278C7.05775 17.4864 7.17896 17.4943 7.87103 17.4943C8.59829 17.4943 8.6765 17.4864 8.73515 17.4239C8.82899 17.3184 8.8329 16.2048 8.73906 16.111C8.64912 16.0173 7.0773 16.0173 6.98737 16.111Z" fill="black"/>
<path d="M14.467 10.5586C13.814 10.6836 13.208 10.922 12.6958 11.258C11.382 12.1254 10.5961 13.4813 10.5335 15.013C10.4983 15.8843 10.6313 16.5408 11.0066 17.3183C11.6088 18.5687 12.7388 19.4908 14.1112 19.8464C14.5257 19.9558 14.6273 19.9675 15.2138 19.9715C16.0975 19.9754 16.5823 19.8699 17.3448 19.5104C18.4591 18.979 19.3819 17.9279 19.7807 16.7322C19.9528 16.2204 20.0036 15.8648 19.9997 15.1888C19.9958 14.6027 19.9841 14.5011 19.8746 14.0869C19.6595 13.2586 19.2763 12.5709 18.6859 11.9613C18.0095 11.2619 17.2588 10.836 16.2695 10.5976C15.9059 10.5078 14.8502 10.4843 14.467 10.5586ZM15.4289 12.3208C15.5344 12.3638 15.6048 12.5552 15.6048 12.7975V13.028L15.773 13.0749C16.2422 13.2156 16.6605 13.5594 16.6605 13.8017C16.6605 13.9932 16.5315 14.1338 16.3516 14.1338C16.2383 14.1338 16.1757 14.1026 16.0584 13.9932C15.7065 13.661 15.1943 13.5868 14.7642 13.8017C14.4709 13.9502 14.3732 14.0791 14.3732 14.3292C14.3732 14.6652 14.5178 14.7512 15.4093 14.9544C16.0115 15.0911 16.2695 15.1966 16.4963 15.3998C16.7348 15.6186 16.8326 15.8453 16.8326 16.2008C16.8326 16.5095 16.77 16.6814 16.5667 16.9589C16.4494 17.1191 16.0584 17.3691 15.816 17.4395L15.6048 17.4981V17.7325C15.6048 18.0803 15.4993 18.2327 15.2607 18.2366C15.1747 18.2366 15.1004 18.2053 15.0379 18.1389C14.9519 18.0568 14.9401 18.0099 14.9401 17.7716V17.4981L14.7759 17.4512C14.4044 17.3535 13.9939 17.0644 13.9001 16.8456C13.8023 16.6111 13.9743 16.3728 14.2246 16.3923C14.2793 16.3962 14.3966 16.4626 14.4826 16.5408C14.7173 16.7518 14.9479 16.8416 15.2725 16.8416C15.8707 16.8416 16.3086 16.4392 16.1405 16.0367C16.0506 15.8296 15.8981 15.7554 15.2138 15.5952C14.8815 15.517 14.5022 15.4037 14.3693 15.3412C13.7554 15.0521 13.5286 14.4073 13.8258 13.8017C13.9861 13.4735 14.3302 13.2117 14.7759 13.0788L14.9401 13.028V12.7584C14.9401 12.524 14.9519 12.4771 15.0379 12.395C15.1317 12.2974 15.292 12.27 15.4289 12.3208Z" fill="black"/>
</svg>
