<svg width="10" height="11" viewBox="0 0 10 11" fill="none" xmlns="http://www.w3.org/2000/svg">
<path fill-rule="evenodd" clip-rule="evenodd" d="M4.43017 0.130096C4.2931 0.198906 4.12838 0.333001 4.06395 0.428258C3.82931 0.775283 3.80322 0.980858 3.80322 2.48134V3.8838H2.4456C0.962441 3.8838 0.6874 3.91719 0.388885 4.13345C0.0985814 4.34371 0 4.58263 0 5.07589C0 5.45264 0.0128453 5.50543 0.152985 5.70481C0.328538 5.95456 0.563078 6.12734 0.825223 6.20018C0.927028 6.22844 1.62324 6.25091 2.40202 6.25106L3.79657 6.25136L3.81249 7.77517L3.8284 9.29897L3.98532 9.57603C4.19467 9.94562 4.52754 10.1306 4.98015 10.129C5.3578 10.1277 5.63456 10.0112 5.85424 9.76095C6.13809 9.43765 6.17078 9.21979 6.17078 7.65266V6.25136H7.57208C9.18248 6.25136 9.37576 6.21993 9.68833 5.90736C10.1559 5.43979 10.0855 4.48324 9.55676 4.11874C9.26237 3.91583 9.00819 3.88637 7.54347 3.88501L6.17078 3.8838V2.4825C6.17078 0.915372 6.13809 0.697506 5.85424 0.374207C5.51855 -0.00807939 4.91245 -0.112 4.43017 0.130096Z" fill="#FD9149"/>
</svg>
