<svg width="25" height="24" viewBox="0 0 25 24" fill="none" xmlns="http://www.w3.org/2000/svg">
<path fill-rule="evenodd" clip-rule="evenodd" d="M6.25872 2.97843C2.86346 4.66841 0.138239 6.10357 0.202675 6.16767C0.413587 6.37714 12.2673 12.2212 12.4814 12.2212C12.6822 12.2212 24.5892 6.37517 24.8183 6.16428C24.9041 6.08518 13.8509 0.478282 12.6692 0.00150193C12.5389 -0.051176 9.65414 1.28845 6.25872 2.97843ZM1.57086 10.9512C0.83751 11.3233 0.204291 11.6646 0.163755 11.7096C0.123059 11.7544 2.87977 13.1794 6.28973 14.8761L12.4895 17.9609L18.7235 14.8679L24.9575 11.7747L23.5398 11.0249C22.7599 10.6126 22.0019 10.271 21.8554 10.266C21.7087 10.261 19.5715 11.2614 17.1058 12.489C14.6403 13.7167 12.5641 14.7211 12.4922 14.7211C12.4204 14.7211 10.3455 13.7167 7.88142 12.489C5.41733 11.2614 3.28948 10.2608 3.1527 10.2657C3.01591 10.2707 2.30404 10.579 1.57086 10.9512ZM1.53274 16.5991L0 17.3813L0.886766 17.8195C1.37448 18.0604 4.13539 19.44 7.02211 20.8852C9.90882 22.3303 12.3517 23.5167 12.4507 23.5217C12.5497 23.5266 15.0206 22.34 17.9416 20.8848C20.8625 19.4295 23.6455 18.0454 24.1262 17.8088L25 17.3788L23.3967 16.5845L21.7934 15.7904L17.1447 18.1086L12.496 20.427L7.83943 18.1097C5.27845 16.8352 3.15657 15.7981 3.12427 15.8049C3.09197 15.8115 2.37575 16.169 1.53274 16.5991Z" fill="black"/>
</svg>
