<svg width="70" height="86" viewBox="0 0 70 86" fill="none" xmlns="http://www.w3.org/2000/svg">
<circle cx="35" cy="35" r="35" fill="url(#paint0_linear_6180_394)"/>
<circle cx="35" cy="35" r="34.5" fill="url(#paint1_linear_6180_394)" stroke="#FFD3B6"/>
<path d="M33.9475 20.2968C33.9475 20.9547 33.9475 20.9547 33.0828 20.9547C29.831 20.9547 25.4513 23.154 23.2145 25.9171C21.0904 28.5487 20.0002 31.5562 20.0002 34.8644C19.9814 38.6238 21.2032 41.7629 23.722 44.432C25.8836 46.744 28.1957 48.041 31.1844 48.6613C38.1204 50.0899 45.0189 46.0862 47.2557 39.3193C47.594 38.323 47.8572 37.2704 47.8572 36.9509V36.3682H51.4286C53.4023 36.3682 55 36.3306 55 36.2742C55 36.0862 46.8985 22.1765 46.767 22.1201C46.6542 22.0825 38.7407 35.5223 38.4963 36.199C38.4587 36.293 40.1317 36.3682 42.1993 36.3682C46.485 36.3682 46.1843 36.2178 45.6955 38.0599C44.8497 41.2741 42.3873 44.2816 39.3986 45.7478C34.8122 47.9846 29.5866 47.3079 25.9024 43.9621C23.1957 41.5185 21.8987 38.5674 21.8987 34.902C21.9175 32.7592 22.237 31.3494 23.1769 29.4133C24.1167 27.4584 26.5039 25.09 28.4964 24.1126C30.0377 23.3419 31.8986 22.8344 33.158 22.8344C33.9099 22.8344 33.9475 22.8532 33.9475 23.3983C33.9475 23.6991 33.9851 23.9622 34.0227 23.9622C34.3046 23.9622 37.143 21.8194 37.0114 21.7066C36.9362 21.6314 36.2031 21.1239 35.4137 20.5976L33.9475 19.6201V20.2968ZM46.8422 34.8268C43.7595 34.8456 41.1843 34.8268 41.1279 34.7892C41.0527 34.6952 46.1467 25.6915 46.5978 25.1276C46.7294 24.9585 47.5564 26.2554 49.6241 29.8269L52.4812 34.7704L46.8422 34.8268Z" fill="black"/>
<path d="M46.0528 29.8268C46.2219 32.2516 46.3159 32.6087 46.7294 32.6087C47.1806 32.6087 47.237 32.4207 47.3873 30.0147L47.5377 27.9095H46.7294H45.9212L46.0528 29.8268Z" fill="black"/>
<path d="M46.297 33.1165C46.0526 33.342 46.1654 34.0751 46.4662 34.1879C46.8609 34.3383 46.8421 34.3383 47.1805 33.9999C47.406 33.7743 47.4248 33.624 47.2932 33.342C47.1053 32.9849 46.5414 32.8533 46.297 33.1165Z" fill="black"/>
<path d="M33.1956 26.9698V28.6616H33.9475H34.6994V26.9698V25.2781H33.9475H33.1956V26.9698Z" fill="black"/>
<path d="M27.0301 28.1537L26.6166 28.586L27.8384 29.789L29.0602 30.992L29.5677 30.4845L30.0752 29.977L28.9662 28.8492C28.3459 28.2289 27.7632 27.7213 27.6504 27.7213C27.5189 27.7213 27.2557 27.9093 27.0301 28.1537Z" fill="black"/>
<path d="M39.1166 28.8492L38.0076 29.977L38.4587 30.4469L38.9098 30.9356L40.094 29.7514L41.2782 28.586L40.8647 28.1537C40.6391 27.9093 40.4136 27.7213 40.3384 27.7213C40.282 27.7213 39.7369 28.2289 39.1166 28.8492Z" fill="black"/>
<path d="M33.4965 31.7066C33.4213 32.6652 33.3649 33.7931 33.3273 34.2066L33.2897 34.9585L31.4476 35.1276C29.9251 35.278 29.6243 35.3532 29.6619 35.5976C29.7183 35.8419 30.0942 35.9359 31.5792 36.0487C33.4401 36.1803 33.4589 36.1803 33.9664 35.6915C34.4739 35.2028 34.4927 35.1464 34.3987 33.5675C34.2483 30.7292 34.1356 29.9773 33.8536 29.9773C33.6656 29.9773 33.5717 30.4472 33.4965 31.7066Z" fill="black"/>
<path d="M24.3612 34.9584V35.6163H26.0529H27.7446V34.9584V34.3005H26.0529H24.3612V34.9584Z" fill="black"/>
<path d="M27.8384 40.1276L26.7294 41.2554L27.1805 41.7253L27.6317 42.2141L28.8159 41.0298L30.0001 39.8644L29.5865 39.4321C29.361 39.1878 29.1354 38.9998 29.0602 38.9998C29.0038 38.9998 28.4587 39.5073 27.8384 40.1276Z" fill="black"/>
<path d="M38.4023 39.3381C38.2143 39.5261 38.0828 39.7705 38.0828 39.8644C38.0828 39.9584 38.5903 40.5411 39.2106 41.1614L40.3384 42.2704L40.8459 41.7629L41.3534 41.2554L40.2444 40.1276C39.6241 39.5073 39.0414 38.9998 38.9098 38.9998C38.797 38.9998 38.5715 39.1502 38.4023 39.3381Z" fill="black"/>
<path d="M33.2332 42.8907L33.2896 44.5449L34.0039 44.6013L34.6994 44.6577V42.9659V41.2554H33.9475H33.1768L33.2332 42.8907Z" fill="black"/>
<g filter="url(#filter0_f_6180_394)">
<ellipse cx="34.5" cy="73" rx="18.5" ry="3" fill="#424141" fill-opacity="0.2"/>
</g>
<defs>
<filter id="filter0_f_6180_394" x="6" y="60" width="57" height="26" filterUnits="userSpaceOnUse" color-interpolation-filters="sRGB">
<feFlood flood-opacity="0" result="BackgroundImageFix"/>
<feBlend mode="normal" in="SourceGraphic" in2="BackgroundImageFix" result="shape"/>
<feGaussianBlur stdDeviation="5" result="effect1_foregroundBlur_6180_394"/>
</filter>
<linearGradient id="paint0_linear_6180_394" x1="35" y1="23" x2="35" y2="59" gradientUnits="userSpaceOnUse">
<stop stop-color="#FFD588"/>
<stop offset="1" stop-color="#F8A88C"/>
</linearGradient>
<linearGradient id="paint1_linear_6180_394" x1="35" y1="23" x2="35" y2="59" gradientUnits="userSpaceOnUse">
<stop stop-color="#FFD588"/>
<stop offset="1" stop-color="#F8A88C"/>
</linearGradient>
</defs>
</svg>
