<svg width="10" height="11" viewBox="0 0 10 11" fill="none" xmlns="http://www.w3.org/2000/svg">
<path fill-rule="evenodd" clip-rule="evenodd" d="M7.45858 0.100102C7.35709 0.155722 7.1736 0.296479 7.05082 0.412975L6.82753 0.624761L8.10692 1.90415L9.38631 3.18358L9.55218 3.01623C9.97202 2.59252 10.0833 2.27273 9.9417 1.89683C9.87826 1.72848 9.70493 1.52636 9.1158 0.933725C8.33861 0.151858 8.12808 0.00198158 7.80442 4.7924e-06C7.71565 -0.000534333 7.56002 0.0444826 7.45858 0.100102ZM6.04149 1.33272L5.77938 1.58625L7.1041 2.91092L8.42878 4.23564L8.71442 3.9801L9.00011 3.7246L7.68568 2.41223C6.96276 1.69043 6.35602 1.09519 6.33742 1.08953C6.31878 1.08383 6.18561 1.19327 6.04149 1.33272ZM3.14697 4.23555C1.95667 5.42661 0.972855 6.41204 0.960725 6.42539C0.933544 6.45526 0.512442 7.83677 0.127327 9.15961C-0.0371061 9.72434 -0.0385886 9.76733 0.101584 9.90746C0.242835 10.0488 0.305688 10.0465 0.883001 9.87866C2.14069 9.51314 2.47468 9.41376 2.9217 9.27201C3.18673 9.18795 3.43733 9.11922 3.47853 9.11922C3.51977 9.11922 4.1116 8.56576 4.79373 7.88934C5.47585 7.21291 6.47876 6.22286 7.02238 5.68917L8.01077 4.71888L7.73411 4.45498L7.45741 4.19112L5.31412 6.33477L3.17082 8.47842L2.69302 8.6208C2.4302 8.6991 2.05223 8.81295 1.85307 8.87382C1.65395 8.93466 1.46189 8.98255 1.42626 8.98021C1.39068 8.97788 1.28416 8.88798 1.18949 8.78047L1.01747 8.58499L1.13181 8.21187C1.19466 8.00669 1.31821 7.59619 1.40631 7.29967L1.56643 6.76054L3.68295 4.64255L5.79942 2.5245L5.6247 2.34938C5.52855 2.25305 5.41871 2.1508 5.38056 2.12214C5.32238 2.07842 4.96135 2.42005 3.14697 4.23555ZM4.13559 5.13216L2.0131 7.25497L2.29344 7.32227C2.58861 7.39307 2.59544 7.40076 2.66391 7.7387C2.68471 7.84136 2.70273 7.85546 2.76666 7.81898C2.8093 7.79463 3.76404 6.85444 4.88834 5.72965L6.93252 3.68452L6.5953 3.34694L6.25808 3.00931L4.13559 5.13216Z" fill="#FD9149"/>
</svg>
