<svg width="20" height="20" viewBox="0 0 20 20" fill="none" xmlns="http://www.w3.org/2000/svg">
<path fill-rule="evenodd" clip-rule="evenodd" d="M4.28589 7.14737V14.2947H2.14289H0L0.0702571 15.1818C0.168293 16.4182 0.379368 17.3633 0.719198 18.087C1.08762 18.8717 1.44762 19.2959 2.0408 19.6446L2.51172 19.9214H9.50701C14.9417 19.9214 16.6517 19.8912 17.172 19.7859C18.041 19.6101 18.9507 19.1032 19.3637 18.5646C20.017 17.7126 20 17.981 20 8.54825V0H12.1429H4.28589V7.14737ZM18.5571 9.42033L18.5299 17.4212L18.2765 17.6927C18.1371 17.8421 17.8557 18.05 17.6513 18.1548C17.246 18.3627 15.9113 18.6067 15.7443 18.5035C15.6791 18.4632 15.6406 17.671 15.6406 16.368V14.2967L10.6982 14.2704L5.75591 14.244L5.72986 7.83169L5.7037 1.41934H12.1439H18.5842L18.5571 9.42033ZM7.12456 4.96676V5.67734H12.1476H17.1705L17.1406 4.99302L17.1106 4.3087L12.1176 4.28244L7.12456 4.25608V4.96676ZM7.12456 7.80543V8.51601H12.1476H17.1705L17.1406 7.83169L17.1106 7.14737L12.1176 7.12111L7.12456 7.09475V7.80543ZM7.19309 10.002C7.15538 10.0397 7.12456 10.3594 7.12456 10.7126V11.3547H12.1476H17.1705L17.1406 10.6704L17.1106 9.98604L12.1861 9.95978C9.47761 9.94528 7.23081 9.96424 7.19309 10.002ZM14.2719 17.0827V18.5021L8.57806 18.5282L2.88409 18.5545L2.56677 18.2873C2.39219 18.1405 2.16368 17.8523 2.05885 17.6468C1.84929 17.2361 1.5486 16.1627 1.5486 15.8254V15.6112L7.91026 15.6372L14.2719 15.6634V17.0827Z" fill="black"/>
</svg>
