<svg width="20" height="20" viewBox="0 0 20 20" fill="none" xmlns="http://www.w3.org/2000/svg">
<path d="M0 0.357544V0.702148H2.33625H4.67251V0.357544V0.0129389H2.33625H0V0.357544Z" fill="black"/>
<path d="M13.3708 0.051703C12.6241 0.241236 12.1818 1.05967 12.428 1.80919C12.5323 2.12795 12.5323 2.12364 12.453 2.12364C12.3279 2.12364 12.065 2.29594 11.9232 2.46824C11.6937 2.74393 11.627 3.0713 11.7313 3.43314C11.798 3.67005 12.1443 4.02758 12.3738 4.0965C12.4989 4.13527 13.0538 4.14819 14.3471 4.14819H16.1493L16.2494 4.25588C16.337 4.34203 16.3537 4.40234 16.3537 4.60049V4.8374H16.6875H17.0212V4.59618C17.0212 4.22142 16.9461 4.02327 16.7083 3.78205C16.579 3.64421 16.4372 3.54513 16.3287 3.51067C16.2035 3.47191 15.6487 3.45898 14.3554 3.45898H12.5531L12.453 3.35129C12.3153 3.21345 12.3153 3.0153 12.453 2.87746L12.5531 2.76977H13.788H15.0187V2.42948V2.08487L14.2302 2.07195C13.3667 2.05903 13.3291 2.0461 13.1247 1.7618C13.0037 1.59381 13.0037 1.1889 13.1247 1.0209C13.2874 0.792603 13.4167 0.72799 13.7254 0.71076L14.0175 0.69353V0.353232V0.0129352L13.7588 0.0172424C13.6128 0.0215502 13.4418 0.0344729 13.3708 0.051703Z" fill="black"/>
<path d="M14.6849 0.357544V0.702148H15.0187H15.3524V0.357544V0.0129389H15.0187H14.6849V0.357544Z" fill="black"/>
<path d="M16.02 0.344617V0.69353L16.3121 0.71076C16.6208 0.72799 16.7501 0.792603 16.9128 1.0209C16.9879 1.11998 17.0046 1.21474 17.0129 1.60673L17.0296 2.07626L17.9808 2.08918C18.8694 2.1021 18.9445 2.10641 19.0488 2.19256C19.2699 2.36056 19.3367 2.4984 19.3367 2.76977C19.3367 3.17899 19.1239 3.39868 18.6817 3.45898C18.3312 3.50206 18.1435 3.59683 17.9433 3.82943C17.7597 4.04481 17.6888 4.26019 17.6888 4.59618V4.8374H18.0225H18.3563V4.60049C18.3563 4.27311 18.4522 4.17404 18.811 4.13527C19.1156 4.10081 19.5119 3.90266 19.6746 3.70451C19.733 3.63559 19.8289 3.47621 19.8915 3.3556C19.9833 3.17038 20 3.07992 20 2.76977C20 2.45963 19.9833 2.36917 19.8915 2.18395C19.7247 1.86088 19.5995 1.72304 19.3075 1.55935L19.0446 1.41289L18.3688 1.39997L17.6971 1.38274L17.6679 1.18028C17.6304 0.930445 17.4218 0.51692 17.2591 0.37477C17.0046 0.155085 16.7334 0.0473952 16.3663 0.0215502L16.02 1.23978e-05V0.344617Z" fill="black"/>
<path d="M0.350483 2.06757L0.571593 2.74817H2.3363H4.10101L4.32211 2.06757L4.53905 1.39129H2.3363H0.133545L0.350483 2.06757Z" fill="black"/>
<path d="M0.66748 5.87121V8.28345H2.33623H4.00499V5.87121V3.45898H2.33623H0.66748V5.87121ZM3.00373 5.87121V7.24963H2.33623H1.66873V5.87121V4.49279H2.33623H3.00373V5.87121Z" fill="black"/>
<path d="M8.95281 4.88491C8.69415 4.94952 8.31451 5.17782 8.13095 5.38458C7.8556 5.69042 7.70959 6.06518 7.68456 6.52178L7.6637 6.90515H8.00579H8.34371V6.66393C8.34371 6.53039 8.36457 6.34086 8.39378 6.24179C8.46053 6.00487 8.80679 5.64734 9.03625 5.57842C9.15306 5.54396 9.57442 5.52673 10.3462 5.52673C11.118 5.52673 11.5394 5.54396 11.6562 5.57842C11.8856 5.64734 12.2319 6.00487 12.2987 6.24179C12.3279 6.34086 12.3487 6.53039 12.3487 6.66393V6.90515H12.6866H13.0287L13.0079 6.52178C12.9662 5.82395 12.6491 5.31997 12.065 5.01844L11.748 4.85906L10.4338 4.85045C9.70792 4.84614 9.04459 4.86337 8.95281 4.88491Z" fill="black"/>
<path d="M16.6708 6.26762C16.6625 6.29778 16.5373 8.40848 16.3955 10.9586L16.1368 15.5935L16.358 15.8089C16.4831 15.9295 16.7585 16.1879 16.9712 16.3818L17.355 16.7436V16.9934V17.2433H18.0017H18.6483L18.6441 16.9719C18.6441 16.8255 18.5065 14.3486 18.3438 11.4712L18.0434 6.23747L17.3634 6.22455C16.8419 6.21593 16.6834 6.22455 16.6708 6.26762Z" fill="black"/>
<path d="M7.07138 7.65442C6.771 7.79657 6.67505 8.01195 6.67505 8.56762V8.97253H8.01422H9.3534L9.33671 8.50301C9.32419 7.99472 9.28665 7.89564 9.03633 7.70611C8.93204 7.62427 8.85694 7.61565 8.06011 7.60704C7.40096 7.59842 7.16733 7.60704 7.07138 7.65442Z" fill="black"/>
<path d="M11.7439 7.65442C11.4435 7.79657 11.3475 8.01195 11.3475 8.56762V8.97253H12.6867H14.0259L14.0092 8.50301C13.9967 7.99472 13.9591 7.89564 13.7088 7.70611C13.6045 7.62427 13.5294 7.61565 12.7326 7.60704C12.0734 7.59842 11.8398 7.60704 11.7439 7.65442Z" fill="black"/>
<path d="M0 14.4863V20H0.333751H0.667501V18.3717V16.7392L2.67 15.0205L4.66834 13.3017L4.67251 11.135V8.97265H2.33625H0V14.4863ZM1.335 10.0065V10.3511H1.00125H0.667501V10.0065V9.66186H1.00125H1.335V10.0065ZM2.67 10.0065V10.3511H2.33625H2.0025V10.0065V9.66186H2.33625H2.67V10.0065ZM4.00501 10.0065V10.3511H3.67126H3.33751V10.0065V9.66186H3.67126H4.00501V10.0065ZM1.335 11.3849V11.7295H1.00125H0.667501V11.3849V11.0403H1.00125H1.335V11.3849ZM2.67 11.3849V11.7295H2.33625H2.0025V11.3849V11.0403H2.33625H2.67V11.3849ZM4.00501 11.3849V11.7295H3.67126H3.33751V11.3849V11.0403H3.67126H4.00501V11.3849ZM1.335 12.7633V13.1079H1.00125H0.667501V12.7633V12.4187H1.00125H1.335V12.7633ZM2.67 12.7633V13.1079H2.33625H2.0025V12.7633V12.4187H2.33625H2.67V12.7633ZM4.00501 12.7633V13.1079H3.67126H3.33751V12.7633V12.4187H3.67126H4.00501V12.7633ZM1.335 14.1417V14.4863H1.00125H0.667501V14.1417V13.7971H1.00125H1.335V14.1417ZM2.67 14.1417V14.4863H2.33625H2.0025V14.1417V13.7971H2.33625H2.67V14.1417Z" fill="black"/>
<path d="M6.67505 10.3511V11.0403H8.01005H9.34505V10.3511V9.66186H8.01005H6.67505V10.3511Z" fill="black"/>
<path d="M11.3475 10.3511V11.0403H12.6825H14.0175V10.3511V9.66186H12.6825H11.3475V10.3511Z" fill="black"/>
<path d="M6.67505 12.4186V13.1078H8.01005H9.34505V12.4186V11.7294H8.01005H6.67505V12.4186Z" fill="black"/>
<path d="M11.3475 12.4187V13.1079H12.4239H13.5002L13.6462 13.263C13.7213 13.3491 13.8381 13.4568 13.9049 13.5042L14.0175 13.5861V12.6599V11.7295H12.6825H11.3475V12.4187Z" fill="black"/>
<path d="M3.52936 15.1669L1.95239 16.5324L5.75298 16.5453L9.55773 16.554L10.9428 15.2574C11.7063 14.5423 12.3654 13.922 12.4113 13.8747C12.4906 13.7971 12.3946 13.7971 8.80262 13.8014H5.11051L3.52936 15.1669Z" fill="black"/>
<path d="M11.6729 15.49L10.0125 17.0493V18.5225V20H10.68H11.3475V18.277V16.554H13.35H15.3525V18.277V20H16.02H16.6875V18.5225V17.045L15.0354 15.4986C14.1301 14.6457 13.3708 13.9436 13.3583 13.9393C13.3416 13.935 12.5823 14.6328 11.6729 15.49Z" fill="black"/>
<path d="M1.33496 18.6216V20H5.33997H9.34497V18.6216V17.2432H5.33997H1.33496V18.6216Z" fill="black"/>
<path d="M12.015 18.6216V20H13.35H14.685V18.6216V17.2432H13.35H12.015V18.6216Z" fill="black"/>
<path d="M17.355 18.9662V20H18.3562H19.3575V18.9662V17.9324H18.3562H17.355V18.9662Z" fill="black"/>
</svg>
