<svg width="23" height="23" viewBox="0 0 23 23" fill="none" xmlns="http://www.w3.org/2000/svg">
<path fill-rule="evenodd" clip-rule="evenodd" d="M0 1.62428V3.24856L1.14402 3.28057L2.28803 3.31257L2.60492 4.77235C2.77919 5.57522 3.32852 8.12703 3.82563 10.443C4.74955 14.7476 4.85904 15.0936 5.55995 15.9267C5.71637 16.1126 6.1058 16.3949 6.42526 16.5541L7.00614 16.8436H13.8899H20.7737V15.2154V13.5872L14.4574 13.5855C10.9835 13.5845 8.07099 13.5393 7.98532 13.4851C7.89975 13.4308 7.80487 13.1284 7.77455 12.8131L7.71952 12.2397H13.6217C17.1009 12.2397 19.6397 12.1956 19.8061 12.1324C19.9613 12.0734 20.1648 11.9083 20.2583 11.7656C20.4907 11.411 22.9214 4.43323 22.9896 3.92523C23.0556 3.43272 22.8028 2.89126 22.3766 2.61177C22.0979 2.42907 21.4534 2.40998 13.8194 2.3581L5.56355 2.30196L5.47416 1.7405C5.42498 1.4317 5.33178 0.913708 5.2671 0.589525L5.14942 0H2.57471H0V1.62428ZM4.53047 2.1589L4.74405 3.25104L13.2603 3.2818C20.9861 3.30976 21.7936 3.32975 21.961 3.49718C22.1321 3.66842 22.0533 3.95128 20.8701 7.41005C19.7795 10.5982 19.5571 11.1531 19.3347 11.2398C19.191 11.296 16.2673 11.3413 12.7938 11.3413C9.33931 11.3413 6.51319 11.3539 6.51364 11.3694C6.51397 11.3849 6.6147 11.9786 6.73743 12.6888C6.86017 13.3991 6.96089 14.0144 6.96123 14.0564C6.96168 14.0983 7.0414 14.2119 7.13842 14.3091C7.29462 14.4652 8.03046 14.4855 13.539 14.4855H19.7631V15.2154V15.9453L13.6714 15.9426C10.3208 15.9411 7.38142 15.8939 7.13909 15.8378C6.28737 15.6402 5.85876 15.1337 5.564 13.9766C5.47012 13.6079 4.91249 10.9567 4.32487 8.08492C3.73714 5.21309 3.23015 2.74966 3.19815 2.61075C3.14245 2.36955 3.08922 2.3581 2.0191 2.3581H0.898324V1.68144V1.00478L2.60761 1.03577L4.3169 1.06676L4.53047 2.1589ZM7.86371 6.20731C7.71121 6.28456 7.46665 6.52385 7.32044 6.73912C7.10765 7.05207 7.06543 7.23084 7.10945 7.63194C7.21804 8.622 8.29232 9.17593 9.19671 8.70824C10.1096 8.23617 10.1188 6.70318 9.21153 6.23403C8.81335 6.02809 8.24033 6.01675 7.86371 6.20731ZM11.5873 6.29119C10.8034 6.7691 10.7123 7.8152 11.3951 8.49803C11.7219 8.8248 11.8404 8.87095 12.352 8.87095C12.8636 8.87095 12.982 8.8248 13.3088 8.49803C13.5226 8.28423 13.7134 7.95657 13.7558 7.73019C13.913 6.89206 13.2156 6.06447 12.352 6.06447C12.1358 6.06447 11.7916 6.16655 11.5873 6.29119ZM15.4695 6.23942C14.8912 6.55328 14.6085 7.58792 14.9346 8.19732C15.1333 8.56833 15.7254 8.87005 16.2557 8.8705C17.2441 8.8714 17.9243 7.74513 17.468 6.86308C17.1024 6.15599 16.1633 5.86291 15.4695 6.23942ZM8.76607 7.07823C9.02367 7.21613 9.05241 7.66315 8.81627 7.8591C8.7225 7.93692 8.5288 7.96746 8.37463 7.92872C8.00935 7.83709 7.89515 7.45834 8.14836 7.17851C8.37249 6.9308 8.46311 6.91609 8.76607 7.07823ZM12.6219 7.10866C13.043 7.41656 12.5953 8.18014 12.1554 7.90447C11.8789 7.73109 11.8379 7.28721 12.082 7.10866C12.1924 7.02804 12.3138 6.96201 12.352 6.96201C12.3901 6.96201 12.5115 7.02804 12.6219 7.10866ZM16.5751 7.24566C16.749 7.51123 16.7481 7.54334 16.5603 7.75097C16.2082 8.13983 15.7207 7.96533 15.7207 7.45048C15.7207 7.20411 15.9743 6.97234 16.2515 6.96538C16.3273 6.96358 16.4729 7.08969 16.5751 7.24566ZM7.13045 18.2917C5.87257 18.874 5.38792 20.2742 6.01125 21.5251C6.4219 22.3491 7.00435 22.7212 7.96858 22.7757C8.56148 22.8091 8.8157 22.7703 9.16145 22.593C10.0162 22.1547 10.479 21.3929 10.4799 20.4225C10.4814 18.7161 8.68376 17.5725 7.13045 18.2917ZM16.0928 18.3521C15.2727 18.7339 14.8979 19.324 14.8416 20.3219C14.7927 21.1868 15.0249 21.7814 15.6006 22.2659C16.351 22.8973 17.6849 22.9732 18.504 22.4312C19.4001 21.8381 19.7819 20.4679 19.3256 19.4824C18.7468 18.2322 17.3782 17.7537 16.0928 18.3521ZM8.70364 19.1388C9.46396 19.4565 9.76838 20.4617 9.3246 21.1893C8.61942 22.346 6.92765 22.0038 6.68679 20.6557C6.59741 20.1554 6.88891 19.5732 7.39972 19.232C7.84226 18.9363 8.16408 18.9133 8.70364 19.1388ZM17.8271 19.2011C18.2522 19.4602 18.6392 20.0407 18.6398 20.4199C18.641 21.1617 17.9268 21.8954 17.2029 21.8962C15.6824 21.898 15.1663 19.8361 16.5203 19.1691C17.0227 18.9216 17.3832 18.9304 17.8271 19.2011Z" fill="black"/>
</svg>
