<svg width="450" height="46" viewBox="0 0 450 46" fill="none" xmlns="http://www.w3.org/2000/svg">
<path d="M0 38C0 21.4315 13.4315 8 30 8H450C450 24.5685 436.569 38 420 38H0Z" fill="url(#paint0_linear_11565_11)"/>
<path d="M82.155 18.32H84.09V29H82.155V18.32ZM95.403 18.32V29H93.963L88.203 21.515V29H86.403V18.32H87.843L93.588 25.79V18.32H95.403ZM107.521 18.32L102.766 29H101.191L96.4363 18.32H98.4463L102.001 26.57L105.556 18.32H107.521ZM112.999 29.135C111.969 29.135 111.069 28.915 110.299 28.475C109.539 28.025 108.949 27.39 108.529 26.57C108.119 25.74 107.914 24.765 107.914 23.645C107.914 22.535 108.119 21.57 108.529 20.75C108.939 19.92 109.524 19.285 110.284 18.845C111.054 18.405 111.959 18.185 112.999 18.185C114.039 18.185 114.939 18.405 115.699 18.845C116.469 19.285 117.054 19.92 117.454 20.75C117.864 21.57 118.069 22.535 118.069 23.645C118.069 24.765 117.864 25.74 117.454 26.57C117.044 27.39 116.459 28.025 115.699 28.475C114.939 28.915 114.039 29.135 112.999 29.135ZM112.999 27.59C113.989 27.59 114.759 27.25 115.309 26.57C115.859 25.89 116.134 24.915 116.134 23.645C116.134 22.385 115.859 21.42 115.309 20.75C114.759 20.07 113.989 19.73 112.999 19.73C112.009 19.73 111.239 20.065 110.689 20.735C110.139 21.405 109.864 22.375 109.864 23.645C109.864 24.915 110.139 25.89 110.689 26.57C111.239 27.25 112.009 27.59 112.999 27.59ZM120.051 18.32H121.986V29H120.051V18.32ZM129.144 29.135C128.094 29.135 127.174 28.91 126.384 28.46C125.604 28.01 125.004 27.375 124.584 26.555C124.164 25.725 123.954 24.755 123.954 23.645C123.954 22.545 124.164 21.585 124.584 20.765C125.004 19.935 125.604 19.3 126.384 18.86C127.174 18.41 128.094 18.185 129.144 18.185C129.864 18.185 130.539 18.3 131.169 18.53C131.809 18.75 132.339 19.06 132.759 19.46L132.129 20.87C131.649 20.48 131.169 20.2 130.689 20.03C130.219 19.85 129.714 19.76 129.174 19.76C128.144 19.76 127.344 20.095 126.774 20.765C126.214 21.435 125.934 22.395 125.934 23.645C125.934 24.905 126.214 25.875 126.774 26.555C127.334 27.225 128.134 27.56 129.174 27.56C129.714 27.56 130.219 27.475 130.689 27.305C131.169 27.125 131.649 26.84 132.129 26.45L132.759 27.86C132.339 28.26 131.809 28.575 131.169 28.805C130.539 29.025 129.864 29.135 129.144 29.135ZM134.567 18.32H141.707V19.85H136.457V22.805H141.392V24.335H136.457V27.47H141.707V29H134.567V18.32ZM147.604 18.32H151.534C153.284 18.32 154.639 18.785 155.599 19.715C156.569 20.645 157.054 21.955 157.054 23.645C157.054 25.345 156.569 26.665 155.599 27.605C154.639 28.535 153.284 29 151.534 29H147.604V18.32ZM151.414 27.425C153.874 27.425 155.104 26.165 155.104 23.645C155.104 21.145 153.874 19.895 151.414 19.895H149.539V27.425H151.414ZM159.03 18.32H166.17V19.85H160.92V22.805H165.855V24.335H160.92V27.47H166.17V29H159.03V18.32ZM170.471 19.91H166.991V18.32H175.916V19.91H172.421V29H170.471V19.91ZM183.029 26.495H177.809L176.729 29H174.779L179.609 18.32H181.184L186.029 29H184.094L183.029 26.495ZM182.384 24.995L180.419 20.42L178.454 24.995H182.384ZM187.184 18.32H189.119V29H187.184V18.32ZM191.432 18.32H193.367V27.41H198.362V29H191.432V18.32ZM203.25 29.135C202.43 29.135 201.66 29.025 200.94 28.805C200.23 28.585 199.625 28.27 199.125 27.86L199.785 26.45C200.305 26.84 200.845 27.13 201.405 27.32C201.975 27.5 202.595 27.59 203.265 27.59C204.005 27.59 204.575 27.46 204.975 27.2C205.385 26.94 205.59 26.575 205.59 26.105C205.59 25.705 205.4 25.4 205.02 25.19C204.65 24.97 204.035 24.765 203.175 24.575C201.835 24.285 200.86 23.91 200.25 23.45C199.64 22.99 199.335 22.32 199.335 21.44C199.335 20.81 199.505 20.25 199.845 19.76C200.185 19.27 200.665 18.885 201.285 18.605C201.915 18.325 202.64 18.185 203.46 18.185C204.21 18.185 204.92 18.3 205.59 18.53C206.27 18.75 206.825 19.06 207.255 19.46L206.61 20.87C205.66 20.11 204.61 19.73 203.46 19.73C202.77 19.73 202.225 19.875 201.825 20.165C201.425 20.445 201.225 20.83 201.225 21.32C201.225 21.74 201.4 22.06 201.75 22.28C202.11 22.5 202.72 22.705 203.58 22.895C204.47 23.105 205.195 23.335 205.755 23.585C206.315 23.825 206.745 24.14 207.045 24.53C207.345 24.91 207.495 25.39 207.495 25.97C207.495 26.61 207.325 27.17 206.985 27.65C206.645 28.12 206.155 28.485 205.515 28.745C204.875 29.005 204.12 29.135 203.25 29.135Z" fill="black"/>
<circle cx="52" cy="23" r="22" fill="white" stroke="#FE9B52" stroke-width="2"/>
<path fill-rule="evenodd" clip-rule="evenodd" d="M45.2859 21.1474V28.2947H43.1429H41L41.0703 29.1818C41.1683 30.4182 41.3794 31.3633 41.7192 32.087C42.0876 32.8717 42.4476 33.2959 43.0408 33.6446L43.5117 33.9214H50.507C55.9417 33.9214 57.6517 33.8912 58.172 33.7859C59.041 33.6101 59.9507 33.1032 60.3637 32.5646C61.017 31.7126 61 31.981 61 22.5483V14H53.1429H45.2859V21.1474ZM59.5571 23.4203L59.5299 31.4212L59.2765 31.6927C59.1371 31.8421 58.8557 32.05 58.6513 32.1548C58.246 32.3627 56.9113 32.6067 56.7443 32.5035C56.6791 32.4632 56.6406 31.671 56.6406 30.368V28.2967L51.6982 28.2704L46.7559 28.244L46.7299 21.8317L46.7037 15.4193H53.1439H59.5842L59.5571 23.4203ZM48.1246 18.9668V19.6773H53.1476H58.1705L58.1406 18.993L58.1106 18.3087L53.1176 18.2824L48.1246 18.2561V18.9668ZM48.1246 21.8054V22.516H53.1476H58.1705L58.1406 21.8317L58.1106 21.1474L53.1176 21.1211L48.1246 21.0948V21.8054ZM48.1931 24.002C48.1554 24.0397 48.1246 24.3594 48.1246 24.7126V25.3547H53.1476H58.1705L58.1406 24.6704L58.1106 23.986L53.1861 23.9598C50.4776 23.9453 48.2308 23.9642 48.1931 24.002ZM55.2719 31.0827V32.5021L49.5781 32.5282L43.8841 32.5545L43.5668 32.2873C43.3922 32.1405 43.1637 31.8523 43.0588 31.6468C42.8493 31.2361 42.5486 30.1627 42.5486 29.8254V29.6112L48.9103 29.6372L55.2719 29.6634V31.0827Z" fill="black"/>
<defs>
<linearGradient id="paint0_linear_11565_11" x1="-7.59716e-07" y1="23" x2="269.667" y2="23" gradientUnits="userSpaceOnUse">
<stop stop-color="#FD9149"/>
<stop offset="1" stop-color="#FFD588"/>
</linearGradient>
</defs>
</svg>
