<svg width="18" height="18" viewBox="0 0 18 18" fill="none" xmlns="http://www.w3.org/2000/svg">
<path fill-rule="evenodd" clip-rule="evenodd" d="M8.63794 0.0149717C7.51844 0.0835866 6.46956 0.467115 5.53602 1.1492C5.29915 1.32226 4.73189 1.86508 4.55246 2.09037C3.74662 3.10219 3.35259 4.20559 3.35252 5.4506C3.35246 6.34001 3.52979 7.08679 3.92415 7.85791C4.17058 8.33979 4.43371 8.71507 4.81278 9.12536C5.13604 9.47523 5.64083 9.87798 6.05996 10.1204C6.16867 10.1833 6.25762 10.2375 6.25762 10.2408C6.25762 10.2441 6.20068 10.2647 6.13111 10.2865C5.88246 10.3645 5.38108 10.563 5.0862 10.7001C3.63034 11.3772 2.3659 12.4282 1.43649 13.7338C0.935011 14.4382 0.527695 15.2797 0.270601 16.1424C0.118823 16.6517 -0.0129943 17.3177 0.00102522 17.5044C0.0214922 17.7769 0.266965 17.9986 0.547956 17.9985C0.684122 17.9985 0.775755 17.9639 0.879927 17.8732C1.00835 17.7615 1.03905 17.6897 1.10235 17.3531C1.3409 16.0845 1.84748 14.9547 2.64093 13.9217C3.53777 12.754 4.83124 11.7936 6.22013 11.2641C8.9 10.2423 11.8621 10.7589 14.1202 12.6418C15.5756 13.8554 16.567 15.5423 16.8936 17.3608C16.9614 17.7386 17.0283 17.8539 17.2365 17.952C17.5447 18.0973 17.9257 17.8976 17.9912 17.5566C18.0066 17.4762 18.0028 17.4097 17.9716 17.2162C17.7726 15.9834 17.2966 14.7939 16.6033 13.7969C15.4771 12.1775 13.8556 10.9634 11.9519 10.3143L11.7329 10.2396L11.9329 10.1228C12.6705 9.69199 13.38 9.00743 13.8316 8.29072C14.9677 6.48766 14.9189 4.19436 13.7071 2.44238C13.3988 1.9967 12.9096 1.48433 12.4979 1.17588C11.5506 0.46614 10.5169 0.0883161 9.32158 0.0148815C8.9984 -0.0049755 8.96313 -0.0049755 8.63794 0.0149717ZM9.61256 0.962853C10.4294 1.07958 11.2171 1.4168 11.8915 1.9385C12.8836 2.70602 13.5549 3.87264 13.6814 5.04913C13.7091 5.30644 13.6936 5.86315 13.6522 6.09761C13.4961 6.98105 13.0819 7.76274 12.424 8.41519C11.5738 9.25824 10.4881 9.74228 9.28156 9.81615C7.93974 9.89831 6.60998 9.40912 5.63506 8.47469C5.27018 8.12495 4.97479 7.72713 4.74819 7.28025C4.53084 6.85162 4.39864 6.43541 4.33606 5.98275C4.29237 5.66657 4.30497 5.06323 4.36155 4.76203C4.61328 3.42216 5.46293 2.25632 6.7099 1.53975C7.2907 1.20599 7.92547 1.00502 8.6192 0.935252C8.83525 0.913535 9.37174 0.928428 9.61256 0.962853Z" fill="black"/>
</svg>
