<svg width="19" height="24" viewBox="0 0 19 24" fill="none" xmlns="http://www.w3.org/2000/svg">
<path fill-rule="evenodd" clip-rule="evenodd" d="M0.679895 0.161918C0.502497 0.24928 0.277075 0.452456 0.17902 0.613239C0.0076382 0.894325 0.000668337 1.33457 0.000381905 11.9431L0 22.9804L0.218166 23.3049C0.342764 23.4903 0.578116 23.6782 0.767161 23.7433C1.01387 23.8283 3.37465 23.8585 10.049 23.8627L19 23.868L18.9996 12.3868C18.9993 1.32225 18.9927 0.894993 18.8199 0.611616C18.428 -0.0312329 18.8811 -0.00153944 9.48558 0.000847498C1.76834 0.00275705 0.973392 0.0173651 0.679895 0.161918ZM17.9263 11.9577L17.9506 22.7233L9.52425 22.6989L1.09799 22.6745L1.07345 12.0288C1.05989 6.17365 1.06935 1.32913 1.09446 1.26325C1.13074 1.16806 2.8668 1.14839 9.5211 1.16777L17.902 1.19212L17.9263 11.9577ZM13.0325 2.48145C12.9941 2.54351 12.9939 3.26216 13.0322 4.07821L13.1017 5.56212L13.9743 5.49977C14.4541 5.4655 15.1618 5.4105 15.547 5.37756L16.2472 5.3176L16.1864 4.97341C16.0129 3.99085 15.1229 2.91797 14.2471 2.63564C13.5397 2.40764 13.1116 2.35331 13.0325 2.48145ZM14.2739 2.95511C14.4839 3.04533 14.7921 3.23438 14.9586 3.37521C15.2918 3.65687 15.7538 4.50012 15.7538 4.82666C15.7538 5.01503 15.6895 5.04005 15.0616 5.09648C14.6808 5.13075 14.1437 5.18422 13.8681 5.21535L13.3668 5.27187L13.3663 4.75963C13.366 4.47788 13.3381 3.8927 13.3043 3.45923L13.243 2.67116L13.5674 2.73112C13.746 2.76406 14.0638 2.86488 14.2739 2.95511ZM11.6797 3.15828C11.4081 3.26264 11.0064 3.52224 10.787 3.73516C9.31363 5.16503 9.69391 7.56409 11.5374 8.46941C11.9919 8.69263 12.1919 8.73321 12.794 8.7249C13.2395 8.71879 13.6483 8.65387 13.876 8.55323C14.2219 8.40038 14.2346 8.37994 14.1068 8.18126C14.0324 8.06563 13.6996 7.50394 13.3672 6.93298C12.7812 5.92646 12.7575 5.85982 12.5898 4.737C12.3476 3.11494 12.3167 2.95778 12.2407 2.96342C12.2036 2.96618 11.9512 3.05383 11.6797 3.15828ZM3.62814 9.73734V13.5564H4.48744H5.34673V9.73734V5.91825H4.48744H3.62814V9.73734ZM13.4783 6.0966C13.5682 6.33081 14.8588 8.20656 14.9309 8.20799C15.0886 8.21114 15.6809 7.50451 15.8457 7.11649C15.936 6.90386 16.0356 6.56874 16.0668 6.37177L16.1236 6.01373H14.7851C14.0488 6.01373 13.4607 6.05106 13.4783 6.0966ZM6.68342 10.9308V13.6519H7.49498H8.30653V10.9308V8.20971H7.49498H6.68342V10.9308ZM9.64322 12.4585V13.5564H10.5025H11.3618V12.4585V11.3605H10.5025H9.64322V12.4585ZM12.6985 13.0313V13.6519H13.5101H14.3216V13.0313V12.4107H13.5101H12.6985V13.0313ZM3.62814 16.4208V16.9936H9.02261H14.4171V16.4208V15.8479H9.02261H3.62814V16.4208ZM3.62814 19.5715V20.1444H7.11307H10.598V19.5715V18.9987H7.11307H3.62814V19.5715Z" fill="black"/>
</svg>
