<svg width="20" height="20" viewBox="0 0 20 20" fill="none" xmlns="http://www.w3.org/2000/svg">
<path fill-rule="evenodd" clip-rule="evenodd" d="M0 2.34375V4.6875H0.625H1.25V2.96875V1.25H2.96875H4.6875V0.625V0H2.34375H0V2.34375ZM15.3125 0.625V1.25H17.0312H18.75V2.96875V4.6875H19.375H20V2.34375V0H17.6562H15.3125V0.625ZM2.37937 5.27344L2.42188 8.20312H5.3125H8.20312L8.24734 6.44531L8.29156 4.6875H8.83328H9.375V5.85938V7.03125H10H10.625V5.85938V4.6875H10H9.375V4.0625C9.375 3.45234 9.36203 3.4375 8.82812 3.4375C8.30734 3.4375 8.28125 3.41141 8.28125 2.89062V2.34375H5.30906H2.33687L2.37937 5.27344ZM9.40469 2.92969C9.45062 3.48594 9.48078 3.51562 10 3.51562C10.5192 3.51562 10.5494 3.48594 10.5953 2.92969L10.6439 2.34375H10H9.35609L9.40469 2.92969ZM11.7544 5.27344L11.7969 8.20312L12.9297 8.24906L14.0625 8.295V8.835V9.375H12.3531H10.6439L10.5953 8.78906C10.5494 8.23281 10.5192 8.20312 10 8.20312H9.45312V9.375V10.5469L11.7578 10.5902L14.0625 10.6333V10.0042V9.375H14.6875H15.3125V10.0069V10.6388L16.4453 10.5928L17.5781 10.5469L17.6266 9.96094L17.6752 9.375H16.4937H15.3125V8.835V8.295L16.4453 8.24906L17.5781 8.20312L17.6206 5.27344L17.6631 2.34375H14.6875H11.7119L11.7544 5.27344ZM7.03125 5.3125V7.03125H5.3125H3.59375V5.3125V3.59375H5.3125H7.03125V5.3125ZM16.4062 5.3125V7.03125H14.6875H12.9688V5.3125V3.59375H14.6875H16.4062V5.3125ZM4.71719 5.27344C4.76312 5.82969 4.79328 5.85938 5.3125 5.85938C5.83172 5.85938 5.86188 5.82969 5.90781 5.27344L5.95641 4.6875H5.3125H4.66859L4.71719 5.27344ZM14.0922 5.27344C14.1381 5.82969 14.1683 5.85938 14.6875 5.85938C15.2067 5.85938 15.2369 5.82969 15.2828 5.27344L15.3314 4.6875H14.6875H14.0436L14.0922 5.27344ZM2.37344 9.96094L2.42188 10.5469L3.55469 10.5928L4.6875 10.6388V11.1788C4.6875 11.6917 4.66016 11.7188 4.14062 11.7188C3.60672 11.7188 3.59375 11.7336 3.59375 12.3438C3.59375 12.9539 3.60672 12.9688 4.14062 12.9688H4.6875V14.0625V15.1562H4.14062C3.60672 15.1562 3.59375 15.1711 3.59375 15.7812V16.4062H2.95938H2.32484L2.37344 16.9922C2.41937 17.5484 2.44953 17.5781 2.96875 17.5781C3.48797 17.5781 3.51812 17.5484 3.56406 16.9922C3.60984 16.4403 3.64328 16.4062 4.14062 16.4062C4.63797 16.4062 4.67141 16.4403 4.71719 16.9922L4.76562 17.5781H7.65625H10.5469L10.5953 16.9922L10.6439 16.4062H10.0094H9.375V15.7812C9.375 15.1711 9.36203 15.1562 8.82812 15.1562C8.29422 15.1562 8.28125 15.1711 8.28125 15.7812V16.4062H7.10938H5.9375V15.8594C5.9375 15.3386 5.96359 15.3125 6.48438 15.3125C7.01828 15.3125 7.03125 15.2977 7.03125 14.6875V14.0625H7.65625H8.28125V12.8906V11.7188H8.82812C9.36203 11.7188 9.375 11.7039 9.375 11.0938C9.375 10.4836 9.36203 10.4688 8.82812 10.4688C8.29422 10.4688 8.28125 10.4836 8.28125 11.0938V11.7188H7.65625H7.03125V12.8906V14.0625H6.48438H5.9375V12.3506V10.6388L7.07031 10.5928L8.20312 10.5469L8.25156 9.96094L8.30016 9.375H5.3125H2.32484L2.37344 9.96094ZM14.1741 10.5655C14.1127 10.6269 14.0625 10.9114 14.0625 11.198V11.7188H12.3438H10.625V12.3438C10.625 12.9539 10.638 12.9688 11.1719 12.9688C11.6927 12.9688 11.7188 12.9948 11.7188 13.5156C11.7188 14.0347 11.6914 14.0625 11.1812 14.0625C10.6731 14.0625 10.6412 14.0306 10.5953 13.4766C10.5494 12.9203 10.5192 12.8906 10 12.8906C9.48078 12.8906 9.45062 12.9203 9.40469 13.4766L9.35609 14.0625H9.99062H10.625V14.6875C10.625 15.2961 10.6392 15.3125 11.165 15.3125H11.705L11.7509 16.4453L11.7969 17.5781H14.6875H17.5781L17.6206 14.6484L17.6631 11.7188H16.4972H15.3314L15.2828 11.1328C15.2394 10.6073 15.1855 10.542 14.76 10.5005C14.4991 10.4748 14.2355 10.5042 14.1741 10.5655ZM2.41281 13.0142C2.36594 13.1363 2.34891 13.6856 2.37484 14.2352L2.42188 15.2344H2.96875H3.51562V14.0625V12.8906L3.00672 12.8416C2.67547 12.8097 2.46813 12.87 2.41281 13.0142ZM16.4062 14.6875V16.4062H14.6875H12.9688V14.6875V12.9688H14.6875H16.4062V14.6875ZM14.0922 14.6484C14.1381 15.2047 14.1683 15.2344 14.6875 15.2344C15.2067 15.2344 15.2369 15.2047 15.2828 14.6484L15.3314 14.0625H14.6875H14.0436L14.0922 14.6484ZM0 17.6562V20H2.34375H4.6875V19.375V18.75H2.96875H1.25V17.0312V15.3125H0.625H0V17.6562ZM18.75 17.0312V18.75H17.0312H15.3125V19.375V20H17.6562H20V17.6562V15.3125H19.375H18.75V17.0312Z" fill="#2C2929"/>
</svg>
