<svg width="20" height="20" viewBox="0 0 20 20" fill="none" xmlns="http://www.w3.org/2000/svg">
<path d="M8.6399 0.0597935C8.42497 0.126274 8.11234 0.388285 7.98338 0.607279C7.87396 0.791077 7.83488 0.93577 7.7919 1.28773C7.77627 1.40504 7.75673 1.55365 7.74891 1.62013C7.7411 1.6827 7.72546 1.82348 7.71374 1.93298C7.67857 2.238 7.61604 2.62906 7.5926 2.66426C7.58087 2.6799 7.54961 2.69555 7.51835 2.69555C7.48709 2.69555 7.41674 2.7151 7.35422 2.73856C7.2956 2.76203 7.24089 2.77767 7.23698 2.77767C7.22135 2.77767 6.80712 2.96147 6.62736 3.0475L6.47495 3.1218L6.17796 2.88717C6.01383 2.75811 5.8497 2.62906 5.81453 2.60169C5.78327 2.57432 5.65821 2.48046 5.54098 2.39443C5.42374 2.30839 5.30651 2.21063 5.27525 2.17543C5.24789 2.13633 5.19709 2.10895 5.16973 2.10895C5.13847 2.10895 5.11502 2.09331 5.11502 2.07767C5.11502 2.02292 4.68907 1.89778 4.49759 1.89778C4.39598 1.89387 4.20059 1.92907 4.05991 1.96817C3.8098 2.04638 3.79027 2.06203 2.9579 2.88717C1.99657 3.84917 1.91059 3.9704 1.90278 4.40839C1.89887 4.67431 2.00438 5.12012 2.07081 5.12012C2.09035 5.12012 2.10599 5.13968 2.10599 5.16314C2.10599 5.1866 2.12943 5.22962 2.15288 5.257C2.2154 5.32739 2.25448 5.37431 2.39517 5.56984C2.4616 5.65588 2.52412 5.73409 2.53585 5.74582C2.55148 5.75755 2.63354 5.86705 2.72342 5.98828C2.8133 6.10951 2.90319 6.21901 2.92663 6.23465C2.95008 6.24638 2.99307 6.31286 3.02433 6.37543C3.07904 6.47711 3.07904 6.50839 3.02433 6.67655C2.98916 6.77822 2.93836 6.89554 2.911 6.93856C2.88365 6.98157 2.8133 7.15364 2.75469 7.31789C2.63745 7.65029 2.65699 7.63465 2.23885 7.67766C2.15288 7.68939 2.02001 7.70504 1.94576 7.71677C1.87151 7.7285 1.73474 7.74805 1.63704 7.75588C1.48073 7.77543 1.35568 7.79107 1.03133 7.838C0.871107 7.86146 0.621005 7.9475 0.621005 7.98269C0.621005 7.99833 0.601466 8.01398 0.581926 8.01398C0.519401 8.01398 0.269299 8.25252 0.175511 8.40504C-0.000342151 8.6866 -0.00815783 8.78437 0.00356569 10.0866C0.0152892 11.5101 0.0152892 11.5022 0.409981 11.8698C0.68353 12.124 0.859383 12.1788 1.67612 12.2648C2.15288 12.3117 2.63354 12.3978 2.6609 12.4447C2.67653 12.4682 2.7117 12.562 2.73515 12.6441C2.7586 12.7302 2.82503 12.9061 2.88755 13.0352C3.06341 13.4184 3.12202 13.567 3.08295 13.567C3.06341 13.567 3.03996 13.5983 3.02824 13.6335C3.0126 13.6726 2.95399 13.7587 2.89537 13.8291C2.70389 14.052 2.51631 14.2827 2.48114 14.3453C2.4616 14.3805 2.42643 14.4313 2.40298 14.4548C2.37953 14.4821 2.32873 14.5447 2.29356 14.5916C2.25448 14.6425 2.18023 14.7324 2.12552 14.7989C1.9145 15.0492 1.84025 15.5654 1.9653 15.9682C2.03174 16.1911 2.07472 16.2419 2.8602 17.0279C3.77854 17.9391 3.78245 17.943 4.0052 18.033C4.33736 18.1659 4.89228 18.1307 5.07595 17.9665C5.11112 17.9352 5.1541 17.9078 5.17364 17.9078C5.201 17.9078 5.49799 17.681 5.61914 17.5637C5.66603 17.5168 6.10371 17.1804 6.37335 16.981L6.49059 16.8989L6.7485 17.0123C7.11193 17.1765 7.13929 17.1844 7.3933 17.2821C7.51444 17.3291 7.61604 17.3877 7.61995 17.4151C7.61995 17.4385 7.62777 17.4933 7.63558 17.5363C7.65512 17.6302 7.69029 17.9039 7.74891 18.424C7.81534 18.9871 7.85833 19.1866 7.95603 19.3665C8.07717 19.5855 8.2921 19.7849 8.55002 19.9101C8.72587 19.9961 8.76104 20 10.0194 20C11.4887 20 11.4653 20.0039 11.7896 19.6715C12.0202 19.4369 12.071 19.3704 12.071 19.3039C12.071 19.2765 12.0866 19.2374 12.1062 19.2179C12.1257 19.1944 12.153 19.1006 12.1687 19.0028C12.1804 18.905 12.2078 18.7212 12.2273 18.5922C12.2468 18.4631 12.2703 18.252 12.2859 18.1229C12.3055 17.9156 12.3484 17.5911 12.368 17.505C12.3719 17.4894 12.3758 17.4542 12.3797 17.4268C12.3797 17.3994 12.536 17.3173 12.7275 17.243C13.0597 17.1179 13.1613 17.071 13.3997 16.9497C13.4817 16.9067 13.5286 16.8989 13.5638 16.9263C13.5911 16.9497 13.7123 17.0436 13.8295 17.1335C14.0484 17.3017 14.0601 17.3134 14.2047 17.4307C14.2516 17.4659 14.3453 17.5402 14.4196 17.595C14.4899 17.6497 14.6033 17.7358 14.6658 17.7905C14.7322 17.8453 14.8299 17.9196 14.8846 17.9508C15.0331 18.0408 15.463 18.1503 15.5802 18.1268C15.6388 18.1151 15.7561 18.0955 15.8381 18.0838C16.0882 18.0486 16.2328 17.9352 17.0261 17.1492C17.8272 16.3553 18.0304 16.1011 18.0852 15.8235C18.1516 15.4637 18.0226 14.9514 17.8077 14.7246C17.7647 14.6777 17.6748 14.5642 17.6084 14.4665C17.542 14.3726 17.456 14.2553 17.4208 14.2123C17.3817 14.1693 17.2489 13.9933 17.1199 13.8251L16.8894 13.5162L17.073 13.0821C17.1785 12.8436 17.284 12.5894 17.3075 12.5229C17.3583 12.3899 17.3857 12.3782 17.796 12.3352C19.2458 12.1827 19.492 12.0967 19.8046 11.6274C19.9961 11.3497 20 11.2911 20 9.99666V8.77654L19.8945 8.55364C19.7655 8.2799 19.5819 8.08437 19.3396 7.95923C19.1364 7.85364 19.0934 7.84191 18.3626 7.75588C18.0734 7.72068 17.7217 7.67375 17.585 7.65029L17.3309 7.60336L17.245 7.32962C17.1942 7.1771 17.0926 6.93465 17.0222 6.78604C16.8894 6.52403 16.8894 6.50839 16.948 6.41454C16.9831 6.35979 17.0222 6.30504 17.0379 6.29331C17.0496 6.28158 17.0769 6.24638 17.0965 6.21118C17.1277 6.15252 17.2723 5.97264 17.5068 5.69107C18.0891 4.99498 18.1985 4.65476 18.0383 4.04471C17.9914 3.87655 17.7882 3.63409 17.1551 2.99666C16.4243 2.25364 16.1351 2.00728 15.971 1.96817C15.7483 1.91342 15.5294 1.88605 15.4161 1.89778C15.2246 1.91733 14.8964 2.03856 14.7908 2.12851C14.7361 2.17543 14.6463 2.24582 14.5876 2.28884C14.5329 2.32795 14.4665 2.37879 14.4391 2.40225C14.4157 2.4218 14.3258 2.49219 14.2398 2.55867C14.1539 2.62124 14.064 2.69163 14.0405 2.7151C14.0171 2.73465 13.9507 2.7894 13.892 2.83242C13.8295 2.87543 13.724 2.95756 13.6498 3.01621C13.5286 3.11007 13.5052 3.11398 13.4075 3.06705C13.1027 2.91845 12.7744 2.78158 12.6064 2.73465C12.3914 2.67599 12.3875 2.67208 12.3641 2.47264C12.3289 2.19108 12.2664 1.69834 12.2507 1.60057C12.2429 1.54583 12.2234 1.39331 12.2117 1.26426C12.1804 0.974876 12.0866 0.689402 11.9616 0.513424C11.8287 0.329626 11.477 0.0832558 11.2816 0.0363293C11.0159 -0.0223293 8.84701 -0.00668716 8.6399 0.0597935ZM10.7619 5.91398C10.8048 5.92571 10.9455 5.96091 11.0745 5.9961C11.5122 6.10951 12.2664 6.45364 12.2664 6.53576C12.2664 6.55141 12.2859 6.56705 12.3094 6.56705C12.3328 6.56705 12.3719 6.59051 12.4032 6.61398C12.4305 6.64135 12.5008 6.70001 12.5634 6.74303C13.1535 7.16537 13.8959 8.28772 14.0054 8.92515C14.0171 8.99163 14.0523 9.15978 14.0835 9.29666C14.2086 9.83241 14.1304 10.7475 13.9116 11.4084C13.8334 11.6352 13.5364 12.2374 13.4817 12.2765C13.4661 12.2883 13.3879 12.3939 13.302 12.5112C12.7705 13.2464 11.985 13.7743 11.0354 14.0207C10.9064 14.0559 10.7658 14.0911 10.7228 14.1028C10.6798 14.1145 10.4062 14.1302 10.1171 14.1419C9.71455 14.1575 9.51525 14.1458 9.27688 14.095C9.10493 14.0598 8.93299 14.0246 8.89391 14.0168C8.63208 13.962 7.73328 13.5475 7.73328 13.481C7.73328 13.4654 7.70592 13.4497 7.67466 13.4497C7.6434 13.4497 7.61604 13.4341 7.61604 13.4145C7.61604 13.395 7.58087 13.3676 7.54179 13.352C7.46755 13.3285 6.85792 12.7302 6.67816 12.5073C6.51012 12.2922 6.23267 11.8073 6.17014 11.6117C6.1506 11.557 6.10371 11.4201 6.06072 11.3067C6.01774 11.1972 5.98647 11.1034 5.9982 11.1034C6.00601 11.1034 5.99429 11.0564 5.97084 10.9939C5.89659 10.7983 5.87705 10.5832 5.88096 9.93017C5.88096 9.33967 5.89269 9.25364 5.99038 8.93297C6.049 8.73744 6.12325 8.51844 6.15842 8.44414C6.32646 8.06872 6.45541 7.81845 6.50622 7.77543C6.53748 7.75196 6.56093 7.71286 6.56093 7.69331C6.56093 7.60727 7.10802 7.00504 7.40893 6.76258C7.65512 6.56705 7.90913 6.40671 8.21394 6.26202C8.87046 5.94917 9.27688 5.86705 10.078 5.87878C10.4102 5.8866 10.7189 5.89834 10.7619 5.91398Z" fill="black"/>
</svg>
