<svg width="22" height="19" viewBox="0 0 22 19" fill="none" xmlns="http://www.w3.org/2000/svg">
<path fill-rule="evenodd" clip-rule="evenodd" d="M1.61415 0.370209C1.5103 0.573886 1.10464 1.42771 0.712647 2.26768L0 3.79495L0.0360744 4.50929C0.0888465 5.5575 0.473074 6.19095 1.2518 6.51347L1.53155 6.62938L1.53191 12.043C1.53218 17.3155 1.53691 17.4645 1.71246 17.7523C2.06454 18.3299 1.64826 18.3051 10.9966 18.3051C20.345 18.3051 19.9287 18.3299 20.2808 17.7523C20.4563 17.4645 20.461 17.3155 20.4613 12.043L20.4617 6.62938L20.7414 6.51347C21.5186 6.19148 21.9028 5.5592 21.9606 4.50644L22 3.78915L21.1321 2.05088C20.6547 1.09473 20.2019 0.242163 20.1258 0.156263C19.9958 0.00937576 19.4424 0 10.8953 0H1.80309L1.61415 0.370209ZM4.56189 0.736667C4.55876 0.847212 4.4475 1.52021 4.31464 2.23232L4.07301 3.52707L2.44511 3.55145C1.54977 3.56475 0.817209 3.55234 0.817209 3.52368C0.817209 3.49511 1.04401 2.94167 1.32118 2.29394C1.59834 1.64612 1.88015 0.985616 1.94739 0.82596L2.06972 0.535758H3.31857C4.55591 0.535758 4.56742 0.537633 4.56189 0.736667ZM8.624 1.22778C8.59373 1.60834 8.54257 2.28144 8.51033 2.72344L8.45176 3.52707L6.59232 3.55127C4.84879 3.57386 4.73583 3.56556 4.78012 3.41733C4.83137 3.24562 5.28186 0.721844 5.28186 0.606299C5.28186 0.567546 6.04629 0.535758 6.98048 0.535758H8.67919L8.624 1.22778ZM12.6093 0.647374C12.6124 0.708808 12.6639 1.39181 12.7238 2.16535L12.8328 3.57172H10.9977H9.16253L9.27048 2.12071C9.32978 1.3227 9.38085 0.639516 9.38389 0.602727C9.38683 0.565939 10.1126 0.535758 10.9966 0.535758C12.22 0.535758 12.6052 0.562456 12.6093 0.647374ZM16.7049 1.00455C16.7575 1.26233 16.8956 1.94543 17.0118 2.52253L17.2233 3.57172H15.3728H13.5223L13.4627 2.56717C13.4299 2.01472 13.3789 1.33154 13.3492 1.04919L13.2952 0.535758H14.9523H16.6094L16.7049 1.00455ZM20.4662 1.97846C20.832 2.77192 21.1448 3.45501 21.1611 3.49644C21.1775 3.53788 20.4541 3.57172 19.5535 3.57172H17.916L17.6229 2.12071C17.4618 1.3227 17.3314 0.639516 17.3332 0.602727C17.335 0.565939 17.891 0.535758 18.5687 0.535758H19.8011L20.4662 1.97846ZM3.94246 4.57769C3.94246 5.53902 3.31089 6.09764 2.21 6.11005C1.25492 6.12076 0.638623 5.51455 0.638623 4.56412V4.10748H2.29054H3.94246V4.57769ZM8.40658 4.44232C8.40524 5.34561 7.97029 5.89378 7.1137 6.07165C6.55178 6.18827 6.04138 6.13184 5.48839 5.892C5.01568 5.68689 4.7461 5.20221 4.7461 4.55751V4.10748H6.57661H8.40711L8.40658 4.44232ZM12.8364 4.61787C12.7548 5.31177 12.5538 5.62662 12.022 5.89316C11.1313 6.33962 9.76294 6.0846 9.37156 5.39919C9.28647 5.25016 9.18985 4.89861 9.15682 4.61787L9.0969 4.10748H10.9966H12.8963L12.8364 4.61787ZM17.2471 4.55751C17.2471 5.20221 16.9775 5.68689 16.5048 5.892C15.9518 6.13184 15.4414 6.18827 14.8795 6.07165C14.0229 5.89378 13.588 5.34561 13.5866 4.44232L13.5861 4.10748H15.4166H17.2471V4.55751ZM21.3546 4.56412C21.3546 5.51455 20.7383 6.12076 19.7832 6.11005C18.6823 6.09764 18.0508 5.53902 18.0508 4.57769V4.10748H19.7027H21.3546V4.56412ZM5.18899 6.42722C6.26229 6.97485 7.85546 6.75939 8.52605 5.97593L8.81956 5.63305L8.97644 5.8986C9.1703 6.22684 9.81169 6.56116 10.4867 6.68599C11.4135 6.85725 12.6841 6.46186 13.0168 5.8986L13.1737 5.63305L13.4672 5.97593C14.3354 6.9903 16.4994 6.98414 17.39 5.96459L17.648 5.66912L17.8916 5.94646C18.1427 6.23247 18.9727 6.60768 19.3542 6.60768H19.5702L19.5471 11.9429L19.5241 17.2782L18.2999 17.303L17.0757 17.3278L17.0498 13.4487L17.0239 9.56944L16.7548 9.18244C16.5976 8.95626 16.3206 8.71187 16.0885 8.59445C15.7164 8.40622 15.5797 8.39354 13.9215 8.39354C12.5261 8.39354 12.0817 8.42274 11.821 8.53176C11.3999 8.70767 11.1134 8.97564 10.8987 9.39451C10.7394 9.70489 10.7287 9.96617 10.7287 13.5252V17.3246L6.59893 17.3014L2.46913 17.2782L2.44698 12.0099L2.42484 6.74162L3.08275 6.54214C3.59619 6.38641 3.80692 6.26872 4.04247 6.00638L4.34428 5.6701L4.60368 5.96557C4.74637 6.12809 5.00978 6.33587 5.18899 6.42722ZM15.9613 9.50077L16.2649 9.80437V13.5636V17.3228H13.8986H11.5324L11.5343 13.5502C11.5362 10.1101 11.55 9.76088 11.6906 9.58828C11.9813 9.23164 12.1484 9.20271 13.9299 9.19985L15.6577 9.19717L15.9613 9.50077ZM5.12113 9.84008C5.04327 9.91795 5.01398 10.5875 5.01398 12.2925C5.01398 14.5198 5.02264 14.6424 5.18667 14.7302C5.28579 14.7833 5.98968 14.8226 6.83859 14.8226C8.19879 14.8226 8.33219 14.8083 8.4964 14.644C8.66544 14.475 8.67499 14.3464 8.67499 12.2395C8.67499 10.3349 8.65472 9.99331 8.53471 9.87321C8.41765 9.75624 8.13137 9.73293 6.81136 9.73293C5.69912 9.73293 5.1964 9.76481 5.12113 9.84008ZM7.87135 12.2806V14.0246L6.82216 13.9995L5.77297 13.9743L5.74868 12.2555L5.72448 10.5366H6.79787H7.87135V12.2806ZM12.1615 13.9693C11.9203 14.26 12.3195 14.6096 12.587 14.3421C12.7007 14.2283 12.7124 14.1586 12.6375 14.0396C12.5071 13.8326 12.3004 13.8021 12.1615 13.9693Z" fill="black"/>
</svg>
