<svg width="70" height="86" viewBox="0 0 70 86" fill="none" xmlns="http://www.w3.org/2000/svg">
<circle cx="35" cy="35" r="34.5" fill="url(#paint0_linear_6180_393)" stroke="#FFD3B6"/>
<path d="M33.9288 18.565C31.1839 19.2894 29.1761 21.6022 28.8838 24.3599L28.8075 25.0969H27.3207C25.9864 25.0969 25.7958 25.1223 25.4018 25.3892C25.1604 25.5417 24.8935 25.8213 24.8172 25.9992C24.652 26.3296 23 42.3416 23 43.5235C23 44.0699 23.0635 44.2224 23.4321 44.6418L23.8641 45.112L35.2886 45.1501C43.3454 45.1755 46.802 45.1374 47.0435 45.0357C47.5518 44.8197 47.9203 44.3622 47.9966 43.8158C48.0855 43.066 46.4208 26.5075 46.192 26.0119C45.8489 25.2748 45.3787 25.0969 43.6886 25.0969H42.189V24.614C42.189 24.3472 42.1001 23.8007 41.9984 23.3814C41.0834 19.8867 37.36 17.6501 33.9288 18.565ZM37.3981 20.395C38.9485 20.9795 40.3337 22.7714 40.4989 24.3726L40.5751 25.0969H35.5301H30.4977V24.7284C30.4977 24.0676 30.9933 22.7587 31.4889 22.1106C32.9122 20.2298 35.2251 19.5563 37.3981 20.395ZM28.8457 27.3462C28.8457 28.0706 29.1125 28.401 29.6844 28.401C30.2181 28.401 30.4977 28.0198 30.4977 27.2954V26.749H35.5173H40.537V27.3208C40.537 27.9943 40.8547 28.401 41.3884 28.401C41.9349 28.401 42.189 28.0706 42.189 27.3589V26.749H43.4471H44.7052L44.7814 27.3462C44.8704 28.0706 46.3827 43.1804 46.3827 43.3837C46.3827 43.4853 43.2819 43.5235 35.5173 43.5235H24.652V43.2566C24.652 42.9135 26.1643 27.6893 26.2532 27.1556L26.3168 26.749H27.5749H28.8457V27.3462Z" fill="black"/>
<path d="M31.7304 30.358C29.9385 31.0061 28.9092 33.1919 29.5446 34.9964C29.8623 35.8987 30.4087 36.5468 32.7724 38.7961C34.6405 40.5752 35.1488 40.9819 35.4411 40.9819C35.7207 40.9819 36.229 40.6006 37.8429 39.1392C40.0795 37.1314 40.7149 36.4197 41.2486 35.3014C41.668 34.4373 41.7951 33.0394 41.5536 32.1498C41.1978 30.8918 40.0414 30.0911 38.7197 30.2055C38.1479 30.2564 37.881 30.3707 37.1567 30.879C36.6865 31.2222 35.8096 31.9719 35.2251 32.5438C34.2974 33.4333 34.1703 33.624 34.2465 33.8781C34.3482 34.2594 34.7676 34.6279 35.0726 34.6279C35.1996 34.6279 35.8223 34.1704 36.4577 33.6113C37.0931 33.0521 37.8556 32.4294 38.1352 32.2134C39.2281 31.4255 40.0287 31.9084 40.0287 33.3571C40.0287 34.4754 39.6728 35.0091 37.5887 37.0678C36.534 38.1099 35.6063 38.9486 35.5046 38.9486C35.2759 38.9486 31.8193 35.6445 31.4 35.0345C31.006 34.4627 30.9044 33.535 31.1712 33.014C31.2856 32.8107 31.5906 32.4421 31.8447 32.2134C32.3022 31.8194 32.3404 31.8067 33.0901 31.883C34.577 32.0482 34.577 32.0482 34.8565 31.6796C35.4411 30.9045 34.5007 30.1674 32.9249 30.1801C32.531 30.1928 31.9972 30.2691 31.7304 30.358Z" fill="black"/>
<g filter="url(#filter0_f_6180_393)">
<ellipse cx="35.5" cy="73" rx="18.5" ry="3" fill="#424141" fill-opacity="0.2"/>
</g>
<defs>
<filter id="filter0_f_6180_393" x="7" y="60" width="57" height="26" filterUnits="userSpaceOnUse" color-interpolation-filters="sRGB">
<feFlood flood-opacity="0" result="BackgroundImageFix"/>
<feBlend mode="normal" in="SourceGraphic" in2="BackgroundImageFix" result="shape"/>
<feGaussianBlur stdDeviation="5" result="effect1_foregroundBlur_6180_393"/>
</filter>
<linearGradient id="paint0_linear_6180_393" x1="35" y1="23" x2="35" y2="59" gradientUnits="userSpaceOnUse">
<stop stop-color="#FFD588"/>
<stop offset="1" stop-color="#F8A88C"/>
</linearGradient>
</defs>
</svg>
