<svg width="70" height="86" viewBox="0 0 70 86" fill="none" xmlns="http://www.w3.org/2000/svg">
<circle cx="35" cy="35" r="34.5" fill="url(#paint0_linear_6180_392)" stroke="#FFD3B6"/>
<path d="M43.3488 23.2696C42.4454 23.6332 41.8823 24.4662 41.9527 25.3343L41.9879 25.8505L40.3572 26.8477L38.7266 27.8566L38.2338 27.6102C37.3892 27.1879 36.6501 27.2934 35.8993 27.9504L35.477 28.3258L34.339 27.6337C33.248 26.9767 33.1893 26.918 33.1072 26.4605C32.943 25.4751 32.4385 24.8885 31.5704 24.6539C30.8665 24.4662 30.3738 24.6069 29.799 25.1701C29.1889 25.7566 28.9308 26.4722 29.1303 27.0471C29.2124 27.2465 29.2124 27.4342 29.1537 27.4694C29.1068 27.5046 28.2269 28.0912 27.218 28.7599C25.3879 29.9799 25.3645 29.9917 25.0008 29.8392C24.1092 29.4638 23.4053 29.5811 22.7132 30.2263C21.5752 31.2469 22.1031 33.1709 23.6282 33.5815C24.8366 33.91 26.0918 32.8893 26.0918 31.5871V31.1179L28.1331 29.757C30.1626 28.4079 30.1861 28.3962 30.5967 28.537C31.0894 28.7012 31.7346 28.5956 32.1335 28.2789C32.4737 28.0208 32.3916 27.9856 34.1279 29.0766C35.0194 29.6397 35.3596 29.9213 35.5122 30.2263C36.0987 31.4698 37.7998 31.7397 38.7266 30.7425C39.0433 30.414 39.3483 29.6984 39.3483 29.323C39.3483 29.0884 39.6299 28.8655 41.0611 27.9856L42.7739 26.9298L43.1962 27.0823C43.7828 27.2934 44.2169 27.2817 44.6627 27.0588C45.5191 26.6248 45.9179 26.0265 45.9179 25.1935C45.9179 24.2785 45.3196 23.5159 44.4163 23.2578C43.9001 23.1171 43.7242 23.1171 43.3488 23.2696ZM44.4867 24.6891C44.5571 24.7595 44.6275 24.9941 44.6275 25.2053C44.6275 25.9443 43.6186 26.2142 43.3136 25.5455C42.9616 24.7712 43.8063 24.1494 44.4867 24.6891ZM31.6994 26.1672C31.8754 26.4019 31.8754 26.5661 31.6994 26.9532C31.5235 27.3404 31.1011 27.446 30.714 27.1879C30.3034 26.9298 30.3503 26.2142 30.7844 25.9913C31.1129 25.827 31.4765 25.8974 31.6994 26.1672ZM37.9288 29.0532C38.1635 29.5459 37.9054 29.9917 37.3775 30.0386C36.8613 30.0855 36.6501 29.8861 36.6501 29.3464C36.6501 28.8303 36.873 28.6426 37.4126 28.6895C37.6707 28.7012 37.8115 28.8068 37.9288 29.0532ZM24.5433 31.071C24.7192 31.1883 24.8014 31.3643 24.8014 31.6341C24.8014 32.1151 24.6254 32.291 24.0975 32.291C23.5813 32.291 23.3936 32.1151 23.3936 31.6575C23.3936 30.9888 23.9919 30.6838 24.5433 31.071Z" fill="black"/>
<path d="M42.3984 31.4229C42.281 31.5637 42.2341 33.0536 42.1872 38.2271L42.1285 44.8437H41.4481H40.756V40.5852C40.756 37.4294 40.7208 36.2914 40.6152 36.1859C40.4157 35.9864 36.4036 35.9864 36.2042 36.1859C36.0986 36.2914 36.0634 37.4294 36.0634 40.5852V44.8437H35.4182H34.7729L34.7612 39.7053C34.7495 36.8898 34.7495 34.5435 34.7495 34.5083C34.7612 34.4613 34.6673 34.344 34.5383 34.2267C34.3506 34.0507 34.0573 34.0273 32.2976 34.0507C31.0423 34.0507 30.2094 34.1094 30.1156 34.1915C29.9982 34.2854 29.963 35.3999 29.963 39.5762V44.8437H29.2005H28.438V42.3331C28.438 40.198 28.4145 39.7874 28.2503 39.6349C28.0977 39.4707 27.6989 39.4472 25.7515 39.4472C23.6515 39.4472 23.4169 39.4707 23.2409 39.6584C23.065 39.8461 23.0415 40.2097 23.0415 42.3449V44.8085L21.6689 44.8789C20.5427 44.9375 20.2612 44.9844 20.1438 45.1487C19.9444 45.4185 19.9561 45.6766 20.1556 45.9699C20.3198 46.1928 20.6131 46.1928 33.2126 46.228C40.2984 46.2397 46.9384 46.2162 47.9708 46.1693L49.8478 46.0755L49.9534 45.7587C50.0355 45.5241 50.0121 45.3716 49.8595 45.1487C49.6718 44.8554 49.6132 44.8437 48.6747 44.8437H47.6892L47.654 38.2389C47.6306 32.8424 47.5836 31.5871 47.4546 31.4346C47.3138 31.2587 46.9853 31.2352 44.9206 31.2352C42.9145 31.2352 42.5157 31.2587 42.3984 31.4229ZM46.2697 38.6847V44.8437H44.9206H43.5715V38.6847V32.5257H44.9206H46.2697V38.6847ZM33.4473 37.535C33.4004 38.755 33.3652 40.8902 33.3652 42.2862V44.8437H32.3093H31.2535V40.0924V35.3412H32.3914H33.5177L33.4473 37.535ZM39.4655 41.0896V44.8437H38.4097H37.3538V41.0896V37.3355H38.4097H39.4655V41.0896ZM27.1475 42.7907V44.8437H25.8101C24.5314 44.8437 24.4727 44.8319 24.4023 44.5738C24.3085 44.2336 24.3085 41.7466 24.4023 41.1717L24.4845 40.7377H25.8101H27.1475V42.7907Z" fill="black"/>
<g filter="url(#filter0_f_6180_392)">
<ellipse cx="34.5" cy="73" rx="18.5" ry="3" fill="#424141" fill-opacity="0.2"/>
</g>
<defs>
<filter id="filter0_f_6180_392" x="6" y="60" width="57" height="26" filterUnits="userSpaceOnUse" color-interpolation-filters="sRGB">
<feFlood flood-opacity="0" result="BackgroundImageFix"/>
<feBlend mode="normal" in="SourceGraphic" in2="BackgroundImageFix" result="shape"/>
<feGaussianBlur stdDeviation="5" result="effect1_foregroundBlur_6180_392"/>
</filter>
<linearGradient id="paint0_linear_6180_392" x1="35" y1="23" x2="35" y2="59" gradientUnits="userSpaceOnUse">
<stop stop-color="#FFD588"/>
<stop offset="1" stop-color="#F8A88C"/>
</linearGradient>
</defs>
</svg>
