<svg width="70" height="86" viewBox="0 0 70 86" fill="none" xmlns="http://www.w3.org/2000/svg">
<circle cx="35" cy="35" r="34.5" fill="url(#paint0_linear_6180_395)" stroke="#FFD3B6"/>
<path d="M33.3081 20.5574C31.0724 21.0447 29.0087 22.1052 29.0087 22.7644C29.0087 23.094 29.582 23.7246 29.8972 23.7246C30.0549 23.7246 30.6425 23.5096 31.2014 23.2373C32.9211 22.4205 33.8383 22.2198 36.1027 22.2341C37.9944 22.2341 38.195 22.2628 39.4705 22.6927C42.4084 23.7103 44.6727 25.688 45.9912 28.3536C47.4817 31.4061 47.4817 35.1036 45.9912 38.1561C44.6727 40.8218 42.4084 42.7995 39.4705 43.817C38.195 44.2469 37.9944 44.2756 36.1027 44.2756C33.8383 44.2899 32.9211 44.0893 31.1871 43.2724C29.9976 42.6991 29.6536 42.6991 29.238 43.2581C28.9657 43.6307 28.9657 43.688 29.152 44.0463C29.4243 44.5479 31.1154 45.3791 32.7348 45.8234C34.3399 46.2533 37.5645 46.2819 39.0979 45.8807C44.5438 44.4332 48.3559 40.0479 48.9291 34.559C49.5884 28.1816 45.5899 22.4348 39.2555 20.6864C37.7651 20.2708 34.8845 20.2134 33.3081 20.5574Z" fill="black"/>
<path d="M33.2365 26.6624C33.0358 26.8487 32.8782 27.1497 32.8782 27.3217C32.8782 27.551 33.5948 28.3678 35.1999 29.9873L37.5215 32.3233H31.0438C24.7524 32.3233 24.5518 32.3376 24.2795 32.6099C23.9068 32.9825 23.9068 33.5271 24.2795 33.8997C24.5518 34.172 24.7524 34.1863 31.0438 34.1863H37.5215L35.1999 36.5223C33.5948 38.1417 32.8782 38.9586 32.8782 39.1879C32.8782 39.5605 33.4801 40.2054 33.8241 40.2054C33.953 40.2054 34.7413 39.5462 35.5725 38.7293C40.7604 33.6704 40.8464 33.5701 40.6887 33.0112C40.5597 32.6242 34.8416 26.8057 34.2827 26.5048C33.7524 26.2325 33.6378 26.2468 33.2365 26.6624Z" fill="black"/>
<g filter="url(#filter0_f_6180_395)">
<ellipse cx="35.5" cy="73" rx="18.5" ry="3" fill="#424141" fill-opacity="0.2"/>
</g>
<defs>
<filter id="filter0_f_6180_395" x="7" y="60" width="57" height="26" filterUnits="userSpaceOnUse" color-interpolation-filters="sRGB">
<feFlood flood-opacity="0" result="BackgroundImageFix"/>
<feBlend mode="normal" in="SourceGraphic" in2="BackgroundImageFix" result="shape"/>
<feGaussianBlur stdDeviation="5" result="effect1_foregroundBlur_6180_395"/>
</filter>
<linearGradient id="paint0_linear_6180_395" x1="35" y1="23" x2="35" y2="59" gradientUnits="userSpaceOnUse">
<stop stop-color="#FFD588"/>
<stop offset="1" stop-color="#F8A88C"/>
</linearGradient>
</defs>
</svg>
