<svg width="13" height="7" viewBox="0 0 13 7" fill="none" xmlns="http://www.w3.org/2000/svg">
<path fill-rule="evenodd" clip-rule="evenodd" d="M6.00778 0.0125399C4.73818 0.0978258 3.52421 0.499797 2.39091 1.2102C2.03519 1.43318 1.21727 2.09565 0.904973 2.41373C0.637423 2.68622 0.19351 3.21237 0.0727469 3.40009L0 3.51318L0.127941 3.72867C0.792555 4.84825 1.96977 5.83888 3.29121 6.3906C4.29394 6.80923 5.2675 6.99707 6.44931 6.99994C6.98147 7.00124 7.27684 6.98037 7.73907 6.90887C9.43064 6.64718 11.0474 5.76185 12.2883 4.41775C12.5076 4.18019 12.875 3.71973 12.9589 3.57738L13 3.50752L12.8531 3.30485C12.2473 2.46885 11.4547 1.73208 10.5331 1.1482C9.79556 0.680986 8.71955 0.264455 7.86873 0.116821C7.30867 0.0196453 6.54181 -0.0233159 6.00778 0.0125399ZM6.8171 1.32655C7.47725 1.38711 7.96908 1.57319 8.41639 1.93163C8.80059 2.2395 9.00519 2.53569 9.14399 2.98498C9.22361 3.24274 9.22361 3.76251 9.14399 4.02028C8.95608 4.62851 8.54002 5.0947 7.91873 5.39319C7.45087 5.61796 6.80718 5.72879 6.24591 5.68121C5.57345 5.62422 5.07064 5.44059 4.61542 5.08575C4.26213 4.8104 4.02703 4.48455 3.89546 4.0879C3.83313 3.90002 3.82735 3.8502 3.82735 3.50263C3.82735 3.15506 3.83313 3.10524 3.89546 2.91735C4.02703 2.5207 4.26213 2.19486 4.61542 1.91951C5.20176 1.46248 5.98863 1.25057 6.8171 1.32655ZM6.17029 2.22026C5.61695 2.31647 5.13018 2.6853 4.95209 3.14325C4.87376 3.34466 4.87376 3.66059 4.95209 3.86201C5.16954 4.4212 5.81559 4.81621 6.51272 4.81621C7.09353 4.81621 7.6686 4.53004 7.93973 4.1061C8.27194 3.58662 8.15663 2.99551 7.64134 2.57658C7.25039 2.2587 6.70661 2.12701 6.17029 2.22026Z" fill="#FD9149"/>
</svg>
