<svg width="20" height="18" viewBox="0 0 20 18" fill="none" xmlns="http://www.w3.org/2000/svg">
<path d="M1.32784 0.147224C1.19939 0.226465 1.12933 0.310367 1.06317 0.464186L0.977539 0.67394L0.985323 3.49397C0.997 6.28136 0.997 6.31399 1.08263 6.50044C1.26167 6.9013 1.54191 7.10173 1.91166 7.10173C2.28142 7.10173 2.56166 6.9013 2.7407 6.50044C2.82244 6.32331 2.82633 6.23941 2.838 5.08343L2.84968 3.84822L5.19278 6.65426C6.8236 8.60264 7.57869 9.47894 7.67988 9.53022C8.00293 9.6887 8.45443 9.58149 8.69964 9.2925C8.94095 8.99884 9.03047 8.45814 8.89814 8.07126C8.85532 7.95007 8.12359 7.0458 6.49666 5.09276L4.15356 2.28671L5.18499 2.27273C6.15025 2.25875 6.22031 2.25409 6.36822 2.1562C6.70294 1.94179 6.87031 1.60618 6.87031 1.16337C6.87031 0.720552 6.70294 0.384946 6.36822 0.17053C6.21253 0.0679846 6.18528 0.0679846 3.85776 0.0540009L1.50298 0.0446787L1.32784 0.147224Z" fill="#F7D299"/>
<path d="M13.8215 0.0866289C13.3933 0.24511 13.1442 0.641312 13.1442 1.16337C13.1442 1.60618 13.3116 1.94179 13.6463 2.1562C13.7942 2.25409 13.8643 2.25875 14.8295 2.27273L15.861 2.28671L13.5179 5.09276C11.8909 7.0458 11.1592 7.95007 11.1164 8.07126C10.984 8.45814 11.0736 8.99884 11.3149 9.2925C11.5601 9.58149 12.0116 9.6887 12.3346 9.53022C12.4358 9.47894 13.1909 8.60264 14.8217 6.65426L17.1648 3.84822L17.1765 5.08343C17.1882 6.23941 17.1921 6.32331 17.2738 6.50044C17.4529 6.9013 17.7331 7.10173 18.1029 7.10173C18.4804 7.10173 18.7567 6.89664 18.9436 6.47713C19.0136 6.32331 19.0175 6.14153 19.0292 3.49397L19.037 0.67394L18.9514 0.464186C18.8852 0.310367 18.8151 0.226465 18.6867 0.147224L18.5154 0.0446787L16.2151 0.0493393C14.9541 0.0493393 13.8759 0.0679846 13.8215 0.0866289Z" fill="#F7D299"/>
<path d="M7.73048 7.75323C7.64485 7.79052 7.56701 7.82315 7.55533 7.82315C7.54755 7.82315 6.48109 9.08633 5.19278 10.6292L2.84968 13.4352L2.838 12.2C2.82633 11.044 2.82244 10.9601 2.7407 10.783C2.56166 10.3821 2.28142 10.1817 1.91166 10.1817C1.53412 10.1817 1.25778 10.3868 1.07095 10.8063C1.00089 10.9601 0.997 11.1419 0.985323 13.7895L0.977539 16.6095L1.06317 16.8193C1.12933 16.9731 1.19939 17.057 1.32784 17.1362L1.50298 17.2388L3.85776 17.2294C6.18528 17.2155 6.21253 17.2155 6.36822 17.1129C6.70294 16.8985 6.87031 16.5629 6.87031 16.1201C6.87031 15.6679 6.69905 15.337 6.34876 15.1133C6.2281 15.034 6.08798 15.02 5.18888 15.0014L4.16913 14.9781L6.46941 12.228C7.79665 10.6385 8.80083 9.39863 8.85143 9.29143C8.96041 9.04904 8.9643 8.5736 8.86311 8.33588C8.64125 7.82315 8.14305 7.56678 7.73048 7.75323Z" fill="#F7D299"/>
<path d="M11.6813 7.79052C11.4945 7.86044 11.1909 8.23334 11.1403 8.45707C11.0819 8.71344 11.0858 9.05837 11.1558 9.2588C11.1987 9.37999 11.9304 10.2843 13.5379 12.214L15.8615 14.9967L14.8301 15.0107C13.9154 15.0247 13.787 15.034 13.6663 15.1133C13.316 15.337 13.1447 15.6679 13.1447 16.1201C13.1447 16.5629 13.3121 16.8985 13.6468 17.1129C13.8025 17.2155 13.8298 17.2155 16.1573 17.2294L18.5121 17.2388L18.6872 17.1362C18.8157 17.057 18.8857 16.9731 18.9519 16.8193L19.0375 16.6095L19.0297 13.7895C19.0181 11.0021 19.0181 10.9695 18.9324 10.783C18.7534 10.3821 18.4731 10.1817 18.1034 10.1817C17.7258 10.1817 17.4495 10.3868 17.2627 10.8063C17.1965 10.9508 17.1887 11.1046 17.177 12.2L17.1654 13.4352L14.8417 10.6525C13.2304 8.72742 12.4753 7.85112 12.3741 7.79984C12.2067 7.7206 11.8837 7.71594 11.6813 7.79052Z" fill="#F7D299"/>
</svg>
