<svg width="20" height="30" viewBox="0 0 20 30" fill="none" xmlns="http://www.w3.org/2000/svg">
<path fill-rule="evenodd" clip-rule="evenodd" d="M6.75676 0.0502915C6.75676 0.0779518 6.65541 0.100583 6.53153 0.100583C6.40766 0.100583 6.30631 0.123214 6.30631 0.150874C6.30631 0.178535 6.22523 0.201166 6.12613 0.201166C6.02703 0.201166 5.94595 0.223797 5.94595 0.251457C5.94595 0.279118 5.88514 0.301749 5.81081 0.301749C5.73649 0.301749 5.67568 0.32438 5.67568 0.35204C5.67568 0.379701 5.61486 0.402332 5.54054 0.402332C5.46622 0.402332 5.40541 0.424963 5.40541 0.452623C5.40541 0.480284 5.34459 0.502915 5.27027 0.502915C5.19595 0.502915 5.13514 0.525546 5.13514 0.553206C5.13514 0.580867 5.09459 0.603498 5.04504 0.603498C4.9955 0.603498 4.95495 0.626129 4.95495 0.653789C4.95495 0.68145 4.91887 0.704081 4.87482 0.704081C4.83072 0.704081 4.76545 0.749343 4.72973 0.804664C4.69401 0.859984 4.62874 0.905247 4.58464 0.905247C4.54059 0.905247 4.5045 0.927878 4.5045 0.955538C4.5045 0.983198 4.47212 1.00583 4.43248 1.00583C4.39288 1.00583 4.30365 1.07372 4.23423 1.1567C4.16482 1.23968 4.0855 1.30758 4.05797 1.30758C3.9927 1.30758 3.06306 2.34549 3.06306 2.41837C3.06306 2.44909 3.00225 2.53766 2.92793 2.61516C2.8536 2.69266 2.79279 2.7873 2.79279 2.82537C2.79279 2.8635 2.75225 2.92732 2.7027 2.9672C2.65315 3.00708 2.61261 3.07995 2.61261 3.12919C2.61261 3.17837 2.59234 3.21865 2.56757 3.21865C2.54279 3.21865 2.52252 3.26392 2.52252 3.31924C2.52252 3.37456 2.50225 3.41982 2.47748 3.41982C2.4527 3.41982 2.43243 3.46508 2.43243 3.5204C2.43243 3.57572 2.41216 3.62099 2.38739 3.62099C2.36261 3.62099 2.34234 3.66625 2.34234 3.72157C2.34234 3.77689 2.32207 3.82215 2.2973 3.82215C2.27252 3.82215 2.25225 3.89005 2.25225 3.97303C2.25225 4.05601 2.23198 4.1239 2.20721 4.1239C2.18243 4.1239 2.16216 4.19179 2.16216 4.27478C2.16216 4.35776 2.14189 4.42565 2.11712 4.42565C2.09234 4.42565 2.07207 4.51617 2.07207 4.62682C2.07207 4.73746 2.0518 4.82798 2.02703 4.82798C2.00225 4.82798 1.98198 4.94114 1.98198 5.07944C1.98198 5.21774 1.96171 5.3309 1.93694 5.3309C1.90847 5.3309 1.89189 5.68294 1.89189 6.28643C1.89189 6.88993 1.90847 7.24197 1.93694 7.24197C1.96171 7.24197 1.98198 7.35513 1.98198 7.49343C1.98198 7.63173 2.00225 7.74489 2.02703 7.74489C2.0518 7.74489 2.07207 7.83541 2.07207 7.94605C2.07207 8.05669 2.09234 8.14722 2.11712 8.14722C2.14189 8.14722 2.16216 8.21511 2.16216 8.29809C2.16216 8.38107 2.18243 8.44897 2.20721 8.44897C2.23198 8.44897 2.25225 8.49423 2.25225 8.54955C2.25225 8.60487 2.27252 8.65013 2.2973 8.65013C2.32207 8.65013 2.34234 8.6954 2.34234 8.75072C2.34234 8.80604 2.36261 8.8513 2.38739 8.8513C2.41216 8.8513 2.43243 8.91421 2.43243 8.99106C2.43243 9.07314 2.46964 9.16074 2.52252 9.20334C2.57207 9.24322 2.61261 9.31609 2.61261 9.36533C2.61261 9.41451 2.63288 9.4548 2.65766 9.4548C2.68243 9.4548 2.7027 9.49508 2.7027 9.54427C2.7027 9.5935 2.74324 9.66637 2.79279 9.70626C2.84234 9.74614 2.88288 9.80996 2.88288 9.84808C2.88288 9.88615 2.94369 9.9808 3.01802 10.0583C3.09234 10.1358 3.15315 10.2244 3.15315 10.2552C3.15315 10.3283 3.90234 11.1647 3.96779 11.1647C3.99536 11.1647 4.07473 11.2326 4.14414 11.3156C4.21356 11.3986 4.30279 11.4665 4.34239 11.4665C4.38203 11.4665 4.41441 11.4891 4.41441 11.5167C4.41441 11.5444 4.43468 11.567 4.45946 11.567C4.48689 11.567 4.5045 11.3401 4.5045 10.9868V10.4065L4.0991 9.95771C3.87613 9.71088 3.69369 9.47914 3.69369 9.44268C3.69369 9.40622 3.65315 9.3438 3.6036 9.30392C3.55405 9.26404 3.51351 9.19615 3.51351 9.15305C3.51351 9.10995 3.47297 9.04206 3.42342 9.00217C3.37387 8.96229 3.33333 8.88942 3.33333 8.84019C3.33333 8.791 3.31306 8.75072 3.28829 8.75072C3.26351 8.75072 3.24324 8.70545 3.24324 8.65013C3.24324 8.59481 3.22297 8.54955 3.1982 8.54955C3.17342 8.54955 3.15315 8.50429 3.15315 8.44897C3.15315 8.39365 3.13288 8.34839 3.10811 8.34839C3.08333 8.34839 3.06306 8.28049 3.06306 8.19751C3.06306 8.11453 3.04279 8.04664 3.01802 8.04664C2.99324 8.04664 2.97297 7.97874 2.97297 7.89576C2.97297 7.81278 2.9527 7.74489 2.92793 7.74489C2.90315 7.74489 2.88288 7.63173 2.88288 7.49343C2.88288 7.35513 2.86261 7.24197 2.83784 7.24197C2.80959 7.24197 2.79279 6.92348 2.79279 6.38702C2.79279 5.85056 2.80959 5.53206 2.83784 5.53206C2.86261 5.53206 2.88288 5.41891 2.88288 5.28061C2.88288 5.1423 2.90315 5.02915 2.92793 5.02915C2.9527 5.02915 2.97297 4.96125 2.97297 4.87827C2.97297 4.79529 2.99324 4.7274 3.01802 4.7274C3.04279 4.7274 3.06306 4.65951 3.06306 4.57652C3.06306 4.49354 3.08333 4.42565 3.10811 4.42565C3.13288 4.42565 3.15315 4.38039 3.15315 4.32507C3.15315 4.26975 3.17342 4.22448 3.1982 4.22448C3.22297 4.22448 3.24324 4.17922 3.24324 4.1239C3.24324 4.06858 3.26351 4.02332 3.28829 4.02332C3.31306 4.02332 3.33333 3.97806 3.33333 3.92274C3.33333 3.86741 3.3536 3.82215 3.37838 3.82215C3.40315 3.82215 3.42342 3.78187 3.42342 3.73268C3.42342 3.68345 3.46396 3.61058 3.51351 3.57069C3.56306 3.53081 3.6036 3.46699 3.6036 3.42887C3.6036 3.3908 3.66441 3.29615 3.73874 3.21865C3.81306 3.14116 3.87387 3.05244 3.87387 3.02151C3.87387 2.99063 4.00527 2.81864 4.16581 2.63935C4.3264 2.46011 4.48045 2.31341 4.50811 2.31341C4.53581 2.31341 4.61527 2.24551 4.68468 2.16253C4.7541 2.07955 4.83887 2.01166 4.87297 2.01166C4.90712 2.01166 4.96428 1.9664 5 1.91108C5.03572 1.85576 5.10099 1.81049 5.14509 1.81049C5.18914 1.81049 5.22523 1.78786 5.22523 1.7602C5.22523 1.73254 5.26577 1.70991 5.31532 1.70991C5.36486 1.70991 5.40541 1.68728 5.40541 1.65962C5.40541 1.63196 5.44595 1.60933 5.4955 1.60933C5.54504 1.60933 5.58559 1.5867 5.58559 1.55904C5.58559 1.53138 5.62613 1.50874 5.67568 1.50874C5.72523 1.50874 5.76577 1.48611 5.76577 1.45845C5.76577 1.43079 5.82658 1.40816 5.9009 1.40816C5.97523 1.40816 6.03604 1.38553 6.03604 1.35787C6.03604 1.33021 6.11712 1.30758 6.21622 1.30758C6.31532 1.30758 6.3964 1.28495 6.3964 1.25729C6.3964 1.22963 6.49775 1.207 6.62162 1.207C6.7455 1.207 6.84685 1.18436 6.84685 1.1567C6.84685 1.12557 7.08707 1.10641 7.47748 1.10641C7.86788 1.10641 8.10811 1.12557 8.10811 1.1567C8.10811 1.18467 8.22824 1.207 8.37838 1.207C8.52851 1.207 8.64865 1.22932 8.64865 1.25729C8.64865 1.28495 8.70946 1.30758 8.78378 1.30758C8.85811 1.30758 8.91892 1.33021 8.91892 1.35787C8.91892 1.38553 8.97973 1.40816 9.05405 1.40816C9.12838 1.40816 9.18919 1.43079 9.18919 1.45845C9.18919 1.48611 9.22973 1.50874 9.27928 1.50874C9.32883 1.50874 9.36937 1.53138 9.36937 1.55904C9.36937 1.5867 9.40991 1.60933 9.45946 1.60933C9.50901 1.60933 9.54955 1.63196 9.54955 1.65962C9.54955 1.68728 9.59009 1.70991 9.63964 1.70991C9.68919 1.70991 9.72973 1.73254 9.72973 1.7602C9.72973 1.78786 9.76581 1.81049 9.80986 1.81049C9.85396 1.81049 9.91923 1.85576 9.95495 1.91108C9.99068 1.9664 10.0515 2.01166 10.0901 2.01166C10.1287 2.01166 10.1895 2.05692 10.2252 2.11224C10.2609 2.16756 10.3164 2.21283 10.3484 2.21283C10.4243 2.21283 11.2613 3.14729 11.2613 3.23203C11.2613 3.26779 11.3018 3.32965 11.3514 3.36953C11.4009 3.40941 11.4414 3.4773 11.4414 3.5204C11.4414 3.5635 11.482 3.6314 11.5315 3.67128C11.5811 3.71116 11.6216 3.78403 11.6216 3.83327C11.6216 3.88245 11.6419 3.92274 11.6667 3.92274C11.6914 3.92274 11.7117 3.968 11.7117 4.02332C11.7117 4.07864 11.732 4.1239 11.7568 4.1239C11.7815 4.1239 11.8018 4.16916 11.8018 4.22448C11.8018 4.2798 11.8221 4.32507 11.8468 4.32507C11.8716 4.32507 11.8919 4.39296 11.8919 4.47594C11.8919 4.55892 11.9122 4.62682 11.9369 4.62682C11.9617 4.62682 11.982 4.69471 11.982 4.77769C11.982 4.86067 12.0023 4.92856 12.027 4.92856C12.0518 4.92856 12.0721 5.01909 12.0721 5.12973C12.0721 5.24037 12.0923 5.3309 12.1171 5.3309C12.1456 5.3309 12.1622 5.69968 12.1622 6.33673C12.1622 6.97377 12.1456 7.34256 12.1171 7.34256C12.0923 7.34256 12.0721 7.45571 12.0721 7.59401C12.0721 7.73231 12.0518 7.84547 12.027 7.84547C12.0023 7.84547 11.982 7.91336 11.982 7.99635C11.982 8.07933 11.9617 8.14722 11.9369 8.14722C11.9122 8.14722 11.8919 8.19248 11.8919 8.2478C11.8919 8.30312 11.8716 8.34839 11.8468 8.34839C11.8221 8.34839 11.8018 8.39365 11.8018 8.44897C11.8018 8.50429 11.7815 8.54955 11.7568 8.54955C11.732 8.54955 11.7117 8.59481 11.7117 8.65013C11.7117 8.70545 11.6914 8.75072 11.6667 8.75072C11.6419 8.75072 11.6216 8.79598 11.6216 8.8513C11.6216 8.90662 11.6014 8.95188 11.5766 8.95188C11.5518 8.95188 11.5315 8.99217 11.5315 9.04135C11.5315 9.09059 11.491 9.16346 11.4414 9.20334C11.3919 9.24322 11.3514 9.30704 11.3514 9.34516C11.3514 9.38323 11.2905 9.47788 11.2162 9.55538C11.1419 9.63288 11.0811 9.70988 11.0811 9.72642C11.0811 9.74302 11.1824 9.75655 11.3063 9.75655C11.4302 9.75655 11.5315 9.77918 11.5315 9.80684C11.5315 9.8345 11.6126 9.85713 11.7117 9.85713C11.8108 9.85713 11.8919 9.87976 11.8919 9.90742C11.8919 9.99961 12.0297 9.95922 12.1417 9.83425C12.2025 9.76635 12.2523 9.67583 12.2523 9.63308C12.2523 9.59033 12.2725 9.55538 12.2973 9.55538C12.3221 9.55538 12.3423 9.5151 12.3423 9.46591C12.3423 9.41668 12.3829 9.3438 12.4324 9.30392C12.482 9.26404 12.5225 9.19117 12.5225 9.14193C12.5225 9.09275 12.5428 9.05247 12.5676 9.05247C12.5923 9.05247 12.6126 8.98457 12.6126 8.90159C12.6126 8.81861 12.6329 8.75072 12.6577 8.75072C12.6824 8.75072 12.7027 8.70545 12.7027 8.65013C12.7027 8.59481 12.723 8.54955 12.7477 8.54955C12.7725 8.54955 12.7928 8.48166 12.7928 8.39868C12.7928 8.3157 12.8131 8.2478 12.8378 8.2478C12.8626 8.2478 12.8829 8.15728 12.8829 8.04664C12.8829 7.936 12.9032 7.84547 12.9279 7.84547C12.9527 7.84547 12.973 7.75495 12.973 7.6443C12.973 7.53366 12.9932 7.44314 13.018 7.44314C13.045 7.44314 13.0631 7.24197 13.0631 6.94022C13.0631 6.63848 13.0811 6.43731 13.1081 6.43731C13.1329 6.43731 13.1532 6.36942 13.1532 6.28643C13.1532 6.20345 13.1329 6.13556 13.1081 6.13556C13.0811 6.13556 13.0631 5.93439 13.0631 5.63265C13.0631 5.3309 13.045 5.12973 13.018 5.12973C12.9932 5.12973 12.973 5.03921 12.973 4.92856C12.973 4.81792 12.9527 4.7274 12.9279 4.7274C12.9032 4.7274 12.8829 4.63687 12.8829 4.52623C12.8829 4.41559 12.8626 4.32507 12.8378 4.32507C12.8131 4.32507 12.7928 4.25717 12.7928 4.17419C12.7928 4.09121 12.7725 4.02332 12.7477 4.02332C12.723 4.02332 12.7027 3.97806 12.7027 3.92274C12.7027 3.86741 12.6824 3.82215 12.6577 3.82215C12.6329 3.82215 12.6126 3.77689 12.6126 3.72157C12.6126 3.66625 12.5923 3.62099 12.5676 3.62099C12.5428 3.62099 12.5225 3.57572 12.5225 3.5204C12.5225 3.46508 12.5023 3.41982 12.4775 3.41982C12.4527 3.41982 12.4324 3.37456 12.4324 3.31924C12.4324 3.26392 12.4122 3.21865 12.3874 3.21865C12.3626 3.21865 12.3423 3.17339 12.3423 3.11807C12.3423 3.06275 12.3221 3.01749 12.2973 3.01749C12.2725 3.01749 12.2523 2.98133 12.2523 2.93707C12.2523 2.89287 12.1914 2.79324 12.1171 2.71574C12.0428 2.63824 11.982 2.54973 11.982 2.51905C11.982 2.44065 10.8694 1.207 10.7987 1.207C10.7668 1.207 10.7114 1.16173 10.6757 1.10641C10.64 1.05109 10.5791 1.00583 10.5405 1.00583C10.5019 1.00583 10.4411 0.960567 10.4054 0.905247C10.3697 0.849926 10.3044 0.804664 10.2603 0.804664C10.2163 0.804664 10.1802 0.782032 10.1802 0.754372C10.1802 0.726712 10.1396 0.704081 10.0901 0.704081C10.0405 0.704081 10 0.68145 10 0.653789C10 0.626129 9.95946 0.603498 9.90991 0.603498C9.86036 0.603498 9.81982 0.580867 9.81982 0.553206C9.81982 0.525546 9.75901 0.502915 9.68468 0.502915C9.61036 0.502915 9.54955 0.480284 9.54955 0.452623C9.54955 0.424963 9.50901 0.402332 9.45946 0.402332C9.40991 0.402332 9.36937 0.379701 9.36937 0.35204C9.36937 0.32438 9.28829 0.301749 9.18919 0.301749C9.09009 0.301749 9.00901 0.279118 9.00901 0.251457C9.00901 0.223797 8.9482 0.201166 8.87387 0.201166C8.79955 0.201166 8.73874 0.178535 8.73874 0.150874C8.73874 0.122912 8.6186 0.100583 8.46847 0.100583C8.31833 0.100583 8.1982 0.0782535 8.1982 0.0502915C8.1982 0.0188593 7.92793 0 7.47748 0C7.02703 0 6.75676 0.0188593 6.75676 0.0502915ZM7.02703 1.96137C7.02703 1.98933 6.90689 2.01166 6.75676 2.01166C6.60662 2.01166 6.48649 2.03399 6.48649 2.06195C6.48649 2.08961 6.42568 2.11224 6.35135 2.11224C6.27703 2.11224 6.21622 2.13487 6.21622 2.16253C6.21622 2.19019 6.15541 2.21283 6.08108 2.21283C6.00676 2.21283 5.94595 2.23546 5.94595 2.26312C5.94595 2.29078 5.90541 2.31341 5.85586 2.31341C5.80631 2.31341 5.76577 2.33604 5.76577 2.3637C5.76577 2.39136 5.72523 2.41399 5.67568 2.41399C5.62613 2.41399 5.58559 2.43662 5.58559 2.46428C5.58559 2.49194 5.5495 2.51457 5.50545 2.51457C5.46135 2.51457 5.39608 2.55984 5.36036 2.61516C5.32464 2.67048 5.26923 2.71574 5.23721 2.71574C5.20522 2.71574 4.98671 2.93043 4.75167 3.19286C4.51662 3.45528 4.32432 3.69924 4.32432 3.73495C4.32432 3.7707 4.28378 3.83256 4.23423 3.87244C4.18468 3.91232 4.14414 3.9852 4.14414 4.03443C4.14414 4.08362 4.12387 4.1239 4.0991 4.1239C4.07432 4.1239 4.05405 4.16916 4.05405 4.22448C4.05405 4.2798 4.03378 4.32507 4.00901 4.32507C3.98423 4.32507 3.96396 4.37033 3.96396 4.42565C3.96396 4.48097 3.94369 4.52623 3.91892 4.52623C3.89414 4.52623 3.87387 4.59413 3.87387 4.67711C3.87387 4.76009 3.8536 4.82798 3.82883 4.82798C3.80405 4.82798 3.78378 4.89588 3.78378 4.97886C3.78378 5.06184 3.76351 5.12973 3.73874 5.12973C3.71396 5.12973 3.69369 5.22026 3.69369 5.3309C3.69369 5.44154 3.67342 5.53206 3.64865 5.53206C3.62063 5.53206 3.6036 5.81706 3.6036 6.28643C3.6036 6.75581 3.62063 7.04081 3.64865 7.04081C3.67342 7.04081 3.69369 7.13133 3.69369 7.24197C3.69369 7.35261 3.71396 7.44314 3.73874 7.44314C3.76351 7.44314 3.78378 7.51103 3.78378 7.59401C3.78378 7.67699 3.80405 7.74489 3.82883 7.74489C3.8536 7.74489 3.87387 7.81278 3.87387 7.89576C3.87387 7.97874 3.89414 8.04664 3.91892 8.04664C3.94369 8.04664 3.96396 8.0919 3.96396 8.14722C3.96396 8.20254 3.98423 8.2478 4.00901 8.2478C4.03378 8.2478 4.05405 8.28809 4.05405 8.33727C4.05405 8.38651 4.09459 8.45938 4.14414 8.49926C4.19369 8.53914 4.23423 8.60175 4.23423 8.63837C4.23423 8.70254 4.42964 8.95188 4.47995 8.95188C4.49347 8.95188 4.5045 8.20505 4.5045 7.29226C4.5045 6.2194 4.52045 5.63265 4.54955 5.63265C4.57432 5.63265 4.59459 5.54212 4.59459 5.43148C4.59459 5.32084 4.61486 5.23031 4.63964 5.23031C4.66441 5.23031 4.68468 5.18505 4.68468 5.12973C4.68468 5.07441 4.70495 5.02915 4.72973 5.02915C4.7545 5.02915 4.77477 4.98389 4.77477 4.92856C4.77477 4.87324 4.79504 4.82798 4.81982 4.82798C4.84459 4.82798 4.86486 4.78272 4.86486 4.7274C4.86486 4.67208 4.88514 4.62682 4.90991 4.62682C4.93468 4.62682 4.95495 4.58653 4.95495 4.53735C4.95495 4.48811 4.9955 4.41524 5.04504 4.37536C5.09459 4.33548 5.13514 4.27342 5.13514 4.23746C5.13514 4.20145 5.24617 4.04801 5.38189 3.89648C5.51761 3.74495 5.65504 3.62099 5.6873 3.62099C5.7195 3.62099 5.77509 3.57572 5.81081 3.5204C5.84653 3.46508 5.9118 3.41982 5.9559 3.41982C5.99996 3.41982 6.03604 3.39719 6.03604 3.36953C6.03604 3.34187 6.07658 3.31924 6.12613 3.31924C6.17568 3.31924 6.21622 3.29661 6.21622 3.26895C6.21622 3.24129 6.25676 3.21865 6.30631 3.21865C6.35586 3.21865 6.3964 3.19602 6.3964 3.16836C6.3964 3.1407 6.45721 3.11807 6.53153 3.11807C6.60586 3.11807 6.66667 3.09544 6.66667 3.06778C6.66667 3.04012 6.74775 3.01749 6.84685 3.01749C6.94595 3.01749 7.02703 2.99486 7.02703 2.9672C7.02703 2.93702 7.20721 2.91691 7.47748 2.91691C7.74775 2.91691 7.92793 2.93702 7.92793 2.9672C7.92793 2.99486 8.02928 3.01749 8.15315 3.01749C8.27703 3.01749 8.37838 3.04012 8.37838 3.06778C8.37838 3.09544 8.41892 3.11807 8.46847 3.11807C8.51802 3.11807 8.55856 3.1407 8.55856 3.16836C8.55856 3.19602 8.5991 3.21865 8.64865 3.21865C8.6982 3.21865 8.73874 3.24129 8.73874 3.26895C8.73874 3.29661 8.77928 3.31924 8.82883 3.31924C8.87838 3.31924 8.91892 3.34187 8.91892 3.36953C8.91892 3.39719 8.955 3.41982 8.99905 3.41982C9.04315 3.41982 9.10842 3.46508 9.14414 3.5204C9.17986 3.57572 9.23541 3.62099 9.26752 3.62099C9.34369 3.62099 9.90991 4.25315 9.90991 4.33819C9.90991 4.37405 9.95045 4.43606 10 4.47594C10.0495 4.51582 10.0901 4.58869 10.0901 4.63793C10.0901 4.68712 10.1104 4.7274 10.1351 4.7274C10.1599 4.7274 10.1802 4.77266 10.1802 4.82798C10.1802 4.8833 10.2005 4.92856 10.2252 4.92856C10.25 4.92856 10.2703 4.97383 10.2703 5.02915C10.2703 5.08447 10.2905 5.12973 10.3153 5.12973C10.3401 5.12973 10.3604 5.22026 10.3604 5.3309C10.3604 5.44154 10.3806 5.53206 10.4054 5.53206C10.4345 5.53206 10.4505 6.13556 10.4505 7.24197C10.4505 8.18242 10.4613 8.95188 10.4745 8.95188C10.5303 8.95188 10.8108 8.59672 10.8108 8.52606C10.8108 8.48367 10.8311 8.44897 10.8559 8.44897C10.8806 8.44897 10.9009 8.40371 10.9009 8.34839C10.9009 8.29306 10.9212 8.2478 10.9459 8.2478C10.9707 8.2478 10.991 8.20254 10.991 8.14722C10.991 8.0919 11.0113 8.04664 11.036 8.04664C11.0608 8.04664 11.0811 8.00137 11.0811 7.94605C11.0811 7.89073 11.1014 7.84547 11.1261 7.84547C11.1509 7.84547 11.1712 7.77758 11.1712 7.6946C11.1712 7.61162 11.1914 7.54372 11.2162 7.54372C11.241 7.54372 11.2613 7.4532 11.2613 7.34256C11.2613 7.23191 11.2815 7.14139 11.3063 7.14139C11.3345 7.14139 11.3514 6.82289 11.3514 6.28643C11.3514 5.74998 11.3345 5.43148 11.3063 5.43148C11.2815 5.43148 11.2613 5.34096 11.2613 5.23031C11.2613 5.11967 11.241 5.02915 11.2162 5.02915C11.1914 5.02915 11.1712 4.96125 11.1712 4.87827C11.1712 4.79529 11.1509 4.7274 11.1261 4.7274C11.1014 4.7274 11.0811 4.65951 11.0811 4.57652C11.0811 4.49354 11.0608 4.42565 11.036 4.42565C11.0113 4.42565 10.991 4.38537 10.991 4.33618C10.991 4.28695 10.9505 4.21407 10.9009 4.17419C10.8514 4.13431 10.8108 4.06144 10.8108 4.0122C10.8108 3.96302 10.7905 3.92274 10.7658 3.92274C10.741 3.92274 10.7207 3.88854 10.7207 3.84669C10.7207 3.75436 9.79959 2.71574 9.71766 2.71574C9.68568 2.71574 9.63032 2.67048 9.59459 2.61516C9.55887 2.55984 9.4936 2.51457 9.4495 2.51457C9.40545 2.51457 9.36937 2.49194 9.36937 2.46428C9.36937 2.43662 9.32883 2.41399 9.27928 2.41399C9.22973 2.41399 9.18919 2.39136 9.18919 2.3637C9.18919 2.33604 9.14865 2.31341 9.0991 2.31341C9.04955 2.31341 9.00901 2.29078 9.00901 2.26312C9.00901 2.23546 8.9482 2.21283 8.87387 2.21283C8.79955 2.21283 8.73874 2.19019 8.73874 2.16253C8.73874 2.13487 8.67793 2.11224 8.6036 2.11224C8.52928 2.11224 8.46847 2.08961 8.46847 2.06195C8.46847 2.03429 8.36712 2.01166 8.24324 2.01166C8.11937 2.01166 8.01802 1.98903 8.01802 1.96137C8.01802 1.93089 7.82284 1.91108 7.52252 1.91108C7.22221 1.91108 7.02703 1.93089 7.02703 1.96137ZM7.20721 3.87244C7.20721 3.9001 7.12613 3.92274 7.02703 3.92274C6.92793 3.92274 6.84685 3.94537 6.84685 3.97303C6.84685 4.00069 6.78604 4.02332 6.71171 4.02332C6.63739 4.02332 6.57658 4.04595 6.57658 4.07361C6.57658 4.10127 6.53604 4.1239 6.48649 4.1239C6.43694 4.1239 6.3964 4.14653 6.3964 4.17419C6.3964 4.20185 6.36563 4.22448 6.32797 4.22448C6.23892 4.22448 5.67568 4.85333 5.67568 4.95276C5.67568 4.9948 5.65541 5.02915 5.63063 5.02915C5.60586 5.02915 5.58559 5.07441 5.58559 5.12973C5.58559 5.18505 5.56532 5.23031 5.54054 5.23031C5.51577 5.23031 5.4955 5.27558 5.4955 5.3309C5.4955 5.38622 5.47523 5.43148 5.45045 5.43148C5.42568 5.43148 5.40541 5.522 5.40541 5.63265C5.40541 5.74329 5.38514 5.83381 5.36036 5.83381C5.33068 5.83381 5.31532 7.3593 5.31532 10.3098C5.31532 12.7715 5.30405 14.7857 5.29032 14.7857C5.27653 14.7857 5.1459 14.6499 5 14.4839C4.8541 14.318 4.71176 14.1822 4.68365 14.1822C4.65554 14.1822 4.55468 14.0917 4.45946 13.981C4.36423 13.8704 4.25883 13.7799 4.22518 13.7799C4.19153 13.7799 4.13482 13.7346 4.0991 13.6793C4.06338 13.624 4.00257 13.5787 3.96396 13.5787C3.92536 13.5787 3.86455 13.5334 3.82883 13.4781C3.79311 13.4228 3.7323 13.3775 3.69369 13.3775C3.65509 13.3775 3.59428 13.3323 3.55856 13.277C3.52284 13.2216 3.45757 13.1764 3.41347 13.1764C3.36941 13.1764 3.33333 13.1537 3.33333 13.1261C3.33333 13.0984 3.29279 13.0758 3.24324 13.0758C3.19369 13.0758 3.15315 13.0532 3.15315 13.0255C3.15315 12.9978 3.11261 12.9752 3.06306 12.9752C3.01351 12.9752 2.97297 12.9526 2.97297 12.9249C2.97297 12.8972 2.93243 12.8746 2.88288 12.8746C2.83333 12.8746 2.79279 12.852 2.79279 12.8243C2.79279 12.7967 2.73198 12.774 2.65766 12.774C2.58333 12.774 2.52252 12.7514 2.52252 12.7237C2.52252 12.6961 2.46171 12.6735 2.38739 12.6735C2.31306 12.6735 2.25225 12.6508 2.25225 12.6232C2.25225 12.5924 2.04203 12.5729 1.71171 12.5729C1.3814 12.5729 1.17117 12.5924 1.17117 12.6232C1.17117 12.6508 1.11482 12.6735 1.04599 12.6735C0.972477 12.6735 0.894009 12.715 0.855856 12.774C0.820135 12.8294 0.764324 12.8746 0.731802 12.8746C0.699279 12.8746 0.602387 12.9531 0.516531 13.049C0.43063 13.1448 0.36036 13.253 0.36036 13.2893C0.36036 13.3256 0.31982 13.3879 0.27027 13.4278C0.217387 13.4704 0.18018 13.558 0.18018 13.6401C0.18018 13.717 0.15991 13.7799 0.135135 13.7799C0.11036 13.7799 0.0900901 13.8704 0.0900901 13.981C0.0900901 14.0917 0.0698198 14.1822 0.045045 14.1822C0.0202703 14.1822 0 14.2501 0 14.3331C0 14.4161 0.0202703 14.4839 0.045045 14.4839C0.0698198 14.4839 0.0900901 14.5971 0.0900901 14.7354C0.0900901 14.8737 0.11036 14.9869 0.135135 14.9869C0.15991 14.9869 0.18018 15.0774 0.18018 15.188C0.18018 15.2987 0.20045 15.3892 0.225225 15.3892C0.25 15.3892 0.27027 15.4345 0.27027 15.4898C0.27027 15.5451 0.290541 15.5904 0.315315 15.5904C0.34009 15.5904 0.36036 15.6583 0.36036 15.7412C0.36036 15.8242 0.380631 15.8921 0.405405 15.8921C0.43018 15.8921 0.45045 15.9374 0.45045 15.9927C0.45045 16.048 0.470721 16.0933 0.495495 16.0933C0.52027 16.0933 0.540541 16.1385 0.540541 16.1939C0.540541 16.2492 0.560811 16.2944 0.585586 16.2944C0.61036 16.2944 0.630631 16.3397 0.630631 16.395C0.630631 16.4503 0.650901 16.4956 0.675676 16.4956C0.70045 16.4956 0.720721 16.5409 0.720721 16.5962C0.720721 16.6515 0.740991 16.6968 0.765766 16.6968C0.790541 16.6968 0.810811 16.7371 0.810811 16.7862C0.810811 16.8355 0.851351 16.9083 0.900901 16.9482C0.95045 16.9881 0.990991 17.061 0.990991 17.1102C0.990991 17.1594 1.01126 17.1997 1.03604 17.1997C1.06081 17.1997 1.08108 17.24 1.08108 17.2892C1.08108 17.3384 1.12162 17.4113 1.17117 17.4511C1.22072 17.491 1.26126 17.5589 1.26126 17.602C1.26126 17.6451 1.3018 17.713 1.35135 17.7529C1.4009 17.7928 1.44144 17.8607 1.44144 17.9038C1.44144 17.9469 1.48198 18.0148 1.53153 18.0546C1.58108 18.0945 1.62162 18.1674 1.62162 18.2166C1.62162 18.2658 1.64189 18.3061 1.66667 18.3061C1.69144 18.3061 1.71171 18.3464 1.71171 18.3956C1.71171 18.4448 1.75225 18.5177 1.8018 18.5576C1.85135 18.5974 1.89189 18.6653 1.89189 18.7084C1.89189 18.7515 1.93243 18.8194 1.98198 18.8593C2.03153 18.8992 2.07207 18.9671 2.07207 19.0102C2.07207 19.0533 2.11261 19.1212 2.16216 19.1611C2.21171 19.2009 2.25225 19.2688 2.25225 19.3119C2.25225 19.355 2.29279 19.4229 2.34234 19.4628C2.39189 19.5027 2.43243 19.5706 2.43243 19.6137C2.43243 19.6568 2.47297 19.7247 2.52252 19.7646C2.57207 19.8044 2.61261 19.8723 2.61261 19.9154C2.61261 19.9585 2.65315 20.0264 2.7027 20.0663C2.75225 20.1062 2.79279 20.1741 2.79279 20.2172C2.79279 20.2603 2.83333 20.3282 2.88288 20.368C2.93243 20.4079 2.97297 20.4758 2.97297 20.5189C2.97297 20.562 3.01351 20.6299 3.06306 20.6698C3.11261 20.7097 3.15315 20.7776 3.15315 20.8207C3.15315 20.8638 3.19369 20.9317 3.24324 20.9715C3.29279 21.0114 3.33333 21.0793 3.33333 21.1224C3.33333 21.1655 3.37387 21.2334 3.42342 21.2733C3.47297 21.3132 3.51351 21.3811 3.51351 21.4242C3.51351 21.4673 3.55405 21.5352 3.6036 21.575C3.65315 21.6149 3.69369 21.6828 3.69369 21.7259C3.69369 21.769 3.73423 21.8369 3.78378 21.8768C3.83333 21.9167 3.87387 21.9895 3.87387 22.0388C3.87387 22.088 3.89414 22.1283 3.91892 22.1283C3.94369 22.1283 3.96396 22.1685 3.96396 22.2177C3.96396 22.267 4.0045 22.3398 4.05405 22.3797C4.1036 22.4196 4.14414 22.4925 4.14414 22.5417C4.14414 22.5909 4.16441 22.6312 4.18919 22.6312C4.21396 22.6312 4.23423 22.6714 4.23423 22.7206C4.23423 22.7699 4.27477 22.8427 4.32432 22.8826C4.37387 22.9225 4.41441 22.9954 4.41441 23.0446C4.41441 23.0938 4.43468 23.1341 4.45946 23.1341C4.48423 23.1341 4.5045 23.1744 4.5045 23.2235C4.5045 23.2728 4.54504 23.3457 4.59459 23.3855C4.64414 23.4254 4.68468 23.4983 4.68468 23.5475C4.68468 23.5967 4.70495 23.637 4.72973 23.637C4.7545 23.637 4.77477 23.6773 4.77477 23.7265C4.77477 23.7757 4.81532 23.8486 4.86486 23.8885C4.91441 23.9283 4.95495 24.0012 4.95495 24.0504C4.95495 24.0996 4.97523 24.1399 5 24.1399C5.02477 24.1399 5.04504 24.1852 5.04504 24.2405C5.04504 24.2958 5.06532 24.3411 5.09009 24.3411C5.11486 24.3411 5.13514 24.3863 5.13514 24.4417C5.13514 24.497 5.15541 24.5422 5.18018 24.5422C5.20495 24.5422 5.22523 24.5825 5.22523 24.6317C5.22523 24.6809 5.26577 24.7538 5.31532 24.7937C5.36486 24.8336 5.40541 24.9065 5.40541 24.9557C5.40541 25.0049 5.42568 25.0452 5.45045 25.0452C5.47523 25.0452 5.4955 25.0854 5.4955 25.1346C5.4955 25.1839 5.53604 25.2567 5.58559 25.2966C5.63514 25.3365 5.67568 25.4003 5.67568 25.4384C5.67568 25.4765 5.73649 25.5712 5.81081 25.6487C5.88514 25.7262 5.94595 25.8167 5.94595 25.8498C5.94595 25.883 6.00676 25.9735 6.08108 26.051C6.15541 26.1285 6.21622 26.2181 6.21622 26.25C6.21622 26.2819 6.33784 26.4413 6.48649 26.6042C6.63514 26.7671 6.75676 26.9249 6.75676 26.9548C6.75676 27.0256 7.14504 27.4591 7.20851 27.4591C7.23531 27.4591 7.37662 27.5949 7.52252 27.7609C7.66842 27.9269 7.81122 28.0626 7.83977 28.0626C7.86838 28.0626 7.9486 28.1305 8.01802 28.2135C8.08743 28.2965 8.17221 28.3644 8.20631 28.3644C8.24045 28.3644 8.29761 28.4097 8.33333 28.465C8.36905 28.5203 8.43432 28.5656 8.47842 28.5656C8.52248 28.5656 8.55856 28.5882 8.55856 28.6159C8.55856 28.6435 8.5991 28.6661 8.64865 28.6661C8.6982 28.6661 8.73874 28.6888 8.73874 28.7164C8.73874 28.7441 8.77482 28.7667 8.81887 28.7667C8.86297 28.7667 8.92824 28.812 8.96396 28.8673C8.99968 28.9226 9.06496 28.9679 9.10905 28.9679C9.15311 28.9679 9.18919 28.9905 9.18919 29.0182C9.18919 29.0458 9.25 29.0685 9.32432 29.0685C9.39865 29.0685 9.45946 29.0911 9.45946 29.1188C9.45946 29.1464 9.5 29.1691 9.54955 29.1691C9.5991 29.1691 9.63964 29.1917 9.63964 29.2193C9.63964 29.247 9.70045 29.2696 9.77477 29.2696C9.8491 29.2696 9.90991 29.2923 9.90991 29.3199C9.90991 29.3476 9.97072 29.3702 10.045 29.3702C10.1194 29.3702 10.1802 29.3929 10.1802 29.4205C10.1802 29.4482 10.241 29.4708 10.3153 29.4708C10.3896 29.4708 10.4505 29.4934 10.4505 29.5211C10.4505 29.5488 10.5315 29.5714 10.6306 29.5714C10.7297 29.5714 10.8108 29.594 10.8108 29.6217C10.8108 29.6493 10.8919 29.672 10.991 29.672C11.0901 29.672 11.1712 29.6946 11.1712 29.7223C11.1712 29.7516 11.3213 29.7726 11.5315 29.7726C11.7418 29.7726 11.8919 29.7935 11.8919 29.8228C11.8919 29.8544 12.1772 29.8731 12.6577 29.8731C13.1382 29.8731 13.4234 29.8544 13.4234 29.8228C13.4234 29.7941 13.5586 29.7726 13.7387 29.7726C13.9189 29.7726 14.0541 29.751 14.0541 29.7223C14.0541 29.6946 14.1351 29.672 14.2342 29.672C14.3333 29.672 14.4144 29.6493 14.4144 29.6217C14.4144 29.594 14.4955 29.5714 14.5946 29.5714C14.6937 29.5714 14.7748 29.5488 14.7748 29.5211C14.7748 29.4934 14.8356 29.4708 14.9099 29.4708C14.9842 29.4708 15.045 29.4482 15.045 29.4205C15.045 29.3929 15.1059 29.3702 15.1802 29.3702C15.2545 29.3702 15.3153 29.3476 15.3153 29.3199C15.3153 29.2923 15.3559 29.2696 15.4054 29.2696C15.455 29.2696 15.4955 29.247 15.4955 29.2193C15.4955 29.1917 15.536 29.1691 15.5856 29.1691C15.6351 29.1691 15.6757 29.1464 15.6757 29.1188C15.6757 29.0911 15.7365 29.0685 15.8108 29.0685C15.8851 29.0685 15.9459 29.0458 15.9459 29.0182C15.9459 28.9905 15.982 28.9679 16.0261 28.9679C16.0702 28.9679 16.1355 28.9226 16.1712 28.8673C16.2069 28.812 16.2722 28.7667 16.3163 28.7667C16.3603 28.7667 16.3964 28.7441 16.3964 28.7164C16.3964 28.6888 16.4325 28.6661 16.4765 28.6661C16.5206 28.6661 16.5859 28.6209 16.6216 28.5656C16.6573 28.5102 16.7182 28.465 16.7568 28.465C16.7954 28.465 16.8562 28.4197 16.8919 28.3644C16.9276 28.3091 16.9841 28.2638 17.0174 28.2638C17.0507 28.2638 17.1766 28.1507 17.2973 28.0124C17.418 27.8741 17.5387 27.7609 17.5656 27.7609C17.6294 27.7609 18.1081 27.2264 18.1081 27.1552C18.1081 27.1252 18.2095 26.9904 18.3333 26.8556C18.4572 26.7209 18.5586 26.5803 18.5586 26.5431C18.5586 26.5059 18.5991 26.4429 18.6486 26.403C18.6982 26.3631 18.7387 26.2953 18.7387 26.2522C18.7387 26.2091 18.7793 26.1412 18.8288 26.1013C18.8784 26.0614 18.9189 25.9885 18.9189 25.9393C18.9189 25.8901 18.9392 25.8498 18.964 25.8498C18.9887 25.8498 19.009 25.8095 19.009 25.7604C19.009 25.7111 19.0495 25.6382 19.0991 25.5984C19.1486 25.5585 19.1892 25.4856 19.1892 25.4364C19.1892 25.3872 19.2095 25.3469 19.2342 25.3469C19.259 25.3469 19.2793 25.3016 19.2793 25.2463C19.2793 25.191 19.2995 25.1457 19.3243 25.1457C19.3491 25.1457 19.3694 25.0778 19.3694 24.9949C19.3694 24.9119 19.3896 24.844 19.4144 24.844C19.4392 24.844 19.4595 24.7987 19.4595 24.7434C19.4595 24.6881 19.4797 24.6428 19.5045 24.6428C19.5293 24.6428 19.5495 24.5749 19.5495 24.492C19.5495 24.409 19.5698 24.3411 19.5946 24.3411C19.6194 24.3411 19.6396 24.2732 19.6396 24.1902C19.6396 24.1072 19.6599 24.0393 19.6847 24.0393C19.7095 24.0393 19.7297 23.9488 19.7297 23.8382C19.7297 23.7275 19.75 23.637 19.7748 23.637C19.7995 23.637 19.8198 23.5465 19.8198 23.4358C19.8198 23.3252 19.8401 23.2347 19.8649 23.2347C19.8899 23.2347 19.9099 23.1005 19.9099 22.9329C19.9099 22.7653 19.9299 22.6312 19.955 22.6312C19.9845 22.6312 20 21.3906 20 19.0102C20 16.6297 19.9845 15.3892 19.955 15.3892C19.9302 15.3892 19.9099 15.3213 19.9099 15.2383C19.9099 15.1553 19.8896 15.0874 19.8649 15.0874C19.8401 15.0874 19.8198 15.0196 19.8198 14.9366C19.8198 14.8536 19.7995 14.7857 19.7748 14.7857C19.75 14.7857 19.7297 14.7495 19.7297 14.7053C19.7297 14.6611 19.6689 14.5614 19.5946 14.4839C19.5203 14.4064 19.4595 14.3165 19.4595 14.2841C19.4595 14.2082 19.3461 14.0816 19.2781 14.0816C19.2491 14.0816 19.1685 14.0137 19.0991 13.9307C19.0297 13.8478 18.9405 13.7799 18.9009 13.7799C18.8612 13.7799 18.8288 13.7572 18.8288 13.7296C18.8288 13.7019 18.7883 13.6793 18.7387 13.6793C18.6892 13.6793 18.6486 13.6567 18.6486 13.629C18.6486 13.6013 18.5676 13.5787 18.4685 13.5787C18.3694 13.5787 18.2883 13.5561 18.2883 13.5284C18.2883 13.4982 18.1081 13.4781 17.8378 13.4781C17.5676 13.4781 17.3874 13.4982 17.3874 13.5284C17.3874 13.5561 17.3063 13.5787 17.2072 13.5787C17.1081 13.5787 17.027 13.6013 17.027 13.629C17.027 13.6567 16.9865 13.6793 16.9369 13.6793C16.8874 13.6793 16.8468 13.7019 16.8468 13.7296C16.8468 13.7572 16.8063 13.7799 16.7568 13.7799C16.7072 13.7799 16.6667 13.8025 16.6667 13.8302C16.6667 13.8578 16.6464 13.8804 16.6216 13.8804C16.5968 13.8804 16.5766 13.8126 16.5766 13.7296C16.5766 13.6466 16.5563 13.5787 16.5315 13.5787C16.5068 13.5787 16.4865 13.4882 16.4865 13.3775C16.4865 13.2669 16.4662 13.1764 16.4414 13.1764C16.4167 13.1764 16.3964 13.1311 16.3964 13.0758C16.3964 13.0205 16.3761 12.9752 16.3514 12.9752C16.3266 12.9752 16.3063 12.9299 16.3063 12.8746C16.3063 12.8193 16.286 12.774 16.2613 12.774C16.2365 12.774 16.2162 12.7397 16.2162 12.6978C16.2162 12.6559 16.0645 12.4522 15.8791 12.2452C15.6937 12.0382 15.5113 11.8688 15.4737 11.8688C15.4361 11.8688 15.4054 11.8462 15.4054 11.8185C15.4054 11.7908 15.3649 11.7682 15.3153 11.7682C15.2658 11.7682 15.2252 11.7456 15.2252 11.7179C15.2252 11.6903 15.1441 11.6676 15.045 11.6676C14.9459 11.6676 14.8649 11.645 14.8649 11.6173C14.8649 11.5869 14.6697 11.567 14.3694 11.567C14.0691 11.567 13.8739 11.5869 13.8739 11.6173C13.8739 11.645 13.7928 11.6676 13.6937 11.6676C13.5946 11.6676 13.5135 11.6903 13.5135 11.7179C13.5135 11.7456 13.473 11.7682 13.4234 11.7682C13.3739 11.7682 13.3333 11.7908 13.3333 11.8185C13.3333 11.8462 13.2973 11.8688 13.2532 11.8688C13.2091 11.8688 13.1438 11.9141 13.1081 11.9694C13.027 12.0951 12.8829 12.1021 12.8829 11.9805C12.8829 11.9313 12.8423 11.8584 12.7928 11.8185C12.7432 11.7786 12.7027 11.7166 12.7027 11.6807C12.7027 11.5957 12.1365 10.9635 12.0603 10.9635C12.0282 10.9635 11.9727 10.9183 11.9369 10.863C11.8988 10.8039 11.8203 10.7624 11.7468 10.7624C11.678 10.7624 11.6216 10.7397 11.6216 10.7121C11.6216 10.6844 11.5405 10.6618 11.4414 10.6618C11.3423 10.6618 11.2613 10.6392 11.2613 10.6115C11.2613 10.5828 11.1261 10.5612 10.9459 10.5612C10.7658 10.5612 10.6306 10.5828 10.6306 10.6115C10.6306 10.6392 10.5495 10.6618 10.4505 10.6618C10.3514 10.6618 10.2703 10.6844 10.2703 10.7121C10.2703 10.7397 10.2095 10.7624 10.1351 10.7624C10.0608 10.7624 10 10.785 10 10.8127C10 10.8403 9.95946 10.863 9.90991 10.863C9.86036 10.863 9.81982 10.8856 9.81982 10.9133C9.81982 10.9409 9.77928 10.9635 9.72973 10.9635C9.64077 10.9635 9.63964 10.93 9.63964 8.29809C9.63964 6.55464 9.62405 5.63265 9.59459 5.63265C9.56982 5.63265 9.54955 5.56475 9.54955 5.48177C9.54955 5.39879 9.52928 5.3309 9.5045 5.3309C9.47973 5.3309 9.45946 5.28563 9.45946 5.23031C9.45946 5.17499 9.43919 5.12973 9.41441 5.12973C9.38964 5.12973 9.36937 5.09543 9.36937 5.05349C9.36937 4.95411 8.71586 4.22448 8.62685 4.22448C8.58928 4.22448 8.55856 4.20185 8.55856 4.17419C8.55856 4.14653 8.51802 4.1239 8.46847 4.1239C8.41892 4.1239 8.37838 4.10127 8.37838 4.07361C8.37838 4.04595 8.33784 4.02332 8.28829 4.02332C8.23874 4.02332 8.1982 4.00069 8.1982 3.97303C8.1982 3.94537 8.09685 3.92274 7.97297 3.92274C7.8491 3.92274 7.74775 3.9001 7.74775 3.87244C7.74775 3.84448 7.62761 3.82215 7.47748 3.82215C7.32734 3.82215 7.20721 3.84448 7.20721 3.87244ZM7.74775 4.87827C7.74775 4.90593 7.80856 4.92856 7.88288 4.92856C7.95721 4.92856 8.01802 4.9512 8.01802 4.97886C8.01802 5.00652 8.04896 5.02915 8.08676 5.02915C8.17617 5.02915 8.55856 5.45607 8.55856 5.5559C8.55856 5.5981 8.57883 5.63265 8.6036 5.63265C8.62838 5.63265 8.64865 5.67791 8.64865 5.73323C8.64865 5.78855 8.66892 5.83381 8.69369 5.83381C8.72342 5.83381 8.73874 7.62756 8.73874 11.1144V16.395H9.18919H9.63964V14.5845C9.63964 13.4111 9.6555 12.774 9.68468 12.774C9.70946 12.774 9.72973 12.7061 9.72973 12.6232C9.72973 12.5402 9.75 12.4723 9.77477 12.4723C9.79955 12.4723 9.81982 12.432 9.81982 12.3828C9.81982 12.3336 9.86036 12.2607 9.90991 12.2208C9.95946 12.1809 10 12.1178 10 12.0804C10 11.9883 10.1127 11.8688 10.1995 11.8688C10.2384 11.8688 10.2703 11.8462 10.2703 11.8185C10.2703 11.7908 10.3108 11.7682 10.3604 11.7682C10.4099 11.7682 10.4505 11.7456 10.4505 11.7179C10.4505 11.6903 10.5113 11.6676 10.5856 11.6676C10.6599 11.6676 10.7207 11.645 10.7207 11.6173C10.7207 11.5897 10.8221 11.567 10.9459 11.567C11.0698 11.567 11.1712 11.5897 11.1712 11.6173C11.1712 11.645 11.232 11.6676 11.3063 11.6676C11.3806 11.6676 11.4414 11.6903 11.4414 11.7179C11.4414 11.7456 11.4723 11.7682 11.51 11.7682C11.5992 11.7682 12.0721 12.2962 12.0721 12.3957C12.0721 12.4378 12.0923 12.4723 12.1171 12.4723C12.1461 12.4723 12.1622 12.9919 12.1622 13.9307V15.3892H12.6577H13.1532V14.4337C13.1532 13.8302 13.1697 13.4781 13.1982 13.4781C13.223 13.4781 13.2432 13.4329 13.2432 13.3775C13.2432 13.3222 13.2635 13.277 13.2883 13.277C13.3131 13.277 13.3333 13.2422 13.3333 13.1999C13.3333 13.1574 13.4036 13.0443 13.4895 12.9484C13.5754 12.8525 13.6767 12.774 13.7147 12.774C13.7527 12.774 13.7838 12.7514 13.7838 12.7237C13.7838 12.6961 13.8243 12.6735 13.8739 12.6735C13.9234 12.6735 13.964 12.6508 13.964 12.6232C13.964 12.5933 14.1291 12.5729 14.3694 12.5729C14.6096 12.5729 14.7748 12.5933 14.7748 12.6232C14.7748 12.6508 14.8153 12.6735 14.8649 12.6735C14.9144 12.6735 14.955 12.6961 14.955 12.7237C14.955 12.7514 14.9859 12.774 15.0237 12.774C15.0615 12.774 15.1832 12.8753 15.294 12.999C15.4048 13.1228 15.4955 13.2585 15.4955 13.3008C15.4955 13.343 15.5158 13.3775 15.5405 13.3775C15.5653 13.3775 15.5856 13.4454 15.5856 13.5284C15.5856 13.6114 15.6059 13.6793 15.6306 13.6793C15.6595 13.6793 15.6757 14.1654 15.6757 15.0372V16.395H16.1261H16.5766V15.9424C16.5766 15.6742 16.5949 15.4898 16.6216 15.4898C16.6464 15.4898 16.6667 15.4327 16.6667 15.3629C16.6667 15.2207 17.1108 14.6851 17.2287 14.6851C17.2664 14.6851 17.2973 14.6625 17.2973 14.6348C17.2973 14.6072 17.3378 14.5845 17.3874 14.5845C17.4369 14.5845 17.4775 14.5619 17.4775 14.5342C17.4775 14.5049 17.6276 14.4839 17.8378 14.4839C18.0481 14.4839 18.1982 14.5049 18.1982 14.5342C18.1982 14.5619 18.2387 14.5845 18.2883 14.5845C18.3378 14.5845 18.3784 14.6072 18.3784 14.6348C18.3784 14.6625 18.4093 14.6851 18.4471 14.6851C18.5365 14.6851 18.9189 15.112 18.9189 15.2119C18.9189 15.2541 18.9392 15.2886 18.964 15.2886C18.9887 15.2886 19.009 15.3339 19.009 15.3892C19.009 15.4445 19.0293 15.4898 19.0541 15.4898C19.0836 15.4898 19.0991 16.68 19.0991 18.9599C19.0991 21.2398 19.0836 22.43 19.0541 22.43C19.029 22.43 19.009 22.5641 19.009 22.7317C19.009 22.8994 18.989 23.0335 18.964 23.0335C18.9392 23.0335 18.9189 23.124 18.9189 23.2347C18.9189 23.3453 18.8986 23.4358 18.8739 23.4358C18.8491 23.4358 18.8288 23.5264 18.8288 23.637C18.8288 23.7476 18.8086 23.8382 18.7838 23.8382C18.759 23.8382 18.7387 23.8834 18.7387 23.9387C18.7387 23.9941 18.7185 24.0393 18.6937 24.0393C18.6689 24.0393 18.6486 24.1072 18.6486 24.1902C18.6486 24.2732 18.6284 24.3411 18.6036 24.3411C18.5788 24.3411 18.5586 24.3863 18.5586 24.4417C18.5586 24.497 18.5383 24.5422 18.5135 24.5422C18.4887 24.5422 18.4685 24.5875 18.4685 24.6428C18.4685 24.6981 18.4482 24.7434 18.4234 24.7434C18.3986 24.7434 18.3784 24.7887 18.3784 24.844C18.3784 24.8993 18.3581 24.9446 18.3333 24.9446C18.3086 24.9446 18.2883 24.9898 18.2883 25.0452C18.2883 25.1005 18.268 25.1457 18.2432 25.1457C18.2185 25.1457 18.1982 25.186 18.1982 25.2352C18.1982 25.2844 18.1577 25.3573 18.1081 25.3972C18.0586 25.4371 18.018 25.5009 18.018 25.539C18.018 25.5771 17.9572 25.6717 17.8829 25.7492C17.8086 25.8267 17.7477 25.9165 17.7477 25.9487C17.7477 25.9809 17.6464 26.1174 17.5225 26.2522C17.3986 26.3869 17.2973 26.5222 17.2973 26.5529C17.2973 26.6252 17.0912 26.8556 17.0266 26.8556C16.9993 26.8556 16.8576 26.9914 16.7117 27.1574C16.5658 27.3234 16.4194 27.4591 16.3863 27.4591C16.3532 27.4591 16.297 27.5044 16.2613 27.5597C16.2255 27.6151 16.1647 27.6603 16.1261 27.6603C16.0875 27.6603 16.0267 27.7056 15.991 27.7609C15.9553 27.8162 15.89 27.8615 15.8459 27.8615C15.8018 27.8615 15.7658 27.8841 15.7658 27.9118C15.7658 27.9394 15.7252 27.9621 15.6757 27.9621C15.6261 27.9621 15.5856 27.9847 15.5856 28.0124C15.5856 28.04 15.545 28.0626 15.4955 28.0626C15.4459 28.0626 15.4054 28.0853 15.4054 28.1129C15.4054 28.1406 15.3649 28.1632 15.3153 28.1632C15.2658 28.1632 15.2252 28.1859 15.2252 28.2135C15.2252 28.2412 15.1847 28.2638 15.1351 28.2638C15.0856 28.2638 15.045 28.2864 15.045 28.3141C15.045 28.3418 15.0045 28.3644 14.955 28.3644C14.9054 28.3644 14.8649 28.387 14.8649 28.4147C14.8649 28.4423 14.8041 28.465 14.7297 28.465C14.6554 28.465 14.5946 28.4876 14.5946 28.5153C14.5946 28.5429 14.5135 28.5656 14.4144 28.5656C14.3153 28.5656 14.2342 28.5882 14.2342 28.6159C14.2342 28.6435 14.1532 28.6661 14.0541 28.6661C13.955 28.6661 13.8739 28.6888 13.8739 28.7164C13.8739 28.7444 13.7537 28.7667 13.6036 28.7667C13.4535 28.7667 13.3333 28.7891 13.3333 28.817C13.3333 28.8484 13.0631 28.8673 12.6126 28.8673C12.1622 28.8673 11.8919 28.8484 11.8919 28.817C11.8919 28.7883 11.7568 28.7667 11.5766 28.7667C11.3964 28.7667 11.2613 28.7452 11.2613 28.7164C11.2613 28.6888 11.1599 28.6661 11.036 28.6661C10.9122 28.6661 10.8108 28.6435 10.8108 28.6159C10.8108 28.5882 10.7297 28.5656 10.6306 28.5656C10.5315 28.5656 10.4505 28.5429 10.4505 28.5153C10.4505 28.4876 10.3896 28.465 10.3153 28.465C10.241 28.465 10.1802 28.4423 10.1802 28.4147C10.1802 28.387 10.1396 28.3644 10.0901 28.3644C10.0405 28.3644 10 28.3418 10 28.3141C10 28.2864 9.93919 28.2638 9.86486 28.2638C9.79054 28.2638 9.72973 28.2412 9.72973 28.2135C9.72973 28.1859 9.68919 28.1632 9.63964 28.1632C9.59009 28.1632 9.54955 28.1406 9.54955 28.1129C9.54955 28.0853 9.51347 28.0626 9.46941 28.0626C9.42532 28.0626 9.36004 28.0174 9.32432 27.9621C9.2886 27.9067 9.22333 27.8615 9.17923 27.8615C9.13518 27.8615 9.0991 27.8388 9.0991 27.8112C9.0991 27.7835 9.06302 27.7609 9.01896 27.7609C8.97487 27.7609 8.90959 27.7156 8.87387 27.6603C8.83815 27.605 8.78099 27.5597 8.74685 27.5597C8.71275 27.5597 8.62797 27.4918 8.55856 27.4089C8.48914 27.3259 8.40986 27.258 8.38243 27.258C8.31788 27.258 7.02703 25.8177 7.02703 25.7457C7.02703 25.7156 6.94595 25.6041 6.84685 25.4978C6.74775 25.3915 6.66667 25.2738 6.66667 25.2362C6.66667 25.1986 6.62613 25.1353 6.57658 25.0954C6.52703 25.0556 6.48649 24.9917 6.48649 24.9536C6.48649 24.9156 6.42568 24.8209 6.35135 24.7434C6.27703 24.6659 6.21622 24.5663 6.21622 24.5221C6.21622 24.4778 6.19595 24.4417 6.17117 24.4417C6.1464 24.4417 6.12613 24.4014 6.12613 24.3522C6.12613 24.303 6.08559 24.2301 6.03604 24.1902C5.98649 24.1503 5.94595 24.0774 5.94595 24.0282C5.94595 23.979 5.92568 23.9387 5.9009 23.9387C5.87613 23.9387 5.85586 23.8985 5.85586 23.8493C5.85586 23.8 5.81532 23.7272 5.76577 23.6873C5.71622 23.6474 5.67568 23.5745 5.67568 23.5253C5.67568 23.4761 5.65541 23.4358 5.63063 23.4358C5.60586 23.4358 5.58559 23.3955 5.58559 23.3464C5.58559 23.2971 5.54504 23.2243 5.4955 23.1844C5.44595 23.1445 5.40541 23.0766 5.40541 23.0335C5.40541 22.9904 5.36486 22.9225 5.31532 22.8826C5.26577 22.8427 5.22523 22.7699 5.22523 22.7206C5.22523 22.6714 5.20495 22.6312 5.18018 22.6312C5.15541 22.6312 5.13514 22.5909 5.13514 22.5417C5.13514 22.4925 5.09459 22.4196 5.04504 22.3797C4.9955 22.3398 4.95495 22.267 4.95495 22.2177C4.95495 22.1685 4.93468 22.1283 4.90991 22.1283C4.88514 22.1283 4.86486 22.088 4.86486 22.0388C4.86486 21.9895 4.82432 21.9167 4.77477 21.8768C4.72523 21.8369 4.68468 21.769 4.68468 21.7259C4.68468 21.6828 4.64414 21.6149 4.59459 21.575C4.54504 21.5352 4.5045 21.4673 4.5045 21.4242C4.5045 21.3811 4.46396 21.3132 4.41441 21.2733C4.36486 21.2334 4.32432 21.1605 4.32432 21.1113C4.32432 21.0621 4.30405 21.0218 4.27928 21.0218C4.2545 21.0218 4.23423 20.9816 4.23423 20.9324C4.23423 20.8831 4.19369 20.8103 4.14414 20.7704C4.09459 20.7305 4.05405 20.6626 4.05405 20.6195C4.05405 20.5764 4.01351 20.5085 3.96396 20.4686C3.91441 20.4288 3.87387 20.3609 3.87387 20.3178C3.87387 20.2747 3.83333 20.2068 3.78378 20.1669C3.73423 20.127 3.69369 20.0541 3.69369 20.0049C3.69369 19.9557 3.67342 19.9154 3.64865 19.9154C3.62387 19.9154 3.6036 19.8751 3.6036 19.826C3.6036 19.7767 3.56306 19.7038 3.51351 19.664C3.46396 19.6241 3.42342 19.5562 3.42342 19.5131C3.42342 19.47 3.38288 19.4021 3.33333 19.3622C3.28378 19.3223 3.24324 19.2544 3.24324 19.2113C3.24324 19.1682 3.2027 19.1004 3.15315 19.0605C3.1036 19.0206 3.06306 18.9527 3.06306 18.9096C3.06306 18.8665 3.02252 18.7986 2.97297 18.7587C2.92342 18.7188 2.88288 18.6509 2.88288 18.6078C2.88288 18.5647 2.84234 18.4969 2.79279 18.457C2.74324 18.4171 2.7027 18.3492 2.7027 18.3061C2.7027 18.263 2.66216 18.1951 2.61261 18.1552C2.56306 18.1153 2.52252 18.0425 2.52252 17.9932C2.52252 17.944 2.50225 17.9038 2.47748 17.9038C2.4527 17.9038 2.43243 17.8635 2.43243 17.8143C2.43243 17.7651 2.39189 17.6922 2.34234 17.6523C2.29279 17.6124 2.25225 17.5445 2.25225 17.5014C2.25225 17.4583 2.21171 17.3904 2.16216 17.3506C2.11261 17.3107 2.07207 17.2378 2.07207 17.1886C2.07207 17.1394 2.0518 17.0991 2.02703 17.0991C2.00225 17.0991 1.98198 17.0588 1.98198 17.0096C1.98198 16.9604 1.94144 16.8875 1.89189 16.8476C1.84234 16.8078 1.8018 16.7349 1.8018 16.6857C1.8018 16.6365 1.78153 16.5962 1.75676 16.5962C1.73198 16.5962 1.71171 16.5559 1.71171 16.5067C1.71171 16.4575 1.67117 16.3846 1.62162 16.3447C1.57207 16.3048 1.53153 16.232 1.53153 16.1827C1.53153 16.1336 1.51126 16.0933 1.48649 16.0933C1.46171 16.0933 1.44144 16.048 1.44144 15.9927C1.44144 15.9374 1.42117 15.8921 1.3964 15.8921C1.37162 15.8921 1.35135 15.8468 1.35135 15.7915C1.35135 15.7362 1.33108 15.6909 1.30631 15.6909C1.28153 15.6909 1.26126 15.6457 1.26126 15.5904C1.26126 15.535 1.24099 15.4898 1.21622 15.4898C1.19144 15.4898 1.17117 15.4445 1.17117 15.3892C1.17117 15.3339 1.1509 15.2886 1.12613 15.2886C1.10135 15.2886 1.08108 15.2207 1.08108 15.1377C1.08108 15.0548 1.06081 14.9869 1.03604 14.9869C1.01126 14.9869 0.990991 14.8963 0.990991 14.7857C0.990991 14.6751 0.970721 14.5845 0.945946 14.5845C0.921171 14.5845 0.900901 14.494 0.900901 14.3834C0.900901 14.2727 0.921171 14.1822 0.945946 14.1822C0.970721 14.1822 0.990991 14.1246 0.990991 14.0542C0.990991 13.913 1.1723 13.6793 1.28176 13.6793C1.32005 13.6793 1.35135 13.6567 1.35135 13.629C1.35135 13.5988 1.53153 13.5787 1.8018 13.5787C2.07207 13.5787 2.25225 13.5988 2.25225 13.629C2.25225 13.6567 2.29279 13.6793 2.34234 13.6793C2.39189 13.6793 2.43243 13.7019 2.43243 13.7296C2.43243 13.7572 2.47297 13.7799 2.52252 13.7799C2.57207 13.7799 2.61261 13.8025 2.61261 13.8302C2.61261 13.8578 2.65315 13.8804 2.7027 13.8804C2.75225 13.8804 2.79279 13.9031 2.79279 13.9307C2.79279 13.9584 2.83333 13.981 2.88288 13.981C2.93243 13.981 2.97297 14.0037 2.97297 14.0313C2.97297 14.059 3.00905 14.0816 3.05311 14.0816C3.09721 14.0816 3.16248 14.1269 3.1982 14.1822C3.23392 14.2375 3.29108 14.2828 3.32523 14.2828C3.35932 14.2828 3.4441 14.3507 3.51351 14.4337C3.58293 14.5166 3.6636 14.5845 3.69279 14.5845C3.72194 14.5845 3.82369 14.6751 3.91892 14.7857C4.01414 14.8963 4.11477 14.9869 4.14252 14.9869C4.17032 14.9869 4.35347 15.1679 4.54955 15.3892C4.74563 15.6105 4.92775 15.7915 4.95423 15.7915C4.98077 15.7915 5.26486 16.0857 5.58559 16.4453C5.90631 16.8049 6.17941 17.0991 6.19248 17.0991C6.20554 17.0991 6.21622 14.587 6.21622 11.5167C6.21622 7.82872 6.23149 5.93439 6.26126 5.93439C6.28604 5.93439 6.30631 5.87148 6.30631 5.79463C6.30631 5.71256 6.34351 5.62495 6.3964 5.58235C6.44595 5.54247 6.48649 5.47986 6.48649 5.44325C6.48649 5.35147 6.69212 5.12973 6.77725 5.12973C6.81554 5.12973 6.84685 5.1071 6.84685 5.07944C6.84685 5.05178 6.88739 5.02915 6.93694 5.02915C6.98649 5.02915 7.02703 5.00652 7.02703 4.97886C7.02703 4.9512 7.08784 4.92856 7.16216 4.92856C7.23649 4.92856 7.2973 4.90593 7.2973 4.87827C7.2973 4.85061 7.39865 4.82798 7.52252 4.82798C7.6464 4.82798 7.74775 4.85061 7.74775 4.87827Z" fill="#A09481"/>
</svg>
