<svg width="30" height="30" viewBox="0 0 30 30" fill="none" xmlns="http://www.w3.org/2000/svg">
<g clip-path="url(#clip0_148_3504)">
<path d="M0.598057 0.123046C0.445713 0.199218 0.275791 0.351562 0.187901 0.486327L0.0296976 0.726562L0.0121195 4.1543C0.000400771 6.43359 0.0121195 7.6582 0.0531351 7.79883C0.141026 8.08594 0.316807 8.30273 0.592198 8.4375C0.808994 8.54883 0.949619 8.55469 4.27774 8.55469C7.08438 8.55469 7.77579 8.53711 7.92813 8.47266C8.15665 8.37891 8.4086 8.11523 8.49063 7.89258C8.53165 7.78125 8.55509 6.56836 8.55509 4.27148C8.55509 0.996093 8.54923 0.802734 8.44376 0.597656C8.30899 0.328124 8.17423 0.205077 7.89298 0.0878897C7.71134 0.0117178 7.20743 -9.53674e-07 4.26603 -9.53674e-07C0.891026 -9.53674e-07 0.844151 -9.53674e-07 0.598057 0.123046ZM6.44571 4.30664V6.44531H4.30704H2.16837V4.30664V2.16797H4.30704H6.44571V4.30664Z" fill="#F7D299"/>
<path d="M11.3381 0.111327C11.0568 0.240233 10.9338 0.36914 10.8107 0.662109C10.7346 0.84375 10.7229 1.35352 10.7229 4.31836C10.7229 8.18555 10.6994 7.97461 11.1565 8.34961L11.3791 8.52539H15.0002H18.6213L18.844 8.34961C19.301 7.97461 19.2775 8.18555 19.2775 4.31836C19.2775 1.35352 19.2658 0.84375 19.1897 0.662109C19.0666 0.36914 18.9436 0.240233 18.6623 0.111327C18.4455 0.0117178 18.1994 -9.53674e-07 15.0002 -9.53674e-07C11.801 -9.53674e-07 11.5549 0.0117178 11.3381 0.111327ZM17.1565 4.28906L17.1389 6.41602H15.0002H12.8615L12.844 4.28906L12.8322 2.16797H15.0002H17.1682L17.1565 4.28906Z" fill="#F7D299"/>
<path d="M22.0898 0.093749C21.8262 0.210937 21.6914 0.333983 21.5566 0.597656C21.4512 0.802734 21.4453 0.996093 21.4453 4.27148C21.4453 6.56836 21.4688 7.78125 21.5098 7.89258C21.5918 8.11523 21.8438 8.37891 22.0723 8.47266C22.2246 8.53711 22.916 8.55469 25.7227 8.55469C29.0508 8.55469 29.1914 8.54883 29.4082 8.4375C29.6836 8.30273 29.8594 8.08594 29.9473 7.79883C29.9883 7.6582 30 6.43359 29.9883 4.1543L29.9707 0.726562L29.8125 0.486327C29.7188 0.345702 29.5547 0.199218 29.4023 0.123046C29.1445 -9.53674e-07 29.0918 -9.53674e-07 25.7168 -9.53674e-07C22.8047 0.00585842 22.2656 0.0175772 22.0898 0.093749ZM27.832 4.30664V6.44531H25.6934H23.5547V4.30664V2.16797H25.6934H27.832V4.30664Z" fill="#F7D299"/>
<path d="M0.615234 10.8338C0.333984 10.9627 0.210938 11.0916 0.0878906 11.3846C0.0117188 11.5662 0 12.0701 0 15.0115C0 18.199 0.0117188 18.4451 0.111328 18.6619C0.240234 18.9432 0.369141 19.0662 0.662109 19.1893C0.84375 19.2654 1.35352 19.2771 4.31836 19.2771C8.18555 19.2771 7.97461 19.3006 8.34961 18.8435L8.52539 18.6209V14.9998V11.3787L8.34961 11.1561C7.97461 10.699 8.18555 10.7225 4.30664 10.7225C1.07812 10.7225 0.832031 10.7342 0.615234 10.8338ZM6.41602 14.9998V17.1385L4.29492 17.156L2.16797 17.1678V14.9998V12.8318L4.29492 12.8436L6.41602 12.8611V14.9998Z" fill="#F7D299"/>
<path d="M11.3379 10.834C11.0566 10.9629 10.9336 11.0918 10.8105 11.3848C10.7344 11.5664 10.7227 12.0703 10.7227 15.0117C10.7227 18.1992 10.7344 18.4453 10.834 18.6621C10.9629 18.9434 11.0918 19.0664 11.3848 19.1895C11.5664 19.2656 12.0703 19.2773 15.0117 19.2773C18.1992 19.2773 18.4453 19.2656 18.6621 19.166C18.9434 19.0371 19.0664 18.9082 19.1895 18.6152C19.3242 18.293 19.3242 11.707 19.1895 11.3848C19.0664 11.0918 18.9434 10.9629 18.6621 10.834C18.4453 10.7344 18.1992 10.7227 15 10.7227C11.8008 10.7227 11.5547 10.7344 11.3379 10.834ZM17.1387 15V17.1387H15H12.8613L12.8438 15.0586C12.8379 13.916 12.8438 12.9434 12.8613 12.9023C12.8789 12.8437 13.3418 12.832 15.0117 12.8437L17.1387 12.8613V15Z" fill="#F7D299"/>
<path d="M22.0332 10.8338C21.9219 10.8924 21.752 11.0389 21.6523 11.156L21.4766 11.3787V14.9998V18.6209L21.6523 18.8435C22.0273 19.3006 21.8164 19.2771 25.6953 19.2771C28.9238 19.2771 29.1699 19.2654 29.3867 19.1658C29.668 19.0369 29.791 18.908 29.9141 18.615C30.0488 18.2928 30.0488 11.7068 29.9141 11.3846C29.791 11.0916 29.668 10.9627 29.3867 10.8338C29.1699 10.7342 28.9238 10.7224 25.6953 10.7224C22.4375 10.7224 22.2266 10.7283 22.0332 10.8338ZM27.834 14.9998V17.1678L25.7129 17.156L23.5859 17.1385L23.5684 15.0584C23.5625 13.9158 23.5684 12.9432 23.5859 12.908C23.6035 12.8494 24.084 12.8318 25.7246 12.8318H27.834V14.9998Z" fill="#F7D299"/>
<path d="M0.615234 21.544C0.345703 21.6847 0.228516 21.8077 0.111328 22.0597C0.0117188 22.2765 0 22.5225 0 25.7159C0 29.0909 0 29.1436 0.123047 29.4015C0.199219 29.5538 0.345703 29.7179 0.486328 29.8116L0.726562 29.9698L4.1543 29.9874C6.43359 29.9991 7.6582 29.9874 7.79883 29.9464C8.08594 29.8585 8.30273 29.6827 8.4375 29.4073C8.54883 29.1905 8.55469 29.0499 8.55469 25.7218C8.55469 22.9151 8.53711 22.2237 8.47266 22.0714C8.37891 21.8429 8.11523 21.5909 7.89258 21.5089C7.78125 21.4679 6.57422 21.4444 4.25977 21.4444C1.20703 21.4503 0.767578 21.462 0.615234 21.544ZM6.44531 25.6925V27.8311H4.30664H2.16797V25.6925V23.5538H4.30664H6.44531V25.6925Z" fill="#F7D299"/>
<path d="M11.309 21.5566C11.1977 21.6152 11.0277 21.7617 10.9281 21.8789L10.7524 22.1016L10.7348 25.5645C10.7231 27.8672 10.7348 29.1035 10.7758 29.2441C10.8637 29.543 11.057 29.7598 11.3324 29.8887C11.5551 29.9883 11.7895 30 15.0004 30C18.2113 30 18.4457 29.9883 18.6684 29.8887C18.9438 29.7598 19.1371 29.543 19.225 29.2441C19.266 29.1035 19.2777 27.8672 19.266 25.5645L19.2484 22.1016L19.0727 21.8789C18.6977 21.4219 18.9145 21.4453 15.0004 21.4453C11.7133 21.4453 11.5024 21.4512 11.309 21.5566ZM17.1567 25.7051L17.1684 27.832H15.0004H12.8324V25.7344C12.8324 24.5801 12.85 23.6133 12.8734 23.5957C12.8969 23.5723 13.8637 23.5606 15.0238 23.5664L17.1391 23.584L17.1567 25.7051Z" fill="#F7D299"/>
<path d="M22.0605 21.5265C21.8438 21.6261 21.5918 21.8897 21.5098 22.1065C21.4688 22.2179 21.4453 23.4308 21.4453 25.7276C21.4453 29.0499 21.4512 29.1905 21.5625 29.4073C21.6973 29.6827 21.9141 29.8585 22.2012 29.9464C22.3418 29.9874 23.5664 29.9991 25.8457 29.9874L29.2734 29.9698L29.5137 29.8116C29.6543 29.7179 29.8008 29.5538 29.877 29.4015C30 29.1436 30 29.085 30 25.7335C30 22.7921 29.9883 22.2882 29.9121 22.1065C29.7949 21.8253 29.6719 21.6905 29.4023 21.5558C29.1973 21.4503 29.0039 21.4444 25.7109 21.4444C22.9395 21.4503 22.2012 21.462 22.0605 21.5265ZM27.832 25.6925V27.8311H25.6934H23.5547V25.6925V23.5538H25.6934H27.832V25.6925Z" fill="#F7D299"/>
</g>
<defs>
<clipPath id="clip0_148_3504">
<rect width="30" height="30" fill="white"/>
</clipPath>
</defs>
</svg>
