<svg width="13" height="11" viewBox="0 0 13 11" fill="none" xmlns="http://www.w3.org/2000/svg">
<path fill-rule="evenodd" clip-rule="evenodd" d="M7.42053 0.0765233C7.23205 0.191573 7.07603 0.565355 7.12296 0.789405C7.15056 0.920994 7.76976 1.62142 8.97034 2.87887L10.7762 4.7703L5.55522 4.80673L0.33416 4.84316L0.166393 5.04761C-0.0554644 5.31793 -0.0554644 5.6799 0.166393 5.95022L0.33416 6.15467L5.55522 6.1911L10.7762 6.22754L8.97034 8.11896C7.76976 9.37641 7.15056 10.0768 7.12296 10.2084C7.07443 10.4401 7.23691 10.8144 7.43409 10.925C7.50765 10.9663 7.67111 11 7.7973 11C8.00622 11 8.24887 10.7672 10.5133 8.39402C12.9472 5.84348 13 5.78198 13 5.49892C13 5.21585 12.9472 5.15435 10.5133 2.60382C8.18664 0.165488 8.01116 -0.00202216 7.78443 1.79775e-05C7.65122 0.00125663 7.48742 0.0356477 7.42053 0.0765233Z" fill="#FD9149"/>
</svg>
