<svg width="26" height="13" viewBox="0 0 26 13" fill="none" xmlns="http://www.w3.org/2000/svg">
<path fill-rule="evenodd" clip-rule="evenodd" d="M11.2485 12.2093C11.6043 12.0884 11.8988 11.6955 11.8102 11.4599C11.7581 11.3216 10.5892 10.5853 8.32286 9.26336L4.91389 7.27498L14.7697 7.23668L24.6255 7.19838L24.9422 6.98345C25.361 6.69928 25.361 6.31875 24.9422 6.03457L24.6255 5.81964L14.7697 5.78134L4.91389 5.74304L8.32286 3.75467C10.5892 2.43276 11.7581 1.69643 11.8102 1.5581C11.9018 1.31452 11.5951 0.921041 11.2229 0.804845C11.084 0.761415 10.7755 0.72595 10.5372 0.72595C10.1428 0.72595 9.6848 0.970677 5.41013 3.46551C0.815742 6.14679 0.715996 6.21143 0.715996 6.50901C0.715996 6.80659 0.815742 6.87124 5.41013 9.55251C9.80227 12.1158 10.1335 12.2919 10.5615 12.2898C10.813 12.2885 11.1222 12.2523 11.2485 12.2093Z" fill="#F7D299"/>
</svg>
