<svg width="13" height="14" viewBox="0 0 13 14" fill="none" xmlns="http://www.w3.org/2000/svg">
<path fill-rule="evenodd" clip-rule="evenodd" d="M4.3142 2.18608L2.12888 4.37223L2.57762 4.82493L3.02629 5.2777L4.43339 3.87184L5.8405 2.46599V5.91908V9.37217H6.5H7.1595V5.91908V2.46599L8.56661 3.87184L9.97371 5.2777L10.4225 4.82479L10.8714 4.37195L8.68546 2.18594L6.49944 0L4.3142 2.18608ZM0.0219372 9.70193C0.0434578 11.3246 0.0467901 11.357 0.23041 11.7489C0.468873 12.2576 1.01126 12.8 1.51998 13.0385L1.91818 13.2251H6.5H11.0818L11.48 13.0385C11.9887 12.8 12.5311 12.2576 12.7696 11.7489C12.9532 11.357 12.9565 11.3246 12.9781 9.70193L13 8.05317H12.3766H11.7533L11.7299 9.52837C11.707 10.9798 11.7036 11.0086 11.5225 11.3167C11.4091 11.5096 11.2225 11.6962 11.0366 11.8027L10.7347 11.9755H6.5H2.26529L1.96345 11.8027C1.77747 11.6962 1.59093 11.5096 1.4775 11.3167C1.29638 11.0086 1.29304 10.9798 1.27007 9.52837L1.24674 8.05317H0.623405H0L0.0219372 9.70193Z" fill="black"/>
</svg>
