<svg width="15" height="11" viewBox="0 0 15 11" fill="none" xmlns="http://www.w3.org/2000/svg">
<path fill-rule="evenodd" clip-rule="evenodd" d="M0.655401 0.176721C0.490657 0.27548 0.282555 0.491246 0.180949 0.668692L0 0.98475V5.4373V9.88986L0.193577 10.2191C0.308102 10.4139 0.505912 10.6151 0.677956 10.7118L0.968759 10.8753H5.43197C10.2818 10.8753 10.1685 10.8843 10.561 10.4645C10.8705 10.1335 10.9124 9.92095 10.9124 8.68074V7.5176H10.2555H9.59854V8.53949V9.56139H5.47445H1.35036V5.4373V1.31322H5.47445H9.59854V2.33512V3.35701H10.2555H10.9124V2.18679C10.9124 1.35548 10.8833 0.948546 10.8119 0.781684C10.6904 0.497597 10.3661 0.182633 10.0865 0.0770128C9.94942 0.025188 8.3946 -0.000432436 5.41496 5.52036e-06L0.948905 0.000735603L0.655401 0.176721ZM12.2993 3.75847V4.74387H9.23358H6.16788V5.4373V6.13074H9.23358H12.2993V7.11614C12.2993 7.65811 12.3236 8.10154 12.3533 8.10154C12.4369 8.10154 15 5.52154 15 5.4373C15 5.35307 12.4369 2.77307 12.3533 2.77307C12.3236 2.77307 12.2993 3.2165 12.2993 3.75847Z" fill="black"/>
</svg>
