<svg width="30" height="21" viewBox="0 0 30 21" fill="none" xmlns="http://www.w3.org/2000/svg">
<path fill-rule="evenodd" clip-rule="evenodd" d="M1.87064 0.0333199C1.16752 0.148987 0.56881 0.474895 0.248048 0.916545C-0.00755515 1.26852 6.86186e-05 1.16129 6.86186e-05 4.39973C6.86186e-05 7.66556 -0.0116112 7.51397 0.269793 7.8971C0.629425 8.38672 1.34505 8.71816 2.19215 8.78739C2.38222 8.80293 4.11413 8.8094 6.77885 8.80452C11.5616 8.79576 11.2008 8.80947 11.7925 8.61403C12.0002 8.54543 12.1537 8.4678 12.3768 8.31836C12.7248 8.08529 12.9168 7.86251 13.0329 7.55724C13.1046 7.3688 13.107 7.26572 13.107 4.38983C13.107 1.51395 13.1046 1.41086 13.0329 1.22242C12.8292 0.686626 12.2629 0.276879 11.432 0.0639606L11.2104 0.00717548L6.64741 0.00267912C2.85918 -0.00108466 2.04813 0.00411899 1.87064 0.0333199ZM16.8331 0.0452427C16.1465 0.166972 15.5761 0.481791 15.2734 0.906163C15.1801 1.03691 15.0854 1.20413 15.063 1.27774C15.0351 1.36949 15.0223 2.35509 15.0223 4.41052C15.0223 7.35744 15.0237 7.41273 15.0994 7.59839C15.2126 7.87565 15.44 8.12583 15.7725 8.33885C16.0865 8.54002 16.3662 8.65021 16.7874 8.73862L17.0691 8.79775H21.557C26.6092 8.79775 26.2269 8.81192 26.8272 8.60224C27.3689 8.41299 27.7833 8.08162 28.0044 7.66079L28.1104 7.45896L28.1211 4.49087C28.1331 1.15733 28.1431 1.29585 27.8622 0.908487C27.5916 0.535191 27.1109 0.244723 26.5029 0.0869979L26.1951 0.00717548L21.6509 0.00194659C17.2758 -0.00308021 17.0965 -0.00146353 16.8331 0.0452427ZM10.9572 1.30795C11.0246 1.33556 11.1132 1.39518 11.1543 1.44047C11.2276 1.52133 11.2289 1.57354 11.229 4.39024C11.2292 7.13499 11.2262 7.2614 11.1595 7.34506C11.1183 7.39674 11.0235 7.45603 10.9274 7.49023L10.7649 7.548L6.51191 7.54138C2.26302 7.53474 2.25881 7.53469 2.15287 7.48189C2.09454 7.45282 2.0088 7.39146 1.96235 7.34554L1.87785 7.26203L1.87792 4.40504C1.87796 1.21714 1.85933 1.43964 2.13691 1.3149L2.26452 1.25756L6.54969 1.25766C10.7594 1.25774 10.837 1.25862 10.9572 1.30795ZM25.9924 1.3149C26.0626 1.34642 26.1496 1.4118 26.1859 1.46015C26.2478 1.54267 26.2512 1.72419 26.2422 4.41956C26.2327 7.27534 26.2322 7.29146 26.1552 7.36082C26.1126 7.39919 26.0311 7.45401 25.9741 7.48265C25.871 7.53443 25.846 7.53479 21.6387 7.54176C16.899 7.54962 17.1756 7.55969 16.9915 7.37252L16.8991 7.2787L16.909 4.37081L16.9189 1.46295L17.0315 1.3829C17.0935 1.33885 17.178 1.29335 17.2193 1.28178C17.2606 1.27021 19.2227 1.26003 21.5796 1.25915L25.8647 1.25756L25.9924 1.3149ZM1.84694 10.1246C0.998296 10.2742 0.379005 10.6742 0.0881365 11.2606C0.0230527 11.3918 0.0186211 11.5676 0.00874399 14.398C-0.00297335 17.7583 -0.0149536 17.5929 0.268478 17.9796C0.391924 18.1479 0.490807 18.2375 0.729248 18.3967C1.05354 18.6133 1.30749 18.7183 1.7464 18.8173L2.00929 18.8766L6.42207 18.8838C11.3782 18.8918 11.1723 18.8986 11.7482 18.7097C12.2581 18.5424 12.7195 18.2149 12.9226 17.8761C13.1075 17.5675 13.1042 17.6291 13.1057 14.4664C13.1069 11.5895 13.1046 11.4899 13.0328 11.3009C12.852 10.8256 12.3553 10.4265 11.6886 10.2209C11.1973 10.0693 11.3362 10.0733 6.52291 10.0748C2.30865 10.0761 2.11028 10.0782 1.84694 10.1246ZM20.6932 10.11C18.5013 10.3221 16.5876 11.2693 15.6379 12.6121C14.9191 13.6283 14.8129 14.8479 15.3485 15.9338C15.9611 17.1758 17.3894 18.1772 19.2503 18.6694C21.1841 19.181 23.5224 19.0115 25.2562 18.234L25.5942 18.0825L27.0589 19.0656C28.1531 19.8 28.5663 20.0616 28.6925 20.0999C28.9105 20.166 29.2565 20.1682 29.4639 20.1048C29.6662 20.043 29.9102 19.8524 29.9696 19.7098C30.027 19.572 30.0006 19.3575 29.9119 19.2394C29.8768 19.1927 29.1915 18.7111 28.389 18.1693L26.93 17.1842L27.1764 16.9316C28.6144 15.4574 28.5925 13.5151 27.1212 12.0418C26.1207 11.0399 24.6185 10.3778 22.7963 10.1356C22.3625 10.0779 21.1739 10.0635 20.6932 10.11ZM10.928 11.3807C10.9999 11.4049 11.0971 11.4634 11.1439 11.5107L11.2292 11.5965V14.4813V17.3661L11.1447 17.4494C11.0982 17.4952 11.0013 17.5537 10.9293 17.5794C10.8042 17.6242 10.6136 17.6262 6.55412 17.6258L2.30974 17.6254L2.16342 17.569C2.08294 17.5379 1.98559 17.4728 1.94706 17.4241C1.87976 17.3391 1.87743 17.2246 1.88682 14.4561L1.89663 11.5764L1.97992 11.4978C2.16105 11.3271 1.86065 11.3376 6.55352 11.337C10.5198 11.3365 10.8059 11.3394 10.928 11.3807ZM22.3269 11.3626C23.2859 11.4544 24.2581 11.7875 24.9757 12.2702C25.5217 12.6375 25.874 13.0217 26.1224 13.5211C26.6879 14.6577 26.2389 15.9199 24.9669 16.7697C23.9999 17.4159 22.7412 17.7393 21.3719 17.6936C19.2211 17.6217 17.422 16.5814 16.9717 15.149C16.8564 14.7826 16.8558 14.2578 16.9701 13.8944C17.168 13.2654 17.5569 12.7702 18.2114 12.3135C18.3881 12.1902 18.6428 12.0338 18.7774 11.966C19.3257 11.6896 20.1126 11.4591 20.7871 11.3774C21.1401 11.3346 21.9528 11.3268 22.3269 11.3626Z" fill="#F3BD6A"/>
</svg>
