<svg width="17" height="15" viewBox="0 0 17 15" fill="none" xmlns="http://www.w3.org/2000/svg">
<path fill-rule="evenodd" clip-rule="evenodd" d="M6.20013 0.866732C5.31414 1.15966 4.71704 1.74901 4.59841 2.44756L4.53984 2.79185L2.85298 2.81054C0.884593 2.83244 0.879972 2.83389 0.774577 3.46796L0.714859 3.82749H0.370857H0.0268555V4.33414V4.8408L0.304563 4.87861C0.457324 4.89942 0.797238 4.91642 1.05993 4.91642H1.53758V8.97343V13.0304L1.7633 13.3553C2.0076 13.7067 2.46313 14.0175 2.9279 14.1497C3.16481 14.2171 4.2169 14.2329 8.46987 14.2329C14.3909 14.2329 14.0464 14.2592 14.716 13.7546C15.3405 13.2841 15.3119 13.5127 15.3119 8.99255V4.91642H15.834C16.1211 4.91642 16.481 4.89942 16.6337 4.87861L16.9115 4.8408V4.33414V3.82749H16.5116H16.1117V3.49814C16.1117 3.23728 16.067 3.13347 15.8974 2.99905L15.6831 2.8293L13.9868 2.81048L12.2904 2.79173V2.52542C12.2904 1.89299 11.6312 1.19359 10.7549 0.896315C10.3101 0.745437 10.2608 0.742231 8.42952 0.745195C6.7583 0.747857 6.52023 0.760864 6.20013 0.866732ZM10.0252 1.85772C10.4044 1.96559 10.69 2.27231 10.6905 2.57219L10.6908 2.79905H8.42472H6.15863L6.16059 2.63268C6.16396 2.34478 6.46389 1.98392 6.791 1.87418C7.19775 1.73782 9.56123 1.72572 10.0252 1.85772ZM13.8011 8.9058V12.8952L13.5867 13.0649L13.3724 13.2347L8.70021 13.2523C3.77684 13.2709 3.41435 13.2547 3.20534 13.0058C3.11843 12.9023 3.08635 11.9651 3.06484 8.89406L3.03685 4.91642H8.41903H13.8011V8.9058ZM4.6479 9.06043V12.176H5.40327H6.15863V9.06043V5.94486H5.40327H4.6479V9.06043ZM7.66936 9.06043V12.176H8.42472H9.18009V9.06043V5.94486H8.42472H7.66936V9.06043ZM10.7797 9.06043V12.176H11.535H12.2904V9.06043V5.94486H11.535H10.7797V9.06043Z" fill="#F7D299"/>
</svg>
