<svg width="20" height="15" viewBox="0 0 20 15" fill="none" xmlns="http://www.w3.org/2000/svg">
<path fill-rule="evenodd" clip-rule="evenodd" d="M1.83458 2.35197C0.86566 3.6456 0.0402761 4.74623 0.000404666 4.79802C-0.0732455 4.89344 9.93091 14.2339 10.036 14.1679C10.0654 14.1494 12.3355 12.0548 15.0806 9.51315C18.167 6.65567 20.0441 4.85616 19.9992 4.79802C19.9593 4.74623 19.134 3.6456 18.165 2.35197L16.4035 0H9.99981H3.59609L1.83458 2.35197ZM7.40144 2.41917C6.5154 3.3062 5.76913 4.03195 5.74288 4.03195C5.69736 4.03195 4.66868 1.00476 4.66868 0.8709C4.66868 0.835419 5.64602 0.806389 6.84055 0.806389H9.01234L7.40144 2.41917ZM15.5997 0.869915C15.5997 0.965427 14.4202 3.97702 14.3532 4.05255C14.3212 4.08857 13.5509 3.37286 12.6412 2.46217L10.9872 0.806389H13.2935C14.5619 0.806389 15.5997 0.834971 15.5997 0.869915ZM4.41252 2.68366C4.72235 3.61764 4.95298 4.40468 4.92493 4.43272C4.89689 4.46076 4.05941 4.47277 3.06379 4.45942L1.25362 4.43514L2.53551 2.71404C3.24065 1.76743 3.82457 0.991231 3.83326 0.98926C3.84195 0.987199 4.1026 1.74977 4.41252 2.68366ZM13.3598 4.41184C13.3598 4.4493 11.8478 4.47994 9.99981 4.47994C8.15183 4.47994 6.63985 4.4501 6.63985 4.41364C6.63985 4.37708 7.39544 3.59085 8.31893 2.66637L9.99811 0.985587L11.6789 2.66467C12.6034 3.58816 13.3598 4.37439 13.3598 4.41184ZM17.5773 2.87549L18.7466 4.43514L17.0191 4.45951C16.0689 4.47295 15.2425 4.46516 15.1827 4.44222C15.1076 4.41337 15.2484 3.96143 15.6369 2.98427C15.9467 2.20529 16.2272 1.49164 16.2603 1.39837C16.2936 1.3051 16.3404 1.24829 16.3643 1.2723C16.3882 1.29623 16.934 2.01768 17.5773 2.87549ZM6.96178 8.53428C8.56784 11.7511 8.61407 11.8586 8.23874 11.504C8.0246 11.3017 6.68017 10.055 5.25107 8.73364C3.82197 7.41215 2.40076 6.09729 2.09272 5.81174C1.78476 5.52609 1.53272 5.27092 1.53272 5.24458C1.53272 5.21823 2.37934 5.19673 3.41403 5.19673H5.29542L6.96178 8.53428ZM13.8078 5.25649C13.8078 5.33821 10.1343 12.5694 10.0442 12.6652C9.99309 12.7194 6.55671 6.09451 6.20682 5.26733C6.19034 5.22854 7.89388 5.19673 9.99237 5.19673C12.0909 5.19673 13.8078 5.22361 13.8078 5.25649ZM18.4519 5.2693C18.4061 5.38068 11.5294 11.7289 11.4935 11.693C11.4597 11.6593 14.5821 5.49697 14.7283 5.30873C14.7928 5.22558 15.2881 5.19673 16.6486 5.19673C17.6568 5.19673 18.4684 5.22934 18.4519 5.2693Z" fill="url(#paint0_linear_5363_23)"/>
<defs>
<linearGradient id="paint0_linear_5363_23" x1="10" y1="0" x2="10" y2="14.1682" gradientUnits="userSpaceOnUse">
<stop stop-color="#FD9149"/>
<stop offset="1" stop-color="#FFD588"/>
</linearGradient>
</defs>
</svg>
