<svg width="85" height="79" viewBox="0 0 85 79" fill="none" xmlns="http://www.w3.org/2000/svg">
<path d="M19.3316 0.191735C18.4123 0.661565 18.2435 1.43859 18.8813 2.21562C19.3879 2.83001 20.2134 2.84808 20.8326 2.23369C21.0952 1.99877 21.3016 1.67351 21.3016 1.52894C21.3016 1.02297 20.8888 0.372439 20.4198 0.173665C19.8757 -0.06125 19.8007 -0.06125 19.3316 0.191735Z" fill="#FFD588"/>
<path d="M64.5281 1.98089C64.1154 2.17967 63.7026 2.84827 63.7026 3.33617C63.7026 3.76986 64.5844 4.49268 65.1098 4.49268C65.7289 4.49268 66.5169 3.75179 66.5169 3.17354C66.5169 2.25195 65.3724 1.58334 64.5281 1.98089Z" fill="#FFD588"/>
<path d="M76.1789 2.66733C75.222 3.08295 73.965 4.43822 73.6836 5.35981C72.7267 8.41371 75.3158 11.4857 78.5616 11.1243C82.3139 10.6906 83.9836 6.31754 81.3758 3.69734C81.0006 3.31786 80.3439 2.84803 79.9312 2.66733C78.9368 2.23364 77.1732 2.21557 76.1789 2.66733Z" fill="#FFD588"/>
<path d="M30.6071 6.02848C28.7685 6.51638 27.2864 7.40183 25.5978 9.0101C24.2845 10.275 23.8342 10.8533 23.1213 12.2447C22.6335 13.1663 22.2395 14.0337 22.2395 14.1782C22.2395 14.3228 22.4459 14.5216 22.6898 14.6119C23.2526 14.8107 23.7404 15.4612 23.7404 16.0033C23.7404 16.5454 24.3033 16.5454 25.7104 16.0395C29.5377 14.6661 32.5396 11.1424 33.5902 6.80551L33.8341 5.75743L32.6897 5.7755C32.0518 5.7755 31.1137 5.90199 30.6071 6.02848Z" fill="#FFD588"/>
<path d="M51.4513 6.96814C51.8078 8.63062 53.1399 11.1966 54.3969 12.6422C55.5414 13.9795 57.6614 15.4432 59.2937 16.0395C60.7008 16.5454 61.2637 16.5454 61.2637 16.0033C61.2637 15.4612 61.7515 14.8107 62.3143 14.6119C62.5582 14.5216 62.7646 14.3228 62.7646 14.1782C62.7646 14.0337 62.3706 13.1482 61.8828 12.2266C61.1699 10.8713 60.682 10.2389 59.3875 9.0101C57.0798 6.78744 54.8284 5.75743 52.2393 5.75743H51.1699L51.4513 6.96814Z" fill="#FFD588"/>
<path d="M3.55309 14.4316C3.34671 14.5039 3.06529 14.8111 2.93396 15.1002C2.53997 16.0218 3.17786 16.9614 4.22851 16.9614C4.77259 16.9614 5.54182 16.1663 5.54182 15.6061C5.54182 15.064 4.77259 14.2509 4.28479 14.2689C4.09718 14.2689 3.77823 14.3412 3.55309 14.4316Z" fill="#FFD588"/>
<path d="M20.2695 16.3469C18.581 17.648 15.7105 20.3766 15.5604 20.8103C15.4291 21.2259 15.9731 21.8403 16.4797 21.8403C16.7048 21.8403 17.6429 21.1175 18.7499 20.0694C19.8005 19.0936 21.1326 17.9552 21.7329 17.5215C22.5585 16.9071 22.8024 16.6361 22.8024 16.2566C22.8024 15.6783 22.4834 15.335 21.9768 15.335C21.7517 15.335 21.0012 15.8048 20.2695 16.3469Z" fill="#FFD588"/>
<path d="M62.4268 15.5518C62.2955 15.6783 62.2017 15.9855 62.2017 16.2566C62.2017 16.6361 62.4456 16.9071 63.2898 17.5215C63.8714 17.9552 65.2035 19.0936 66.2542 20.0694C67.4361 21.1717 68.2992 21.8403 68.5431 21.8403C68.9183 21.8403 69.5187 21.244 69.5187 20.8826C69.5187 20.5754 66.4418 17.6661 64.9033 16.4915C63.3649 15.335 62.8583 15.1362 62.4268 15.5518Z" fill="#FFD588"/>
<path d="M12.2395 17.3229C10.0256 19.7081 9.14383 23.5029 9.9881 27.1712C10.2508 28.3458 10.3633 28.5807 10.8324 28.8156C11.6391 29.2132 11.9768 29.8456 11.883 30.7491C11.808 31.3455 11.8643 31.6346 12.1644 31.9779L12.5209 32.4116L13.3464 31.5442C15.0725 29.7011 16.2169 26.3038 15.9918 23.7921C15.9168 22.9247 15.8042 22.6717 15.3351 22.2922C14.6597 21.7501 14.4909 21.0454 14.8286 20.2683C15.0725 19.7081 15.0537 19.5997 14.4346 18.4613C14.0969 17.7746 13.6466 17.0337 13.459 16.8169L13.1213 16.3832L12.2395 17.3229Z" fill="#FFD588"/>
<path d="M71.2634 17.2501C70.9257 17.738 70.4942 18.497 70.3066 18.9306C69.9876 19.6173 69.9689 19.78 70.1753 20.2859C70.513 21.063 70.3254 21.7496 69.6312 22.3279L69.0496 22.7977V24.6228C69.0683 26.7732 69.5186 28.3995 70.5505 30.062C71.1884 31.0739 72.2766 32.3208 72.5205 32.3208C72.8206 32.3208 73.1396 31.4173 73.1021 30.6222C73.0645 29.6825 73.3272 29.2308 74.2278 28.7971C74.6218 28.5983 74.7719 28.3092 75.0158 27.1707C75.86 23.4844 74.9782 19.6354 72.7456 17.3043L71.845 16.3647L71.2634 17.2501Z" fill="#FFD588"/>
<path d="M38.5433 19.961C35.3163 20.5212 32.4458 21.6416 29.6878 23.3944C24.6973 26.6109 21.1889 31.6164 19.8755 37.417C19.4065 39.459 19.3315 43.0911 19.6879 45.2415C20.0632 47.4461 21.0763 50.4277 22.0331 52.1082L22.7273 53.3731L27.3802 53.4635C31.2263 53.5358 32.033 53.6081 32.1831 53.8249C32.427 54.2044 32.4083 54.4212 32.1081 54.8368C31.8642 55.144 31.5265 55.1802 27.9242 55.2705L24.0218 55.3609L26.0856 57.3667C28.4308 59.6436 30.5696 61.1073 33.1587 62.1734C38.1305 64.2334 43.4025 64.631 48.5057 63.3119C52.5957 62.2457 55.7476 60.4567 58.9183 57.3667L60.9821 55.3609L57.0797 55.2705C53.4775 55.1802 53.1398 55.144 52.8959 54.8368C52.5581 54.3851 52.5581 54.096 52.9334 53.7526C53.1773 53.4996 53.8715 53.4635 57.6988 53.4635H62.1828L62.9333 52.1624C65.785 47.1931 66.3291 40.4167 64.3404 34.7064C61.695 27.0807 54.697 21.3524 46.3106 19.9429C44.3406 19.6177 40.4757 19.6177 38.5433 19.961ZM56.6106 30.6406C56.7607 30.8213 57.9239 32.5741 59.181 34.5257C61.3385 37.8688 61.4699 38.1037 61.226 38.5193C60.7382 39.4409 42.9522 61.2338 42.6333 61.3422C42.4457 61.3964 42.1267 61.3422 41.9391 61.1976C41.5076 60.9266 24.2282 39.3686 23.8155 38.5916C23.534 38.0856 23.5528 38.0314 25.823 34.5257C27.08 32.5741 28.2432 30.8213 28.3933 30.6406C28.6559 30.3515 29.5753 30.3334 42.502 30.3334C55.4287 30.3334 56.348 30.3515 56.6106 30.6406Z" fill="#FFD588"/>
<path d="M29.1249 32.809C28.881 33.1885 28.1493 34.2908 27.5302 35.2666C26.8923 36.2424 26.3669 37.1098 26.3669 37.2182C26.3669 37.3266 27.7365 37.3628 29.9692 37.3447L33.5901 37.2905L34.8659 35.2124C35.5601 34.0739 36.273 32.9174 36.4231 32.6283L36.7045 32.1404H33.1211H29.5564L29.1249 32.809Z" fill="#FFD588"/>
<path d="M37.3427 34.6161C36.5172 35.9894 35.823 37.164 35.7855 37.2363C35.748 37.3086 38.7686 37.3809 42.5021 37.3809C46.2357 37.3809 49.2563 37.3086 49.2188 37.2363C49.2 37.164 48.4871 35.9894 47.6615 34.6161L46.1606 32.1404H42.5021H38.8436L37.3427 34.6161Z" fill="#FFD588"/>
<path d="M48.5807 32.6283C48.7308 32.9174 49.4438 34.0739 50.1379 35.2124L51.4137 37.2905L55.0347 37.3447C57.2298 37.3628 58.6369 37.3266 58.6369 37.2182C58.6369 37.1278 57.924 35.9533 57.0609 34.6341L55.5037 32.2308L51.9015 32.1766L48.2993 32.1404L48.5807 32.6283Z" fill="#FFD588"/>
<path d="M26.5921 39.1879C26.6672 39.4228 39.3312 55.2705 39.4438 55.2705C39.4813 55.2705 39.4813 55.2163 39.4438 55.1259C39.3875 55.0537 38.0742 51.548 36.4982 47.3376C34.941 43.1091 33.5714 39.5131 33.4776 39.3324C33.3088 39.0433 32.9898 39.0072 29.9129 39.0072C27.7929 39.0072 26.5546 39.0794 26.5921 39.1879Z" fill="#FFD588"/>
<path d="M35.5601 39.2418C35.5601 39.4587 42.2392 57.6194 42.3705 57.7278C42.4455 57.8001 49.4436 39.4948 49.4436 39.2237C49.4436 39.0611 47.6988 39.0069 42.5018 39.0069C36.8734 39.0069 35.5601 39.043 35.5601 39.2418Z" fill="#FFD588"/>
<path d="M48.8058 46.2715C47.2674 50.2831 45.8602 53.9514 45.6539 54.4574C45.41 55.0898 45.3724 55.2705 45.5601 55.0898C46.0479 54.6019 58.4492 39.206 58.4492 39.1156C58.4492 39.0614 56.9108 39.0072 55.0159 39.0072H51.5825L48.8058 46.2715Z" fill="#FFD588"/>
<path d="M81.7135 20.0332C80.8692 20.8464 81.5071 22.2017 82.7078 22.2017C83.5146 22.2017 83.9649 21.7318 83.9649 20.8825C83.9649 20.4127 83.8523 20.1597 83.5521 19.9609C82.9705 19.5634 82.1638 19.5995 81.7135 20.0332Z" fill="#FFD588"/>
<path d="M9.50029 29.8634C9.20011 30.2249 8.2245 32.8451 7.68042 34.7605C7.28643 36.2242 7.26766 36.4049 7.51156 36.7844C7.83051 37.2362 8.56221 37.3446 8.88116 36.9651C8.99373 36.8567 9.25639 36.0797 9.46277 35.2484C9.68791 34.4353 10.1569 32.9896 10.4947 32.068C11.0763 30.532 11.1138 30.3333 10.8699 29.9899C10.5509 29.5562 9.81924 29.484 9.50029 29.8634Z" fill="#FFD588"/>
<path d="M74.134 29.9899C73.8901 30.3333 73.9277 30.5321 74.5093 32.068C74.847 32.9896 75.316 34.4353 75.5412 35.2484C75.7475 36.0797 76.0102 36.8567 76.1228 36.9651C76.4417 37.3446 77.1734 37.2362 77.4924 36.7844C77.755 36.3869 77.7363 36.2061 77.211 34.4533C76.5918 32.321 75.8038 30.2068 75.5036 29.8454C75.1847 29.484 74.453 29.5563 74.134 29.9899Z" fill="#FFD588"/>
<path d="M0.401046 32.9533C0.194669 33.4954 0.288476 35.8265 0.5699 36.8384C1.22655 39.2599 3.12147 41.862 5.3541 43.4341C6.1796 44.0124 6.38598 44.0846 7.02387 43.9762C7.96195 43.8317 8.78746 44.2111 9.08764 44.952C9.42535 45.711 9.96944 45.8013 10.1195 45.1147C10.4572 43.4883 10.1195 41.5186 9.16269 39.4948C8.59984 38.3383 8.41223 38.1033 8.05576 38.1033C7.81186 38.1033 7.34282 37.8865 7.02387 37.5974C6.5736 37.2179 6.44227 36.9468 6.4235 36.4047C6.40474 35.7542 6.31094 35.6277 5.26029 34.8868C4.13459 34.0737 1.93949 32.9714 1.02018 32.7726C0.663707 32.6822 0.494854 32.7364 0.401046 32.9533Z" fill="#FFD588"/>
<path d="M83.4022 32.9355C82.239 33.3511 80.9069 34.0739 79.7437 34.8871C78.6931 35.628 78.5993 35.7545 78.5805 36.405C78.5617 36.9471 78.4304 37.2182 77.9801 37.5977C77.6612 37.8868 77.1922 38.1036 76.9483 38.1036C76.5918 38.1036 76.4042 38.3385 75.8413 39.4951C75.4848 40.2721 75.0909 41.3382 74.9783 41.8623C74.7531 42.8923 74.7156 44.6451 74.8845 45.2595C75.0346 45.8016 75.6162 45.6209 75.9164 44.9523C76.2165 44.2114 77.0421 43.8319 77.9614 43.9765C78.5805 44.0849 78.8244 44.0126 79.5186 43.5428C80.982 42.5851 82.8019 40.507 83.5898 38.9349C84.4154 37.2543 84.7155 36.0436 84.7155 34.3992C84.7155 32.6102 84.6217 32.5018 83.4022 32.9355Z" fill="#FFD588"/>
<path d="M6.7799 45.1872C6.47971 45.6571 6.59228 47.3195 7.15513 50.2108C7.54912 52.2528 8.18701 52.9033 8.99376 52.0359C9.29394 51.7287 9.27518 51.5841 8.93747 49.6506C8.73109 48.5122 8.50596 47.0304 8.43091 46.3618C8.3371 45.4583 8.22453 45.0969 7.96187 44.9704C7.43655 44.6813 7.08008 44.7535 6.7799 45.1872Z" fill="#FFD588"/>
<path d="M76.9858 44.9704C76.7795 45.0969 76.6481 45.5125 76.5543 46.3799C76.498 47.0485 76.2729 48.5122 76.0665 49.6506C75.7288 51.5841 75.7101 51.7287 76.0102 52.0359C76.817 52.9033 77.4549 52.2528 77.8489 50.2108C78.4117 47.3195 78.5243 45.6571 78.2241 45.1872C77.9427 44.7716 77.5112 44.6813 76.9858 44.9704Z" fill="#FFD588"/>
<path d="M0.70123 51.8551C-0.236847 52.0719 -0.236847 52.2165 0.719992 53.8067C2.31472 56.4449 5.78561 58.5411 9.23774 58.9929C10.0632 59.0832 10.2696 59.0471 10.6261 58.7218C11.1889 58.2158 12.4084 58.1978 12.9338 58.6857C13.2715 58.9929 13.4591 59.029 14.0407 58.8844C14.4347 58.8122 14.8099 58.6857 14.8662 58.6315C14.9225 58.5773 14.7349 58.0713 14.4534 57.5111C13.4028 55.4511 10.0257 52.6321 9.12517 53.0839C8.37471 53.4814 7.77434 53.3188 6.98635 52.5237L6.23589 51.7647L3.87193 51.7105C2.57739 51.6924 1.15151 51.7647 0.70123 51.8551Z" fill="#FFD588"/>
<path d="M79.1057 51.7828C78.8618 51.837 78.3552 52.1803 77.9612 52.5779C77.2295 53.3188 76.6104 53.4633 75.8787 53.0839C74.9781 52.6321 71.6011 55.4511 70.5504 57.5111C70.269 58.0713 70.0814 58.5773 70.1377 58.6315C70.194 58.6857 70.5504 58.8122 70.9444 58.8844C71.5073 59.0109 71.7324 58.9748 72.1076 58.6857C72.7268 58.2158 73.8337 58.2339 74.3778 58.7218C74.7342 59.0471 74.9406 59.0832 75.7661 58.9929C79.237 58.5411 82.6704 56.463 84.2839 53.8067C85.2595 52.1803 85.2595 52.09 84.1525 51.8551C83.2332 51.6563 80.025 51.6202 79.1057 51.7828Z" fill="#FFD588"/>
<path d="M11.2077 59.4625C10.7199 59.9323 10.9825 60.619 12.5397 62.8597C13.7217 64.5584 14.8849 65.9679 15.2226 66.1666C15.5979 66.3654 16.1982 66.1486 16.4234 65.7329C16.6673 65.2993 16.5359 65.0463 15.2039 63.3838C14.641 62.679 13.8718 61.6129 13.4966 60.9985C13.1026 60.3841 12.6711 59.7336 12.521 59.5529C12.202 59.1915 11.5266 59.1553 11.2077 59.4625Z" fill="#FFD588"/>
<path d="M72.5017 59.5531C72.3329 59.7338 71.9014 60.3843 71.5074 60.9987C71.1321 61.6131 70.3629 62.6793 69.8001 63.384C69.256 64.0707 68.7119 64.7935 68.5993 65.0103C68.2241 65.679 68.937 66.456 69.6875 66.203C70.0815 66.0584 71.2447 64.6309 72.6893 62.5166C73.9276 60.6915 74.1903 60.0771 73.8901 59.6254C73.6274 59.2098 72.8394 59.1736 72.5017 59.5531Z" fill="#FFD588"/>
<path d="M80.8132 65.4439C79.5937 66.6908 81.4511 68.3894 82.7269 67.1967C82.9333 66.998 83.0834 66.6004 83.0834 66.2751C83.0834 65.1548 81.62 64.6127 80.8132 65.4439Z" fill="#FFD588"/>
<path d="M17.23 66.2211C16.7422 66.944 15.8229 67.2511 14.9411 66.9982C14.1719 66.7813 13.534 66.9982 11.8455 68.0824L11.1138 68.5341L12.0331 69.3292C13.9468 70.9917 16.3295 71.7868 19.4814 71.7687H21.5264L22.0705 71.1182C22.7084 70.3773 23.3463 70.1785 24.2281 70.4496C24.7909 70.6303 24.9786 70.5942 25.9729 70.0882C26.592 69.7629 27.2299 69.3654 27.3988 69.1847C27.6802 68.8956 27.6427 68.8233 26.8172 68.1185C24.9598 66.5464 22.502 65.7513 19.4814 65.7513C17.6053 65.7513 17.549 65.7694 17.23 66.2211Z" fill="#FFD588"/>
<path d="M62.3892 66.0402C60.907 66.4197 59.1997 67.251 58.1866 68.1183C57.361 68.8231 57.3235 68.8954 57.6049 69.1845C57.7738 69.3652 58.4117 69.7627 59.0308 70.088C60.0252 70.594 60.2128 70.6301 60.7757 70.4494C61.6575 70.1784 62.2953 70.3771 62.952 71.1361L63.4961 71.7866L65.5223 71.7686C68.6555 71.7686 71.0007 71.0096 72.9707 69.3471L73.8712 68.5701L73.4397 68.2268C73.1958 68.028 72.4829 67.6304 71.8825 67.3413C70.8694 66.8534 70.7005 66.8173 70.0626 66.998C69.1808 67.251 68.2615 66.9438 67.7737 66.2209C67.4548 65.7692 67.3985 65.7511 65.4285 65.7692C64.3216 65.7692 62.9708 65.8957 62.3892 66.0402Z" fill="#FFD588"/>
<path d="M22.8961 71.5337C22.277 72.1842 22.6335 72.636 24.6222 73.7383C30.2319 76.8102 36.0105 78.2739 42.502 78.2739C49.031 78.2739 55.0159 76.7379 60.5693 73.6298C62.3517 72.636 62.7082 72.1661 62.1078 71.5337C61.6575 71.0638 61.301 71.0819 60.4755 71.624C59.2373 72.4372 55.7851 74.0093 53.8339 74.6598C46.4231 77.1355 38.562 77.1355 31.17 74.6598C29.1812 74.0093 25.7854 72.4372 24.5659 71.6421C23.7029 71.0819 23.3464 71.0638 22.8961 71.5337Z" fill="#FFD588"/>
<path d="M5.54185 73.1782C4.82891 73.4492 4.07844 74.2262 3.83454 74.9129C3.21541 76.72 5.05405 78.6716 7.00525 78.2921C7.812 78.1294 8.84388 77.244 9.10655 76.485C9.80073 74.4612 7.58686 72.4011 5.54185 73.1782Z" fill="#FFD588"/>
<path d="M17.0799 76.1416C16.5546 76.6295 16.5171 76.9006 16.8172 77.5692C17.1362 78.2378 17.9429 78.4908 18.6371 78.1474C19.5189 77.7137 19.669 76.9548 19.0311 76.1597C18.5245 75.5453 17.699 75.5272 17.0799 76.1416Z" fill="#FFD588"/>
<path d="M68.8057 76.1055C67.9802 76.9367 68.5243 78.2739 69.6875 78.2739C70.4755 78.2739 71.0759 77.6957 71.0759 76.9367C71.0759 75.8164 69.6125 75.2742 68.8057 76.1055Z" fill="#FFD588"/>
</svg>
