<svg width="23" height="21" viewBox="0 0 23 21" fill="none" xmlns="http://www.w3.org/2000/svg">
<path d="M18.1269 0.552318C17.7633 0.615639 17.3024 0.781859 16.9514 0.975782C16.6512 1.142 16.0973 1.62879 15.924 1.88208L15.7929 2.076L15.2347 2.07996C14.5624 2.07996 14.4144 2.11953 14.3087 2.32137C14.2411 2.44802 14.2368 2.49551 14.2791 2.60632C14.3552 2.82399 14.4694 2.86752 14.9472 2.86752C15.1755 2.86752 15.3743 2.87544 15.387 2.88731C15.3996 2.89919 15.3785 3.0377 15.3489 3.19601C15.2686 3.56802 15.3024 4.21311 15.4208 4.60096C15.776 5.78033 16.8922 6.7262 18.1608 6.92408L18.3383 6.95179V8.78417C18.3383 9.83293 18.3553 10.6601 18.3764 10.7155C18.4906 10.9965 18.8373 11.0717 19.0614 10.8659L19.184 10.7511V8.85144V6.95575L19.4504 6.9043C20.7274 6.67475 21.8141 5.68139 22.1312 4.45849C22.2327 4.06668 22.22 3.33057 22.1058 2.93085C21.6365 1.28052 19.9155 0.251538 18.1269 0.552318ZM19.2897 1.34384C20.258 1.53381 21.0699 2.27388 21.3024 3.18413C21.3954 3.54428 21.3659 4.09834 21.2348 4.48619L21.1206 4.81863L20.9261 4.63658C20.7316 4.45849 20.4187 4.29622 20.2749 4.29227C20.2157 4.29227 20.2031 4.21707 20.1904 3.64718C20.1777 3.05353 20.1692 2.99021 20.0677 2.78837C19.9282 2.51134 19.6491 2.25409 19.3532 2.11953C19.1586 2.03247 19.0614 2.01664 18.7612 2.01664C18.461 2.01664 18.3637 2.03247 18.1608 2.12349C17.5054 2.4124 17.2347 2.96646 17.2982 3.90442C17.3235 4.25665 17.3193 4.29227 17.2517 4.29227C17.1079 4.29227 16.7358 4.48619 16.5709 4.6445L16.406 4.8028L16.351 4.69594C16.1565 4.29622 16.0931 3.69467 16.1988 3.22371C16.3045 2.75671 16.5244 2.3847 16.9218 2.01664C17.573 1.4032 18.3975 1.16971 19.2897 1.34384ZM19.0487 2.86752C19.3024 3.01396 19.3532 3.14456 19.3532 3.65905C19.3532 4.1775 19.294 4.3358 19.0656 4.46244C18.888 4.56139 18.5709 4.56139 18.4314 4.46244C18.1777 4.28435 18.1481 4.20916 18.1481 3.68675C18.1481 3.27516 18.1608 3.18413 18.2326 3.06936C18.3975 2.80816 18.7781 2.71318 19.0487 2.86752ZM17.9874 5.12337C18.2453 5.27771 18.4187 5.32125 18.7654 5.32125C19.0783 5.32125 19.3405 5.25001 19.573 5.09962C19.7041 5.01255 19.7548 5.00068 19.9113 5.02443C20.165 5.064 20.3172 5.14711 20.4102 5.29354C20.5371 5.48351 20.516 5.54287 20.2707 5.71305C19.8563 6.00592 19.2517 6.19192 18.7274 6.19192C18.0635 6.18797 17.0318 5.75263 17.0276 5.47164C17.0276 5.30938 17.2474 5.09566 17.4631 5.05213C17.7379 4.99277 17.7717 4.99672 17.9874 5.12337Z" fill="#F7D299"/>
<path d="M6.60471 0.611599C5.17552 0.849056 4.07615 1.34772 2.97254 2.25005C1.88163 3.14448 1.04441 4.50985 0.748427 5.87919C0.139543 8.67327 1.43765 11.4594 4.04655 12.9712C4.63429 13.3116 5.66601 13.7113 5.95354 13.7113C6.21147 13.7113 6.41443 13.4026 6.30872 13.1652C6.24107 13.0227 6.19455 12.995 5.70829 12.8367C3.95775 12.2628 2.53279 10.9726 1.86894 9.36585C1.02327 7.31581 1.45879 5.00852 3.0106 3.33444C3.81822 2.46377 4.98102 1.78701 6.16918 1.49811C6.89223 1.32397 7.95778 1.26856 8.65546 1.36355C10.0424 1.56143 11.2432 2.12737 12.2284 3.04554C13.3278 4.07452 13.9367 5.30138 14.0762 6.77757C14.1735 7.81842 13.9536 8.89094 13.4504 9.84472C12.6766 11.3051 11.4123 12.3301 9.73369 12.8644C9.17555 13.0385 9.05715 13.1295 9.06138 13.363C9.06561 13.4976 9.09521 13.5491 9.20515 13.644C9.32777 13.743 9.36582 13.7588 9.51804 13.7351C9.95779 13.6797 11.0022 13.272 11.5434 12.9435C11.6787 12.8644 11.8014 12.8011 11.8183 12.8011C11.8352 12.8011 12.0593 12.995 12.313 13.2364L12.7781 13.6717L12.5329 13.8973C12.2622 14.1546 12.2031 14.3089 12.3045 14.487C12.3426 14.5503 13.7549 15.8959 15.4504 17.475C18.7528 20.554 18.6767 20.4947 19.2898 20.6609C19.6407 20.7559 20.22 20.748 20.5837 20.6411C21.2602 20.4432 21.8649 19.8852 22.0847 19.2678C22.1439 19.0937 22.1651 18.9195 22.1651 18.5792C22.1651 18.0449 22.0932 17.7956 21.8353 17.4157C21.59 17.0555 15.6153 11.4713 15.4462 11.4436C15.2686 11.4159 15.1333 11.4753 14.9134 11.6731L14.7189 11.8512L14.2411 11.4001L13.7591 10.9489L13.9155 10.7075C14.3553 10.0307 14.7105 9.12444 14.8542 8.30917C14.9557 7.74719 14.9557 6.73404 14.8542 6.17601C14.647 5.0283 14.2073 4.07452 13.4462 3.14052C12.3553 1.79889 10.757 0.904463 8.91762 0.607641C8.28336 0.508701 7.20936 0.508701 6.60471 0.611599ZM13.7083 12.0095L14.1312 12.4053L13.7506 12.7615L13.3701 13.1177L12.9388 12.714L12.5033 12.3103L12.8542 11.966C13.0445 11.78 13.2221 11.6217 13.2432 11.6177C13.2686 11.6177 13.4758 11.7919 13.7083 12.0095ZM18.2623 15.1242C21.0107 17.7085 21.1672 17.8589 21.2517 18.0766C21.7169 19.2639 20.4272 20.3482 19.2221 19.7863C19.0403 19.6992 18.5456 19.2599 16.7951 17.6254L14.5963 15.5754L15.1333 15.0688C15.4293 14.7878 15.6914 14.5068 15.7168 14.4474C15.8394 14.1387 15.5181 13.83 15.1883 13.9488C15.1206 13.9725 14.8204 14.2179 14.5244 14.4949L13.9832 14.9936L13.6238 14.6611L13.2644 14.3247L14.2876 13.367C14.8542 12.8367 15.3236 12.4053 15.3363 12.4053C15.349 12.4053 16.664 13.6282 18.2623 15.1242Z" fill="#F7D299"/>
<path d="M7.36586 2.59412C4.6428 2.78013 2.54553 5.11117 2.82038 7.65196C2.93454 8.72052 3.40389 9.69013 4.18191 10.45C6.13541 12.3576 9.36588 12.3734 11.3278 10.4817C12.1524 9.68618 12.5921 8.79571 12.7232 7.66383C12.9684 5.49901 11.4378 3.38169 9.18406 2.76826C8.56672 2.60204 8.02972 2.55059 7.36586 2.59412ZM8.59209 3.44501C10.1608 3.726 11.4378 4.90141 11.8099 6.40927C11.9283 6.88022 11.9198 7.67966 11.7887 8.15062C11.6915 8.51472 11.3659 9.19543 11.1798 9.42893L11.0741 9.55953L10.9177 9.34186C10.5963 8.88674 10.2327 8.68885 9.45044 8.54242C9.16714 8.48702 8.91344 8.42765 8.8923 8.40786C8.87116 8.38808 8.91344 8.32871 8.99801 8.26143C9.34896 7.99231 9.5477 7.71528 9.67032 7.34326C9.7422 7.12955 9.75489 6.97916 9.75489 6.2945C9.75489 5.43965 9.73374 5.313 9.52233 4.9212C9.36588 4.63625 8.9811 4.28798 8.64706 4.13759C7.51808 3.61519 6.16078 4.20487 5.84365 5.34862C5.76754 5.61378 5.75486 6.93563 5.82674 7.21662C5.90708 7.54115 6.08044 7.82609 6.38066 8.10708C6.54133 8.25747 6.6555 8.39599 6.63859 8.41182C6.61744 8.43161 6.37643 8.48702 6.09736 8.53847C5.77177 8.59783 5.49693 8.67698 5.32779 8.75613C5.04027 8.89465 4.70623 9.18356 4.57515 9.40914C4.52863 9.48829 4.48212 9.55557 4.46944 9.55557C4.45675 9.55557 4.35527 9.41706 4.24533 9.24688C3.48423 8.06751 3.43349 6.65068 4.11003 5.45152C4.98107 3.90409 6.73584 3.11653 8.59209 3.44501ZM8.28342 4.84601C8.3849 4.8935 8.50752 4.96869 8.56249 5.01618C8.67665 5.11908 8.84156 5.35654 8.81619 5.38424C8.80351 5.39216 8.71048 5.35654 8.609 5.30113C8.2961 5.13491 8.16925 5.16262 7.77601 5.48318C7.54345 5.67315 7.27707 5.75626 6.91343 5.75626C6.59207 5.75626 6.57939 5.74043 6.67664 5.47527C6.90074 4.85788 7.67876 4.55314 8.28342 4.84601ZM8.90499 6.70609C8.90921 6.95937 8.88807 7.08602 8.82042 7.22058C8.42718 8.03981 7.17982 8.07542 6.74429 7.27994C6.6851 7.181 6.64704 7.01478 6.63436 6.83273L6.61322 6.54778H6.95571C7.37009 6.54778 7.7295 6.4528 8.1016 6.23909L8.37221 6.08474L8.6386 6.22722L8.90499 6.36969V6.70609ZM8.10583 8.72447C8.14388 8.79571 8.12274 8.85112 7.97052 9.08066C7.87327 9.23501 7.78024 9.35769 7.76756 9.35769C7.75487 9.35769 7.66608 9.23105 7.5646 9.0767C7.42083 8.85112 7.39546 8.78384 7.42929 8.72447C7.46734 8.65719 7.51808 8.64532 7.76756 8.64532C8.02126 8.64532 8.06777 8.65719 8.10583 8.72447ZM7.06988 9.81678C7.27707 10.1334 7.48426 10.4183 7.53077 10.45C7.64071 10.5212 7.89441 10.5212 8.00435 10.446C8.05509 10.4144 8.26228 10.1373 8.46524 9.83261C8.67243 9.52391 8.85425 9.26667 8.86693 9.25875C8.91344 9.23105 9.70415 9.38935 9.831 9.45268C10.0889 9.57932 10.3046 9.83656 10.3638 10.0978C10.3934 10.2125 10.3765 10.2323 10.1904 10.3669C9.90288 10.5727 9.20097 10.8893 8.80351 10.9882C8.52443 11.0555 8.34261 11.0713 7.7887 11.0753C7.01068 11.0753 6.6555 11.008 6.05084 10.7429C5.72949 10.6043 5.22209 10.3115 5.17134 10.2363C5.15866 10.2165 5.17134 10.1294 5.19672 10.0384C5.24746 9.8524 5.51384 9.5437 5.70412 9.45268C5.80983 9.40123 6.49059 9.25084 6.64704 9.24292C6.67241 9.24292 6.85846 9.50017 7.06988 9.81678Z" fill="#F7D299"/>
<path d="M18.6134 11.7681C18.457 11.8314 18.3682 11.962 18.3682 12.1362C18.3682 12.4172 18.6811 12.6071 18.9432 12.4805C19.2646 12.3261 19.2561 11.8829 18.9263 11.776C18.7699 11.7246 18.7318 11.7246 18.6134 11.7681Z" fill="#F7D299"/>
<path d="M2.52425 13.2086C2.31706 13.3036 2.27055 13.4737 2.27055 14.1347V14.7362L2.07182 14.8629C1.81389 15.0291 1.39528 15.4209 1.21769 15.6623C1.01473 15.9393 0.803311 16.3826 0.70183 16.7388C0.579208 17.182 0.579208 17.8825 0.70183 18.3179C1.12889 19.8178 2.62573 20.8389 4.25788 20.7439C4.76951 20.7122 5.18812 20.6014 5.67438 20.3679C5.98728 20.2175 6.13104 20.1146 6.482 19.7901C6.82872 19.4616 6.93866 19.3271 7.09934 19.0342C7.28962 18.6859 7.47144 18.1793 7.47144 17.9973V17.9063H8.57504C9.30232 17.9063 9.70824 17.8904 9.76744 17.8627C10.0972 17.7044 10.0846 17.2691 9.74629 17.1583C9.66595 17.1306 9.20083 17.1147 8.5539 17.1147H7.49258L7.43761 16.8535C7.25156 15.9393 6.51583 15.0489 5.58136 14.6056C5.28537 14.4671 4.723 14.3207 4.36359 14.289C4.0972 14.2653 3.55175 14.3048 3.23462 14.3682L3.11622 14.3919V13.9368C3.11622 13.4183 3.07817 13.3075 2.88366 13.2165C2.71453 13.1453 2.66379 13.1413 2.52425 13.2086ZM4.57501 15.1162C5.56444 15.3101 6.40166 16.0779 6.60462 16.9802C6.71456 17.4591 6.66382 18.029 6.47777 18.4326L6.41012 18.583L6.23675 18.4208C6.04648 18.2427 5.83929 18.1279 5.62364 18.0844L5.48411 18.0567L5.50948 17.6767C5.56022 16.9564 5.42914 16.5171 5.0655 16.1768C4.83717 15.9631 4.64689 15.8681 4.30862 15.8087C3.83082 15.7177 3.34878 15.8681 3.00629 16.2124C2.67647 16.5409 2.63419 16.6794 2.61728 17.4195C2.60459 17.8746 2.58768 18.0646 2.55385 18.0646C2.43123 18.0646 2.02108 18.2822 1.86463 18.4247L1.69127 18.583L1.62361 18.4128C1.44179 17.9538 1.39528 17.376 1.50522 16.9564C1.84349 15.6702 3.21348 14.851 4.57501 15.1162ZM4.34245 16.6438C4.61306 16.7863 4.65958 16.905 4.65958 17.4591C4.65958 17.9815 4.63421 18.0567 4.36782 18.2387C4.20714 18.3535 3.89424 18.3456 3.71242 18.2268C3.49255 18.0804 3.45449 17.9656 3.45449 17.4393C3.45449 17.0158 3.46295 16.9564 3.55175 16.8338C3.66168 16.6794 3.88579 16.5607 4.06338 16.5607C4.1268 16.5607 4.25365 16.5963 4.34245 16.6438ZM3.30227 18.9115C3.59826 19.0777 3.98304 19.149 4.29171 19.0936C4.51581 19.054 4.81602 18.9313 4.94288 18.8284C5.00207 18.7809 5.05281 18.7769 5.25577 18.8165C5.55599 18.8759 5.78009 19.0579 5.78009 19.2439C5.78009 19.3468 5.74204 19.3864 5.49256 19.5447C4.60461 20.1107 3.34878 20.0869 2.51157 19.4814C2.41432 19.4141 2.32552 19.3508 2.31706 19.3429C2.27901 19.3152 2.40163 19.0223 2.48197 18.955C2.55385 18.8917 2.87521 18.7888 3.01474 18.7809C3.04011 18.7769 3.17119 18.8363 3.30227 18.9115Z" fill="#F7D299"/>
<path d="M7.64077 13.1849C7.20102 13.3472 7.31941 13.9487 7.79299 13.9487C8.17354 13.9487 8.36382 13.5213 8.08897 13.2799C7.98749 13.1928 7.75493 13.1414 7.64077 13.1849Z" fill="#F7D299"/>
<path d="M11.277 17.1424C10.9472 17.2611 10.8965 17.7044 11.1967 17.8468C11.3489 17.922 13.1121 17.9339 13.2813 17.8627C13.4208 17.8033 13.5307 17.5817 13.4969 17.4352C13.4842 17.3719 13.425 17.2809 13.3658 17.2295C13.2601 17.1345 13.2432 17.1345 12.3003 17.1266C11.7717 17.1226 11.3108 17.1305 11.277 17.1424Z" fill="#F7D299"/>
<path d="M9.22631 18.8129C8.87112 18.9514 8.90495 19.458 9.27705 19.549C9.52229 19.6045 9.79714 19.4105 9.79714 19.177C9.79714 18.9 9.49692 18.71 9.22631 18.8129Z" fill="#F7D299"/>
<path d="M11.1967 18.8285C10.9599 18.9591 10.9176 19.2242 11.1036 19.4182C11.3573 19.6833 11.8056 19.529 11.8056 19.1728C11.8056 18.8918 11.4546 18.6939 11.1967 18.8285Z" fill="#F7D299"/>
<path d="M13.2265 18.8285C12.9221 18.9948 12.9559 19.4261 13.2815 19.529C13.5733 19.6161 13.8354 19.4499 13.8354 19.1689C13.8354 18.8919 13.4802 18.694 13.2265 18.8285Z" fill="#F7D299"/>
</svg>
