<svg width="23" height="25" viewBox="0 0 23 25" fill="none" xmlns="http://www.w3.org/2000/svg">
<path fill-rule="evenodd" clip-rule="evenodd" d="M9.49633 0.213863C9.26792 0.40251 9.26531 0.456861 9.23917 5.57813L9.2127 10.7518L7.63337 10.7782C6.76474 10.7927 5.94992 10.8289 5.82281 10.8585C5.6956 10.8881 5.53091 11.0586 5.45684 11.2373C5.3415 11.516 5.35119 11.6088 5.52481 11.8884C5.88893 12.4746 10.9485 18.1866 11.2183 18.316C11.4157 18.4108 11.5515 18.4113 11.7629 18.3183C12.0407 18.196 17.0821 12.5213 17.4752 11.8884C17.6488 11.6088 17.6585 11.516 17.5432 11.2373C17.4691 11.0586 17.3044 10.8881 17.1772 10.8585C17.0501 10.8289 16.2353 10.7927 15.3666 10.7782L13.7873 10.7518L13.7608 5.57813C13.7347 0.456861 13.7321 0.40251 13.5037 0.213863C13.1586 -0.0712875 9.84138 -0.0712875 9.49633 0.213863ZM0.0318044 20.22C0.061975 23.3739 0.0743918 23.5491 0.289071 23.8416C0.41313 24.0105 0.682705 24.2345 0.888126 24.3392C1.2359 24.5165 1.96762 24.5297 11.5 24.5297C21.0324 24.5297 21.7641 24.5165 22.1119 24.3392C22.3173 24.2345 22.5869 24.0105 22.7109 23.8416C22.9256 23.5491 22.938 23.3739 22.9682 20.22L23 16.9057H21.4706H19.9412V19.193V21.4803H11.5H3.05877V19.193V16.9057H1.52944H0L0.0318044 20.22Z" fill="#A09481"/>
</svg>
