<svg width="52" height="25" viewBox="0 0 52 25" fill="none" xmlns="http://www.w3.org/2000/svg">
<path fill-rule="evenodd" clip-rule="evenodd" d="M23.979 0.0176518C18.2448 0.261805 12.5547 1.27989 7.60151 2.9479C6.39777 3.35327 5.98308 3.63412 5.68792 4.2438C5.32524 4.99299 5.39135 5.3945 6.38175 8.45687C6.88061 9.99925 7.70614 12.5845 8.21635 14.2017C8.72656 15.8189 9.25624 17.337 9.39352 17.5752C9.73035 18.1599 10.3173 18.5346 10.9814 18.5889C11.3941 18.6227 11.7999 18.5422 12.8615 18.2157C21.6939 15.4997 30.3181 15.4992 39.1474 18.2142C40.2133 18.542 40.6193 18.6227 41.0322 18.5889C41.6955 18.5347 42.2819 18.1607 42.6223 17.5752C42.7607 17.337 43.5599 14.9748 44.3982 12.3259C45.2364 9.67702 46.0611 7.10196 46.2306 6.60351C46.599 5.52033 46.6255 4.8631 46.3257 4.2438C45.9416 3.4505 45.423 3.20118 42.2296 2.27445C38.69 1.24734 34.8379 0.540027 31.0257 0.217395C29.2052 0.06338 25.4233 -0.0438935 23.979 0.0176518ZM1.50893 9.54369C0.606734 9.82161 -0.106969 10.9245 0.0395434 11.8147C0.0719891 12.0122 0.48922 13.2881 0.966576 14.65L1.8346 17.1263L0.916894 19.8211C0.412161 21.3032 -0.000405272 22.6299 2.98764e-07 22.7693C0.00152119 23.2819 0.228032 23.8156 0.628432 24.25C1.33139 25.0127 1.20333 25 8.22578 25C12.3718 25 14.5597 24.9631 14.9141 24.887C15.2944 24.8055 15.5638 24.6608 15.8822 24.3673C16.5096 23.7891 16.628 23.3139 16.628 21.3753C16.628 19.9373 16.6141 19.8193 16.4506 19.8675C16.3529 19.8962 15.9837 19.9929 15.63 20.0823C15.2762 20.1718 14.3865 20.4293 13.6528 20.6547C12.9191 20.88 12.0692 21.1051 11.764 21.1548C10.112 21.4239 8.05869 20.4109 7.16491 18.8858C6.88588 18.4098 6.18546 16.3431 4.8125 11.9457L4.01322 9.38552L2.99504 9.39262C2.42318 9.39657 1.77163 9.46278 1.50893 9.54369ZM47.2011 11.9457C45.8282 16.3431 45.1277 18.4098 44.8487 18.8858C43.9515 20.4167 41.9024 21.4239 40.2365 21.1527C39.9242 21.1018 39.1497 20.899 38.5157 20.7016C37.3465 20.338 35.5045 19.8297 35.354 19.8293C35.3088 19.8291 35.286 20.6693 35.3033 21.6964L35.3349 23.5638L35.6436 24.0031C35.8134 24.2446 36.1556 24.5564 36.404 24.6958L36.8558 24.9493L43.2943 24.9816C50.4641 25.0176 50.5605 25.0107 51.2197 24.4151C51.7733 23.9149 51.9126 23.5985 51.9126 22.8414C51.9126 22.2925 51.7802 21.8086 51.0445 19.6679L50.1763 17.1421L51.0445 14.6536C51.7777 12.5519 51.9126 12.0662 51.9126 11.5291C51.9126 10.8031 51.8311 10.602 51.3194 10.0669C50.8395 9.56488 50.2222 9.38552 48.9749 9.38552H48.0004L47.2011 11.9457Z" fill="#F7D299"/>
</svg>
