<svg width="25" height="25" viewBox="0 0 25 25" fill="none" xmlns="http://www.w3.org/2000/svg">
<path fill-rule="evenodd" clip-rule="evenodd" d="M10.2561 0.485899C9.0721 0.750234 6.35788 1.35356 4.22448 1.82662C2.09108 2.29965 0.268031 2.70573 0.173272 2.72905L0.000974889 2.77141L0.000487444 12.4749L0 22.1784L0.0915506 22.2179C0.141916 22.2397 1.74583 22.6038 3.65584 23.0272C5.56585 23.4505 8.32841 24.0629 9.79484 24.3881L12.4611 24.9794H13.5214H14.5818V23.4158V21.8522L19.7909 21.8419L25 21.8316V12.4897V3.14781L19.7909 3.13749L14.5818 3.12717V1.56359V0L13.4953 0.00264019L12.4088 0.00528008L10.2561 0.485899ZM12.5003 17.6585L12.49 22.8541L7.31136 21.7039C4.4631 21.0713 2.12812 20.5534 2.12256 20.5529C2.11699 20.5525 2.1124 16.924 2.1124 12.4897C2.1124 8.05534 2.11699 4.42679 2.12256 4.42622C2.12812 4.42565 4.4631 3.90767 7.31136 3.27518L12.49 2.1252L12.5003 7.29402C12.506 10.1369 12.506 14.8009 12.5003 17.6585ZM22.9082 12.4899V19.7808L18.7552 19.7705L14.6021 19.7601V18.7244V17.6886L15.1098 17.6984C15.389 17.7038 15.8602 17.6974 16.1567 17.6841L16.6959 17.6599L16.6847 16.6385L16.6735 15.6172L15.6277 15.6063L14.5818 15.5955V15.0892V14.5828L15.6277 14.572L16.6735 14.5611L16.6837 13.6066C16.6893 13.0817 16.6843 12.611 16.6728 12.5608L16.6517 12.4694H15.6167H14.5818V11.9617V11.454H15.635H16.6882L16.6809 10.4284L16.6735 9.4028L15.6277 9.39196L14.5818 9.38111V8.85448V8.32784L15.6277 8.31699L16.6735 8.30615L16.6829 7.28057L16.6923 6.255H15.637H14.5818V5.75407C14.5818 5.47852 14.594 5.24092 14.6089 5.22605C14.6237 5.21114 16.4972 5.19896 18.7721 5.19896H22.9082V12.4899ZM17.7093 7.29073V8.32646H19.801H21.8928V7.29073V6.255H19.801H17.7093V7.29073ZM9.26844 7.45234C8.70293 7.525 8.22463 7.60059 8.20554 7.62037C8.10375 7.72581 6.98927 10.2106 6.82806 10.6914C6.7253 10.998 6.63107 11.2493 6.61876 11.2499C6.5924 11.251 6.49732 10.9325 6.02482 9.26064C5.8323 8.5793 5.67182 8.01773 5.66825 8.01273C5.66106 8.0027 3.75588 8.23072 3.54415 8.26695C3.47156 8.27938 3.41214 8.30895 3.41214 8.33275C3.41214 8.35651 3.8162 9.30155 4.31006 10.4328L5.20801 12.4897L4.17939 14.549C3.61368 15.6815 3.15934 16.616 3.16978 16.6255C3.20077 16.6537 5.3596 16.9123 5.38149 16.8904C5.41439 16.8575 6.32287 14.3032 6.42266 13.9631C6.47327 13.7906 6.52359 13.6583 6.53448 13.6692C6.54541 13.6801 6.58574 13.8127 6.62416 13.964C6.66254 14.1152 7.01607 14.9426 7.40981 15.8026L8.12565 17.3663L9.36478 17.5228C10.0463 17.6089 10.6139 17.6693 10.6261 17.6571C10.6383 17.6449 10.3113 16.9982 9.89938 16.2199C7.73857 12.137 7.90648 12.4718 7.96021 12.3537C7.98718 12.2944 8.58332 11.1466 9.28497 9.80296C9.98663 8.45931 10.5607 7.34893 10.5607 7.33549C10.5607 7.29467 10.3408 7.31457 9.26844 7.45234ZM17.7093 10.4182V11.454H19.801H21.8928V10.4182V9.38249H19.801H17.7093V10.4182ZM17.7367 12.4961C17.7216 12.5112 17.7093 12.9867 17.7093 13.5529V14.5822L19.7909 14.5717L21.8725 14.5611V13.5254V12.4897L19.8183 12.4792C18.6885 12.4734 17.7518 12.481 17.7367 12.4961ZM17.7093 16.6263V17.6565L18.4708 17.6756C19.1793 17.6935 20.3534 17.6936 21.4366 17.6758L21.8942 17.6683L21.8833 16.6428L21.8725 15.6172L19.7909 15.6067L17.7093 15.5961V16.6263Z" fill="#F3BF70"/>
</svg>
