<svg width="25" height="25" viewBox="0 0 25 25" fill="none" xmlns="http://www.w3.org/2000/svg">
<g clip-path="url(#clip0_148_3654)">
<path d="M0.380859 0.102539C0.268555 0.161133 0.15625 0.273438 0.0976562 0.390625C0.00488281 0.571289 0 0.673828 0 2.19727C0 3.7207 0.00488281 3.82324 0.0976562 4.00391C0.209961 4.22363 0.488281 4.39453 0.732422 4.39453C0.976562 4.39453 1.25488 4.22363 1.36719 4.00391C1.45508 3.82812 1.46484 3.7207 1.46484 2.63672V1.46484H2.63672C3.7207 1.46484 3.82812 1.45508 4.00391 1.36719C4.22363 1.25488 4.39453 0.976562 4.39453 0.732422C4.39453 0.488281 4.22363 0.209961 4.00391 0.0976562C3.82324 0.00488281 3.7207 0 2.1875 0C0.664062 0.00488281 0.551758 0.00976562 0.380859 0.102539Z" fill="#F7D299"/>
<path d="M20.9863 0.102539C20.7764 0.209961 20.6055 0.498047 20.6055 0.732422C20.6055 0.976562 20.7764 1.25488 20.9961 1.36719C21.1719 1.45508 21.2793 1.46484 22.3633 1.46484H23.5352V2.63672C23.5352 3.7207 23.5449 3.82812 23.6328 4.00391C23.7451 4.22363 24.0234 4.39453 24.2676 4.39453C24.5117 4.39453 24.79 4.22363 24.9023 4.00391C24.9951 3.82324 25 3.7207 25 2.19727C25 0.673828 24.9951 0.571289 24.9023 0.390625C24.8389 0.263672 24.7363 0.161133 24.6094 0.0976562C24.4287 0.00488281 24.3262 0 22.793 0C21.2695 0.00488281 21.1572 0.00976562 20.9863 0.102539Z" fill="#F7D299"/>
<path d="M11.3306 5.9812C10.5933 6.06421 10.2711 6.1228 9.45076 6.33276C6.48689 7.08472 3.42537 8.89136 0.720291 11.4744C-0.231857 12.3826 -0.23674 12.6121 0.686112 13.491C3.99178 16.6648 7.81502 18.6423 11.3795 19.0183C12.2144 19.1111 12.7906 19.1111 13.6353 19.0183C16.9215 18.6716 20.3931 16.9871 23.5377 14.2136C24.2652 13.5691 24.8121 13.0173 24.9097 12.8318C25.1148 12.4363 25.0025 12.1628 24.3824 11.572C20.2564 7.59253 15.4371 5.5271 11.3306 5.9812ZM13.6744 7.50952C14.6412 7.76343 15.4566 8.22241 16.1207 8.88159C16.7799 9.54077 17.2242 10.3318 17.4976 11.3279C17.6392 11.8601 17.6392 13.1394 17.4976 13.6716C17.2242 14.6677 16.7799 15.4587 16.1207 16.1179C15.4615 16.7771 14.6705 17.2214 13.6744 17.4949C13.1373 17.6414 11.8629 17.6365 11.316 17.49C9.36775 16.9578 8.04451 15.6296 7.51228 13.6716C7.35603 13.1101 7.36092 11.9041 7.51717 11.3083C8.04939 9.25757 9.70467 7.7439 11.7457 7.42163C12.1998 7.35327 13.2496 7.4021 13.6744 7.50952ZM6.93611 8.96948C6.2574 10.0974 5.91072 11.2986 5.91072 12.4998C5.91072 13.6521 6.2867 14.9949 6.85799 15.8884C6.95564 16.0398 7.03377 16.1716 7.03377 16.1863C7.03377 16.2742 5.774 15.571 4.90974 15.0046C3.90877 14.3455 2.42928 13.1736 1.93611 12.6511L1.78963 12.4998L1.93611 12.3484C2.39998 11.8552 3.83553 10.7126 4.78767 10.073C5.48103 9.61401 6.90682 8.78882 7.01912 8.78882C7.03377 8.78882 6.99471 8.87183 6.93611 8.96948ZM18.7965 9.20874C20.2271 10.0046 21.7506 11.1082 22.8541 12.1482L23.2203 12.49L23.0738 12.6462C22.6246 13.1296 21.1451 14.3064 20.2174 14.9265C19.3726 15.4832 18.0396 16.2449 17.9908 16.196C17.9762 16.1814 18.0445 16.0447 18.1471 15.8933C18.5084 15.3269 18.8648 14.3748 19.0064 13.5984C19.0894 13.1492 19.0846 11.8406 19.0015 11.3767C18.8697 10.6296 18.5084 9.67749 18.1471 9.11108C18.0494 8.95972 17.9713 8.823 17.9713 8.80835C17.9713 8.75952 18.108 8.823 18.7965 9.20874Z" fill="#F7D299"/>
<path d="M11.8198 9.4043C10.9409 9.58984 10.0767 10.2686 9.67627 11.084C9.21729 12.0264 9.21729 12.9736 9.67627 13.916C9.96436 14.4971 10.5063 15.0391 11.0874 15.3271C12.0298 15.7861 12.9771 15.7861 13.9194 15.3271C14.7446 14.9219 15.4185 14.0576 15.604 13.1592C15.7554 12.4463 15.6626 11.7676 15.3306 11.084C14.9253 10.2588 14.061 9.58496 13.1626 9.39941C12.7427 9.31152 12.2397 9.31152 11.8198 9.4043ZM13.2554 10.9814C13.6216 11.1621 13.8804 11.4258 14.061 11.8115C14.1685 12.041 14.188 12.1533 14.188 12.5C14.188 12.8711 14.1685 12.9541 14.0269 13.2422C13.8413 13.6182 13.5776 13.877 13.1919 14.0576C12.9624 14.165 12.8501 14.1846 12.5034 14.1846C12.1567 14.1846 12.0444 14.165 11.8198 14.0576C11.4194 13.8672 11.1606 13.6182 10.98 13.2422C10.8384 12.9541 10.8188 12.8711 10.8188 12.5C10.8188 12.1533 10.8384 12.041 10.9458 11.8164C11.3706 10.9082 12.3765 10.5469 13.2554 10.9814Z" fill="#F7D299"/>
<path d="M0.380859 20.708C0.268555 20.7666 0.15625 20.8789 0.0976562 20.9961C0.00488281 21.1768 0 21.2793 0 22.8027C0 24.3262 0.00488281 24.4287 0.0976562 24.6094C0.161133 24.7363 0.263672 24.8389 0.390625 24.9023C0.571289 24.9951 0.673828 25 2.19727 25C3.7207 25 3.82324 24.9951 4.00391 24.9023C4.22363 24.79 4.39453 24.5117 4.39453 24.2676C4.39453 24.0234 4.22363 23.7451 4.00391 23.6328C3.82812 23.5449 3.7207 23.5352 2.63672 23.5352H1.46484V22.3633C1.46484 21.2793 1.45508 21.1719 1.36719 20.9961C1.18652 20.6396 0.74707 20.5127 0.380859 20.708Z" fill="#F7D299"/>
<path d="M23.916 20.708C23.8037 20.7666 23.6914 20.8789 23.6328 20.9961C23.5449 21.1719 23.5352 21.2793 23.5352 22.3633V23.5352H22.3633C21.2793 23.5352 21.1719 23.5449 20.9961 23.6328C20.7764 23.7451 20.6055 24.0234 20.6055 24.2676C20.6055 24.5117 20.7764 24.79 20.9961 24.9023C21.1768 24.9951 21.2793 25 22.8027 25C24.3262 25 24.4287 24.9951 24.6094 24.9023C24.7363 24.8389 24.8389 24.7363 24.9023 24.6094C24.9951 24.4287 25 24.3262 25 22.8027C25 21.2793 24.9951 21.1768 24.9023 20.9961C24.7217 20.6396 24.2822 20.5127 23.916 20.708Z" fill="#F7D299"/>
</g>
<defs>
<clipPath id="clip0_148_3654">
<rect width="25" height="25" fill="white"/>
</clipPath>
</defs>
</svg>
