<svg width="32" height="34" viewBox="0 0 32 34" fill="none" xmlns="http://www.w3.org/2000/svg">
<path fill-rule="evenodd" clip-rule="evenodd" d="M24.4293 0.134889C24.2758 0.211926 24.0976 0.371752 24.015 0.506437C23.8805 0.72585 23.87 0.814908 23.87 1.74459C23.87 2.86253 23.9159 3.02946 24.2993 3.30672C24.4822 3.43901 24.6021 3.46118 25.2893 3.48955L26.0711 3.52186L24.9662 4.64045L23.8612 5.7591L23.3558 5.45483C22.4626 4.91725 21.5869 4.57414 20.4601 4.32015C19.5145 4.10707 17.7455 4.10552 16.7833 4.31705C13.9242 4.9455 11.5809 6.77021 10.2933 9.37073C8.97448 12.0344 8.99953 15.2281 10.3601 17.8889C11.6594 20.43 13.9784 22.2122 16.7833 22.8252C17.7248 23.0311 19.5043 23.0298 20.4529 22.8227C21.8994 22.5068 23.1577 21.929 24.2458 21.0808C26.2351 19.5302 27.4923 17.3237 27.858 14.7408C27.9551 14.0554 27.9024 12.4249 27.7617 11.762C27.5167 10.607 27.0713 9.45416 26.5522 8.63138L26.3126 8.25162L27.4336 7.11494L28.5547 5.97819L28.5557 6.72122C28.557 7.62298 28.6658 7.891 29.1262 8.12663C29.3797 8.25634 29.5034 8.27192 30.2732 8.27062C31.261 8.26901 31.5502 8.1826 31.8116 7.81105L31.9646 7.59345L31.9823 4.48418L32 1.37498L31.7897 0.961937C31.5624 0.515356 31.1817 0.192731 30.733 0.0663829C30.5894 0.0259256 29.376 0.000203558 27.5987 9.67351e-06C24.7843 -0.00024884 24.6907 0.00369348 24.4293 0.134889ZM9.17869 5.73235C6.75255 5.84499 4.65267 6.75968 2.90934 8.46328C-0.857637 12.1444 -0.982306 18.1619 2.6273 22.0746C3.93952 23.4969 5.60796 24.4355 7.66494 24.9083L7.84022 24.9486V26.0461V27.1435H6.85026C5.73397 27.1435 5.56137 27.1873 5.24695 27.5504C5.0015 27.8339 4.94344 28.2001 4.98436 29.2068C5.01533 29.968 5.1031 30.2112 5.43855 30.4651C5.60025 30.5875 5.72817 30.6044 6.71329 30.6334L7.80835 30.6658L7.84022 31.55C7.8747 32.5077 7.91434 32.6233 8.31066 32.9237C8.46701 33.0423 8.59333 33.0591 9.45397 33.0761C10.3575 33.0939 10.4406 33.0854 10.7084 32.9468C11.1694 32.7083 11.282 32.4103 11.282 31.4276V30.6334H12.3242C13.3002 30.6334 13.3799 30.6242 13.5772 30.488C14.0224 30.1808 14.0527 30.0874 14.0718 28.9647C14.088 28.0122 14.0804 27.9359 13.9441 27.6929C13.8495 27.5242 13.7004 27.3838 13.515 27.2889C13.2573 27.157 13.1403 27.1435 12.2564 27.1435H11.282V26.0473V24.9511L11.5529 24.8818C12.1535 24.7282 12.9317 24.4711 13.3535 24.2871C13.8446 24.0728 14.7218 23.5796 14.723 23.517C14.7234 23.4952 14.5446 23.3973 14.3254 23.2995C13.4485 22.908 12.3431 22.1831 11.6851 21.5681L11.4065 21.3077L10.914 21.4198C8.89168 21.8801 6.83744 21.3016 5.33854 19.8495C2.9509 17.5364 2.81781 13.7849 5.03395 11.261C5.92537 10.2458 7.32663 9.49598 8.74904 9.27294C8.9669 9.23882 9.00679 9.19901 9.18781 8.83541C9.59738 8.01276 10.2555 7.05723 10.9558 6.26857C11.2494 5.93786 11.2623 5.90962 11.1401 5.86328C11.0678 5.83588 10.7475 5.79807 10.4283 5.7794C10.1091 5.76065 9.77623 5.73874 9.68859 5.73067C9.60095 5.72265 9.3715 5.72336 9.17869 5.73235ZM20.0178 7.82436C20.5944 7.96403 21.4273 8.33519 21.9052 8.6655C22.3504 8.97307 23.0438 9.66427 23.3686 10.124C23.7524 10.6675 24.1271 11.5014 24.2968 12.19C24.5033 13.0282 24.4916 14.2113 24.2685 15.0625C23.9113 16.4248 23.0273 17.7022 21.9052 18.4776C20.2753 19.604 17.9919 19.8035 16.222 18.9744C14.5144 18.1744 13.2835 16.6185 12.8945 14.7683C12.7695 14.1736 12.7727 12.9599 12.9009 12.3602C13.5127 9.4983 16.0546 7.51227 18.9092 7.66596C19.2305 7.68322 19.7294 7.75457 20.0178 7.82436ZM16.4701 9.40963C16.0004 9.66259 15.6027 9.97694 15.2146 10.402C14.8788 10.7697 14.4051 11.4817 14.4051 11.6185C14.4051 11.6548 14.5096 11.84 14.6372 12.0302C14.9459 12.49 15.197 13.0561 15.3987 13.7471C15.6147 14.4867 15.6781 15.8208 15.5301 16.5122C15.4354 16.9552 15.4363 16.9677 15.5725 17.1153C15.9874 17.5648 17.0906 18.0863 17.9106 18.2206C18.642 18.3404 18.6532 18.3368 18.7612 17.9501C19.1433 16.5819 19.1847 14.7605 18.8667 13.3129C18.6333 12.2504 18.1695 11.1127 17.6107 10.2316C17.2473 9.65852 16.9312 9.24683 16.8525 9.24399C16.8139 9.24263 16.6418 9.31715 16.4701 9.40963Z" fill="#FFD588"/>
</svg>
