<svg width="18" height="19" viewBox="0 0 18 19" fill="none" xmlns="http://www.w3.org/2000/svg">
<path fill-rule="evenodd" clip-rule="evenodd" d="M7.20703 0.0478774C5.35129 0.210696 3.87475 0.940364 2.5417 2.3535C1.29528 3.67476 0.484915 5.36723 0.133294 7.38358C-0.394181 10.4087 0.675047 13.8673 2.78814 15.9706C3.58228 16.7611 4.27896 17.2181 5.23326 17.575C6.37662 18.0025 7.05086 18.077 9.32039 18.0265C11.0013 17.9889 11.4173 17.9521 12.0174 17.7872C12.9319 17.536 13.8856 17.0931 14.5812 16.5967C17.9518 14.1915 19.0204 8.65872 16.9271 4.45018C15.7913 2.16665 14.1887 0.779319 12.0617 0.238364C11.2796 0.0394526 8.53201 -0.0683836 7.20703 0.0478774ZM11.5565 0.813284C12.8651 1.10815 13.9299 1.7424 15.0033 2.86678C18.1348 6.14692 18.1513 11.728 15.0396 15.1869C13.8186 16.5442 11.9071 17.4303 10.2003 17.4303C7.3851 17.4303 4.8286 15.5232 3.65384 12.5467C2.65618 10.0189 2.75825 7.31476 3.94295 4.88188C5.45984 1.76678 8.52297 0.129996 11.5565 0.813284ZM7.27292 0.800248C7.27292 0.898329 6.72806 1.11294 6.47922 1.11294C6.05471 1.11294 6.16299 0.952602 6.62998 0.889727C6.86162 0.858511 7.09112 0.819314 7.1399 0.802553C7.18867 0.785881 7.23851 0.769032 7.25075 0.765219C7.26299 0.761405 7.27292 0.777102 7.27292 0.800248ZM6.20875 1.35983C6.20875 1.39814 6.09417 1.4971 5.95414 1.57984C5.74947 1.70072 5.59738 1.71677 5.17818 1.66178L4.65683 1.59341L4.92287 1.4454C5.19406 1.29456 6.20875 1.22707 6.20875 1.35983ZM5.31404 1.96658C5.334 1.98423 5.27795 2.07867 5.18945 2.17658C5.01811 2.36582 4.80537 2.38968 4.12208 2.29603L3.69561 2.23759L3.95456 2.02928C4.18487 1.84394 4.27222 1.82717 4.74551 1.87772C5.03816 1.90903 5.294 1.94902 5.31404 1.96658ZM4.54802 2.61307C4.69727 2.62016 4.69753 2.63231 4.55298 2.85286C4.40426 3.07988 4.3852 3.08387 3.73251 3.02472C3.36501 2.99138 3.04665 2.94651 3.0251 2.92505C3.00355 2.9035 3.07219 2.79406 3.17754 2.68188C3.35109 2.49725 3.41751 2.48395 3.87998 2.54177C4.16092 2.5768 4.46155 2.6089 4.54802 2.61307ZM3.61483 3.28926C4.12279 3.35187 4.16633 3.40206 3.91182 3.63246C3.76425 3.76592 3.66325 3.7739 3.10491 3.69657C2.75391 3.64789 2.44423 3.58572 2.41683 3.55823C2.38943 3.53083 2.44078 3.4268 2.53105 3.32713C2.64324 3.20315 2.76677 3.15943 2.92214 3.18887C3.04709 3.21255 3.35871 3.25769 3.61483 3.28926ZM3.39002 4.01228C3.62697 4.05954 3.62857 4.06451 3.49307 4.32647C3.35659 4.59057 3.35118 4.59216 2.80898 4.53097C2.50835 4.49701 2.15327 4.44752 2.0199 4.42092L1.77744 4.3725L1.93121 4.10912C2.08215 3.85079 2.09527 3.84689 2.61716 3.90497C2.90981 3.93761 3.25762 3.98594 3.39002 4.01228ZM2.52733 4.76004C3.15085 4.85271 3.19448 4.87319 3.14215 5.04825C3.0204 5.45574 2.91664 5.48766 2.09368 5.37087C1.67439 5.31137 1.33129 5.24485 1.33129 5.22304C1.33129 5.20131 1.39221 5.06572 1.46661 4.92179C1.6203 4.62462 1.61861 4.62489 2.52733 4.76004ZM2.22315 5.64871C2.85332 5.75273 2.93287 5.82793 2.72021 6.11881C2.61007 6.26939 2.54808 6.2732 1.85637 6.1721C1.44648 6.11216 1.08236 6.04529 1.04724 6.02356C1.01204 6.00184 1.02809 5.88575 1.0828 5.7655C1.19756 5.51365 1.32597 5.50052 2.22315 5.64871ZM1.90408 6.44462C2.49673 6.53277 2.57265 6.56549 2.57149 6.73284C2.56874 7.11 2.48955 7.13199 1.64167 6.99099C1.2027 6.918 0.817824 6.8326 0.786253 6.80121C0.754771 6.76981 0.763462 6.65435 0.805586 6.54465C0.893646 6.31532 0.981263 6.30734 1.90408 6.44462ZM1.73035 7.26111C2.34527 7.36699 2.35139 7.37081 2.37976 7.66576C2.40788 7.95832 2.40318 7.96266 2.11372 7.91141C1.95161 7.88276 1.54962 7.81386 1.22044 7.75825C0.642412 7.66062 0.621838 7.64829 0.621838 7.40016C0.621838 7.09962 0.720895 7.0872 1.73035 7.26111ZM5.5338 7.31219C4.56974 7.89997 4.41491 9.64849 5.25117 10.5038C5.7594 11.0237 6.39888 11.1116 6.95012 10.7375C7.25625 10.5298 7.27292 10.5275 7.27292 10.6932C7.27292 10.8281 7.3334 10.8679 7.53896 10.8679H7.80501V9.84802V8.82819H7.1399H6.47479V9.18292C6.47479 9.51795 6.4896 9.53764 6.74083 9.53764C7.02222 9.53764 7.06346 9.621 6.91713 9.8944C6.81674 10.082 6.32288 10.2066 6.03812 10.1162C5.46516 9.93431 5.42685 8.21292 5.99103 7.99645C6.28076 7.88533 6.57695 7.94679 6.79324 8.16308C6.955 8.32484 7.10984 8.38479 7.36559 8.38479C7.55847 8.38479 7.71633 8.34328 7.71633 8.29256C7.71633 8.06128 7.32719 7.47439 7.06984 7.31751C6.68825 7.08481 5.91096 7.08215 5.5338 7.31219ZM9.17956 7.31006C8.5227 7.61166 8.24735 8.13302 8.25036 9.06923C8.25391 10.1621 8.72498 10.7761 9.61481 10.8475C10.3662 10.9077 10.9229 10.4142 11.0862 9.54305C11.2904 8.45413 10.8328 7.46445 10.0169 7.23042C9.61987 7.11656 9.59592 7.11886 9.17956 7.31006ZM11.6183 9.02542V10.7792H12.5938H13.5693V10.3801V9.98105H12.9485H12.3277V8.66014V7.33924L11.973 7.30545L11.6183 7.27157V9.02542ZM13.924 8.99243V10.6905H14.719C15.4788 10.6905 15.5277 10.6785 15.8221 10.42C16.1995 10.0887 16.3392 9.69141 16.335 8.96166C16.3312 8.29247 16.0861 7.74318 15.7031 7.54515C15.5608 7.47155 15.1022 7.385 14.6842 7.35289L13.924 7.29445V8.99243ZM1.50865 8.0744C1.92323 8.14739 2.27237 8.20725 2.28461 8.20734C2.29685 8.20734 2.30678 8.34789 2.30678 8.51949C2.30678 8.79706 2.2847 8.82668 2.10725 8.78758C1.99746 8.76337 1.64832 8.70067 1.33129 8.64826C0.468154 8.50557 0.470282 8.50672 0.514357 8.20636C0.559584 7.89828 0.530674 7.90209 1.50865 8.0744ZM10.1982 8.16823C10.4107 8.38071 10.3853 9.63803 10.1635 9.88305C9.93442 10.1361 9.48684 10.1299 9.25086 9.87019C8.88576 9.46838 8.93108 8.41006 9.32704 8.0893C9.55415 7.90529 9.97326 7.94324 10.1982 8.16823ZM15.2946 8.17381C15.5015 8.25318 15.6976 8.67956 15.6976 9.04989C15.6976 9.42023 15.5015 9.84661 15.2946 9.92597C15.2156 9.95621 15.0346 9.98105 14.8922 9.98105H14.6334V9.04989V8.11874H14.8922C15.0346 8.11874 15.2156 8.14357 15.2946 8.17381ZM1.37563 8.91687C2.31955 9.08661 2.30678 9.08111 2.30678 9.31762C2.30678 9.58154 2.27441 9.58384 1.23312 9.39336C0.455739 9.25111 0.444476 9.24535 0.444476 8.99261C0.444476 8.77312 0.473298 8.74226 0.644009 8.77871C0.753796 8.80203 1.08298 8.86428 1.37563 8.91687ZM1.3437 9.6751C2.38278 9.8678 2.39546 9.87321 2.39546 10.1297C2.39546 10.3187 2.36327 10.3471 2.19593 10.3062C2.08614 10.2794 1.71705 10.2102 1.37563 10.1525C0.625031 10.0256 0.444476 9.94016 0.444476 9.7119C0.444476 9.50261 0.418759 9.50359 1.3437 9.6751ZM1.65426 10.4714C2.44663 10.6134 2.46614 10.6228 2.51952 10.8895C2.5495 11.0395 2.55819 11.1781 2.53877 11.1975C2.45887 11.2774 0.6856 10.8825 0.613502 10.7688C0.570847 10.7013 0.535286 10.5537 0.534488 10.4407C0.533512 10.2865 0.571911 10.2465 0.688349 10.2805C0.77366 10.3055 1.20838 10.3914 1.65426 10.4714ZM2.35112 11.4769C2.58045 11.534 2.92719 11.9636 2.82477 12.0637C2.80809 12.0799 2.36407 12.0071 1.83792 11.9017C0.895331 11.7129 0.714865 11.6165 0.71185 11.2997C0.710608 11.1676 0.769404 11.1662 1.3978 11.2829C1.77585 11.3531 2.2048 11.4405 2.35112 11.4769ZM2.04482 12.2118C2.83479 12.38 2.95247 12.4294 3.02616 12.6232C3.07219 12.7443 3.09143 12.8619 3.06882 12.8846C3.01064 12.9426 1.21955 12.5485 1.09699 12.4505C0.936479 12.3223 0.886551 12.0207 1.02587 12.0207C1.09256 12.0207 1.55113 12.1067 2.04482 12.2118ZM2.19744 13.0017C3.36217 13.2483 3.33051 13.236 3.44615 13.4898C3.50238 13.6132 3.54831 13.7321 3.54831 13.7542C3.54831 13.8285 3.29353 13.7953 2.39431 13.6038C1.59228 13.433 1.4863 13.3876 1.3711 13.1648C1.15729 12.7514 1.08396 12.7658 2.19744 13.0017ZM3.96565 14.3964C4.07322 14.5248 4.14611 14.645 4.12767 14.6634C4.05956 14.7315 1.99781 14.2235 1.92891 14.1217C1.65169 13.712 1.63804 13.7151 2.73032 13.9446C3.59806 14.1268 3.80239 14.2016 3.96565 14.3964ZM3.42806 14.8198C4.18753 14.9959 4.46475 15.1005 4.62526 15.2719L4.83419 15.495L4.52381 15.4358C3.25318 15.1936 2.53886 14.9745 2.41586 14.7893C2.25304 14.544 2.23548 14.5435 3.42806 14.8198ZM4.1501 15.6228C5.02246 15.8179 5.23157 15.8979 5.45496 16.1227C5.60128 16.2698 5.66114 16.3701 5.58798 16.3454C5.51482 16.3208 4.99027 16.1927 4.42236 16.0608C3.63921 15.879 3.3408 15.769 3.18747 15.6058C3.07627 15.4874 3.01366 15.3906 3.04833 15.3906C3.083 15.3906 3.57882 15.4951 4.1501 15.6228ZM5.24354 16.5046C6.06003 16.6884 7.00688 17.0612 7.00688 17.199C7.00688 17.2141 6.51736 17.1225 5.91903 16.9957C5.20913 16.8453 4.69292 16.6816 4.43362 16.5247C4.21493 16.3925 4.08058 16.2827 4.13503 16.2809C4.18939 16.279 4.68822 16.3797 5.24354 16.5046Z" fill="#FD9149"/>
<path fill-rule="evenodd" clip-rule="evenodd" d="M7.20703 0.0478774C5.35129 0.210696 3.87475 0.940364 2.5417 2.3535C1.29528 3.67476 0.484915 5.36723 0.133294 7.38358C-0.394181 10.4087 0.675047 13.8673 2.78814 15.9706C3.58228 16.7611 4.27896 17.2181 5.23326 17.575C6.37662 18.0025 7.05086 18.077 9.32039 18.0265C11.0013 17.9889 11.4173 17.9521 12.0174 17.7872C12.9319 17.536 13.8856 17.0931 14.5812 16.5967C17.9518 14.1915 19.0204 8.65872 16.9271 4.45018C15.7913 2.16665 14.1887 0.779319 12.0617 0.238364C11.2796 0.0394526 8.53201 -0.0683836 7.20703 0.0478774ZM11.5565 0.813284C12.8651 1.10815 13.9299 1.7424 15.0033 2.86678C18.1348 6.14692 18.1513 11.728 15.0396 15.1869C13.8186 16.5442 11.9071 17.4303 10.2003 17.4303C7.3851 17.4303 4.8286 15.5232 3.65384 12.5467C2.65618 10.0189 2.75825 7.31476 3.94295 4.88188C5.45984 1.76678 8.52297 0.129996 11.5565 0.813284ZM7.27292 0.800248C7.27292 0.898329 6.72806 1.11294 6.47922 1.11294C6.05471 1.11294 6.16299 0.952602 6.62998 0.889727C6.86162 0.858511 7.09112 0.819314 7.1399 0.802553C7.18867 0.785881 7.23851 0.769032 7.25075 0.765219C7.26299 0.761405 7.27292 0.777102 7.27292 0.800248ZM6.20875 1.35983C6.20875 1.39814 6.09417 1.4971 5.95414 1.57984C5.74947 1.70072 5.59738 1.71677 5.17818 1.66178L4.65683 1.59341L4.92287 1.4454C5.19406 1.29456 6.20875 1.22707 6.20875 1.35983ZM5.31404 1.96658C5.334 1.98423 5.27795 2.07867 5.18945 2.17658C5.01811 2.36582 4.80537 2.38968 4.12208 2.29603L3.69561 2.23759L3.95456 2.02928C4.18487 1.84394 4.27222 1.82717 4.74551 1.87772C5.03816 1.90903 5.294 1.94902 5.31404 1.96658ZM4.54802 2.61307C4.69727 2.62016 4.69753 2.63231 4.55298 2.85286C4.40426 3.07988 4.3852 3.08387 3.73251 3.02472C3.36501 2.99138 3.04665 2.94651 3.0251 2.92505C3.00355 2.9035 3.07219 2.79406 3.17754 2.68188C3.35109 2.49725 3.41751 2.48395 3.87998 2.54177C4.16092 2.5768 4.46155 2.6089 4.54802 2.61307ZM3.61483 3.28926C4.12279 3.35187 4.16633 3.40206 3.91182 3.63246C3.76425 3.76592 3.66325 3.7739 3.10491 3.69657C2.75391 3.64789 2.44423 3.58572 2.41683 3.55823C2.38943 3.53083 2.44078 3.4268 2.53105 3.32713C2.64324 3.20315 2.76677 3.15943 2.92214 3.18887C3.04709 3.21255 3.35871 3.25769 3.61483 3.28926ZM3.39002 4.01228C3.62697 4.05954 3.62857 4.06451 3.49307 4.32647C3.35659 4.59057 3.35118 4.59216 2.80898 4.53097C2.50835 4.49701 2.15327 4.44752 2.0199 4.42092L1.77744 4.3725L1.93121 4.10912C2.08215 3.85079 2.09527 3.84689 2.61716 3.90497C2.90981 3.93761 3.25762 3.98594 3.39002 4.01228ZM2.52733 4.76004C3.15085 4.85271 3.19448 4.87319 3.14215 5.04825C3.0204 5.45574 2.91664 5.48766 2.09368 5.37087C1.67439 5.31137 1.33129 5.24485 1.33129 5.22304C1.33129 5.20131 1.39221 5.06572 1.46661 4.92179C1.6203 4.62462 1.61861 4.62489 2.52733 4.76004ZM2.22315 5.64871C2.85332 5.75273 2.93287 5.82793 2.72021 6.11881C2.61007 6.26939 2.54808 6.2732 1.85637 6.1721C1.44648 6.11216 1.08236 6.04529 1.04724 6.02356C1.01204 6.00184 1.02809 5.88575 1.0828 5.7655C1.19756 5.51365 1.32597 5.50052 2.22315 5.64871ZM1.90408 6.44462C2.49673 6.53277 2.57265 6.56549 2.57149 6.73284C2.56874 7.11 2.48955 7.13199 1.64167 6.99099C1.2027 6.918 0.817824 6.8326 0.786253 6.80121C0.754771 6.76981 0.763462 6.65435 0.805586 6.54465C0.893646 6.31532 0.981263 6.30734 1.90408 6.44462ZM1.73035 7.26111C2.34527 7.36699 2.35139 7.37081 2.37976 7.66576C2.40788 7.95832 2.40318 7.96266 2.11372 7.91141C1.95161 7.88276 1.54962 7.81386 1.22044 7.75825C0.642412 7.66062 0.621838 7.64829 0.621838 7.40016C0.621838 7.09962 0.720895 7.0872 1.73035 7.26111ZM5.5338 7.31219C4.56974 7.89997 4.41491 9.64849 5.25117 10.5038C5.7594 11.0237 6.39888 11.1116 6.95012 10.7375C7.25625 10.5298 7.27292 10.5275 7.27292 10.6932C7.27292 10.8281 7.3334 10.8679 7.53896 10.8679H7.80501V9.84802V8.82819H7.1399H6.47479V9.18292C6.47479 9.51795 6.4896 9.53764 6.74083 9.53764C7.02222 9.53764 7.06346 9.621 6.91713 9.8944C6.81674 10.082 6.32288 10.2066 6.03812 10.1162C5.46516 9.93431 5.42685 8.21292 5.99103 7.99645C6.28076 7.88533 6.57695 7.94679 6.79324 8.16308C6.955 8.32484 7.10984 8.38479 7.36559 8.38479C7.55847 8.38479 7.71633 8.34328 7.71633 8.29256C7.71633 8.06128 7.32719 7.47439 7.06984 7.31751C6.68825 7.08481 5.91096 7.08215 5.5338 7.31219ZM9.17956 7.31006C8.5227 7.61166 8.24735 8.13302 8.25036 9.06923C8.25391 10.1621 8.72498 10.7761 9.61481 10.8475C10.3662 10.9077 10.9229 10.4142 11.0862 9.54305C11.2904 8.45413 10.8328 7.46445 10.0169 7.23042C9.61987 7.11656 9.59592 7.11886 9.17956 7.31006ZM11.6183 9.02542V10.7792H12.5938H13.5693V10.3801V9.98105H12.9485H12.3277V8.66014V7.33924L11.973 7.30545L11.6183 7.27157V9.02542ZM13.924 8.99243V10.6905H14.719C15.4788 10.6905 15.5277 10.6785 15.8221 10.42C16.1995 10.0887 16.3392 9.69141 16.335 8.96166C16.3312 8.29247 16.0861 7.74318 15.7031 7.54515C15.5608 7.47155 15.1022 7.385 14.6842 7.35289L13.924 7.29445V8.99243ZM1.50865 8.0744C1.92323 8.14739 2.27237 8.20725 2.28461 8.20734C2.29685 8.20734 2.30678 8.34789 2.30678 8.51949C2.30678 8.79706 2.2847 8.82668 2.10725 8.78758C1.99746 8.76337 1.64832 8.70067 1.33129 8.64826C0.468154 8.50557 0.470282 8.50672 0.514357 8.20636C0.559584 7.89828 0.530674 7.90209 1.50865 8.0744ZM10.1982 8.16823C10.4107 8.38071 10.3853 9.63803 10.1635 9.88305C9.93442 10.1361 9.48684 10.1299 9.25086 9.87019C8.88576 9.46838 8.93108 8.41006 9.32704 8.0893C9.55415 7.90529 9.97326 7.94324 10.1982 8.16823ZM15.2946 8.17381C15.5015 8.25318 15.6976 8.67956 15.6976 9.04989C15.6976 9.42023 15.5015 9.84661 15.2946 9.92597C15.2156 9.95621 15.0346 9.98105 14.8922 9.98105H14.6334V9.04989V8.11874H14.8922C15.0346 8.11874 15.2156 8.14357 15.2946 8.17381ZM1.37563 8.91687C2.31955 9.08661 2.30678 9.08111 2.30678 9.31762C2.30678 9.58154 2.27441 9.58384 1.23312 9.39336C0.455739 9.25111 0.444476 9.24535 0.444476 8.99261C0.444476 8.77312 0.473298 8.74226 0.644009 8.77871C0.753796 8.80203 1.08298 8.86428 1.37563 8.91687ZM1.3437 9.6751C2.38278 9.8678 2.39546 9.87321 2.39546 10.1297C2.39546 10.3187 2.36327 10.3471 2.19593 10.3062C2.08614 10.2794 1.71705 10.2102 1.37563 10.1525C0.625031 10.0256 0.444476 9.94016 0.444476 9.7119C0.444476 9.50261 0.418759 9.50359 1.3437 9.6751ZM1.65426 10.4714C2.44663 10.6134 2.46614 10.6228 2.51952 10.8895C2.5495 11.0395 2.55819 11.1781 2.53877 11.1975C2.45887 11.2774 0.6856 10.8825 0.613502 10.7688C0.570847 10.7013 0.535286 10.5537 0.534488 10.4407C0.533512 10.2865 0.571911 10.2465 0.688349 10.2805C0.77366 10.3055 1.20838 10.3914 1.65426 10.4714ZM2.35112 11.4769C2.58045 11.534 2.92719 11.9636 2.82477 12.0637C2.80809 12.0799 2.36407 12.0071 1.83792 11.9017C0.895331 11.7129 0.714865 11.6165 0.71185 11.2997C0.710608 11.1676 0.769404 11.1662 1.3978 11.2829C1.77585 11.3531 2.2048 11.4405 2.35112 11.4769ZM2.04482 12.2118C2.83479 12.38 2.95247 12.4294 3.02616 12.6232C3.07219 12.7443 3.09143 12.8619 3.06882 12.8846C3.01064 12.9426 1.21955 12.5485 1.09699 12.4505C0.936479 12.3223 0.886551 12.0207 1.02587 12.0207C1.09256 12.0207 1.55113 12.1067 2.04482 12.2118ZM2.19744 13.0017C3.36217 13.2483 3.33051 13.236 3.44615 13.4898C3.50238 13.6132 3.54831 13.7321 3.54831 13.7542C3.54831 13.8285 3.29353 13.7953 2.39431 13.6038C1.59228 13.433 1.4863 13.3876 1.3711 13.1648C1.15729 12.7514 1.08396 12.7658 2.19744 13.0017ZM3.96565 14.3964C4.07322 14.5248 4.14611 14.645 4.12767 14.6634C4.05956 14.7315 1.99781 14.2235 1.92891 14.1217C1.65169 13.712 1.63804 13.7151 2.73032 13.9446C3.59806 14.1268 3.80239 14.2016 3.96565 14.3964ZM3.42806 14.8198C4.18753 14.9959 4.46475 15.1005 4.62526 15.2719L4.83419 15.495L4.52381 15.4358C3.25318 15.1936 2.53886 14.9745 2.41586 14.7893C2.25304 14.544 2.23548 14.5435 3.42806 14.8198ZM4.1501 15.6228C5.02246 15.8179 5.23157 15.8979 5.45496 16.1227C5.60128 16.2698 5.66114 16.3701 5.58798 16.3454C5.51482 16.3208 4.99027 16.1927 4.42236 16.0608C3.63921 15.879 3.3408 15.769 3.18747 15.6058C3.07627 15.4874 3.01366 15.3906 3.04833 15.3906C3.083 15.3906 3.57882 15.4951 4.1501 15.6228ZM5.24354 16.5046C6.06003 16.6884 7.00688 17.0612 7.00688 17.199C7.00688 17.2141 6.51736 17.1225 5.91903 16.9957C5.20913 16.8453 4.69292 16.6816 4.43362 16.5247C4.21493 16.3925 4.08058 16.2827 4.13503 16.2809C4.18939 16.279 4.68822 16.3797 5.24354 16.5046Z" fill="url(#paint0_linear_5363_20)"/>
<defs>
<linearGradient id="paint0_linear_5363_20" x1="9" y1="0" x2="9" y2="18.0403" gradientUnits="userSpaceOnUse">
<stop stop-color="#FFD588"/>
<stop offset="1" stop-color="#FFD588" stop-opacity="0"/>
</linearGradient>
</defs>
</svg>
