<svg width="85" height="79" viewBox="0 0 85 79" fill="none" xmlns="http://www.w3.org/2000/svg">
<path d="M33.5898 1.52947C33.1908 2.40613 32.5257 3.45066 32.0435 4.01023C31.5447 4.55115 30.6136 5.29725 29.8322 5.74491C29.0839 6.19256 28.4688 6.58426 28.4688 6.62157C28.4688 6.65887 29.0839 7.05057 29.8322 7.49823C31.578 8.50546 32.692 9.75517 33.5898 11.7137C33.9889 12.553 34.338 13.2432 34.3713 13.2432C34.4045 13.2432 34.7537 12.553 35.1528 11.7137C36.0506 9.75517 37.1646 8.50546 38.9104 7.49823C39.6586 7.05057 40.2738 6.65887 40.2738 6.62157C40.2738 6.58426 39.6586 6.19256 38.9104 5.74491C37.1646 4.73768 36.0506 3.48797 35.1528 1.52947C34.7537 0.690111 34.4045 -2.67029e-05 34.3713 -2.67029e-05C34.338 -2.67029e-05 33.9889 0.690111 33.5898 1.52947Z" fill="#FFD588"/>
<path d="M78.5489 15.3506C77.8838 16.6749 76.7865 17.8686 75.606 18.5961L74.6416 19.1743L75.5228 19.6779C76.7366 20.3681 77.8672 21.6178 78.5157 22.9607L79.0643 24.1172L79.5798 23.0353C80.2116 21.6924 81.2258 20.5359 82.4396 19.7525L83.3707 19.1743L82.3066 18.4655C81.0429 17.6075 80.3945 16.8614 79.6297 15.4252L79.0477 14.362L78.5489 15.3506Z" fill="#FFD588"/>
<path d="M37.0481 31.7276L28.2524 38.7969H32.6918H37.1312L45.561 32.0447C50.1999 28.3329 54.1737 25.1433 54.3899 24.9568C54.7723 24.6211 54.6725 24.6211 50.3163 24.6397L45.8437 24.6584L37.0481 31.7276Z" fill="#FFD588"/>
<path d="M50.2498 32.6789C45.3449 36.6146 40.9554 40.1399 40.4732 40.5316L39.6086 41.2217L41.2713 44.9708C42.5017 47.6941 43.0005 48.664 43.1502 48.5334C43.2666 48.4402 47.6727 44.9149 52.96 40.6808C58.2307 36.4653 62.5537 32.9214 62.5537 32.8095C62.5537 32.5297 59.4112 25.5537 59.2616 25.5537C59.1951 25.5537 55.1381 28.7619 50.2498 32.6789Z" fill="#FFD588"/>
<path d="M6.72079 33.2568C6.05572 34.5811 4.95834 35.7749 3.77784 36.5023L2.81348 37.0806L3.6947 37.5842C4.90846 38.2743 6.03909 39.524 6.68754 40.867L7.23622 42.0234L7.75166 40.9416C8.38348 39.5986 9.39772 38.4422 10.6115 37.6588L11.5426 37.0806L10.4785 36.3718C9.21482 35.5138 8.56637 34.7677 7.80154 33.3314L7.2196 32.2682L6.72079 33.2568Z" fill="#FFD588"/>
<path d="M54.0407 44.1687C49.2189 48.0484 45.2783 51.2566 45.2617 51.3312C45.2617 51.4245 46.2593 51.4805 47.4897 51.4805H49.7177L58.5133 44.4672C63.3351 40.6061 67.3588 37.3606 67.4586 37.286C67.5417 37.1927 66.5607 37.1181 65.214 37.1368L62.8031 37.1554L54.0407 44.1687Z" fill="#FFD588"/>
<path d="M62.3874 45.7166C57.1333 49.9134 52.7272 53.476 52.6108 53.6066C52.4279 53.8118 52.6773 54.4832 54.0241 57.5236C54.9219 59.538 55.7366 61.1421 55.8364 61.1048C56.0858 60.9929 74.7079 46.0897 75.0737 45.698C75.373 45.3995 75.3231 45.2317 73.7435 41.725C72.8457 39.6919 72.0808 38.0505 72.031 38.0505C71.9811 38.0505 67.6415 41.5012 62.3874 45.7166Z" fill="#FFD588"/>
<path d="M23.3309 45.9407C22.7656 47.806 22.3167 49.3914 22.3167 49.4847C22.3167 49.5593 26.2406 49.6152 31.0458 49.6152H39.7749L38.1953 46.0713L36.6158 42.5273H30.4804H24.3451L23.3309 45.9407Z" fill="#FFD588"/>
<path d="M30.4306 53.4203C30.2644 53.5509 30.1313 53.756 30.1313 53.8866C30.1313 54.1477 32.3427 59.1279 32.4591 59.1279C32.509 59.1279 32.908 57.8969 33.357 56.3674C33.8059 54.8565 34.2049 53.5136 34.2382 53.383C34.3546 53.0473 30.8297 53.0846 30.4306 53.4203Z" fill="#FFD588"/>
<path d="M63.5014 59.4077L55.72 65.6562H54.0075H52.2949L51.264 66.5329L50.2332 67.4282L54.8055 67.4842L59.3779 67.5215L68.1569 60.5082C72.9787 56.6471 77.0024 53.4016 77.1022 53.327C77.1853 53.2338 75.9217 53.1592 74.2756 53.1592L71.2828 53.1778L63.5014 59.4077Z" fill="#FFD588"/>
<path d="M71.9479 61.8327C66.6439 66.0854 62.2378 69.6667 62.1547 69.8159C62.0715 69.9651 62.5703 71.2894 63.6511 73.7143L65.2971 77.3701L73.7768 70.5807C78.449 66.8502 82.8717 63.2876 83.6366 62.672L85 61.5529L83.3373 57.8224C82.4228 55.7707 81.658 54.0919 81.6247 54.0919C81.6081 54.0919 77.2519 57.5799 71.9479 61.8327Z" fill="#FFD588"/>
<path d="M13.7704 58.3259C13.2384 60.1538 12.7562 61.7579 12.723 61.8698C12.6564 62.0563 14.4521 62.1123 21.3856 62.1123C26.1907 62.1123 30.1313 62.075 30.1313 62.019C30.1313 61.9631 29.433 60.3776 28.6016 58.4751L27.0553 55.0244H20.9034H14.7514L13.7704 58.3259Z" fill="#FFD588"/>
<path d="M37.0315 55.2482C36.9816 55.3788 36.4994 56.9829 35.9673 58.7922L34.9697 62.1123H43.6988C48.4874 62.1123 52.4113 62.075 52.4113 62.019C52.4113 61.9631 51.713 60.3776 50.8816 58.4751L49.3353 55.0244H43.2167C38.478 55.0244 37.0813 55.0804 37.0315 55.2482Z" fill="#FFD588"/>
<path d="M7.50213 66.1599L5.93921 67.4282L10.3121 67.4842L14.6849 67.5215L15.7989 66.6448L16.9129 65.7495L13.3049 65.6562C10.1957 65.5816 9.66363 65.5257 9.3976 65.2272C9.08169 64.9102 9.01518 64.9475 7.50213 66.1599Z" fill="#FFD588"/>
<path d="M19.9557 67.6706C18.6089 68.7711 17.4616 69.7224 17.4117 69.7783C17.3619 69.853 17.844 71.1027 18.5091 72.5762C19.1742 74.0497 19.7395 75.1689 19.7728 75.0756C19.8226 74.9637 20.3048 73.3783 20.8701 71.5317L21.901 68.1742L22.9817 67.2789C23.5803 66.794 24.2454 66.2344 24.4782 66.0292L24.8938 65.6748H23.6468L22.3998 65.6935L19.9557 67.6706Z" fill="#FFD588"/>
<path d="M29.3332 66.5516L28.269 67.4282L32.6419 67.4842L36.9981 67.5215L37.896 66.8313C39.4922 65.6003 39.6252 65.6562 34.7701 65.6749H30.3807L29.3332 66.5516Z" fill="#FFD588"/>
<path d="M42.2855 67.7081C40.8722 68.8459 39.6917 69.7972 39.6419 69.8345C39.6086 69.8718 40.1407 71.1401 40.8224 72.6696L42.0528 75.4302L43.0836 71.9422C43.6656 70.021 44.2475 68.305 44.3971 68.1184C44.5468 67.9133 45.1786 67.3164 45.8104 66.7941C46.4256 66.2532 46.9244 65.7682 46.9244 65.7309C46.9244 65.6936 46.4589 65.6563 45.8769 65.6563H44.8461L42.2855 67.7081Z" fill="#FFD588"/>
<path d="M1.94878 71.2892C1.36684 73.0426 -0.0796961 78.1533 0.00343827 78.2279C0.0533189 78.2839 3.97726 78.3398 8.71592 78.3398C15.4997 78.3398 17.3286 78.2839 17.3286 78.0974C17.312 77.9854 16.6303 76.3627 15.7823 74.5161L14.2527 71.1587L8.13398 71.1027C3.32881 71.0654 1.99866 71.1027 1.94878 71.2892Z" fill="#FFD588"/>
<path d="M23.3309 74.4788C22.7656 76.344 22.3167 77.9854 22.3167 78.116C22.3167 78.2839 24.1622 78.3398 30.9626 78.3398C36.5825 78.3398 39.6086 78.2839 39.6086 78.1533C39.6086 78.0601 38.9103 76.4186 38.0789 74.5161L36.5326 71.0654H30.4306H24.3451L23.3309 74.4788Z" fill="#FFD588"/>
<path d="M46.675 71.2519C46.542 71.4944 44.5967 77.9854 44.5967 78.1906C44.5967 78.2652 48.5206 78.3398 53.3258 78.3398C58.131 78.3398 62.0549 78.3025 62.0549 78.2466C62.0549 78.1906 61.3399 76.5492 60.4753 74.6094L58.8958 71.0654H52.8436C48.7867 71.0654 46.7415 71.1214 46.675 71.2519Z" fill="#FFD588"/>
</svg>
