<svg width="26" height="14" viewBox="0 0 26 14" fill="none" xmlns="http://www.w3.org/2000/svg">
<path fill-rule="evenodd" clip-rule="evenodd" d="M11.6455 6.59138L2.64675 12.7174L3.55584 13.3356L4.46493 13.9538L13.4637 7.82776L22.4625 1.70172L21.5534 1.08353L20.6443 0.465332L11.6455 6.59138ZM11.558 2.02651C10.3823 2.08087 8.98938 2.28124 7.84669 2.56034C4.63804 3.34413 1.98076 4.87423 0.314222 6.89769L0.0546875 7.21282L0.312778 7.5247C1.15097 8.53736 2.45412 9.59554 3.6924 10.2689L4.11409 10.4982L5.86994 9.30292L7.62574 8.10764L7.55106 7.84203C7.44781 7.47454 7.45632 6.89048 7.57043 6.51403C8.05983 4.89989 10.1311 3.75257 12.5557 3.75257C12.8515 3.75257 13.2689 3.77541 13.4834 3.80334L13.8733 3.85414L14.9813 3.10038C15.5908 2.68581 16.0894 2.33747 16.0894 2.32628C16.0894 2.29931 15.2389 2.17187 14.6456 2.10995C13.6188 2.00278 12.6421 1.97638 11.558 2.02651ZM19.2342 5.11958L17.4835 6.3117L17.5581 6.57721C17.6554 6.92332 17.6535 7.51667 17.554 7.84647C17.3312 8.58468 16.9043 9.13 16.1406 9.65184C15.3691 10.179 14.467 10.4988 13.3794 10.6307C12.9544 10.6823 12.0791 10.6748 11.6258 10.6158L11.2359 10.565L10.1279 11.3188C9.51841 11.7333 9.0198 12.0817 9.0198 12.0929C9.0198 12.1041 9.23821 12.1466 9.50521 12.1874C13.2125 12.7538 17.1405 12.2621 20.2779 10.839C21.1951 10.4229 21.6778 10.1533 22.4646 9.61768C23.4405 8.95332 24.2267 8.24891 24.8218 7.50572L25.0558 7.21347L24.948 7.0696C24.1788 6.04324 22.5955 4.76127 21.2131 4.04563L20.9849 3.92745L19.2342 5.11958Z" fill="#F7D299"/>
</svg>
