<svg width="23" height="23" viewBox="0 0 23 23" fill="none" xmlns="http://www.w3.org/2000/svg">
<path fill-rule="evenodd" clip-rule="evenodd" d="M13.2512 0.0512193C12.6167 0.222712 12.1657 0.473552 11.6874 0.921072C11.1156 1.45592 10.7882 2.05497 10.6258 2.8634C10.2409 4.77971 11.9523 7.51868 15.3482 10.4221C16.1294 11.0899 16.6065 11.4271 16.7703 11.4271C17.107 11.4271 18.2081 10.5269 19.7061 9.02721C21.0552 7.67666 21.811 6.72419 22.3615 5.68089C23.3498 3.80778 23.1873 2.14435 21.898 0.938375C21.1422 0.231415 20.6026 0.0193779 19.5478 0.0149754C18.8014 0.0118015 18.5959 0.0513217 18.1049 0.292538C17.7899 0.44724 17.368 0.733198 17.1675 0.928034L16.8027 1.28228L16.4091 0.910936C15.8439 0.377824 15.0819 0.0592052 14.2535 0.00975383C13.8712 -0.0130778 13.4201 0.00555609 13.2512 0.0512193ZM15.2628 1.25802C15.6271 1.45633 15.9027 1.71782 16.1844 2.13268C16.6341 2.7948 16.8747 2.87496 17.1626 2.45836C17.9378 1.33706 18.553 0.94718 19.5478 0.946668C20.2908 0.946361 20.7222 1.11867 21.2717 1.6353C22.8278 3.09837 22.0955 5.3076 19.0419 8.36192C18.4474 8.95666 17.6964 9.66444 17.3732 9.93484L16.7855 10.4264L15.7474 9.52244C13.4655 7.53507 11.8767 5.4235 11.5734 3.97518C11.3088 2.71115 11.9902 1.50794 13.2187 1.07045C13.9155 0.822272 14.5731 0.882576 15.2628 1.25802ZM0.0984628 2.1034C-0.0454888 2.37246 -0.0352504 2.47731 0.153341 2.666C0.277123 2.78968 0.53943 2.82684 1.2897 2.82684C2.41418 2.82684 2.85013 2.97888 3.15544 3.4776C3.28731 3.69311 3.72787 5.67885 4.48807 9.48363C5.11261 12.6099 5.6236 15.2016 5.6236 15.2427C5.6236 15.284 5.26659 15.3178 4.83013 15.3179C4.27705 15.318 3.93028 15.3722 3.68558 15.497C2.67751 16.011 2.61373 17.3162 3.56549 17.952L3.91339 18.1844H12.3756C18.8209 18.1844 20.8671 18.1551 20.9607 18.0616C21.0283 17.994 21.0836 17.8419 21.0836 17.7237C21.0836 17.6054 21.0283 17.4534 20.9607 17.3858C20.8671 17.2922 18.8415 17.263 12.4687 17.263H4.09942L3.94011 17.0354C3.73493 16.7425 3.73892 16.6904 3.98546 16.4439C4.18644 16.2429 4.32671 16.2391 11.5595 16.2391H18.9288L19.071 16.0088C19.2575 15.7068 20.0836 11.5061 19.9996 11.2871C19.909 11.0512 19.4629 10.9562 19.2844 11.1348C19.2053 11.2138 18.9795 12.0837 18.7826 13.0677C18.5856 14.0518 18.3999 14.961 18.3697 15.0881L18.3149 15.3193L12.4602 15.2929L6.60546 15.2665L5.76193 11.0687C5.29792 8.75998 4.91583 6.83896 4.91265 6.79985C4.90948 6.76074 5.90127 6.71466 7.11657 6.69746C9.16578 6.66849 9.33676 6.6518 9.47139 6.46751C9.66213 6.20643 9.65527 6.14183 9.41181 5.89836C9.21943 5.70598 9.07056 5.69359 6.95654 5.69359C4.70645 5.69359 4.70604 5.69359 4.65383 5.46323C4.62516 5.33658 4.50875 4.79517 4.3952 4.26022C4.14498 3.08127 3.82933 2.58972 3.0638 2.18695C2.57124 1.92771 2.4364 1.90539 1.36659 1.90539C0.322376 1.90539 0.19368 1.92546 0.0984628 2.1034ZM6.69648 19.457C6.00324 19.8726 5.62053 20.7913 5.82479 21.5499C6.1217 22.6525 7.33505 23.268 8.36421 22.838C9.13301 22.5168 9.53907 21.9235 9.55023 21.105C9.57019 19.636 7.95437 18.7029 6.69648 19.457ZM15.5036 19.3478C13.8444 20.1184 14.1853 22.6232 15.9941 22.9506C16.8073 23.0977 17.7513 22.5752 18.0784 21.7967C18.3935 21.0468 18.1184 20.0703 17.4478 19.5588C17.1419 19.3255 16.9413 19.2614 16.4384 19.2364C16.0537 19.2173 15.6919 19.2604 15.5036 19.3478ZM8.31138 20.3881C8.64649 20.7233 8.70771 21.0766 8.50212 21.488C8.03679 22.4191 6.74983 22.0983 6.74983 21.0514C6.74983 20.231 7.73558 19.8123 8.31138 20.3881ZM16.9348 20.3601C17.0886 20.4938 17.2242 20.7432 17.2578 20.9544C17.3653 21.63 16.5355 22.2702 15.9448 21.9675C15.2928 21.6332 15.1563 20.9221 15.6493 20.429C16.0268 20.0515 16.5475 20.0235 16.9348 20.3601Z" fill="url(#paint0_linear_2032_22)"/>
<defs>
<linearGradient id="paint0_linear_2032_22" x1="11.5" y1="0" x2="11.5" y2="22.9759" gradientUnits="userSpaceOnUse">
<stop stop-color="#FFD588"/>
<stop offset="1" stop-color="#FFD588" stop-opacity="0"/>
</linearGradient>
</defs>
</svg>
