<svg width="18" height="22" viewBox="0 0 18 22" fill="none" xmlns="http://www.w3.org/2000/svg">
<path fill-rule="evenodd" clip-rule="evenodd" d="M0.711457 0.127506C0.57382 0.195444 0.367365 0.364038 0.252668 0.502045L0.0441272 0.753036L0.0221053 9.86635L0 18.9796L0.226725 19.2789C0.651815 19.8402 0.563811 19.8312 5.55252 19.8312H10.107L10.0478 19.6226C10.0152 19.5079 9.94322 19.2681 9.88783 19.0897L9.78706 18.7653L5.41613 18.7189L1.04512 18.6726V9.9139V1.15519H7.88525H14.7254L14.7469 6.46139L14.7684 11.7676H15.2702H15.7719L15.7492 6.30596C15.7268 0.948137 15.7231 0.839325 15.5536 0.582681C15.4586 0.438742 15.2522 0.248089 15.0948 0.159019C14.8292 0.00849933 14.3158 -0.00280821 7.88525 0.00043576C2.30154 0.0032163 0.913241 0.0277777 0.711457 0.127506ZM3.58932 4.90893C3.49756 5.01088 3.42248 5.17771 3.42248 5.27966C3.42248 5.38162 3.49756 5.54845 3.58932 5.6504C3.75165 5.83077 3.86734 5.83577 7.86665 5.83577C12.3992 5.83577 12.348 5.84207 12.348 5.27966C12.348 4.71725 12.3992 4.72356 7.86665 4.72356C3.86734 4.72356 3.75165 4.72856 3.58932 4.90893ZM3.58932 9.54316C3.38887 9.76588 3.37761 9.98675 3.55236 10.264L3.68216 10.47H7.87708C11.835 10.47 12.0797 10.4605 12.21 10.3005C12.3956 10.0726 12.3841 9.76857 12.1812 9.54316C12.0189 9.3628 11.9032 9.35779 7.88525 9.35779C3.86734 9.35779 3.75165 9.3628 3.58932 9.54316ZM9.34596 13.0176C9.13983 13.2936 9.30575 13.4088 9.97858 13.4567C10.4974 13.4938 10.6533 13.5403 10.7634 13.6914C10.8389 13.7951 11.1358 14.8748 11.4231 16.0909C11.9769 18.4349 12.1373 18.9418 12.4107 19.2112C12.662 19.4589 13.4349 19.5491 15.3242 19.5513C16.7447 19.5528 17.0278 19.5304 17.1385 19.4075C17.2959 19.2327 17.3014 19.1621 17.1695 19.0155C17.097 18.935 16.5005 18.9043 15.0099 18.9043C12.7461 18.9043 12.6708 18.8865 12.5511 18.325L12.4968 18.0702H14.7938C16.5882 18.0702 17.1149 18.0433 17.2011 17.9475C17.3482 17.7838 18.0634 14.5285 17.9955 14.3317C17.947 14.1915 17.65 14.1774 14.7312 14.1774H11.5203L11.4346 13.8238C11.3481 13.467 11.1243 13.1758 10.7895 12.9841C10.5119 12.8252 9.47158 12.8494 9.34596 13.0176ZM3.75615 14.0563C3.4194 14.1901 3.3178 14.6922 3.57505 14.9508C3.70743 15.084 3.97495 15.1042 5.60282 15.1042C7.02999 15.1042 7.51422 15.0749 7.6295 14.9812C7.84254 14.808 7.82369 14.3661 7.59446 14.1598C7.42696 14.0092 7.2281 13.9928 5.64461 13.9993C4.67481 14.0033 3.82497 14.029 3.75615 14.0563ZM12.6362 20.1514C12.4125 20.3999 12.3815 20.6275 12.524 20.9752C12.6229 21.2162 12.9169 21.4068 13.1899 21.4068C13.458 21.4068 13.7661 20.9965 13.7661 20.6394C13.7661 19.9881 13.0583 19.6823 12.6362 20.1514ZM15.6942 20.086C15.5975 20.1753 15.4951 20.3821 15.4666 20.5458C15.4233 20.7947 15.4563 20.8893 15.6685 21.125C15.9662 21.4558 16.2413 21.4838 16.5493 21.2147C16.8297 20.9696 16.8573 20.3926 16.6023 20.1092C16.3936 19.8774 15.9331 19.8656 15.6942 20.086Z" fill="url(#paint0_linear_2032_31)"/>
<defs>
<linearGradient id="paint0_linear_2032_31" x1="9" y1="0" x2="9" y2="21.4068" gradientUnits="userSpaceOnUse">
<stop stop-color="#FFD588"/>
<stop offset="1" stop-color="#FFD588" stop-opacity="0"/>
</linearGradient>
</defs>
</svg>
