<svg width="15" height="15" viewBox="0 0 15 15" fill="none" xmlns="http://www.w3.org/2000/svg">
<path fill-rule="evenodd" clip-rule="evenodd" d="M0.170643 0.191273C0.0463725 0.375455 0.0406776 0.649273 0.0207456 7.47546L0 14.5683L0.151185 14.7842L0.302438 15H7.50034H14.6983L14.8275 14.8087C14.9517 14.6246 14.9574 14.3504 14.9783 7.55627L15 0.495182L14.8547 0.247636L14.7095 0H7.50461H0.299794L0.170643 0.191273ZM14.0414 7.54545V13.8182H7.49905H0.956737V7.54545V1.27273H7.49905H14.0414V7.54545ZM2.01144 2.11118C1.86744 2.38673 1.8789 2.69109 2.04147 2.90909C2.31971 3.28218 2.78723 3.03136 2.78723 2.50891C2.78723 2.13955 2.61082 1.90909 2.32811 1.90909C2.18676 1.90909 2.08208 1.97591 2.01144 2.11118ZM3.4418 2.07536C3.2896 2.30082 3.30044 2.68818 3.46519 2.90909C3.85732 3.43491 4.4264 2.72564 4.10539 2.11118C3.97237 1.85645 3.60302 1.83645 3.4418 2.07536ZM4.86552 2.07536C4.70097 2.31909 4.72118 2.77764 4.90402 2.94936C5.21663 3.243 5.63466 2.98591 5.63466 2.5C5.63466 2.00218 5.11026 1.71264 4.86552 2.07536ZM1.90588 4.36364V5H7.49905H13.0922V4.36364V3.72727H7.49905H1.90588V4.36364ZM4.97765 6.42618C4.6325 6.689 4.46159 7.055 4.42762 7.60427C4.4022 8.01609 4.4245 8.148 4.56931 8.44145C4.86341 9.03746 5.5129 9.274 5.97507 8.95355C6.6316 8.49827 6.69757 7.10727 6.09011 6.52718C5.80741 6.25727 5.26436 6.208 4.97765 6.42618ZM8.61769 7.40909V7.72727H10.1431H11.6685V7.40909V7.09091H10.1431H8.61769V7.40909ZM8.61769 9.13636V9.45455H10.1431H11.6685V9.13636V8.81818H10.1431H8.61769V9.13636ZM3.99305 9.60291C3.77786 9.68909 3.61726 9.82964 3.50153 10.0331C3.33929 10.3184 3.3296 10.3975 3.3296 11.4404V12.5455H4.34654C4.96972 12.5455 5.36348 12.5107 5.36348 12.4558C5.36348 12.3441 4.42694 9.61482 4.36084 9.53391C4.33433 9.50146 4.16884 9.53246 3.99305 9.60291ZM4.75331 9.49964C4.75331 9.52446 4.9125 10.0237 5.10701 10.6092L5.4607 11.6736L5.81493 10.6777C6.00978 10.13 6.17093 9.63073 6.1731 9.56818C6.17601 9.48418 5.99154 9.45455 5.46517 9.45455C5.07365 9.45455 4.75331 9.47482 4.75331 9.49964ZM6.35018 10.1161C6.22686 10.4773 5.99988 11.1372 5.84585 11.5825C5.69175 12.028 5.57914 12.4104 5.59547 12.4324C5.61188 12.4543 6.07737 12.4785 6.62997 12.4861L7.63464 12.5L7.65803 12.2273C7.67091 12.0773 7.66027 11.5722 7.6343 11.1048C7.59302 10.3616 7.56461 10.2216 7.40746 9.988C7.30502 9.83555 7.0876 9.66473 6.90116 9.59018L6.57445 9.45945L6.35018 10.1161ZM10.1261 10.4317L8.61769 10.458V10.729V11H10.1431H11.6685V10.6818C11.6685 10.5068 11.6608 10.373 11.6516 10.3845C11.6423 10.396 10.9558 10.4173 10.1261 10.4317Z" fill="#FD9149"/>
</svg>
