<svg width="20" height="18" viewBox="0 0 20 18" fill="none" xmlns="http://www.w3.org/2000/svg">
<path fill-rule="evenodd" clip-rule="evenodd" d="M12.2329 0.651474L10.4659 1.29696H5.92763C2.05405 1.29696 1.33926 1.31789 1.04688 1.44003C0.605023 1.62468 0.393767 1.8204 0.176186 2.24673C0.00809302 2.57594 0 2.90115 0 9.30571C0 14.0672 0.0308837 16.1226 0.10614 16.374C0.247535 16.8456 0.67414 17.3483 1.14856 17.602L1.53488 17.8086H10H18.4651L18.8514 17.602C19.3259 17.3483 19.7525 16.8456 19.8939 16.374C19.9681 16.126 20 14.3876 20 10.5835V5.14738L19.7197 4.70543C19.445 4.27231 18.8866 3.90868 18.4884 3.90366C18.3561 3.90199 18.3256 3.81752 18.3256 3.45343C18.3256 2.52189 17.9732 1.83938 17.3023 1.4711C17.1623 1.39426 16.6489 1.32496 16.0126 1.29696L14.9553 1.25045L14.7677 0.738823C14.5357 0.105892 14.4487 -0.00685182 14.198 0.000310969C14.089 0.00338074 13.2048 0.296404 12.2329 0.651474ZM14.4611 2.40245C14.7485 3.18905 14.9677 3.84859 14.9483 3.86803C14.9288 3.88747 12.8866 3.89259 10.41 3.87929L5.90698 3.8551L9.90698 2.40403C12.107 1.60589 13.9141 0.957241 13.9229 0.962543C13.9315 0.967753 14.1738 1.61575 14.4611 2.40245ZM7.99033 2.17482C7.96791 2.19724 6.90028 2.59492 5.61777 3.05854L3.28595 3.90161H2.35321C1.55944 3.90161 1.38502 3.87371 1.18251 3.71445C0.886419 3.48161 0.782419 3.04906 0.934326 2.68245C1.15386 2.1525 1.228 2.14199 4.78298 2.13789C6.5694 2.13585 8.01265 2.1525 7.99033 2.17482ZM17.1709 2.44171C17.358 2.65919 17.3953 2.80264 17.3953 3.30217V3.90161H16.6624C15.8313 3.90161 15.9644 4.03231 15.4923 2.75287L15.2572 2.11575L16.1019 2.14822C16.8932 2.17864 16.9607 2.19715 17.1709 2.44171ZM9.86047 4.73882C14.6442 4.7644 18.6329 4.8218 18.7244 4.86636C19.102 5.05045 19.1628 5.38543 19.1628 7.28282V9.09175L18.0079 9.12459C16.8992 9.15613 16.8373 9.16859 16.458 9.4365C15.6857 9.98226 15.4749 10.9538 15.9522 11.7683C16.3314 12.4155 16.7463 12.584 18.0698 12.6286L19.1628 12.6654V14.3082C19.1628 16.1598 19.0883 16.4385 18.5011 16.7853C18.1925 16.9676 18.019 16.9714 10 16.9714C1.98102 16.9714 1.80753 16.9676 1.49888 16.7853C1.32558 16.683 1.10586 16.4534 1.01051 16.2752C0.846884 15.9691 0.837209 15.6331 0.837209 10.242C0.837209 4.8364 0.84586 4.53715 1 4.61259C1.08949 4.6564 5.07674 4.71324 9.86047 4.73882ZM19.1628 10.8318V11.7156H18.1057C17.0876 11.7156 17.0396 11.7065 16.8033 11.4704C16.6338 11.3007 16.5581 11.1267 16.5581 10.9061C16.5581 10.1718 16.9402 9.95706 18.2558 9.95175L19.1628 9.94812V10.8318ZM17.3953 10.8267V11.2505H17.8658H18.3363L18.3076 10.8551L18.2791 10.4598L17.8372 10.4314L17.3953 10.403V10.8267Z" fill="url(#paint0_linear_2032_19)"/>
<defs>
<linearGradient id="paint0_linear_2032_19" x1="10" y1="0" x2="10" y2="17.8086" gradientUnits="userSpaceOnUse">
<stop stop-color="#FFD588"/>
<stop offset="1" stop-color="#FFD588" stop-opacity="0"/>
</linearGradient>
</defs>
</svg>
