<svg width="23" height="22" viewBox="0 0 23 22" fill="none" xmlns="http://www.w3.org/2000/svg">
<path fill-rule="evenodd" clip-rule="evenodd" d="M12.933 2.06127V4.12255H11.5101C10.5531 4.12255 10.0871 4.13181 10.0871 4.15085C10.0871 4.1743 12.3637 7.08567 13.3317 8.30006C14.0847 9.24475 14.347 9.56431 14.3693 9.56431C14.4022 9.56431 14.5407 9.40133 15.0467 8.76728C15.8236 7.79375 18.6823 4.1536 18.6823 4.13791C18.6823 4.12947 18.0355 4.12255 17.245 4.12255H15.8077V2.06127V0H14.3703H12.933V2.06127ZM1.05338 4.17988C0.905223 4.21324 0.67321 4.32752 0.494636 4.45504C0.306605 4.58933 0.0716305 4.94216 0.02394 5.16181C0.00577215 5.24547 -0.00423167 5.43964 0.00171887 5.59333C0.0117514 5.85187 0.0208354 5.88878 0.123403 6.08724C0.270154 6.37109 0.508348 6.59945 0.816339 6.75155L1.04631 6.86511L2.78548 6.87792C3.81317 6.88548 4.55308 6.90169 4.59418 6.91749C4.6584 6.94223 4.73619 7.1873 5.61814 10.1438C7.01783 14.8361 7.26166 15.6127 7.41793 15.8772C7.53079 16.0681 7.74429 16.2463 8.01612 16.3763L8.23976 16.4834L12.8502 16.5025C17.7096 16.5226 18.8696 16.5074 19.171 16.4199C19.5201 16.3186 19.8167 16.0536 19.972 15.7045C20.4353 14.662 21.0629 13.1896 22.1893 10.5018L23 8.56723L22.99 8.23105C22.98 7.89621 22.9794 7.89393 22.8539 7.65727C22.6988 7.36479 22.4874 7.16699 22.1695 7.01676L21.9481 6.91213H21.5729H21.1976L20.9562 7.03413C20.5673 7.23067 20.4533 7.35858 20.2255 7.85405C19.9692 8.41159 19.5523 9.39055 18.5523 11.7836L17.7224 13.7693H13.7172H9.71196L9.68419 13.6994C9.6689 13.661 9.29956 12.4397 8.86342 10.9854C7.21029 5.47323 7.03028 4.89973 6.89391 4.71023C6.68532 4.42036 6.31944 4.21192 5.9551 4.17537C5.65358 4.14514 1.18941 4.1492 1.05338 4.17988ZM8.98792 17.9183C8.77497 17.9556 8.56885 18.0265 8.31919 18.1484C8.14398 18.2339 8.02669 18.3201 7.82676 18.5102C7.59621 18.7294 7.5466 18.7947 7.41856 19.0473C7.23231 19.4145 7.16964 19.6953 7.19198 20.062C7.2238 20.5836 7.42882 21.0135 7.82935 21.3983C8.04915 21.6095 8.13133 21.6678 8.36231 21.7762C8.74372 21.9552 8.93943 21.9997 9.33969 21.9981C9.86285 21.9962 10.2583 21.8631 10.6697 21.5505C11.0212 21.2834 11.3119 20.8499 11.4276 20.4203C11.4915 20.1829 11.4914 19.7229 11.4274 19.4859C11.2377 18.7834 10.6996 18.2328 9.97706 18.0018C9.68405 17.9081 9.25412 17.8718 8.98792 17.9183ZM16.1239 17.933C15.3192 18.0879 14.6648 18.6835 14.4522 19.4547C14.3304 19.8963 14.3912 20.4358 14.6094 20.8501C14.8943 21.3909 15.4077 21.7945 16.0098 21.9508C16.2609 22.016 16.7882 22.0165 17.0438 21.9517C17.3709 21.8689 17.7318 21.6793 17.9738 21.4632C18.4248 21.0605 18.6436 20.6181 18.6731 20.0493C18.686 19.8007 18.6782 19.7044 18.6288 19.5071C18.5231 19.085 18.3099 18.7379 17.9793 18.4493C17.4616 17.9975 16.7776 17.8071 16.1239 17.933Z" fill="url(#paint0_linear_2032_25)"/>
<defs>
<linearGradient id="paint0_linear_2032_25" x1="11.5" y1="0" x2="11.5" y2="22" gradientUnits="userSpaceOnUse">
<stop stop-color="#FFD588"/>
<stop offset="1" stop-color="#FFD588" stop-opacity="0"/>
</linearGradient>
</defs>
</svg>
