<svg width="15" height="9" viewBox="0 0 15 9" fill="none" xmlns="http://www.w3.org/2000/svg">
<path fill-rule="evenodd" clip-rule="evenodd" d="M8.56215 0.0579383C8.34467 0.145046 8.16465 0.428048 8.2188 0.597684C8.25065 0.697314 8.96511 1.22763 10.3504 2.17969L12.4341 3.61174L6.40987 3.63933L0.385569 3.66691L0.191992 3.82171C-0.0639974 4.02637 -0.0639974 4.30044 0.191992 4.50511L0.385569 4.6599L6.40987 4.68748L12.4341 4.71507L10.3504 6.14713C8.96511 7.09918 8.25065 7.6295 8.2188 7.72913C8.16281 7.90456 8.35029 8.18794 8.5778 8.27163C8.66267 8.30291 8.85128 8.32845 8.99688 8.32845C9.23795 8.32845 9.51792 8.1522 12.1308 6.35538C14.939 4.42429 15 4.37773 15 4.16341C15 3.94909 14.939 3.90253 12.1308 1.97143C9.44612 0.125296 9.24364 -0.00153104 8.98204 1.36113e-05C8.82833 0.000951437 8.63933 0.02699 8.56215 0.0579383Z" fill="#F7D299"/>
</svg>
