<svg width="20" height="28" viewBox="0 0 20 28" fill="none" xmlns="http://www.w3.org/2000/svg">
<path fill-rule="evenodd" clip-rule="evenodd" d="M9.63369 0.187381C9.48369 0.337498 9.43846 0.655626 9.43846 1.56254C9.43846 2.21147 9.49637 2.85058 9.56708 2.98281C9.7121 3.25371 10.0596 3.29795 10.2835 3.07402C10.488 2.86947 10.488 0.345824 10.2835 0.141277C10.0809 -0.0612808 9.86719 -0.04612 9.63369 0.187381ZM2.94542 2.98455C2.55248 3.21345 2.71527 3.55519 3.67401 4.51392C4.62901 5.46893 4.98591 5.64005 5.19431 5.24251C5.37276 4.90201 5.18313 4.59171 4.24514 3.68915C3.32556 2.80423 3.28902 2.78447 2.94542 2.98455ZM15.6376 3.80385C15.0987 4.32839 14.6577 4.84845 14.6577 4.95955C14.6577 5.21629 14.8982 5.45998 15.1517 5.45998C15.4404 5.45998 17.1431 3.69897 17.1431 3.40035C17.1431 3.13827 16.9275 2.85034 16.7312 2.85034C16.6687 2.85034 16.1766 3.27944 15.6376 3.80385ZM6.24401 6.60947C6.06021 6.85092 5.21332 9.18792 5.21332 9.45348C5.21332 9.61975 5.69499 10.008 6.82882 10.7554C7.71734 11.3412 8.44431 11.8394 8.44431 11.8624C8.44431 11.8854 8.1227 11.9971 7.72976 12.1107C5.99087 12.6129 4.31921 13.8466 3.30679 15.3749C2.35067 16.8181 1.97277 18.0499 1.96469 19.7491C1.9581 21.1329 2.14761 22.0602 2.66954 23.1966C3.63747 25.3042 5.25806 26.7548 7.51229 27.5314C8.3818 27.831 8.69347 27.8738 9.99767 27.8738C11.3019 27.8738 11.6135 27.831 12.483 27.5314C14.7373 26.7548 16.3579 25.3042 17.3258 23.1966C17.8477 22.0602 18.0372 21.1329 18.0306 19.7491C18.0226 18.0499 17.6447 16.8181 16.6885 15.3749C15.6761 13.8466 14.0045 12.6129 12.2656 12.1107C11.8726 11.9971 11.551 11.8854 11.551 11.8624C11.551 11.8394 12.278 11.3412 13.1665 10.7554C14.3004 10.008 14.782 9.61975 14.782 9.45348C14.782 9.18792 13.9351 6.85092 13.7513 6.60947C13.6615 6.49141 12.7602 6.45413 9.99767 6.45413C7.23518 6.45413 6.33385 6.49141 6.24401 6.60947ZM7.8851 7.52408C7.46482 7.84905 6.70455 8.20582 6.70455 8.07795C6.70455 8.01147 6.76942 7.81462 6.84882 7.64052C6.97334 7.36726 7.07089 7.32451 7.56337 7.32799C8.10245 7.33172 8.12009 7.3424 7.8851 7.52408ZM13.1465 7.64052C13.2259 7.81462 13.2908 8.01147 13.2908 8.07795C13.2908 8.20582 12.5305 7.84905 12.1102 7.52408C11.8752 7.3424 11.8929 7.33172 12.432 7.32799C12.9244 7.32451 13.022 7.36726 13.1465 7.64052ZM11.3066 8.19389L12.483 8.87737L11.278 8.91291C10.6153 8.93242 9.49699 8.93242 8.79301 8.91291L7.51304 8.87737L8.75535 8.16407C9.43858 7.77188 10.0275 7.46431 10.0639 7.48059C10.1003 7.49699 10.6595 7.81798 11.3066 8.19389ZM0.143158 9.70997C-0.0477192 9.90085 -0.0477192 10.215 0.143158 10.4059C0.382375 10.6451 2.78287 10.6067 3.0298 10.3598C3.27498 10.1145 3.27498 10.0014 3.0298 9.75607C2.78287 9.50915 0.382375 9.47075 0.143158 9.70997ZM16.9696 9.7521C16.86 9.8617 16.7703 9.99939 16.7703 10.0579C16.7703 10.1165 16.86 10.2541 16.9696 10.3637C17.2694 10.6636 19.7273 10.59 19.9253 10.2754C20.0249 10.1171 20.0249 9.99877 19.9253 9.84045C19.7273 9.5258 17.2694 9.45224 16.9696 9.7521ZM11.3067 10.8004C10.0286 11.6517 10.0005 11.6632 9.69122 11.4628C9.51799 11.3506 8.92946 10.9606 8.38329 10.5961L7.39026 9.93365L9.99879 9.9339L12.6073 9.93415L11.3067 10.8004ZM11.7424 12.9805C14.1465 13.5927 16.1221 15.5163 16.8457 17.949C17.1768 19.0617 17.146 20.8196 16.7753 21.9723C15.834 24.8998 13.0357 26.9585 9.99767 26.9585C7.62351 26.9585 5.32579 25.6848 4.00046 23.6343C2.63524 21.522 2.54453 18.7751 3.7636 16.4578C4.58688 14.8926 6.4242 13.4542 8.19577 12.9881C9.10144 12.7497 10.8219 12.7461 11.7424 12.9805ZM8.81712 14.1701C6.81366 14.5586 4.92862 16.333 4.41204 18.3168C3.43454 22.0706 6.14782 25.6164 9.99767 25.6164C13.8475 25.6164 16.5608 22.0706 15.5833 18.3168C14.8347 15.442 11.8121 13.5895 8.81712 14.1701ZM11.4448 15.2751C12.8444 15.712 14.0057 16.8204 14.5348 18.2246C14.9339 19.2836 14.8531 20.9024 14.3499 21.9309C13.6574 23.3464 12.3608 24.3178 10.7732 24.6103C8.73609 24.9856 6.59184 23.8652 5.6454 21.9309C5.14224 20.9024 5.06147 19.2836 5.46049 18.2246C6.38021 15.7839 8.97568 14.5046 11.4448 15.2751Z" fill="url(#paint0_linear_5363_24)"/>
<defs>
<linearGradient id="paint0_linear_5363_24" x1="10" y1="0" x2="10" y2="27.8738" gradientUnits="userSpaceOnUse">
<stop stop-color="#FD9149"/>
<stop offset="1" stop-color="#FFD588"/>
</linearGradient>
</defs>
</svg>
