<svg width="20" height="20" viewBox="0 0 20 20" fill="none" xmlns="http://www.w3.org/2000/svg">
<g style="mix-blend-mode:darken">
<path d="M2.09084 0.036026C1.09589 0.200155 0.26436 0.864485 0.0528719 1.6695C0.0144196 1.81799 0 4.30727 0 10.6184C0 18.989 0.00480654 19.368 0.0913242 19.5165C0.197068 19.7119 0.471041 19.9112 0.706561 19.9659C0.836337 19.9972 2.99928 20.005 8.10382 19.9972L15.3184 19.9855L15.5491 19.8682C15.7174 19.7862 15.8183 19.6924 15.9048 19.5556L16.0298 19.3641L16.0442 16.6169L16.0586 13.8697H17.6544C19.2165 13.8697 19.2598 13.8658 19.4665 13.7798C19.5818 13.7329 19.7453 13.6274 19.8222 13.5454L19.9712 13.393L19.9856 11.4039L20 9.4148L19.8798 9.3171C19.726 9.19205 19.5434 9.19205 19.3944 9.3171L19.2742 9.41089V11.3062C19.2742 13.1507 19.2694 13.2054 19.1781 13.2445C19.1204 13.2718 18.558 13.2796 17.5583 13.2757L16.0298 13.264L16.0154 7.63674C16.0058 3.8227 16.0202 1.9235 16.0538 1.73984C16.1452 1.25527 16.4672 0.911379 17.0103 0.708172C17.3997 0.563583 17.938 0.563583 18.3177 0.71208C18.6349 0.83713 18.9954 1.13412 19.1444 1.39595L19.2502 1.57962L19.2598 4.95988C19.2694 6.82 19.2838 8.37923 19.2982 8.42612C19.3319 8.53945 19.5722 8.64105 19.7308 8.60979C20.0096 8.55508 19.9952 8.7153 19.9952 5.03804C19.9952 1.83362 19.9904 1.64214 19.9039 1.39595C19.6683 0.727711 19.0435 0.235325 18.1927 0.059473C17.9428 0.00476456 17.0103 -0.00305176 10.0937 0.0008564C5.79668 0.00476456 2.19659 0.0203953 2.09084 0.036026ZM15.9096 0.606569C15.9096 0.618292 15.8472 0.692541 15.7654 0.770697C15.4915 1.05206 15.3809 1.3217 15.3329 1.8219C15.3088 2.07982 15.2848 6.04235 15.2848 10.7904V19.2977L15.179 19.3563C15.0829 19.411 14.3235 19.4188 7.99327 19.4188C0.975727 19.4188 0.913242 19.4188 0.817111 19.3407C0.720981 19.2625 0.720981 19.2117 0.720981 10.6145C0.720981 1.30997 0.711367 1.76328 0.956501 1.3725C1.16799 1.03643 1.73035 0.704264 2.21101 0.626108C2.44172 0.590937 15.9096 0.56749 15.9096 0.606569Z" fill="#F7D299"/>
<path d="M3.10124 2.54854C2.64943 2.7283 2.4091 3.04483 2.4043 3.45906C2.4043 4.04524 3.00511 4.49464 3.72609 4.44384C4.19233 4.41257 4.54321 4.20155 4.74989 3.83422C4.95176 3.4747 4.84602 3.04093 4.48553 2.74784C4.25001 2.55245 4.05294 2.48602 3.67803 2.47039C3.39444 2.45866 3.30312 2.47039 3.10124 2.54854ZM3.94239 3.15035C4.14907 3.30275 4.17791 3.49033 4.02891 3.67009C3.74532 4.01007 3.12047 3.85375 3.12528 3.44343C3.13489 3.09564 3.62516 2.91978 3.94239 3.15035Z" fill="#F7D299"/>
<path d="M6.22368 3.26006C6.15639 3.31086 6.10352 3.40074 6.10352 3.45545C6.10352 3.51016 6.15639 3.60004 6.22368 3.65084C6.32942 3.74072 6.37268 3.74854 6.81008 3.74854C7.31477 3.74463 7.41571 3.71727 7.48781 3.54924C7.54068 3.43982 7.483 3.29132 7.36284 3.21707C7.30996 3.1819 7.12251 3.16627 6.81008 3.16236C6.37268 3.16236 6.32942 3.17018 6.22368 3.26006Z" fill="#F7D299"/>
<path d="M8.37358 3.25224C8.22457 3.3812 8.23419 3.56487 8.3928 3.66647C8.51777 3.74854 8.56584 3.74854 11.0845 3.74854C12.4928 3.74854 13.68 3.73681 13.7232 3.72509C13.8386 3.68601 13.9443 3.49062 13.9107 3.37729C13.8434 3.15845 13.9011 3.16236 11.0796 3.16236H8.47451L8.37358 3.25224Z" fill="#F7D299"/>
<path d="M3.23513 5.79237C2.57663 5.99949 2.26421 6.52313 2.45647 7.08586C2.52857 7.30079 2.95155 7.63686 3.22552 7.69548C3.90805 7.84398 4.57135 7.58215 4.78284 7.07414C4.97991 6.60129 4.72036 6.08546 4.15799 5.85099C3.93208 5.75329 3.45143 5.72203 3.23513 5.79237ZM3.82634 6.38636C4.02341 6.45279 4.15799 6.66382 4.10992 6.83967C4.06666 7.0038 3.83114 7.14839 3.60524 7.14839C3.46104 7.14839 3.38414 7.12103 3.27358 7.02724C3.08132 6.87093 3.0669 6.65991 3.24475 6.48796C3.35049 6.38636 3.41297 6.36291 3.61966 6.33165C3.63888 6.33165 3.73021 6.3551 3.82634 6.38636Z" fill="#F7D299"/>
<path d="M6.31026 6.48367C6.08916 6.55792 6.03629 6.80802 6.21413 6.94479L6.32468 7.03076H10.0305C13.4961 7.03076 13.7364 7.02685 13.8037 6.96042C13.9815 6.8002 13.9383 6.56964 13.7123 6.48757C13.573 6.43287 6.47368 6.43287 6.31026 6.48367Z" fill="#F7D299"/>
<path d="M3.4365 9.05145C3.00872 9.12961 2.64823 9.34845 2.49442 9.62981C2.37426 9.83693 2.37426 10.2394 2.49442 10.4505C2.83088 11.0562 3.83063 11.232 4.42664 10.7943C4.72945 10.5716 4.82558 10.384 4.83038 10.0401C4.83038 9.79394 4.81116 9.71969 4.70061 9.57119C4.5468 9.35626 4.41222 9.25075 4.15747 9.14915C3.9556 9.06709 3.60472 9.02019 3.4365 9.05145ZM3.9556 9.74705C4.34493 10.0675 3.94118 10.5872 3.4365 10.4153C3.10004 10.298 3.01833 9.98542 3.26346 9.77049C3.45092 9.60637 3.76815 9.59855 3.9556 9.74705Z" fill="#F7D299"/>
<path d="M6.37954 9.76635C6.02386 9.85623 6.00944 10.2118 6.3507 10.3095C6.55739 10.3682 11.3159 10.3682 11.5226 10.3134C11.6619 10.2744 11.7773 10.1376 11.7773 10.0204C11.7773 9.9891 11.7244 9.91485 11.6619 9.85623L11.5466 9.74681L9.02796 9.739C7.64847 9.73509 6.45164 9.74681 6.37954 9.76635Z" fill="#F7D299"/>
<path d="M12.8009 9.7508C12.6855 9.77424 12.498 9.93837 12.498 10.0243C12.498 10.0517 12.5221 10.122 12.5557 10.1767C12.6278 10.3096 12.8778 10.3643 13.3344 10.3448C13.7574 10.3292 13.9064 10.2471 13.9064 10.04C13.9064 9.82504 13.7622 9.7547 13.3056 9.74298C13.0845 9.73907 12.8585 9.74298 12.8009 9.7508Z" fill="#F7D299"/>
<path d="M3.38003 12.3107C3.09163 12.3537 2.9234 12.4357 2.6975 12.6428C2.4764 12.85 2.4043 13.0141 2.4043 13.3228C2.4091 13.6901 2.67827 14.034 3.10605 14.2021C3.37522 14.3115 3.89913 14.3076 4.15869 14.1942C4.72586 13.9481 4.98061 13.44 4.77873 12.9633C4.59128 12.5061 3.98084 12.2208 3.38003 12.3107ZM3.95681 12.9945C4.3173 13.2837 4.00488 13.7683 3.5098 13.6901C3.30312 13.655 3.12528 13.4713 3.12528 13.2837C3.12528 12.9437 3.66361 12.7562 3.95681 12.9945Z" fill="#F7D299"/>
<path d="M6.2114 13.0999C6.03837 13.2484 6.07682 13.4438 6.30273 13.5376C6.41808 13.5884 6.96603 13.5962 9.98934 13.5962C12.3445 13.5962 13.5894 13.5806 13.6856 13.5571C13.9355 13.4829 13.9932 13.2523 13.8057 13.0765C13.7384 13.0139 13.4981 13.01 10.023 13.01H6.31234L6.2114 13.0999Z" fill="#F7D299"/>
<path d="M3.10019 15.683C2.12446 16.0581 2.18214 17.2109 3.19151 17.5236C3.45587 17.6056 3.93171 17.59 4.17204 17.4884C4.38352 17.3985 4.62385 17.1953 4.73921 17.0116C4.86418 16.8006 4.86418 16.3708 4.7344 16.1558C4.4364 15.6674 3.69619 15.4524 3.10019 15.683ZM3.98458 16.3082C4.15762 16.4489 4.16243 16.7107 3.9942 16.8553C3.68177 17.125 3.12422 16.953 3.12422 16.5857C3.12422 16.2223 3.66255 16.0503 3.98458 16.3082Z" fill="#F7D299"/>
<path d="M6.22368 16.3899C6.15639 16.4407 6.10352 16.5306 6.10352 16.5853C6.10352 16.64 6.15639 16.7299 6.22368 16.7807L6.33904 16.8784H9.992C12.0011 16.8784 13.6786 16.8667 13.7219 16.855C13.7603 16.8393 13.8324 16.7768 13.8709 16.7143C13.9334 16.6166 13.9334 16.5775 13.8853 16.4837C13.8565 16.4173 13.7892 16.3509 13.7411 16.3313C13.6882 16.3079 12.2463 16.2922 9.99681 16.2922H6.33904L6.22368 16.3899Z" fill="#F7D299"/>
</g>
</svg>
