<svg width="28" height="26" viewBox="0 0 28 26" fill="none" xmlns="http://www.w3.org/2000/svg">
<path d="M1.18379 0.0570812C0.655334 0.204475 0.179724 0.641573 0.0505454 1.10408C0.00944321 1.26673 -0.00817199 3.95031 0.00357148 10.1561L0.0211867 18.9743L0.197339 19.2742C0.396978 19.6096 0.790384 19.9095 1.16617 20.006C1.3071 20.0416 2.07042 20.0619 3.38569 20.0619H5.38795L5.50539 19.9298C5.69328 19.7214 5.66392 19.5791 5.37621 19.3402C5.37034 19.3351 4.46022 19.3148 3.35633 19.2996L1.35407 19.2742L1.18966 19.1471C0.854973 18.8777 0.872588 19.4317 0.872588 10.0138C0.872588 1.85122 0.87846 1.32263 0.978279 1.15999C1.03112 1.06342 1.15443 0.936359 1.24251 0.880453C1.40692 0.77372 1.42453 0.77372 9.31614 0.758471C14.5831 0.748306 17.2958 0.763554 17.4309 0.794048C17.5483 0.824545 17.7186 0.916031 17.8125 1.00243L17.9887 1.15999L18.0063 7.86386L18.0181 14.5677L17.6129 14.771C17.1079 15.0302 16.7204 15.2793 16.3622 15.5792C16.145 15.7621 16.0628 15.7977 16.0099 15.752C15.9571 15.7062 14.9236 15.691 11.6707 15.691H7.39608L7.27865 15.8231C7.12011 15.9959 7.12011 16.1484 7.27278 16.2907C7.34324 16.3517 7.40196 16.4076 7.40783 16.4127C7.4137 16.4178 9.22219 16.4381 11.43 16.4533L15.4345 16.4788L15.2231 16.7532C14.7416 17.3733 14.3776 18.2119 14.1662 19.1878L14.1427 19.2996H10.5316C8.01262 19.2996 6.88524 19.3148 6.78542 19.3555C6.6445 19.4114 6.50945 19.5944 6.50945 19.7265C6.50945 19.7621 6.5623 19.8536 6.63276 19.9298L6.75019 20.0619L10.4318 20.0721L14.1133 20.0874L14.1545 20.5448C14.219 21.2462 14.448 21.9323 14.8473 22.6286C15.229 23.2995 15.5343 23.6756 16.1097 24.189C18.4291 26.2525 22.0872 26.593 24.888 25.0022C26.8198 23.8993 28 22.0035 28 20.006C28 16.7939 25.1522 14.1916 21.4002 13.9782C20.7132 13.9426 19.8148 14.0391 19.0045 14.2475C18.9047 14.2729 18.8988 13.9375 18.8988 7.73171C18.8988 3.0202 18.8812 1.13966 18.8342 1.00243C18.7227 0.677151 18.3762 0.33662 17.9887 0.163815L17.6423 0.0113392L9.53927 0.00117302C3.00403 -0.00391006 1.38343 0.0062561 1.18379 0.0570812ZM22.2751 14.8574C24.3595 15.2335 26.1034 16.555 26.7846 18.2881C27.6771 20.5295 26.6965 23.0302 24.4182 24.3414C22.6802 25.3427 20.6192 25.5003 18.6463 24.7887C17.7069 24.4533 16.6499 23.701 16.0804 22.9641C15.7281 22.5067 15.3464 21.7849 15.1937 21.2818C15.0117 20.6769 14.9706 19.6299 15.1115 19.0556C15.3758 17.912 16.0334 16.8752 16.92 16.1687C18.3938 14.9997 20.3667 14.5169 22.2751 14.8574Z" fill="#F7D299"/>
<path d="M20.5082 15.9398C20.2205 16.0567 19.8799 16.387 19.7918 16.6513C19.7507 16.7682 19.7214 17.2358 19.7214 17.8457V18.8419H18.5646C17.9246 18.8419 17.3022 18.8673 17.1789 18.8978C16.8912 18.9639 16.5037 19.2688 16.3686 19.528C16.075 20.082 16.3862 20.7682 17.0497 21.0325C17.2552 21.1138 17.449 21.129 18.5059 21.129H19.7214V22.1354C19.7214 23.284 19.7684 23.4924 20.1148 23.7872C20.3966 24.0312 20.6667 24.1328 21.0366 24.1328C21.6003 24.1328 22.0348 23.899 22.2697 23.467C22.3813 23.2637 22.393 23.1265 22.4106 22.1811L22.4341 21.129H23.632C24.9413 21.129 25.1116 21.0985 25.4346 20.8342C25.7164 20.6055 25.8515 20.326 25.8515 19.9855C25.8515 19.4975 25.5931 19.157 25.0647 18.9486C24.8298 18.8521 24.683 18.8419 23.6143 18.8419H22.4341L22.4106 17.7847C22.3871 16.6412 22.3519 16.4785 22.0231 16.1786C21.6708 15.8534 21.0014 15.7466 20.5082 15.9398ZM21.3361 16.6869C21.4477 16.7581 21.4535 16.8394 21.4829 17.9169C21.5123 19.0045 21.5181 19.0808 21.6473 19.2536C21.8763 19.5738 22.0172 19.6043 23.403 19.6043C24.7006 19.6043 24.8004 19.6195 24.9472 19.8584C25.0353 20.0007 24.8768 20.3057 24.7006 20.3412C24.6243 20.3514 24.0077 20.3717 23.3207 20.3768C22.1699 20.3921 22.0642 20.4022 21.9174 20.4988C21.5181 20.7529 21.5123 20.7682 21.4829 22.0541C21.4535 23.1366 21.4477 23.2281 21.342 23.2942C21.1717 23.4009 20.8722 23.3857 20.7431 23.2586C20.6432 23.162 20.6315 23.0401 20.6021 21.9931C20.5728 20.9206 20.561 20.819 20.4495 20.6869C20.2029 20.3921 20.0502 20.3667 18.6762 20.3667H17.4255L17.2729 20.2345C17.1554 20.1329 17.1319 20.0769 17.1613 19.9448C17.2318 19.6195 17.3022 19.6043 18.688 19.6043C20.0502 19.6043 20.2029 19.5789 20.4495 19.2841C20.561 19.1519 20.5728 19.0503 20.6021 17.9677C20.6315 16.814 20.6315 16.7987 20.7724 16.7021C20.9368 16.5852 21.1717 16.5802 21.3361 16.6869Z" fill="#F7D299"/>
<path d="M3.66089 2.79664C2.4748 3.28965 2.45719 4.70768 3.63741 5.21593C4.07779 5.40398 4.42422 5.41923 4.88809 5.27184C5.52223 5.06345 5.9039 4.52979 5.85105 3.90972C5.81582 3.52345 5.716 3.31506 5.42242 3.06093C5.11121 2.79664 4.88809 2.71532 4.39486 2.69499C4.01907 2.67974 3.90751 2.69499 3.66089 2.79664ZM4.62386 3.51328C5.24039 3.79282 5.01139 4.58061 4.31266 4.58061C3.7842 4.58061 3.48474 4.05711 3.7842 3.67084C3.96623 3.44721 4.3244 3.38113 4.62386 3.51328Z" fill="#F7D299"/>
<path d="M7.27842 3.77728C7.12576 3.945 7.11989 4.10765 7.26668 4.26012L7.37824 4.3821L10.2319 4.39735L13.0856 4.4126L13.2324 4.28553C13.4203 4.12289 13.4261 3.90434 13.2441 3.75695C13.1091 3.64513 13.1032 3.64513 10.2554 3.64513H7.39586L7.27842 3.77728Z" fill="#F7D299"/>
<path d="M14.4357 3.74698C14.242 3.91471 14.2596 4.12818 14.471 4.29082C14.606 4.39755 14.6765 4.40771 15.2284 4.40771C15.7804 4.40771 15.8508 4.39755 15.9859 4.29082C16.1973 4.12818 16.2149 3.91471 16.0211 3.74698C15.9154 3.6555 15.8273 3.64533 15.2284 3.64533C14.6295 3.64533 14.5414 3.6555 14.4357 3.74698Z" fill="#F7D299"/>
<path d="M3.65991 6.81691C2.51492 7.27942 2.4562 8.6822 3.56009 9.20062C4.62287 9.70379 5.86181 9.06339 5.86181 8.01639C5.86181 7.61995 5.73263 7.34549 5.42143 7.07612C5.11023 6.80674 4.79315 6.69493 4.33516 6.69493C4.05919 6.69493 3.87129 6.7305 3.65991 6.81691ZM4.78141 7.63011C5.00454 7.82325 5.04564 8.06213 4.89885 8.31117C4.65223 8.72286 3.92414 8.67712 3.71276 8.24002C3.52486 7.84866 3.84193 7.46239 4.35865 7.45731C4.5348 7.45731 4.62287 7.49289 4.78141 7.63011Z" fill="#F7D299"/>
<path d="M7.27906 7.79262C7.07942 8.01117 7.1264 8.22972 7.3965 8.34661C7.53742 8.41269 8.18331 8.42285 11.7005 8.42285H15.8401L15.9986 8.30595C16.1982 8.15348 16.21 7.8841 16.0162 7.75196C15.8988 7.66555 15.6111 7.66047 11.6476 7.66047H7.3965L7.27906 7.79262Z" fill="#F7D299"/>
<path d="M4.0261 10.7203C3.26277 10.8372 2.68734 11.4929 2.76954 12.1587C2.86936 13.0024 3.82646 13.5716 4.75419 13.3378C5.86982 13.0532 6.24561 11.808 5.42944 11.1015C5.04191 10.766 4.57804 10.639 4.0261 10.7203ZM4.78355 11.6453C5.01255 11.8435 5.04778 12.0977 4.88337 12.3366C4.61327 12.733 3.9204 12.6872 3.71489 12.2603C3.6092 12.0316 3.66792 11.808 3.8793 11.6199C4.02022 11.503 4.10243 11.4725 4.31968 11.4725C4.54281 11.4725 4.61327 11.4979 4.78355 11.6453Z" fill="#F7D299"/>
<path d="M7.27763 11.8079C7.12497 11.9807 7.1191 12.1332 7.27176 12.2755C7.43617 12.4279 7.58884 12.4534 8.2406 12.4279C8.75144 12.4127 8.8219 12.4025 8.92172 12.2907C9.07438 12.1281 9.06264 11.9197 8.89823 11.7875C8.77493 11.6859 8.69859 11.6757 8.08206 11.6757C7.41268 11.6757 7.39507 11.6808 7.27763 11.8079Z" fill="#F7D299"/>
<path d="M10.0968 11.7671C9.92065 11.8891 9.91478 12.1534 10.0851 12.3008L10.2142 12.4126H13.0562H15.8981L16.0273 12.3008C16.1975 12.1534 16.1917 11.8891 16.0155 11.7671C15.8981 11.6807 15.675 11.6756 13.0562 11.6756C10.4374 11.6756 10.2142 11.6807 10.0968 11.7671Z" fill="#F7D299"/>
<path d="M3.98632 14.7456C3.01162 14.9184 2.47142 15.8841 2.92354 16.6465C3.40502 17.4648 4.63222 17.6478 5.41903 17.0226C5.87115 16.6567 6.00033 15.9502 5.71261 15.447C5.38967 14.8879 4.72029 14.6135 3.98632 14.7456ZM4.78488 15.6605C5.01388 15.8587 5.04911 16.1128 4.8847 16.3517C4.6146 16.7482 3.92174 16.7024 3.71622 16.2755C3.61053 16.0468 3.66925 15.8231 3.88063 15.6351C4.02155 15.5182 4.10376 15.4877 4.32101 15.4877C4.54414 15.4877 4.6146 15.5131 4.78488 15.6605Z" fill="#F7D299"/>
</svg>
