<svg width="19" height="22" viewBox="0 0 19 22" fill="none" xmlns="http://www.w3.org/2000/svg">
<path fill-rule="evenodd" clip-rule="evenodd" d="M6.9467 0.199154C5.9497 0.676918 5.2778 1.63817 5.1443 2.77752L5.0784 3.33906L3.1802 3.36955C0.9652 3.40527 0.96 3.40764 0.8414 4.44181L0.7742 5.02821H0.3871H0V5.85458V6.68095L0.3125 6.74262C0.4844 6.77656 0.8669 6.80429 1.1625 6.80429H1.7V13.4214V20.0384L1.954 20.5683C2.2289 21.1415 2.7415 21.6483 3.2645 21.8639C3.5311 21.9739 4.715 21.9996 9.5008 21.9996C16.1636 21.9996 15.776 22.0426 16.5295 21.2196C17.2322 20.4522 17.2 20.825 17.2 13.4525V6.80429H17.7875C18.1106 6.80429 18.5156 6.77656 18.6875 6.74262L19 6.68095V5.85458V5.02821H18.55H18.1V4.49104C18.1 4.06558 18.0498 3.89626 17.8589 3.67701L17.6177 3.40014L15.7089 3.36945L13.8 3.33886V2.90451C13.8 1.87301 13.0582 0.732273 12.0721 0.247404C11.5716 0.00131832 11.5161 -0.00391126 9.4554 0.000923615C7.5748 0.00526514 7.3069 0.0264794 6.9467 0.199154ZM11.251 1.81548C11.6777 1.99141 11.9991 2.49167 11.9996 2.98079L12 3.3508H9.45H6.9L6.9022 3.07946C6.906 2.60988 7.2435 2.02131 7.6116 1.84232C8.0693 1.61992 10.7289 1.60018 11.251 1.81548ZM15.5 13.311V19.8178L15.2587 20.0947L15.0175 20.3715L9.76 20.4004C4.2198 20.4306 3.8119 20.4042 3.5767 19.9982C3.4789 19.8293 3.4428 18.3008 3.4186 13.2919L3.3871 6.80429H9.4436H15.5V13.311ZM5.2 13.5632V18.6448H6.05H6.9V13.5632V8.48169H6.05H5.2V13.5632ZM8.6 13.5632V18.6448H9.45H10.3V13.5632V8.48169H9.45H8.6V13.5632ZM12.1 13.5632V18.6448H12.95H13.8V13.5632V8.48169H12.95H12.1V13.5632Z" fill="#C4C4C4"/>
</svg>
