<svg width="15" height="11" viewBox="0 0 15 11" fill="none" xmlns="http://www.w3.org/2000/svg">
<path fill-rule="evenodd" clip-rule="evenodd" d="M0.551463 0.161008C-0.171806 0.561817 -0.148064 1.70327 0.590529 2.03976C1.03504 2.24232 7.89714 2.2202 8.29406 2.01494C9.01226 1.64348 9.01226 0.535593 8.29406 0.164138C7.87469 -0.052778 0.942127 -0.0555838 0.551463 0.161008ZM11.1275 0.161008C10.6782 0.409976 10.5839 0.731573 10.5798 2.02875C10.5756 3.36769 10.677 3.72264 11.1312 3.95747C11.5138 4.15528 11.8032 4.15183 12.2037 3.94473C12.5249 3.77865 12.5261 3.77919 12.684 4.15712C12.8924 4.65581 12.8856 5.78031 12.6705 6.41164C12.4486 7.06271 11.6653 7.92972 10.9654 8.29902L10.4141 8.58986L5.55779 8.64382C2.88681 8.6735 0.614703 8.74008 0.508619 8.79178C0.275947 8.9052 0 9.41047 0 9.723C0 10.0798 0.281235 10.5323 0.590529 10.6732C0.96943 10.8459 9.76985 10.8552 10.5977 10.6838C11.5598 10.4846 12.6232 9.90927 13.3379 9.20111C14.4412 8.10811 15.0011 6.7777 15 5.25173C14.9994 4.24982 14.8972 3.80217 14.4388 2.79411L14.1099 2.07062L14.3934 1.7337C14.5493 1.54841 14.6769 1.27667 14.6769 1.1299C14.6769 0.736321 14.4085 0.286086 14.0864 0.139317C13.6903 -0.0412307 11.4628 -0.0248271 11.1275 0.161008ZM0.551463 4.47774C-0.171806 4.87855 -0.148064 6.02 0.590529 6.35649C1.03504 6.55905 7.89714 6.53693 8.29406 6.33167C9.01226 5.96021 9.01226 4.85233 8.29406 4.48087C7.87469 4.26395 0.942127 4.26115 0.551463 4.47774Z" fill="#F7D299"/>
</svg>
