<svg width="25" height="26" viewBox="0 0 25 26" fill="none" xmlns="http://www.w3.org/2000/svg">
<path fill-rule="evenodd" clip-rule="evenodd" d="M12.1006 0.12747C11.8971 0.270001 4.75291 9.50231 4.45374 10.0094C4.31148 10.2505 4.29282 10.4618 4.40074 10.6101C4.40766 10.6195 5.2017 10.6491 6.16533 10.6758L7.9174 10.7243L7.94017 14.8239L7.96295 18.9235L11.9261 18.8974C15.7943 18.872 15.8977 18.8668 16.2397 18.6823C16.6869 18.441 17.0261 18.0828 17.1987 17.6696C17.3136 17.3946 17.3347 16.8261 17.3347 14.0122V10.6805H18.9054C20.2163 10.6805 20.4987 10.6577 20.6136 10.5429C20.7887 10.3677 20.787 10.3459 20.5716 9.99263C20.2541 9.47192 13.1255 0.352697 12.8929 0.169695C12.6243 -0.0415165 12.3619 -0.0555325 12.1006 0.12747ZM0.907484 17.8109C0.494786 17.9906 0.0968048 18.5022 0.034081 18.9334C0.00394553 19.1402 -0.00858178 20.6828 0.00622314 22.3614L0.0331172 25.4135L0.239948 25.5808C0.44126 25.7438 0.765304 25.7482 12.5166 25.7482C24.2706 25.7482 24.5918 25.7438 24.7932 25.5807L25 25.4132V22.0482V18.6832L24.781 18.3599C24.437 17.852 24.004 17.6887 23.0012 17.6887H22.1529V20.273V22.8573H12.5166H2.88022V20.273V17.6887L2.02609 17.6922C1.52018 17.6942 1.06412 17.7426 0.907484 17.8109Z" fill="#F7D299"/>
</svg>
