<svg width="22" height="20" viewBox="0 0 22 20" fill="none" xmlns="http://www.w3.org/2000/svg">
<path fill-rule="evenodd" clip-rule="evenodd" d="M3.09519 0.0231051C2.32711 0.112254 1.59173 0.441298 1.04055 0.942436C0.480379 1.4518 0.124245 2.11696 0.0283756 2.83287C-0.00945852 3.11546 -0.00945852 16.8933 0.0283756 17.1759C0.151709 18.0969 0.720248 18.9459 1.55248 19.4519C1.97317 19.7077 2.33591 19.8478 2.83839 19.9485L3.09519 20H8.68348H14.2718L14.4028 19.934C14.6263 19.8214 14.7487 19.6363 14.7487 19.4107C14.7487 19.1851 14.6263 19 14.4028 18.8874L14.2718 18.8214L8.72016 18.8103L3.16856 18.7992L2.98029 18.7504C2.13596 18.5314 1.53856 17.9548 1.36758 17.1938C1.32303 16.9955 1.32178 16.7662 1.32794 9.92205L1.33432 2.8551L1.39067 2.68981C1.64059 1.95676 2.18057 1.46975 2.97547 1.26041L3.16856 1.20955H10.9946H18.8207L19.0285 1.25985C19.8595 1.46087 20.4726 2.04874 20.6454 2.81023C20.689 3.00223 20.6909 3.22051 20.6913 7.93791C20.6916 13.3629 20.6803 12.9696 20.8408 13.1466C20.8818 13.1918 20.9668 13.2563 21.0297 13.2899C21.1287 13.3429 21.1703 13.3511 21.3397 13.3511C21.4802 13.3511 21.5607 13.3396 21.6253 13.3104C21.7533 13.2525 21.8881 13.1263 21.9483 13.008L22 12.9063V7.85848V2.81063L21.9434 2.57714C21.833 2.12165 21.6785 1.79034 21.4001 1.41173C20.834 0.641989 19.9181 0.135937 18.8824 0.0206812C18.6209 -0.00842732 3.34667 -0.00607017 3.09519 0.0231051ZM6.43349 4.81356C5.80293 4.96359 5.34114 5.44258 5.26391 6.02667C5.17467 6.70152 5.62004 7.33868 6.33566 7.55994C6.55401 7.62746 6.94969 7.64373 7.16747 7.59417C7.45493 7.52875 7.71906 7.39285 7.92474 7.20457C8.21103 6.94253 8.35835 6.65204 8.38259 6.30183C8.40211 6.01999 8.35977 5.82208 8.22676 5.5736C8.13597 5.40398 8.08236 5.33758 7.91721 5.19019C7.68842 4.98603 7.50157 4.88665 7.22597 4.82254C7.00009 4.77002 6.63391 4.76586 6.43349 4.81356ZM14.0002 6.52872C13.6271 6.96654 13.2488 7.40984 13.1593 7.5138C13.0698 7.61776 12.7668 7.973 12.4858 8.30322C12.2049 8.63345 11.7318 9.18882 11.4346 9.53739C11.1373 9.88596 10.6319 10.4788 10.3114 10.8549C9.99094 11.231 9.72192 11.5385 9.71358 11.5382C9.70524 11.5379 9.57775 11.3503 9.43026 11.1213C9.17461 10.7243 8.93582 10.3573 8.55303 9.77304L8.37963 9.50837L6.40387 11.3185C5.3172 12.3141 4.12964 13.4064 3.76483 13.7458L3.10155 14.3629H7.41263H11.7237L11.9283 14.173C12.259 13.8662 12.6137 13.6766 13.0612 13.5675C13.2829 13.5135 13.3307 13.5104 14.1045 13.501L14.9154 13.4912L14.9267 12.754C14.9366 12.1058 14.9441 11.9933 14.9891 11.8219C15.1409 11.243 15.5708 10.737 16.1733 10.428C16.2506 10.3884 16.3139 10.3501 16.3139 10.343C16.3139 10.3358 16.2759 10.2192 16.2293 10.0838C16.1828 9.94836 16.1277 9.77055 16.1068 9.6886C16.0741 9.56038 15.2544 7.28311 14.8213 6.11733L14.6783 5.73262L14.0002 6.52872ZM17.0329 11.4477C16.9013 11.502 16.7606 11.6321 16.696 11.7591C16.6448 11.8597 16.6439 11.884 16.6371 13.456L16.6303 15.0508L14.8763 15.0571L13.1223 15.0633L12.979 15.1273C12.7509 15.2292 12.6258 15.4178 12.6234 15.6637C12.621 15.8979 12.7609 16.097 13 16.1999L13.1223 16.2526L14.8762 16.2528L16.63 16.253L16.637 17.8597L16.644 19.4663L16.7003 19.5701C16.8109 19.7743 17.0647 19.9222 17.3044 19.9222C17.5274 19.9222 17.7532 19.8001 17.873 19.6148L17.9402 19.5108L17.9525 17.8875L17.9647 16.2641L19.7378 16.253C21.6768 16.2409 21.5819 16.2476 21.7627 16.109C21.8653 16.0303 21.9621 15.8575 21.9798 15.7213C22.011 15.4823 21.8528 15.229 21.6015 15.1154L21.4864 15.0633L19.7194 15.057L17.9525 15.0506L17.9522 13.4559L17.952 11.8612L17.8941 11.75C17.7791 11.5293 17.5638 11.4063 17.2921 11.4063C17.1893 11.4063 17.0978 11.4209 17.0329 11.4477Z" fill="#F7D299"/>
</svg>
