<svg width="30" height="30" viewBox="0 0 30 30" fill="none" xmlns="http://www.w3.org/2000/svg">
<path d="M3.13627 0.0540398C1.64384 0.300233 0.396539 1.29673 0.0793079 2.50424C0.0216294 2.72699 0 6.46091 0 15.9276C0 28.4834 0.00720981 29.052 0.136986 29.2748C0.295602 29.5679 0.706561 29.8668 1.05984 29.9489C1.25451 29.9958 4.49892 30.0075 12.1557 29.9958L22.9776 29.9782L23.3237 29.8023C23.5761 29.6792 23.7275 29.5386 23.8572 29.3334L24.0447 29.0462L24.0663 24.9254L24.088 20.8046H26.4816C28.8248 20.8046 28.8897 20.7987 29.1997 20.6698C29.3727 20.5994 29.6179 20.4411 29.7332 20.3181L29.9567 20.0894L29.9784 17.1058L30 14.1222L29.8198 13.9757C29.589 13.7881 29.3151 13.7881 29.0916 13.9757L28.9113 14.1163V16.9593C28.9113 19.726 28.9041 19.8081 28.7671 19.8667C28.6806 19.9077 27.8371 19.9195 26.3374 19.9136L24.0447 19.896L24.0231 11.4551C24.0087 5.73406 24.0303 2.88526 24.0807 2.60976C24.2177 1.8829 24.7008 1.36707 25.5155 1.06226C26.0995 0.845374 26.907 0.845374 27.4766 1.06812C27.9524 1.2557 28.4932 1.70119 28.7167 2.09392L28.8753 2.36942L28.8897 7.43982C28.9041 10.23 28.9257 12.5688 28.9474 12.6392C28.9978 12.8092 29.3583 12.9616 29.5963 12.9147C30.0144 12.8326 29.9928 13.0729 29.9928 7.55706C29.9928 2.75044 29.9856 2.46321 29.8558 2.09392C29.5025 1.09157 28.5652 0.352988 27.2891 0.0892102C26.9142 0.00714598 25.5155 -0.00457748 15.1406 0.00128425C8.69503 0.00714598 3.29488 0.0305929 3.13627 0.0540398ZM23.8645 0.909853C23.8645 0.927438 23.7707 1.03881 23.6482 1.15605C23.2372 1.57809 23.0714 1.98255 22.9993 2.73285C22.9632 3.11973 22.9272 9.06352 22.9272 16.1855V28.9465L22.7686 29.0344C22.6244 29.1165 21.4852 29.1282 11.9899 29.1282C1.46359 29.1282 1.36986 29.1282 1.22567 29.011C1.08147 28.8938 1.08147 28.8176 1.08147 15.9217C1.08147 1.96496 1.06705 2.64493 1.43475 2.05875C1.75198 1.55464 2.59553 1.0564 3.31651 0.939162C3.66258 0.886406 23.8645 0.851236 23.8645 0.909853Z" fill="#F7D299"/>
</svg>
