<svg width="26" height="19" viewBox="0 0 26 19" fill="none" xmlns="http://www.w3.org/2000/svg">
<path fill-rule="evenodd" clip-rule="evenodd" d="M12.0539 8.62921L2.69562 17.2584L3.64103 18.1292L4.58644 19L13.9447 10.3708L23.303 1.74159L22.3576 0.870793L21.4122 0L12.0539 8.62921ZM11.9629 2.19909C10.7403 2.27566 9.29166 2.55791 8.10332 2.95105C4.76647 4.05511 2.00302 6.21042 0.269904 9.06069L0 9.50458L0.268402 9.9439C1.14009 11.3703 2.4953 12.8609 3.78305 13.8094L4.22159 14.1324L6.04759 12.4487L7.87354 10.765L7.79588 10.3909C7.6885 9.87324 7.69735 9.05052 7.81602 8.52026C8.32497 6.24656 10.479 4.63043 13.0005 4.63043C13.3081 4.63043 13.7422 4.66261 13.9652 4.70195L14.3707 4.77351L15.523 3.71176C16.1568 3.12779 16.6754 2.63711 16.6754 2.62135C16.6754 2.58335 15.7909 2.40385 15.1739 2.31662C14.1061 2.16567 13.0903 2.12848 11.9629 2.19909ZM19.9458 6.55601L18.1252 8.23525L18.2028 8.60925C18.3039 9.09678 18.3019 9.93258 18.1984 10.3971C17.9668 11.437 17.5228 12.2051 16.7286 12.9402C15.9263 13.6827 14.9881 14.1332 13.857 14.3191C13.4151 14.3917 12.5049 14.3812 12.0335 14.2981L11.628 14.2265L10.4757 15.2882C9.84182 15.8722 9.3233 16.3629 9.3233 16.3786C9.3233 16.3944 9.55043 16.4543 9.8281 16.5118C13.6835 17.3096 17.7684 16.6171 21.0311 14.6124C21.9851 14.0263 22.4871 13.6465 23.3053 12.8921C24.3202 11.9563 25.1378 10.964 25.7567 9.91716L26 9.50549L25.8879 9.30283C25.088 7.85709 23.4414 6.0513 22.0038 5.04325L21.7664 4.87678L19.9458 6.55601Z" fill="#C4C4C4"/>
</svg>
