<svg width="22" height="11" viewBox="0 0 22 11" fill="none" xmlns="http://www.w3.org/2000/svg">
<path fill-rule="evenodd" clip-rule="evenodd" d="M10.167 0.0197056C8.01847 0.153726 5.96406 0.785395 4.04615 1.90174C3.44416 2.25214 2.05999 3.29316 1.53149 3.793C1.07872 4.2212 0.327478 5.04801 0.12311 5.343L0 5.52072L0.216516 5.85933C1.34125 7.61867 3.33346 9.17539 5.56974 10.0424C7.26667 10.7002 8.91423 10.9954 10.9142 10.9999C11.8148 11.0019 12.3147 10.9692 13.0969 10.8568C15.9595 10.4456 18.6956 9.05434 20.7955 6.94218C21.1666 6.56887 21.7885 5.8453 21.9304 5.6216L22 5.51181L21.7515 5.19333C20.7262 3.87962 19.3849 2.72184 17.8252 1.80431C16.5771 1.07012 14.7562 0.415571 13.3163 0.183577C12.3685 0.0308711 11.0708 -0.0366392 10.167 0.0197056ZM11.5366 2.08459C12.6538 2.17975 13.4861 2.47216 14.2431 3.03541C14.8933 3.51922 15.2395 3.98466 15.4744 4.69068C15.6092 5.09574 15.6092 5.91252 15.4744 6.31758C15.1564 7.27338 14.4523 8.00596 13.4009 8.47501C12.6092 8.82822 11.5198 9.00238 10.57 8.92761C9.432 8.83806 8.58109 8.54949 7.81071 7.99189C7.21284 7.5592 6.81497 7.04716 6.59231 6.42385C6.48684 6.1286 6.47706 6.05031 6.47706 5.50413C6.47706 4.95795 6.48684 4.87966 6.59231 4.58441C6.81497 3.9611 7.21284 3.44906 7.81071 3.01637C8.80297 2.29819 10.1346 1.96518 11.5366 2.08459ZM10.442 3.48898C9.50562 3.64017 8.68183 4.21975 8.38046 4.93939C8.2479 5.2559 8.2479 5.75236 8.38046 6.06887C8.74846 6.9476 9.84177 7.56833 11.0215 7.56833C12.0044 7.56833 12.9776 7.11864 13.4365 6.45244C13.9987 5.63612 13.8035 4.70723 12.9315 4.04891C12.2699 3.54939 11.3496 3.34244 10.442 3.48898Z" fill="#F3BD6A"/>
</svg>
