<svg width="40" height="44" viewBox="0 0 40 44" fill="none" xmlns="http://www.w3.org/2000/svg">
<path fill-rule="evenodd" clip-rule="evenodd" d="M18.8673 0.0297129C16.8245 0.214452 14.8335 0.979208 13.3509 2.14864C12.8715 2.52681 12.0893 3.34951 11.7541 3.82827C10.8572 5.10916 10.4407 6.56499 10.3875 8.60559C10.3606 9.63856 10.426 11.1075 10.5355 11.9273C10.5749 12.2217 10.6085 12.5818 10.6102 12.7274L10.6134 12.9922L10.4514 13.0195C10.0572 13.0858 9.60708 13.5323 9.47502 13.9878C9.41835 14.1834 9.40942 14.3827 9.42654 15.074C9.44518 15.8295 9.46012 15.9636 9.56514 16.3197C9.81049 17.1513 10.1137 17.7363 10.5837 18.2849L10.8677 18.6163L10.8166 19.4196C10.6651 21.802 10.077 23.4259 8.91584 24.6678C8.4538 25.162 7.96963 25.5163 7.28942 25.858L6.7468 26.1305L7.41699 26.3537C10.9194 27.5198 13.5517 27.2318 15.4415 25.4756C15.6295 25.301 15.8073 25.1674 15.8367 25.1789C15.8661 25.1904 16.0854 25.3389 16.324 25.5088C18.0631 26.7481 19.6018 27.2551 20.7402 26.9641C21.7032 26.7179 22.8193 26.1444 23.8602 25.3609L24.1758 25.1233L24.5161 25.4382C25.1743 26.0476 25.8266 26.443 26.619 26.7132C27.9016 27.1503 29.6524 27.1531 31.3348 26.7207C31.9228 26.5695 33.196 26.1714 33.1968 26.1385C33.1971 26.1257 33.0062 26.0187 32.7726 25.9006C32.0965 25.5589 31.7745 25.323 31.2005 24.7489C30.5556 24.1039 30.354 23.8279 30.0428 23.1636C29.491 21.9857 29.1848 20.6112 29.1737 19.2626L29.1683 18.6145L29.3774 18.3537C29.7572 17.8801 30.0071 17.4475 30.2288 16.88C30.5414 16.0801 30.5943 15.7634 30.5758 14.8032C30.5618 14.0737 30.5526 13.9976 30.4542 13.7926C30.2397 13.3461 29.7441 12.9704 29.4667 13.0442C29.3325 13.0799 29.3149 13.0166 29.3631 12.6712C29.5562 11.2849 29.5988 10.6726 29.6014 9.24843C29.6034 8.07043 29.5896 7.71457 29.5255 7.29774C29.4374 6.72433 29.2945 6.11705 29.1238 5.59089C28.9574 5.07777 28.4886 4.13267 28.2238 3.7764C27.7958 3.20051 26.6841 2.12767 26.0976 1.72468C24.9915 0.964534 23.3501 0.361507 21.7202 0.11643C21.0092 0.00954101 19.5733 -0.0341277 18.8673 0.0297129ZM20.2688 5.87104C20.8608 6.7707 22.1744 8.07429 23.1794 8.75938C24.671 9.77617 26.9752 10.7966 27.7854 10.7994C27.939 10.7998 28.0141 10.8183 28.0141 10.8555C28.0138 11.2934 27.8454 12.5513 27.5972 13.97C27.4906 14.5796 27.3929 15.1382 27.3801 15.2113C27.3674 15.2845 27.4994 15.0663 27.6735 14.7266C27.8969 14.2905 28.0564 14.0397 28.216 13.8732C28.4701 13.6082 28.5871 13.5797 28.8196 13.726C29.4525 14.1241 29.4817 15.4595 28.8842 16.6743C28.7642 16.9182 28.568 17.2374 28.4481 17.3837C28.1202 17.7837 27.7977 18.292 27.4494 18.9575C26.5725 20.6331 25.8136 21.6899 24.5977 22.9288C23.5664 23.9796 22.6183 24.6956 21.5524 25.2287C20.7826 25.6138 20.4114 25.7142 19.8702 25.6839C18.0923 25.5843 15.1005 23.1463 13.3569 20.3762C13.0638 19.9107 12.7827 19.4158 12.4878 18.8467C12.1789 18.2504 11.9442 17.8792 11.6189 17.4723C11.3261 17.106 10.9397 16.3309 10.8013 15.832C10.7233 15.5512 10.7026 15.3619 10.7017 14.9231C10.7004 14.2994 10.7611 14.0926 11.0235 13.8254C11.4233 13.4185 11.8007 13.6797 12.3159 14.7199C12.4791 15.0495 12.6176 15.3141 12.6237 15.3079C12.6298 15.3017 12.5487 14.8186 12.4434 14.2343C12.18 12.7722 12.029 11.7074 12.0245 11.281C12.02 10.8497 12.0716 10.7741 12.3992 10.7328C12.8552 10.6754 13.8478 10.3334 14.6206 9.96756C15.6193 9.49474 16.7428 8.7886 17.6042 8.09229C18.1978 7.61242 19.0915 6.70566 19.4141 6.2559C19.9258 5.54248 19.9717 5.48458 20.0079 5.50732C20.0281 5.52009 20.1456 5.68373 20.2688 5.87104ZM11.3103 28.784C8.70922 29.6418 6.41664 30.4206 5.97472 30.5966C5.22603 30.8949 3.88751 31.5866 3.29602 31.981C2.20538 32.7083 1.5942 33.3411 1.24527 34.1041C0.384818 35.9859 0.127619 37.6814 0.0272661 42.133L0 43.3411H20H40L39.9721 42.1551C39.8652 37.6145 39.5857 35.8221 38.7054 34.0293C38.3973 33.4019 37.9666 32.9127 37.2262 32.3493C36.0943 31.4879 34.6985 30.8039 32.6062 30.0851C31.1785 29.5946 27.7482 28.4791 27.7287 28.499C27.719 28.5088 27.6609 28.8149 27.5996 29.1791C27.1845 31.6438 26.5353 33.2603 25.3125 34.8733C24.9036 35.4128 24.0267 36.3061 23.4407 36.7802C22.5166 37.5279 20.2888 38.9077 20.0058 38.9077C19.806 38.9077 18.3714 38.0757 17.3211 37.3507C15.4907 36.0873 13.9481 34.197 13.2327 32.341C12.8565 31.3652 12.4976 29.9896 12.3779 29.0656C12.3106 28.5456 12.2964 28.4887 12.2351 28.493C12.2056 28.495 11.7895 28.626 11.3103 28.784Z" fill="#FFD588"/>
</svg>
