<svg width="50" height="50" viewBox="0 0 50 50" fill="none" xmlns="http://www.w3.org/2000/svg">
<path d="M22.7198 0.120749C21.2475 0.325933 20.1791 0.609282 18.7458 1.15644C15.0585 2.56342 12.4265 5.18195 11.5796 8.25971C11.332 9.20747 11.319 9.56898 11.319 18.8023V28.3775L8.49161 29.1885C4.81729 30.2339 4.21793 30.488 2.84983 31.5237C1.65112 32.4323 0.934494 33.3215 0.361196 34.6112L0.0484875 35.2951L0.00939896 41.7438C-0.0166601 46.2676 0.00939896 48.2999 0.113635 48.5637C0.296048 49.0425 0.960553 49.5994 1.61203 49.8144C2.09412 49.9805 2.62833 50 8.55676 50H14.9803L15.293 49.7557C15.71 49.4528 15.71 49.0816 15.293 48.7787C14.9803 48.5344 14.9673 48.5344 12.3614 48.5344H9.75547V42.0369C9.75547 35.6664 9.75547 35.5394 9.49488 35.344C9.104 35.0509 8.41343 35.0802 8.07467 35.4026C7.80105 35.6567 7.80105 35.7348 7.80105 42.0955V48.5344H5.09091C2.58924 48.5344 2.35471 48.5149 2.14624 48.3488C1.93777 48.1827 1.92474 47.6746 1.96383 41.8317L2.00291 35.4906L2.35471 34.7578C3.00619 33.4387 4.36126 32.1978 5.83359 31.6018C6.57627 31.2989 13.5471 29.2666 13.6383 29.3253C13.6643 29.3546 13.4559 30.2242 13.1562 31.2599C12.4135 33.8979 12.4396 33.9468 15.0715 34.9825C15.8793 35.2951 16.5438 35.5785 16.5829 35.6176C16.609 35.6567 16.4657 36.1061 16.2572 36.6142C15.8142 37.7085 15.7881 38.1189 16.1269 38.5292C16.2702 38.6953 18.0813 39.9753 20.153 41.3627L23.9446 43.8933V46.209L23.9576 48.5344H21.4299C19.0846 48.5344 18.8892 48.5442 18.5634 48.7396C18.3159 48.8861 18.2247 49.0327 18.2247 49.2672C18.2247 49.5017 18.3159 49.6483 18.5634 49.7948C18.9152 50 18.9413 50 33.391 50C47.1111 50 47.8929 49.9902 48.388 49.8144C49.0395 49.5994 49.704 49.0425 49.8864 48.5637C49.9906 48.2999 50.0167 46.2774 49.9906 41.7926C49.9385 34.5819 49.9906 34.9825 48.8961 33.3019C48.388 32.53 48.0883 32.2272 47.1632 31.5334C46.5508 31.0644 45.756 30.5661 45.3912 30.4098C45.0394 30.2535 43.4237 29.7454 41.8081 29.2764L38.8764 28.4166L38.8113 26.8533C38.7331 25.0848 38.668 24.948 37.821 24.948C37.0002 24.948 36.8569 25.1923 36.8569 26.609C36.8569 27.2734 36.8438 27.8206 36.8308 27.8206C36.8047 27.8206 35.5278 27.4493 33.9904 26.9999L31.189 26.1889L31.1499 25.3388L31.1108 24.4986L32.1402 23.7364C33.7298 22.5542 34.707 21.2742 35.0588 19.8575L35.2151 19.2517L36.036 19.1149L36.8569 18.9684V20.6978C36.8569 22.2904 36.8829 22.437 37.1305 22.6812C37.4823 23.0134 38.1337 23.033 38.5246 22.7105C38.7983 22.4858 38.8113 22.4076 38.8113 20.1604C38.8113 18.0304 38.8373 17.8154 39.0588 17.5712C39.8667 16.7309 39.9318 15.2555 39.2152 14.2198L38.8113 13.6238V11.5036C38.8113 8.5626 38.5116 7.42921 37.2868 5.59232C35.5409 3.0031 32.2705 1.04896 28.4528 0.306391C26.7981 -0.0160405 24.2834 -0.0942059 22.7198 0.120749ZM27.0847 1.57658C29.43 1.88924 31.3584 2.62204 33.1044 3.87268C35.8145 5.79751 36.8569 7.77118 36.8569 11.0053V12.5979L36.5702 12.549C36.4008 12.5197 36.0621 12.4611 35.7884 12.4318C35.4366 12.3829 35.2933 12.3048 35.2412 12.1387C35.0979 11.7283 34.5246 11.3277 33.7558 11.1127C32.4659 10.7512 31.0587 10.1455 30.1597 9.56898C28.3095 8.38673 28.2834 8.37696 27.632 8.37696C26.8632 8.37696 26.759 8.43559 24.6743 9.99889C22.1205 11.9139 19.4494 13.3307 16.8566 14.171C14.837 14.8256 14.837 14.8256 14.837 17.2878C14.837 19.3201 14.9673 20.0431 15.5275 21.0788C16.0618 22.0754 16.6741 22.7496 17.8077 23.5997L18.8892 24.4204L18.8501 25.2998L18.811 26.1889L16.0357 26.9901L13.2604 27.801L13.2995 18.2649L13.3386 8.71894L13.7034 7.85912C15.5406 3.44278 21.2084 0.785154 27.0847 1.57658ZM28.4659 10.4386C29.4561 11.1127 30.8372 11.7674 32.1662 12.1973L33.2737 12.5588L33.3128 15.7147C33.3519 19.2029 33.2737 19.7305 32.5701 20.8346C30.0815 24.7721 23.1498 25.6026 19.0325 22.4663C18.4331 22.007 18.0683 21.6162 17.6514 20.9518C16.8956 19.7793 16.7914 19.3396 16.7914 17.4148V15.8222L18.3028 15.2751C21.039 14.2882 23.7752 12.7835 26.2378 10.9271C26.9544 10.3799 27.5798 9.94027 27.632 9.94027C27.6841 9.94027 28.0619 10.165 28.4659 10.4386ZM36.6614 14.2198C37.4041 14.6009 37.795 15.2164 37.7429 15.9199C37.6517 16.8286 36.909 17.4735 35.6581 17.6982L35.2933 17.7568V15.7929V13.829L35.7233 13.8974C35.9448 13.9365 36.3748 14.083 36.6614 14.2198ZM23.8795 25.7883C25.3388 25.9251 27.0456 25.8078 28.3095 25.4756C28.7395 25.3682 29.0913 25.2802 29.1043 25.2802C29.1173 25.2802 29.1694 25.5831 29.1955 25.9544C29.2737 26.7947 29.6255 27.2539 30.3551 27.4982C30.6418 27.5861 30.8503 27.7131 30.8242 27.7717C30.7981 27.8206 30.6027 28.2798 30.4072 28.7879C30.0555 29.6282 29.9903 29.7161 29.5082 29.9506C29.2085 30.0874 28.4789 30.3414 27.8665 30.4978C26.8372 30.7811 26.6287 30.8006 25 30.8006C23.4234 30.8006 23.1368 30.7713 22.2508 30.5368C21.7035 30.3903 20.9739 30.146 20.6221 29.9994C19.9967 29.7161 19.9836 29.6966 19.5537 28.6999C19.2931 28.0942 19.1758 27.6643 19.254 27.6447C19.5537 27.5666 20.2312 27.166 20.4657 26.9315C20.6351 26.7654 20.7394 26.4527 20.7915 25.9544L20.8696 25.2216L21.7426 25.4463C22.2247 25.5733 23.1889 25.7199 23.8795 25.7883ZM18.4331 30.8202C19.0455 32.2662 20.3094 35.1779 21.2345 37.2981C22.1465 39.4184 22.8892 41.1673 22.8632 41.1771C22.8371 41.1966 18.7328 38.4902 18.1204 38.0407L17.8207 37.816L18.2377 36.7705C18.9022 35.0704 18.7067 34.7675 16.3484 33.8295C15.1497 33.3606 14.7067 33.1261 14.7067 32.999C14.7067 32.8427 15.8663 28.6804 15.9315 28.6316C15.9705 28.5925 17.1171 28.2212 17.2084 28.2212C17.2605 28.2114 17.8077 29.3839 18.4331 30.8202ZM33.5734 28.4557C33.8731 28.5436 34.1207 28.6511 34.1207 28.6902C34.1207 28.7195 34.3813 29.677 34.707 30.8006C35.0327 31.9243 35.2803 32.9306 35.2673 33.0284C35.2412 33.1358 34.6418 33.4387 33.5995 33.8589C32.2314 34.4158 31.9317 34.5721 31.6841 34.9043C31.3063 35.4124 31.3063 35.5883 31.7753 36.8096L32.1662 37.8355L31.8666 38.0505C31.2411 38.5097 27.1629 41.2064 27.1368 41.1771C27.1108 41.1673 27.8535 39.4184 28.7655 37.2981C29.6906 35.1779 30.9545 32.2565 31.5799 30.8202C32.3226 29.1005 32.7656 28.2114 32.8568 28.2407C32.948 28.27 33.2607 28.3677 33.5734 28.4557ZM40.1142 30.3512C42.1338 30.9374 44.1013 31.5628 44.5052 31.7484C45.4954 32.1881 46.642 33.1554 47.2023 34.0152C48.0492 35.2951 48.0622 35.3929 48.0622 42.1248C48.0622 47.6257 48.0362 48.1924 47.8407 48.3585C47.6453 48.5149 47.3847 48.5344 44.9091 48.5344H42.199V42.0955C42.199 35.7348 42.199 35.6567 41.9253 35.4026C41.5866 35.0802 40.896 35.0509 40.5051 35.344C40.2445 35.5394 40.2445 35.6664 40.2445 42.0369V48.5344H33.1434H26.0424L26.0554 46.209L26.0684 43.8933L29.7949 41.4018C31.8535 40.0241 33.6646 38.754 33.821 38.5781C34.2119 38.1482 34.1988 37.7476 33.7428 36.6142C33.5343 36.1061 33.391 35.6567 33.4171 35.6176C33.4562 35.5785 34.1207 35.2951 34.9285 34.9825C36.5441 34.3474 37.0523 34.0347 37.2347 33.5169C37.378 33.1456 37.365 33.0674 36.7396 30.869C36.3357 29.4621 36.2966 29.2862 36.3878 29.2862C36.4139 29.2862 38.0947 29.765 40.1142 30.3512ZM22.811 32.1588C24.5961 32.4323 27.2411 32.3053 28.6222 31.8754C28.8437 31.7972 29.0392 31.7679 29.0392 31.807C29.0522 31.9438 25.0651 41.1087 25 41.1087C24.9349 41.1087 20.9478 31.9438 20.9609 31.807C20.9609 31.7679 21.1563 31.7972 21.3908 31.8754C21.6123 31.9438 22.2638 32.0708 22.811 32.1588Z" fill="#F7D299"/>
</svg>
