<svg width="20" height="20" viewBox="0 0 20 20" fill="none" xmlns="http://www.w3.org/2000/svg">
<path d="M0.387931 0.119269C0.24569 0.211442 0.168103 0.309035 0.0948276 0.487958L0 0.731942L0.00862069 4.01218C0.0215517 7.25446 0.0215517 7.29242 0.116379 7.50929C0.314655 7.97557 0.625 8.20871 1.03448 8.20871C1.44397 8.20871 1.75431 7.97557 1.95259 7.50929C2.0431 7.30326 2.04741 7.20567 2.06034 5.86104L2.07328 4.42424L4.6681 7.68821C6.47414 9.95456 7.31034 10.9739 7.42241 11.0335C7.78017 11.2179 8.28017 11.0932 8.55172 10.757C8.81896 10.4154 8.9181 9.78648 8.77155 9.33647C8.72414 9.1955 7.91379 8.14365 6.11207 5.87188L3.51724 2.60791L4.65948 2.59165C5.72845 2.57538 5.80603 2.56996 5.96983 2.4561C6.34052 2.20669 6.52586 1.81632 6.52586 1.30124C6.52586 0.78616 6.34052 0.395785 5.96983 0.146379C5.79741 0.0270977 5.76724 0.0270977 3.18965 0.0108318L0.581896 -1.14441e-05L0.387931 0.119269Z" fill="#F7D299"/>
<path d="M14.2242 0.0487852C13.75 0.23313 13.4742 0.693989 13.4742 1.30124C13.4742 1.81632 13.6595 2.20669 14.0302 2.4561C14.194 2.56996 14.2716 2.57538 15.3405 2.59165L16.4828 2.60791L13.888 5.87188C12.0862 8.14365 11.2759 9.1955 11.2285 9.33647C11.0819 9.78648 11.1811 10.4154 11.4483 10.757C11.7199 11.0932 12.2199 11.2179 12.5776 11.0335C12.6897 10.9739 13.5259 9.95456 15.3319 7.68821L17.9267 4.42424L17.9397 5.86104C17.9526 7.20567 17.9569 7.30326 18.0474 7.50929C18.2457 7.97557 18.5561 8.20871 18.9655 8.20871C19.3836 8.20871 19.6897 7.97015 19.8966 7.48218C19.9742 7.30326 19.9785 7.09181 19.9914 4.01218L20 0.731942L19.9052 0.487958C19.8319 0.309035 19.7543 0.211442 19.6121 0.119269L19.4224 -1.14441e-05L16.875 0.00541019C15.4785 0.00541019 14.2845 0.0270977 14.2242 0.0487852Z" fill="#F7D299"/>
<path d="M7.47845 8.96648C7.38362 9.00985 7.29741 9.0478 7.28448 9.0478C7.27586 9.0478 6.09483 10.5171 4.6681 12.3118L2.07328 15.5757L2.06034 14.1389C2.04741 12.7943 2.0431 12.6967 1.95259 12.4907C1.75431 12.0244 1.44397 11.7913 1.03448 11.7913C0.616379 11.7913 0.310345 12.0298 0.103448 12.5178C0.0258621 12.6967 0.0215517 12.9082 0.00862069 15.9878L0 19.268L0.0948276 19.512C0.168103 19.691 0.24569 19.7885 0.387931 19.8807L0.581897 20L3.18966 19.9892C5.76724 19.9729 5.79741 19.9729 5.96983 19.8536C6.34052 19.6042 6.52586 19.2138 6.52586 18.6987C6.52586 18.1728 6.33621 17.7879 5.94828 17.5276C5.81466 17.4355 5.65948 17.4192 4.66379 17.3975L3.53448 17.3704L6.0819 14.1715C7.55172 12.3226 8.66379 10.8804 8.71983 10.7557C8.84052 10.4738 8.84483 9.92073 8.73276 9.64421C8.48707 9.0478 7.93534 8.7496 7.47845 8.96648Z" fill="#F7D299"/>
<path d="M11.8535 9.00985C11.6466 9.09118 11.3104 9.52493 11.2543 9.78518C11.1897 10.0834 11.194 10.4846 11.2716 10.7177C11.319 10.8587 12.1293 11.9106 13.9095 14.1552L16.4828 17.3921L15.3405 17.4083C14.3276 17.4246 14.1854 17.4355 14.0517 17.5276C13.6638 17.7879 13.4742 18.1728 13.4742 18.6987C13.4742 19.2138 13.6595 19.6042 14.0302 19.8536C14.2026 19.9729 14.2328 19.9729 16.8104 19.9892L19.4181 20L19.6121 19.8807C19.7543 19.7885 19.8319 19.691 19.9052 19.512L20 19.268L19.9914 15.9878C19.9785 12.7455 19.9785 12.7076 19.8836 12.4907C19.6854 12.0244 19.375 11.7913 18.9655 11.7913C18.5474 11.7913 18.2414 12.0298 18.0345 12.5178C17.9612 12.6859 17.9526 12.8648 17.9397 14.1389L17.9267 15.5757L15.3535 12.3389C13.569 10.0996 12.7328 9.08033 12.6207 9.02069C12.4354 8.92852 12.0776 8.9231 11.8535 9.00985Z" fill="#F7D299"/>
</svg>
