<svg width="24" height="19" viewBox="0 0 24 19" fill="none" xmlns="http://www.w3.org/2000/svg">
<path fill-rule="evenodd" clip-rule="evenodd" d="M3.37657 0.0219498C2.53866 0.106641 1.73643 0.419233 1.13515 0.895314C0.52405 1.37921 0.13554 2.01111 0.0309552 2.69122C-0.0103184 2.95968 -0.0103184 16.0486 0.0309552 16.3171C0.165501 17.192 0.785725 17.9986 1.69361 18.4793C2.15255 18.7223 2.54827 18.8554 3.09643 18.9511L3.37657 19H9.47289H15.5692L15.7121 18.9373C15.956 18.8304 16.0895 18.6545 16.0895 18.4402C16.0895 18.2258 15.956 18.05 15.7121 17.943L15.5692 17.8804L9.51291 17.8698L3.45661 17.8592L3.25123 17.8128C2.33013 17.6048 1.67843 17.057 1.49191 16.3341C1.4433 16.1457 1.44194 15.9278 1.44866 9.42595L1.45563 2.71235L1.5171 2.55532C1.78974 1.85893 2.3788 1.39626 3.24597 1.19739L3.45661 1.14907H11.9941H20.5316L20.7584 1.19686C21.6649 1.38783 22.3337 1.9463 22.5223 2.66972C22.5698 2.85211 22.5719 3.05948 22.5723 7.54101C22.5727 12.6948 22.5604 12.3211 22.7354 12.4893C22.7801 12.5322 22.8728 12.5935 22.9415 12.6254C23.0495 12.6757 23.0949 12.6835 23.2796 12.6835C23.4329 12.6835 23.5208 12.6726 23.5912 12.6449C23.7309 12.5898 23.8779 12.47 23.9436 12.3576L24 12.261V7.46555V2.6701L23.9382 2.44828C23.8178 2.01557 23.6493 1.70082 23.3455 1.34114C22.728 0.60989 21.7288 0.12914 20.599 0.0196471C20.3137 -0.00800595 3.65091 -0.00576666 3.37657 0.0219498ZM7.01835 4.57288C6.33047 4.71541 5.8267 5.17045 5.74245 5.72533C5.64509 6.36644 6.13096 6.97175 6.91163 7.18195C7.14983 7.24608 7.58148 7.26155 7.81906 7.21446C8.13266 7.15231 8.4208 7.02321 8.64517 6.84434C8.95749 6.5954 9.11821 6.31944 9.14464 5.98674C9.16594 5.71899 9.11975 5.53098 8.97464 5.29492C8.87561 5.13378 8.81713 5.0707 8.63696 4.93068C8.38737 4.73673 8.18353 4.64232 7.88288 4.58142C7.63647 4.53152 7.23699 4.52757 7.01835 4.57288ZM15.2729 6.20228C14.866 6.61822 14.4532 7.03935 14.3556 7.13811C14.258 7.23687 13.9274 7.57435 13.6209 7.88806C13.3144 8.20177 12.7983 8.72938 12.4741 9.06052C12.1498 9.39166 11.5984 9.9549 11.2488 10.3122C10.8992 10.6695 10.6057 10.9616 10.5966 10.9613C10.5875 10.961 10.4485 10.7828 10.2876 10.5652C10.0087 10.1881 9.74817 9.83945 9.33058 9.28438L9.14142 9.03295L6.98604 10.7526C5.80058 11.6984 4.50507 12.7361 4.10708 13.0585L3.3835 13.6447H8.0865H12.7895L13.0127 13.4644C13.3734 13.1729 13.7605 12.9928 14.2486 12.8891C14.4904 12.8378 14.5426 12.8349 15.3867 12.826L16.2714 12.8166L16.2837 12.1163C16.2944 11.5005 16.3026 11.3936 16.3517 11.2308C16.5174 10.6808 16.9863 10.2002 17.6436 9.90663C17.7279 9.86897 17.797 9.83259 17.797 9.82583C17.797 9.81905 17.7555 9.70824 17.7047 9.57959C17.654 9.45094 17.5939 9.28202 17.5711 9.20417C17.5354 9.08236 16.6411 6.91896 16.1686 5.81146L16.0127 5.44599L15.2729 6.20228ZM18.5813 10.8753C18.4377 10.9269 18.2843 11.0505 18.2138 11.1712C18.1579 11.2667 18.157 11.2898 18.1496 12.7832L18.1421 14.2983L16.2287 14.3042L14.3153 14.3102L14.1589 14.371C13.91 14.4677 13.7736 14.6469 13.7709 14.8806C13.7684 15.103 13.921 15.2921 14.1819 15.39L14.3153 15.44L16.2285 15.4402L18.1418 15.4404L18.1495 16.9667L18.1571 18.493L18.2185 18.5916C18.3391 18.7856 18.616 18.9261 18.8775 18.9261C19.1208 18.9261 19.3671 18.8101 19.4978 18.634L19.5712 18.5352L19.5845 16.9931L19.5978 15.4509L21.5321 15.4404C23.6475 15.4288 23.5439 15.4352 23.7412 15.3035C23.8531 15.2288 23.9587 15.0646 23.978 14.9352C24.012 14.7082 23.8394 14.4675 23.5652 14.3596L23.4397 14.3102L21.5121 14.3041L19.5845 14.298L19.5842 12.7831L19.584 11.2681L19.5208 11.1625C19.3954 10.9528 19.1605 10.836 18.8642 10.836C18.752 10.836 18.6521 10.8499 18.5813 10.8753Z" fill="#A09481"/>
</svg>
