<svg width="23" height="21" viewBox="0 0 23 21" fill="none" xmlns="http://www.w3.org/2000/svg">
<path fill-rule="evenodd" clip-rule="evenodd" d="M12.9707 0.0386973C12.9052 0.0577318 12.8169 0.122194 12.7747 0.181888C12.6984 0.2896 12.6978 0.317156 12.6978 3.81725V7.34408L13.2732 7.36904C14.159 7.40741 15.9454 7.59761 16.5362 7.71636L16.6566 7.74057V4.00868C16.6566 0.619231 16.651 0.268726 16.5957 0.189359C16.466 0.00314371 16.4038 -0.00301341 14.6877 0.0006283C13.8089 0.00250547 13.0363 0.0196252 12.9707 0.0386973ZM7.72169 2.49632C7.50111 2.61665 7.50645 2.55054 7.50645 5.16296V7.55417L7.73988 7.52939C8.85552 7.41094 10.3299 7.31821 11.0973 7.31821H11.5026V5.06189C11.5026 2.57948 11.5055 2.61185 11.2754 2.49223C11.1176 2.4102 7.87272 2.41395 7.72169 2.49632ZM2.66994 4.48004C2.60832 4.50737 2.52429 4.56759 2.48321 4.61388C2.41068 4.69558 2.40821 4.75869 2.39828 6.79534L2.38801 8.8927L2.63629 8.78075C3.00499 8.61443 4.02088 8.27035 4.58214 8.12164C4.96633 8.01982 6.28993 7.73118 6.37247 7.73118C6.38128 7.73118 6.38371 7.04872 6.37792 6.21458C6.36776 4.75903 6.36433 4.6946 6.29266 4.61381C6.13109 4.43176 6.08467 4.42726 4.37979 4.42883C3.13765 4.43 2.75704 4.44137 2.66994 4.48004ZM10.2328 8.10936C5.1772 8.27906 1.16118 9.57291 0.228196 11.3325C0.010908 11.7423 0.00355058 11.8302 0.000450726 14.0472C-0.00264912 16.28 0.00388664 16.357 0.233462 16.794C0.46864 17.2419 1.10407 17.8005 1.82962 18.1975C3.37835 19.0448 6.12642 19.7102 9.01335 19.937C9.55508 19.9795 9.61532 19.978 9.72412 19.9191C9.80837 19.8735 9.94596 19.6916 10.1966 19.2944L10.5503 18.7341L10.569 19.3687L10.5876 20.0032L10.6959 20.1167C10.7688 20.1931 10.8554 20.2379 10.9606 20.2538C11.1894 20.2883 13.6917 20.2059 14.4531 20.1388C16.0384 19.9992 17.3719 19.765 18.65 19.4019C19.51 19.1576 19.5324 19.1368 19.5324 18.5831C19.5324 18.3363 19.5451 18.2433 19.5791 18.2433C19.6048 18.2433 19.8996 18.2793 20.2343 18.3233L20.8428 18.4032L21.112 18.2628C21.9095 17.8465 22.5202 17.3009 22.7779 16.7744C22.8626 16.6015 22.9491 16.3639 22.9703 16.2464C22.9948 16.1097 23.0048 15.1162 22.9979 13.487L22.987 10.9411L22.8842 10.683C22.6429 10.0771 22.139 9.57359 21.269 9.06919C20.8394 8.82009 20.0435 8.48205 19.8867 8.48205C19.8142 8.48205 19.3854 8.59198 18.9338 8.72638L18.1128 8.97068L17.7349 8.85786C16.5511 8.50432 14.3088 8.19128 12.3521 8.10639C11.4563 8.06754 11.4799 8.0675 10.2328 8.10936ZM13.2393 9.00796C14.3168 9.09739 16.3995 9.37498 16.4617 9.43746C16.4701 9.44594 16.362 9.48701 16.2214 9.52872C16.0807 9.57043 14.9337 9.91035 13.6723 10.2841C12.4109 10.6578 11.347 10.9807 11.308 11.0017C11.2691 11.0226 11.2046 11.0936 11.1647 11.1594C11.0997 11.2664 11.0921 11.3521 11.092 11.9714L11.0918 12.6638L10.2652 13.9894C9.60158 15.0534 9.42291 15.3149 9.35949 15.3147C9.14288 15.3142 7.89491 15.1885 7.30104 15.1076C5.32842 14.8385 3.78376 14.424 2.55566 13.8342C1.74044 13.4426 1.2262 13.0397 0.988668 12.6066C0.843423 12.3417 0.834982 12.0035 0.967342 11.75C1.18093 11.3409 1.82734 10.8315 2.58599 10.4745C4.31776 9.65952 6.8773 9.13546 9.93427 8.96985C10.6478 8.93122 12.5836 8.95352 13.2393 9.00796ZM20.2763 9.52865C21.4549 10.059 22.1467 10.7057 22.1467 11.2771C22.1467 11.7184 21.7325 12.2175 21.002 12.6566L20.7088 12.8328L17.0366 12.0687C15.0169 11.6485 13.3576 11.2978 13.3493 11.2895C13.3365 11.2766 19.7608 9.35539 19.841 9.34814C19.8567 9.34671 20.0526 9.42792 20.2763 9.52865ZM16.1784 12.762C18.4638 13.2369 20.3466 13.6255 20.3625 13.6255C20.3784 13.6255 20.3914 14.4967 20.3914 15.5615C20.3914 17.3876 20.3877 17.4964 20.326 17.4785C20.2901 17.468 20.0968 17.4394 19.8965 17.415L19.5324 17.3706V16.4417C19.5324 15.5581 19.5286 15.508 19.4548 15.4136C19.4121 15.3591 19.3484 15.299 19.3132 15.2801C19.23 15.2353 12.4587 13.8883 12.3168 13.8883C12.1952 13.8883 11.9882 13.9835 11.9882 14.0394C11.9882 14.0596 11.9714 14.076 11.9508 14.076C11.9268 14.076 11.9135 13.6881 11.9135 12.9873C11.9135 12.055 11.9213 11.8985 11.9683 11.8985C11.9984 11.8985 13.893 12.2871 16.1784 12.762ZM10.8312 16.1316C10.5808 16.5906 10.569 16.6235 10.569 16.8616C10.569 17.1082 10.5659 17.1158 10.2795 17.5678L9.99007 18.0249L9.9801 17.0457L9.97016 16.0665L10.4801 15.2496C10.7605 14.8003 11.0087 14.4089 11.0316 14.3799C11.0626 14.3405 11.0757 14.4949 11.0833 14.989L11.0935 15.6509L10.8312 16.1316ZM14.873 15.2472C16.1412 15.4998 17.158 15.7177 17.1325 15.7315C17.0082 15.7982 15.5524 16.0256 14.6398 16.1207C13.5481 16.2345 11.707 16.3261 11.7315 16.2655C11.7722 16.1644 12.5326 14.7905 12.5484 14.7893C12.5586 14.7886 13.6047 14.9946 14.873 15.2472Z" fill="black"/>
</svg>
