<svg width="20" height="20" viewBox="0 0 20 20" fill="none" xmlns="http://www.w3.org/2000/svg">
<path fill-rule="evenodd" clip-rule="evenodd" d="M16.4364 0.436364C16.1964 0.676364 16 1.29891 16 1.81964C16 3.25891 14.0051 4.95491 11.9724 5.24364C10.1047 5.50909 9.09091 5.25418 9.09091 4.51927C9.09091 3.82691 7.75164 3.18727 6.88036 3.46364C6.452 3.59964 6.064 4.13527 5.93818 4.76364C5.66364 6.13709 3.88509 7.63636 2.53018 7.63636C1.08 7.63636 0.456364 8.80473 1.25527 10.0244C1.57418 10.5109 2.00545 10.9091 2.21418 10.9091C3.12982 10.9091 4 10.0967 4 9.24255C4 8.02618 5.68364 6.57164 7.10909 6.55709C7.71891 6.55055 8.388 6.37564 8.59527 6.16836C9.10945 5.65418 10.9091 6.35455 10.9091 7.06909C10.9091 7.59782 11.9553 8.36364 12.6775 8.36364C13.3196 8.36364 14.1818 7.24364 14.1818 6.40909C14.1818 5.38836 16.3225 3.27273 17.3549 3.27273C18.2135 3.27273 19.2727 2.38545 19.2727 1.66691C19.2727 1.05891 18.088 0 17.4076 0C17.1135 0 16.6764 0.196364 16.4364 0.436364ZM15.9178 12.7978C15.8193 19.0127 15.808 19.0924 15 19.2073C14.1956 19.3215 14.1818 19.2578 14.1818 15.48V11.6364H12.5455H10.9091V15.4545C10.9091 19.2724 10.9091 19.2727 10.0109 19.2727H9.11273L9.01091 14.6364L8.90909 10H7.45455H6L5.89818 14.6604C5.79782 19.2407 5.78218 19.3185 4.98909 19.2058C4.25818 19.1018 4.17164 18.8567 4.07382 16.6164L3.96582 14.1418L2.43745 14.2527L0.909091 14.3636L0.801455 16.8182C0.742545 18.1684 0.537818 19.2727 0.346909 19.2727C0.156 19.2727 0 19.4364 0 19.6364C0 19.8698 3.57564 20 10 20C16.4244 20 20 19.8698 20 19.6364C20 19.4364 19.8404 19.2727 19.6451 19.2727C19.4316 19.2727 19.2502 16.7702 19.1905 13L19.0909 6.72727L17.5542 6.616L16.0175 6.50436L15.9178 12.7978Z" fill="black"/>
</svg>
