<svg width="9" height="12" viewBox="0 0 9 12" fill="none" xmlns="http://www.w3.org/2000/svg">
<path fill-rule="evenodd" clip-rule="evenodd" d="M0.0689704 0.12973C-0.00638594 0.273405 -0.0278192 2.56259 0.0443052 2.76627C0.0672126 2.83092 0.6856 3.54519 1.41847 4.3533C2.36606 5.39838 2.75095 5.87816 2.75095 6.01438C2.75095 6.15049 2.3799 6.61427 1.46882 7.61654C0.763678 8.39232 0.144894 9.09384 0.0938057 9.17535C0.017939 9.29654 0.000928514 9.54519 0.000928514 10.5321C0.000928514 11.8008 0.0354598 12 0.255575 12C0.404927 12 5.44121 6.47005 5.51226 6.22811C5.54101 6.12995 5.55014 5.96281 5.53245 5.85676C5.49485 5.6307 0.413092 0 0.24673 0C0.186399 0 0.106393 0.0583785 0.0689704 0.12973ZM3.52776 0.12973C3.45241 0.273405 3.43103 2.56173 3.5031 2.76757C3.52601 2.83286 4.14439 3.5453 4.87726 4.35059C5.81686 5.38303 6.20975 5.8707 6.20975 6.00422C6.20975 6.13741 5.82871 6.61459 4.92733 7.61038C4.22196 8.38951 3.60323 9.09384 3.55232 9.17535C3.47673 9.29643 3.45972 9.54768 3.45972 10.5405C3.45972 11.8574 3.50418 12.071 3.75911 11.9781C3.98359 11.8963 8.95285 6.37416 8.9871 6.16843C9.00468 6.06281 9.00423 5.90281 8.98614 5.81297C8.94435 5.60519 3.85215 0 3.70524 0C3.64502 0 3.56519 0.0583785 3.52776 0.12973Z" fill="#DADADA"/>
<path fill-rule="evenodd" clip-rule="evenodd" d="M0.0689704 0.12973C-0.00638594 0.273405 -0.0278192 2.56259 0.0443052 2.76627C0.0672126 2.83092 0.6856 3.54519 1.41847 4.3533C2.36606 5.39838 2.75095 5.87816 2.75095 6.01438C2.75095 6.15049 2.3799 6.61427 1.46882 7.61654C0.763678 8.39232 0.144894 9.09384 0.0938057 9.17535C0.017939 9.29654 0.000928514 9.54519 0.000928514 10.5321C0.000928514 11.8008 0.0354598 12 0.255575 12C0.404927 12 5.44121 6.47005 5.51226 6.22811C5.54101 6.12995 5.55014 5.96281 5.53245 5.85676C5.49485 5.6307 0.413092 0 0.24673 0C0.186399 0 0.106393 0.0583785 0.0689704 0.12973ZM3.52776 0.12973C3.45241 0.273405 3.43103 2.56173 3.5031 2.76757C3.52601 2.83286 4.14439 3.5453 4.87726 4.35059C5.81686 5.38303 6.20975 5.8707 6.20975 6.00422C6.20975 6.13741 5.82871 6.61459 4.92733 7.61038C4.22196 8.38951 3.60323 9.09384 3.55232 9.17535C3.47673 9.29643 3.45972 9.54768 3.45972 10.5405C3.45972 11.8574 3.50418 12.071 3.75911 11.9781C3.98359 11.8963 8.95285 6.37416 8.9871 6.16843C9.00468 6.06281 9.00423 5.90281 8.98614 5.81297C8.94435 5.60519 3.85215 0 3.70524 0C3.64502 0 3.56519 0.0583785 3.52776 0.12973Z" fill="#DADADA"/>
<path fill-rule="evenodd" clip-rule="evenodd" d="M0.0689704 0.12973C-0.00638594 0.273405 -0.0278192 2.56259 0.0443052 2.76627C0.0672126 2.83092 0.6856 3.54519 1.41847 4.3533C2.36606 5.39838 2.75095 5.87816 2.75095 6.01438C2.75095 6.15049 2.3799 6.61427 1.46882 7.61654C0.763678 8.39232 0.144894 9.09384 0.0938057 9.17535C0.017939 9.29654 0.000928514 9.54519 0.000928514 10.5321C0.000928514 11.8008 0.0354598 12 0.255575 12C0.404927 12 5.44121 6.47005 5.51226 6.22811C5.54101 6.12995 5.55014 5.96281 5.53245 5.85676C5.49485 5.6307 0.413092 0 0.24673 0C0.186399 0 0.106393 0.0583785 0.0689704 0.12973ZM3.52776 0.12973C3.45241 0.273405 3.43103 2.56173 3.5031 2.76757C3.52601 2.83286 4.14439 3.5453 4.87726 4.35059C5.81686 5.38303 6.20975 5.8707 6.20975 6.00422C6.20975 6.13741 5.82871 6.61459 4.92733 7.61038C4.22196 8.38951 3.60323 9.09384 3.55232 9.17535C3.47673 9.29643 3.45972 9.54768 3.45972 10.5405C3.45972 11.8574 3.50418 12.071 3.75911 11.9781C3.98359 11.8963 8.95285 6.37416 8.9871 6.16843C9.00468 6.06281 9.00423 5.90281 8.98614 5.81297C8.94435 5.60519 3.85215 0 3.70524 0C3.64502 0 3.56519 0.0583785 3.52776 0.12973Z" fill="#DADADA"/>
<path fill-rule="evenodd" clip-rule="evenodd" d="M0.0689704 0.12973C-0.00638594 0.273405 -0.0278192 2.56259 0.0443052 2.76627C0.0672126 2.83092 0.6856 3.54519 1.41847 4.3533C2.36606 5.39838 2.75095 5.87816 2.75095 6.01438C2.75095 6.15049 2.3799 6.61427 1.46882 7.61654C0.763678 8.39232 0.144894 9.09384 0.0938057 9.17535C0.017939 9.29654 0.000928514 9.54519 0.000928514 10.5321C0.000928514 11.8008 0.0354598 12 0.255575 12C0.404927 12 5.44121 6.47005 5.51226 6.22811C5.54101 6.12995 5.55014 5.96281 5.53245 5.85676C5.49485 5.6307 0.413092 0 0.24673 0C0.186399 0 0.106393 0.0583785 0.0689704 0.12973ZM3.52776 0.12973C3.45241 0.273405 3.43103 2.56173 3.5031 2.76757C3.52601 2.83286 4.14439 3.5453 4.87726 4.35059C5.81686 5.38303 6.20975 5.8707 6.20975 6.00422C6.20975 6.13741 5.82871 6.61459 4.92733 7.61038C4.22196 8.38951 3.60323 9.09384 3.55232 9.17535C3.47673 9.29643 3.45972 9.54768 3.45972 10.5405C3.45972 11.8574 3.50418 12.071 3.75911 11.9781C3.98359 11.8963 8.95285 6.37416 8.9871 6.16843C9.00468 6.06281 9.00423 5.90281 8.98614 5.81297C8.94435 5.60519 3.85215 0 3.70524 0C3.64502 0 3.56519 0.0583785 3.52776 0.12973Z" fill="#DADADA"/>
</svg>
