<svg width="50" height="51" viewBox="0 0 50 51" fill="none" xmlns="http://www.w3.org/2000/svg">
<path fill-rule="evenodd" clip-rule="evenodd" d="M29.708 0.10109C28.0416 0.34445 25.5184 1.21723 23.3651 2.29506C14.6519 6.65653 5.33924 16.2855 1.71596 24.6796C-0.154841 29.014 -0.497543 32.393 0.695763 34.7393C1.09324 35.521 1.30882 35.7557 4.66832 39.0625C7.09829 41.4545 7.8613 42.1419 8.32409 42.3556C8.8354 42.5918 8.94429 42.7018 9.18963 43.2296C9.414 43.7119 9.98041 44.3449 12.0076 46.3789C14.3401 48.7189 14.6119 48.9562 15.3742 49.3172C17.4552 50.3028 19.8294 50.25 23.246 49.142C27.3789 47.8017 32.7103 44.3924 37.1729 40.2363C37.6474 39.7942 38.1933 39.3113 38.3859 39.1632C38.7847 38.8562 41.1203 36.3079 42.3552 34.8322C46.2353 30.1956 48.9282 25.2111 49.7978 21.0561C50.0647 19.7808 50.0679 17.5277 49.8043 16.5556C49.4024 15.0739 49.2083 14.8109 46.5045 12.0833C44.4811 10.0423 43.8402 9.46202 43.2995 9.18167C42.7195 8.88101 42.5867 8.75247 42.362 8.2752C42.1635 7.85379 41.3303 6.93491 38.9214 4.4809C37.1731 2.69989 35.6314 1.15466 35.4954 1.04719C35.0799 0.718654 34.0878 0.310531 33.2975 0.143132C32.4851 -0.0289866 30.7391 -0.0494037 29.708 0.10109ZM33.5251 2.45279C34.4268 2.77837 35.5612 4.19638 35.5647 5.0023C35.5657 5.22272 35.5116 5.24929 35.0617 5.24929C34.3518 5.24929 32.5712 5.6292 31.4288 6.02437C29.0993 6.83019 25.949 8.6719 23.1468 10.8663C19.9602 13.3616 15.9475 16.9618 13.9234 19.1414C10.1949 23.1564 7.85582 26.7706 6.50093 30.61C6.13364 31.651 5.65647 33.5491 5.54988 34.3931C5.40005 35.5803 5.40312 35.5746 4.96262 35.492C3.92343 35.2971 3.05548 34.5719 2.53627 33.4651C2.27183 32.9014 2.25109 32.7468 2.2557 31.3745C2.26119 29.7043 2.50422 28.5836 3.30806 26.521C7.31575 16.2371 20.1028 4.40691 29.3942 2.38682C30.6131 2.12184 32.7004 2.1551 33.5251 2.45279ZM40.2832 9.03941C40.8156 9.8011 41.1529 11.3444 41.004 12.3371L40.9286 12.8402L40.3599 12.3023C39.6046 11.5879 38.9449 11.3415 37.7877 11.3415C37.0268 11.3415 36.8914 11.315 36.9448 11.1768C37.2084 10.4944 37.572 8.96521 37.7305 7.87168L37.92 6.56477L38.9471 7.58101C39.5119 8.13996 40.1133 8.79627 40.2832 9.03941ZM35.5134 7.9606C35.3425 9.10033 35.2707 9.19441 34.3035 9.54501C33.1844 9.95061 30.7359 11.137 29.5285 11.8586C22.1534 16.2666 15.173 23.4107 11.3023 30.5121C10.6666 31.6783 9.6444 33.9398 9.43342 34.6466C9.35582 34.9067 9.21454 35.1605 9.11948 35.2106C8.89325 35.3298 7.68051 35.5785 7.62014 35.5182C7.53452 35.4324 7.90861 33.5297 8.22969 32.4173C9.968 26.3963 14.8423 20.3029 23.3835 13.4731C27.5098 10.1734 31.0992 8.21098 34.0973 7.61537C34.5126 7.53282 35.0185 7.4607 35.2216 7.455L35.5908 7.44468L35.5134 7.9606ZM33.8621 12.8976C33.5779 13.4303 33.1266 14.2861 32.8595 14.7992C32.1735 16.1165 30.3004 18.8817 28.9557 20.5621C26.16 24.0558 22.8262 27.2773 19.1711 30.0169C17.4911 31.2761 15.1459 32.7675 14.3803 33.0638C14.1086 33.1689 13.7015 33.3757 13.4755 33.5232C13.2496 33.6707 12.7949 33.9108 12.4652 34.0566L11.8657 34.3217L12.1408 33.6988C15.2095 26.7491 22.395 18.8607 29.9127 14.1884C31.1299 13.4318 34.2545 11.8048 34.3353 11.8855C34.3593 11.9094 34.1463 12.3649 33.8621 12.8976ZM43.7042 12.7445C43.938 13.2616 43.9627 13.467 43.9573 14.8541C43.9526 16.0783 43.9022 16.5736 43.7099 17.2888C43.1715 19.2916 42.3642 21.2299 41.2581 23.1764C35.9195 32.5697 25.588 41.5301 17.6734 43.6307C16.6697 43.8971 16.3153 43.937 14.9292 43.9399C13.4877 43.9427 13.2835 43.9186 12.7646 43.684C12.4496 43.5417 12.1349 43.3564 12.0652 43.2724C11.9608 43.1466 12.0131 43.1197 12.3636 43.1195C13.1313 43.1188 14.7406 42.7823 16.1366 42.3305C23.9297 39.8079 33.5993 31.699 39.0184 23.1417C41.448 19.3054 43.0541 15.1846 43.1567 12.5243C43.1834 11.835 43.3173 11.8889 43.7042 12.7445ZM38.456 13.6317C39.4593 14.0509 40.0229 15.513 39.6826 16.8136C39.2487 18.4718 37.7139 19.7202 36.41 19.4757C35.4609 19.2976 34.6907 18.1368 34.6888 16.8818C34.6856 14.761 36.7977 12.9389 38.456 13.6317ZM47.5337 16.6363C47.6741 17.0071 47.7977 17.6451 47.8323 18.1775L47.8913 19.086L47.3529 18.8066C47.0566 18.6529 46.5546 18.4965 46.2371 18.4589C45.7746 18.4041 45.6705 18.3553 45.7138 18.214C45.9057 17.5875 46.1109 16.485 46.1744 15.7384L46.2486 14.8664L46.7715 15.435C47.0825 15.7733 47.3912 16.2598 47.5337 16.6363ZM33.4108 19.8702C34.1709 21.0092 35.2916 21.6269 36.6136 21.6355L37.4218 21.6406L36.5702 22.8837C36.102 23.5674 35.2086 24.7708 34.5852 25.558L33.4517 26.9893L33.2147 26.2851C32.7802 24.994 31.5142 23.8505 30.2072 23.5684C29.8641 23.4943 29.5667 23.4213 29.5463 23.4062C29.5259 23.391 29.8719 22.9425 30.3152 22.4095C30.7585 21.8764 31.5118 20.9075 31.9894 20.2563C32.4669 19.6051 32.8882 19.1111 32.9257 19.1586C32.9631 19.2061 33.1814 19.5263 33.4108 19.8702ZM46.555 20.8452C47.1948 21.3009 47.363 22.0609 47.0201 22.9474C46.3162 24.7667 44.2376 24.6012 44.2376 22.726C44.2376 22.0788 44.75 21.1697 45.2859 20.8662C45.8279 20.5593 46.146 20.554 46.555 20.8452ZM44.0863 26.1226C44.353 26.2406 44.7628 26.3716 44.9969 26.4135L45.4226 26.4897L44.847 27.4843C43.771 29.3432 42.3176 31.4056 40.8053 33.2192L40.045 34.1311L39.8269 33.6902C39.4736 32.9762 38.8126 32.4496 37.8372 32.1052C37.6684 32.0456 37.752 31.8998 38.3977 31.1285C39.4755 29.841 40.6273 28.2621 41.7529 26.5294L42.7255 25.0324L43.1633 25.4703C43.4042 25.7111 43.8194 26.0046 44.0863 26.1226ZM30.1589 25.9073C30.9628 26.2819 31.3495 27.1013 31.2584 28.2366C31.1858 29.1411 30.7811 29.9038 29.9377 30.7256C29.1075 31.5347 28.319 31.9311 27.3917 32.0055C26.3251 32.0911 25.5566 31.7458 25.1719 31.008C24.5356 29.788 24.9601 28.1061 26.2064 26.9086C27.4689 25.6956 28.9175 25.3286 30.1589 25.9073ZM22.7481 30.6451C22.8572 31.6122 23.6294 32.855 24.5116 33.4832C24.6921 33.6117 25.1112 33.8271 25.443 33.9621L26.0462 34.2072L24.7961 35.1366C23.7415 35.9206 21.3721 37.5234 21.2715 37.5208C21.2547 37.5203 21.2366 37.1525 21.2314 36.7033C21.2235 36.0183 21.1654 35.7719 20.8713 35.1745C20.5069 34.4342 19.7137 33.611 19.0239 33.2571L18.6597 33.0703L19.7857 32.2798C20.4049 31.8451 21.2821 31.1945 21.7349 30.834C22.1877 30.4735 22.5888 30.1759 22.6262 30.1727C22.6636 30.1695 22.7185 30.3821 22.7481 30.6451ZM37.7195 34.4662C38.0264 34.7731 38.1518 35.3492 38.0406 35.942C37.9498 36.4261 36.8163 37.6823 36.2554 37.9205C35.4125 38.2783 34.4866 37.9682 34.2491 37.2484C33.7935 35.868 35.3814 34.0288 36.9203 34.1547C37.2983 34.1855 37.5287 34.2754 37.7195 34.4662ZM17.8459 35.0838C19.3712 35.8657 19.4995 37.5649 18.1363 38.9299C17.6183 39.4486 16.7827 39.8752 16.0592 39.9904C15.0452 40.1519 13.6871 39.5891 13.2321 38.8188C12.6151 37.7744 13.3669 36.0646 14.7546 35.3561C15.9831 34.729 16.9824 34.641 17.8459 35.0838ZM10.8278 37.507C10.7425 38.0405 10.931 39.0859 11.2117 39.636C11.3296 39.8671 11.6092 40.259 11.8329 40.5069L12.2398 40.9577L11.2215 40.8997C9.76592 40.8171 9.16756 40.4983 7.70411 39.0262L6.5714 37.8866L7.65329 37.7556C8.24835 37.6835 9.15318 37.5085 9.66416 37.3668C10.9481 37.0107 10.908 37.0059 10.8278 37.507ZM32.2551 38.1644C32.41 38.6814 33.0988 39.4854 33.6337 39.7735C33.8511 39.8906 34.0291 40.0141 34.0291 40.048C34.0291 40.1166 32.141 41.6267 31.1202 42.3746C29.7322 43.3914 27.4085 44.8761 27.2052 44.8761C27.1549 44.8761 27.1131 44.7402 27.1125 44.5743C27.1108 44.0963 26.6395 43.211 26.1535 42.7729L25.7078 42.3712L26.987 41.5201C28.4096 40.5738 29.9391 39.4352 31.1576 38.4154C31.6007 38.0445 32.0004 37.7411 32.0457 37.7411C32.0911 37.7411 32.1853 37.9315 32.2551 38.1644ZM24.2553 44.0507C25.3988 44.642 25.2347 45.902 23.9303 46.5466C22.3412 47.3319 20.8617 46.3912 21.5262 45.0183C21.728 44.6015 21.8726 44.4723 22.4365 44.2055C23.179 43.8543 23.7771 43.8033 24.2553 44.0507ZM19.2034 46.0996C19.27 46.4104 19.4436 46.9018 19.5893 47.1917L19.8541 47.7189L19.3524 47.7941C18.5969 47.9074 17.3666 47.7786 16.6565 47.5118C16.2772 47.3693 15.7961 47.0648 15.4554 46.7515L14.8871 46.2289L15.8137 46.1561C16.3233 46.1162 17.2096 45.9653 17.7832 45.8209C18.3567 45.6766 18.8836 45.5532 18.9541 45.5466C19.0245 45.5401 19.1367 45.789 19.2034 46.0996Z" fill="#F3BD6A"/>
</svg>
