<svg width="22" height="22" viewBox="0 0 22 22" fill="none" xmlns="http://www.w3.org/2000/svg">
<path d="M13.9629 0.179778C13.8855 0.27863 13.8769 0.330205 13.9027 0.553696C13.9156 0.699825 13.9586 0.858847 13.9887 0.910422C14.1176 1.11672 14.4528 1.06944 14.5388 0.83306C14.5947 0.66974 14.5302 0.244247 14.4314 0.145395C14.3067 0.0207555 14.0746 0.0379472 13.9629 0.179778Z" fill="black"/>
<path d="M7.62351 0.166917C7.57623 0.2013 7.49027 0.317344 7.4344 0.429089C7.33985 0.622495 7.33555 0.639687 7.40002 0.77722C7.48168 0.94054 7.6407 1.00071 7.79543 0.931945C7.93296 0.867476 8.11777 0.57092 8.11777 0.4076C8.11777 0.158321 7.82981 0.0207883 7.62351 0.166917Z" fill="black"/>
<path d="M6.14501 0.347521C6.01178 0.519437 6.03327 0.644076 6.23097 0.858972C6.44157 1.08676 6.62208 1.11685 6.77681 0.953526C6.92293 0.798801 6.89715 0.648374 6.69515 0.429181C6.47595 0.192796 6.28684 0.167008 6.14501 0.347521Z" fill="black"/>
<path d="M15.6391 1.1428C15.3727 1.26315 15.2953 1.34481 15.2953 1.50383C15.2953 1.65855 15.4457 1.82617 15.5832 1.82617C15.6993 1.82617 16.0646 1.67145 16.1678 1.58119C16.2666 1.48664 16.2623 1.24595 16.1549 1.13851C16.0474 1.03106 15.8841 1.03106 15.6391 1.1428Z" fill="black"/>
<path d="M7.9286 1.44368C7.718 1.607 7.79536 1.92075 8.06613 1.99811C8.46583 2.10556 8.67643 2.0153 8.67643 1.73164C8.67643 1.54683 8.58618 1.45657 8.3326 1.4007C8.07043 1.34053 8.05753 1.34053 7.9286 1.44368Z" fill="black"/>
<path d="M12.5059 1.50806C12.2696 1.80892 12.5403 2.08398 13.0776 2.08398C13.3397 2.08398 13.4859 1.8433 13.3612 1.61121C13.314 1.52096 12.9529 1.39632 12.7337 1.39632C12.6349 1.39632 12.5704 1.4307 12.5059 1.50806Z" fill="black"/>
<path d="M6.05482 1.59848C5.82703 1.69303 5.75397 1.77899 5.75397 1.94231C5.75397 2.23457 5.99895 2.32912 6.34278 2.1744C6.63074 2.04116 6.7081 1.77899 6.5018 1.61567C6.36857 1.51252 6.26542 1.50822 6.05482 1.59848Z" fill="black"/>
<path d="M7.18506 2.11815C7.03894 2.13964 6.95728 2.29007 6.95728 2.53935C6.95728 2.82731 7.07332 2.98633 7.28392 2.98633C7.50741 2.98633 7.60196 2.86599 7.60196 2.58232C7.60196 2.24709 7.44724 2.07517 7.18506 2.11815Z" fill="black"/>
<path d="M0.725359 2.72426C0.390122 2.83171 0.179525 3.02511 0.0634812 3.33886C-0.000987402 3.50648 -0.00528531 4.2801 0.0033105 12.1195C0.0162042 20.0276 0.0205021 20.7239 0.0892687 20.8442C0.510464 21.6222 1.64941 21.5233 1.88579 20.6895C1.91158 20.5993 1.92877 19.3529 1.92877 17.5048V14.4661L2.87861 14.4532C3.81555 14.4404 3.82845 14.4404 3.91011 14.3372C4.02185 14.1997 4.01326 14.0235 3.89292 13.9117C3.79406 13.8172 3.77687 13.8172 2.21673 13.8172H0.639401V9.43329V5.04943L8.83121 5.04083L17.0273 5.02794L17.109 4.91619C17.1735 4.83023 17.1863 4.76577 17.1649 4.66691C17.1047 4.38755 17.6505 4.40474 9.40713 4.40474H1.92877V3.94057C1.92877 3.44631 1.86001 3.20992 1.658 2.99503C1.45171 2.77154 0.987531 2.6383 0.725359 2.72426ZM1.21102 3.4678C1.27119 3.53656 1.28409 3.63542 1.28409 3.97925V4.40474H0.961744H0.639401V3.99214C0.639401 3.76865 0.66089 3.54516 0.686678 3.49788C0.781232 3.31737 1.06919 3.30018 1.21102 3.4678ZM1.28409 17.4876C1.28409 20.4789 1.28409 20.5133 1.19383 20.625C1.07349 20.7798 0.849998 20.7798 0.729657 20.625C0.639401 20.5133 0.639401 20.4789 0.639401 17.4876V14.4618H0.961744H1.28409V17.4876Z" fill="black"/>
<path d="M20.7966 2.72438C20.4699 2.82753 20.2894 2.98656 20.1562 3.28741C20.0831 3.44213 20.0659 3.57107 20.0659 3.94069V4.40056L19.1161 4.41346C18.1791 4.42635 18.1663 4.42635 18.0846 4.5295C17.9728 4.66704 17.9814 4.84325 18.1018 4.95499C18.2006 5.04955 18.2178 5.04955 19.778 5.04955H21.3553V9.43341V13.8173H13.1721H4.98457L4.89861 13.929C4.75248 14.1138 4.78687 14.2986 4.98457 14.3975C5.08772 14.4534 6.10203 14.462 12.5833 14.462H20.0616L20.0745 17.5865C20.0874 21.0249 20.0702 20.8143 20.3539 21.0979C20.861 21.6094 21.7593 21.3816 21.957 20.6896C21.9828 20.5994 22 17.4404 22 12.0122C22 3.51949 21.9957 3.48081 21.9097 3.28741C21.8023 3.04673 21.6819 2.91779 21.4713 2.80604C21.2822 2.71149 20.9556 2.67281 20.7966 2.72438ZM21.2822 3.46792C21.3424 3.53669 21.3553 3.63554 21.3553 3.97937V4.40486H21.033H20.7106V3.99226C20.7106 3.76877 20.7321 3.54528 20.7579 3.498C20.8524 3.31749 21.1404 3.3003 21.2822 3.46792ZM21.3553 17.4877C21.3553 20.479 21.3553 20.5134 21.265 20.6252C21.1447 20.7799 20.9212 20.7799 20.8009 20.6252C20.7106 20.5134 20.7106 20.479 20.7106 17.4877V14.462H21.033H21.3553V17.4877Z" fill="black"/>
<path d="M15.0933 2.79277C14.9686 2.87873 14.9343 3.04634 15.0116 3.19247C15.1062 3.37728 15.407 3.63086 15.5317 3.63086C15.6735 3.63086 15.854 3.45035 15.854 3.30852C15.854 3.20966 15.6477 2.9303 15.4672 2.78417C15.377 2.71111 15.205 2.7154 15.0933 2.79277Z" fill="black"/>
<path d="M13.4514 3.07271C13.1893 3.43803 13.1764 3.66582 13.4127 3.79906C13.5933 3.90221 13.7437 3.82484 13.9113 3.54548C13.9844 3.41654 14.0488 3.26182 14.0488 3.20165C14.0488 3.04692 13.8855 2.90079 13.7136 2.90079C13.6019 2.90079 13.5503 2.93518 13.4514 3.07271Z" fill="black"/>
<path d="M10.6707 5.94781C10.5805 6.00369 10.4085 6.24007 10.155 6.65697L9.77245 7.28017L9.10628 7.43919C8.74095 7.52515 8.38423 7.624 8.31976 7.65838C8.14784 7.74434 8.0318 7.95924 8.0318 8.19132C8.0318 8.43201 8.10486 8.54375 8.6378 9.15835L9.02032 9.60104L8.97734 10.0867C8.88708 11.0967 8.92576 11.3159 9.20513 11.4921C9.44151 11.6382 9.63062 11.6082 10.314 11.3245C10.6535 11.1827 10.963 11.0666 10.9974 11.0666C11.0317 11.0666 11.3412 11.1827 11.6807 11.3245C12.3641 11.6082 12.5532 11.6382 12.7896 11.4921C13.0775 11.3116 13.1076 11.1311 13.0174 10.0996L12.9744 9.60104L13.3569 9.15835C13.8898 8.54375 13.9629 8.43201 13.9629 8.19132C13.9629 7.95924 13.8469 7.74434 13.675 7.65838C13.6105 7.624 13.2538 7.52515 12.8884 7.43489L12.2223 7.27157L11.8397 6.64837C11.5862 6.24007 11.4143 6.00369 11.324 5.94781C11.1521 5.84037 10.8426 5.84037 10.6707 5.94781ZM11.4057 7.17702C11.6163 7.51655 11.8183 7.80881 11.8526 7.826C11.8913 7.84319 12.2352 7.93345 12.622 8.0323L13.3225 8.20851L12.8455 8.76724C12.5833 9.07239 12.3598 9.36465 12.3469 9.41623C12.334 9.4678 12.3426 9.75576 12.3684 10.0523C12.3942 10.3532 12.4157 10.6755 12.4157 10.7658V10.9334L11.7452 10.654C11.3756 10.5036 11.0403 10.379 10.9974 10.379C10.9587 10.379 10.6234 10.5036 10.2538 10.6583L9.57905 10.9334V10.7658C9.57905 10.6755 9.60054 10.3532 9.62632 10.0523C9.65211 9.75576 9.66071 9.4678 9.64781 9.41623C9.63492 9.36465 9.41143 9.07239 9.14926 8.76724L8.67219 8.20851L9.37275 8.0323C9.75956 7.93345 10.1034 7.84319 10.1421 7.826C10.1765 7.80881 10.3785 7.51655 10.5891 7.17702C10.7954 6.83318 10.9802 6.55382 10.9974 6.55382C11.0145 6.55382 11.1994 6.83318 11.4057 7.17702Z" fill="black"/>
<path d="M5.47027 8.65556C5.39291 8.70284 5.24248 8.90054 5.09206 9.14552C4.95452 9.37331 4.80839 9.57101 4.76971 9.57961C4.73103 9.5925 4.51614 9.64408 4.29265 9.69565C3.95741 9.77302 3.85856 9.816 3.74681 9.92774C3.62647 10.0481 3.60498 10.0997 3.60498 10.2802C3.60498 10.4822 3.62217 10.5123 3.94022 10.8948L4.27116 11.2902L4.23248 11.7887C4.19379 12.3432 4.23248 12.5022 4.44737 12.644C4.62788 12.7601 4.82988 12.7343 5.30695 12.5366L5.74104 12.3604L6.2267 12.5538C6.67369 12.7386 6.72526 12.7472 6.87569 12.7042C7.0562 12.6483 7.2539 12.442 7.2668 12.3002C7.27539 12.1627 7.27539 12.1584 7.24101 11.7028L7.21522 11.2902L7.53757 10.9077C7.86421 10.5209 7.93727 10.3575 7.8857 10.1383C7.82553 9.91485 7.65361 9.8031 7.19373 9.69565C6.95735 9.63978 6.73386 9.57961 6.69518 9.55812C6.66079 9.54093 6.51896 9.34323 6.37713 9.11973C6.2396 8.89624 6.07628 8.68135 6.00751 8.64267C5.85279 8.55241 5.63359 8.55671 5.47027 8.65556ZM5.96883 9.67416C6.07198 9.85038 6.19662 10.0309 6.24819 10.0739C6.29547 10.1211 6.51896 10.1985 6.75105 10.2501L7.16795 10.3446L6.86279 10.71L6.55764 11.071L6.58773 11.5481C6.61352 11.9306 6.60922 12.0208 6.56194 11.9993C6.53186 11.9864 6.33415 11.9048 6.12785 11.8188L5.74964 11.6641L5.31555 11.8403C5.07486 11.9349 4.87716 12.0079 4.87286 12.0036C4.86427 11.995 4.87716 11.8016 4.89865 11.5652C4.93733 11.0796 4.93733 11.071 4.61499 10.7014C4.49465 10.5595 4.3829 10.422 4.36571 10.3962C4.34422 10.3618 4.46886 10.3146 4.73533 10.2501C4.95023 10.1942 5.16512 10.134 5.2038 10.1168C5.24248 10.0954 5.37572 9.91485 5.50036 9.71285C5.6207 9.51084 5.73245 9.34752 5.74964 9.34752C5.76253 9.34752 5.86138 9.49365 5.96883 9.67416Z" fill="black"/>
<path d="M15.9442 8.68086C15.8755 8.74532 15.7164 8.95592 15.5918 9.15792C15.4672 9.35993 15.3468 9.53614 15.3253 9.54903C15.3038 9.56193 15.0674 9.6264 14.8053 9.69516C14.4357 9.78972 14.3067 9.84129 14.2337 9.92725C13.993 10.2023 14.0445 10.4258 14.4571 10.9072L14.7838 11.2811L14.7451 11.7453C14.7021 12.2782 14.7322 12.4372 14.9084 12.5877C15.1319 12.7725 15.2394 12.7682 15.7723 12.5533L16.2537 12.3599L16.6878 12.5361C17.1648 12.7338 17.3668 12.7596 17.5473 12.6435C17.7622 12.5017 17.8009 12.3427 17.7622 11.7882L17.7236 11.2897L18.0545 10.8943C18.3725 10.5118 18.3897 10.4817 18.3897 10.2797C18.3897 10.0992 18.3682 10.0476 18.2522 9.93155C18.1362 9.8155 18.033 9.77252 17.7021 9.69516C17.4786 9.63929 17.2637 9.58771 17.225 9.57912C17.1863 9.56623 17.0402 9.37282 16.9027 9.14503C16.7522 8.90005 16.6018 8.70235 16.5244 8.65507C16.331 8.53903 16.1032 8.55192 15.9442 8.68086ZM16.4944 9.71235C16.619 9.91436 16.7522 10.0949 16.7909 10.1164C16.8296 10.1335 17.0445 10.1937 17.2594 10.2496C17.5258 10.3141 17.6505 10.3613 17.629 10.3957C17.6118 10.4215 17.5001 10.559 17.3797 10.7009C17.0574 11.0705 17.0574 11.0791 17.0961 11.5648C17.1175 11.8011 17.1304 11.9945 17.1261 11.9988C17.1175 12.0074 16.9413 11.943 16.7307 11.857C16.5201 11.7711 16.3009 11.7023 16.2408 11.7023C16.1806 11.7023 15.97 11.7753 15.7766 11.857C15.5789 11.943 15.407 12.0117 15.3984 12.0117C15.3855 12.0117 15.3898 11.8011 15.407 11.539L15.4371 11.0705L15.1319 10.7095L14.8268 10.3441L15.2437 10.2496C15.4757 10.198 15.6992 10.1207 15.7465 10.0734C15.7981 10.0304 15.9227 9.84989 16.0259 9.67367C16.1333 9.49316 16.2322 9.34703 16.2451 9.34703C16.2623 9.34703 16.374 9.51035 16.4944 9.71235Z" fill="black"/>
<path d="M10.5805 15.8026C10.3312 16.0819 10.284 16.3269 10.4387 16.4816C10.5504 16.5934 10.7567 16.5934 10.8685 16.4816C11.0103 16.3398 11.1306 16.0604 11.1006 15.9444C11.0447 15.7123 10.7352 15.6306 10.5805 15.8026Z" fill="black"/>
<path d="M9.16213 15.9021C8.96873 16.0396 8.99881 16.2502 9.24809 16.5124C9.59622 16.882 10.0389 16.478 9.72086 16.0869C9.65209 16.0096 9.57043 15.9236 9.53605 15.8935C9.44579 15.8204 9.27388 15.8247 9.16213 15.9021Z" fill="black"/>
<path d="M10.9673 16.9981C10.7782 17.0755 10.7223 17.3462 10.8685 17.5009C10.9759 17.6213 11.3455 17.7029 11.4874 17.6385C11.5862 17.5912 11.6851 17.4365 11.6851 17.3247C11.6851 17.2216 11.5174 17.054 11.3885 17.0282C11.3197 17.0153 11.2209 16.9938 11.165 16.9809C11.1091 16.968 11.0189 16.9766 10.9673 16.9981Z" fill="black"/>
<path d="M8.99455 17.2299C8.87421 17.2858 8.76247 17.3632 8.74957 17.4061C8.65932 17.6339 8.79255 17.8574 9.02034 17.8574C9.19656 17.8574 9.48452 17.7371 9.53609 17.6382C9.61775 17.4921 9.58767 17.3116 9.46732 17.217C9.3212 17.101 9.26532 17.1053 8.99455 17.2299Z" fill="black"/>
<path d="M10.0088 17.8443C9.92717 17.9474 9.91857 18.0033 9.93576 18.1967C9.96155 18.4503 10.0432 18.5663 10.228 18.6093C10.3097 18.6308 10.3741 18.6093 10.4644 18.532C10.5761 18.4331 10.5847 18.403 10.5761 18.1752C10.5676 17.9861 10.5418 17.9002 10.473 17.8271C10.3398 17.6853 10.1292 17.6939 10.0088 17.8443Z" fill="black"/>
</svg>
