<svg width="40" height="40" viewBox="0 0 40 40" fill="none" xmlns="http://www.w3.org/2000/svg">
<path d="M28.9086 6.06946C28.454 6.15388 27.8779 6.37551 27.4392 6.63408C27.064 6.8557 26.3716 7.50475 26.1549 7.84247L25.991 8.10103L25.2934 8.10631C24.453 8.10631 24.268 8.15908 24.1358 8.4282C24.0513 8.59706 24.046 8.66038 24.0988 8.80813C24.194 9.09835 24.3367 9.1564 24.9339 9.1564C25.2194 9.1564 25.4678 9.16695 25.4836 9.18278C25.4995 9.19861 25.4731 9.3833 25.4361 9.59437C25.3356 10.0904 25.3779 10.9505 25.5259 11.4676C25.9699 13.0401 27.3652 14.3013 28.9509 14.5651L29.1729 14.6021V17.0453C29.1729 18.4436 29.194 19.5465 29.2204 19.6203C29.3631 19.995 29.7966 20.0953 30.0767 19.8209L30.23 19.6678V17.135V14.6074L30.5629 14.5388C32.1591 14.2327 33.5175 12.9082 33.9139 11.2777C34.0408 10.7553 34.0249 9.77379 33.8822 9.24083C33.2955 7.04039 31.1443 5.66842 28.9086 6.06946ZM30.3621 7.12482C31.5725 7.37811 32.5873 8.36487 32.878 9.57854C32.9943 10.0587 32.9573 10.7975 32.7934 11.3146L32.6507 11.7579L32.4076 11.5151C32.1644 11.2777 31.7733 11.0613 31.5936 11.0561C31.5196 11.0561 31.5038 10.9558 31.4879 10.1959C31.472 9.40441 31.4615 9.31998 31.3346 9.05086C31.1602 8.68148 30.8114 8.33849 30.4414 8.15908C30.1982 8.04299 30.0767 8.02188 29.7014 8.02188C29.3261 8.02188 29.2046 8.04299 28.9509 8.16436C28.1316 8.54956 27.7934 9.28832 27.8726 10.5389C27.9044 11.0086 27.8991 11.0561 27.8145 11.0561C27.6348 11.0561 27.1697 11.3146 26.9636 11.5257L26.7574 11.7368L26.6887 11.5943C26.4456 11.0613 26.3663 10.2593 26.4984 9.63131C26.6306 9.00865 26.9054 8.51263 27.4022 8.02188C28.2162 7.20397 29.2469 6.89264 30.3621 7.12482ZM30.0608 9.1564C30.378 9.35164 30.4414 9.52578 30.4414 10.2118C30.4414 10.903 30.3674 11.1141 30.082 11.283C29.86 11.4149 29.4636 11.4149 29.2891 11.283C28.972 11.0455 28.935 10.9452 28.935 10.2487C28.935 9.69991 28.9509 9.57854 29.0407 9.42552C29.2469 9.07725 29.7226 8.9506 30.0608 9.1564ZM28.7342 12.1642C29.0566 12.37 29.2733 12.428 29.7067 12.428C30.0978 12.428 30.4255 12.333 30.7162 12.1325C30.8801 12.0164 30.9435 12.0006 31.1391 12.0323C31.4562 12.085 31.6465 12.1958 31.7627 12.3911C31.9213 12.6444 31.8949 12.7235 31.5883 12.9504C31.0703 13.3409 30.3145 13.5889 29.6591 13.5889C28.8293 13.5837 27.5397 13.0032 27.5344 12.6285C27.5344 12.4122 27.8092 12.1273 28.0788 12.0692C28.4223 11.9901 28.4646 11.9953 28.7342 12.1642Z" fill="#F7D299"/>
<circle cx="20" cy="20" r="19.5" fill="white" stroke="#F7D299"/>
<path d="M14.5058 6.14866C12.7193 6.46527 11.3451 7.13015 9.96556 8.33327C8.60191 9.52583 7.55539 11.3463 7.18541 13.1721C6.42431 16.8976 8.04694 20.6124 11.3081 22.6282C12.0427 23.082 13.3324 23.615 13.6918 23.615C14.0142 23.615 14.2679 23.2034 14.1358 22.8868C14.0512 22.6968 13.9931 22.6599 13.3852 22.4488C11.1971 21.6836 9.41587 19.9634 8.58606 17.821C7.52897 15.0876 8.07337 12.0112 10.0131 9.77912C11.0226 8.61822 12.4761 7.71588 13.9614 7.33067C14.8652 7.09849 16.1971 7.02462 17.0692 7.15126C18.8028 7.4151 20.3039 8.16969 21.5354 9.39391C22.9096 10.7659 23.6707 12.4017 23.8451 14.37C23.9667 15.7578 23.6919 17.1878 23.0629 18.4595C22.0957 20.4066 20.5153 21.7733 18.417 22.4857C17.7193 22.7179 17.5713 22.8393 17.5766 23.1506C17.5819 23.33 17.6189 23.3986 17.7563 23.5253C17.9096 23.6572 17.9572 23.6783 18.1474 23.6466C18.6971 23.5727 20.0026 23.0292 20.6792 22.5913C20.8483 22.4857 21.0016 22.4013 21.0227 22.4013C21.0439 22.4013 21.324 22.6599 21.6411 22.9817L22.2225 23.5622L21.916 23.863C21.5777 24.206 21.5037 24.4118 21.6305 24.6492C21.6781 24.7336 23.4435 26.5278 25.5629 28.6332C29.6909 32.7386 29.5957 32.6594 30.3621 32.8811C30.8008 33.0077 31.5249 32.9972 31.9795 32.8547C32.8251 32.5908 33.5809 31.8468 33.8558 31.0236C33.9298 30.7914 33.9562 30.5593 33.9562 30.1055C33.9562 29.3931 33.8664 29.0606 33.5439 28.5541C33.2374 28.0739 25.7691 20.6283 25.5576 20.5913C25.3356 20.5544 25.1665 20.6335 24.8917 20.8974L24.6485 21.1348L24.0513 20.5333L23.4487 19.9317L23.6443 19.6098C24.194 18.7075 24.638 17.4991 24.8177 16.4121C24.9445 15.6628 24.9445 14.3119 24.8177 13.5679C24.5587 12.0376 24.009 10.7659 23.0576 9.52056C21.694 7.73171 19.6961 6.53915 17.3969 6.14339C16.6041 6.01147 15.2616 6.01147 14.5058 6.14866ZM23.3853 21.3459L23.9139 21.8736L23.4382 22.3485L22.9625 22.8234L22.4234 22.2852L21.879 21.747L22.3177 21.2879C22.5555 21.0399 22.7775 20.8288 22.8039 20.8235C22.8356 20.8235 23.0946 21.0557 23.3853 21.3459ZM29.0777 25.4988C32.5133 28.9446 32.7088 29.1451 32.8146 29.4353C33.396 31.0183 31.7839 32.4642 30.2775 31.7149C30.0503 31.5988 29.4319 31.0131 27.2437 28.8337L24.4953 26.1003L25.1665 25.4249C25.5365 25.0503 25.8642 24.6756 25.8959 24.5964C26.0492 24.1849 25.6475 23.7733 25.2352 23.9316C25.1507 23.9632 24.7754 24.2904 24.4054 24.6598L23.7289 25.3246L23.2796 24.8814L22.8303 24.4329L24.1094 23.1559C24.8177 22.4488 25.4044 21.8736 25.4202 21.8736C25.4361 21.8736 27.0798 23.5041 29.0777 25.4988Z" fill="#F7D299"/>
<path d="M15.4571 8.79233C12.0533 9.04034 9.43173 12.1484 9.77529 15.5361C9.918 16.9609 10.5047 18.2537 11.4772 19.2668C13.9191 21.8103 17.9572 21.8314 20.4096 19.309C21.4403 18.2484 21.99 17.0611 22.1538 15.5519C22.4604 12.6655 20.547 9.84242 17.7299 9.02451C16.9582 8.80288 16.287 8.73428 15.4571 8.79233ZM16.9899 9.92684C18.9508 10.3015 20.547 11.8687 21.0122 13.8792C21.1601 14.5071 21.1496 15.5731 20.9857 16.201C20.8642 16.6865 20.4572 17.5941 20.2246 17.9054L20.0925 18.0795L19.8969 17.7893C19.4952 17.1825 19.0407 16.9186 18.0629 16.7234C17.7087 16.6495 17.3916 16.5704 17.3652 16.544C17.3388 16.5176 17.3916 16.4384 17.4973 16.3487C17.936 15.9899 18.1844 15.6205 18.3377 15.1245C18.4276 14.8396 18.4434 14.6391 18.4434 13.7262C18.4434 12.5864 18.417 12.4175 18.1527 11.8951C17.9572 11.5152 17.4762 11.0508 17.0586 10.8503C15.6474 10.1537 13.9508 10.94 13.5544 12.465C13.4592 12.8185 13.4434 14.581 13.5332 14.9557C13.6337 15.3884 13.8504 15.7683 14.2256 16.1429C14.4265 16.3435 14.5692 16.5282 14.548 16.5493C14.5216 16.5756 14.2204 16.6495 13.8715 16.7181C13.4645 16.7973 13.121 16.9028 12.9096 17.0083C12.5501 17.193 12.1326 17.5782 11.9687 17.879C11.9106 17.9846 11.8525 18.0743 11.8366 18.0743C11.8208 18.0743 11.6939 17.8896 11.5565 17.6627C10.6051 16.0902 10.5417 14.2011 11.3874 12.6022C12.4762 10.539 14.6696 9.48887 16.9899 9.92684ZM16.6041 11.7948C16.7309 11.8582 16.8842 11.9584 16.9529 12.0217C17.0956 12.1589 17.3018 12.4756 17.2701 12.5125C17.2542 12.523 17.1379 12.4756 17.0111 12.4017C16.6199 12.1801 16.4614 12.217 15.9698 12.6444C15.6791 12.8977 15.3462 13.0085 14.8916 13.0085C14.4899 13.0085 14.4741 12.9874 14.5956 12.6339C14.8757 11.8107 15.8483 11.4044 16.6041 11.7948ZM17.381 14.275C17.3863 14.6127 17.3599 14.7815 17.2753 14.9609C16.7838 16.0532 15.2246 16.1007 14.6802 15.0401C14.6062 14.9082 14.5586 14.6865 14.5428 14.4438L14.5163 14.0639H14.9445C15.4624 14.0639 15.9117 13.9372 16.3768 13.6523L16.7151 13.4465L17.0481 13.6365L17.381 13.8264V14.275ZM16.3821 16.9661C16.4297 17.0611 16.4032 17.135 16.213 17.441C16.0914 17.6468 15.9751 17.8104 15.9593 17.8104C15.9434 17.8104 15.8324 17.6416 15.7056 17.4358C15.5259 17.135 15.4941 17.0453 15.5364 16.9661C15.584 16.8764 15.6474 16.8606 15.9593 16.8606C16.2764 16.8606 16.3345 16.8764 16.3821 16.9661ZM15.0872 18.4225C15.3462 18.8447 15.6051 19.2246 15.6633 19.2668C15.8007 19.3618 16.1178 19.3618 16.2552 19.2616C16.3187 19.2193 16.5777 18.85 16.8314 18.4436C17.0903 18.0321 17.3176 17.6891 17.3335 17.6785C17.3916 17.6416 18.38 17.8526 18.5386 17.9371C18.861 18.1059 19.1305 18.4489 19.2045 18.7972C19.2415 18.9502 19.2204 18.9766 18.9878 19.156C18.6284 19.4304 17.751 19.8526 17.2542 19.9845C16.9054 20.0742 16.6781 20.0953 15.9857 20.1006C15.0132 20.1006 14.5692 20.0109 13.8134 19.6573C13.4117 19.4726 12.7774 19.0821 12.714 18.9819C12.6981 18.9555 12.714 18.8394 12.7457 18.718C12.8091 18.47 13.1421 18.0584 13.38 17.9371C13.5121 17.8685 14.3631 17.668 14.5586 17.6574C14.5903 17.6574 14.8229 18.0004 15.0872 18.4225Z" fill="#F7D299"/>
<path d="M29.5165 21.024C29.321 21.1084 29.21 21.2826 29.21 21.5148C29.21 21.8894 29.6011 22.1427 29.9288 21.9738C30.3305 21.7681 30.3199 21.177 29.9076 21.0346C29.7121 20.966 29.6645 20.966 29.5165 21.024Z" fill="#F7D299"/>
<path d="M9.40532 22.9448C9.14633 23.0714 9.08819 23.2983 9.08819 24.1795V24.9816L8.83977 25.1505C8.51736 25.3721 7.9941 25.8945 7.77211 26.2164C7.51841 26.5858 7.25414 27.1768 7.12729 27.6517C6.97401 28.2427 6.97401 29.1767 7.12729 29.7572C7.66112 31.7571 9.53217 33.1185 11.5724 32.9918C12.2119 32.9496 12.7352 32.8019 13.343 32.4906C13.7341 32.29 13.9138 32.1528 14.3525 31.7201C14.7859 31.2822 14.9233 31.1027 15.1242 30.7123C15.362 30.2479 15.5893 29.5725 15.5893 29.3297V29.2084H16.9688C17.8779 29.2084 18.3853 29.1873 18.4593 29.1503C18.8716 28.9392 18.8557 28.3588 18.4329 28.211C18.3324 28.1741 17.751 28.153 16.9424 28.153H15.6157L15.547 27.8047C15.3145 26.5858 14.3948 25.3985 13.2267 24.8075C12.8567 24.6228 12.1538 24.4276 11.7045 24.3853C11.3715 24.3537 10.6897 24.4065 10.2933 24.4909L10.1453 24.5225V23.9157C10.1453 23.2244 10.0977 23.0767 9.85458 22.9553C9.64316 22.8603 9.57974 22.8551 9.40532 22.9448ZM11.9688 25.4882C13.2056 25.7468 14.2521 26.7705 14.5058 27.9736C14.6432 28.6121 14.5798 29.3719 14.3472 29.9102L14.2626 30.1107L14.0459 29.8944C13.8081 29.6569 13.5491 29.5039 13.2796 29.4458L13.1051 29.4089L13.1368 28.9023C13.2003 27.9419 13.0364 27.3562 12.5819 26.9024C12.2965 26.6174 12.0586 26.4908 11.6358 26.4116C11.0385 26.2903 10.436 26.4908 10.0079 26.9499C9.59559 27.3879 9.54274 27.5725 9.5216 28.5593C9.50574 29.1662 9.4846 29.4194 9.44231 29.4194C9.28904 29.4194 8.77635 29.7097 8.58079 29.8996L8.36408 30.1107L8.27952 29.8838C8.05224 29.2717 7.9941 28.5013 8.13152 27.9419C8.55436 26.227 10.2668 25.1347 11.9688 25.4882ZM11.6781 27.5251C12.0163 27.715 12.0745 27.8733 12.0745 28.6121C12.0745 29.3086 12.0428 29.4089 11.7098 29.6516C11.5089 29.8046 11.1178 29.7941 10.8905 29.6358C10.6157 29.4405 10.5681 29.2875 10.5681 28.5857C10.5681 28.0211 10.5787 27.9419 10.6897 27.7783C10.8271 27.5725 11.1072 27.4142 11.3292 27.4142C11.4085 27.4142 11.5671 27.4617 11.6781 27.5251ZM10.3778 30.5487C10.7478 30.7703 11.2288 30.8653 11.6146 30.7914C11.8948 30.7386 12.27 30.5751 12.4286 30.4379C12.5026 30.3745 12.566 30.3693 12.8197 30.422C13.195 30.5012 13.4751 30.7439 13.4751 30.9919C13.4751 31.1291 13.4275 31.1819 13.1157 31.393C12.0058 32.1476 10.436 32.1159 9.38946 31.3085C9.26789 31.2188 9.1569 31.1344 9.14633 31.1239C9.09876 31.0869 9.25204 30.6964 9.35246 30.6067C9.44231 30.5223 9.84401 30.3851 10.0184 30.3745C10.0501 30.3693 10.214 30.4484 10.3778 30.5487Z" fill="#F7D299"/>
<path d="M15.8007 22.9131C15.251 23.1294 15.399 23.9315 15.9909 23.9315C16.4666 23.9315 16.7045 23.3616 16.3609 23.0397C16.2341 22.9236 15.9434 22.855 15.8007 22.9131Z" fill="#F7D299"/>
<path d="M20.3462 28.19C19.9339 28.3483 19.8705 28.9393 20.2457 29.1293C20.436 29.2295 22.64 29.2453 22.8515 29.1504C23.0259 29.0712 23.1633 28.7757 23.121 28.5805C23.1052 28.496 23.0312 28.3747 22.9572 28.3061C22.825 28.1794 22.8039 28.1794 21.6252 28.1689C20.9646 28.1636 20.3884 28.1741 20.3462 28.19Z" fill="#F7D299"/>
<path d="M17.7828 30.4167C17.3388 30.6014 17.3811 31.2769 17.8462 31.3982C18.1527 31.4721 18.4963 31.2136 18.4963 30.9022C18.4963 30.5328 18.121 30.2796 17.7828 30.4167Z" fill="#F7D299"/>
<path d="M20.2456 30.4379C19.9497 30.612 19.8968 30.9655 20.1294 31.2241C20.4465 31.5777 21.0068 31.3719 21.0068 30.8969C21.0068 30.5223 20.5681 30.2585 20.2456 30.4379Z" fill="#F7D299"/>
<path d="M22.7828 30.4379C22.4023 30.6595 22.4446 31.2347 22.8515 31.3719C23.2162 31.488 23.5439 31.2663 23.5439 30.8917C23.5439 30.5223 23.0999 30.2585 22.7828 30.4379Z" fill="#F7D299"/>
</svg>
