<svg width="20" height="20" viewBox="0 0 20 20" fill="none" xmlns="http://www.w3.org/2000/svg">
<path fill-rule="evenodd" clip-rule="evenodd" d="M9.21978 0.118532C9.05697 0.228693 8.54941 0.320295 8.09197 0.322072C7.45929 0.324244 7.10486 0.461253 6.6119 0.894194C6.2553 1.2073 5.64038 1.59839 5.2451 1.76343C4.71978 1.98296 4.46678 2.24553 4.30319 2.74105C4.18024 3.11378 3.81536 3.67208 3.49231 3.98164C3.02362 4.43096 2.90482 4.71189 2.90482 5.37206C2.90482 5.82712 2.77951 6.49953 2.62617 6.86653C2.3862 7.44102 2.3862 7.62561 2.62617 8.19654C2.77951 8.56118 2.90482 9.20141 2.90482 9.61954C2.90482 10.1962 3.04631 10.5245 3.49014 10.979C4.07782 11.5803 4.38291 11.68 4.95896 11.4587C5.2309 11.3545 5.22063 11.2777 4.87607 10.8394C4.35608 10.178 3.89153 8.57046 3.89153 7.43214C3.89153 5.19241 5.23741 3.04113 7.32371 1.94565C8.18728 1.49218 8.5719 1.41637 10.0091 1.41637C11.4464 1.41637 11.831 1.49218 12.6946 1.94565C14.0622 2.66366 15.4528 4.24657 15.8288 5.51302C16.3839 7.38318 16.121 9.41008 15.1454 10.7808C14.7963 11.2714 14.7856 11.3537 15.0587 11.4585C15.6354 11.68 15.9403 11.5803 16.5282 10.979C16.9716 10.5249 17.1135 10.196 17.1135 9.62112C17.1135 9.20378 17.2388 8.56217 17.3921 8.19516C17.6321 7.62067 17.6321 7.43608 17.3921 6.86515C17.2388 6.50051 17.1135 5.82929 17.1135 5.37345C17.1135 4.7117 16.9951 4.43116 16.526 3.98164C16.2029 3.67208 15.8381 3.11378 15.7151 2.74105C15.5509 2.24356 15.3007 1.98513 14.7732 1.76817C14.3779 1.60569 13.8094 1.24126 13.5096 0.958355C13.1422 0.611686 12.6277 0.39413 11.9309 0.291077C11.3623 0.206976 10.5864 0.0887221 10.2065 0.0281143C9.82661 -0.0324935 9.38259 0.00817494 9.21978 0.118532ZM7.73971 2.56634C6.53789 3.1274 5.44797 4.29514 4.97869 5.52447C4.44666 6.91825 4.63314 9.07486 5.38995 10.2771L5.96363 11.1884L9.99987 11.1363L14.0363 11.0844L14.6171 10.2574C15.3838 9.16568 15.5821 6.9455 15.0396 5.52447C14.2429 3.43755 12.2831 2.10576 10.0091 2.10576C9.07888 2.10576 8.45527 2.2323 7.73971 2.56634ZM6.41712 11.9744C4.70675 12.1718 3.3218 12.5044 2.95415 12.8059C2.68261 13.0286 2.58887 17.3033 2.85548 17.3029C2.93699 17.3029 3.66952 17.1521 4.48356 16.9681C6.58664 16.4923 13.4317 16.4923 15.5347 16.9681C16.3488 17.1521 17.0815 17.3029 17.1628 17.3029C17.2441 17.3031 17.3108 16.3367 17.3108 15.1556C17.3108 13.5656 17.2398 12.9492 17.0371 12.781C16.2008 12.0867 9.71274 11.5937 6.41712 11.9744ZM0.9458 15.2061C0.465468 15.3344 0.0413789 15.5325 0.00348916 15.6462C-0.0344006 15.7599 0.240695 16.2398 0.614856 16.7128L1.29529 17.573L0.705634 18.7413C0.3814 19.3837 0.153667 19.947 0.199253 19.9928C0.245036 20.0384 1.1167 19.8638 2.13637 19.6046L3.9902 19.1336L3.05283 18.6726L2.11545 18.2114V16.5729C2.11545 15.6714 2.04875 14.9428 1.96744 14.9534C1.88614 14.9641 1.42633 15.0778 0.9458 15.2061ZM17.9028 16.5517V18.2114L16.9655 18.6726L16.0281 19.1336L17.8819 19.6046C18.9016 19.8638 19.7735 20.0384 19.8192 19.9924C19.865 19.9466 19.6395 19.3894 19.318 18.7541L18.7333 17.5992L19.4175 16.6652C19.7938 16.1516 20.0519 15.6509 19.9911 15.5526C19.9303 15.4541 19.5625 15.3139 19.1737 15.2411C18.785 15.168 18.34 15.0596 18.1849 15C17.9542 14.9116 17.9028 15.1941 17.9028 16.5517ZM3.79424 17.8794C3.43449 18.0197 3.45462 18.0608 4.03105 18.3589C4.84766 18.7814 4.87824 18.7755 4.87824 18.1915C4.87824 17.6715 4.56072 17.5801 3.79424 17.8794ZM15.1401 18.1915C15.1401 18.7755 15.1706 18.7814 15.9872 18.3589C16.5637 18.0608 16.5838 18.0197 16.2241 17.8794C15.4576 17.5801 15.1401 17.6715 15.1401 18.1915Z" fill="#FD9149"/>
</svg>
