<svg width="55" height="27" viewBox="0 0 55 27" fill="none" xmlns="http://www.w3.org/2000/svg">
<path fill-rule="evenodd" clip-rule="evenodd" d="M25.405 0.0187016C19.3299 0.277376 13.3014 1.35601 8.05359 3.12322C6.77827 3.55269 6.33891 3.85026 6.0262 4.49619C5.64195 5.28993 5.71199 5.71533 6.76129 8.95982C7.28981 10.5939 8.16445 13.3329 8.705 15.0463C9.24555 16.7597 9.80673 18.3681 9.95218 18.6204C10.309 19.24 10.9309 19.6369 11.6345 19.6945C12.0717 19.7302 12.5016 19.6449 13.6264 19.299C22.9841 16.4215 32.1212 16.421 41.4756 19.2974C42.6049 19.6447 43.035 19.7302 43.4725 19.6945C44.1752 19.637 44.7966 19.2408 45.1572 18.6204C45.3038 18.3681 46.1505 15.8654 47.0387 13.059C47.9268 10.2525 48.8004 7.52433 48.98 6.99624C49.3704 5.84864 49.3984 5.15233 49.0808 4.49619C48.6739 3.65571 48.1244 3.39156 44.7411 2.40972C40.991 1.32152 36.9098 0.572144 32.8709 0.230325C30.9421 0.0671494 26.9353 -0.046504 25.405 0.0187016ZM1.59867 10.1113C0.642818 10.4057 -0.113331 11.5742 0.0418952 12.5173C0.0762704 12.7266 0.518315 14.0784 1.02406 15.5213L1.94371 18.1449L0.971424 20.9999C0.436674 22.5702 -0.000429374 23.9758 3.16532e-07 24.1235C0.00161166 24.6665 0.241594 25.232 0.665806 25.6922C1.41057 26.5002 1.27489 26.4868 8.71499 26.4868C13.1076 26.4868 15.4256 26.4477 15.8011 26.3671C16.204 26.2808 16.4894 26.1275 16.8268 25.8165C17.4914 25.2039 17.6169 24.7005 17.6169 22.6465C17.6169 21.123 17.6022 20.998 17.4289 21.0491C17.3255 21.0795 16.9343 21.1819 16.5595 21.2767C16.1847 21.3714 15.2421 21.6443 14.4648 21.8831C13.6875 22.1218 12.787 22.3603 12.4636 22.4129C10.7134 22.698 8.53796 21.6247 7.59103 20.009C7.2954 19.5046 6.55332 17.315 5.09871 12.6561L4.2519 9.9437L3.17316 9.95122C2.5673 9.95541 1.877 10.0256 1.59867 10.1113ZM50.0083 12.6561C48.5537 17.315 47.8116 19.5046 47.516 20.009C46.5654 21.631 44.3945 22.698 42.6295 22.4108C42.2986 22.3568 41.4781 22.1419 40.8063 21.9328C39.5675 21.5475 37.616 21.009 37.4566 21.0086C37.4087 21.0083 37.3845 21.8986 37.4029 22.9868L37.4364 24.9652L37.7634 25.4306C37.9433 25.6865 38.3059 26.0168 38.5691 26.1645L39.0477 26.4331L45.8691 26.4674C53.4654 26.5055 53.5674 26.4982 54.2659 25.8671C54.8524 25.3372 55 25.002 55 24.1999C55 23.6183 54.8597 23.1056 54.0802 20.8375L53.1604 18.1615L54.0802 15.5251C54.857 13.2984 55 12.7839 55 12.2147C55 11.4456 54.9136 11.2326 54.3715 10.6656C53.863 10.1337 53.2091 9.9437 51.8875 9.9437H50.8551L50.0083 12.6561Z" fill="#F7D299"/>
</svg>
