<svg width="20" height="16" viewBox="0 0 20 16" fill="none" xmlns="http://www.w3.org/2000/svg">
<path fill-rule="evenodd" clip-rule="evenodd" d="M9.7745 0.128707C9.70371 0.199495 9.64579 0.438032 9.64579 0.658871C9.64579 1.05443 9.63914 1.06065 9.18995 1.09326C8.80255 1.12125 8.72865 1.16458 8.69797 1.3822C8.65453 1.68928 8.83011 1.81948 9.29077 1.82174C9.60643 1.82324 9.63539 1.85359 9.66617 2.21472C9.73031 2.96926 10.3966 2.94266 10.3966 2.18565C10.3966 1.84876 10.421 1.82324 10.7452 1.82174C11.212 1.81948 11.388 1.69046 11.3444 1.3822C11.3137 1.16458 11.2398 1.12125 10.8524 1.09326C10.4032 1.06065 10.3966 1.05443 10.3966 0.658871C10.3966 0.260631 10.248 0 10.0212 0C9.95629 0 9.84528 0.0579181 9.7745 0.128707ZM3.17056 3.81058C3.13345 3.907 3.1032 4.12687 3.1032 4.29902C3.1032 4.58024 3.06791 4.6122 2.75462 4.6136C2.28774 4.61585 2.11173 4.74488 2.15538 5.05313C2.18606 5.27075 2.25996 5.31408 2.64736 5.34208C3.08121 5.3735 3.10331 5.39163 3.10481 5.71747C3.10706 6.17846 3.23727 6.35403 3.54434 6.3106C3.76196 6.27992 3.80529 6.20602 3.83329 5.81861C3.866 5.3676 3.87072 5.36278 4.27604 5.36278C5.11006 5.36278 5.13634 4.6949 4.30478 4.6329C3.8719 4.60073 3.86525 4.59397 3.83307 4.15025C3.80433 3.75459 3.76647 3.69635 3.51914 3.66771C3.33584 3.64647 3.21442 3.69624 3.17056 3.81058ZM16.2599 3.71823C16.2206 3.75748 16.1884 3.97468 16.1884 4.20088C16.1884 4.60684 16.1831 4.61199 15.7724 4.61199C14.9333 4.61199 14.9014 5.27955 15.7376 5.34186C16.1705 5.37404 16.1771 5.3808 16.2093 5.82451C16.237 6.20581 16.281 6.28003 16.498 6.3106C16.8051 6.35403 16.9353 6.17846 16.9376 5.71747C16.9391 5.39163 16.9612 5.3735 17.395 5.34208C17.7824 5.31408 17.8563 5.27075 17.887 5.05313C17.9306 4.74488 17.7546 4.61585 17.2877 4.6136C16.9745 4.6122 16.9392 4.58024 16.9392 4.29902C16.9392 4.12687 16.9099 3.90968 16.8741 3.81637C16.8093 3.64765 16.3965 3.58169 16.2599 3.71823ZM7.86803 5.48312C7.82556 5.55176 7.5128 6.26469 7.1729 7.06739L6.55511 8.52682L5.60676 8.58045L4.65841 8.63407L3.99675 10.1893L3.33498 11.7445L2.38791 11.7981L1.44074 11.8517L0.724164 13.5142C0.330107 14.4286 0.0042651 15.2552 0.000189385 15.3513C-0.00388633 15.4473 0.0583218 15.5803 0.138549 15.6468C0.244839 15.735 2.93009 15.7603 10.0748 15.7403C19.0127 15.7153 19.875 15.6976 19.9762 15.537C20.0614 15.4021 19.9285 14.9786 19.4042 13.7137C19.0286 12.8076 18.6779 12.0077 18.6249 11.9363C18.566 11.8569 18.1733 11.7941 17.6181 11.7754L16.7077 11.7445L16.0458 10.1893L15.384 8.63407L14.4385 8.58045L13.493 8.52682L12.8297 6.97161L12.1663 5.41641L10.0557 5.38734C8.53848 5.36642 7.92348 5.39335 7.86803 5.48312ZM12.1098 7.21294C12.3605 7.81764 12.5895 8.37269 12.6187 8.44638C12.6604 8.55149 12.0986 8.58045 10.0212 8.58045C7.94375 8.58045 7.38195 8.55149 7.42367 8.44638C7.45284 8.37269 7.68183 7.81764 7.9326 7.21294L8.38843 6.11357H10.0212H11.6539L12.1098 7.21294ZM8.8921 10.4306C9.14287 11.0352 9.37186 11.5904 9.40103 11.664C9.44275 11.7692 8.88095 11.7981 6.80352 11.7981C4.72608 11.7981 4.16428 11.7692 4.206 11.664C4.23518 11.5904 4.46417 11.0352 4.71493 10.4306L5.17077 9.33123H6.80352H8.43627L8.8921 10.4306ZM10.4574 10.1422C10.2635 10.5882 10.0618 10.9427 10.0094 10.9302C9.91457 10.9075 9.32402 9.61289 9.32402 9.42787C9.32402 9.37467 9.65834 9.33123 10.067 9.33123H10.81L10.4574 10.1422ZM15.3274 10.4306C15.5782 11.0352 15.8072 11.5904 15.8364 11.664C15.8781 11.7692 15.3163 11.7981 13.2389 11.7981C11.1614 11.7981 10.5996 11.7692 10.6413 11.664C10.6705 11.5904 10.8995 11.0352 11.1503 10.4306L11.6061 9.33123H13.2389H14.8716L15.3274 10.4306ZM5.67444 13.6483C5.9252 14.2529 6.15419 14.808 6.18337 14.8817C6.22509 14.9868 5.66328 15.0158 3.58585 15.0158C1.50842 15.0158 0.946612 14.9868 0.988335 14.8817C1.01751 14.808 1.2465 14.2529 1.49726 13.6483L1.9531 12.5489H3.58585H5.2186L5.67444 13.6483ZM7.23973 13.3599C7.04581 13.8058 6.84417 14.1604 6.79172 14.1479C6.69691 14.1251 6.10636 12.8306 6.10636 12.6455C6.10636 12.5923 6.44067 12.5489 6.84932 12.5489H7.59238L7.23973 13.3599ZM12.1098 13.6483C12.3605 14.2529 12.5895 14.808 12.6187 14.8817C12.6604 14.9868 12.0986 15.0158 10.0212 15.0158C7.94375 15.0158 7.38195 14.9868 7.42367 14.8817C7.45284 14.808 7.68183 14.2529 7.9326 13.6483L8.38843 12.5489H10.0212H11.6539L12.1098 13.6483ZM13.6751 13.3599C13.4811 13.8058 13.2795 14.1604 13.2271 14.1479C13.1322 14.1251 12.5417 12.8306 12.5417 12.6455C12.5417 12.5923 12.876 12.5489 13.2846 12.5489H14.0277L13.6751 13.3599ZM18.5451 13.6483C18.7959 14.2529 19.0249 14.808 19.054 14.8817C19.0958 14.9868 18.534 15.0158 16.4565 15.0158C14.3791 15.0158 13.8173 14.9868 13.859 14.8817C13.8882 14.808 14.1172 14.2529 14.3679 13.6483L14.8238 12.5489H16.4565H18.0893L18.5451 13.6483Z" fill="url(#paint0_linear_5363_6405)"/>
<defs>
<linearGradient id="paint0_linear_5363_6405" x1="10" y1="0" x2="10" y2="15.7468" gradientUnits="userSpaceOnUse">
<stop stop-color="#FD9149"/>
<stop offset="1" stop-color="#FFD588"/>
</linearGradient>
</defs>
</svg>
