<svg width="50" height="23" viewBox="0 0 50 23" fill="none" xmlns="http://www.w3.org/2000/svg">
<path fill-rule="evenodd" clip-rule="evenodd" d="M21.4541 0.0253015C12.6584 0.428716 5.66745 1.85688 2.18684 3.96125C1.29633 4.49968 0.688469 5.06706 0.283929 5.73756L0 6.20815L0.000204082 10.2445C0.000408163 15.3731 0.0321939 15.8364 0.423061 16.4105C0.693725 16.8079 1.62485 17.5789 2.29592 17.9611C4.68684 19.3229 8.50469 20.4178 13.282 21.1118C16.6893 21.6068 19.4114 21.7795 25.0459 21.8583L27.7192 21.8957L28.0561 22.2073C28.4424 22.5646 28.8527 22.7901 29.3578 22.9225C29.6703 23.0045 29.7893 23.0119 30.4037 22.9882C31.6798 22.9391 35.2168 22.5971 36.1709 22.4306C37.0408 22.2788 37.618 21.9498 38.2156 21.2651C38.414 21.0378 38.599 20.8398 38.6266 20.8251C38.6542 20.8104 38.9459 20.751 39.2746 20.6931C40.1008 20.5477 42.146 20.0639 43.1888 19.7671C44.7448 19.3243 46.724 18.5417 47.717 17.9765C48.5824 17.484 49.3684 16.7496 49.7736 16.0549L50 15.6666V10.9416V6.21658L49.8146 5.89915C49.5635 5.4692 49.3439 5.17971 49.0604 4.90481C46.838 2.75008 40.8982 1.05088 33.0867 0.335309C32.0436 0.23975 30.6484 0.141115 29.2602 0.0648433C28.1581 0.00425649 22.5336 -0.0242136 21.4541 0.0253015ZM30 1.77942C31.7862 1.88293 34.4848 2.14896 36.2537 2.39597C39.1358 2.79837 41.5188 3.32397 43.6862 4.03537L44.6429 4.34938V6.35744V8.36546L43.9668 8.16837C40.669 7.20693 35.4265 6.38332 30.7143 6.08636C29.412 6.00424 25.1964 5.96027 22.5765 6.00139C19.4653 6.0502 18.5327 6.1031 15.9949 6.37453C11.977 6.80426 8.64322 7.41299 5.80357 8.23528L5.05102 8.45325V6.44588V4.43848L5.8801 4.16581C6.97786 3.8048 7.42653 3.6715 8.34184 3.43451C11.3903 2.64512 15.2881 2.08025 19.5918 1.80407C20.1671 1.76716 20.7526 1.72942 20.8929 1.7202C21.4286 1.68496 29.2472 1.73579 30 1.77942ZM30.1276 7.75494C32.5034 7.85397 35.8099 8.22056 38.4694 8.67986C41.0649 9.12809 42.9106 9.5794 44.7795 10.2228L45.5823 10.4992L45.2273 10.6389C44.0613 11.0979 39.6373 12.2377 39.0209 12.2379C38.8402 12.2379 38.8308 12.2304 38.7889 12.0512L38.7453 11.8645L38.518 11.8699C38.2984 11.8751 31.7112 12.3866 28.9031 12.6165C27.3554 12.7432 27.3469 12.7456 27.3469 13.0565C27.3469 13.2146 27.3237 13.2595 27.2086 13.3243C27.0814 13.396 26.8929 13.402 24.8489 13.3994C19.2552 13.3923 14.0238 12.9017 9.59235 11.9686C8.00888 11.6352 5.68367 10.9913 4.74643 10.6267L4.41628 10.4983L5.33316 10.1858C8.33092 9.16394 12.3453 8.40188 17.0663 7.95844C18.067 7.86447 18.6663 7.81895 20.5357 7.69518C21.0625 7.6603 29.0508 7.71003 30.1276 7.75494ZM3.00561 11.7709C4.1899 12.2587 4.99974 12.5452 6.13138 12.8766C10.179 14.0617 15.187 14.7762 21.0459 15.0044C21.6633 15.0285 23.3335 15.0617 24.7577 15.0781L27.3469 15.108V17.6285C27.3469 19.9877 27.3412 20.1511 27.2577 20.1806C27.108 20.2335 23.3049 20.213 22.2449 20.1535C13.4151 19.6582 6.63321 18.3989 3.57173 16.6862C3.33337 16.5528 2.92847 16.2635 2.67194 16.0433C2.02908 15.4914 1.99505 15.407 1.92633 14.193C1.8775 13.3296 1.91347 11.3592 1.97806 11.3592C1.99347 11.3592 2.45587 11.5445 3.00561 11.7709ZM48.0612 13.3479V15.3366L47.8835 15.5638C47.3049 16.3037 45.806 17.1154 43.6892 17.8352C43.291 17.9705 42.9524 18.0813 42.9367 18.0813C42.921 18.0813 42.9082 16.9664 42.9082 15.6038V13.1263L43.3291 13.029C44.2952 12.8059 46.4311 12.0574 47.449 11.5853C47.7156 11.4616 47.9624 11.3602 47.9975 11.3598C48.0476 11.3593 48.0612 11.7859 48.0612 13.3479ZM41.9775 15.8696L41.9643 18.3589L41.6327 18.4409C41.0302 18.5898 38.9328 19.0479 38.8534 19.0479C38.7845 19.0479 38.7755 18.7593 38.7755 16.5425V14.0371L38.9158 14.0118C38.993 13.9979 39.676 13.8522 40.4337 13.688C41.1913 13.5238 41.8516 13.3874 41.9009 13.3849C41.9857 13.3805 41.9899 13.5178 41.9775 15.8696ZM36.8239 16.7962C36.81 19.0554 36.7881 19.9481 36.7436 20.0638C36.71 20.1513 36.589 20.3144 36.4748 20.4261C36.1411 20.7526 35.784 20.8208 33.0102 21.0879C32.1263 21.173 31.0895 21.2654 30.7064 21.2932C30.059 21.3402 29.9959 21.3379 29.8142 21.2613C29.5115 21.1335 29.4033 20.9551 29.3575 20.508C29.3034 19.9805 29.3163 14.625 29.372 14.4354L29.4171 14.2824L32.463 14.0329C34.1382 13.8957 35.733 13.7647 36.007 13.7419C36.2809 13.719 36.5811 13.6975 36.674 13.694L36.8429 13.6878L36.8239 16.7962ZM32.6057 14.8076C32.021 14.9219 31.5611 15.1442 31.1265 15.5228C30.5028 16.0661 30.2041 16.6875 30.2041 17.4421C30.2041 18.1821 30.4711 18.7166 31.1177 19.2703C31.8134 19.8662 32.2798 19.9997 33.5319 19.9611C34.1589 19.9417 34.1946 19.9354 34.5715 19.7749C35.2308 19.4943 35.8828 18.8636 36.1326 18.2646C36.279 17.9137 36.3142 17.1539 36.203 16.7458C35.9712 15.8951 35.083 15.1218 34.0322 14.8558C33.6244 14.7526 32.9958 14.7313 32.6057 14.8076ZM34.0126 15.8372C34.4495 16.0132 34.6574 16.1574 34.8633 16.4267C35.1344 16.7814 35.2196 17.0593 35.1947 17.5076C35.1779 17.8109 35.1445 17.9417 35.0342 18.1359C34.5637 18.9639 33.3589 19.3201 32.3727 18.9226C31.109 18.4134 30.8964 16.9228 31.9714 16.1081C32.566 15.6573 33.3184 15.5575 34.0126 15.8372ZM11.6847 16.0055C11.1484 16.2375 11.1308 16.922 11.654 17.2004C11.9886 17.3785 12.3936 17.2866 12.6751 16.9688C12.8731 16.7453 12.8956 16.5485 12.7488 16.3236C12.5244 15.9798 12.063 15.8418 11.6847 16.0055ZM16.9617 16.6933C16.5717 16.8396 16.3998 17.2079 16.5632 17.5475C16.781 17.9999 17.3769 18.1264 17.7734 17.8044C18.407 17.2898 17.7542 16.396 16.9617 16.6933ZM22.0918 17.0361C21.9034 17.1202 21.7347 17.4404 21.7347 17.7138C21.7347 17.8986 21.7613 17.97 21.8726 18.0839C22.1258 18.343 22.4669 18.4058 22.8365 18.2613C23.381 18.0484 23.4135 17.4297 22.8975 17.1006C22.7269 16.9917 22.2728 16.9554 22.0918 17.0361Z" fill="#F3BF70"/>
</svg>
