<svg width="18" height="19" viewBox="0 0 18 19" fill="none" xmlns="http://www.w3.org/2000/svg">
<path fill-rule="evenodd" clip-rule="evenodd" d="M1.5218 0.161297C1.23996 0.254605 0.944038 0.44783 0.680462 0.710449C0.0660896 1.32291 0 1.63892 0 3.96354C0 6.24067 0.058959 6.50894 0.700985 7.15088C1.33884 7.78882 1.65415 7.85048 4.10756 7.81708C6.35913 7.78639 6.50087 7.7536 7.10402 7.12323C7.69283 6.5079 7.73553 6.29163 7.73666 3.9198C7.7377 1.86884 7.73014 1.77301 7.53482 1.35448C7.26777 0.782191 6.73592 0.311911 6.16355 0.141904C5.49309 -0.057147 2.13939 -0.0432334 1.5218 0.161297ZM10.3482 0.173645C9.77422 0.374262 9.13428 1.01411 8.97462 1.547C8.83305 2.01946 8.83114 5.8137 8.97219 6.2845C9.10167 6.71669 9.65361 7.34819 10.1197 7.59751C10.4553 7.77699 10.6103 7.79134 12.5018 7.81708C14.8009 7.8483 15.201 7.78317 15.7863 7.28219C15.9767 7.11914 16.23 6.79487 16.3492 6.56155C16.5634 6.14215 16.5659 6.11162 16.5659 3.9198C16.5659 1.75719 16.5608 1.69266 16.3604 1.31099C16.0796 0.776191 15.8585 0.550964 15.3484 0.280606C14.9178 0.0522487 14.894 0.0499007 12.8701 0.0282477C11.0429 0.00876866 10.7759 0.0241606 10.3482 0.173645ZM6.14581 1.33273C6.63357 1.66553 6.69618 1.96337 6.69401 3.94327C6.69236 5.48316 6.67149 5.74787 6.52696 6.06632C6.25138 6.67312 6.12642 6.70252 3.82033 6.70252H1.80572L1.46806 6.36494L1.13048 6.02727L1.13178 3.99528C1.13318 1.76458 1.15187 1.66736 1.64459 1.33534C1.92929 1.14351 2.0026 1.13707 3.89894 1.13707C5.78867 1.13707 5.86937 1.14412 6.14581 1.33273ZM14.9311 1.30752C15.4607 1.6304 15.4907 1.78554 15.4616 4.05302L15.4354 6.09075L15.1513 6.37494L14.8671 6.65904L12.8034 6.68295C9.8484 6.71713 9.91344 6.77808 9.91344 3.97362C9.91344 1.09681 9.87057 1.14055 12.6962 1.1389C14.4848 1.13786 14.6767 1.15229 14.9311 1.30752ZM1.6472 9.04313C0.974996 9.25549 0.412364 9.78099 0.173398 10.4198C0.0192182 10.8317 8.69222e-05 11.0974 0.000521722 12.8148C0.000782602 13.8771 0.0409582 14.8902 0.0898297 15.0661C0.255662 15.6631 0.695419 16.1984 1.25449 16.4836L1.76972 16.7464L3.64328 16.7759C5.19247 16.8002 5.61023 16.7801 6.0565 16.6593C6.72914 16.4772 7.25386 16.0463 7.533 15.4469C7.73048 15.0228 7.73779 14.9314 7.73857 12.8622C7.73953 10.4572 7.69492 10.2291 7.1082 9.64237C6.50148 9.03574 6.37373 9.00887 4.00016 8.98991C2.82837 8.98061 1.76955 9.00452 1.6472 9.04313ZM12.0005 9.0847C10.07 9.62472 8.80783 11.5151 9.11915 13.3999C9.40264 15.1168 10.5525 16.309 12.2704 16.6672C13.0309 16.8257 13.6819 16.7489 14.5617 16.397L15.1473 16.1627L16.2122 17.2155C16.7979 17.7944 17.3368 18.2682 17.4097 18.2682C17.4828 18.2682 17.6456 18.1871 17.7716 18.0879C18.1887 17.7598 18.0972 17.5687 16.9686 16.4125L15.9365 15.355L16.1831 15.0201C16.7688 14.224 16.9997 12.994 16.7478 12.0112C16.5341 11.1778 16.2773 10.7186 15.6966 10.1312C14.7129 9.13635 13.2731 8.72868 12.0005 9.0847ZM5.91267 10.1474C6.10555 10.2245 6.35086 10.4104 6.45791 10.5604C6.64192 10.8183 6.65401 10.9319 6.68105 12.6593C6.7127 14.6784 6.66766 14.9655 6.25756 15.3587L5.9892 15.6159L3.99903 15.6422C1.78381 15.6714 1.62285 15.6397 1.30092 15.1116C1.14544 14.8568 1.13109 14.6634 1.13083 12.8182L1.13048 10.8029L1.36527 10.5239C1.76016 10.0547 1.95573 10.0141 3.84624 10.0104C5.22804 10.0077 5.63014 10.0343 5.91267 10.1474ZM13.9364 10.2341C14.4605 10.4054 15.1944 11.0678 15.4803 11.6277C15.6656 11.9904 15.6963 12.1681 15.696 12.8767C15.6958 13.5708 15.6639 13.7625 15.4966 14.0763C15.1918 14.6478 14.7575 15.0782 14.2013 15.36C13.7593 15.5839 13.6038 15.6158 12.957 15.615C12.2741 15.6141 12.1749 15.5904 11.6526 15.3037C9.34359 14.0363 9.875 10.6331 12.4662 10.0937C12.8957 10.0042 13.3721 10.0498 13.9364 10.2341Z" fill="url(#paint0_linear_5369_1943)"/>
<defs>
<linearGradient id="paint0_linear_5369_1943" x1="9" y1="0" x2="9" y2="18.2682" gradientUnits="userSpaceOnUse">
<stop stop-color="#FD9149"/>
<stop offset="1" stop-color="#FFD588"/>
</linearGradient>
</defs>
</svg>
