<svg width="15" height="15" viewBox="0 0 15 15" fill="none" xmlns="http://www.w3.org/2000/svg">
<path d="M0.302419 0.42386L0 0.714182V3.56902V6.42386L0.302419 6.71418L0.592742 7.0166H3.50806C6.25403 7.0166 6.42339 7.0045 6.65323 6.77467C6.88306 6.54483 6.89516 6.37547 6.89516 3.58112V0.617408L6.58065 0.375473C6.27823 0.133537 6.10887 0.12144 3.42339 0.12144H0.592742L0.302419 0.42386ZM6.04839 3.56902V6.16983H3.44758H0.846774V3.56902V0.968215H3.44758H6.04839V3.56902Z" fill="black"/>
<path d="M8.4195 0.375473L8.10498 0.617408V3.56902C8.10498 6.44805 8.11708 6.53273 8.37111 6.77467C8.62514 7.0045 8.7824 7.0166 11.5163 7.0166H14.4074L14.6977 6.71418L15.0001 6.42386V3.56902V0.714182L14.6977 0.42386L14.4074 0.12144H11.5768C8.89127 0.12144 8.72192 0.133537 8.4195 0.375473ZM14.1534 3.56902V6.16983H11.5526H8.95175V3.56902V0.968215H11.5526H14.1534V3.56902Z" fill="black"/>
<path d="M0.302419 8.40735L0 8.69767V11.5283C0 14.1412 0.0241935 14.3953 0.229839 14.6493C0.459677 14.9396 0.483871 14.9396 3.35081 14.9759C6.14516 15.0122 6.25403 15.0001 6.56855 14.7582L6.89516 14.5041V11.5404C6.89516 8.74606 6.88306 8.5767 6.65323 8.34686C6.42339 8.11703 6.25403 8.10493 3.50806 8.10493H0.592742L0.302419 8.40735ZM6.04839 11.5525V14.1533H3.44758H0.846774V11.5525V8.9517H3.44758H6.04839V11.5525Z" fill="black"/>
<path d="M8.34692 8.34677C8.11708 8.57661 8.10498 8.74597 8.10498 11.5403V14.504L8.4195 14.746C8.72192 14.9879 8.89127 15 11.5768 15H14.4074L14.6977 14.6976L15.0001 14.4073V11.5766C15.0001 8.89113 14.988 8.72177 14.7461 8.41935L14.5042 8.10484H11.5405C8.74611 8.10484 8.57675 8.11694 8.34692 8.34677ZM14.1534 11.5524V14.1532H11.5526H8.95175V11.5524V8.95161H11.5526H14.1534V11.5524Z" fill="black"/>
</svg>
