<svg width="30" height="29" viewBox="0 0 30 29" fill="none" xmlns="http://www.w3.org/2000/svg">
<path fill-rule="evenodd" clip-rule="evenodd" d="M1.87064 0.046665C1.16752 0.208658 0.56881 0.665098 0.248048 1.28364C-0.00755515 1.77659 6.86186e-05 1.62641 6.86186e-05 6.1619C6.86186e-05 10.7357 -0.0116112 10.5234 0.269793 11.06C0.629425 11.7457 1.34505 12.2099 2.19215 12.3069C2.38222 12.3286 4.11413 12.3377 6.77885 12.3309C11.5616 12.3186 11.2008 12.3378 11.7925 12.0641C12.0002 11.968 12.1537 11.8593 12.3768 11.65C12.7248 11.3236 12.9168 11.0116 13.0329 10.584C13.1046 10.3201 13.107 10.1757 13.107 6.14803C13.107 2.12031 13.1046 1.97594 13.0329 1.71202C12.8292 0.961631 12.2629 0.387774 11.432 0.0895778L11.2104 0.0100494L6.64741 0.00375215C2.85918 -0.00151909 2.04813 0.00576871 1.87064 0.046665ZM16.8331 0.0633631C16.1465 0.233847 15.5761 0.674756 15.2734 1.2691C15.1801 1.45221 15.0854 1.68641 15.063 1.7895C15.0351 1.91799 15.0223 3.29834 15.0223 6.17701C15.0223 10.3042 15.0237 10.3816 15.0994 10.6417C15.2126 11.03 15.44 11.3804 15.7725 11.6787C16.0865 11.9604 16.3662 12.1148 16.7874 12.2386L17.0691 12.3214H21.557C26.6092 12.3214 26.2269 12.3412 26.8272 12.0476C27.3689 11.7825 27.7833 11.3184 28.0044 10.7291L28.1104 10.4464L28.1211 6.28954C28.1331 1.62085 28.1431 1.81486 27.8622 1.27235C27.5916 0.749543 27.1109 0.342739 26.5029 0.121842L26.1951 0.0100494L21.6509 0.00272623C17.2758 -0.00431388 17.0965 -0.0020497 16.8331 0.0633631ZM10.9572 1.83181C11.0246 1.87048 11.1132 1.95397 11.1543 2.0174C11.2276 2.13064 11.2289 2.20377 11.229 6.1486C11.2292 9.99267 11.2262 10.1697 11.1595 10.2869C11.1183 10.3593 11.0235 10.4423 10.9274 10.4902L10.7649 10.5711L6.51191 10.5618C2.26302 10.5525 2.25881 10.5524 2.15287 10.4785C2.09454 10.4378 2.0088 10.3519 1.96235 10.2875L1.87785 10.1706L1.87792 6.16933C1.87796 1.70463 1.85933 2.01623 2.13691 1.84154L2.26452 1.76123L6.54969 1.76137C10.7594 1.76148 10.837 1.76272 10.9572 1.83181ZM25.9924 1.84154C26.0626 1.88569 26.1496 1.97725 26.1859 2.04496C26.2478 2.16054 26.2512 2.41476 26.2422 6.18967C26.2327 10.1892 26.2322 10.2118 26.1552 10.3089C26.1126 10.3627 26.0311 10.4395 25.9741 10.4796C25.871 10.5521 25.846 10.5526 21.6387 10.5624C16.899 10.5734 17.1756 10.5875 16.9915 10.3253L16.8991 10.1939L16.909 6.12139L16.9189 2.04889L17.0315 1.93677C17.0935 1.87508 17.178 1.81136 17.2193 1.79516C17.2606 1.77896 19.2227 1.7647 21.5796 1.76346L25.8647 1.76123L25.9924 1.84154ZM1.84694 14.1797C0.998296 14.3891 0.379005 14.9493 0.0881365 15.7707C0.0230527 15.9544 0.0186211 16.2006 0.00874399 20.1646C-0.00297335 24.8708 -0.0149536 24.6391 0.268478 25.1807C0.391924 25.4165 0.490807 25.5419 0.729248 25.7649C1.05354 26.0682 1.30749 26.2153 1.7464 26.3539L2.00929 26.437L6.42207 26.447C11.3782 26.4583 11.1723 26.4677 11.7482 26.2032C12.2581 25.969 12.7195 25.5103 12.9226 25.0358C13.1075 24.6036 13.1042 24.6898 13.1057 20.2604C13.1069 16.2313 13.1046 16.0918 13.0328 15.8272C12.852 15.1615 12.3553 14.6025 11.6886 14.3145C11.1973 14.1023 11.3362 14.1078 6.52291 14.1099C2.30865 14.1118 2.11028 14.1147 1.84694 14.1797ZM20.6932 14.1592C18.5013 14.4563 16.5876 15.7828 15.6379 17.6634C14.9191 19.0866 14.8129 20.7948 15.3485 22.3155C15.9611 24.0549 17.3894 25.4575 19.2503 26.1469C21.1841 26.8633 23.5224 26.6259 25.2562 25.537L25.5942 25.3248L27.0589 26.7016C28.1531 27.7302 28.5663 28.0966 28.6925 28.1502C28.9105 28.2427 29.2565 28.2458 29.4639 28.1571C29.6662 28.0705 29.9102 27.8035 29.9696 27.6039C30.027 27.4109 30.0006 27.1105 29.9119 26.9451C29.8768 26.8797 29.1915 26.2053 28.389 25.4464L26.93 24.0667L27.1764 23.7129C28.6144 21.6483 28.5925 18.9281 27.1212 16.8647C26.1207 15.4615 24.6185 14.5342 22.7963 14.195C22.3625 14.1143 21.1739 14.094 20.6932 14.1592ZM10.928 15.9388C10.9999 15.9728 11.0971 16.0547 11.1439 16.1209L11.2292 16.2411V20.2813V24.3216L11.1447 24.4382C11.0982 24.5023 11.0013 24.5843 10.9293 24.6203C10.8042 24.6829 10.6136 24.6858 6.55412 24.6852L2.30974 24.6846L2.16342 24.6056C2.08294 24.5622 1.98559 24.4709 1.94706 24.4028C1.87976 24.2837 1.87743 24.1233 1.88682 20.2459L1.89663 16.2129L1.97992 16.1029C2.16105 15.8637 1.86065 15.8785 6.55352 15.8777C10.5198 15.877 10.8059 15.881 10.928 15.9388ZM22.3269 15.9135C23.2859 16.0421 24.2581 16.5086 24.9757 17.1847C25.5217 17.699 25.874 18.2371 26.1224 18.9365C26.6879 20.5283 26.2389 22.296 24.9669 23.4863C23.9999 24.3912 22.7412 24.8442 21.3719 24.7802C19.2211 24.6795 17.422 23.2226 16.9717 21.2165C16.8564 20.7033 16.8558 19.9682 16.9701 19.4594C17.168 18.5784 17.5569 17.8848 18.2114 17.2453C18.3881 17.0725 18.6428 16.8535 18.7774 16.7586C19.3257 16.3715 20.1126 16.0487 20.7871 15.9342C21.1401 15.8742 21.9528 15.8633 22.3269 15.9135Z" fill="#F3BD6A"/>
</svg>
