<svg width="50" height="46" viewBox="0 0 50 46" fill="none" xmlns="http://www.w3.org/2000/svg">
<path fill-rule="evenodd" clip-rule="evenodd" d="M11.5642 0.0583226C10.9223 0.139686 10.4624 0.375158 10.009 0.854667C9.5281 1.36311 9.28082 2.05966 9.33895 2.74195C9.36918 3.09701 9.47112 3.51218 9.57243 3.69329C9.6128 3.76536 9.50982 3.90202 9.02921 4.41428L8.43622 5.04633L9.29518 5.90414C9.76759 6.37592 10.1538 6.73866 10.1535 6.7103C10.1531 6.68189 10.0824 6.51974 9.99632 6.35002C9.84571 6.05308 9.84326 6.03731 9.93167 5.93568C9.98222 5.87756 10.3462 5.47967 10.7405 5.05145C11.4339 4.29855 11.5629 4.10204 11.5638 3.79779C11.5644 3.64498 11.4182 3.3424 11.2532 3.15445C11.0262 2.8959 10.9635 2.61264 11.0655 2.30562C11.355 1.43418 12.6126 1.58406 12.7006 2.50052C12.7314 2.82101 12.637 3.00645 12.2243 3.4363L11.9081 3.76557L12.2424 4.06323C12.4263 4.2269 12.7073 4.48493 12.8668 4.63664L13.157 4.91243L13.4374 4.61053C14.1635 3.82907 14.3842 3.35306 14.3842 2.56831C14.3842 1.68527 14.0002 0.954518 13.2855 0.477254C12.7654 0.129868 12.1606 -0.017296 11.5642 0.0583226ZM37.2386 0.12898C36.1744 0.504514 35.5344 1.40734 35.5344 2.53306C35.5344 3.53082 36.0363 4.34618 36.9183 4.78125C37.5204 5.07824 38.0874 5.13631 38.7355 4.96732C39.0113 4.89535 39.0985 4.88914 39.1271 4.93922C39.1473 4.97468 39.3165 5.16456 39.503 5.36118C39.6895 5.5578 39.9067 5.79207 39.9857 5.88179L40.1292 6.04488L39.9726 6.35179C39.8865 6.52058 39.8088 6.7302 39.7999 6.81767C39.7911 6.90515 39.7687 7.00118 39.7503 7.03106C39.6916 7.12589 39.5033 8.91604 39.5033 9.37847C39.5033 10.5627 39.9918 11.7023 40.8813 12.5936C41.0719 12.7845 41.3684 13.0313 41.5401 13.142C41.7119 13.2526 41.8526 13.3667 41.8529 13.3954C41.8532 13.4242 41.8185 13.6122 41.7759 13.8132C41.509 15.0733 41.947 16.6737 42.8239 17.6427L43.098 17.9456L42.9165 18.3314C42.3228 19.5934 42.3161 21.0834 42.8982 22.3255L43.0941 22.7433L42.9256 22.926C42.7108 23.1589 42.48 23.4711 42.48 23.5288C42.48 23.5532 42.5682 23.4922 42.6759 23.3932L42.8717 23.2133L42.6943 23.4065C42.5967 23.5128 42.4991 23.5951 42.4775 23.5893C42.4559 23.5835 42.4345 23.6023 42.4299 23.6311C42.4253 23.6598 42.3771 23.7306 42.3227 23.7884C42.0586 24.0696 41.7585 25.0738 41.7142 25.8244C41.6871 26.2853 41.7223 26.6965 41.8327 27.21C41.8574 27.3246 41.8241 27.3663 41.5843 27.5218C40.4315 28.2687 39.6125 29.6511 39.5205 31.0051L39.4879 31.4857L39.3259 31.5202C38.5035 31.6956 37.2796 32.5904 36.7679 33.3905C36.4421 33.8997 36.1638 34.5166 36.1619 34.7337C36.1612 34.8016 36.0551 34.8283 35.5997 34.8754C34.1889 35.021 32.9541 35.7557 32.1818 36.909C32.0207 37.1495 31.9394 37.2282 31.8738 37.2074C31.6416 37.1337 31.1266 37.079 30.6624 37.0787C29.7927 37.0782 28.9576 37.3042 28.5689 37.6454C28.4506 37.7492 28.3985 37.7816 28.4533 37.7174C28.508 37.6532 28.5363 37.6006 28.5162 37.6006C28.4405 37.6006 27.7201 38.1194 27.553 38.2941L27.379 38.4762L27.1614 38.3549C26.7953 38.1508 26.0308 37.9249 25.4931 37.862C24.7176 37.7712 23.9233 37.8827 23.1842 38.1863C22.6563 38.4031 22.5598 38.4739 22.643 38.5833C22.6797 38.6317 22.6342 38.6022 22.542 38.5178C22.3516 38.3437 22.313 38.2641 22.4918 38.4142C22.5587 38.4704 22.544 38.441 22.4577 38.3459C22.3743 38.254 22.2825 38.1934 22.2537 38.2111C22.225 38.2289 22.2166 38.219 22.235 38.1891C22.2535 38.1592 22.2292 38.1027 22.1809 38.0635C22.1054 38.0022 22.0995 38.0032 22.1391 38.0707C22.1644 38.1137 22.0841 38.0586 21.9607 37.9481C21.6443 37.665 20.8717 37.3071 20.3115 37.184C19.6334 37.035 18.6056 37.0478 18.0842 37.2117C18.022 37.2313 17.9317 37.139 17.7597 36.8803C17.3605 36.2798 16.6597 35.6619 16.0031 35.3313C15.5932 35.1249 14.9502 34.9423 14.3911 34.8734L13.8496 34.8067L13.76 34.5195C13.3404 33.1744 12.1272 31.9803 10.7488 31.5558L10.4818 31.4735L10.4526 31.0221C10.4165 30.465 10.3096 30.0416 10.0749 29.5267C9.70706 28.7195 9.10885 28.0063 8.41361 27.5462C8.14717 27.3698 8.11275 27.328 8.13782 27.2112C8.317 26.3776 8.3042 25.5829 8.0998 24.851C7.95676 24.3386 7.73884 23.8434 7.58019 23.6702C7.52102 23.6056 7.49042 23.5527 7.51219 23.5527C7.55977 23.5527 7.27959 23.1812 7.03811 22.9241L6.86463 22.7394L7.02041 22.4391C7.65904 21.2082 7.66902 19.5821 7.04574 18.3209L6.86285 17.9509L7.08762 17.7098C8.00643 16.7242 8.45805 15.1413 8.19641 13.8237C8.14623 13.5709 8.11385 13.3574 8.1244 13.3491C8.13495 13.3408 8.26107 13.2552 8.40468 13.159C9.44799 12.46 10.1418 11.42 10.3934 10.178C10.4992 9.65614 10.4744 8.80814 10.3189 7.63204L10.2198 6.88206L9.32135 5.98253L8.42296 5.08304L7.9177 5.09208C7.35014 5.10226 7.1929 5.15192 5.81965 5.7553C4.72313 6.23711 4.18999 6.62534 3.66327 7.32559C3.07435 8.10862 2.7512 8.9844 2.70503 9.92258C2.6902 10.2242 2.69976 10.6196 2.72629 10.8014L2.77454 11.1318L2.50941 11.3497C1.60794 12.0904 1.07208 12.9036 0.793627 13.9535C0.642495 14.5234 0.632677 15.6197 0.774096 16.1371C1.0233 17.0486 1.01714 17.0399 2.3917 18.4349L3.65241 19.7143L2.39201 18.4674L1.13161 17.2205L0.858071 17.6057C0.536065 18.0591 0.271974 18.6096 0.111911 19.1611C0.0143068 19.4975 -0.00266525 19.6806 0.000311445 20.3671C0.00339259 21.0916 0.0185373 21.2248 0.144394 21.636C0.318975 22.2064 0.53455 22.6413 0.86465 23.0891C1.00487 23.2793 1.1196 23.4692 1.1196 23.5109C1.1196 23.5527 1.05949 23.7348 0.986068 23.9156C0.798275 24.3777 0.651269 25.1238 0.651112 25.6155C0.650955 25.9961 0.809294 26.9676 0.883555 27.0419C0.900475 27.0588 1.22849 26.7592 1.61243 26.376C2.30595 25.6839 2.31075 25.6775 2.34652 25.3912C2.4011 24.9542 2.40465 24.9501 2.63067 25.0655C2.82582 25.165 2.8264 25.165 2.95011 25.0509C3.06171 24.9481 3.06516 24.9475 2.98463 25.0452C2.93544 25.1049 2.89518 25.1667 2.89518 25.1826C2.89518 25.2457 3.38111 25.3283 3.75278 25.3283C4.46118 25.3283 5.14593 25.006 5.5834 24.4666C5.69985 24.323 5.81829 24.1971 5.8466 24.1869C5.93762 24.1539 6.27378 24.708 6.42596 25.1419C6.54852 25.4913 6.57396 25.6496 6.57474 26.0687C6.57532 26.3466 6.55787 26.592 6.53599 26.6138C6.51416 26.6357 6.38982 26.6019 6.25973 26.5387C5.25862 26.0523 3.9107 26.4471 3.28272 27.4106L3.13383 27.639L2.98563 27.4629C2.75052 27.1834 2.4822 26.5889 2.40376 26.1737C2.36407 25.9636 2.32214 25.7823 2.31059 25.7707C2.299 25.7592 1.97574 26.0642 1.59222 26.4485L0.894888 27.1472L1.08921 27.5564C1.19606 27.7814 1.36155 28.083 1.45701 28.2267C1.64773 28.5137 2.15727 29.055 2.54043 29.3775L2.78619 29.5845L2.73125 29.8978C2.65103 30.3554 2.71099 31.2263 2.85888 31.7517C3.25191 33.1479 4.35021 34.3815 5.62554 34.8592C5.76289 34.9107 5.88519 34.9688 5.89725 34.9884C5.90937 35.0079 5.94431 35.1865 5.97496 35.3853C6.13633 36.4326 6.57845 37.3217 7.2892 38.0285C7.48253 38.2208 7.73732 38.442 7.8554 38.5201L8.07004 38.6621L8.31569 38.4317L8.56135 38.2012L8.3335 38.4442L8.10565 38.6872L8.23302 38.7706C8.65112 39.0446 9.70205 39.3762 10.1521 39.3762C10.3023 39.3762 10.3255 39.406 10.5681 39.9115C11.466 41.7823 13.2728 42.8196 15.271 42.6117L15.7662 42.5601L15.8995 42.7046C15.9729 42.784 16.1026 42.9414 16.1877 43.0542C16.4429 43.3924 17.0795 43.8986 17.5612 44.1464C18.7496 44.7576 19.9461 44.8426 21.2254 44.4068C21.527 44.3041 21.8094 44.2159 21.853 44.211C21.8965 44.2059 21.967 44.1809 22.0097 44.1552C22.074 44.1163 22.076 44.1221 22.0217 44.1892C21.966 44.258 22.0009 44.3008 22.2567 44.4777C22.9244 44.9396 23.5858 45.2138 24.3065 45.3275C25.5004 45.5158 26.8067 45.176 27.8054 44.4173C28.1471 44.1578 28.252 44.0918 28.2068 44.1651C28.1509 44.2555 29.2451 44.5923 29.7897 44.6522C30.3676 44.7159 31.0719 44.6507 31.6142 44.4834C32.3786 44.2475 33.2182 43.7103 33.688 43.1565C33.8275 42.9921 34.0004 42.7903 34.0722 42.708L34.2027 42.5585L34.6988 42.6108C36.6841 42.8203 38.5909 41.7288 39.3954 39.9222C39.6237 39.4094 39.6278 39.404 39.7958 39.3872C40.4435 39.3227 41.2084 39.0789 41.7422 38.7668L41.9705 38.6333L41.3505 37.9995L40.7306 37.3656L41.3669 37.9881L42.0032 38.6105L42.2024 38.4618C42.312 38.38 42.5662 38.1447 42.7673 37.9389C43.4492 37.2408 43.8668 36.34 44.0186 35.2395L44.0525 34.9934L44.5501 34.7577C45.3322 34.3872 45.7306 34.0757 46.2499 33.4286C46.6214 32.9657 46.9205 32.3886 47.1114 31.7664C47.2361 31.3601 47.2524 31.2215 47.254 30.5506C47.2551 30.1341 47.2415 29.7346 47.2239 29.6628C47.1958 29.5482 47.2403 29.494 47.5886 29.2189C48.1122 28.8054 48.4829 28.3424 48.801 27.7044C49.1931 26.9184 49.2881 26.5049 49.287 25.5894C49.2862 24.9249 49.2695 24.7778 49.1507 24.3883C49.0761 24.1441 48.9692 23.842 48.913 23.717L48.8108 23.4895L49.0711 23.1425C50.0396 21.8518 50.2669 20.1563 49.6769 18.6262C49.5332 18.2537 48.9454 17.286 48.8628 17.286C48.844 17.286 48.7104 17.3976 48.5658 17.534L48.3029 17.7821L48.5464 17.521C48.8072 17.2413 48.986 16.8676 49.1753 16.2058C49.3405 15.6283 49.3401 14.5803 49.1743 13.9437C48.9151 12.9482 48.4071 12.1592 47.5667 11.4468L47.1962 11.1326L47.2445 10.8018C47.271 10.6198 47.2806 10.2242 47.2658 9.92258C47.199 8.5652 46.5269 7.28862 45.4532 6.47953C44.9551 6.10421 44.8846 6.06634 43.8891 5.63984C42.6877 5.12519 42.6197 5.10513 42.0476 5.09672L41.5368 5.0892L40.9187 4.4124L40.3007 3.73559L40.4239 3.4082C40.9475 2.01725 40.1797 0.516421 38.7235 0.084434C38.2938 -0.043094 37.6736 -0.0245029 37.2386 0.12898ZM38.3692 1.74329C39.1094 2.06002 39.0407 3.14453 38.2681 3.33906C37.6518 3.49427 37.1208 2.99711 37.2239 2.36166C37.2639 2.11517 37.3989 1.93584 37.6543 1.78972C37.8886 1.65576 38.1282 1.6402 38.3692 1.74329ZM41.5923 5.18582C41.5923 5.19433 41.4923 5.29423 41.3703 5.40776L41.1484 5.6142L41.3548 5.39225C41.5468 5.18587 41.5923 5.14628 41.5923 5.18582ZM41.1222 5.65619C41.1222 5.66491 41.0341 5.75301 40.9264 5.85202L40.7306 6.03198L40.9105 5.83615C41.0781 5.65389 41.1222 5.61629 41.1222 5.65619ZM40.7045 6.07235C40.7045 6.08024 40.5106 6.27409 40.2736 6.50319L39.8428 6.91977L40.2594 6.48893C40.6462 6.0888 40.7045 6.03428 40.7045 6.07235ZM8.33548 6.92807C8.39382 6.98082 8.47267 7.08427 8.5108 7.15796C8.61164 7.35301 8.81296 9.20384 8.77457 9.58313C8.69692 10.3503 8.31726 11.067 7.72886 11.5572L7.49057 11.7558L7.30988 11.3592C7.0778 10.8499 6.66749 10.4292 6.15983 10.18C5.79829 10.0025 5.78863 10.0009 5.08012 10.0009H4.3652L4.39303 9.84424C4.56479 8.87614 4.99166 8.16737 5.6752 7.71528C5.93329 7.54456 7.54953 6.82478 7.77801 6.77882C7.93823 6.7466 8.21762 6.82138 8.33548 6.92807ZM42.6415 6.94818C42.8309 7.02609 43.0659 7.12647 43.1637 7.17127C43.2617 7.21603 43.4933 7.3152 43.6784 7.39155C44.4188 7.69674 44.9497 8.18027 45.2703 8.84131C45.4269 9.16425 45.6444 9.96122 45.5905 10.0151C45.5807 10.0249 45.4193 10.0124 45.2319 9.98728C44.1004 9.83568 43.1514 10.3394 42.6656 11.3494L42.4715 11.7529L42.2169 11.5398C41.639 11.056 41.2681 10.336 41.1952 9.55702C41.1613 9.19449 41.3439 7.44873 41.4419 7.19911C41.5543 6.91256 41.8915 6.71641 42.1667 6.77751C42.2385 6.79349 42.4522 6.87026 42.6415 6.94818ZM5.60789 11.8259C5.68983 11.9044 5.7974 12.0749 5.84702 12.2049C5.94906 12.472 5.94864 12.4727 5.57384 12.6178C5.15987 12.7781 4.72689 12.5706 4.61602 12.1589C4.54505 11.8952 4.56573 11.8423 4.78319 11.7315C5.04101 11.6001 5.41707 11.6432 5.60789 11.8259ZM45.1719 11.7219C45.3964 11.8157 45.4272 11.89 45.3542 12.1613C45.2871 12.4104 45.0361 12.6282 44.7657 12.6721C44.5886 12.7009 44.0467 12.5178 44.0467 12.4292C44.0467 12.3437 44.2001 12.0297 44.3103 11.8897C44.5057 11.6413 44.8285 11.5784 45.1719 11.7219ZM3.42498 13.4722C4.05092 14.28 5.18436 14.5731 6.19498 14.1883L6.54414 14.0553L6.57975 14.3402C6.65417 14.936 6.4187 15.8075 6.04578 16.3164L5.85699 16.574L5.69474 16.3691C5.18864 15.7302 4.68057 15.4416 3.94094 15.3729C3.54744 15.3363 3.10052 15.4149 2.70326 15.5906C2.39279 15.7279 2.39666 15.7314 2.34558 15.2659C2.2813 14.6799 2.51708 13.8866 2.92374 13.3206C3.1013 13.0735 3.13175 13.0512 3.17995 13.1333C3.21003 13.1846 3.32027 13.3371 3.42498 13.4722ZM47.0767 13.3446C47.4725 13.9201 47.698 14.7625 47.6148 15.3559C47.5889 15.5414 47.545 15.6881 47.5174 15.682C47.4899 15.6758 47.3146 15.6057 47.1279 15.5262C46.8266 15.398 46.7267 15.3821 46.2401 15.385C45.8052 15.3876 45.631 15.4119 45.3983 15.5027C44.9945 15.6603 44.5639 15.9805 44.3332 16.2948C44.1126 16.5952 44.0961 16.5917 43.8375 16.1887C43.511 15.68 43.3334 14.9559 43.3937 14.3797L43.4273 14.0584L43.8803 14.2164C44.2932 14.3604 44.375 14.372 44.8036 14.3465C45.3177 14.3161 45.6014 14.2254 46.0082 13.9615C46.289 13.7794 46.6346 13.4254 46.7247 13.2275C46.8052 13.0508 46.8951 13.0808 47.0767 13.3446ZM4.00992 17.0965C4.17505 17.1655 4.51408 17.532 4.51408 17.6415C4.51408 17.7317 4.08753 18.014 3.89723 18.0497C3.63914 18.0982 3.28627 17.9176 3.17243 17.6789C3.09587 17.5183 3.09441 17.4799 3.16005 17.3569C3.23447 17.2174 3.56932 17.0282 3.74547 17.026C3.79665 17.0254 3.91566 17.0571 4.00992 17.0965ZM46.5273 17.1222C46.6422 17.1744 46.7697 17.28 46.8108 17.3569C46.8764 17.4798 46.875 17.5182 46.7995 17.6765C46.7102 17.8636 46.3902 18.0693 46.1883 18.0693C46.0396 18.0693 45.7748 17.9472 45.5889 17.7928L45.4339 17.664L45.5812 17.4514C45.7349 17.2297 45.8859 17.1071 46.0595 17.0629C46.2424 17.0165 46.3152 17.0257 46.5273 17.1222ZM48.2768 17.8241C48.2768 17.8328 48.1887 17.9209 48.0809 18.0199L47.8851 18.1999L48.0651 18.0041C48.2326 17.8218 48.2768 17.7842 48.2768 17.8241ZM47.859 18.2419C47.859 18.2506 47.7709 18.3387 47.6632 18.4377L47.4673 18.6177L47.6473 18.4218C47.8148 18.2396 47.859 18.202 47.859 18.2419ZM47.4412 18.6597C47.4412 18.6684 47.3531 18.7565 47.2454 18.8555L47.0495 19.0355L47.2295 18.8396C47.397 18.6574 47.4412 18.6198 47.4412 18.6597ZM2.22223 19.1649C2.683 19.5701 3.34163 19.7773 4.00763 19.7264C4.46682 19.6913 4.86732 19.5396 5.23826 19.2601C5.55655 19.0203 5.55744 19.0208 5.70262 19.4793C5.87783 20.0328 5.80012 21.2002 5.56397 21.5633C5.52532 21.6227 5.46804 21.6016 5.26322 21.4524C4.91745 21.2005 4.64333 21.0697 4.31569 21.0002C3.54096 20.836 2.77987 21.0359 2.19529 21.5572L1.99157 21.739L1.91856 21.5996C1.79202 21.3581 1.64183 20.6765 1.64183 20.3436C1.64183 19.8935 1.88461 19.0093 2.00822 19.0093C2.0287 19.0093 2.12499 19.0793 2.22223 19.1649ZM48.1623 19.405C48.3919 20.0822 48.3592 20.9076 48.0779 21.5365L47.9869 21.7398L47.7354 21.5221C47.2912 21.1376 46.7682 20.9412 46.1914 20.9422C45.5443 20.9434 45.0321 21.1545 44.4879 21.6443L44.1773 21.9239L44.3601 22.1247L44.5428 22.3255L44.3468 22.1453L44.1508 21.9652L43.9291 22.1714L43.7073 22.3777L43.9137 22.1558L44.1201 21.9338L43.9137 21.7119L43.7073 21.4899L43.9298 21.697L44.1525 21.904L44.2858 21.7707L44.4191 21.6374L44.2997 21.3025C44.0911 20.7173 44.1495 19.514 44.4056 19.1206C44.4424 19.0642 44.5134 19.0944 44.743 19.264C45.1209 19.5432 45.4998 19.6892 45.9428 19.7263L46.2999 19.7562L46.6747 19.3958L47.0495 19.0355L46.7101 19.3945L46.3706 19.7536L46.5534 19.7206C46.965 19.6464 47.2811 19.5106 47.6003 19.2708C47.7857 19.1315 47.9603 19.0234 47.9885 19.0305C48.0167 19.0376 48.0949 19.2062 48.1623 19.405ZM42.6889 20.4455C42.7864 20.546 42.8543 20.6282 42.84 20.6282C42.8256 20.6282 42.7342 20.546 42.6367 20.4455C42.5393 20.3449 42.4713 20.2627 42.4857 20.2627C42.5 20.2627 42.5915 20.3449 42.6889 20.4455ZM6.75966 21.281L6.00379 22.0383L6.76034 22.8085L7.51689 23.5788L6.74645 22.8221L5.97601 22.0654L4.52698 23.501L3.07796 24.9366L4.51246 23.4887L5.94702 22.0408L5.76581 21.8437L5.58465 21.6466L5.78179 21.8279L5.97893 22.0091L6.72159 21.2665C7.13003 20.858 7.47574 20.5238 7.48989 20.5238C7.50399 20.5238 7.17541 20.8646 6.75966 21.281ZM43.1067 20.8632C43.2042 20.9638 43.2721 21.046 43.2577 21.046C43.2434 21.046 43.1519 20.9638 43.0545 20.8632C42.957 20.7627 42.8891 20.6805 42.9035 20.6805C42.9178 20.6805 43.0093 20.7627 43.1067 20.8632ZM43.5245 21.281C43.6219 21.3816 43.6899 21.4638 43.6755 21.4638C43.6612 21.4638 43.5697 21.3816 43.4723 21.281C43.3748 21.1805 43.3069 21.0983 43.3212 21.0983C43.3356 21.0983 43.427 21.1805 43.5245 21.281ZM44.7778 22.5344C44.8753 22.6349 44.9432 22.7172 44.9289 22.7172C44.9145 22.7172 44.8231 22.6349 44.7256 22.5344C44.6282 22.4338 44.5602 22.3516 44.5746 22.3516C44.589 22.3516 44.6804 22.4338 44.7778 22.5344ZM43.6812 22.4197C43.6812 22.4284 43.5931 22.5165 43.4853 22.6155L43.2895 22.7955L43.4695 22.5997C43.637 22.4174 43.6812 22.3798 43.6812 22.4197ZM3.97634 22.6605C4.15395 22.7114 4.51408 22.9731 4.51408 23.0512C4.51408 23.077 4.43079 23.1997 4.32895 23.324C4.09667 23.6075 3.82923 23.7032 3.52467 23.6119C3.31672 23.5496 3.10407 23.342 3.10407 23.2012C3.10407 23.0422 3.29468 22.8037 3.49574 22.7112C3.73904 22.5991 3.75617 22.5974 3.97634 22.6605ZM46.4096 22.675C46.684 22.7572 46.9087 23.0737 46.8366 23.2763C46.7617 23.4863 46.5316 23.6292 46.2772 23.6235C45.9733 23.6166 45.7763 23.5849 45.7999 23.5467C45.8109 23.529 45.7679 23.4702 45.7045 23.4161C45.6085 23.3342 45.601 23.3331 45.6599 23.4091C45.7608 23.5394 45.701 23.5224 45.5823 23.3871C45.5276 23.3247 45.5122 23.2908 45.5481 23.3118C45.6401 23.3656 45.6296 23.2657 45.5351 23.1872C45.4167 23.089 45.4389 23.0186 45.6383 22.8596C45.9505 22.6104 46.086 22.578 46.4096 22.675ZM45.2217 22.9783C45.3339 23.0932 45.414 23.1872 45.3996 23.1872C45.3852 23.1872 45.2817 23.0932 45.1695 22.9783C45.0573 22.8634 44.9773 22.7694 44.9916 22.7694C45.006 22.7694 45.1096 22.8634 45.2217 22.9783ZM43.2634 22.8375C43.2634 22.8462 43.1753 22.9343 43.0675 23.0333L42.8717 23.2133L43.0517 23.0174C43.2192 22.8352 43.2634 22.7976 43.2634 22.8375ZM46.2662 24.0227C46.4657 24.2238 46.6172 24.3883 46.6028 24.3883C46.5885 24.3883 46.4135 24.2238 46.214 24.0227C46.0145 23.8217 45.863 23.6572 45.8773 23.6572C45.8917 23.6572 46.0667 23.8217 46.2662 24.0227ZM44.4264 24.4995C44.7169 24.8491 45.0466 25.0701 45.509 25.2251C45.791 25.3196 45.9323 25.335 46.3445 25.316C46.6559 25.3016 46.9243 25.2583 47.0654 25.1995L47.29 25.1059L47.1698 24.969L47.0495 24.8322L47.1882 24.9542C47.3001 25.0526 47.347 25.0654 47.4311 25.0204C47.5454 24.9592 47.5979 25.0277 47.5979 25.2383C47.5979 25.299 47.6625 25.4201 47.7415 25.5074C47.8205 25.5947 47.8351 25.6243 47.7739 25.5732L47.6628 25.4803L47.6259 25.8351C47.5753 26.3232 47.3745 26.8974 47.1269 27.2619C47.0128 27.4299 46.8987 27.5802 46.8734 27.5959C46.848 27.6116 46.7625 27.5249 46.6832 27.4033C46.3583 26.9044 45.7506 26.4934 45.1548 26.3697C44.7548 26.2866 44.2527 26.3354 43.8156 26.5C43.618 26.5743 43.4422 26.6212 43.4251 26.6041C43.4079 26.587 43.3965 26.334 43.3996 26.042C43.4046 25.5823 43.4276 25.4515 43.5709 25.0672C43.7398 24.6143 44.0786 24.0795 44.1453 24.1606C44.1656 24.1853 44.2921 24.3378 44.4264 24.4995ZM46.8668 24.6233C46.9642 24.7238 47.0321 24.8061 47.0178 24.8061C47.0034 24.8061 46.912 24.7238 46.8145 24.6233C46.7171 24.5228 46.6491 24.4405 46.6635 24.4405C46.6779 24.4405 46.7693 24.5228 46.8668 24.6233ZM48.1201 25.8766C48.2175 25.9772 48.2855 26.0594 48.2711 26.0594C48.2568 26.0594 48.1653 25.9772 48.0679 25.8766C47.9704 25.7761 47.9025 25.6939 47.9168 25.6939C47.9312 25.6939 48.0227 25.7761 48.1201 25.8766ZM48.5379 26.2944C48.6353 26.3949 48.7033 26.4772 48.6889 26.4772C48.6745 26.4772 48.5831 26.3949 48.4857 26.2944C48.3882 26.1939 48.3203 26.1116 48.3346 26.1116C48.349 26.1116 48.4404 26.1939 48.5379 26.2944ZM48.9557 26.7122C49.0531 26.8127 49.1211 26.895 49.1067 26.895C49.0923 26.895 49.0009 26.8127 48.9034 26.7122C48.806 26.6117 48.7381 26.5294 48.7524 26.5294C48.7668 26.5294 48.8582 26.6117 48.9557 26.7122ZM5.70215 28.1318C5.8242 28.1774 5.92357 28.2409 5.92295 28.2729C5.92018 28.4134 5.71599 28.7651 5.56199 28.8946C5.34892 29.0739 4.99255 29.0886 4.7307 28.929C4.56834 28.83 4.55821 28.8082 4.59148 28.6289C4.66407 28.2375 5.0125 27.9594 5.34965 28.024C5.42145 28.0377 5.58011 28.0862 5.70215 28.1318ZM45.0044 28.0929C45.1704 28.156 45.3343 28.3912 45.3792 28.6307C45.4126 28.8081 45.4022 28.8301 45.2401 28.929C44.9657 29.0963 44.6168 29.0749 44.3914 28.877C44.2158 28.7229 43.9981 28.2841 44.0643 28.2178C44.0822 28.1999 44.2207 28.1419 44.3721 28.0889C44.6414 27.9948 44.7481 27.9955 45.0044 28.0929ZM7.79138 29.1797C8.23924 29.5454 8.67378 30.3536 8.76324 30.9873L8.7917 31.1891L8.41021 31.1533C7.90292 31.1058 7.4442 31.1942 7.00641 31.4238C6.44721 31.7171 6.10072 32.149 5.78644 32.9445C5.73949 33.0634 5.72784 33.0572 5.36077 32.7174C4.82726 32.2234 4.48369 31.5682 4.39564 30.8771L4.36739 30.6554L4.58437 30.6943C5.00874 30.7706 5.61849 30.7332 5.94279 30.6109C6.55615 30.3797 7.05952 29.9073 7.31333 29.3247C7.395 29.1373 7.48201 28.9839 7.50666 28.9839C7.53136 28.9839 7.65946 29.072 7.79138 29.1797ZM42.6558 29.3208C43.0569 30.2415 44.0526 30.8343 45.0385 30.7394C45.2254 30.7214 45.4293 30.6928 45.4916 30.6759C45.5979 30.6469 45.6031 30.6588 45.5759 30.872C45.4868 31.5706 45.1427 32.2276 44.6122 32.7117C44.2455 33.0464 44.1512 33.0871 44.1511 32.9106C44.1511 32.7282 43.8446 32.1848 43.5764 31.8917C43.08 31.3488 42.3455 31.0798 41.5606 31.1533L41.1791 31.1891L41.2076 30.9873C41.3071 30.2834 41.7386 29.5179 42.2561 29.1275C42.3608 29.0485 42.4605 28.9839 42.4777 28.9839C42.4949 28.9839 42.5751 29.1355 42.6558 29.3208ZM8.5204 32.8808C8.6249 32.9088 8.63315 32.9354 8.60553 33.1543C8.54599 33.626 8.2796 33.9102 7.89728 33.9102C7.53151 33.9102 7.43856 33.831 7.43856 33.5193C7.43856 33.2806 7.45898 33.2335 7.64129 33.0511C7.82678 32.8657 7.86793 32.8484 8.12435 32.8491C8.27856 32.8495 8.45675 32.8638 8.5204 32.8808ZM42.3295 33.0511C42.5118 33.2335 42.5323 33.2806 42.5323 33.5193C42.5323 33.8298 42.4391 33.9102 42.0796 33.9102C41.6948 33.9102 41.4267 33.6351 41.3636 33.1753C41.3226 32.8763 41.357 32.8502 41.7942 32.8492C42.1113 32.8484 42.1362 32.8578 42.3295 33.0511ZM10.7474 33.3837C11.298 33.6751 11.9575 34.4184 12.1078 34.9169C12.1385 35.0187 12.1112 35.0318 11.7492 35.0902C11.2363 35.173 10.7838 35.404 10.4202 35.769C10.1371 36.053 9.88619 36.4759 9.81229 36.7933C9.78205 36.9234 9.88258 36.8447 10.4483 36.2951L11.1203 35.6423L10.4283 36.348C9.73725 37.0528 9.73636 37.054 9.73636 37.301C9.73636 37.6054 9.69349 37.612 9.21826 37.3824C8.63832 37.1022 7.9587 36.3229 7.78041 35.7337C7.74824 35.6274 7.76234 35.6162 7.92856 35.6162C8.45977 35.6162 9.08013 35.3656 9.49817 34.982C9.93554 34.5808 10.1294 34.1809 10.2855 33.3575C10.3005 33.2785 10.3384 33.2139 10.3698 33.2139C10.4011 33.2139 10.571 33.2903 10.7474 33.3837ZM39.6869 33.4098C39.7468 33.7808 39.9357 34.3148 40.0892 34.5464C40.5037 35.1723 41.3142 35.6162 42.0423 35.6162C42.2087 35.6162 42.2225 35.6272 42.1895 35.7337C42.0038 36.3325 41.3471 37.0855 40.7567 37.3765C40.2529 37.6248 40.2668 37.629 40.2307 37.2184L40.1994 36.8624L39.6294 36.2785L39.0594 35.6946L39.5947 36.2158C39.8892 36.5025 40.13 36.7174 40.13 36.6934C40.13 36.6694 40.0444 36.4869 39.9398 36.2878C39.6065 35.6535 38.9665 35.2073 38.2254 35.0924C38.0252 35.0614 37.8513 35.026 37.8391 35.0138C37.7748 34.9495 38.1972 34.2578 38.4907 33.9467C38.7948 33.6242 39.404 33.22 39.5924 33.2155C39.627 33.2146 39.6695 33.3021 39.6869 33.4098ZM14.5969 36.6141C15.1789 36.7389 15.8905 37.1799 16.2092 37.6133C16.3826 37.8491 16.3785 37.8634 16.1075 37.9673C15.3974 38.2395 14.8652 38.8527 14.6475 39.6497C14.5776 39.9054 14.5938 40.6704 14.673 40.8592C14.7738 41.0993 13.6236 40.7882 13.1199 40.4392C12.8432 40.2475 12.2953 39.6658 12.2953 39.5638C12.2953 39.5468 12.3364 39.5329 12.3867 39.5328C12.5675 39.5328 13.1357 39.2192 13.3996 38.9738C13.9847 38.4299 14.2062 37.8684 14.1629 37.0393C14.1342 36.49 14.1134 36.5104 14.5969 36.6141ZM35.8216 37.1959C35.8216 37.8079 35.8289 37.851 35.9895 38.1901C36.2174 38.6713 36.6512 39.1179 37.1167 39.3508C37.3169 39.451 37.5245 39.5329 37.5781 39.5329C37.7491 39.5329 37.6854 39.6402 37.2645 40.061C36.9683 40.3572 36.757 40.5172 36.5082 40.6336C36.1097 40.8201 35.689 40.9414 35.4374 40.9423C35.2903 40.9428 35.2684 40.9282 35.3011 40.8515C35.3225 40.8013 35.3513 40.5568 35.3651 40.3082C35.3855 39.9385 35.3692 39.7912 35.2754 39.4987C35.0421 38.7712 34.5425 38.2295 33.8633 37.9677C33.7628 37.9289 33.6629 37.8822 33.6413 37.8637C33.52 37.7603 34.3097 37.0251 34.7476 36.8338C35.0773 36.6897 35.504 36.5619 35.665 36.559L35.8216 36.5562V37.1959ZM12.4798 36.9958C12.547 37.534 12.3166 37.855 11.8296 37.9018C11.5362 37.93 11.4584 37.8593 11.4214 37.5309C11.395 37.2965 11.4813 37.0555 11.6386 36.925C11.7578 36.8261 12.088 36.7178 12.2785 36.7152C12.4406 36.7129 12.4453 36.7195 12.4798 36.9958ZM38.1838 36.828C38.2612 36.8652 38.3803 36.9779 38.4485 37.0784C38.5496 37.2274 38.5682 37.3087 38.5487 37.518C38.521 37.8153 38.4228 37.914 38.1548 37.914C37.9171 37.914 37.6544 37.7456 37.5505 37.5266C37.4594 37.3347 37.4498 37.2132 37.5012 36.9024L37.5346 36.7002L37.7889 36.7303C37.9288 36.7469 38.1065 36.7908 38.1838 36.828ZM9.31858 37.4603C9.31858 37.4693 9.24223 37.5457 9.14885 37.6301L8.97913 37.7834L9.13251 37.6137C9.27549 37.4555 9.31858 37.42 9.31858 37.4603ZM8.95302 37.8254C8.95302 37.8341 8.86492 37.9222 8.75718 38.0213L8.56135 38.2012L8.74131 38.0054C8.90884 37.8231 8.95302 37.7855 8.95302 37.8254ZM28.2232 37.9832C28.2232 37.9926 28.1586 38.0572 28.0796 38.1268L27.936 38.2534L28.0626 38.1098C28.1809 37.9756 28.2232 37.9422 28.2232 37.9832ZM27.8054 38.402C27.8054 38.4119 27.7525 38.4648 27.6879 38.5195L27.5704 38.619L27.6699 38.5015C27.7634 38.3911 27.8054 38.3602 27.8054 38.402ZM19.948 38.8299C20.3296 38.9284 20.8325 39.1644 21.0426 39.3436L21.1993 39.4773L21.0165 39.6192C20.3153 40.1637 19.9979 40.7922 20.0052 41.6218C20.009 42.0426 20.0639 42.262 20.3085 42.8328C20.4069 43.0623 19.271 43.027 18.6586 42.7815C18.2735 42.6271 17.7264 42.2837 17.7264 42.1963C17.7264 42.173 17.8283 42.0943 17.9528 42.0213C18.3595 41.783 18.7455 41.2677 18.9008 40.7557C19.0251 40.3459 19.0031 39.6991 18.8492 39.2407C18.7774 39.0268 18.7187 38.8422 18.7187 38.8306C18.7187 38.7326 19.5692 38.7321 19.948 38.8299ZM31.1849 38.7914C31.2328 38.8218 31.2168 38.9302 31.1196 39.2365C30.9683 39.713 30.9474 40.3516 31.07 40.7557C31.2236 41.262 31.5929 41.7587 32.0133 42.0243C32.1403 42.1045 32.2442 42.1875 32.2443 42.2088C32.2445 42.2976 31.7188 42.6242 31.3305 42.7766C30.6949 43.0259 29.5632 43.064 29.6623 42.8328C29.9102 42.2544 29.9601 42.0473 29.9605 41.5957C29.9611 40.8292 29.6621 40.1977 29.0775 39.7312C28.9236 39.6084 28.7977 39.4928 28.7977 39.4743C28.7977 39.3441 29.5712 38.933 30.0249 38.8222C30.319 38.7504 31.0882 38.73 31.1849 38.7914ZM22.9748 38.9062C23.0268 38.9637 23.0576 39.0107 23.0432 39.0107C23.0289 39.0107 22.9746 38.9637 22.9226 38.9062C22.8706 38.8488 22.8398 38.8018 22.8542 38.8018C22.8686 38.8018 22.9229 38.8488 22.9748 38.9062ZM27.3354 38.8737C27.3354 38.8845 27.2943 38.9257 27.244 38.9651C27.1612 39.03 27.1594 39.0282 27.2243 38.9454C27.2926 38.8584 27.3354 38.8308 27.3354 38.8737ZM23.3926 39.324C23.4446 39.3814 23.4754 39.4284 23.461 39.4284C23.4467 39.4284 23.3924 39.3814 23.3404 39.324C23.2884 39.2666 23.2576 39.2196 23.272 39.2196C23.2863 39.2196 23.3407 39.2666 23.3926 39.324ZM26.9177 39.2915C26.9177 39.3023 26.8765 39.3435 26.8263 39.3829C26.7434 39.4478 26.7416 39.446 26.8065 39.3632C26.8748 39.2762 26.9177 39.2485 26.9177 39.2915ZM17.2225 39.6776C17.2699 39.8002 17.3086 39.9765 17.3085 40.0692C17.3079 40.5682 16.6308 40.9563 16.3932 40.5938C16.2415 40.3623 16.2352 40.0586 16.3775 39.8462C16.4986 39.6657 17.0393 39.3493 17.105 39.4206C17.1222 39.4393 17.1751 39.5549 17.2225 39.6776ZM33.4639 39.6828C33.721 39.9083 33.7692 40.3013 33.576 40.5963C33.412 40.8466 33.0056 40.7569 32.7766 40.4199C32.6355 40.2124 32.6389 39.9135 32.7862 39.5748L32.8702 39.3817L33.1186 39.4899C33.2554 39.5493 33.4107 39.6361 33.4639 39.6828ZM25.7082 39.5905C25.8329 39.6177 26.0209 39.6782 26.126 39.725C26.2311 39.7718 26.3365 39.8059 26.3601 39.8008C26.3838 39.7956 26.3881 39.8159 26.3696 39.8458C26.3511 39.8757 26.3141 39.8866 26.2874 39.8701C26.2606 39.8536 26.2388 39.8595 26.2388 39.8833C26.2388 39.907 26.1465 40.0381 26.0338 40.1744C25.7403 40.5297 25.5889 41.0108 25.5949 41.5696C25.6016 42.1993 25.7642 42.6183 26.2177 43.1746L26.3554 43.3436L26.1065 43.4503C25.7382 43.6082 25.4798 43.6558 24.9833 43.6572C24.5294 43.6585 24.061 43.5666 23.7793 43.4209L23.6228 43.34L23.8327 43.0764C24.076 42.7709 24.2774 42.3629 24.3302 42.0688C24.3651 41.875 24.3617 41.8674 24.2716 41.9374C24.1921 41.9991 24.1936 41.991 24.2804 41.8892C24.5201 41.6083 24.3314 40.6911 23.9167 40.1212C23.7901 39.9472 23.7001 39.7912 23.7167 39.7745C23.7333 39.7579 23.7146 39.7026 23.6751 39.6516C23.6064 39.563 23.608 39.563 23.7118 39.6511C23.8121 39.7364 23.8348 39.7371 24.0152 39.6618C24.427 39.4897 25.1126 39.4609 25.7082 39.5905ZM22.5862 41.1779C22.795 41.5017 22.6617 41.9945 22.3171 42.1727C22.1881 42.2394 22.1233 42.2461 22.0275 42.2024C21.7412 42.072 21.6074 41.5778 21.7721 41.2593C21.8143 41.1777 21.9489 41.0374 22.0713 40.9474L22.2937 40.7838L22.3895 40.9025C22.4421 40.9678 22.5307 41.0917 22.5862 41.1779ZM28.1971 41.2561C28.3197 41.4933 28.2975 41.8181 28.1449 42.0181C27.9674 42.2508 27.8432 42.2803 27.6206 42.1428C27.3971 42.0046 27.2826 41.7966 27.285 41.533C27.287 41.327 27.3278 41.2344 27.539 40.9566L27.6642 40.7919L27.8914 40.9482C28.0164 41.0341 28.1539 41.1727 28.1971 41.2561ZM25.8993 41.8307C25.9513 41.8881 25.9821 41.9351 25.9677 41.9351C25.9534 41.9351 25.899 41.8881 25.8471 41.8307C25.7951 41.7732 25.7643 41.7262 25.7787 41.7262C25.793 41.7262 25.8473 41.7732 25.8993 41.8307ZM26.3171 42.2485C26.3691 42.3059 26.3999 42.3529 26.3855 42.3529C26.3711 42.3529 26.3168 42.3059 26.2649 42.2485C26.2129 42.191 26.1821 42.144 26.1965 42.144C26.2108 42.144 26.2651 42.191 26.3171 42.2485ZM23.9932 42.216C23.9932 42.2268 23.952 42.268 23.9018 42.3074C23.819 42.3723 23.8171 42.3705 23.882 42.2876C23.9503 42.2006 23.9932 42.173 23.9932 42.216ZM26.7349 42.6663C26.7868 42.7237 26.8176 42.7707 26.8033 42.7707C26.7889 42.7707 26.7346 42.7237 26.6826 42.6663C26.6307 42.6088 26.5999 42.5618 26.6142 42.5618C26.6286 42.5618 26.6829 42.6088 26.7349 42.6663ZM23.5754 42.6338C23.5754 42.6446 23.5342 42.6857 23.484 42.7252C23.4012 42.7901 23.3994 42.7882 23.4643 42.7054C23.5325 42.6184 23.5754 42.5908 23.5754 42.6338ZM27.1527 43.084C27.2046 43.1415 27.2354 43.1885 27.2211 43.1885C27.2067 43.1885 27.1524 43.1415 27.1004 43.084C27.0485 43.0266 27.0177 42.9796 27.032 42.9796C27.0464 42.9796 27.1007 43.0266 27.1527 43.084ZM23.1576 43.0516C23.1576 43.0624 23.1165 43.1035 23.0662 43.1429C22.9834 43.2079 22.9816 43.206 23.0465 43.1232C23.1147 43.0362 23.1576 43.0086 23.1576 43.0516ZM27.5704 43.5018C27.6224 43.5593 27.6532 43.6063 27.6388 43.6063C27.6245 43.6063 27.5702 43.5593 27.5182 43.5018C27.4663 43.4444 27.4354 43.3974 27.4498 43.3974C27.4642 43.3974 27.5185 43.4444 27.5704 43.5018ZM22.7398 43.4693C22.7398 43.4802 22.6987 43.5213 22.6484 43.5607C22.5656 43.6256 22.5638 43.6238 22.6287 43.541C22.697 43.454 22.7398 43.4264 22.7398 43.4693ZM27.9882 43.9196C28.0402 43.9771 28.071 44.0241 28.0566 44.0241C28.0423 44.0241 27.988 43.9771 27.936 43.9196C27.884 43.8622 27.8532 43.8152 27.8676 43.8152C27.8819 43.8152 27.9363 43.8622 27.9882 43.9196ZM22.322 43.8871C22.322 43.8979 22.2809 43.9391 22.2307 43.9785C22.1478 44.0434 22.146 44.0416 22.2109 43.9588C22.2792 43.8718 22.322 43.8441 22.322 43.8871Z" fill="#F3BF70"/>
</svg>
