<svg width="18" height="22" viewBox="0 0 18 22" fill="none" xmlns="http://www.w3.org/2000/svg">
<path d="M1.71177 0.0733452C1.07173 0.357544 0.505536 1.02067 0.210133 1.80222C0.0378137 2.26404 0.0296081 2.40614 0.00499109 7.41514C-0.0114202 10.8847 0.0131967 12.7557 0.0706364 13.182C0.259367 14.5083 1.08814 15.4674 2.13026 15.574C2.44207 15.5977 2.69645 15.6569 2.69645 15.6924C2.69645 15.7161 2.43387 16.9595 2.11385 18.4515C1.761 20.1093 1.55586 21.2461 1.58868 21.4001C1.65433 21.7079 2.01538 21.8382 2.23693 21.6369C2.3354 21.554 3.61548 20.1567 5.0925 18.5344L7.77575 15.5977H11.9442C14.529 15.5977 16.2276 15.5503 16.4163 15.4793C16.9251 15.2661 17.4666 14.6385 17.7456 13.9399L18 13.2886V7.90064C18 3.63767 17.9754 2.41798 17.8851 2.05089C17.7374 1.43513 17.2779 0.724632 16.7774 0.345701L16.3589 0.0259781L9.13789 0.00229645C5.16635 -0.00954628 1.82665 0.0259781 1.71177 0.0733452ZM16.1209 1.32855C16.523 1.49434 16.8594 1.89695 17.0481 2.41798C17.1138 2.59561 17.1384 4.24159 17.1384 7.80591C17.1384 13.7267 17.163 13.5136 16.3999 14.082L15.9732 14.4135H11.6898H7.4147L5.15814 16.9003C3.91909 18.262 2.89338 19.3396 2.87697 19.2804C2.86877 19.233 3.0657 18.2502 3.31187 17.0779C3.88627 14.4135 3.89447 14.4609 2.72106 14.3898C1.79382 14.3425 1.38354 14.1175 1.07993 13.4662L0.891202 13.0754V7.77038V2.45351L1.18661 1.97984C1.71177 1.13909 1.44098 1.16277 8.98198 1.16277C14.6931 1.15093 15.7763 1.17461 16.1209 1.32855Z" fill="#FD9149"/>
</svg>
