<svg width="45" height="42" viewBox="0 0 45 42" fill="none" xmlns="http://www.w3.org/2000/svg">
<path fill-rule="evenodd" clip-rule="evenodd" d="M30.3632 0.0338192C30.1929 0.0585262 29.813 0.0812073 29.519 0.0843027C29.2249 0.0873981 28.6551 0.126794 28.2527 0.171875C27.8502 0.216899 27.3817 0.265694 27.2115 0.280214C26.9233 0.304865 26.093 0.427556 25.4386 0.542142C25.2839 0.569269 24.98 0.619584 24.7633 0.653915C24.5466 0.688245 24.3187 0.736421 24.2568 0.761016C24.0938 0.825625 23.3736 0.991314 23.2578 0.990752C23.2036 0.990526 23.1593 1.01563 23.1593 1.04658C23.1593 1.07754 23.1149 1.10275 23.0608 1.10258C22.956 1.1023 22.5103 1.24041 22.2307 1.35989C22.1378 1.39957 21.9155 1.49727 21.7367 1.57697C21.5578 1.65671 21.399 1.72194 21.3835 1.72194C21.3329 1.72194 20.599 2.1956 20.5798 2.24068C20.5694 2.26493 20.5374 2.28475 20.5084 2.28475C20.4573 2.28475 20.2072 2.52737 19.9794 2.79808C19.8659 2.93287 19.7388 3.21145 19.621 3.58319C19.5753 3.72766 19.5574 5.52041 19.5574 9.95692V16.1297L19.3182 16.1293C19.1866 16.1292 18.927 16.1023 18.7413 16.0696C18.3594 16.0023 17.8779 15.9469 16.462 15.8076C14.8276 15.6467 9.12797 15.6937 8.16063 15.8761C8.06776 15.8936 7.77651 15.932 7.5134 15.9613C7.06575 16.0114 6.46237 16.0991 5.59988 16.2395C5.39868 16.2723 5.16061 16.3243 5.0709 16.3551C4.98113 16.3859 4.84786 16.4111 4.77464 16.4111C4.70148 16.4111 4.59758 16.4337 4.54384 16.4614C4.49009 16.4891 4.3195 16.5375 4.16473 16.569C4.00996 16.6005 3.79469 16.6526 3.68635 16.6849C3.57801 16.7172 3.3754 16.776 3.23611 16.8156C3.09682 16.8551 2.97019 16.9032 2.95471 16.9223C2.93923 16.9415 2.86325 16.972 2.78587 16.9902C2.5209 17.0524 2.22307 17.1702 2.22307 17.2128C2.22307 17.2361 2.19526 17.2553 2.16122 17.2553C2.06363 17.2553 1.72032 17.4258 1.32258 17.6719C0.818314 17.9839 0.403248 18.4086 0.18443 18.8364L0 19.1969V21.5651C0 23.8222 0.00529034 23.9436 0.11256 24.154C0.174469 24.2754 0.244087 24.3832 0.267331 24.3935C0.290518 24.4038 0.309654 24.4418 0.309822 24.4779C0.31016 24.5669 0.619645 24.8945 0.928623 25.133C1.06792 25.2406 1.19455 25.3419 1.21002 25.3582C1.24627 25.3963 2.12615 25.8242 2.42005 25.9466C2.54386 25.9982 2.68912 26.0645 2.74287 26.094C2.79662 26.1235 2.8901 26.1475 2.9506 26.1475C3.0111 26.1475 3.07627 26.1729 3.09541 26.2038C3.11455 26.2348 3.17645 26.2601 3.23296 26.2601C3.28952 26.2601 3.46365 26.3014 3.62 26.3519L3.90421 26.4437L3.92194 28.1669C3.93927 29.8569 3.9422 29.895 4.07345 30.1412C4.14706 30.2793 4.33172 30.5174 4.48384 30.6703L4.76046 30.9484L4.60327 31.0159C4.51688 31.0531 4.30684 31.1287 4.13659 31.1838C3.15411 31.5024 2.19245 32.226 2.07899 32.7323C2.0616 32.8097 2.02361 32.917 1.99457 32.9707C1.92107 33.1065 1.92433 37.5551 1.99795 37.6006C2.0289 37.6197 2.05423 37.6886 2.05423 37.7537C2.05423 37.9124 2.34278 38.3534 2.60313 38.5926C2.88976 38.8561 3.46348 39.2608 3.5501 39.2608C3.58893 39.2608 3.62911 39.2798 3.63947 39.303C3.66513 39.3609 4.06489 39.5422 4.16665 39.5422C4.21201 39.5422 4.24915 39.5616 4.24915 39.5853C4.24915 39.6353 4.75545 39.8236 4.88985 39.8236C4.93988 39.8236 4.9808 39.8489 4.9808 39.8799C4.9808 39.9109 5.01586 39.9362 5.05874 39.9362C5.10163 39.9362 5.25995 39.9732 5.4105 40.0185C5.70158 40.106 6.67922 40.3476 7.14758 40.4478C7.73937 40.5743 8.98721 40.7524 9.86687 40.8359C10.1862 40.8662 10.4679 40.9035 10.4928 40.9189C10.5993 40.9847 13.1323 41.0871 14.661 41.0873C16.1831 41.0876 18.4735 40.9947 18.8344 40.9181C18.9166 40.9007 19.2331 40.863 19.5379 40.8344C20.0365 40.7877 20.7716 40.687 21.5553 40.558C21.7101 40.5325 22.0267 40.4693 22.2588 40.4175C22.491 40.3657 22.8017 40.3009 22.9495 40.2736C23.0972 40.2463 23.2998 40.199 23.3997 40.1684C23.4996 40.1379 23.7334 40.0679 23.9191 40.013C24.1048 39.958 24.2808 39.893 24.3102 39.8684C24.3397 39.8438 24.4204 39.8236 24.4898 39.8236C24.5592 39.8236 24.6316 39.7983 24.6507 39.7673C24.6699 39.7364 24.7271 39.7111 24.7781 39.7111C24.9276 39.7111 25.9162 39.2117 26.2828 38.9509C26.6964 38.6568 27.0361 38.2938 27.1778 37.9945C27.2363 37.8707 27.3059 37.7254 27.3323 37.6717C27.3587 37.6179 27.3803 37.272 27.3803 36.9031V36.2322L27.7039 36.136C28.3274 35.9506 28.8043 35.7775 29.0257 35.6562C29.0795 35.6267 29.1618 35.6026 29.2086 35.6026C29.2555 35.6026 29.2939 35.5836 29.2941 35.5604C29.2942 35.5372 29.4144 35.4694 29.5614 35.4098C29.7083 35.3501 29.8448 35.2771 29.8646 35.2474C29.8867 35.2146 30.7084 35.1959 31.9751 35.1996C33.116 35.203 34.4167 35.1825 34.8656 35.1542C36.1878 35.0708 37.1912 34.9888 37.3419 34.9518C37.4193 34.9329 37.6725 34.8947 37.9047 34.8669C38.6875 34.7732 39.6229 34.6147 40.3247 34.4569C40.648 34.3843 40.8231 34.3377 41.5348 34.1356C41.6276 34.1092 41.8239 34.0569 41.9709 34.0196C42.118 33.9821 42.2383 33.9305 42.2383 33.9047C42.2383 33.879 42.2893 33.8579 42.3516 33.8579C42.4139 33.8579 42.5089 33.8337 42.5627 33.8041C42.6164 33.7746 42.8311 33.6742 43.0398 33.5811C43.2485 33.4879 43.565 33.3186 43.7433 33.2048C44.067 32.9981 44.7146 32.3812 44.7146 32.2796C44.7146 32.25 44.7399 32.2258 44.7709 32.2258C44.8018 32.2258 44.8272 32.1917 44.8272 32.15C44.8272 32.1083 44.866 31.9965 44.9134 31.9013C44.9903 31.7474 44.9997 30.1773 44.9998 17.5743L45 3.42025L44.8226 3.09169C44.6472 2.76684 44.0216 2.1159 43.8849 2.1159C43.8459 2.1159 43.8141 2.09632 43.8141 2.0724C43.8141 2.04848 43.7192 1.97909 43.6031 1.91819C43.487 1.8573 43.3794 1.79156 43.3639 1.77215C43.3484 1.75273 43.0572 1.62942 42.7167 1.49817C42.3762 1.36693 42.0469 1.23889 41.985 1.21362C41.9231 1.18841 41.7205 1.1252 41.5348 1.07315C41.349 1.02114 41.0849 0.943195 40.9479 0.900028C40.8108 0.856805 40.6314 0.82146 40.5493 0.82146C40.467 0.82146 40.3809 0.802438 40.3578 0.77925C40.278 0.698882 38.168 0.354166 37.1731 0.25894C36.848 0.227873 36.5138 0.188027 36.4303 0.170468C35.8695 0.0522792 30.9937 -0.0574672 30.3632 0.0338192ZM36.3289 2.1365C36.8396 2.18727 37.3588 2.24147 37.4826 2.257C38.1769 2.3439 39.0277 2.46918 39.1991 2.50981C39.7184 2.63278 40.2524 2.73634 40.3636 2.73572C40.4315 2.73532 40.5026 2.76031 40.5217 2.79127C40.5409 2.82222 40.6175 2.84755 40.6919 2.84755C40.7664 2.84755 40.9485 2.88576 41.0966 2.93247C41.8145 3.15889 41.9451 3.20408 42.1617 3.30094C42.2898 3.35823 42.4608 3.42166 42.5416 3.44198C42.6224 3.46224 42.6885 3.49567 42.6885 3.51621C42.6885 3.53675 42.7772 3.60131 42.8855 3.65967C42.9938 3.71803 43.0825 3.78411 43.0825 3.8065C43.0825 3.89728 42.7216 4.19124 42.4467 4.32428C41.9472 4.56606 41.7462 4.64851 41.6562 4.64851C41.6086 4.64851 41.5557 4.67091 41.5388 4.69832C41.5219 4.72567 41.438 4.76192 41.3525 4.77874C41.2671 4.79563 41.0578 4.84769 40.8876 4.89446C40.0922 5.11305 39.7485 5.18959 38.8052 5.35815C38.2551 5.45641 37.8364 5.51281 37.0042 5.60072C36.6792 5.63499 36.2107 5.68745 35.963 5.71727C34.2219 5.92675 30.2578 5.88668 27.8587 5.63539C26.5044 5.49356 25.7184 5.37171 24.5382 5.12076C23.7426 4.95164 23.0284 4.74954 22.5684 4.5633C22.0541 4.35512 21.8902 4.2823 21.8649 4.25044C21.8494 4.23103 21.7798 4.1851 21.7101 4.14846C21.4376 4.00495 21.6094 3.78726 22.2447 3.47096C22.7934 3.19778 22.7807 3.20318 22.9776 3.1599C23.0768 3.13812 23.1725 3.09692 23.1901 3.06833C23.2078 3.03974 23.2952 3.01639 23.3844 3.01639C23.4736 3.01639 23.5605 2.99399 23.5774 2.96658C23.5943 2.93923 23.7287 2.89887 23.8762 2.87693C24.0236 2.85498 24.1695 2.81749 24.2005 2.79357C24.2314 2.76971 24.3581 2.73577 24.4819 2.7181C24.8237 2.66942 25.3686 2.55708 25.4949 2.50925C25.6864 2.43681 26.7759 2.29291 28.0275 2.17477C28.399 2.13971 28.8675 2.08973 29.0687 2.06368C29.7361 1.97729 35.2871 2.033 36.3289 2.1365ZM21.8809 6.30388C22.2245 6.52298 24.2226 7.08466 25.2135 7.24067C25.3683 7.26504 25.7355 7.32571 26.0296 7.37546C26.7678 7.5004 27.2684 7.55257 29.6315 7.75079C30.9284 7.85952 36.2197 7.74944 36.8317 7.60097C36.9071 7.58268 37.1984 7.54424 37.4789 7.51559C38.5196 7.40928 40.308 7.10841 40.5069 7.0062C40.5606 6.97862 40.6511 6.956 40.7079 6.956C40.7647 6.956 40.9233 6.92066 41.0604 6.87743C41.1975 6.83427 41.4616 6.75677 41.6473 6.70533C41.8331 6.65383 42.029 6.58787 42.0827 6.55872C42.1365 6.52962 42.2191 6.50576 42.2664 6.50576C42.3137 6.50576 42.3964 6.48206 42.4501 6.45308C42.6769 6.3309 42.9361 6.22436 43.0067 6.22436C43.0686 6.22436 43.0825 6.54808 43.0825 7.99308V9.76179L42.8807 9.92816C42.6607 10.1095 42.0089 10.4454 41.877 10.4454C41.8317 10.4454 41.7804 10.4685 41.7629 10.4968C41.7454 10.525 41.6301 10.5652 41.5066 10.5861C41.3832 10.607 41.2678 10.6471 41.2503 10.6754C41.2329 10.7036 41.1665 10.7268 41.1028 10.7268C41.0392 10.7268 40.8697 10.7635 40.7262 10.8084C40.3149 10.9371 39.6105 11.0999 39.1035 11.1834C37.7996 11.3983 36.9984 11.5001 36.0756 11.5684C35.6732 11.5982 34.9514 11.6521 34.4716 11.6882C32.9313 11.8041 29.1311 11.6824 27.324 11.4592C26.9495 11.4129 26.5513 11.3527 25.4668 11.1784C25.2965 11.151 24.98 11.087 24.7633 11.0361C24.5466 10.9852 24.2427 10.9182 24.0879 10.8871C23.9331 10.8561 23.7825 10.8073 23.753 10.7787C23.7237 10.7501 23.6283 10.7268 23.5412 10.7268C23.4541 10.7268 23.3389 10.7036 23.2851 10.6754C23.2314 10.6471 22.9595 10.5419 22.6809 10.4417C22.4023 10.3415 22.1617 10.2414 22.1463 10.2193C22.1308 10.1972 22.0675 10.1632 22.0056 10.1438C21.9436 10.1243 21.817 10.0429 21.7241 9.96282L21.5553 9.81728L21.539 8.02082C21.5228 6.23499 21.5234 6.22436 21.6394 6.22436C21.7037 6.22436 21.8123 6.26015 21.8809 6.30388ZM21.8781 12.1901C22.0063 12.252 22.1342 12.3026 22.1624 12.3026C22.1906 12.3026 22.2935 12.3373 22.391 12.3796C22.4885 12.422 22.7203 12.5015 22.906 12.5563C23.0918 12.6112 23.2944 12.6751 23.3563 12.6983C23.4182 12.7215 23.6714 12.7837 23.9191 12.8365C24.1667 12.8893 24.458 12.9546 24.5663 12.9816C24.9158 13.0686 25.374 13.157 25.72 13.2041C27.0481 13.3851 27.2736 13.4137 28.4215 13.5473C29.2435 13.6429 34.4619 13.6799 35.4216 13.5968C37.8396 13.3876 39.1541 13.2041 40.4655 12.8925C40.6821 12.8411 40.9481 12.778 41.0564 12.7522C41.1647 12.7265 41.3927 12.6634 41.5629 12.612C41.7332 12.5606 41.9298 12.5048 41.9999 12.4882C42.07 12.4716 42.1411 12.4357 42.158 12.4085C42.1748 12.3812 42.2276 12.3589 42.2753 12.3589C42.323 12.3589 42.4418 12.3245 42.5393 12.2824C42.8369 12.154 43.0302 12.0775 43.057 12.0775C43.071 12.0775 43.0825 12.8786 43.0825 13.8579V15.6382L42.9277 15.7731C42.8426 15.8473 42.659 15.9642 42.5197 16.0329C42.3804 16.1016 42.258 16.1768 42.2477 16.2C42.2373 16.2233 42.174 16.243 42.107 16.244C42.0399 16.245 41.9358 16.283 41.8758 16.3285C41.8157 16.3739 41.7204 16.4111 41.6639 16.4111C41.6075 16.4111 41.5174 16.4349 41.4636 16.464C41.4099 16.4932 41.214 16.5591 41.0283 16.6105C40.8425 16.662 40.6273 16.7257 40.5499 16.7522C40.4725 16.7787 40.3079 16.8166 40.184 16.8362C40.0602 16.8559 39.8829 16.893 39.7901 16.9187C39.6972 16.9444 39.3806 17.0048 39.0866 17.0528C38.7925 17.101 38.4759 17.155 38.3831 17.173C38.1542 17.2175 37.0349 17.3605 36.4133 17.4248C34.3733 17.636 30.3642 17.6375 28.2527 17.4279C27.0211 17.3058 25.7786 17.1315 25.4112 17.0294C25.3025 16.9992 25.12 16.9744 25.0058 16.9742C24.8915 16.974 24.7845 16.9519 24.7678 16.925C24.7512 16.8981 24.6095 16.8591 24.4527 16.8384C24.296 16.8176 24.1118 16.7789 24.0435 16.7524C23.975 16.7259 23.8051 16.6733 23.6658 16.6355C23.2506 16.5228 22.8606 16.3996 22.6809 16.3243C22.2591 16.1477 21.8791 15.9496 21.7241 15.8254L21.5553 15.6902L21.539 13.8839C21.5275 12.6096 21.5407 12.0775 21.5839 12.0775C21.6176 12.0775 21.75 12.1281 21.8781 12.1901ZM14.8861 17.6697C15.4588 17.6929 16.2565 17.7483 16.6589 17.793C17.0613 17.8377 17.4852 17.8742 17.6008 17.8743C17.7164 17.8743 17.919 17.8986 18.0511 17.9282C18.1831 17.9579 18.4937 18.0117 18.7413 18.0479C19.6181 18.176 20.3408 18.3087 20.8237 18.4303C20.9475 18.4615 21.1754 18.5153 21.3302 18.5498C21.485 18.5843 21.6622 18.633 21.7241 18.6579C21.7861 18.6828 21.976 18.7471 22.1463 18.8009C22.3165 18.8546 22.5895 18.9594 22.7528 19.0337C22.9162 19.108 23.0744 19.1688 23.1045 19.1688C23.1346 19.1688 23.1593 19.1941 23.1593 19.2251C23.1593 19.256 23.189 19.2814 23.2252 19.2814C23.2614 19.2814 23.3366 19.3226 23.3922 19.3729C23.4682 19.4416 23.4796 19.4901 23.4381 19.5677C23.3667 19.7011 22.9386 19.9956 22.7459 20.044C22.6637 20.0646 22.5965 20.1041 22.5965 20.1316C22.5965 20.1593 22.5395 20.1826 22.4699 20.1836C22.4002 20.1846 22.294 20.2226 22.234 20.2681C22.1739 20.3135 22.0786 20.3507 22.0222 20.3507C21.9658 20.3507 21.8756 20.3729 21.8219 20.4C21.6946 20.4644 21.3259 20.5829 21.0769 20.6396C20.9686 20.6642 20.7027 20.7251 20.486 20.7747C19.488 21.0035 18.3903 21.1733 17.081 21.3015C16.7251 21.3363 16.2062 21.3928 15.928 21.4271C15.2509 21.5105 10.2413 21.5102 9.5669 21.4268C9.28871 21.3924 8.76986 21.3372 8.41389 21.3041C7.3319 21.2037 6.14934 21.0505 5.99384 20.9906C5.94741 20.9727 5.77013 20.9372 5.59988 20.9116C5.31015 20.8681 4.75821 20.7498 4.30543 20.6341C4.19709 20.6064 3.99449 20.5544 3.85519 20.5187C3.7159 20.4829 3.55128 20.4335 3.48937 20.4088C3.42746 20.3842 3.18687 20.2945 2.95471 20.2094C2.46091 20.0286 1.99795 19.7534 1.99795 19.6408C1.99795 19.5973 2.04736 19.5194 2.10775 19.4676C2.28278 19.3178 2.86089 19.0056 2.96878 19.0027C3.02298 19.0011 3.06727 18.9769 3.06727 18.9486C3.06727 18.9204 3.16846 18.8802 3.29211 18.8593C3.41576 18.8384 3.53119 18.7982 3.54869 18.7699C3.56614 18.7417 3.63801 18.7186 3.70841 18.7186C3.77882 18.7186 3.85542 18.6996 3.8786 18.6764C3.90179 18.6532 4.05167 18.6013 4.21161 18.5611C4.37156 18.521 4.60372 18.4627 4.72754 18.4315C4.85135 18.4005 5.12994 18.3383 5.34662 18.2934C5.77125 18.2053 5.89895 18.1834 7.28828 17.9605C7.7585 17.885 9.14108 17.7598 10.0984 17.706C10.6688 17.6739 11.1416 17.6418 11.1489 17.6344C11.1788 17.6046 13.9157 17.6305 14.8861 17.6697ZM43.0825 19.7547V21.5225L42.9249 21.6542C42.6967 21.8448 42.0201 22.1697 41.5348 22.3218C41.411 22.3606 41.259 22.412 41.1971 22.436C40.769 22.6022 39.2892 22.9183 38.3268 23.0492C38.0482 23.0871 37.7316 23.1394 37.6233 23.1654C36.6275 23.4047 32.1591 23.5372 29.6034 23.4033C27.8272 23.3103 26.5817 23.221 26.2513 23.1632C26.0792 23.1331 25.8323 23.1084 25.7026 23.1084H25.4668V21.1714C25.4668 20.106 25.45 19.1905 25.4294 19.1369C25.396 19.0498 25.4213 19.0436 25.6686 19.0778C27.4114 19.319 28.3071 19.4124 29.7722 19.5057C30.909 19.5781 33.8522 19.5799 34.764 19.5087C35.1449 19.479 35.6718 19.4409 35.9349 19.424C36.393 19.3947 37.4341 19.282 38.2705 19.1712C38.732 19.11 39.4382 18.987 40.0715 18.8573C40.3191 18.8067 40.5977 18.7515 40.6906 18.7348C40.7834 18.7181 40.8847 18.6846 40.9157 18.6605C40.9466 18.6363 41.0926 18.5986 41.24 18.5766C41.3874 18.5547 41.5219 18.5143 41.5388 18.487C41.5557 18.4596 41.6426 18.4372 41.7318 18.4372C41.821 18.4372 41.9084 18.4138 41.926 18.3852C41.9437 18.3566 42.0394 18.3154 42.1386 18.2936C42.2378 18.2719 42.3578 18.2349 42.4053 18.2116C42.6792 18.0771 42.8975 17.9937 42.984 17.9905C43.0758 17.9871 43.0825 18.1072 43.0825 19.7547ZM2.47633 22.0542C2.69301 22.1344 3.00958 22.2434 3.17983 22.2963C3.35008 22.3493 3.53333 22.4144 3.58707 22.441C3.64082 22.4676 3.72023 22.4893 3.76357 22.4893C3.80685 22.4893 3.9655 22.5255 4.11605 22.5697C4.42064 22.6591 5.00072 22.7826 6.1064 22.9934C6.72104 23.1105 8.59421 23.3115 9.90531 23.401C11.2081 23.4899 14.2868 23.4899 15.5896 23.401C16.849 23.3151 19.051 23.082 19.2197 23.0168C19.2661 22.9988 19.4434 22.9633 19.6136 22.9378C20.2346 22.8448 21.6031 22.5383 21.8367 22.4399C21.8986 22.4139 22.1012 22.3485 22.287 22.2946C22.4727 22.2408 22.6635 22.1771 22.7109 22.1532C22.7584 22.1292 22.8786 22.0918 22.9782 22.0699C23.0778 22.048 23.1593 22.0068 23.1593 21.9784C23.1593 21.9498 23.2187 21.9265 23.2914 21.9265C23.4211 21.9265 23.4243 21.9398 23.4616 22.6379C23.5046 23.4431 23.4835 23.5109 23.12 23.7328C23.0023 23.8047 22.8976 23.8834 22.8873 23.908C22.8769 23.9325 22.8407 23.9526 22.8067 23.9526C22.7548 23.9526 22.485 24.0517 21.7241 24.3502C21.6622 24.3745 21.5483 24.4076 21.4709 24.4239C21.1093 24.4998 20.7446 24.6038 20.7064 24.6421C20.6832 24.6653 20.5859 24.6843 20.4903 24.6843C20.3946 24.6843 20.2279 24.7112 20.1198 24.7441C19.9194 24.805 19.7882 24.8297 18.7976 24.993C18.0761 25.1119 17.5793 25.1686 16.6027 25.2435C16.1693 25.2767 15.6108 25.3291 15.3616 25.3599C14.7679 25.4333 10.7334 25.4333 10.046 25.3599C9.75195 25.3285 9.16945 25.2758 8.75157 25.2426C7.61336 25.1525 7.31502 25.1143 5.75178 24.8591C5.01192 24.7382 3.57531 24.3648 3.15169 24.1832C3.08978 24.1566 2.92516 24.0883 2.78587 24.0312C2.64658 23.9742 2.51995 23.9113 2.50447 23.8914C2.48899 23.8715 2.42568 23.8393 2.36377 23.8198C2.30186 23.8004 2.18159 23.7243 2.09644 23.651L1.94167 23.5174V22.7032C1.94167 21.9499 1.96896 21.7381 2.0504 21.8603C2.06796 21.8867 2.25965 21.974 2.47633 22.0542ZM43.0824 25.627L43.0823 27.4138L42.815 27.5952C42.4655 27.8323 42.0105 28.0606 41.8865 28.0608C41.8324 28.061 41.788 28.0807 41.788 28.1046C41.788 28.1436 41.495 28.2372 41.1127 28.3204C41.0353 28.3372 40.9213 28.3739 40.8594 28.402C40.7357 28.4581 40.3797 28.5497 39.9871 28.6264C38.6674 28.8844 38.4777 28.9166 37.7077 29.0135C37.4291 29.0485 37.0366 29.101 36.8354 29.1299C36.1121 29.2342 34.6946 29.3126 33.0224 29.3407L31.3199 29.3694V29.1647C31.3199 29.0521 31.2984 28.916 31.272 28.8623C31.0268 28.3624 30.9419 28.2234 30.7638 28.0302C30.5485 27.7967 29.8909 27.3302 29.6034 27.207C29.5105 27.1673 29.4159 27.1089 29.3932 27.0773C29.3427 27.0072 29.3383 26.2527 29.3855 25.7536L29.42 25.3878L31.791 25.4086C34.4071 25.4315 35.1317 25.3973 37.5952 25.1344C37.8428 25.108 38.2987 25.0445 38.6082 24.9933C38.9177 24.9421 39.3052 24.879 39.4693 24.853C39.8096 24.7991 40.2738 24.6989 40.5217 24.6259C40.6146 24.5985 40.7987 24.5591 40.931 24.5384C41.0633 24.5176 41.185 24.4786 41.2017 24.4518C41.2183 24.4249 41.2826 24.4029 41.3446 24.4029C41.4834 24.4029 42.0216 24.2355 42.0948 24.1696C42.1241 24.1431 42.2001 24.1199 42.2636 24.1181C42.327 24.1163 42.4929 24.0557 42.6322 23.9834C43.1165 23.7322 43.0825 23.608 43.0824 25.627ZM25.4836 25.0819C25.6322 25.1109 25.9361 25.1349 26.159 25.1354C26.6317 25.1364 27.1859 25.2536 27.3114 25.3792C27.3909 25.4587 27.3864 25.4775 27.2631 25.5791C26.8765 25.8976 25.7133 26.3458 24.5944 26.6073C22.6782 27.0553 21.0812 27.2389 17.7813 27.3906C16.4006 27.4541 15.7866 27.4368 15.7866 27.3343C15.7866 27.3099 16.0082 27.2718 16.279 27.2498C17.3622 27.1616 17.9237 27.1032 18.488 27.0202C19.803 26.8268 20.4649 26.7093 20.5837 26.6482C20.6374 26.6205 20.7371 26.5978 20.8052 26.5978C20.9288 26.5978 21.5117 26.4566 21.7241 26.3753C21.7861 26.3516 21.9887 26.2873 22.1744 26.2324C22.3601 26.1776 22.5919 26.0981 22.6894 26.0557C22.7869 26.0134 22.9073 25.9787 22.9567 25.9787C23.0063 25.9787 23.0467 25.9534 23.0467 25.9224C23.0467 25.8915 23.0876 25.8661 23.1376 25.8661C23.1876 25.8661 23.3459 25.8053 23.4894 25.7309C23.6328 25.6565 23.7882 25.5807 23.8347 25.5624C23.9159 25.5304 24.0731 25.4358 24.1974 25.3439C24.7401 24.943 24.7547 24.9401 25.4836 25.0819ZM6.15328 27.8434C6.16364 27.8702 6.22093 27.8922 6.2807 27.8922C6.34047 27.8922 6.43333 27.9176 6.48708 27.9485C6.67359 28.0559 7.14207 28.2178 7.62596 28.342C8.81381 28.6471 9.63258 28.8147 10.3662 28.9031C10.5887 28.9299 10.8226 28.9682 10.8858 28.9883C11.0125 29.0285 11.4921 29.0791 13.1414 29.2263C15.1096 29.4021 19.7132 29.3493 21.1895 29.1341C21.3907 29.1048 21.8212 29.0499 22.1463 29.0122C23.1495 28.8957 23.2748 28.8759 24.2849 28.6753C24.8548 28.5621 25.3252 28.4459 25.4238 28.394C25.4775 28.3657 25.5628 28.3425 25.6132 28.3425C25.6951 28.3425 26.0883 28.2278 26.3954 28.1145C26.4573 28.0917 26.6326 28.0285 26.7849 27.9743C26.9372 27.92 27.1272 27.8416 27.207 27.8002L27.3522 27.7248L27.3678 28.5148L27.3835 29.3047L27.2271 29.4568C27.0004 29.6772 26.0644 30.1157 25.5231 30.2551C25.4147 30.2831 25.2248 30.3343 25.101 30.3689C24.6807 30.4867 24.2013 30.6016 23.9472 30.6455C23.8079 30.6695 23.5293 30.7202 23.3281 30.7583C22.2097 30.9698 21.2194 31.1002 20.7318 31.1002C20.5316 31.1002 20.339 31.129 20.3038 31.1642C20.2583 31.2097 19.4402 31.2359 17.4926 31.2542C14.3108 31.2842 13.2773 31.2367 11.1435 30.9623C10.2625 30.849 9.75673 30.7698 9.65205 30.7287C9.60562 30.7106 9.441 30.6742 9.28623 30.6478C8.80914 30.5667 8.39233 30.4789 8.24505 30.4284C8.16766 30.4018 7.95239 30.3381 7.76666 30.2866C7.58094 30.2352 7.38503 30.1693 7.33128 30.1401C7.27753 30.111 7.19694 30.0872 7.15225 30.0872C7.03412 30.0872 6.33833 29.7584 6.09351 29.5869L5.8837 29.4399L5.88246 28.5779L5.88128 27.7158L6.00791 27.7552C6.07758 27.7769 6.14298 27.8165 6.15328 27.8434ZM43.0825 30.4767V31.2603L42.8623 31.4476C42.6161 31.657 42.4509 31.7447 41.788 32.018C41.4965 32.1382 41.0024 32.2821 40.8811 32.2821C40.8227 32.2821 40.775 32.3016 40.775 32.3255C40.775 32.3653 40.4793 32.4393 39.8182 32.5651C39.6789 32.5916 39.3497 32.6553 39.0866 32.7065C37.407 33.0339 35.8526 33.1689 33.2194 33.216L31.3199 33.25V32.2877C31.3199 31.412 31.3288 31.3245 31.4184 31.3165C31.4726 31.3118 32.2387 31.3008 33.1209 31.2924C34.5742 31.2784 35.366 31.2373 36.7791 31.1024C37.5729 31.0267 38.3713 30.9259 38.5801 30.8751C38.6884 30.8488 38.9543 30.8003 39.171 30.7674C39.6511 30.6945 40.012 30.6233 40.4936 30.5068C40.6948 30.4582 40.9227 30.405 41.0001 30.3886C41.2834 30.3289 42.6034 29.8951 42.7979 29.7978C42.908 29.7428 43.017 29.6967 43.0403 29.6954C43.0635 29.6942 43.0825 30.0458 43.0825 30.4767ZM29.3669 32.3806C29.4103 33.2979 29.3807 33.356 28.7029 33.6827C28.1611 33.9439 27.96 34.0268 27.8676 34.0268C27.8199 34.0268 27.7673 34.0487 27.7508 34.0754C27.7343 34.1022 27.6378 34.1399 27.5364 34.1592C27.4351 34.1784 27.2129 34.2348 27.0426 34.2844C26.7571 34.3676 26.3934 34.4542 25.7482 34.5926C25.5262 34.6403 24.8793 34.7559 24.3693 34.8391C24.1738 34.871 22.8265 35.0256 22.3714 35.0684C21.2479 35.1739 18.4901 35.2209 16.8503 35.1623C15.0049 35.0965 14.9354 35.0918 13.7042 34.952C12.861 34.8562 12.8192 34.8504 12.1002 34.73C11.5448 34.637 11.2865 34.5857 10.6932 34.4503C10.4766 34.4009 10.2106 34.3403 10.1023 34.3157C9.85331 34.259 9.48462 34.1405 9.35737 34.0761C9.30362 34.049 9.23147 34.0268 9.19703 34.0268C9.16258 34.0268 9.04192 33.986 8.92891 33.9362C7.84152 33.4566 7.78361 33.3976 7.80668 32.7923L7.82295 32.3665L7.99179 32.3834C8.15579 32.3998 8.74577 32.5204 9.14553 32.6191C9.31375 32.6607 9.72983 32.7303 10.6651 32.8733C11.1542 32.948 12.3124 33.0752 12.7475 33.1018C13.0106 33.1179 13.4918 33.1584 13.8168 33.1917C14.6542 33.2776 19.4924 33.3077 20.683 33.2346C22.3348 33.133 22.9881 33.0802 23.7221 32.9888C24.8856 32.8441 24.9895 32.8275 26.3733 32.5656C26.516 32.5386 26.7439 32.4871 26.8799 32.4511C27.0158 32.4152 27.2284 32.3598 27.3522 32.3281C27.9826 32.1666 28.7902 31.8933 29.0687 31.7471C29.3243 31.613 29.3313 31.6278 29.3669 32.3806ZM5.84807 33.2529C5.86963 33.5392 5.91122 33.7976 5.94054 33.827C6.02952 33.9162 6.00031 34.0268 5.88775 34.0268C5.63663 34.0268 4.12888 33.481 4.09967 33.3795C4.09078 33.3486 4.1904 33.2772 4.32108 33.2209C4.45176 33.1647 4.59753 33.0983 4.64497 33.0734C4.69242 33.0484 4.8182 33.0089 4.92452 32.9856C5.03083 32.9622 5.15662 32.9235 5.20406 32.8995C5.27295 32.8647 5.56026 32.7841 5.77474 32.7394C5.79348 32.7355 5.82652 32.9666 5.84807 33.2529ZM4.61497 35.6349C4.86261 35.7194 5.11587 35.8069 5.17778 35.8293C5.42946 35.9203 5.92529 36.0529 6.01359 36.0529C6.06548 36.0529 6.15193 36.077 6.20568 36.1065C6.25943 36.1361 6.45534 36.1879 6.64106 36.2217C6.82679 36.2556 7.10537 36.3064 7.26014 36.3348C7.41491 36.3632 7.64285 36.412 7.76666 36.4434C7.89048 36.4747 8.09939 36.501 8.23098 36.5017C8.36256 36.5025 8.47017 36.5284 8.47017 36.5594C8.47017 36.5903 8.60316 36.6158 8.76564 36.616C8.92812 36.6162 9.15071 36.6412 9.26023 36.6716C9.60055 36.7661 11.811 36.9735 13.5917 37.0779C15.1805 37.171 20.5758 37.1718 21.7804 37.079C22.5965 37.0161 23.146 36.9584 24.5586 36.7871C24.8175 36.7557 25.1133 36.7068 25.2161 36.6784C25.4447 36.6153 25.4668 36.635 25.4668 36.9021C25.4668 37.0799 25.4301 37.1447 25.2362 37.3108C25.0022 37.5111 24.46 37.7975 24.3148 37.7975C24.2711 37.7975 24.2208 37.8209 24.2032 37.8495C24.1855 37.8781 24.0898 37.9193 23.9906 37.9411C23.8914 37.9628 23.7714 38.0007 23.724 38.0251C23.5078 38.1365 21.9073 38.5292 21.6696 38.5292C21.5904 38.5292 21.4816 38.5526 21.4279 38.5812C21.3286 38.6343 20.6921 38.7358 19.9795 38.8125C19.5882 38.8546 18.9154 38.9227 17.7283 39.0405C16.8039 39.1323 11.7959 39.0748 10.6088 38.9589C8.79327 38.7815 7.31789 38.5341 6.19082 38.2178C6.0051 38.1658 5.77716 38.1031 5.6843 38.0785C5.27379 37.9701 4.9974 37.8631 4.51542 37.6257C3.88536 37.3154 3.91147 37.3716 3.91147 36.3255V35.4207L4.0381 35.4509C4.10772 35.4675 4.36734 35.5503 4.61497 35.6349Z" fill="#F3BF70"/>
</svg>
