<svg width="18" height="16" viewBox="0 0 18 16" fill="none" xmlns="http://www.w3.org/2000/svg">
<path fill-rule="evenodd" clip-rule="evenodd" d="M7.74956 0.561445C6.82886 1.09573 4.1968 2.61821 1.64426 4.09313C0.986649 4.4731 0.347623 4.88108 0.224304 4.99987C-0.0565092 5.2701 -0.0712382 5.75279 0.191188 6.08635C0.296312 6.22007 1.34679 6.88422 2.52568 7.56233C3.70448 8.24044 5.59576 9.32827 6.72854 9.97971C7.86133 10.6311 8.88398 11.1641 9.00104 11.1641C9.11811 11.1641 10.1408 10.6311 11.2735 9.97971C12.4063 9.32827 14.2976 8.24044 15.4764 7.56233C16.6553 6.88422 17.7058 6.22007 17.8109 6.08635C18.0733 5.75279 18.0586 5.2701 17.7778 4.99987C17.6545 4.88108 17.0154 4.4731 16.3578 4.09313C15.7002 3.71316 14.2741 2.88872 13.1887 2.26096C12.1033 1.63329 10.776 0.867096 10.2392 0.558365C9.65759 0.223738 9.15199 -0.00181805 8.98776 1.10426e-05C8.83103 0.0016476 8.29723 0.243761 7.74956 0.561445ZM12.2067 3.7431C13.9155 4.7181 15.2795 5.54504 15.2379 5.58075C14.9105 5.86205 9.00942 9.14777 8.9042 9.10743C8.79802 9.06671 6.00153 7.47579 3.10522 5.80843C2.93347 5.70956 2.79273 5.6003 2.79235 5.56564C2.79206 5.53089 3.06257 5.34519 3.39344 5.15294C3.72441 4.9606 5.09979 4.15878 6.44995 3.37102C7.8001 2.58326 8.94867 1.94587 9.0023 1.95463C9.05592 1.96339 10.4979 2.76819 12.2067 3.7431ZM0.296216 9.10291C0.0609375 9.30083 0 9.42752 0 9.71854C0 10.2014 0.171164 10.3564 1.64426 11.2075C2.30186 11.5875 3.72797 12.4119 4.81339 13.0397C5.89881 13.6674 7.22606 14.4335 7.76285 14.7423C8.29954 15.051 8.85664 15.3036 9.00066 15.3036C9.14679 15.3036 9.73672 15.0311 10.3351 14.687C10.9251 14.3479 12.2092 13.6067 13.1887 13.0401C14.1682 12.4733 15.5761 11.6621 16.3174 11.2372C17.0587 10.8123 17.74 10.373 17.8315 10.2608C17.923 10.1488 17.9988 9.89846 18 9.70458C18.0016 9.42771 17.9386 9.29862 17.7059 9.10291C17.2697 8.73584 16.974 8.78426 15.9116 9.39681C14.6669 10.1146 12.1315 11.5797 10.3969 12.5837C9.38303 13.1704 8.96157 13.3676 8.85664 13.3039C8.77722 13.2557 7.97579 12.7917 7.07569 12.2727C6.17558 11.7537 4.89763 11.0165 4.23579 10.6344C3.57394 10.2522 2.60857 9.69524 2.09046 9.39662C1.02804 8.78436 0.73231 8.73593 0.296216 9.10291Z" fill="url(#paint0_linear_5369_1948)"/>
<defs>
<linearGradient id="paint0_linear_5369_1948" x1="9" y1="0" x2="9" y2="15.3036" gradientUnits="userSpaceOnUse">
<stop stop-color="#FD9149"/>
<stop offset="1" stop-color="#FFD588"/>
</linearGradient>
</defs>
</svg>
