<svg width="20" height="20" viewBox="0 0 20 20" fill="none" xmlns="http://www.w3.org/2000/svg">
<path fill-rule="evenodd" clip-rule="evenodd" d="M4.56374 0.200483C2.27826 0.931905 0.526316 3.13653 0.0888691 5.83145C-0.0977272 6.98151 0.00883773 7.61102 0.415018 7.75862C0.904385 7.93663 1.21662 7.45225 1.3011 6.38338C1.44252 4.59723 2.49511 2.88784 4.02102 1.96674C4.70358 1.55468 4.92144 1.50932 6.21313 1.50932C7.49506 1.50932 7.72555 1.55649 8.38315 1.95392C9.87176 2.85349 10.9566 4.62518 11.1183 6.42069L11.2015 7.34393H10.536H9.87047L9.86904 6.72756C9.86603 5.37977 8.83164 3.73859 7.60622 3.13718C6.81021 2.74649 5.43964 2.78873 4.64764 3.22808C3.87472 3.6569 2.92539 4.83277 2.68874 5.65443C2.5925 5.98842 2.54861 6.7394 2.58619 7.40869C2.68157 9.11249 3.36198 10.2473 4.70716 10.9461C6.19678 11.7201 8.14091 11.1588 9.11649 9.6733C9.37336 9.28212 9.58362 8.89389 9.58362 8.81039C9.58362 8.72706 8.97277 8.65885 8.2261 8.65885C7.01545 8.65885 6.85209 8.62334 6.71512 8.33012C6.60611 8.09656 6.60611 7.90622 6.71512 7.67266C6.85381 7.37565 7.01545 7.34393 8.38789 7.34393H9.90719L9.8154 8.00139L9.72361 8.65885H10.9269C12.4722 8.65885 12.5213 8.59721 12.4104 6.7961C12.1724 2.93304 9.78987 0.19851 6.49998 0.0127784C5.74484 -0.029792 5.08294 0.03431 4.56374 0.200483ZM10.1078 11.8207C9.85599 12.2842 8.00594 18.8587 8.00594 19.2898C8.00594 19.9798 8.14736 20.0002 12.9469 19.9975C15.4752 19.9961 17.6294 19.9328 17.7339 19.8568C17.8385 19.7809 18.2422 18.617 18.631 17.2706C19.9622 12.6615 20.1037 12.0738 19.9507 11.7956C19.8255 11.5681 19.2095 11.5298 15.0586 11.492L10.3099 11.4486L10.1078 11.8207ZM4.9223 12.6092C2.40404 13.1971 0.536643 15.5668 0.182813 18.6236C0.0238974 19.9962 0.03365 20 3.64166 20H6.71512V19.4096C6.71512 19.085 7.0754 17.5636 7.51557 16.0291C7.95589 14.4944 8.28448 13.1445 8.2459 13.0291C8.165 12.7877 6.7689 12.4307 6.00989 12.4573C5.7272 12.4672 5.23784 12.5355 4.9223 12.6092ZM14.934 13.9484C15.6446 14.3754 15.9513 15.7919 15.5333 16.7181C15.0748 17.7342 13.6814 18.0332 12.9029 17.2826C11.2324 15.6718 12.9926 12.7821 14.934 13.9484ZM5.68246 16.4169C6.35397 17.1864 5.13873 17.9811 3.88089 17.5949C3.4968 17.4768 3.30891 16.8125 3.56134 16.464C3.78107 16.1604 5.42687 16.124 5.68246 16.4169Z" fill="black"/>
</svg>
