<svg width="30" height="28" viewBox="0 0 30 28" fill="none" xmlns="http://www.w3.org/2000/svg">
<path fill-rule="evenodd" clip-rule="evenodd" d="M14.3515 0.0645906C10.9355 0.553859 8.6118 1.57725 6.32752 3.59858C4.60383 5.12396 2.67799 8.27472 2.44383 9.95252C2.35232 10.6082 2.62748 10.9402 3.21468 10.8825C3.66141 10.8385 3.71063 10.7622 4.32958 9.15134C5.32868 6.55116 7.53186 4.1737 10.1747 2.84367C15.811 0.00739995 22.8981 2.05405 26.1558 7.45888L26.4397 7.9299L25.7847 7.68096C25.2269 7.46904 25.0787 7.45644 24.7879 7.59575C24.6 7.68585 24.3889 7.92245 24.3189 8.12139C24.0894 8.77439 24.4014 9.07448 26.1014 9.83583C28.5576 10.9356 28.5732 10.9273 29.5901 8.00354C30.0728 6.61593 30.0801 6.56825 29.8641 6.23847C29.3701 5.48459 28.4468 5.696 28.1347 6.63444C28.0347 6.93479 27.9145 7.18013 27.8674 7.17948C27.8203 7.17897 27.524 6.75962 27.2091 6.24773C26.5274 5.13964 24.6366 3.19735 23.4921 2.42945C22.3832 1.68546 20.5352 0.826318 19.3638 0.510163C17.7867 0.0843824 15.5819 -0.111608 14.3515 0.0645906ZM13.9934 5.63534C13.4715 5.88222 12.8606 6.33538 12.2679 6.91525L11.3504 7.81308L11.6912 8.15378C12.2094 8.67197 12.2593 9.27189 11.9657 11.4563C11.8768 12.1186 12.1239 12.7069 12.491 12.7069C12.5953 12.7069 12.6808 12.8145 12.6808 12.946C12.6808 13.0776 12.8254 13.3982 13.0021 13.6586C13.3707 14.2017 13.3778 14.2462 13.1693 14.7037C12.992 15.0931 12.1789 15.5409 11.0688 15.8608C9.96394 16.179 9.14541 16.6253 8.77437 17.1118C8.41375 17.5847 8.05416 18.7996 8.05416 19.5454V20.0325H15.5161H22.9781L22.8958 19.422C22.6045 17.2595 22.0314 16.5458 20.1027 15.9429C18.6678 15.4944 17.9051 15.1026 17.6203 14.6679C17.4325 14.3814 17.4428 14.3396 17.8019 13.9307C18.0112 13.6921 18.2215 13.3193 18.2693 13.102C18.3181 12.8793 18.4386 12.7069 18.5451 12.7069C18.9736 12.7069 19.2976 11.1558 18.9139 10.9411C18.7465 10.8474 18.7548 10.7675 18.9782 10.3292C19.3109 9.67672 19.319 8.46994 18.9956 7.75782C18.7117 7.13309 17.9204 6.40953 17.5209 6.40953C17.3563 6.40953 17.0391 6.21328 16.7922 5.95843C16.0252 5.16715 15.1874 5.07037 13.9934 5.63534ZM17.753 8.77684C17.962 9.05662 18.0191 9.34591 18.0383 10.2232C18.0516 10.8263 18.0935 11.3511 18.1317 11.3891C18.1697 11.4271 18.2865 11.3873 18.3911 11.3004C18.7104 11.0355 18.8341 11.2468 18.6907 11.8118C18.5834 12.2346 18.5081 12.3248 18.2877 12.2945C18.0574 12.2628 18.0053 12.34 17.942 12.8072C17.8848 13.2296 17.7354 13.4929 17.2983 13.942C16.593 14.6666 16.1761 14.8917 15.5397 14.8917C14.6195 14.8917 13.2189 13.746 13.0778 12.8779C13.0166 12.5018 12.9296 12.3802 12.6795 12.3216C12.401 12.2565 12.3544 12.1666 12.3198 11.6296L12.2802 11.0124L12.6732 11.0988C13.0657 11.185 13.0664 11.1841 13.0664 10.6139C13.0664 9.58727 13.7317 9.05572 15.3797 8.76591C15.9098 8.67274 16.4882 8.48561 16.6649 8.35003C17.0351 8.06613 17.2992 8.16984 17.753 8.77684ZM28.1381 13.2531C28.0694 13.3415 27.9445 14.0682 27.8606 14.8681C27.3932 19.3196 24.9353 22.8676 20.988 24.7887C14.3832 28.0029 6.50783 24.7457 4.07755 17.7947C3.85727 17.1647 3.69341 16.6 3.71359 16.5397C3.73364 16.4796 3.97319 16.6143 4.24604 16.839C5.06714 17.5159 6.00031 17.2721 5.99594 16.3819C5.99337 15.8627 6.00494 15.8764 4.58417 14.7065C2.55461 13.0352 2.56258 13.0341 1.04812 15.181C0.0880907 16.5418 -0.051737 16.8066 0.0138072 17.1404C0.108782 17.6244 0.401289 17.8476 0.940423 17.8476C1.26622 17.8476 1.44074 17.7469 1.71911 17.3978C1.91652 17.1504 2.11045 16.948 2.15016 16.948C2.18975 16.948 2.29989 17.2517 2.39486 17.6227C2.99376 19.9643 4.66783 22.5631 6.68261 24.2788C12.0714 28.8677 20.0026 28.6588 25.1615 23.7924C27.6198 21.4733 29.0114 18.5977 29.3988 15.0362C29.5236 13.8888 29.5155 13.6883 29.3332 13.4099C29.1805 13.1768 29.0107 13.0925 28.694 13.0925C28.4569 13.0925 28.2068 13.1648 28.1381 13.2531ZM15.3379 15.2407C15.8226 15.2845 16.0953 15.2261 16.5867 14.974L17.2153 14.6513L17.4499 14.9321C17.7487 15.2899 17.7475 15.3539 17.4351 15.7926C16.5957 16.9714 14.4407 16.9507 13.5288 15.7551C13.1919 15.3134 13.1896 15.2971 13.4 14.856L13.6142 14.4067L14.166 14.7957C14.5382 15.058 14.9196 15.2029 15.3379 15.2407Z" fill="black"/>
</svg>
