<svg width="20" height="20" viewBox="0 0 20 20" fill="none" xmlns="http://www.w3.org/2000/svg">
<path fill-rule="evenodd" clip-rule="evenodd" d="M12.6997 0.111091C12.5401 0.271061 12.5401 8.98648 12.6997 9.14645C12.8588 9.30587 19.7098 9.30587 19.8689 9.14645C19.9509 9.06434 19.9798 8.19793 19.9798 5.82216V2.60896L19.0113 2.57739C18.0582 2.54629 18.038 2.54101 17.741 2.24338C17.4439 1.94575 17.4387 1.92548 17.4076 0.970468L17.3761 0H15.0934C13.441 0 12.78 0.0306425 12.6997 0.111091ZM18.132 1.07887C18.132 1.77976 18.2257 1.8703 18.9128 1.83318L19.4319 1.80522L18.782 1.15969L18.132 0.514164V1.07887ZM16.2278 2.0598C16.3019 2.17784 16.3019 2.26578 16.2278 2.38382C16.1402 2.52305 15.9475 2.54944 14.8551 2.57165C13.5476 2.59822 13.3279 2.54897 13.3279 2.22903C13.3279 1.88919 13.5119 1.84586 14.8402 1.87225C15.947 1.89428 16.1401 1.92039 16.2278 2.0598ZM1.73345 2.6796C1.63182 2.72135 1.46553 2.84799 1.3639 2.96121C1.18347 3.1621 1.17857 3.3155 1.15418 9.48769C1.13829 13.5198 1.1625 15.8963 1.22116 16.0508C1.2717 16.1841 1.44927 16.3764 1.61565 16.4781C1.91194 16.659 2.08553 16.6629 9.98356 16.6632C18.8367 16.6636 18.4328 16.6891 18.731 16.1112C18.8476 15.8853 18.8711 15.3485 18.8711 12.9189V9.99815H18.5016H18.132V12.8495C18.132 14.9437 18.1026 15.7303 18.0212 15.8119C17.8605 15.9729 2.14355 15.9729 1.98289 15.8119C1.8226 15.6513 1.8226 3.60443 1.98289 3.44381C2.06632 3.36021 3.30097 3.33272 6.97176 3.33272H11.8498V2.96241V2.59211L6.88399 2.59794C4.15286 2.60119 1.83507 2.63794 1.73345 2.6796ZM19.184 3.91131C19.2583 4.02944 19.2583 4.1172 19.184 4.23533C19.0912 4.3828 18.8348 4.39956 16.3316 4.42187C13.5014 4.44714 13.3279 4.42742 13.3279 4.08054C13.3279 3.71394 13.4497 3.6995 16.3172 3.72487C18.8342 3.74708 19.0912 3.76384 19.184 3.91131ZM2.61112 9.62785V15.1824H3.15454H3.69795L3.735 14.002C3.76918 12.9158 3.79496 12.7728 4.059 12.2086C4.41312 11.4516 4.90572 10.8937 5.53349 10.5386L6.01288 10.2675L5.7809 10.0171C5.30779 9.50648 5.24413 9.28384 5.24413 8.13942C5.24413 7.10785 5.25466 7.05045 5.52369 6.61433C5.69701 6.33346 5.97528 6.05462 6.25558 5.88095C6.65598 5.63294 6.78819 5.601 7.40801 5.60267C8.18202 5.6047 8.49604 5.72598 8.97867 6.20968C9.45353 6.68552 9.57124 7.00398 9.61429 7.92872C9.6602 8.9165 9.50601 9.51389 9.08602 9.97464L8.81847 10.2681L9.2974 10.5389C9.92471 10.8937 10.4174 11.4518 10.7714 12.2086C11.0355 12.7728 11.0612 12.9158 11.0954 14.002L11.1325 15.1824H14.2627H17.3929V12.5946V10.0068L14.9464 9.97936L12.4997 9.95186L12.1979 9.64932L11.896 9.34688L11.8688 6.71005L11.8416 4.07332H7.22638H2.61112V9.62785ZM19.184 5.76282C19.2583 5.88095 19.2583 5.96871 19.184 6.08684C19.0912 6.23431 18.8348 6.25106 16.3316 6.27338C13.5014 6.29865 13.3279 6.27893 13.3279 5.93205C13.3279 5.56545 13.4497 5.55101 16.3172 5.57638C18.8342 5.59859 19.0912 5.61535 19.184 5.76282ZM6.8147 6.42066C6.17012 6.71968 5.93703 7.20052 5.93703 8.23153C5.93703 9.02176 6.09168 9.37067 6.61358 9.75819C6.97776 10.0285 7.85146 10.0301 8.21112 9.76097C8.76442 9.34707 8.8472 9.13701 8.8472 8.14664C8.8472 7.16145 8.76341 6.94547 8.2248 6.54249C7.91863 6.31346 7.18286 6.24986 6.8147 6.42066ZM19.184 7.61433C19.2583 7.73246 19.2583 7.82022 19.184 7.93834C19.0912 8.08582 18.8348 8.10257 16.3316 8.12488C13.5014 8.15016 13.3279 8.13044 13.3279 7.78356C13.3279 7.41696 13.4497 7.40252 16.3172 7.42788C18.8342 7.4501 19.0912 7.46686 19.184 7.61433ZM6.49181 10.8875C5.57275 11.2222 4.91884 11.887 4.60888 12.8018C4.50818 13.0992 4.45885 13.563 4.45885 14.2136V15.1824H7.42473H10.3906L10.3572 14.0483C10.3284 13.0756 10.2917 12.8487 10.0984 12.4538C9.81172 11.8678 9.24502 11.2991 8.66973 11.02C8.08197 10.7349 7.07865 10.6739 6.49181 10.8875ZM0.0436987 18.087C0.0955275 18.8963 0.320119 19.3281 0.883492 19.7016L1.25793 19.95L9.90798 19.975L18.558 20L18.9686 19.7827C19.1945 19.6632 19.5033 19.389 19.6549 19.1733C19.8883 18.8412 19.9359 18.6757 19.9653 18.0927L20 17.4042H16.3064H12.6129L12.5647 17.8321C12.5291 18.149 12.4418 18.3349 12.2276 18.5495L11.9386 18.8391H10.002H8.06543L7.77644 18.5495C7.56229 18.3349 7.47499 18.149 7.43933 17.8321L7.39119 17.4042H3.69555H0L0.0436987 18.087ZM8.1543 17.6634C8.1543 18.1203 8.24835 18.1448 10.002 18.1448C11.7557 18.1448 11.8498 18.1203 11.8498 17.6634V17.4042H10.002H8.1543V17.6634Z" fill="#FD9149"/>
</svg>
