<svg width="45" height="48" viewBox="0 0 45 48" fill="none" xmlns="http://www.w3.org/2000/svg">
<path fill-rule="evenodd" clip-rule="evenodd" d="M8.72845 0.198408C7.96461 0.501964 7.18662 1.34416 6.59677 2.50543C6.29787 3.09373 5.69269 4.01022 5.25181 4.54207C4.41058 5.55651 4.31515 6.09942 4.91451 6.45903C5.21884 6.64175 5.41843 6.5114 6.28584 5.56446C6.84407 4.95483 7.53285 3.98229 7.81642 3.40311C8.10019 2.82393 8.61381 2.11324 8.95791 1.82365C9.49791 1.36918 9.71205 1.30925 10.5201 1.38703C11.6036 1.49099 12.2899 2.0244 12.6175 3.01673C12.9327 3.97181 12.6708 4.77386 11.7489 5.67735C10.2959 7.10106 9.78149 8.12326 9.63776 9.87321C9.58073 10.5682 9.42149 10.8904 8.85627 11.454C8.29707 12.0119 8.14655 12.3129 8.14655 12.8731C8.14655 13.6945 8.41422 14.2995 8.97498 14.7458C9.36912 15.0593 9.36815 15.0647 8.68558 16.6855C8.3091 17.5793 6.20088 22.5589 4.00054 27.7512C1.80019 32.9433 0 37.26 0 37.3436C0 37.4274 2.2017 39.7038 4.89259 42.4022C8.08351 45.6021 9.92231 47.3086 10.1795 47.3086C10.7812 47.3086 20.4537 37.5682 20.3208 37.0963C20.2653 36.8988 18.206 31.8736 15.7448 25.9289L11.2696 15.1206L11.8416 14.5484C12.3122 14.078 12.4138 13.815 12.4138 13.0692C12.4138 12.291 12.3172 12.0654 11.7349 11.4831C11.1747 10.923 11.0568 10.6636 11.0603 9.99929C11.0663 8.87429 11.6496 7.71031 12.5839 6.95946C14.5583 5.37283 14.6871 2.63423 12.8681 0.914723C12.5649 0.628042 12.0711 0.300822 11.7708 0.187352C11.0968 -0.0673244 9.38114 -0.0611176 8.72845 0.198408ZM33.3621 0.188128C32.5936 0.509917 31.8187 1.34862 31.2238 2.50252C30.9214 3.08927 30.3145 3.99839 29.8752 4.52306C29.0326 5.52877 28.9369 6.09127 29.5456 6.45903C29.8457 6.64039 30.0371 6.52421 30.8077 5.69229C31.3074 5.15287 31.9931 4.19177 32.3317 3.55634C33.12 2.07755 33.7172 1.5261 34.6692 1.39847C36.0852 1.20858 37.2414 2.16464 37.2414 3.52511C37.2414 4.46817 36.8981 5.1166 35.8832 6.09089C34.7924 7.13811 34.2999 8.16477 34.1816 9.63871C34.0989 10.6663 34.0053 10.921 33.6154 11.1765C32.3599 11.9991 32.2664 13.5997 33.4007 14.8471L33.7787 15.2629L29.2805 26.0001C26.8064 31.9058 24.7362 36.8988 24.6802 37.0963C24.5461 37.568 34.218 47.3086 34.8205 47.3086C35.0777 47.3086 36.9165 45.6021 40.1074 42.4022C42.7983 39.7038 45 37.4282 45 37.3455C45 37.2627 42.9399 32.2126 40.4222 26.1229C36.487 16.605 35.8879 15.0263 36.155 14.8769C36.6246 14.6139 37.0474 13.6633 37.0474 12.87C37.0474 12.3195 36.8963 12.0109 36.3685 11.4831C35.826 10.9406 35.6897 10.6531 35.6897 10.0517C35.6897 8.90164 36.1891 7.89768 37.2674 6.87994C37.8062 6.37136 38.3701 5.66125 38.5202 5.30184C39.1644 3.7602 38.5982 1.80367 37.182 0.676727C36.5503 0.174357 36.256 0.081835 35.1454 0.0374169C34.4312 0.00871003 33.6288 0.076598 33.3621 0.188128ZM10.832 12.9658C10.9183 13.5776 10.3758 14.0113 9.86547 13.7382C9.51032 13.5481 9.37144 12.7862 9.64261 12.5152C9.71845 12.4392 10.0022 12.4027 10.273 12.4343C10.6266 12.4757 10.7839 12.625 10.832 12.9658ZM35.4656 12.9658C35.5519 13.5776 35.0094 14.0113 34.4991 13.7382C34.1439 13.5481 34.0051 12.7862 34.2762 12.5152C34.3521 12.4392 34.6358 12.4027 34.9066 12.4343C35.2602 12.4757 35.4175 12.625 35.4656 12.9658ZM12.7049 26.3694L14.9493 35.5537L12.6663 37.8428C11.4106 39.1017 10.2945 40.1314 10.1863 40.1311C10.0779 40.1307 8.96761 39.0994 7.71905 37.8392L5.44869 35.5482L5.72121 34.3971C6.15976 32.5457 9.69343 18.1905 9.91804 17.3492C10.075 16.7613 10.1622 16.6523 10.2916 16.8833C10.3845 17.0492 11.4703 21.318 12.7049 26.3694ZM37.3353 26.4544L39.5622 35.568L37.2866 37.8492C36.0349 39.104 34.9221 40.1309 34.8137 40.1313C34.7055 40.1316 33.5894 39.1017 32.3337 37.8428L30.0505 35.5537L32.1987 26.7383C33.3803 21.8898 34.4444 17.6186 34.5635 17.2466C34.7555 16.6475 34.7988 16.6143 34.9442 16.9557C35.0344 17.1677 36.1104 21.4419 37.3353 26.4544ZM15.6055 29.4602C17.1433 33.1388 18.3683 36.1815 18.328 36.2219C18.162 36.3879 15.7003 35.3589 15.6195 35.0897C15.5531 34.8688 13.0828 24.7915 12.505 22.384L12.4117 21.9961L12.6107 22.384C12.7201 22.5974 14.0677 25.7817 15.6055 29.4602ZM30.9433 28.7457C30.0586 32.3513 29.3026 35.3263 29.2632 35.3566C29.0545 35.5176 26.7424 36.2925 26.6743 36.2242C26.6301 36.18 27.6191 33.7027 28.872 30.7187C30.1248 27.7349 31.4449 24.5743 31.8055 23.6954C32.1661 22.8165 32.4817 22.1183 32.5065 22.1437C32.5315 22.1691 31.828 25.14 30.9433 28.7457ZM40.1286 29.2698C41.7131 33.0569 42.9494 36.1794 42.8761 36.2085C42.803 36.2376 42.1817 36.0506 41.4954 35.7928C40.6581 35.4784 40.2261 35.2059 40.1815 34.9642C40.145 34.766 39.4249 31.8274 38.5813 28.4338C37.7377 25.0403 37.0544 22.2036 37.0627 22.1299C37.0816 21.965 36.733 21.1531 40.1286 29.2698ZM6.30834 28.8754L4.69261 35.3628L3.48343 35.8149C2.81851 36.0636 2.21121 36.2421 2.13381 36.2114C2.05642 36.1806 3.20004 33.2752 4.67476 29.7547C6.14968 26.2342 7.44731 23.0997 7.55845 22.789C7.66959 22.4783 7.79722 22.261 7.84222 22.306C7.88722 22.351 7.19709 25.3072 6.30834 28.8754ZM9.89224 43.1336V45.2684L5.91983 41.2995C3.73519 39.1168 2.0153 37.2631 2.09832 37.1801C2.18114 37.0972 2.85575 36.8203 3.59748 36.5646L4.94612 36.0997L7.41918 38.5495L9.89224 40.9991V43.1336ZM18.4178 37.1659C18.5181 37.2466 10.8314 44.981 10.651 44.981C10.5863 44.981 10.5418 44.0618 10.5523 42.9383L10.5711 40.8957L12.9998 38.488L15.4284 36.0805L16.8791 36.5879C17.6769 36.8668 18.3693 37.1271 18.4178 37.1659ZM32.0759 38.5619L34.5528 41.0652L34.5043 43.0231C34.4778 44.1 34.4054 44.981 34.3435 44.981C34.1655 44.981 26.4844 37.2449 26.5822 37.164C26.6633 37.0969 29.25 36.1352 29.4923 36.082C29.551 36.069 30.7135 37.1851 32.0759 38.5619ZM41.8457 36.7113C42.511 36.939 43.0567 37.1698 43.058 37.2241C43.0592 37.2784 41.271 39.1106 39.0841 41.2956L35.1078 45.2684V43.1393V41.0101L37.5804 38.532C39.2761 36.8325 40.1445 36.0921 40.3444 36.1755C40.5047 36.2422 41.1802 36.4833 41.8457 36.7113Z" fill="#F3BD6A"/>
</svg>
