<svg width="22" height="22" viewBox="0 0 22 22" fill="none" xmlns="http://www.w3.org/2000/svg">
<path fill-rule="evenodd" clip-rule="evenodd" d="M1.5748 0.067234C1.16428 0.166548 0.794453 0.384216 0.519895 0.68808C-0.0423371 1.3105 0.000761599 0.452574 0.000761599 11.0158C0.000761599 19.936 0.00863178 20.5142 0.133656 20.7803C0.328162 21.1942 0.742734 21.6203 1.14599 21.8208L1.49985 21.9966H10.9816C19.9018 21.9966 20.48 21.9887 20.746 21.8637C21.16 21.6692 21.586 21.2546 21.7865 20.8514L21.9624 20.4975L21.9834 14.7823C21.9949 11.6389 21.9777 9.067 21.9451 9.067C21.9126 9.067 21.2373 9.71625 20.4445 10.5099L19.0032 11.9527L18.9837 15.4756L18.9642 18.9984H10.9816H2.99893V11.0158V3.03318L6.52179 3.01369L10.0446 2.9942L11.4875 1.55283C12.2811 0.760036 12.9304 0.0857477 12.9304 0.0544918C12.9304 -0.0181389 1.87627 -0.00562155 1.5748 0.067234ZM17.2915 0.695801L16.5986 1.39153L17.2387 1.82634C18.3544 2.5842 19.4659 3.69247 20.2301 4.80907L20.6247 5.38562L21.3124 4.69514L22 4.00466L21.9208 3.37294C21.6508 1.22011 20.6547 0.27823 18.3993 0.0432486L17.9844 0L17.2915 0.695801ZM11.0223 6.96468C8.5918 9.3956 6.61863 11.3969 6.63744 11.4119C6.65625 11.4269 6.91162 11.5964 7.20484 11.7886C8.32249 12.521 9.47956 13.6823 10.307 14.9017L10.6297 15.3773L15.0412 10.9666C18.0303 7.97813 19.4393 6.51975 19.4115 6.4436C19.3887 6.38176 19.2152 6.07325 19.0258 5.75799C18.3715 4.66905 17.3283 3.62591 16.2394 2.97156C15.9241 2.78215 15.6156 2.60863 15.5538 2.58592C15.4776 2.55804 14.0166 3.9698 11.0223 6.96468ZM5.2241 12.7628L4.98522 13.0092V15.0107V17.0122H6.98665H8.98816L9.23131 16.7765L9.47446 16.5408L9.31781 16.2331C8.62763 14.8772 7.3265 13.5589 5.87995 12.7497L5.46291 12.5164L5.2241 12.7628Z" fill="#F9DDB2"/>
</svg>
