<svg width="20" height="23" viewBox="0 0 20 23" fill="none" xmlns="http://www.w3.org/2000/svg">
<path fill-rule="evenodd" clip-rule="evenodd" d="M9.09956 0.135901C8.59588 0.29104 1.28481 4.63921 0.877211 5.02611C0.729991 5.16579 0.472381 5.55879 0.304743 5.89921L0 6.51834V11.436V16.3537L0.304743 16.9728C0.472381 17.3133 0.729991 17.7063 0.877211 17.8459C1.35388 18.2984 8.61763 22.5888 9.18743 22.7545C9.80474 22.9339 10.5526 22.8791 11.1619 22.6095C11.9833 22.2462 18.5855 18.2561 18.7299 18.0357C18.8632 17.8324 18.8642 17.7783 18.7396 17.5552C18.4558 17.0472 18.3363 17.0992 14.3434 19.4686L10.5953 21.6927H9.96484H9.33427L5.52746 19.4029C2.24884 17.4308 1.68057 17.0555 1.43269 16.6993L1.14493 16.2856V11.436V6.58646L1.43269 6.17276C1.68057 5.81649 2.24884 5.44124 5.52746 3.46919L9.33427 1.17932H9.97047H10.6067L14.4135 3.46919C17.6908 5.44048 18.2605 5.81659 18.5082 6.17257L18.796 6.58608L18.8437 10.6285C18.8733 13.1365 18.9277 14.7046 18.9868 14.7601C19.2298 14.9875 19.509 14.9775 19.7542 14.7323L20 14.4864L19.9705 10.5021L19.9409 6.51777L19.6362 5.89902C19.4686 5.55869 19.2109 5.16579 19.0637 5.02611C18.6243 4.60897 11.3328 0.288177 10.8026 0.130749C10.21 -0.0451893 9.68271 -0.0436627 9.09956 0.135901ZM8.66067 4.32188C6.83993 4.76306 5.30801 6.26626 4.7655 8.14386C4.36907 9.51644 4.65483 11.2958 5.4705 12.5332L5.65912 12.8195L4.71646 14.2984C4.1979 15.1117 3.77256 15.8656 3.77122 15.9737C3.76779 16.2441 3.97292 16.5 4.19991 16.5085C4.3039 16.5124 4.7324 16.4839 5.1522 16.4453C6.07206 16.3606 6.1378 16.4099 6.3935 17.3755C6.59062 18.1201 6.69281 18.2345 7.1233 18.1929C7.41727 18.1644 7.50027 18.0613 8.43416 16.5644L9.43111 14.9662H9.96522H10.4993L11.5039 16.5644C12.4408 18.0547 12.5295 18.1645 12.82 18.1929C13.2479 18.2345 13.3505 18.1194 13.5474 17.3755C13.8031 16.4099 13.8689 16.3606 14.7887 16.4453C15.2085 16.4839 15.637 16.5124 15.741 16.5085C15.9686 16.4999 16.1736 16.2434 16.1684 15.9737C16.1663 15.8656 15.741 15.1117 15.2232 14.2984L14.2819 12.8195L14.4704 12.5332C15.3122 11.256 15.5812 9.41636 15.1333 8.00122C14.5511 6.16236 12.9349 4.66211 11.1346 4.28944C10.4776 4.15348 9.29162 4.16893 8.66067 4.32188ZM11.3253 5.5107C12.8349 6.03002 13.8919 7.27466 14.1767 8.86832C14.3828 10.0216 14.0336 11.3119 13.2596 12.2564C13.0773 12.4788 12.9282 12.686 12.9282 12.7169C12.9282 12.7477 13.2715 13.3168 13.6911 13.9814C14.1106 14.6459 14.4434 15.2 14.4306 15.2127C14.4177 15.2253 14.1781 15.1939 13.8983 15.1428C13.2274 15.0206 13.0044 15.162 12.8194 15.8271L12.6821 16.3207L11.8848 15.0463L11.0875 13.7718H9.97047H8.8534L8.10003 14.9864C7.68566 15.6543 7.32004 16.2022 7.28751 16.2037C7.25497 16.2053 7.1733 16.0101 7.10613 15.77C6.93706 15.1661 6.69577 15.0239 6.04268 15.1428C5.76284 15.1939 5.52326 15.2253 5.51038 15.2127C5.4975 15.2 5.83029 14.6459 6.24981 13.9814C6.66943 13.3168 7.01272 12.7477 7.01272 12.7169C7.01272 12.686 6.8636 12.4788 6.68136 12.2564C5.32538 10.6016 5.39274 8.23326 6.83927 6.70372C7.74481 5.74627 8.68051 5.33772 9.97934 5.33285C10.5428 5.33066 10.9638 5.38628 11.3253 5.5107ZM9.70475 6.34812C9.63729 6.37522 9.4333 6.69284 9.25136 7.05407C9.0695 7.4153 8.8241 7.77156 8.70618 7.84589C8.58815 7.92021 8.23399 8.01047 7.91913 8.04654C6.72525 8.18307 6.61285 8.57435 7.5018 9.50003C8.07083 10.0927 8.08467 10.1193 8.0258 10.51C7.8407 11.7392 7.84013 11.8158 8.01588 12.0099C8.25488 12.2741 8.4333 12.2503 9.25326 11.8445L9.97047 11.4895L10.6877 11.8445C11.5076 12.2503 11.6861 12.2741 11.9251 12.0099C12.1008 11.8158 12.1002 11.7392 11.9151 10.51C11.8563 10.1193 11.8701 10.0927 12.4391 9.50003C13.3281 8.57435 13.2157 8.18307 12.0218 8.04654C11.707 8.01047 11.3528 7.92021 11.2348 7.84589C11.1168 7.77156 10.8721 7.41663 10.6911 7.05713C10.3243 6.32857 10.1196 6.18154 9.70475 6.34812ZM10.209 8.5463C10.3617 8.82929 10.4815 8.91993 10.8078 8.99932L11.2158 9.09845L10.954 9.35997C10.7297 9.58399 10.6952 9.69009 10.7131 10.1019L10.734 10.5824L10.4524 10.4367C10.0965 10.2526 9.84443 10.2526 9.48855 10.4367L9.20699 10.5824L9.22789 10.1019C9.24573 9.69009 9.21128 9.58399 8.98697 9.35997L8.72516 9.09845L9.13314 8.99932C9.45945 8.91993 9.57928 8.82929 9.73194 8.5463C9.83689 8.35176 9.94423 8.19252 9.97047 8.19252C9.99671 8.19252 10.104 8.35176 10.209 8.5463Z" fill="url(#paint0_linear_5369_1854)"/>
<defs>
<linearGradient id="paint0_linear_5369_1854" x1="10" y1="0" x2="10" y2="22.8587" gradientUnits="userSpaceOnUse">
<stop stop-color="#FD9149"/>
<stop offset="1" stop-color="#FFD588"/>
</linearGradient>
</defs>
</svg>
