<svg width="20" height="23" viewBox="0 0 20 23" fill="none" xmlns="http://www.w3.org/2000/svg">
<path d="M8.8315 0.160565C8.22627 0.432304 1.19812 4.68131 0.876974 4.9654C0.716402 5.11362 0.457015 5.50887 0.296442 5.85472C0 6.47231 0 6.48466 0 11.4501C0 16.1931 0.0123518 16.4402 0.247035 16.9466C0.395256 17.243 0.679346 17.6506 0.901678 17.8606C1.32164 18.2559 8.07805 22.3443 8.81915 22.6531C9.06619 22.7519 9.59731 22.8384 10.0049 22.8384C10.9189 22.8384 11.0425 22.7766 15.4397 20.158C18.0336 18.6141 18.7253 18.1447 18.75 17.9224C18.7994 17.5765 18.577 17.2801 18.2682 17.2801C18.1447 17.2801 16.3661 18.2806 14.3033 19.5034C10.7954 21.5909 10.536 21.7267 9.95551 21.7267C9.36263 21.7267 9.11559 21.6032 5.68181 19.5528C3.68082 18.3547 1.90217 17.2554 1.75395 17.1072C1.11166 16.539 1.11166 16.5266 1.11166 11.376C1.11166 6.58348 1.11166 6.57112 1.39575 6.15116C1.60573 5.84237 2.64327 5.13832 5.43477 3.44613L9.20205 1.16106H9.94316H10.6843L14.4515 3.44613C17.243 5.13832 18.2806 5.84237 18.4906 6.15116C18.7747 6.57112 18.7747 6.62053 18.7747 10.4743C18.7747 13.8092 18.7994 14.4268 18.9723 14.6615C19.2193 15.0197 19.5899 15.0074 19.8246 14.6368C19.9975 14.3774 20.0222 13.834 19.9851 10.4002C19.9481 6.58348 19.9357 6.45996 19.664 5.89178C19.5034 5.57063 19.1946 5.15067 18.9599 4.95304C18.5029 4.54544 11.7342 0.444655 11.0672 0.172917C10.5237 -0.0494146 9.32557 -0.0617663 8.8315 0.160565Z" fill="black"/>
<path d="M9.26385 4.19993C5.44716 4.65695 3.40912 8.78243 5.27424 12.2409C5.45951 12.5744 5.54598 12.8832 5.49657 12.982C5.43481 13.0685 5.01485 13.7602 4.54549 14.5136C4.08847 15.2671 3.70557 15.9341 3.70557 16.0206C3.70557 16.0947 3.79203 16.2429 3.90319 16.3541C4.06377 16.5146 4.2614 16.527 4.99015 16.4652C6.01534 16.3788 6.0524 16.3911 6.3859 17.3916C6.63293 18.1451 6.91702 18.4044 7.25052 18.1945C7.37404 18.1204 7.91751 17.3545 8.44864 16.5023L9.42443 14.9336H9.95555H10.4743L11.4378 16.4776C11.9565 17.3298 12.463 18.0833 12.5494 18.1574C12.6482 18.2315 12.8582 18.2562 13.0188 18.2192C13.2658 18.1574 13.3646 17.9968 13.5252 17.4287C13.834 16.3911 13.8587 16.3788 14.958 16.4776C15.8597 16.5517 15.9214 16.5393 16.0573 16.2923C16.2426 15.9588 16.2179 15.9094 15.1803 14.2419L14.3034 12.8462L14.7727 11.9074C15.1803 11.0799 15.2421 10.8205 15.2915 9.86939C15.3286 9.00477 15.2915 8.59716 15.0939 7.93016C14.3281 5.43511 11.9195 3.89114 9.26385 4.19993ZM11.7466 5.64509C12.6112 6.06505 13.2535 6.68264 13.7105 7.53491C14.4763 8.99241 14.3528 10.7711 13.3893 12.0433C13.1547 12.3397 12.9694 12.6485 12.9694 12.7103C12.9694 12.7844 13.3029 13.3773 13.7228 14.0319L14.4639 15.2177L13.8587 15.1312C13.167 15.0448 12.9941 15.1683 12.7841 15.897L12.6606 16.3294L11.8701 15.0448L11.0672 13.7602L9.95555 13.7725L8.83154 13.7849L8.02868 15.0571L7.23817 16.3294L7.127 15.9094C6.95408 15.23 6.71939 15.0571 6.10181 15.1436C5.80536 15.1806 5.55833 15.1683 5.55833 15.1189C5.55833 15.0695 5.89183 14.4889 6.31179 13.8467L7.05289 12.6856L6.7441 12.3521C6.58352 12.1792 6.28708 11.7222 6.08945 11.3516C5.78066 10.7587 5.74361 10.5364 5.74361 9.56059C5.74361 8.62186 5.79301 8.33777 6.06475 7.75724C6.58352 6.67028 7.58402 5.79331 8.76978 5.41041C9.37502 5.21278 11.1413 5.34865 11.7466 5.64509Z" fill="black"/>
<path d="M9.54786 6.43511C9.47375 6.52157 9.27612 6.87977 9.09085 7.23797C8.80676 7.80615 8.72029 7.89262 8.31269 7.95438C7.08986 8.13965 6.9787 8.18906 6.94164 8.55961C6.90459 8.8437 7.01575 9.02898 7.48512 9.5107L8.06565 10.1036L7.92978 10.8817C7.83097 11.5117 7.84332 11.7093 7.97919 11.9316C8.21387 12.3022 8.34974 12.2898 9.22672 11.8328L9.96782 11.4499L10.783 11.8575L11.6106 12.2651L11.87 12.0181C12.1047 11.7834 12.1047 11.7093 11.9688 10.9311L11.8329 10.1036L12.4629 9.43659C12.8087 9.07838 13.0928 8.72018 13.0928 8.67078C13.0928 8.33728 12.7223 8.1273 11.9935 8.01613C11.5612 7.95438 11.1783 7.86791 11.1412 7.83086C11.0918 7.7938 10.8942 7.4356 10.6842 7.0527C10.4001 6.50922 10.2396 6.3363 9.99253 6.31159C9.8196 6.28689 9.62197 6.34865 9.54786 6.43511ZM10.4125 8.78194C10.5237 8.90546 10.7707 9.00427 10.9436 9.00427H11.2648L10.9436 9.38718C10.6719 9.70832 10.6348 9.84419 10.6966 10.2024L10.783 10.6471L10.4001 10.4124C10.0296 10.2024 9.99253 10.2024 9.57257 10.4L9.1279 10.61L9.21437 10.1653C9.27612 9.79479 9.23907 9.67127 8.94263 9.36248L8.59678 9.00427H8.94263C9.28848 9.00427 9.88136 8.52256 9.89371 8.23847C9.89371 8.13965 9.95547 8.17671 10.0419 8.31258C10.1284 8.44845 10.289 8.65843 10.4125 8.78194Z" fill="black"/>
</svg>
