<svg width="578" height="151" viewBox="0 0 578 151" fill="none" xmlns="http://www.w3.org/2000/svg">
<rect x="562.355" y="3.14917" width="15.5635" height="130.198" fill="url(#paint0_linear_15891_16)"/>
<path d="M218.266 1.27439C214.045 2.21467 211.154 4.34052 209.669 7.52929C209.044 8.79662 208.926 10.064 208.926 15.5012C208.926 21.8379 208.965 22.0014 209.864 22.7782C210.724 23.514 211.779 23.5549 238.39 23.5549C265.314 23.5549 266.018 23.5958 267.737 24.4134C271.567 26.2122 273.208 29.2375 273.208 34.4295C273.208 37.2912 273.051 38.0679 272.153 39.9076C270.785 42.5649 268.597 44.2411 265.822 44.8134C264.533 45.0587 253.357 45.2222 236.866 45.2222C206.425 45.2222 209.083 44.8952 208.809 48.8198C208.692 50.7413 208.809 51.3545 209.473 52.2539L210.333 53.3577L229.95 53.4803C248.081 53.603 249.683 53.6439 251.247 54.3797C253.396 55.3609 255.779 58.2226 256.405 60.5529C257.108 63.1284 256.756 67.8707 255.701 70.0374C254.685 72.0815 252.419 74.1256 250.543 74.6571C249.762 74.9024 241.477 75.0659 230.692 75.0659C210.45 75.0659 209.903 75.1068 209.083 77.3962C208.809 78.132 208.731 82.8334 208.809 91.0098C208.965 104.95 209.004 105.318 211.779 108.344C213.889 110.633 215.96 111.492 220.259 111.737C225.378 112.064 225.807 111.9 226.12 109.488C226.941 102.538 228.621 98.532 232.372 94.3212C235.147 91.2551 238.625 88.9248 242.337 87.6983C245.893 86.4719 252.067 86.4719 255.623 87.6983C263.478 90.3148 269.964 97.7961 271.254 105.727C271.527 107.199 271.84 109.12 271.957 110.02L272.231 111.655L295.052 111.778C311.581 111.819 318.029 111.737 318.381 111.41C318.693 111.124 318.928 110.142 318.928 109.039C318.928 104.051 321.429 98.2049 325.375 94.035C330.143 89.0066 334.871 86.8398 341.397 86.7989C347.923 86.7581 353.276 89.0066 357.77 93.708C361.561 97.6735 363.593 102.17 364.452 108.384L364.882 111.655H371.916C378.598 111.655 378.989 111.614 380.826 110.633C383.209 109.366 385.124 107.035 385.984 104.419C386.531 102.702 386.57 100.576 386.453 88.2298C386.257 72.6948 386.023 70.7324 383.874 67.5028C382.428 65.336 381.021 64.5593 375.472 62.924C369.689 61.207 366.992 59.9397 365.468 58.0591C364.804 57.2823 361.99 51.9268 359.177 46.1216C356.402 40.3573 353.706 35.1653 353.237 34.593C351.557 32.6715 348.743 30.5048 346.438 29.401C344.21 28.3381 343.82 28.2972 336.043 28.0519C331.628 27.9293 327.837 27.684 327.642 27.5205C327.486 27.316 327.251 22.7373 327.134 17.3L326.939 7.40665L325.844 5.48521C324.594 3.23671 323.07 2.01026 320.608 1.23351C317.99 0.415871 221.861 0.456757 218.266 1.27439ZM342.882 36.9641C347.376 39.2944 348.626 40.9705 353.823 51.9268C356.363 57.2823 358.356 61.7793 358.2 61.902C358.044 62.0655 351.166 62.1881 342.921 62.1881C329.987 62.1881 327.837 62.1064 327.525 61.5749C327.095 60.8391 326.978 36.1056 327.407 35.6559C327.564 35.4924 330.534 35.4106 333.972 35.4924C340.186 35.615 340.264 35.615 342.882 36.9641Z" fill="#FFF0D8"/>
<path d="M201.423 28.3376C200.915 28.4194 200.016 29.0735 199.352 29.7276C198.258 30.9131 198.18 31.1584 198.18 34.2246C198.18 37.2089 198.258 37.536 199.313 38.7624L200.446 40.1115L233.154 40.2342L265.861 40.3159L267.15 38.9668C270.277 35.6963 268.948 29.1552 264.962 28.2967C263.594 28.0105 202.83 28.0514 201.423 28.3376Z" fill="#FFF0D8"/>
<path d="M188.92 58.9576C187.122 59.8979 186.341 61.9012 186.536 65.09C186.653 66.8889 186.927 67.9109 187.435 68.5651C189.193 70.6092 188.803 70.5683 219.009 70.5683C234.601 70.5683 247.887 70.4457 248.551 70.323C249.255 70.1595 250.31 69.5054 250.974 68.8512C252.029 67.7065 252.107 67.4203 252.107 64.4768C252.107 61.0018 251.638 59.9388 249.763 58.9168C248.786 58.3853 244.565 58.3035 219.4 58.3035C193.648 58.3035 190.014 58.3853 188.92 58.9576Z" fill="#FFF0D8"/>
<path d="M244.486 92.9707C241.165 93.9519 238.976 95.2601 236.593 97.7947C232.763 101.801 230.848 107.892 231.708 113.33C233.31 123.346 242.181 130.214 251.559 128.66C261.055 127.148 267.776 117.622 266.252 107.933C264.533 97.018 254.412 90.0681 244.486 92.9707ZM251.95 103.314C253.747 103.886 255.662 106.175 256.209 108.506C257.499 113.698 254.099 118.399 248.98 118.399C242.259 118.399 238.898 109.977 243.626 105.031C245.776 102.782 248.472 102.21 251.95 103.314Z" fill="#FFF0D8"/>
<path d="M338.153 92.685C333.855 93.5435 329.674 96.5279 327.173 100.453C320.139 111.491 326.352 126.413 338.935 128.661C347.532 130.174 356.363 124.164 358.591 115.334C361.834 102.211 350.892 90.0686 338.153 92.685ZM345.148 103.519C346.711 104.336 348.548 106.748 349.017 108.629C349.837 111.818 348.782 114.843 346.047 117.01C344.875 117.95 344.132 118.195 342.022 118.318C339.716 118.441 339.248 118.318 337.645 117.255C332.136 113.535 333.542 104.459 339.873 102.906C341.592 102.497 343.663 102.701 345.148 103.519Z" fill="#FFF0D8"/>
<path d="M82.4681 27.743C79.9214 28.2406 78.1765 29.3655 77.2805 31.053C76.9032 31.7236 76.8324 32.3943 76.8324 35.2716C76.8324 38.6248 76.856 38.7114 77.3984 39.1224C77.9171 39.5118 78.5538 39.5334 94.6119 39.5334C110.859 39.5334 111.283 39.5551 112.321 39.9878C114.631 40.9396 115.622 42.5406 115.622 45.2881C115.622 46.8024 115.527 47.2135 114.985 48.187C114.16 49.5932 112.839 50.4802 111.165 50.7831C110.387 50.9129 103.643 50.9994 93.6922 50.9994C75.3233 50.9994 76.9267 50.8263 76.7617 52.9032C76.6909 53.92 76.7617 54.2445 77.1626 54.7204L77.6813 55.3045L89.5186 55.3694C100.46 55.4343 101.427 55.456 102.37 55.8454C103.667 56.3646 105.105 57.879 105.482 59.1121C105.907 60.475 105.695 62.9846 105.058 64.1312C104.445 65.2129 103.077 66.2945 101.945 66.5758C101.474 66.7056 96.4747 66.7921 89.9666 66.7921C77.7521 66.7921 77.4219 66.8138 76.9267 68.0253C76.7617 68.4147 76.7145 70.9026 76.7617 75.2293C76.856 82.6065 76.8796 82.8012 78.5538 84.4021C79.8271 85.6136 81.0769 86.0679 83.6707 86.1977C86.7597 86.3708 87.0191 86.2843 87.2077 85.0079C87.7029 81.3301 88.7168 79.21 90.9805 76.9817C92.6547 75.3591 94.7534 74.126 96.9935 73.477C99.1393 72.828 102.865 72.828 105.011 73.477C109.75 74.8616 113.665 78.8206 114.443 83.0175C114.608 83.7964 114.796 84.8131 114.867 85.2891L115.032 86.1544L128.803 86.2194C138.778 86.241 142.668 86.1977 142.88 86.0246C143.069 85.8732 143.211 85.354 143.211 84.7699C143.211 82.1305 144.72 79.0369 147.101 76.8302C149.978 74.1693 152.831 73.0227 156.769 73.0011C160.707 72.9794 163.938 74.1693 166.649 76.6572C168.937 78.7557 170.163 81.1354 170.681 84.4237L170.941 86.1544H175.185C179.218 86.1544 179.453 86.1328 180.562 85.6136C182 84.943 183.155 83.7098 183.674 82.3253C184.004 81.4166 184.028 80.2917 183.957 73.7582C183.839 65.5374 183.698 64.4989 182.401 62.7899C181.528 61.6433 180.679 61.2322 177.331 60.3669C173.841 59.4582 172.214 58.7876 171.295 57.7924C170.894 57.3814 169.196 54.5474 167.498 51.4753C165.824 48.425 164.197 45.6775 163.914 45.3746C162.9 44.3578 161.202 43.2112 159.811 42.6271C158.467 42.0646 158.231 42.043 153.539 41.9132C150.874 41.8483 148.587 41.7185 148.469 41.6319C148.375 41.5238 148.233 39.1008 148.162 36.2235L148.045 30.9881L147.384 29.9713C146.63 28.7814 145.71 28.1324 144.225 27.7214C142.645 27.2887 84.6375 27.3103 82.4681 27.743ZM157.665 46.6294C160.377 47.8625 161.132 48.7495 164.268 54.5474C165.8 57.3814 167.003 59.7611 166.909 59.826C166.814 59.9126 162.664 59.9775 157.689 59.9775C149.884 59.9775 148.587 59.9342 148.398 59.653C148.139 59.2635 148.068 46.175 148.327 45.9371C148.422 45.8505 150.214 45.8073 152.289 45.8505C156.038 45.9154 156.085 45.9154 157.665 46.6294Z" fill="url(#paint1_linear_15891_16)"/>
<path d="M72.3041 42.0643C71.9975 42.1076 71.4552 42.4537 71.0543 42.7999C70.3941 43.4273 70.3469 43.5571 70.3469 45.1796C70.3469 46.7589 70.3941 46.932 71.0307 47.581L71.7146 48.2949L91.4512 48.3598L111.188 48.4031L111.966 47.6892C113.852 45.9584 113.051 42.497 110.645 42.0427C109.82 41.8912 73.153 41.9129 72.3041 42.0643Z" fill="url(#paint2_linear_15891_16)"/>
<path d="M64.7588 58.2673C63.6741 58.7649 63.2025 59.8249 63.3204 61.5124C63.3911 62.4643 63.5562 63.0051 63.8627 63.3513C64.9238 64.433 64.688 64.4113 82.9155 64.4113C92.324 64.4113 100.341 64.3464 100.742 64.2815C101.167 64.195 101.803 63.8489 102.204 63.5027C102.841 62.897 102.888 62.7455 102.888 61.1879C102.888 59.349 102.605 58.7865 101.473 58.2457C100.884 57.9644 98.3369 57.9212 83.1513 57.9212C67.612 57.9212 65.419 57.9644 64.7588 58.2673Z" fill="url(#paint3_linear_15891_16)"/>
<path d="M98.2896 76.2674C96.2853 76.7866 94.9648 77.4789 93.5264 78.8202C91.2156 80.9403 90.0602 84.1638 90.5789 87.0411C91.5457 92.3414 96.8984 95.9758 102.558 95.1537C108.288 94.3533 112.343 89.3126 111.424 84.1854C110.386 78.4092 104.279 74.7314 98.2896 76.2674ZM102.793 81.7408C103.878 82.0437 105.034 83.2551 105.364 84.4883C106.142 87.2358 104.09 89.7237 101.001 89.7237C96.9456 89.7237 94.9177 85.2671 97.7709 82.6494C99.0678 81.4595 100.695 81.1567 102.793 81.7408Z" fill="url(#paint4_linear_15891_16)"/>
<path d="M154.811 76.1159C152.217 76.5702 149.694 78.1495 148.185 80.2263C143.94 86.0675 147.69 93.9639 155.283 95.1537C160.47 95.9542 165.799 92.774 167.143 88.1011C169.1 81.1566 162.498 74.7313 154.811 76.1159ZM159.032 81.8489C159.975 82.2815 161.083 83.5579 161.366 84.5531C161.861 86.2405 161.225 87.8415 159.574 88.9881C158.867 89.4856 158.419 89.6154 157.145 89.6803C155.754 89.7452 155.471 89.6803 154.504 89.1179C151.18 87.1492 152.028 82.3464 155.848 81.5244C156.886 81.308 158.136 81.4162 159.032 81.8489Z" fill="url(#paint5_linear_15891_16)"/>
<path d="M434.405 62.0662V45.1462H446.165V48.0502H437.981V52.0102H445.589V54.9382H437.981V59.1622H446.165V62.0662H434.405ZM446.262 62.0662L453.342 52.6582V54.3142L446.454 45.1462H450.846L455.454 51.6022H454.254L458.886 45.1462H463.278L456.366 54.3142V52.6582L463.494 62.0662H459.078L454.254 55.3702H455.478L450.63 62.0662H446.262ZM464.501 62.0662V45.1462H472.397C474.301 45.1462 475.741 45.6102 476.717 46.5382C477.709 47.4502 478.205 48.7062 478.205 50.3062C478.205 51.8902 477.709 53.1542 476.717 54.0982C475.741 55.0262 474.301 55.4902 472.397 55.4902H468.245V62.0662H464.501ZM468.245 52.5862H471.917C472.813 52.5862 473.477 52.3862 473.909 51.9862C474.357 51.5862 474.581 51.0262 474.581 50.3062C474.581 49.5862 474.357 49.0342 473.909 48.6502C473.477 48.2502 472.813 48.0502 471.917 48.0502H468.245V52.5862ZM480.417 62.0662V45.1462H488.097C490.001 45.1462 491.473 45.6022 492.513 46.5142C493.553 47.4102 494.073 48.6662 494.073 50.2822C494.073 51.3382 493.833 52.2502 493.353 53.0182C492.889 53.7702 492.217 54.3542 491.337 54.7702C490.473 55.1702 489.433 55.3702 488.217 55.3702L488.505 54.8422H489.489C490.177 54.8422 490.785 55.0262 491.313 55.3942C491.857 55.7622 492.305 56.2982 492.657 57.0022L495.177 62.0662H491.049L488.433 56.6182C488.241 56.1542 487.937 55.8502 487.521 55.7062C487.121 55.5462 486.657 55.4662 486.129 55.4662H484.161V62.0662H480.417ZM484.161 52.7782H487.449C488.425 52.7782 489.169 52.5782 489.681 52.1782C490.193 51.7782 490.449 51.1862 490.449 50.4022C490.449 49.6182 490.193 49.0342 489.681 48.6502C489.169 48.2502 488.425 48.0502 487.449 48.0502H484.161V52.7782ZM497.129 62.0662V45.1462H508.889V48.0502H500.705V52.0102H508.313V54.9382H500.705V59.1622H508.889V62.0662H497.129ZM517.102 62.3302C515.742 62.3302 514.47 62.1622 513.286 61.8262C512.102 61.4902 511.094 61.0262 510.262 60.4342L511.366 57.5062C511.91 57.8742 512.486 58.1862 513.094 58.4422C513.702 58.6982 514.342 58.8982 515.014 59.0422C515.686 59.1702 516.39 59.2342 517.126 59.2342C518.278 59.2342 519.094 59.0582 519.574 58.7062C520.07 58.3542 520.318 57.9062 520.318 57.3622C520.318 56.8662 520.15 56.4902 519.814 56.2342C519.494 55.9622 518.902 55.7302 518.038 55.5382L515.206 54.9622C513.654 54.6422 512.494 54.0982 511.726 53.3302C510.958 52.5622 510.574 51.5382 510.574 50.2582C510.574 49.1702 510.862 48.2262 511.438 47.4262C512.014 46.6262 512.822 46.0022 513.862 45.5542C514.918 45.1062 516.15 44.8822 517.558 44.8822C518.758 44.8822 519.878 45.0502 520.918 45.3862C521.958 45.7222 522.814 46.2022 523.486 46.8262L522.382 49.5622C521.726 49.0342 520.99 48.6422 520.174 48.3862C519.374 48.1142 518.478 47.9782 517.486 47.9782C516.446 47.9782 515.646 48.1622 515.086 48.5302C514.542 48.8982 514.27 49.4022 514.27 50.0422C514.27 50.5222 514.438 50.9142 514.774 51.2182C515.11 51.5062 515.702 51.7382 516.55 51.9142L519.334 52.4662C520.918 52.7862 522.094 53.3222 522.862 54.0742C523.63 54.8262 524.014 55.8262 524.014 57.0742C524.014 58.1302 523.726 59.0502 523.15 59.8342C522.59 60.6182 521.79 61.2342 520.75 61.6822C519.726 62.1142 518.51 62.3302 517.102 62.3302ZM532.619 62.3302C531.259 62.3302 529.987 62.1622 528.803 61.8262C527.619 61.4902 526.611 61.0262 525.779 60.4342L526.883 57.5062C527.427 57.8742 528.003 58.1862 528.611 58.4422C529.219 58.6982 529.859 58.8982 530.531 59.0422C531.203 59.1702 531.907 59.2342 532.643 59.2342C533.795 59.2342 534.611 59.0582 535.091 58.7062C535.587 58.3542 535.835 57.9062 535.835 57.3622C535.835 56.8662 535.667 56.4902 535.331 56.2342C535.011 55.9622 534.419 55.7302 533.555 55.5382L530.723 54.9622C529.171 54.6422 528.011 54.0982 527.243 53.3302C526.475 52.5622 526.091 51.5382 526.091 50.2582C526.091 49.1702 526.379 48.2262 526.955 47.4262C527.531 46.6262 528.339 46.0022 529.379 45.5542C530.435 45.1062 531.667 44.8822 533.075 44.8822C534.275 44.8822 535.395 45.0502 536.435 45.3862C537.475 45.7222 538.331 46.2022 539.003 46.8262L537.899 49.5622C537.243 49.0342 536.507 48.6422 535.691 48.3862C534.891 48.1142 533.995 47.9782 533.003 47.9782C531.963 47.9782 531.163 48.1622 530.603 48.5302C530.059 48.8982 529.787 49.4022 529.787 50.0422C529.787 50.5222 529.955 50.9142 530.291 51.2182C530.627 51.5062 531.219 51.7382 532.067 51.9142L534.851 52.4662C536.435 52.7862 537.611 53.3222 538.379 54.0742C539.147 54.8262 539.531 55.8262 539.531 57.0742C539.531 58.1302 539.243 59.0502 538.667 59.8342C538.107 60.6182 537.307 61.2342 536.267 61.6822C535.243 62.1142 534.027 62.3302 532.619 62.3302Z" fill="#807F7F"/>
<path d="M428.656 92.0054V75.0854H435.112C437.08 75.0854 438.744 75.4214 440.104 76.0934C441.464 76.7654 442.488 77.7334 443.176 78.9974C443.88 80.2454 444.232 81.7574 444.232 83.5334C444.232 85.2934 443.88 86.8054 443.176 88.0694C442.488 89.3334 441.464 90.3094 440.104 90.9974C438.744 91.6694 437.08 92.0054 435.112 92.0054H428.656ZM432.4 88.9334H434.896C436.784 88.9334 438.184 88.4934 439.096 87.6134C440.024 86.7174 440.488 85.3574 440.488 83.5334C440.488 81.6934 440.024 80.3334 439.096 79.4534C438.184 78.5734 436.784 78.1334 434.896 78.1334H432.4V88.9334ZM446.891 92.0054V75.0854H458.651V77.9894H450.467V81.9494H458.075V84.8774H450.467V89.1014H458.651V92.0054H446.891ZM460.979 92.0054V75.0854H464.723V88.8614H472.355V92.0054H460.979ZM474.363 92.0054V75.0854H478.107V92.0054H474.363ZM486.798 92.0054L479.19 75.0854H483.222L489.006 88.6214H487.83L493.614 75.0854H497.502L489.894 92.0054H486.798ZM498.623 92.0054V75.0854H510.383V77.9894H502.199V81.9494H509.807V84.8774H502.199V89.1014H510.383V92.0054H498.623ZM512.71 92.0054V75.0854H520.39C522.294 75.0854 523.766 75.5414 524.806 76.4534C525.846 77.3494 526.366 78.6054 526.366 80.2214C526.366 81.2774 526.126 82.1894 525.646 82.9574C525.182 83.7094 524.51 84.2934 523.63 84.7094C522.766 85.1094 521.726 85.3094 520.51 85.3094L520.798 84.7814H521.782C522.47 84.7814 523.078 84.9654 523.606 85.3334C524.15 85.7014 524.598 86.2374 524.95 86.9414L527.47 92.0054H523.342L520.726 86.5574C520.534 86.0934 520.23 85.7894 519.814 85.6454C519.414 85.4854 518.95 85.4054 518.422 85.4054H516.454V92.0054H512.71ZM516.454 82.7174H519.742C520.718 82.7174 521.462 82.5174 521.974 82.1174C522.486 81.7174 522.742 81.1254 522.742 80.3414C522.742 79.5574 522.486 78.9734 521.974 78.5894C521.462 78.1894 520.718 77.9894 519.742 77.9894H516.454V82.7174ZM533.315 92.0054V83.9654L534.083 86.1014L526.667 75.0854H530.987L535.643 82.3334H534.875L539.531 75.0854H543.707L536.315 86.1014L537.059 83.9654V92.0054H533.315Z" fill="#FD9149"/>
<path fill-rule="evenodd" clip-rule="evenodd" d="M91.1083 109.354C90.502 109.021 89.4075 108.883 88.7347 109.054C87.487 109.372 86.6194 110.26 86.5152 111.325C86.2571 113.966 90.3744 115.135 92.0501 112.897C92.5769 112.193 92.6161 111.007 92.1361 110.293C91.7608 109.734 91.6991 109.678 91.1083 109.354ZM83.8565 103.532C82.6662 103.028 81.5465 103.115 80.5796 103.788C78.3228 105.359 79.589 108.342 82.502 108.318C83.3334 108.311 83.8546 108.119 84.515 107.576C85.4712 106.79 85.6922 105.494 85.0362 104.517C84.6422 103.931 84.4809 103.796 83.8565 103.532ZM76.667 97.6993C75.5684 97.2336 74.2157 97.4309 73.2899 98.1921C71.4293 99.722 72.4959 102.378 75.0437 102.559C76.8883 102.69 78.4677 101.367 78.3261 99.809C78.2385 98.8451 77.6727 98.1256 76.667 97.6993ZM83.9123 109.241C83.3061 108.908 82.2115 108.77 81.5387 108.941C80.291 109.259 79.4234 110.147 79.3192 111.213C79.2049 112.383 79.9628 113.372 81.3145 113.816C82.6116 114.243 83.963 113.858 84.8013 112.824C85.3853 112.104 85.4468 110.935 84.9402 110.181C84.5649 109.622 84.5031 109.565 83.9123 109.241ZM76.8314 103.486C75.5083 102.857 74.1785 102.984 73.1491 103.838C71.6001 105.124 72.0936 107.367 74.0686 108.019C74.7483 108.244 75.7972 108.261 76.3527 108.057C76.9916 107.822 77.835 107.054 78.0575 106.503C78.5073 105.39 77.9495 104.017 76.8314 103.486ZM69.471 97.5868C68.3725 97.1211 67.0197 97.3185 66.094 98.0796C64.2333 99.6095 65.2999 102.265 67.8478 102.446C69.6751 102.576 71.2721 101.254 71.1327 99.7269C71.0441 98.7573 70.4613 98.0066 69.471 97.5868ZM84.2599 115.211C84.1937 115.175 83.9423 115.022 83.7008 114.869C83.1561 114.525 81.9264 114.433 81.1206 114.676C79.9252 115.036 79.1311 116.061 79.1914 117.165C79.3259 119.626 83.0819 120.54 84.6639 118.497C85.1199 117.907 85.2952 117.03 85.0809 116.409C84.9375 115.994 84.4825 115.33 84.2599 115.211ZM76.7185 109.127C75.1728 108.29 72.9812 108.905 72.3183 110.362C71.3155 112.567 74.0183 114.658 76.4689 113.574C78.5114 112.671 78.6516 110.174 76.7185 109.127ZM69.6354 103.373C68.2997 102.738 66.9888 102.871 65.9214 103.748C64.3966 105.002 64.9083 107.247 66.87 107.911C67.4911 108.12 68.6505 108.128 69.206 107.925C69.7993 107.709 70.6457 106.924 70.8615 106.39C71.3114 105.277 70.7535 103.905 69.6354 103.373ZM62.3473 97.5158C61.1745 97.0254 59.8335 97.198 58.9087 97.9584C58.2216 98.5234 58.0514 98.8214 57.9761 99.5917C57.7451 101.956 61.0053 103.261 63.0144 101.609C64.4854 100.4 64.1373 98.2642 62.3473 97.5158ZM76.0956 114.559C75.5202 114.362 74.474 114.378 73.8207 114.596C72.6839 114.974 71.9369 115.979 71.9954 117.052C72.1299 119.514 75.8859 120.428 77.4679 118.384C77.9479 117.764 78.0983 116.905 77.8491 116.206C77.639 115.617 76.7531 114.785 76.0956 114.559ZM69.5226 109.014C67.9768 108.177 65.7853 108.792 65.1223 110.25C64.0749 112.552 67.0309 114.658 69.4856 113.357C71.3398 112.375 71.3599 110.01 69.5226 109.014ZM62.4447 103.256C61.0645 102.629 59.7923 102.759 58.7254 103.636C57.2006 104.89 57.7123 107.135 59.674 107.798C60.2951 108.008 61.4545 108.015 62.0101 107.813C62.9026 107.488 63.7853 106.409 63.8369 105.58C63.8891 104.741 63.2072 103.603 62.4447 103.256ZM55.2054 97.4407C54.0446 96.913 52.6266 97.0706 51.7033 97.8299C51.0429 98.3729 50.7988 98.8101 50.7604 99.5185C50.6252 102.008 54.0754 103.189 56.0067 101.314C57.2238 100.133 56.8185 98.1742 55.2054 97.4407ZM75.8578 120.181C72.8168 119.329 70.5263 122.423 72.75 124.379C73.717 125.23 75.1516 125.393 76.4085 124.796C77.53 124.263 78.0863 123.054 77.7435 121.897C77.5412 121.215 76.6493 120.403 75.8578 120.181ZM68.8845 114.459C66.3945 113.744 64.1914 115.547 64.9451 117.684C65.2138 118.447 66.1995 119.181 67.1688 119.341C69.4282 119.715 71.3082 117.948 70.645 116.075C70.4336 115.477 69.5241 114.643 68.8845 114.459ZM62.2492 108.915C60.1955 107.838 57.612 109.143 57.7243 111.201C57.8455 113.419 60.9266 114.451 62.7849 112.895C64.2092 111.703 63.9544 109.809 62.2492 108.915ZM55.2952 103.191C54.0068 102.504 52.6197 102.627 51.5295 103.523C50.6759 104.225 50.405 105.328 50.8479 106.298C51.5927 107.929 54.1599 108.395 55.6502 107.169C56.2293 106.693 56.6048 106.048 56.6409 105.467C56.6918 104.65 56.0743 103.605 55.2952 103.191ZM48.0094 97.3283C46.0379 96.432 43.5819 97.6121 43.5407 99.4756C43.5071 100.992 44.9138 102.185 46.6526 102.116C47.5308 102.081 48.1986 101.796 48.8236 101.189C50.0275 100.021 49.6135 98.0576 48.0094 97.3283ZM68.6619 120.068C68.3612 119.984 67.817 119.927 67.4525 119.941C64.9174 120.042 63.746 122.67 65.5318 124.25C66.4902 125.098 67.9181 125.285 69.1419 124.723C70.3371 124.173 70.9608 122.781 70.5037 121.681C70.225 121.01 69.3785 120.269 68.6619 120.068ZM61.6885 114.347C59.1985 113.631 56.9954 115.435 57.7491 117.572C58.0178 118.334 59.0035 119.069 59.9728 119.229C62.2252 119.602 64.1103 117.83 63.449 115.962C63.2376 115.365 62.3282 114.53 61.6885 114.347ZM55.0532 108.803C52.9805 107.715 50.4154 109.02 50.5292 111.104C50.5693 111.838 50.9076 112.411 51.6147 112.941C53.8044 114.582 57.2578 112.577 56.3602 110.186C56.1441 109.611 55.7024 109.143 55.0532 108.803ZM48.0992 103.078C46.8112 102.392 45.4237 102.515 44.3343 103.41C43.715 103.92 43.4345 104.438 43.4199 105.102C43.3794 106.928 45.32 108.153 47.4047 107.618C48.2983 107.389 49.1593 106.548 49.3474 105.721C49.5752 104.72 49.0353 103.577 48.0992 103.078ZM40.8135 97.2158C38.5641 96.1932 35.8738 97.8518 36.4029 99.9349C36.9473 102.078 39.918 102.736 41.6148 101.089C42.8319 99.9082 42.4266 97.9493 40.8135 97.2158ZM61.5367 119.997C61.2185 119.889 60.6512 119.813 60.276 119.828C57.7139 119.93 56.5363 122.545 58.3358 124.137C60.0918 125.691 63.1513 124.807 63.4399 122.663C63.5884 121.56 62.7702 120.414 61.5367 119.997ZM54.4926 114.234C52.0025 113.519 49.7994 115.322 50.5532 117.46C50.8218 118.222 51.8075 118.956 52.7769 119.117C55.0911 119.499 57.0307 117.575 56.1889 115.731C55.9246 115.152 55.0735 114.401 54.4926 114.234ZM47.184 108.421C46.816 108.317 46.1906 108.276 45.7943 108.328C45.2021 108.406 44.9466 108.518 44.3591 108.956C43.726 109.428 43.6189 109.566 43.421 110.166C43.0955 111.151 43.3985 112.028 44.3092 112.737C45.1324 113.379 46.0614 113.574 47.0957 113.324C47.675 113.184 47.8964 113.058 48.4371 112.564C48.9684 112.078 49.1099 111.86 49.2252 111.352C49.4248 110.472 49.1877 109.796 48.4494 109.139C48.0119 108.75 47.6752 108.559 47.184 108.421ZM40.9032 102.966C39.5297 102.234 38.147 102.389 37.0509 103.398C36.2233 104.16 36.0205 104.881 36.3684 105.825C36.8941 107.25 38.4868 107.947 40.2087 107.505C41.0616 107.287 41.9373 106.456 42.1422 105.67C42.3994 104.686 41.8401 103.464 40.9032 102.966ZM33.6073 97.0833C32.858 96.7031 31.4083 96.7214 30.6114 97.1211C29.4026 97.7274 28.864 98.9221 29.2848 100.063C29.7216 101.248 30.8596 101.947 32.2606 101.891C33.1355 101.856 33.8063 101.571 34.4228 100.973C35.6265 99.8048 35.2284 97.9057 33.6073 97.0833ZM54.344 119.883C52.2701 119.219 50.186 120.499 50.2884 122.373C50.3306 123.145 50.4878 123.448 51.1502 124.034C53.2023 125.85 56.7352 124.272 56.1962 121.78C56.0273 121 55.2068 120.159 54.344 119.883ZM47.293 114.125C45.0579 113.524 43.0874 114.782 43.2221 116.723C43.3304 118.284 45.1729 119.383 46.9872 118.968C48.4354 118.636 49.3622 117.387 49.1241 116.087C49.0291 115.568 48.9029 115.359 48.3817 114.855C47.9348 114.423 47.6209 114.213 47.293 114.125ZM40.005 108.31C39.6276 108.206 38.9914 108.164 38.591 108.216C37.9338 108.303 37.7867 108.375 37.0745 108.961C36.3803 109.532 36.2702 109.677 36.1557 110.174C35.9474 111.078 36.1397 111.69 36.8519 112.391C37.361 112.893 37.5804 113.027 38.1507 113.184C39.1985 113.473 40.1175 113.302 40.9954 112.653C41.5946 112.211 41.7497 112.026 41.9352 111.538C42.2744 110.644 42.0734 109.86 41.3129 109.111C40.7938 108.6 40.5779 108.468 40.005 108.31ZM33.7487 102.903C32.5263 102.16 31.0714 102.257 29.9795 103.155C28.7285 104.183 28.6625 105.701 29.8241 106.729C30.641 107.452 31.8236 107.698 33.0128 107.393C33.8657 107.174 34.7413 106.343 34.9463 105.558C35.2019 104.579 34.7097 103.487 33.7487 102.903ZM26.4114 96.9708C25.6911 96.6054 24.2247 96.6107 23.4662 96.9814C20.9079 98.232 21.7542 101.564 24.6829 101.773C26.7108 101.917 28.3319 100.322 27.8504 98.656C27.6539 97.9763 27.0886 97.3143 26.4114 96.9708ZM47.1481 119.771C45.1429 119.129 43.0918 120.321 43.0536 122.15C43.0396 122.821 43.3179 123.383 43.9332 123.928C45.9822 125.741 49.5382 124.155 49.0002 121.668C48.8313 120.887 48.0108 120.047 47.1481 119.771ZM40.0971 114.012C38.3444 113.542 36.7427 114.179 36.1588 115.581C35.7918 116.462 35.9487 117.23 36.6409 117.938C36.931 118.235 37.3836 118.575 37.6466 118.693C39.7754 119.65 42.3654 117.965 41.9215 115.913C41.7631 115.181 40.8306 114.209 40.0971 114.012ZM32.809 108.197C31.7612 107.908 30.8422 108.08 29.9642 108.728C29.3651 109.171 29.2099 109.355 29.0245 109.844C28.6853 110.737 28.8863 111.521 29.6468 112.27C30.1659 112.781 30.3818 112.913 30.9547 113.072C32.0026 113.361 32.9215 113.19 33.7995 112.541C34.3987 112.098 34.5538 111.914 34.7392 111.425C35.0785 110.532 34.8774 109.748 34.1169 108.999C33.5978 108.488 33.3819 108.356 32.809 108.197ZM26.5489 102.793C25.3633 102.057 23.8456 102.149 22.7641 103.022C20.8722 104.55 21.9666 107.214 24.562 107.399C26.4634 107.534 28.0712 106.102 27.7808 104.531C27.6617 103.887 27.152 103.168 26.5489 102.793ZM19.2752 96.9028C18.5262 96.4865 17.0812 96.4726 16.2605 96.8738C14.6563 97.6579 14.2329 99.4257 15.3563 100.649C16.9489 102.384 19.9861 101.831 20.6274 99.6884C20.9391 98.6473 20.3943 97.5248 19.2752 96.9028ZM39.9521 119.658C38.3034 119.131 36.6267 119.794 36.038 121.207C35.3048 122.967 36.9214 124.727 39.136 124.58C40.8866 124.464 42.1288 123.056 41.8042 121.556C41.6353 120.775 40.8149 119.934 39.9521 119.658ZM32.9014 113.899C30.4556 113.242 28.1995 114.961 28.8773 116.966C29.2089 117.947 30.4554 118.81 31.6183 118.862C33.4519 118.945 35.0182 117.431 34.7304 115.854C34.6373 115.344 34.5091 115.132 33.9897 114.63C33.5432 114.199 33.2287 113.988 32.9014 113.899ZM32.7528 119.547C31.0525 118.972 29.2088 119.804 28.7444 121.356C28.2468 123.018 29.8685 124.605 31.9253 124.469C33.2562 124.38 34.2793 123.59 34.5681 122.428C34.8687 121.218 34.1033 120.003 32.7528 119.547ZM25.6995 113.792C25.0251 113.602 24.227 113.591 23.555 113.764C22.6658 113.992 21.7998 114.834 21.6157 115.65C21.2671 117.196 22.7995 118.793 24.5878 118.748C25.4908 118.725 26.0256 118.503 26.721 117.863C27.5188 117.129 27.7569 116.351 27.4557 115.462C27.2224 114.773 26.3975 113.989 25.6995 113.792ZM25.5625 119.43C24.8453 119.196 23.8024 119.224 23.1393 119.496C22.501 119.758 21.8163 120.443 21.5626 121.073C21.3254 121.662 21.5075 122.731 21.9347 123.256C23.0825 124.669 25.6576 124.728 26.8559 123.37C27.3378 122.824 27.5715 121.776 27.3503 121.152C27.0964 120.437 26.3012 119.671 25.5625 119.43ZM18.3643 119.321C16.1475 118.612 13.8999 120.155 14.299 122.111C14.8365 124.747 19.0677 125.033 20.0791 122.501C20.5692 121.275 19.7555 119.766 18.3643 119.321Z" fill="#747070"/>
<defs>
<linearGradient id="paint0_linear_15891_16" x1="570.137" y1="3.14917" x2="570.137" y2="133.347" gradientUnits="userSpaceOnUse">
<stop stop-color="#FD9149"/>
<stop offset="1" stop-color="#FD9149" stop-opacity="0"/>
</linearGradient>
<linearGradient id="paint1_linear_15891_16" x1="130.364" y1="86.2646" x2="130.364" y2="27.4075" gradientUnits="userSpaceOnUse">
<stop stop-color="#FD9149"/>
<stop offset="1" stop-color="#FD9149" stop-opacity="0"/>
</linearGradient>
<linearGradient id="paint2_linear_15891_16" x1="91.6792" y1="48.4031" x2="91.6792" y2="41.9393" gradientUnits="userSpaceOnUse">
<stop stop-color="#FD9149"/>
<stop offset="1" stop-color="#FD9149" stop-opacity="0"/>
</linearGradient>
<linearGradient id="paint3_linear_15891_16" x1="83.0953" y1="64.4114" x2="83.0953" y2="57.9212" gradientUnits="userSpaceOnUse">
<stop stop-color="#FD9149"/>
<stop offset="1" stop-color="#FD9149" stop-opacity="0"/>
</linearGradient>
<linearGradient id="paint4_linear_15891_16" x1="101.005" y1="95.2698" x2="101.005" y2="75.9174" gradientUnits="userSpaceOnUse">
<stop stop-color="#FD9149"/>
<stop offset="1" stop-color="#FD9149" stop-opacity="0"/>
</linearGradient>
<linearGradient id="paint5_linear_15891_16" x1="156.949" y1="95.2771" x2="156.949" y2="75.9264" gradientUnits="userSpaceOnUse">
<stop stop-color="#FD9149"/>
<stop offset="1" stop-color="#FD9149" stop-opacity="0"/>
</linearGradient>
</defs>
</svg>
