<svg width="24" height="24" viewBox="0 0 24 24" fill="none" xmlns="http://www.w3.org/2000/svg">
<g clip-path="url(#clip0_174_350)">
<path d="M0.365625 0.0984373C0.257812 0.154687 0.15 0.2625 0.09375 0.375C0.0046875 0.548437 0 0.646875 0 2.10938C0 3.57187 0.0046875 3.67031 0.09375 3.84375C0.201563 4.05469 0.46875 4.21875 0.703125 4.21875C0.9375 4.21875 1.20469 4.05469 1.3125 3.84375C1.39688 3.675 1.40625 3.57187 1.40625 2.53125V1.40625H2.53125C3.57188 1.40625 3.675 1.39687 3.84375 1.3125C4.05469 1.20469 4.21875 0.9375 4.21875 0.703125C4.21875 0.46875 4.05469 0.201562 3.84375 0.09375C3.67031 0.00468731 3.57188 0 2.1 0C0.6375 0.00468731 0.529688 0.00937462 0.365625 0.0984373Z" fill="#F7D299"/>
<path d="M20.1469 0.0984373C19.9453 0.201562 19.7812 0.478125 19.7812 0.703125C19.7812 0.9375 19.9453 1.20469 20.1562 1.3125C20.325 1.39687 20.4281 1.40625 21.4688 1.40625H22.5938V2.53125C22.5938 3.57187 22.6031 3.675 22.6875 3.84375C22.7953 4.05469 23.0625 4.21875 23.2969 4.21875C23.5313 4.21875 23.7984 4.05469 23.9062 3.84375C23.9953 3.67031 24 3.57187 24 2.10938C24 0.646875 23.9953 0.548437 23.9062 0.375C23.8453 0.253125 23.7469 0.154687 23.625 0.09375C23.4516 0.00468731 23.3531 0 21.8813 0C20.4188 0.00468731 20.3109 0.00937462 20.1469 0.0984373Z" fill="#F7D299"/>
<path d="M10.875 5.74216C10.1672 5.82185 9.85782 5.8781 9.07032 6.07966C6.22501 6.80154 3.28594 8.53591 0.689069 11.0156C-0.224994 11.8875 -0.229681 12.1078 0.656256 12.9515C3.82969 15.9984 7.50001 17.8969 10.9219 18.2578C11.7234 18.3469 12.2766 18.3469 13.0875 18.2578C16.2422 17.925 19.575 16.3078 22.5938 13.6453C23.2922 13.0265 23.8172 12.4969 23.9109 12.3187C24.1078 11.939 24 11.6765 23.4047 11.1094C19.4438 7.28904 14.8172 5.30623 10.875 5.74216ZM13.125 7.20935C14.0531 7.4531 14.8359 7.89373 15.4734 8.52654C16.1063 9.15935 16.5328 9.91873 16.7953 10.875C16.9313 11.3859 16.9313 12.614 16.7953 13.125C16.5328 14.0812 16.1063 14.8406 15.4734 15.4734C14.8406 16.1062 14.0813 16.5328 13.125 16.7953C12.6094 16.9359 11.3859 16.9312 10.8609 16.7906C8.99063 16.2797 7.72032 15.0047 7.20938 13.125C7.05938 12.5859 7.06407 11.4281 7.21407 10.8562C7.72501 8.88748 9.31407 7.43435 11.2734 7.12498C11.7094 7.05935 12.7172 7.10623 13.125 7.20935ZM6.65626 8.61091C6.00469 9.69373 5.67188 10.8469 5.67188 12C5.67188 13.1062 6.03282 14.3953 6.58126 15.2531C6.67501 15.3984 6.75001 15.525 6.75001 15.539C6.75001 15.6234 5.54063 14.9484 4.71094 14.4047C3.75001 13.7719 2.32969 12.6469 1.85626 12.1453L1.71563 12L1.85626 11.8547C2.30157 11.3812 3.67969 10.2844 4.59376 9.67029C5.25938 9.22966 6.62813 8.43748 6.73594 8.43748C6.75001 8.43748 6.71251 8.51716 6.65626 8.61091ZM18.0422 8.8406C19.4156 9.60466 20.8781 10.664 21.9375 11.6625L22.2891 11.9906L22.1484 12.1406C21.7172 12.6047 20.2969 13.7344 19.4063 14.3297C18.5953 14.864 17.3156 15.5953 17.2688 15.5484C17.2547 15.5344 17.3203 15.4031 17.4188 15.2578C17.7656 14.714 18.1078 13.8 18.2438 13.0547C18.3234 12.6234 18.3188 11.3672 18.2391 10.9219C18.1125 10.2047 17.7656 9.2906 17.4188 8.74685C17.325 8.60154 17.25 8.47029 17.25 8.45623C17.25 8.40935 17.3813 8.47029 18.0422 8.8406Z" fill="#F7D299"/>
<path d="M11.3438 9.02821C10.5 9.20634 9.67032 9.8579 9.28594 10.6407C8.84532 11.5454 8.84532 12.4548 9.28594 13.3595C9.56251 13.9173 10.0828 14.4376 10.6406 14.7141C11.5453 15.1548 12.4547 15.1548 13.3594 14.7141C14.1516 14.3251 14.7984 13.4954 14.9766 12.6329C15.1219 11.9485 15.0328 11.297 14.7141 10.6407C14.325 9.84852 13.4953 9.20165 12.6328 9.02352C12.2297 8.93915 11.7469 8.93915 11.3438 9.02821ZM12.7219 10.5423C13.0734 10.7157 13.3219 10.9688 13.4953 11.3391C13.5984 11.5595 13.6172 11.6673 13.6172 12.0001C13.6172 12.3563 13.5984 12.436 13.4625 12.7126C13.2844 13.0735 13.0313 13.322 12.6609 13.4954C12.4406 13.5985 12.3328 13.6173 12 13.6173C11.6672 13.6173 11.5594 13.5985 11.3438 13.4954C10.9594 13.3126 10.7109 13.0735 10.5375 12.7126C10.4016 12.436 10.3828 12.3563 10.3828 12.0001C10.3828 11.6673 10.4016 11.5595 10.5047 11.3438C10.9125 10.472 11.8781 10.1251 12.7219 10.5423Z" fill="#F7D299"/>
<path d="M0.365625 19.8797C0.257812 19.9359 0.15 20.0438 0.09375 20.1563C0.0046875 20.3297 0 20.4281 0 21.8906C0 23.3531 0.0046875 23.4516 0.09375 23.625C0.154688 23.7469 0.253125 23.8453 0.375 23.9063C0.548438 23.9953 0.646875 24 2.10938 24C3.57188 24 3.67031 23.9953 3.84375 23.9063C4.05469 23.7984 4.21875 23.5313 4.21875 23.2969C4.21875 23.0625 4.05469 22.7953 3.84375 22.6875C3.675 22.6031 3.57188 22.5938 2.53125 22.5938H1.40625V21.4688C1.40625 20.4281 1.39688 20.325 1.3125 20.1563C1.13906 19.8141 0.717188 19.6922 0.365625 19.8797Z" fill="#F7D299"/>
<path d="M22.9594 19.8797C22.8516 19.9359 22.7438 20.0438 22.6875 20.1563C22.6031 20.325 22.5938 20.4281 22.5938 21.4688V22.5938H21.4688C20.4281 22.5938 20.325 22.6031 20.1562 22.6875C19.9453 22.7953 19.7812 23.0625 19.7812 23.2969C19.7812 23.5313 19.9453 23.7984 20.1562 23.9063C20.3297 23.9953 20.4281 24 21.8906 24C23.3531 24 23.4516 23.9953 23.625 23.9063C23.7469 23.8453 23.8453 23.7469 23.9062 23.625C23.9953 23.4516 24 23.3531 24 21.8906C24 20.4281 23.9953 20.3297 23.9062 20.1563C23.7328 19.8141 23.3109 19.6922 22.9594 19.8797Z" fill="#F7D299"/>
</g>
<defs>
<clipPath id="clip0_174_350">
<rect width="24" height="24" fill="white"/>
</clipPath>
</defs>
</svg>
