<svg width="15" height="15" viewBox="0 0 15 15" fill="none" xmlns="http://www.w3.org/2000/svg">
<path fill-rule="evenodd" clip-rule="evenodd" d="M2.11035 0.0173288C1.58666 0.0841906 1.08527 0.330974 0.709468 0.706827C0.327531 1.08885 0.0847123 1.58772 0.019347 2.12465C-0.00644899 2.33659 -0.00644899 12.67 0.019347 12.8819C0.103438 13.5726 0.491078 14.2094 1.05851 14.589C1.34535 14.7808 1.59267 14.8859 1.93527 14.9614L2.11035 15H5.92055H9.73075L9.82006 14.9505C9.97249 14.8661 10.0559 14.7272 10.0559 14.558C10.0559 14.3888 9.97249 14.25 9.82006 14.1655L9.73075 14.1161L5.94557 14.1077L2.16038 14.0994L2.03202 14.0628C1.45633 13.8985 1.04902 13.4661 0.932444 12.8954C0.902063 12.7466 0.901212 12.5746 0.905414 7.44154L0.909766 2.14133L0.948185 2.01736C1.11859 1.46757 1.48675 1.10231 2.02873 0.945305L2.16038 0.907162H7.49633H12.8323L12.974 0.944888C13.5406 1.09566 13.9586 1.53655 14.0764 2.10767C14.1061 2.25167 14.1075 2.41538 14.1077 5.95343C14.1079 10.0222 14.1002 9.72721 14.2096 9.85998C14.2376 9.89387 14.2955 9.94224 14.3384 9.96745C14.4059 10.0071 14.4343 10.0133 14.5498 10.0133C14.6456 10.0133 14.7005 10.0047 14.7445 9.98278C14.8318 9.93935 14.9237 9.84471 14.9647 9.75596L15 9.67974V5.89386V2.10797L14.9614 1.93285C14.8861 1.59124 14.7808 1.34276 14.5909 1.0588C14.205 0.481492 13.5805 0.101953 12.8744 0.0155109C12.6961 -0.00632049 2.28182 -0.00455263 2.11035 0.0173288ZM4.38647 3.61017C3.95654 3.72269 3.64169 4.08194 3.58903 4.52C3.52818 5.02614 3.83185 5.50401 4.31977 5.66996C4.46864 5.72059 4.73842 5.7328 4.88691 5.69563C5.08291 5.64656 5.263 5.54464 5.40323 5.40343C5.59843 5.2069 5.69888 4.98903 5.7154 4.72637C5.72871 4.515 5.69985 4.36656 5.60915 4.1802C5.54725 4.05298 5.5107 4.00318 5.3981 3.89264C5.2421 3.73952 5.11471 3.66499 4.9268 3.61691C4.77279 3.57751 4.52312 3.57439 4.38647 3.61017ZM9.54556 4.89654C9.29124 5.22491 9.03325 5.55738 8.97225 5.63535C8.91125 5.71332 8.70462 5.97975 8.51306 6.22742C8.3215 6.47508 7.99894 6.89161 7.79629 7.15304C7.59362 7.41447 7.24902 7.85913 7.03051 8.14121C6.81201 8.42328 6.62858 8.65387 6.6229 8.65365C6.61721 8.65342 6.53029 8.51271 6.42972 8.34094C6.25542 8.04323 6.0926 7.76799 5.83161 7.32978L5.71339 7.13128L4.36628 8.48889C3.62536 9.2356 2.81567 10.0548 2.56693 10.3093L2.11469 10.7721H5.05406H7.99344L8.13292 10.6298C8.3584 10.3996 8.60028 10.2574 8.90535 10.1756C9.05649 10.1351 9.08914 10.1328 9.6167 10.1258L10.1696 10.1184L10.1773 9.56552C10.184 9.07934 10.1891 8.99498 10.2198 8.8664C10.3234 8.43222 10.6164 8.05278 11.0272 7.82102C11.08 7.79129 11.1231 7.76257 11.1231 7.75723C11.1231 7.75188 11.0972 7.6644 11.0655 7.56283C11.0338 7.46127 10.9962 7.32791 10.9819 7.26645C10.9596 7.17029 10.4007 5.46233 10.1054 4.58799L10.008 4.29947L9.54556 4.89654ZM11.6133 8.58577C11.5236 8.62653 11.4277 8.72407 11.3836 8.81935C11.3487 8.89478 11.3481 8.91299 11.3435 10.092L11.3388 11.2881L10.1429 11.2928L8.94704 11.2975L8.8493 11.3455C8.69378 11.4219 8.6085 11.5634 8.60684 11.7478C8.60525 11.9234 8.70063 12.0727 8.86366 12.15L8.94704 12.1894L10.1428 12.1896L11.3386 12.1898L11.3434 13.3948L11.3482 14.5997L11.3866 14.6776C11.462 14.8307 11.635 14.9416 11.7984 14.9416C11.9505 14.9416 12.1044 14.8501 12.1861 14.7111L12.232 14.6331L12.2403 13.4156L12.2487 12.1981L13.4576 12.1898C14.7797 12.1806 14.7149 12.1857 14.8382 12.0817C14.9082 12.0227 14.9742 11.8931 14.9863 11.791C15.0075 11.6117 14.8996 11.4217 14.7283 11.3365L14.6498 11.2975L13.4451 11.2927L12.2403 11.2879L12.2401 10.0919L12.24 8.89588L12.2005 8.81249C12.1221 8.64695 11.9753 8.55472 11.7901 8.55472C11.72 8.55472 11.6576 8.56568 11.6133 8.58577Z" fill="#FD9149"/>
</svg>
