<svg width="22" height="20" viewBox="0 0 22 20" fill="none" xmlns="http://www.w3.org/2000/svg">
<path d="M17.5747 0.32204C16.6595 0.770312 16.1738 1.59215 16.0804 2.78754C15.9871 4.11368 16.4914 4.95419 17.7615 5.57057C18.9382 6.14959 19.9094 6.01884 20.9181 5.10362C22.1321 4.00161 22.2816 2.33927 21.2543 1.05048C20.4511 0.023191 18.8261 -0.313014 17.5747 0.32204Z" fill="black"/>
<path d="M0.353521 2.24573C-0.0947517 2.69401 -0.11343 2.9555 0.278809 3.51584L0.55898 3.92676H6.96555C12.9238 3.92676 13.3908 3.90808 13.671 3.59055C14.1006 3.10492 14.0632 2.50723 13.5776 2.17102C13.2227 1.90953 12.2701 1.87217 6.94687 1.87217C0.969896 1.87217 0.708404 1.89085 0.353521 2.24573Z" fill="black"/>
<path d="M5.86359 7.17627C5.28457 7.41909 4.27596 8.46506 4.27596 8.80126C4.27596 8.89465 3.43544 8.96936 2.40815 8.96936C0.633739 8.96936 0.540348 8.98804 0.2415 9.43631C-0.0386706 9.86591 -0.0386706 9.94062 0.2415 10.3702C0.540348 10.8185 0.633739 10.8372 2.3708 10.8372L4.18257 10.8558L4.55613 11.4349C5.11647 12.3127 5.82623 12.7423 6.83485 12.8357C8.55322 12.9665 9.95408 11.659 9.95408 9.90327C9.95408 7.77397 7.78743 6.33576 5.86359 7.17627Z" fill="black"/>
<path d="M12.1954 9.43704C11.9152 9.86663 11.9152 9.94134 12.1954 10.3709L12.4942 10.8379H16.9769H21.4597L21.7585 10.3709C22.0387 9.94134 22.0387 9.86663 21.7585 9.43704L21.4597 8.97009H16.9769H12.4942L12.1954 9.43704Z" fill="black"/>
<path d="M14.0632 14.0314C13.204 14.2743 12.1954 15.4883 12.0273 16.4222C11.8592 17.4122 12.4943 18.7757 13.4095 19.3734C14.6423 20.1952 16.6221 19.7843 17.4066 18.5702L17.8175 17.9351H19.5546C21.0301 17.9351 21.329 17.8791 21.6465 17.5616C22.0948 17.1133 22.1135 16.8518 21.7212 16.2915C21.4597 15.9179 21.2916 15.8806 19.6293 15.8806L17.8175 15.8619L17.444 15.2829C16.7715 14.2182 15.2773 13.6579 14.0632 14.0314Z" fill="black"/>
<path d="M0.278809 16.2919C-0.11343 16.8522 -0.0947517 17.1137 0.353521 17.562C0.708404 17.9169 0.969896 17.9355 5.02303 17.9355C9.07616 17.9355 9.33766 17.9169 9.69254 17.562C10.1408 17.1137 10.1595 16.8522 9.76725 16.2919C9.48708 15.881 9.43105 15.881 5.02303 15.881C0.615013 15.881 0.558979 15.881 0.278809 16.2919Z" fill="black"/>
</svg>
