<svg width="25" height="20" viewBox="0 0 25 20" fill="none" xmlns="http://www.w3.org/2000/svg">
<path fill-rule="evenodd" clip-rule="evenodd" d="M17.246 0.217036C17.1032 0.359807 17.0106 1.05385 17.0106 1.98206V3.51175H13.6879C10.4765 3.51175 10.3547 3.52646 10.0598 3.94771C9.67949 4.49055 9.67969 4.58567 10.0625 4.96868C10.3225 5.22853 10.9942 5.27677 14.3531 5.27677C17.3324 5.27677 18.3873 5.21402 18.5421 5.02771C18.6556 4.89082 18.7768 4.40289 18.8111 3.94359L18.8737 3.10815L20.8839 5.12753L22.8942 7.14672L20.8348 9.19905L18.7756 11.2512V10.3344C18.7756 8.81937 18.7274 8.80682 12.9466 8.80682H7.98938V7.34989C7.98938 5.83746 7.73718 5.27677 7.05686 5.27677C6.62463 5.27677 0.157185 11.7323 0.0120612 12.3084C-0.0875646 12.7046 0.380167 13.2551 3.30324 16.1817C5.51246 18.3935 6.85251 19.5931 7.11452 19.5931C7.81857 19.5931 7.98938 19.2024 7.98938 17.5927V16.063H11.3121C14.5235 16.063 14.6453 16.0483 14.9402 15.6271C15.3205 15.0842 15.3203 14.9891 14.9375 14.6061C14.6775 14.3463 14.0058 14.298 10.6469 14.298C7.66756 14.298 6.61266 14.3608 6.45793 14.5471C6.34438 14.684 6.22318 15.1719 6.18886 15.6312L6.1263 16.4666L4.11613 14.4473L2.10577 12.4281L4.16516 10.3757L6.22436 8.3236V9.24043C6.22436 10.7554 6.2726 10.768 12.0534 10.768H17.0106V12.2249C17.0106 13.7373 17.2628 14.298 17.9431 14.298C18.3754 14.298 24.8428 7.84253 24.9879 7.26635C25.0876 6.8702 24.6198 6.31971 21.6968 3.3931C18.3283 0.0205298 17.8113 -0.34836 17.246 0.217036Z" fill="black"/>
</svg>
