<svg width="22" height="24" viewBox="0 0 22 24" fill="none" xmlns="http://www.w3.org/2000/svg">
<path d="M7.60987 1.51393C2.67412 3.32139 -0.34989 7.87478 0.0324565 12.88C0.380044 16.8773 2.7784 20.3879 6.39331 22.1606C9.48684 23.6553 15.4306 23.1686 16.9947 21.2917C17.7594 20.3532 16.8905 19.8318 15.5001 20.3879C10.5296 22.4387 5.66338 21.1179 3.1955 16.9816C0.484321 12.4282 1.77039 6.83202 6.18476 4.19036C9.38257 2.27862 12.6151 2.24386 15.8825 4.12084C20.0187 6.44967 21.6177 11.9763 19.4279 16.2516C19.0107 17.0511 18.7674 17.9201 18.8717 18.1981C19.2541 19.1714 20.123 18.65 21.0615 16.8425C21.861 15.2784 22 14.618 22 12.0806C22 8.60472 21.1658 6.51919 18.9065 4.25987C16.0562 1.40965 11.19 0.227856 7.60987 1.51393Z" fill="black"/>
<path d="M6.35853 8.32663C5.80239 9.1956 7.36654 9.64746 11.0857 9.64746C14.8049 9.64746 16.3691 9.1956 15.8129 8.32663C15.4653 7.77049 6.70612 7.77049 6.35853 8.32663Z" fill="black"/>
<path d="M6.74087 11.4893C5.45479 12.4626 6.49755 12.7754 11.0857 12.7754C15.6739 12.7754 16.7166 12.4626 15.4306 11.4893C14.5268 10.8637 7.64459 10.8637 6.74087 11.4893Z" fill="black"/>
<path d="M6.35853 15.2788C5.80239 16.1477 7.36654 16.5996 11.0857 16.5996C14.8049 16.5996 16.3691 16.1477 15.8129 15.2788C15.4653 14.7226 6.70612 14.7226 6.35853 15.2788Z" fill="black"/>
</svg>
