<svg width="35" height="36" viewBox="0 0 35 36" fill="none" xmlns="http://www.w3.org/2000/svg">
<path fill-rule="evenodd" clip-rule="evenodd" d="M15.3118 0.186995C8.24093 1.08562 2.47883 6.07081 0.465872 13.0306C0.0705336 14.3975 -0.00303244 15.1488 9.35851e-05 17.7803C0.00447003 21.4234 0.257053 22.5965 1.6646 25.5145C3.75987 29.8582 7.3546 33.0293 11.9017 34.5454C20.3487 37.362 29.4756 33.5161 33.3355 25.5145C34.743 22.5965 34.9956 21.4234 35 17.7803C35.0043 14.2229 34.6559 12.5934 33.3159 9.90457C30.5891 4.43319 25.6283 0.945579 19.4853 0.181577C17.5305 -0.0616283 17.2643 -0.0612117 15.3118 0.186995ZM12.1858 8.72627C12.4723 8.93321 13.7811 10.1849 15.0942 11.508L17.4817 13.9134L20.3043 11.1398C23.1896 8.30446 23.7615 7.94518 24.9193 8.23944C26.2296 8.57247 26.9823 9.57988 26.9823 11.0004C26.9823 11.8029 26.8329 12.0055 24.1731 14.8141L21.3638 17.7803L23.8315 20.2811C25.1888 21.6566 26.453 23.0139 26.6407 23.2973C27.3749 24.405 26.8946 26.3487 25.7388 26.9464C25.0202 27.318 23.8088 27.358 23.1652 27.0317C22.9149 26.9045 21.5364 25.6385 20.1019 24.218L17.4938 21.6353L14.9961 24.1509C12.2762 26.8902 11.7527 27.2626 10.6228 27.2626C9.05662 27.2626 8.01774 26.2047 8.01774 24.61C8.01774 23.5609 8.25844 23.2302 11.1686 20.2811L13.6363 17.7803L10.827 14.8141C8.16716 12.0055 8.01774 11.8029 8.01774 11.0004C8.01774 8.65437 10.3356 7.38979 12.1858 8.72627Z" fill="#F3BF70"/>
</svg>
