<svg width="45" height="49" viewBox="0 0 45 49" fill="none" xmlns="http://www.w3.org/2000/svg">
<path fill-rule="evenodd" clip-rule="evenodd" d="M2.93708 0.0316122C1.79382 0.219653 0.553971 1.3296 0.134016 2.54097C-0.106071 3.23363 -0.0183358 4.16812 0.355158 4.89649C0.823209 5.80925 1.58333 6.45128 2.59877 6.79165C3.0569 6.9452 3.96244 6.93627 4.49291 6.77296C5.55125 6.44706 6.53647 5.45712 6.89823 4.35605C7.04788 3.90056 7.05763 3.08906 6.91898 2.62736C6.6454 1.71616 5.84863 0.793202 4.94827 0.344477C4.39491 0.0687103 3.52985 -0.065874 2.93708 0.0316122ZM40.4538 0.15078C39.9985 0.305549 39.546 0.598396 39.1118 1.01923C38.3573 1.75043 38.0111 2.42124 37.9658 3.23939C37.8441 5.43411 40.0187 7.31047 42.1448 6.84533C43.0259 6.65252 43.7399 6.16231 44.371 5.31682C44.5418 5.08808 44.7532 4.81897 44.8409 4.71877C44.9909 4.5473 45.0002 4.50666 45 4.0256C44.9998 3.52276 44.9046 2.79389 44.7802 2.34145C44.6483 1.862 43.9432 1.02671 43.2385 0.515161C42.9827 0.329505 42.8091 0.255642 42.4139 0.164366C41.7671 0.0150318 40.8714 0.00882118 40.4538 0.15078ZM4.08068 2.39873C4.48383 2.56836 4.68501 2.93967 4.68501 3.51416C4.68501 3.97398 4.51518 4.29594 4.1736 4.4837C3.9687 4.59638 3.84781 4.62078 3.50093 4.61962C3.02617 4.61801 2.81196 4.53527 2.57949 4.2635C2.32119 3.96161 2.24264 3.40015 2.39855 2.97028C2.56099 2.52222 2.88836 2.32841 3.48864 2.32481C3.71756 2.32348 3.97952 2.35614 4.08068 2.39873ZM42.1268 2.45008C42.478 2.63268 42.6325 2.94034 42.6308 3.454C42.6286 4.14965 42.3759 4.48342 41.7591 4.60525C41.1905 4.71755 40.6197 4.50549 40.4083 4.1034C40.2102 3.7266 40.2547 3.03472 40.4987 2.69767C40.7729 2.31899 41.6255 2.18934 42.1268 2.45008ZM3.96757 8.22499C3.38241 8.35625 2.85521 8.6679 2.31685 9.20074C1.51629 9.99316 1.19321 10.6692 1.19061 11.5575C1.18887 12.1492 1.28494 12.5516 1.553 13.075C2.17464 14.289 3.41387 15.073 4.71546 15.0757C5.6064 15.0775 6.39708 14.7319 7.11402 14.0271C7.49805 13.6496 7.64657 13.4544 7.83462 13.0802C8.16729 12.4183 8.28197 11.8407 8.19599 11.2604C7.99988 9.93738 6.97176 8.7442 5.65759 8.31444C5.19383 8.16278 4.42626 8.12213 3.96757 8.22499ZM39.5457 8.22516C38.3912 8.48402 37.0993 9.76509 36.8289 10.9191C36.7434 11.2839 36.7557 11.9564 36.8548 12.3338C37.1345 13.3995 37.8674 14.2706 38.8825 14.7437C39.8664 15.2023 40.7721 15.1941 41.7581 14.7178C42.9278 14.1526 43.8118 12.8398 43.8153 11.6625C43.8195 10.2339 42.6721 8.7473 41.2262 8.30795C40.743 8.16111 39.9956 8.12429 39.5457 8.22516ZM5.27705 10.5787C5.70265 10.7719 5.87 11.0783 5.86785 11.6606C5.86554 12.286 5.59907 12.6313 5.02507 12.7523C4.45316 12.8729 3.89517 12.6858 3.67431 12.2994C3.43851 11.8868 3.4715 11.1658 3.74158 10.8281C4.01386 10.4877 4.79643 10.3606 5.27705 10.5787ZM40.777 10.5369C41.0222 10.6175 41.2713 10.8406 41.3703 11.0683C41.413 11.1664 41.4474 11.416 41.4467 11.6228C41.4453 12.0553 41.318 12.3882 41.0851 12.5684C40.7764 12.8073 40.0197 12.8556 39.637 12.6609C39.2323 12.4551 39.0236 11.9068 39.1316 11.3327C39.2047 10.9435 39.3687 10.7125 39.6663 10.5796C39.9313 10.4612 40.4823 10.4401 40.777 10.5369ZM7.64522 15.19C6.51188 15.3614 5.14038 16.6433 4.82783 17.8234C4.49561 19.0778 5.07057 20.5207 6.25116 21.395C6.81298 21.8111 7.39589 22.018 8.0963 22.0498C8.74613 22.0793 9.17692 21.992 9.72695 21.7194C10.9345 21.1208 11.787 19.8293 11.7877 18.5978C11.7883 17.4108 10.8749 16.0686 9.67998 15.501C9.03601 15.195 8.32798 15.0868 7.64522 15.19ZM36.0914 15.1906C35.3706 15.3127 34.4959 15.9059 33.9109 16.6695C33.4414 17.2822 33.2612 17.7384 33.2279 18.3981C33.1948 19.0539 33.2703 19.4036 33.5824 20.0396C34.1635 21.2237 35.2918 21.9884 36.5499 22.0508C37.2063 22.0834 37.5402 22.0161 38.1495 21.7282C38.9036 21.3719 39.4984 20.7933 39.8866 20.0384C40.5296 18.788 40.2926 17.415 39.2395 16.2899C38.8136 15.8349 38.12 15.4172 37.5372 15.2647C37.1429 15.1616 36.4674 15.127 36.0914 15.1906ZM8.8293 17.5658C9.26905 17.7654 9.42134 18.0359 9.42134 18.6174C9.42134 19.4568 8.89555 19.8818 8.00597 19.7615C7.30561 19.6668 6.94176 19.0599 7.10934 18.2661C7.18472 17.909 7.44094 17.6091 7.74423 17.5229C8.05863 17.4337 8.58386 17.4544 8.8293 17.5658ZM37.2612 17.5463C37.6994 17.7264 37.8925 18.0561 37.8945 18.6276C37.8967 19.2953 37.5709 19.6903 36.9554 19.7659C36.0701 19.8747 35.5276 19.4285 35.5276 18.5919C35.5276 18.1116 35.7977 17.675 36.176 17.544C36.4768 17.4398 37.0047 17.4409 37.2612 17.5463ZM30.2704 21.0087C29.1246 21.2118 28.0788 22.0659 27.5084 23.2646C27.3609 23.5747 27.3297 23.7162 27.3071 24.1776C27.2728 24.8797 27.3567 25.3005 27.6488 25.8898C27.8362 26.2679 27.9778 26.4548 28.3642 26.8341C29.1146 27.5707 29.8739 27.9062 30.7912 27.9062C31.6446 27.9062 32.4248 27.5815 33.1315 26.9325C33.8787 26.2461 34.2284 25.539 34.2749 24.62C34.3076 23.9738 34.2328 23.6178 33.9365 23.0083C33.5127 22.1366 32.5332 21.3337 31.6088 21.1004C31.1645 20.9883 30.6027 20.9498 30.2704 21.0087ZM13.4529 21.0466C12.585 21.2295 11.4733 22.1453 11.0071 23.0613C10.728 23.6099 10.6398 24.0161 10.676 24.5867C10.7454 25.6775 11.4019 26.7344 12.4097 27.3776C12.9063 27.6944 13.3894 27.8403 14.0479 27.8721C15.1874 27.9272 16.2198 27.4361 16.9325 26.4998C17.0834 26.3016 17.3201 25.9967 17.4584 25.8225L17.7099 25.5055L17.7097 24.9629C17.7096 24.6645 17.6711 24.1833 17.6243 23.8935C17.4979 23.1114 17.3058 22.7729 16.5837 22.0594C15.9058 21.3895 15.5993 21.2122 14.9109 21.0915C14.4936 21.0184 13.7024 20.994 13.4529 21.0466ZM14.7092 23.3697C15.165 23.5569 15.353 23.8719 15.353 24.4481C15.353 24.6269 15.3246 24.8581 15.2897 24.9619C15.0029 25.8166 13.4169 25.8333 13.0901 24.9851C13.057 24.8993 13.03 24.6487 13.03 24.4284C13.03 23.8364 13.2128 23.5334 13.6764 23.3571C13.9237 23.263 14.4658 23.2696 14.7092 23.3697ZM31.2678 23.345C31.7088 23.4654 31.9747 23.8803 31.9747 24.4481C31.9747 25.2526 31.4991 25.6648 30.6477 25.5983C29.999 25.5477 29.6735 25.2313 29.6227 24.6022C29.5545 23.7586 29.9586 23.2924 30.763 23.2863C30.9181 23.2851 31.1453 23.3116 31.2678 23.345ZM22.1361 24.4807C22.0741 24.4938 21.8838 24.5319 21.7133 24.5653C20.7316 24.7575 19.5486 25.8433 19.1278 26.9383C19.0109 27.2424 18.9872 27.4018 18.9864 27.8861C18.9857 28.3776 19.0095 28.5365 19.1392 28.9055C19.7284 30.581 21.4901 31.6814 23.0665 31.3584C23.7397 31.2205 24.3672 30.8778 24.9045 30.3547C25.6863 29.5936 26.0426 28.743 25.9841 27.777C25.8813 26.078 24.3991 24.6179 22.6436 24.4863C22.4265 24.47 22.1982 24.4675 22.1361 24.4807ZM23.1511 26.9215C23.4971 27.097 23.6585 27.4216 23.6585 27.9416C23.6585 28.6844 23.3167 29.0504 22.5798 29.0965C21.7574 29.148 21.3186 28.7462 21.3186 27.9416C21.3186 27.1406 21.7325 26.7568 22.559 26.7916C22.7926 26.8014 23.0073 26.8486 23.1511 26.9215ZM17.3195 32.7154C15.9632 32.977 14.5322 34.004 13.7488 35.2778C12.431 37.4203 12.9181 39.6334 15.3681 42.6366C16.3846 43.8825 19.0336 46.431 20.9464 48.0032C21.6101 48.5486 22.2323 48.9028 22.5273 48.9028C22.8395 48.9028 23.2681 48.6358 24.1519 47.8907C28.5551 44.1786 30.8358 41.575 31.6279 39.3562C31.8562 38.7168 31.9304 38.2849 31.9268 37.6181C31.9182 36.0244 30.9653 34.4568 29.385 33.4367C28.3611 32.7757 27.4191 32.5775 25.8853 32.7002C25.2629 32.75 25.0859 32.7869 24.6713 32.9531C24.067 33.1954 23.4631 33.5626 22.9139 34.0217L22.4911 34.375L22.2107 34.1389C21.2919 33.3655 20.4258 32.9432 19.3445 32.7414C18.8467 32.6486 17.7395 32.6343 17.3195 32.7154ZM19.6455 35.1399C20.5812 35.4048 21.0544 35.9818 21.2915 37.1468C21.3443 37.406 21.4256 37.693 21.4724 37.7845C21.8412 38.5071 22.7493 38.6363 23.3235 38.0479C23.5398 37.8262 23.6298 37.5831 23.6908 37.0554C23.758 36.4739 23.9088 36.1482 24.2813 35.7799C24.8248 35.2426 25.589 34.9841 26.6337 34.9841C27.6537 34.9841 28.3526 35.2376 28.8711 35.7954C29.336 36.2958 29.549 36.8647 29.5501 37.6101C29.5521 38.8828 28.7468 40.2132 26.6664 42.3745C25.4471 43.6412 22.9709 45.9027 22.5527 46.1316C22.4831 46.1697 22.3174 46.0677 21.8478 45.6983C21.1749 45.1687 18.6189 42.7207 17.6377 41.6662C16.2843 40.2116 15.5215 38.8691 15.4204 37.7641C15.3326 36.8034 15.9207 35.6978 16.7299 35.3025C16.9708 35.1848 17.1286 35.1344 17.6253 35.0164C17.9041 34.9502 19.2705 35.0337 19.6455 35.1399Z" fill="#F3BF70"/>
</svg>
