<svg width="45" height="50" viewBox="0 0 45 50" fill="none" xmlns="http://www.w3.org/2000/svg">
<path fill-rule="evenodd" clip-rule="evenodd" d="M20.5958 0.0532022C20.3353 0.0986646 19.4829 0.229937 18.7015 0.34473C10.907 1.48925 3.7834 7.60925 1.16438 15.4112C-0.597665 20.66 -0.357093 26.1721 1.86735 31.5151C3.10696 34.4927 6.03436 38.2205 8.81155 40.3574C10.252 41.4657 12.0956 42.5741 12.2945 42.4511C12.3804 42.3981 12.4504 42.0632 12.4504 41.7069C12.4504 41.3505 12.6378 40.4883 12.8668 39.7908C13.2648 38.5781 13.2682 38.5137 12.9416 38.3188C11.8392 37.6609 10.0712 36.1659 8.92653 34.9237C6.84833 32.6682 5.32212 29.8055 4.55342 26.7215C4.07682 24.809 4.08743 20.2209 4.57274 18.324C6.35714 11.3512 11.354 6.3543 18.3268 4.5699C20.471 4.02132 24.853 4.06261 27.0363 4.65192C33.4378 6.38006 38.2635 11.0797 40.2363 17.5076C40.7031 19.0283 40.7482 19.4507 40.7586 22.3925C40.7682 25.1885 40.7122 25.8232 40.3333 27.2102C39.8179 29.0959 38.909 31.13 37.8986 32.6579C36.8924 34.1798 34.5721 36.5715 33.098 37.606C32.4208 38.0812 31.8366 38.4913 31.7998 38.5173C31.7631 38.543 31.9065 39.1024 32.1185 39.7603C32.3304 40.4182 32.5604 41.3219 32.6293 41.769L32.7549 42.5814L33.6369 42.0734C35.3948 41.0607 37.0115 39.808 38.4966 38.3083C48.4399 28.2676 46.7545 11.684 34.9922 3.82526C32.3823 2.0814 29.9546 1.06455 26.8469 0.413303C25.4429 0.119123 21.513 -0.107242 20.5958 0.0532022ZM20.6526 37.2241C17.9811 38.1805 16.4284 40.3148 16.4284 43.0302C16.4284 45.374 17.564 47.276 19.6487 48.4237C20.789 49.0517 20.9989 49.1017 22.4901 49.1017C23.7784 49.1017 24.2735 49.0163 24.967 48.6745C26.3553 47.9903 27.3458 47.0161 27.9965 45.6941C28.508 44.6553 28.5938 44.2738 28.5938 43.04C28.5938 41.8063 28.508 41.4248 27.9965 40.386C26.6419 37.6344 23.4023 36.2396 20.6526 37.2241ZM23.8604 41.6038C24.3915 42.0783 24.4791 42.2816 24.4791 43.04C24.4791 43.7985 24.3915 44.0018 23.8604 44.4763C22.2332 45.9303 19.8387 44.292 20.6729 42.2954C21.234 40.9524 22.7606 40.6213 23.8604 41.6038Z" fill="#F3BF70"/>
</svg>
