<svg width="50" height="47" viewBox="0 0 50 47" fill="none" xmlns="http://www.w3.org/2000/svg">
<path fill-rule="evenodd" clip-rule="evenodd" d="M0.905514 0.201046C0.107489 0.536412 -0.146205 1.23162 0.078114 2.4685C0.830296 6.61707 5.33137 10.0063 12.5494 11.8588C14.9718 12.4803 18.8121 13.1392 18.9817 12.9623C19.03 12.9118 18.9085 12.159 18.7113 11.2893L18.3532 9.70792L16.3415 9.35119C10.2172 8.26542 5.05698 5.73404 3.75157 3.17528C3.511 2.70372 3.31405 2.07683 3.31405 1.78263C3.31405 1.14216 2.59993 0.172561 2.01576 0.0198989C1.78543 -0.0404092 1.28561 0.0410401 0.905514 0.201046ZM47.9002 0.0893311C47.2856 0.316543 46.7092 1.14572 46.7092 1.80199C46.7092 2.63229 45.9078 3.9693 44.8808 4.85256C42.7028 6.72589 38.9292 8.30303 34.4733 9.20253C33.1901 9.46156 32.0913 9.72238 32.0314 9.78247C31.9713 9.84255 31.7588 10.5869 31.5592 11.4368C31.133 13.2501 30.9349 13.1493 33.9132 12.6341C43.327 11.0053 49.2904 7.15005 49.9607 2.25975C50.0404 1.67848 49.9959 1.06205 49.855 0.799008C49.5499 0.228641 48.5271 -0.142777 47.9002 0.0893311ZM22.002 8.49085L21.5022 8.89543L22.3334 12.2184C22.7907 14.0459 23.2629 15.7249 23.3829 15.9495C23.5028 16.174 23.9434 16.5007 24.3618 16.6756C25.0214 16.9511 25.2244 16.9511 25.884 16.6756C26.3023 16.5007 26.7488 16.1633 26.876 15.9257C27.0031 15.6882 27.4782 14.0116 27.9318 12.1999L28.7563 8.90566L28.2502 8.49597C27.8225 8.1497 27.3374 8.08605 25.1229 8.08605C22.9204 8.08605 22.4219 8.15081 22.002 8.49085ZM16.1684 18.5325C10.0116 20.5006 7.34179 27.9599 10.8472 33.3994C11.2222 33.9811 14.212 37.1267 17.4914 40.3898C23.779 46.6461 24.0847 46.8762 25.7974 46.6376C26.4563 46.5459 27.4925 45.6128 32.869 40.271C38.6159 34.5611 39.2405 33.8665 39.9903 32.3544C40.8003 30.7203 40.8119 30.6591 40.8119 28.0149C40.8119 25.4554 40.7792 25.2636 40.0949 23.8191C39.1424 21.808 37.3016 19.9721 35.2484 18.9849C32.5076 17.6675 28.7169 17.8164 26.0794 19.345L25.144 19.8871L24.4103 19.4351C22.2975 18.1339 18.6608 17.7356 16.1684 18.5325ZM23.2349 28.111L16.5649 34.7838L15.6105 33.8472L14.656 32.9105L19.3618 28.2009C23.9942 23.5648 24.0801 23.4929 24.8734 23.5986C25.5388 23.6872 25.8346 23.5808 26.5694 22.9882C27.5147 22.226 29.0202 21.4513 29.5723 21.4433C29.755 21.4406 26.9032 24.4411 23.2349 28.111ZM35.8473 23.3856C37.2203 24.817 37.6763 25.9686 37.6759 28.0033C37.6752 30.7327 37.4131 31.1024 30.8141 37.6813L25.1247 43.3536L22.3409 40.5765L19.5572 37.7995L27.1791 30.1753C31.3711 25.982 34.8563 22.5511 34.924 22.5511C34.9914 22.5511 35.4071 22.9267 35.8473 23.3856Z" fill="#F3BF70"/>
</svg>
