<svg width="51" height="45" viewBox="0 0 51 45" fill="none" xmlns="http://www.w3.org/2000/svg">
<path fill-rule="evenodd" clip-rule="evenodd" d="M32.5129 0.0142955C28.3333 0.474135 24.0927 2.00729 19.4147 4.74978C15.4069 7.09946 11.2043 10.5113 7.99771 14.0185C3.50096 18.9368 0.69412 24.0694 0.0815096 28.4936C-0.0575225 29.4975 -0.0131805 31.2038 0.172558 31.9966C0.72613 34.3599 2.22271 36.9186 4.33132 39.1068C6.12921 40.9725 7.65333 42.0662 9.9294 43.1238C13.9008 44.9692 18.5849 45.4712 23.2384 44.5501C28.809 43.4475 34.3879 40.4278 40.0236 35.4649C46.5938 29.679 50.1485 24.0886 50.9206 18.3282C51.0389 17.4452 51.022 15.2909 50.89 14.4322C50.6593 12.9307 50.3002 11.6924 49.7194 10.395C48.7095 8.13935 47.3856 6.38311 45.4402 4.71828C42.9113 2.55403 40.0641 1.03132 37.3282 0.379841C35.9188 0.0442212 35.7024 0.0184174 34.1741 0.00362397C33.3834 -0.00399862 32.6359 0.00080074 32.5129 0.0142955ZM36.1228 2.31299C36.4743 2.39367 37.0333 2.57808 37.3652 2.7228C37.8614 2.93911 38.0672 3.07231 38.5225 3.47201C38.9862 3.87912 39.1247 4.0454 39.3739 4.49457C39.8321 5.32075 39.9941 5.96437 40.035 7.1221C40.0653 7.9786 40.0058 8.85667 39.8794 9.42102L39.8446 9.57629H38.7805C33.6842 9.57629 27.4932 11.9277 22.0687 15.9237C21.0545 16.6709 18.9831 18.5028 18.0731 19.4574C16.2043 21.4179 14.7348 23.3842 13.5371 25.5273C12.804 26.8388 12.4481 27.5906 12.0039 28.7663C11.2392 30.7897 10.8617 32.7878 10.9342 34.4284L10.9682 35.1988L10.5113 35.2667C10.2599 35.304 9.47927 35.3475 8.77645 35.3635C7.75492 35.3867 7.38325 35.3738 6.92354 35.2993C4.43719 34.8963 3.05402 33.7092 2.56837 31.5616C2.39937 30.8142 2.4156 29.1583 2.6014 28.1881C3.39771 24.0307 6.11216 19.3699 10.3577 14.8706C15.8824 9.01561 23.2951 4.34155 29.6272 2.72031C31.4135 2.26296 32.5392 2.12203 34.206 2.14704C35.3322 2.16398 35.5597 2.18363 36.1228 2.31299ZM28.9659 4.31383C27.6849 4.70529 26.9792 5.56376 25.9168 8.02355C25.6887 8.55148 25.3655 9.34795 25.1985 9.79345C24.873 10.6619 24.6784 10.9374 24.2896 11.081C23.8677 11.2368 23.1965 11.1184 22.9153 10.8385C22.6282 10.5527 22.5288 10.0253 22.6957 9.67239C22.8159 9.41825 23.1773 9.15451 23.559 9.04249C24.0202 8.90709 24.2706 8.64024 24.2706 8.28401C24.2706 7.94455 24.078 7.67008 23.7356 7.52187C23.5181 7.42769 23.4506 7.42322 23.1474 7.48324C22.633 7.58494 22.0831 7.85218 21.6966 8.18836C21.425 8.42449 21.2472 8.66966 20.8679 9.33062C20.2184 10.4623 19.7043 11.8122 19.0971 13.9805C18.8499 14.8629 18.814 14.9421 18.5638 15.1553C17.8471 15.7662 16.6341 15.3824 16.553 14.5191C16.5375 14.354 16.5585 14.1288 16.5996 14.0187C16.6956 13.7619 17.1003 13.4387 17.4221 13.3622C17.939 13.2392 18.237 12.8923 18.1839 12.4756C18.1414 12.143 17.9883 11.9583 17.6431 11.8234C17.3619 11.7134 17.3383 11.7128 16.9571 11.804C15.8721 12.0635 15.1389 12.7499 14.4716 14.131C13.8281 15.4626 13.5304 16.7646 13.3439 19.0622C13.3048 19.5435 13.2447 20.033 13.2103 20.1498C13.071 20.6233 12.48 20.9686 11.9068 20.9115C10.8108 20.8023 10.4754 19.5396 11.3886 18.9601C11.9778 18.5861 12.0376 17.9613 11.5187 17.6006C11.093 17.3047 10.548 17.4187 9.96071 17.9265C9.54042 18.2899 9.23277 18.7814 9.09975 19.3022C8.84347 20.305 8.80916 22.1769 9.00557 24.4419C9.14728 26.0771 9.14051 26.4405 8.9618 26.7732C8.79338 27.0869 8.36389 27.3059 7.91734 27.3058C7.48382 27.3057 7.19246 27.1836 6.92807 26.8913C6.74936 26.6936 6.73186 26.6375 6.73186 26.2619C6.73186 25.8796 6.74732 25.8324 6.94303 25.6172C7.3883 25.1276 7.42683 24.7524 7.06889 24.3922C6.39463 23.7135 5.32147 24.3429 4.94489 25.6379C4.47303 27.2604 5.96648 28.9393 7.88449 28.9426C9.04416 28.9447 10.1316 28.3368 10.6299 27.408C10.8023 27.0865 10.8681 26.8678 10.9275 26.4182C11.0041 25.8393 10.9888 25.4668 10.7887 23.0462C10.7555 22.6443 10.7376 22.3073 10.7489 22.2973C10.7602 22.2873 10.8709 22.3166 10.9948 22.3623C12.203 22.8084 13.8035 22.3634 14.5516 21.3733C14.8811 20.9372 15.0445 20.453 15.1315 19.655C15.3685 17.4798 15.5375 16.3519 15.6265 16.3519C15.6441 16.3519 15.768 16.4285 15.9018 16.5222C16.2589 16.7722 16.8082 16.9767 17.3047 17.0446C18.5321 17.2125 19.8912 16.5876 20.4282 15.6084C20.5361 15.4118 20.7274 14.8825 20.8534 14.4322C21.0805 13.6208 21.4541 12.4545 21.5829 12.1552L21.6498 11.9998L21.9858 12.2239C22.6521 12.6682 23.4816 12.8615 24.2439 12.7498C24.7483 12.676 25.3854 12.4225 25.7744 12.1407C26.1275 11.885 26.5249 11.367 26.6691 10.9745C26.9316 10.2599 27.5487 8.75305 27.598 8.70608C27.6295 8.6761 27.7746 8.75435 27.9452 8.89325C28.5596 9.39375 29.5118 9.64337 30.3372 9.52034C30.8592 9.44253 31.5425 9.16428 31.9151 8.87784C32.6024 8.34945 33.0791 7.28534 32.8243 6.8482C32.5252 6.33494 31.8758 6.21801 31.3953 6.59089C31.2358 6.71466 31.1457 6.85401 31.0689 7.09579C30.987 7.35366 30.9006 7.48053 30.6893 7.65258C29.7609 8.40885 28.3201 7.54406 28.7709 6.501C28.9132 6.17171 29.2334 5.93112 29.6832 5.81554C30.4284 5.62412 30.7079 5.05345 30.3156 4.52433C30.094 4.22546 29.5385 4.13885 28.9659 4.31383ZM42.9275 5.60109C43.5641 6.07967 44.6223 7.0247 45.095 7.53677C46.5674 9.13164 47.7309 11.2758 48.2544 13.3594C48.7422 15.3007 48.7581 17.5511 48.2979 19.5278C47.3521 23.5897 44.8833 27.5441 40.657 31.7665C39.5943 32.8282 37.2056 34.9399 36.027 35.8594C30.6478 40.0565 25.4823 42.3435 20.3893 42.783C19.1807 42.8873 16.9595 42.8203 15.8367 42.6456C12.8316 42.1781 10.1064 41.0297 7.8806 39.293C7.25872 38.8078 5.80943 37.388 5.87799 37.3312C5.89076 37.3206 6.08813 37.3463 6.31655 37.3883C7.10308 37.5332 8.36497 37.5894 9.39168 37.5253C11.0819 37.4197 12.6513 37.1286 14.5588 36.5667C25.1299 33.4527 36.6747 23.6044 40.9034 14.0934C42.3266 10.8924 42.8349 7.95726 42.3622 5.66952C42.2919 5.32955 42.2747 5.13571 42.3167 5.15757C42.354 5.17693 42.6288 5.37647 42.9275 5.60109ZM39.1918 11.8757C39.004 12.5369 38.2024 14.2625 37.4926 15.5332C33.4651 22.7441 24.9023 30.1495 16.7312 33.4883C15.6512 33.9297 13.6168 34.6461 13.4438 34.6461C13.3668 34.6461 13.3485 34.0003 13.4066 33.3333C13.7113 29.8336 15.6545 25.793 18.8253 22.0664C20.504 20.0935 22.9064 17.9789 25.1651 16.4862C29.5529 13.5863 34.671 11.757 38.4778 11.7277L39.2355 11.7219L39.1918 11.8757ZM40.144 19.3114C39.6958 19.4839 39.1498 20.2639 38.9859 20.9661C38.8237 21.6606 38.85 23.2046 39.0531 24.9062C39.3235 27.1724 39.2808 27.7087 38.7984 28.1069C38.5468 28.3145 38.3245 28.3787 37.8558 28.3787C37.5026 28.3787 37.4376 28.3608 37.2927 28.2234C37.0188 27.9639 36.9589 27.8092 36.9593 27.3623C36.9596 26.8652 37.1023 26.4446 37.3726 26.1441C37.7265 25.7506 37.5799 25.119 37.0865 24.9121C36.6108 24.7127 36.3116 24.8088 35.67 25.3674C35.0131 25.9394 34.5755 26.6164 34.326 27.447C34.1435 28.0543 34.1573 29.5133 34.3527 30.2642C34.5106 30.8714 34.5547 31.47 34.4729 31.8966C34.4329 32.1045 34.3572 32.2266 34.1487 32.4189C33.8838 32.6632 33.8659 32.6699 33.4797 32.6699C32.9777 32.6699 32.6388 32.5245 32.4011 32.2071C32.2572 32.0149 32.2253 31.9094 32.2253 31.6253C32.2253 31.2636 32.2216 31.2707 32.7383 30.643C33.0211 30.2994 32.8954 29.7908 32.4702 29.5586C32.292 29.4612 32.1804 29.4431 31.8893 29.4645C31.5508 29.4893 31.5102 29.5089 31.2193 29.7885C30.4832 30.4959 30.0944 31.7016 29.8595 34.0052C29.7339 35.2358 29.6993 35.3617 29.4202 35.6008C28.8169 36.1175 27.7858 35.949 27.4505 35.279C27.2249 34.8285 27.3255 34.4856 27.8527 33.9072C28.2804 33.438 27.8337 32.6699 27.1332 32.6699C26.7818 32.6699 26.5801 32.7796 26.125 33.2183C25.0277 34.276 24.2417 35.7957 23.785 37.7425C23.5553 38.7218 23.3664 38.9655 22.7265 39.1079C21.7998 39.3142 20.9884 38.4515 21.3633 37.6587C21.4158 37.5474 21.5436 37.3711 21.6473 37.2668C22.2024 36.7081 21.8515 35.8892 21.0568 35.8886C20.7385 35.8883 20.5204 35.9934 20.1981 36.3024C19.5015 36.9702 19.2419 38.0512 19.5774 38.8869C19.775 39.3793 19.5323 39.9954 19.0633 40.192C18.9227 40.251 18.7358 40.3295 18.648 40.3666C18.5601 40.4037 18.4217 40.5523 18.3405 40.6969C18.1428 41.0487 18.1963 41.316 18.5222 41.6053C18.7388 41.7975 18.7924 41.817 19.1037 41.817C19.7577 41.8169 20.6248 41.3262 20.9552 40.7693C21.0754 40.5666 21.135 40.518 21.2357 40.5403C21.3059 40.5559 21.5207 40.6082 21.7128 40.6565C22.7098 40.9069 23.8284 40.6359 24.5956 39.9579C25.0822 39.5278 25.3333 39.0702 25.5249 38.2645C25.6105 37.9048 25.77 37.3508 25.8796 37.0335L26.0787 36.4564L26.458 36.7667C27.0706 37.2679 27.7811 37.5258 28.5496 37.5258C29.7203 37.5258 30.7805 36.9677 31.2678 36.0949C31.4619 35.7473 31.5066 35.5879 31.5871 34.9567C31.6386 34.553 31.6958 34.1446 31.7142 34.0491L31.7477 33.8756L32.1143 34.0323C32.3159 34.1185 32.5838 34.2045 32.7095 34.2233L32.9381 34.2575L32.9101 34.5555C32.8532 35.1616 33.3885 35.5788 34.0291 35.4278C34.3356 35.3556 34.9357 34.8081 35.3003 34.268C36.2201 32.9054 36.509 31.5479 36.1906 30.0837C36.1278 29.7948 36.0918 29.5448 36.1106 29.5282C36.1294 29.5115 36.2549 29.5644 36.3894 29.6456C36.7317 29.8522 37.3748 30.0163 37.8387 30.0153C39.1073 30.0126 40.2008 29.432 40.7083 28.4916C41.1268 27.7164 41.1572 27.176 40.9061 24.973C40.8438 24.4262 40.8106 23.9631 40.8324 23.9439C40.8541 23.9247 40.9391 23.9408 41.0212 23.9797C41.1033 24.0186 41.4623 24.062 41.8191 24.0761C42.8376 24.1164 43.5612 23.8724 44.2113 23.2696C44.778 22.7442 44.9985 22.2095 44.9568 21.4619C44.9081 20.586 44.5124 19.9199 44.0306 19.9029C43.5004 19.8841 43.2371 20.0007 43.0539 20.3351C42.8969 20.6218 42.8973 20.6947 43.0591 21.1508C43.2188 21.6012 43.1798 21.8769 42.9191 22.1393C42.7244 22.3353 42.2752 22.5065 41.9557 22.5065C41.5257 22.5065 41.0727 22.234 40.8759 21.8571C40.6591 21.4421 40.7371 21.1465 41.2238 20.5387C41.4564 20.2482 41.5013 19.9434 41.3494 19.6844C41.1185 19.2902 40.6087 19.1325 40.144 19.3114Z" fill="#F3BD6A"/>
</svg>
