<svg width="18" height="17" viewBox="0 0 18 17" fill="none" xmlns="http://www.w3.org/2000/svg">
<path fill-rule="evenodd" clip-rule="evenodd" d="M3.40408 0.0534355C3.27043 0.0812162 3.08125 0.148791 2.98365 0.203527C2.73133 0.345096 2.43314 0.672909 2.32631 0.926164C2.23631 1.13951 2.23529 1.15881 2.23529 2.6643V4.18672L2.38322 4.47324C2.55157 4.79929 2.76859 5.00588 3.11278 5.16776L3.33333 5.27149H9H14.6667L14.8824 5.17343C15.2166 5.02142 15.4473 4.8015 15.6168 4.47324L15.7647 4.18672V2.6643C15.7647 1.15618 15.7638 1.13989 15.6731 0.924737C15.5553 0.645316 15.2179 0.293401 14.9482 0.168613C14.8365 0.116956 14.6304 0.0573397 14.4902 0.0360912C14.3241 0.0109008 12.3916 -0.0016004 8.94118 0.000164052C4.65784 0.00234146 3.60067 0.0125152 3.40408 0.0534355ZM14.5329 1.05857C14.7636 1.20746 14.7635 1.20645 14.7641 2.65484C14.7647 4.09756 14.7618 4.11851 14.5412 4.26169C14.4346 4.33084 14.2698 4.33295 9 4.33295C3.73016 4.33295 3.56537 4.33084 3.45878 4.26169C3.23816 4.11851 3.23526 4.09756 3.23588 2.65484C3.23651 1.20645 3.23635 1.20746 3.46714 1.05857L3.59984 0.972978H9H14.4002L14.5329 1.05857ZM8.80671 6.06778C8.73275 6.10472 8.63569 6.18258 8.59102 6.24085C8.51412 6.34112 8.50875 6.40851 8.4902 7.50885L8.47059 8.67091L8.15686 8.3669C7.80239 8.02339 7.69235 7.95571 7.48839 7.95571C7.20263 7.95571 7 8.15982 7 8.44761C7 8.60762 7.00671 8.61531 7.87114 9.44581C8.45537 10.0071 8.78467 10.2962 8.87114 10.3235C9.1111 10.3993 9.20377 10.3346 10.1289 9.44581C10.9933 8.61531 11 8.60762 11 8.44761C11 8.15956 10.7974 7.95571 10.511 7.95571C10.308 7.95571 10.2396 7.99802 9.85294 8.36266L9.5098 8.68619L9.50973 7.56073C9.50969 6.56344 9.50188 6.42063 9.4411 6.30654C9.30604 6.05291 9.0382 5.95211 8.80671 6.06778ZM1.05882 11.1235C0.636118 11.254 0.294 11.5313 0.107451 11.8948L0 12.104V13.6996V15.2951L0.102353 15.5016C0.322549 15.9458 0.743765 16.2477 1.2549 16.3277C1.56063 16.3756 3.89035 16.3756 4.19608 16.3277C4.70722 16.2477 5.12843 15.9458 5.34863 15.5016L5.45098 15.2951V13.6996V12.104L5.34353 11.8948C5.19698 11.6093 4.91612 11.3465 4.60784 11.2063L4.35294 11.0904L2.78431 11.0827C1.59216 11.0769 1.17804 11.0867 1.05882 11.1235ZM7.33333 11.1235C6.91063 11.254 6.56851 11.5313 6.38196 11.8948L6.27451 12.104V13.6996V15.2951L6.37686 15.5016C6.59706 15.9458 7.01827 16.2477 7.52941 16.3277C7.83514 16.3756 10.1649 16.3756 10.4706 16.3277C10.9817 16.2477 11.4029 15.9458 11.6231 15.5016L11.7255 15.2951V13.6996V12.104L11.618 11.8948C11.4715 11.6093 11.1906 11.3465 10.8824 11.2063L10.6275 11.0904L9.05882 11.0827C7.86667 11.0769 7.45255 11.0867 7.33333 11.1235ZM13.6078 11.1235C13.1851 11.254 12.843 11.5313 12.6565 11.8948L12.549 12.104V13.6996V15.2951L12.6514 15.5016C12.8716 15.9458 13.2928 16.2477 13.8039 16.3277C14.1096 16.3756 16.4394 16.3756 16.7451 16.3277C17.2562 16.2477 17.6775 15.9458 17.8976 15.5016L18 15.2951V13.6996V12.104L17.8925 11.8948C17.746 11.6093 17.4651 11.3465 17.1569 11.2063L16.902 11.0904L15.3333 11.0827C14.1412 11.0769 13.7271 11.0867 13.6078 11.1235ZM4.17569 12.076C4.25075 12.112 4.35224 12.199 4.40118 12.2692C4.48945 12.3956 4.4902 12.4077 4.4902 13.6963C4.4902 14.8844 4.484 15.0071 4.41824 15.1267C4.27698 15.3835 4.24243 15.3888 2.70588 15.3887C1.39831 15.3887 1.32718 15.3851 1.20353 15.3129C0.969647 15.1764 0.960784 15.1174 0.960784 13.6989C0.960784 12.3457 0.965412 12.3074 1.14863 12.1487C1.19165 12.1114 1.27729 12.0665 1.33894 12.0488C1.40055 12.0311 2.03333 12.0152 2.7451 12.0135C3.90314 12.0106 4.05357 12.0172 4.17569 12.076ZM10.4502 12.076C10.5253 12.112 10.6267 12.199 10.6757 12.2692C10.764 12.3956 10.7647 12.4077 10.7647 13.6963C10.7647 14.8844 10.7585 15.0071 10.6927 15.1267C10.5515 15.3835 10.5169 15.3888 8.98039 15.3887C7.67282 15.3887 7.60169 15.3851 7.47804 15.3129C7.24416 15.1764 7.23529 15.1174 7.23529 13.6989C7.23529 12.3457 7.23992 12.3074 7.42314 12.1487C7.46616 12.1114 7.5518 12.0665 7.61345 12.0488C7.67506 12.0311 8.30784 12.0152 9.01961 12.0135C10.1776 12.0106 10.3281 12.0172 10.4502 12.076ZM16.7247 12.076C16.7998 12.112 16.9013 12.199 16.9502 12.2692C17.0385 12.3956 17.0392 12.4077 17.0392 13.6963C17.0392 14.8844 17.033 15.0071 16.9673 15.1267C16.826 15.3835 16.7915 15.3888 15.2549 15.3887C13.9473 15.3887 13.8762 15.3851 13.7525 15.3129C13.5187 15.1764 13.5098 15.1174 13.5098 13.6989C13.5098 12.3457 13.5144 12.3074 13.6976 12.1487C13.7407 12.1114 13.8263 12.0665 13.888 12.0488C13.9496 12.0311 14.5824 12.0152 15.2941 12.0135C16.4522 12.0106 16.6026 12.0172 16.7247 12.076Z" fill="#F7D299"/>
</svg>
