<svg width="45" height="45" viewBox="0 0 45 45" fill="none" xmlns="http://www.w3.org/2000/svg">
<path fill-rule="evenodd" clip-rule="evenodd" d="M1.6581 0.0585006C0.998197 0.274891 0.450142 0.757264 0.196998 1.34445C-0.105035 2.04514 -0.0516627 4.93507 0.301544 7.0085C0.681656 9.2395 1.39282 11.3948 2.42193 13.4345L3.06521 14.7095L3.06538 17.5696L3.06547 20.4297L2.42799 20.4325C1.46228 20.4369 0.76466 20.8538 0.302775 21.7025C-0.212483 22.6491 -0.0608952 23.7409 0.710409 24.6382C1.4541 25.5033 3.09721 26.5534 3.70734 26.5534C4.294 26.5534 5.6458 25.7094 6.50433 24.807C7.16599 24.1115 7.30773 23.8131 7.35504 23.0148C7.38774 22.4639 7.36084 22.2735 7.19641 21.8912C6.7952 20.9586 5.6903 20.2864 4.7667 20.413L4.38439 20.4654L4.3872 18.5547L4.38993 16.6439L4.58425 16.9077C5.67904 18.3939 7.59499 20.2572 9.28637 21.4804L10.0118 22.005V24.5372V27.0694L9.58418 27.0127C8.54804 26.8753 7.40999 27.611 7.06857 28.6389C6.86923 29.2391 6.9219 30.0391 7.19615 30.5766C7.46723 31.108 8.14489 31.8029 8.89756 32.3212C10.307 33.2918 10.6512 33.3404 11.7451 32.7225C12.734 32.164 13.7059 31.2544 14.0506 30.5646C14.5499 29.5652 14.3722 28.5107 13.5689 27.7074C13.0346 27.1731 12.3604 26.9189 11.713 27.0076L11.3307 27.06V24.9441C11.3307 23.7803 11.3604 22.8418 11.3966 22.8584C11.4329 22.875 11.8678 23.0961 12.3629 23.3496C14.9582 24.6787 17.9225 25.4939 20.9368 25.7078L21.7941 25.7685V28.8779C21.7941 30.5881 21.7817 31.9873 21.7666 31.9873C21.7515 31.9873 21.5319 31.8874 21.2788 31.7652C19.8086 31.056 17.9187 31.1739 16.5561 32.0598C14.2566 33.5548 13.4413 36.4206 14.6134 38.8887C15.1724 40.0655 16.6619 41.6183 18.4817 42.9212C20.0361 44.034 21.8902 44.9974 22.4817 44.9996C23.3451 45.0028 26.3127 43.2314 28.081 41.6572C28.4679 41.3129 29.0521 40.7273 29.3793 40.356C30.3542 39.25 31.0432 37.6234 30.7807 37.0475C30.643 36.7452 30.2792 36.6079 29.9628 36.739C29.717 36.8409 29.6576 36.9515 29.3993 37.7898C29.1783 38.507 28.8805 38.9577 28.0525 39.8279C26.7803 41.1646 24.9322 42.5211 23.3028 43.3138L22.4815 43.7134L21.6322 43.2923C19.1178 42.0454 16.4997 39.8064 15.7819 38.2889C14.8363 36.2902 15.7117 33.878 17.7267 32.9303C18.2551 32.6818 18.4087 32.6506 19.1123 32.6488C20.1155 32.6463 20.4575 32.7533 21.3551 33.3507C21.9793 33.766 22.1396 33.8338 22.4975 33.8338C22.8555 33.8338 23.0158 33.766 23.64 33.3507C24.5381 32.753 24.8786 32.6465 25.8892 32.6478C26.6313 32.6485 26.733 32.6714 27.3466 32.9747C27.993 33.2941 28.4942 33.7443 29.1179 34.5656C29.4324 34.9798 29.8573 35.0179 30.1409 34.6573C30.3935 34.3361 30.3701 34.1209 30.0275 33.6129C29.0936 32.2277 27.6951 31.4167 26.0586 31.3112C25.1291 31.2512 24.3128 31.4435 23.2669 31.9689C23.2307 31.9871 23.201 30.5995 23.201 28.8852V25.7685L24.0583 25.7078C27.0916 25.4926 30.065 24.6688 32.7103 23.3106C33.1625 23.0785 33.5621 22.8749 33.5984 22.8583C33.6347 22.8418 33.6644 23.7803 33.6644 24.9441V27.06L33.2821 27.0076C32.6347 26.9189 31.9605 27.1731 31.4262 27.7074C30.6238 28.5099 30.4452 29.5653 30.9434 30.5622C31.4753 31.6267 33.4695 33.1304 34.3493 33.1304C35.2435 33.1304 37.2563 31.6403 37.7989 30.5766C38.0732 30.0391 38.1259 29.2391 37.9265 28.6389C37.5851 27.611 36.447 26.8753 35.4109 27.0127L34.9833 27.0694V24.5372V22.005L35.7087 21.4804C37.4001 20.2572 39.316 18.3939 40.4108 16.9077L40.6052 16.6439L40.6079 18.5547L40.6107 20.4654L40.2284 20.413C39.3306 20.2899 38.2482 20.9285 37.8292 21.8283C37.5603 22.4056 37.5456 23.3273 37.7963 23.8798C38.2568 24.8943 40.4233 26.5534 41.2877 26.5534C41.8979 26.5534 43.541 25.5033 44.2847 24.6382C45.056 23.7409 45.2076 22.6491 44.6923 21.7025C44.2304 20.8538 43.5328 20.4369 42.5671 20.4325L41.9296 20.4297L41.9297 17.5696L41.9299 14.7095L42.5732 13.4345C44.2449 10.1212 45.1108 6.31334 44.9886 2.81284C44.9453 1.56884 44.8326 1.18688 44.3651 0.699231C43.2969 -0.415167 41.5469 -0.162286 40.8525 1.20693C40.6236 1.65817 40.6107 1.7483 40.6107 2.8896C40.6107 9.30966 37.7055 14.8458 32.5 18.345C28.5356 21.0099 23.3675 21.9773 18.6287 20.9414C14.1465 19.9616 10.0755 17.2215 7.55701 13.4891C7.3167 13.133 7.0552 12.8168 6.97607 12.7864C6.50934 12.6073 6.05502 12.8856 6.05502 13.3506C6.05502 13.875 7.54426 15.8109 9.0975 17.3056C11.5176 19.6345 14.4521 21.2596 17.7438 22.094C20.413 22.7706 23.5755 22.8482 26.3079 22.304C31.4098 21.2879 35.9359 18.2008 38.8352 13.7597C39.4159 12.8701 40.2697 11.1899 40.6577 10.1733C41.4362 8.13336 41.8272 6.06266 41.9015 3.58661C41.9298 2.64358 41.9884 1.80317 42.0318 1.71902C42.0752 1.63496 42.2331 1.5028 42.3825 1.42552C42.7336 1.24394 43.1545 1.32079 43.4323 1.61711C43.6416 1.84036 43.6441 1.86445 43.6374 3.52822C43.6247 6.71148 42.9877 9.50715 41.6304 12.3354C38.8286 18.1742 33.6516 22.383 27.4655 23.8512C25.6079 24.2921 24.786 24.3795 22.4975 24.3795C20.2662 24.3795 19.4282 24.2945 17.6865 23.8921C9.76901 22.0623 3.36794 15.5801 1.75956 7.76319C1.45797 6.29716 1.36275 5.29338 1.35668 3.5138L1.35088 1.81425L1.63805 1.55741C1.79597 1.41611 2.02546 1.30048 2.14794 1.30048C2.43951 1.30048 2.86077 1.52197 2.9749 1.73529C3.02476 1.82831 3.06547 2.39176 3.06556 2.98729C3.06573 5.57141 3.48163 7.90607 4.35502 10.2252C4.76635 11.3176 5.11446 11.5613 5.65548 11.1357C5.9663 10.8912 5.94045 10.7036 5.36681 9.03814C4.66892 7.01237 4.38518 5.23974 4.38351 2.89585C4.38272 1.82251 4.36091 1.64947 4.17626 1.25291C3.96568 0.800612 3.6064 0.435623 3.1286 0.188546C2.81787 0.0279016 1.97789 -0.0463975 1.6581 0.0585006ZM3.05888 21.9589C3.50397 22.2758 3.78894 22.279 4.32328 21.9734C4.86184 21.6652 5.06873 21.6399 5.44779 21.836C5.98547 22.114 6.21575 22.8925 5.92603 23.4527C5.75483 23.7838 4.87265 24.5725 4.2605 24.9418C3.79923 25.22 3.75166 25.231 3.48577 25.1209C2.98071 24.9118 1.82103 23.9709 1.559 23.5577C1.26743 23.0978 1.24114 22.7429 1.46756 22.3207C1.79104 21.7175 2.49517 21.5575 3.05888 21.9589ZM40.6718 21.9734C41.2061 22.279 41.4911 22.2758 41.9362 21.9589C42.4999 21.5575 43.204 21.7175 43.5275 22.3207C43.7539 22.7429 43.7277 23.0978 43.4361 23.5577C43.1741 23.9709 42.0144 24.9118 41.5093 25.1209C41.2434 25.231 41.1959 25.22 40.7346 24.9418C40.1224 24.5725 39.2403 23.7838 39.0691 23.4527C38.9118 23.1486 38.904 22.6115 39.0525 22.3179C39.1951 22.0362 39.6974 21.6998 39.9755 21.6998C40.0954 21.6998 40.4088 21.8229 40.6718 21.9734ZM9.97335 28.5468C10.3815 28.8678 10.6696 28.868 11.2942 28.5477C11.8478 28.2638 11.87 28.2599 12.2306 28.3855C12.9876 28.6492 13.2388 29.5228 12.7512 30.196C12.4525 30.6083 11.816 31.1519 11.1636 31.5517L10.6887 31.8429L10.2404 31.6077C9.65189 31.2991 8.85913 30.6715 8.55639 30.2746C8.22895 29.8452 8.17391 29.2404 8.42591 28.8389C8.76355 28.301 9.4872 28.1644 9.97335 28.5468ZM33.752 28.5718C34.1126 28.8385 34.6205 28.8403 34.9779 28.5761C35.3454 28.3044 35.683 28.2537 36.0646 28.4131C36.6772 28.6691 36.9139 29.4234 36.5795 30.0543C36.378 30.4342 35.4011 31.2697 34.7749 31.5975L34.3064 31.8429L33.8315 31.5517C33.1791 31.1519 32.5426 30.6083 32.2439 30.196C31.4508 29.1012 32.679 27.7785 33.752 28.5718ZM17.4969 34.6732C16.7413 35.309 16.5002 36.7341 16.9821 37.7156C17.2752 38.3123 17.4095 38.4353 17.7681 38.4353C17.9585 38.4353 18.1055 38.3603 18.2546 38.1871C18.4924 37.9106 18.4855 37.8016 18.1864 37.1217C17.9466 36.5764 17.9902 36.2221 18.3655 35.6684C18.6794 35.2051 18.6974 34.8962 18.4253 34.6405C18.1556 34.3871 17.8229 34.3988 17.4969 34.6732Z" fill="#F3BD6A"/>
</svg>
