<svg width="18" height="20" viewBox="0 0 18 20" fill="none" xmlns="http://www.w3.org/2000/svg">
<path fill-rule="evenodd" clip-rule="evenodd" d="M6.23125 0.181049C5.33693 0.61538 4.73423 1.48925 4.61448 2.52502L4.55537 3.03551L2.85267 3.06323C0.865793 3.0957 0.861128 3.09785 0.754743 4.03801L0.694464 4.5711H0.347232H0V5.32234V6.07359L0.280315 6.12965C0.434511 6.16051 0.777617 6.18571 1.04277 6.18571H1.52491V12.2012V18.2168L1.75276 18.6984C1.99934 19.2195 2.45915 19.6803 2.92828 19.8763C3.16743 19.9762 4.2294 19.9996 8.5223 19.9996C14.4989 19.9996 14.1512 20.0388 14.8271 19.2906C15.4574 18.5929 15.4285 18.9319 15.4285 12.2296V6.18571H15.9555C16.2454 6.18571 16.6087 6.16051 16.7628 6.12965L17.0432 6.07359V5.32234V4.5711H16.6395H16.2359V4.08277C16.2359 3.69598 16.1908 3.54205 16.0196 3.34274L15.8032 3.09103L14.091 3.06314L12.3787 3.03533V2.64047C12.3787 1.70273 11.7133 0.665703 10.8288 0.224912C10.3798 0.00119847 10.33 -0.00355569 8.48158 0.00083965C6.79466 0.00478649 6.55435 0.0240722 6.23125 0.181049ZM10.0922 1.65044C10.475 1.81038 10.7633 2.26516 10.7637 2.70981L10.7641 3.04618H8.47673H6.18936L6.19133 2.79951C6.19474 2.37262 6.49748 1.83755 6.82767 1.67484C7.23823 1.47265 9.62392 1.45471 10.0922 1.65044ZM13.9036 12.1009V18.0162L13.6872 18.2679L13.4708 18.5196L8.7548 18.5458C3.7852 18.5733 3.41931 18.5493 3.20833 18.1802C3.1206 18.0267 3.08822 16.6371 3.06651 12.0835L3.03826 6.18571H8.47099H13.9036V12.1009ZM4.66445 12.3302V16.9498H5.4269H6.18936V12.3302V7.71063H5.4269H4.66445V12.3302ZM7.71427 12.3302V16.9498H8.47673H9.23919V12.3302V7.71063H8.47673H7.71427V12.3302ZM10.8538 12.3302V16.9498H11.6163H12.3787V12.3302V7.71063H11.6163H10.8538V12.3302Z" fill="#F3BF70"/>
</svg>
