<svg width="22" height="22" viewBox="0 0 22 22" fill="none" xmlns="http://www.w3.org/2000/svg">
<path fill-rule="evenodd" clip-rule="evenodd" d="M3.09519 0.0254156C2.32711 0.123479 1.59173 0.485428 1.04055 1.03668C0.480379 1.59698 0.124245 2.32866 0.0283756 3.11615C-0.00945852 3.427 -0.00945852 18.5826 0.0283756 18.8935C0.151709 19.9065 0.720248 20.8405 1.55248 21.3971C1.97317 21.6785 2.33591 21.8326 2.83839 21.9434L3.09519 22H8.68348H14.2718L14.4028 21.9274C14.6263 21.8036 14.7487 21.6 14.7487 21.3518C14.7487 21.1036 14.6263 20.9 14.4028 20.7761L14.2718 20.7036L8.72016 20.6913L3.16856 20.6791L2.98029 20.6254C2.13596 20.3845 1.53856 19.7503 1.36758 18.9132C1.32303 18.695 1.32178 18.4428 1.32794 10.9143L1.33432 3.14061L1.39067 2.9588C1.64059 2.15244 2.18057 1.61672 2.97547 1.38645L3.16856 1.3305H10.9946H18.8207L19.0285 1.38584C19.8595 1.60696 20.4726 2.25361 20.6454 3.09125C20.689 3.30245 20.6909 3.54256 20.6913 8.7317C20.6916 14.6992 20.6803 14.2666 20.8408 14.4613C20.8818 14.511 20.9668 14.5819 21.0297 14.6189C21.1287 14.6772 21.1703 14.6862 21.3397 14.6862C21.4802 14.6862 21.5607 14.6736 21.6253 14.6414C21.7533 14.5777 21.8881 14.4389 21.9483 14.3087L22 14.197V8.64433V3.09169L21.9434 2.83485C21.833 2.33382 21.6785 1.96938 21.4001 1.5529C20.834 0.706188 19.9181 0.14953 18.8824 0.0227493C18.6209 -0.00927005 3.34667 -0.00667718 3.09519 0.0254156ZM6.43349 5.29491C5.80293 5.45995 5.34114 5.98684 5.26391 6.62933C5.17467 7.37167 5.62004 8.07255 6.33566 8.31594C6.55401 8.3902 6.94969 8.40811 7.16747 8.35358C7.45493 8.28162 7.71906 8.13214 7.92474 7.92503C8.21103 7.63678 8.35835 7.31725 8.38259 6.93201C8.40211 6.62199 8.35977 6.40429 8.22676 6.13096C8.13597 5.94438 8.08236 5.87134 7.91721 5.70921C7.68842 5.48463 7.50157 5.37532 7.22597 5.3048C7.00009 5.24702 6.63391 5.24244 6.43349 5.29491ZM14.0002 7.18159C13.6271 7.6632 13.2488 8.15083 13.1593 8.26518C13.0698 8.37954 12.7668 8.7703 12.4858 9.13354C12.2049 9.49679 11.7318 10.1077 11.4346 10.4911C11.1373 10.8746 10.6319 11.5267 10.3114 11.9404C9.99094 12.3541 9.72192 12.6923 9.71358 12.692C9.70524 12.6917 9.57775 12.4853 9.43026 12.2334C9.17461 11.7967 8.93582 11.3931 8.55303 10.7503L8.37963 10.4592L6.40387 12.4504C5.3172 13.5455 4.12964 14.747 3.76483 15.1204L3.10155 15.7992H7.41263H11.7237L11.9283 15.5904C12.259 15.2528 12.6137 15.0442 13.0612 14.9243C13.2829 14.8648 13.3307 14.8615 14.1045 14.8511L14.9154 14.8403L14.9267 14.0294C14.9366 13.3164 14.9441 13.1926 14.9891 13.004C15.1409 12.3673 15.5708 11.8107 16.1733 11.4708C16.2506 11.4272 16.3139 11.3851 16.3139 11.3773C16.3139 11.3694 16.2759 11.2411 16.2293 11.0922C16.1828 10.9432 16.1277 10.7476 16.1068 10.6575C16.0741 10.5164 15.2544 8.01142 14.8213 6.72906L14.6783 6.30588L14.0002 7.18159ZM17.0329 12.5925C16.9013 12.6523 16.7606 12.7953 16.696 12.935C16.6448 13.0457 16.6439 13.0724 16.6371 14.8016L16.6303 16.5559L14.8763 16.5628L13.1223 16.5697L12.979 16.6401C12.7509 16.7521 12.6258 16.9596 12.6234 17.2301C12.621 17.4876 12.7609 17.7067 13 17.8199L13.1223 17.8778L14.8762 17.8781L16.63 17.8783L16.637 19.6456L16.644 21.4129L16.7003 21.5271C16.8109 21.7517 17.0647 21.9144 17.3044 21.9144C17.5274 21.9144 17.7532 21.7801 17.873 21.5762L17.9402 21.4619L17.9525 19.6762L17.9647 17.8906L19.7378 17.8783C21.6768 17.865 21.5819 17.8724 21.7627 17.7198C21.8653 17.6334 21.9621 17.4432 21.9798 17.2934C22.011 17.0305 21.8528 16.7519 21.6015 16.6269L21.4864 16.5697L19.7194 16.5627L17.9525 16.5556L17.9522 14.8015L17.952 13.0473L17.8941 12.925C17.7791 12.6822 17.5638 12.5469 17.2921 12.5469C17.1893 12.5469 17.0978 12.563 17.0329 12.5925Z" fill="#F7D299"/>
</svg>
