<svg width="36" height="20" viewBox="0 0 36 20" fill="none" xmlns="http://www.w3.org/2000/svg">
<path fill-rule="evenodd" clip-rule="evenodd" d="M16.445 0.0358283C12.9697 0.279502 9.64676 1.42799 6.54458 3.45771C5.57088 4.09479 3.332 5.98756 2.47716 6.89637C1.7448 7.67491 0.52969 9.17821 0.199128 9.71455L0 10.0377L0.350211 10.6533C2.16945 13.8521 5.39181 16.6825 9.00897 18.2589C11.7537 19.4549 14.4186 19.9916 17.6536 19.9998C19.1102 20.0035 19.9188 19.9439 21.184 19.7396C25.8143 18.9919 30.2398 16.4624 33.6364 12.6221C34.2367 11.9434 35.2425 10.6278 35.472 10.2211L35.5846 10.0215L35.1826 9.44242C33.5243 7.05385 31.3548 4.94879 28.832 3.28057C26.8132 1.94567 23.8679 0.755584 21.5389 0.333776C20.0059 0.0561293 17.9068 -0.0666168 16.445 0.0358283ZM18.6603 3.79015C20.4673 3.96319 21.8136 4.49483 23.038 5.51893C24.0897 6.39858 24.6497 7.24483 25.0296 8.52851C25.2476 9.26499 25.2476 10.75 25.0296 11.4865C24.5153 13.2243 23.3764 14.5563 21.6758 15.4091C20.3951 16.0513 18.6332 16.368 17.0968 16.232C15.2561 16.0692 13.8798 15.5445 12.6337 14.5307C11.6667 13.744 11.0231 12.813 10.663 11.6797C10.4924 11.1429 10.4765 11.0006 10.4765 10.0075C10.4765 9.01445 10.4924 8.8721 10.663 8.33529C11.0231 7.202 11.6667 6.27102 12.6337 5.48431C14.2387 4.17852 16.3926 3.57306 18.6603 3.79015ZM16.8898 6.3436C15.3752 6.61849 14.0427 7.67227 13.5552 8.98071C13.3408 9.55618 13.3408 10.4588 13.5552 11.0343C14.1505 12.632 15.9189 13.7606 17.8271 13.7606C19.417 13.7606 20.9911 12.943 21.7333 11.7317C22.6426 10.2475 22.327 8.55861 20.9165 7.36165C19.8463 6.45344 18.3579 6.07716 16.8898 6.3436Z" fill="#F3BD6A"/>
</svg>
