<svg width="26" height="20" viewBox="0 0 26 20" fill="none" xmlns="http://www.w3.org/2000/svg">
<path fill-rule="evenodd" clip-rule="evenodd" d="M12.0539 9.08337L2.69562 18.1667L3.64103 19.0834L4.58644 20L13.9447 10.9166L23.303 1.83325L22.3576 0.916624L21.4122 0L12.0539 9.08337ZM11.9629 2.31483C10.7403 2.39543 9.29166 2.69253 8.10332 3.10637C4.76647 4.26853 2.00302 6.53728 0.269904 9.53757L0 10.0048L0.268402 10.4673C1.14009 11.9688 2.4953 13.5378 3.78305 14.5362L4.22159 14.8762L6.04759 13.1039L7.87354 11.3316L7.79588 10.9378C7.6885 10.3929 7.69735 9.52686 7.81602 8.9687C8.32497 6.57532 10.479 4.87414 13.0005 4.87414C13.3081 4.87414 13.7422 4.90801 13.9652 4.94942L14.3707 5.02475L15.523 3.90711C16.1568 3.29241 16.6754 2.7759 16.6754 2.75932C16.6754 2.71932 15.7909 2.53037 15.1739 2.43855C14.1061 2.27965 13.0903 2.2405 11.9629 2.31483ZM19.9458 6.90107L18.1252 8.66868L18.2028 9.06237C18.3039 9.57556 18.3019 10.4553 18.1984 10.9444C17.9668 12.0389 17.5228 12.8475 16.7286 13.6213C15.9263 14.4029 14.9881 14.8771 13.857 15.0727C13.4151 15.1492 12.5049 15.1381 12.0335 15.0506L11.628 14.9752L10.4757 16.0929C9.84182 16.7076 9.3233 17.2241 9.3233 17.2407C9.3233 17.2573 9.55043 17.3203 9.8281 17.3808C13.6835 18.2207 17.7684 17.4917 21.0311 15.3815C21.9851 14.7645 22.4871 14.3648 23.3053 13.5706C24.3202 12.5855 25.1378 11.5411 25.7567 10.4391L26 10.0058L25.8879 9.79245C25.088 8.27063 23.4414 6.36979 22.0038 5.30868L21.7664 5.13345L19.9458 6.90107Z" fill="#F7D299"/>
</svg>
