<svg width="10" height="15" viewBox="0 0 10 15" fill="none" xmlns="http://www.w3.org/2000/svg">
<path fill-rule="evenodd" clip-rule="evenodd" d="M4.16635 0.035236C2.65482 0.323671 1.22122 1.39901 0.559974 2.74045C0.203205 3.46405 0.00221326 4.25623 1.14697e-05 4.94664C-0.00329122 6.0153 0.706865 7.73277 1.86674 9.4611C3.03141 11.1967 4.58548 12.8817 5.02135 12.8817C5.30743 12.8817 6.5225 11.6269 7.49609 10.3261C8.12187 9.48996 8.25704 9.2609 8.23856 9.06792C8.21953 8.86819 8.17911 8.8284 7.9749 8.80843C7.74921 8.78641 7.68544 8.84955 6.98252 9.79137C6.56945 10.345 5.9509 11.096 5.60813 11.4602L5.46952 11.6076C5.20509 11.8886 4.75993 11.8931 4.48986 11.6175C3.33911 10.4432 1.9239 8.48956 1.33579 7.26356C0.837557 6.22478 0.745711 5.86314 0.745711 4.93957C0.745711 3.96638 0.89095 3.43512 1.35199 2.72174C2.6939 0.645525 5.38268 0.0845404 7.41572 1.45657C8.98733 2.5172 9.63261 4.37276 9.07045 6.21495C8.8428 6.96081 8.87551 7.14136 9.23833 7.14136C9.45285 7.14136 9.52692 7.05148 9.69182 6.59091C10.0284 5.65098 10.0928 4.60081 9.86773 3.72072C9.46032 2.12733 8.17746 0.750818 6.60405 0.218771C6.10094 0.0486826 4.66333 -0.0595196 4.16635 0.035236ZM4.3984 2.60441C2.7204 3.07843 2.10972 5.13537 3.26535 6.42074C3.77081 6.98291 4.31584 7.23383 5.03134 7.23383C7.11022 7.23383 8.15662 4.74204 6.70525 3.24757C6.14018 2.66583 5.15417 2.39092 4.3984 2.60441ZM5.85355 3.4731C6.4912 3.81956 6.83201 4.68141 6.6042 5.37151C6.48145 5.74346 6.01507 6.26717 5.6826 6.40635C5.37977 6.53311 4.73433 6.54467 4.42703 6.42884C4.11225 6.3101 3.70004 5.89703 3.5294 5.52933C3.33108 5.10187 3.34461 4.66497 3.57139 4.17791C3.97377 3.31378 4.98542 3.00128 5.85355 3.4731ZM8.50702 7.55026C8.45512 7.60216 8.41266 7.71894 8.41266 7.80976C8.41266 8.18328 8.80183 8.28424 9.011 7.96498C9.1328 7.77901 9.13217 7.75652 9.00062 7.61113C8.84138 7.43522 8.64613 7.41116 8.50702 7.55026ZM1.92524 11.313C0.719447 11.7028 0.230177 12.3384 0.676197 12.9358C1.37511 13.8719 4.60883 14.3294 7.25318 13.8663C8.46543 13.654 9.27655 13.2491 9.48399 12.7525C9.58842 12.5027 9.58598 12.4491 9.4582 12.1886C9.28551 11.8367 8.951 11.6054 8.3102 11.3949C7.55664 11.1473 7.20569 11.1118 7.05007 11.2674C6.76643 11.551 6.95382 11.7963 7.56442 11.9408C8.17274 12.0848 8.80584 12.3811 8.80584 12.522C8.80584 12.6937 8.28865 12.9351 7.48917 13.1366C6.88462 13.2889 6.58958 13.3103 5.07066 13.3121C3.65058 13.3138 3.22799 13.2878 2.7116 13.1669C1.85589 12.9665 1.2371 12.6877 1.27044 12.5175C1.30324 12.3498 1.75633 12.1142 2.33713 11.963C2.87005 11.8243 2.98682 11.7431 2.98682 11.5118C2.98682 11.123 2.68706 11.0669 1.92524 11.313Z" fill="url(#paint0_linear_5796_10047)"/>
<defs>
<linearGradient id="paint0_linear_5796_10047" x1="5" y1="0" x2="5" y2="14.0488" gradientUnits="userSpaceOnUse">
<stop stop-color="#FFD588"/>
<stop offset="1" stop-color="#FFD588" stop-opacity="0"/>
</linearGradient>
</defs>
</svg>
