<svg width="13" height="11" viewBox="0 0 13 11" fill="none" xmlns="http://www.w3.org/2000/svg">
<path fill-rule="evenodd" clip-rule="evenodd" d="M1.21139 0.0188055C0.84693 0.0904846 0.520164 0.289038 0.286033 0.581094C0.196993 0.692167 0.0799515 0.930254 0.0388619 1.08387L0 1.22925V5.07086V8.91248L0.0368294 9.05218C0.165838 9.54154 0.566961 9.93893 1.08943 10.095L1.23578 10.1387H6.49596H11.7561L11.8989 10.0959C12.3994 9.94605 12.7743 9.59724 12.9289 9.13755C13.0021 8.91993 13 9.0412 13 5.07086C13 1.87809 12.9965 1.30355 12.9766 1.19543C12.8766 0.652913 12.4848 0.230909 11.9106 0.0472878L11.7724 0.0030976L6.54474 0.000567533C2.23246 -0.00152789 1.29857 0.00166956 1.21139 0.0188055ZM11.3039 0.913755C11.3296 0.936804 11.3415 0.9651 11.3415 1.003C11.3416 1.05607 11.2401 1.15538 9.02913 3.26517C7.75728 4.47884 6.69443 5.48196 6.66722 5.49434C6.58217 5.53305 6.51298 5.54072 6.43334 5.52022C6.36287 5.50209 6.19981 5.35016 4.02839 3.27963C1.77625 1.13216 1.69903 1.05662 1.69911 1.00144C1.69918 0.958317 1.70966 0.936478 1.74204 0.912187L1.78488 0.88001H6.52555H11.2662L11.3039 0.913755ZM3.67481 4.20132C6.53757 6.93033 6.28505 6.70849 6.52848 6.70831C6.62423 6.70825 6.66789 6.70014 6.73173 6.67059C6.79695 6.6404 7.31417 6.15522 9.34585 4.21849C10.7389 2.89053 11.8939 1.79865 11.9126 1.79206C11.9573 1.77626 12.0261 1.80869 12.0522 1.85788C12.0787 1.90801 12.0831 8.66387 12.0567 8.79784C12.0203 8.98228 11.8979 9.1323 11.7183 9.21267L11.6261 9.25396H6.49562H1.36518L1.25682 9.20303C1.12501 9.1411 1.0168 9.03191 0.964296 8.90786L0.926832 8.81935L0.922556 5.32843C0.918702 2.1768 0.920767 1.8339 0.943824 1.80029C0.974101 1.75619 1.02797 1.73279 1.07317 1.7441C1.09106 1.74857 2.2618 2.85434 3.67481 4.20132Z" fill="#FEAA6F"/>
</svg>
