<svg width="13" height="13" viewBox="0 0 13 13" fill="none" xmlns="http://www.w3.org/2000/svg">
<path fill-rule="evenodd" clip-rule="evenodd" d="M2.60187 0.0189741C2.28322 0.0824811 2.13356 0.197211 1.30386 1.01421C0.506359 1.79949 0.277344 2.05161 0.163353 2.26974C-0.000586523 2.5834 -0.0449079 2.98901 0.0475794 3.32945C0.172667 3.78995 0.698366 4.89404 1.15602 5.65753C2.17176 7.352 3.46148 8.78932 5.04061 9.98656C6.06522 10.7634 7.50876 11.5712 8.82034 12.1017C9.42315 12.3455 9.6065 12.3922 9.95997 12.3917C10.2782 12.3913 10.4927 12.344 10.7824 12.2105C10.9614 12.1279 11.1045 12.0041 11.9287 11.218C12.8089 10.3787 12.8751 10.3082 12.9394 10.141C12.9952 9.99601 13.0062 9.91417 12.9972 9.70871C12.9785 9.28103 12.9867 9.29141 11.6746 8.03507C10.3325 6.75009 10.3635 6.77188 9.87733 6.77188C9.42186 6.77188 9.34135 6.81747 8.65409 7.46411L8.09085 7.99408L7.79057 7.84512C7.00035 7.45314 6.2191 6.86995 5.65323 6.24966C5.40053 5.97265 5.0428 5.45472 4.83226 5.06104L4.65075 4.72168L5.19786 4.19639C5.49877 3.90745 5.77888 3.6174 5.8203 3.55181C6.06857 3.15869 6.01249 2.71692 5.66405 2.32043C5.38656 2.00469 3.62395 0.288327 3.48546 0.199C3.22862 0.0333452 2.88312 -0.0370492 2.60187 0.0189741ZM3.92276 1.94556C4.49019 2.497 4.96669 2.96826 4.98163 2.9928C5.00232 3.02679 4.82635 3.212 4.24164 3.77167L3.47445 4.50591L3.57154 4.75934C3.85019 5.48692 4.49513 6.47426 5.09653 7.09407C5.73894 7.75612 6.90589 8.53058 7.94929 8.98738L8.32127 9.15023L9.09933 8.40848L9.87739 7.66673L10.9713 8.70989L12.0652 9.75307L11.2448 10.5379C10.7935 10.9696 10.3681 11.3515 10.2993 11.3865C10.0798 11.4984 9.86749 11.476 9.39286 11.2913C5.89725 9.9308 3.29986 7.65019 1.64231 4.48596C1.21141 3.66338 1.00011 3.14602 1.00186 2.91787C1.00265 2.81501 1.02446 2.70958 1.05656 2.65344C1.14039 2.50684 2.76353 0.942956 2.83183 0.942956C2.8683 0.942956 3.28714 1.3279 3.92276 1.94556Z" fill="#FEAA6F"/>
</svg>
