<svg width="60" height="58" viewBox="0 0 60 58" fill="none" xmlns="http://www.w3.org/2000/svg">
<path fill-rule="evenodd" clip-rule="evenodd" d="M29.2604 1.59743C29.2604 3.01987 29.3651 3.27787 29.9008 3.17467C30.3824 3.08172 30.5412 2.69089 30.5412 1.59743C30.5412 0.503982 30.3824 0.11315 29.9008 0.0201995C29.3651 -0.0829977 29.2604 0.174995 29.2604 1.59743ZM29.5122 4.2125C29.3735 4.35082 29.2604 5.10724 29.2604 5.89366C29.2604 7.05811 29.379 7.30036 29.9008 7.20009C30.3802 7.10751 30.5412 6.71777 30.5412 5.64847C30.5412 4.30215 30.0739 3.6504 29.5122 4.2125ZM11.341 6.44624C11.3597 7.4182 12.6998 8.84722 13.3567 8.59545C13.7856 8.43078 13.8313 8.22218 13.5466 7.73255C12.8542 6.54175 12.1666 5.80583 11.7461 5.80583C11.5167 5.80583 11.3344 6.0942 11.341 6.44624ZM46.8526 6.7701C45.9838 7.87417 45.9213 8.21743 46.5207 8.58777C46.9777 8.87064 48.6509 7.04749 48.6538 6.26327C48.6571 5.47758 47.6452 5.76228 46.8526 6.7701ZM29.4178 8.4853C29.0306 9.49385 29.4115 11.478 29.9923 11.478C30.3974 11.478 30.5412 11.0546 30.5412 9.86163C30.5412 8.25073 29.8382 7.38929 29.4178 8.4853ZM13.7062 9.46787C13.4013 9.9608 14.8999 12.0269 15.5622 12.0269C16.3102 12.0269 16.2096 11.1845 15.3277 10.0636C14.52 9.03642 14.0739 8.87284 13.7062 9.46787ZM44.366 10.1376C43.8665 10.8138 43.708 11.3529 43.9122 11.6833C44.1651 12.0924 44.4066 12.0211 45.1597 11.313C46.1522 10.3809 46.4149 9.09936 45.6139 9.09936C45.3496 9.09936 44.7883 9.56668 44.366 10.1376ZM16.2696 12.7581C15.9194 13.3246 17.2632 15.3205 17.9951 15.3205C18.8613 15.3205 18.8184 14.7898 17.8472 13.4761C16.9993 12.3292 16.6367 12.1642 16.2696 12.7581ZM42.0953 13.3572C41.2133 14.4781 41.1127 15.3205 41.8607 15.3205C42.5231 15.3205 44.0216 13.2543 43.7168 12.7614C43.349 12.1664 42.9029 12.3299 42.0953 13.3572ZM57.5299 21.5529C57.0768 21.7352 56.7065 22.1567 56.7065 22.4905C56.7065 22.9757 56.937 23.0508 57.861 22.8659C59.0796 22.6222 60 22.033 60 21.4969C60 21.0889 58.605 21.1207 57.5299 21.5529ZM0.228667 21.7857C-0.244137 22.2585 -0.00370929 22.5721 1.13695 22.9695C2.70504 23.5162 3.27811 23.4745 3.27811 22.8132C3.27811 21.9851 0.847851 21.1661 0.228667 21.7857ZM16.5437 24.4252C15.0847 25.791 13.8906 27.1219 13.8906 27.3832C13.8906 27.6441 16.4134 30.5124 19.4973 33.7569C22.5811 37.0014 26.1637 40.7831 27.4592 42.1609L29.8144 44.6658L33.4929 40.8801C35.5159 38.7978 39.1377 35.0663 41.5412 32.5881C43.9444 30.1095 45.9575 27.804 46.0146 27.4648C46.0779 27.0853 45.0657 25.896 43.3874 24.3777L40.6567 21.9075L29.9268 21.9247L19.1968 21.9423L16.5437 24.4252ZM53.8704 22.7316C52.7714 23.0822 52.3758 23.6762 52.8951 24.1954C53.2574 24.5574 55.7916 23.5107 55.7916 22.9992C55.7916 22.3496 55.2881 22.2793 53.8704 22.7316ZM4.26544 22.8722C4.12491 23.0123 4.01 23.2729 4.01 23.4511C4.01 23.8946 6.52004 24.9101 6.95369 24.6423C7.60471 24.2397 7.30866 23.4518 6.4227 23.2297C5.93818 23.1078 5.31205 22.9205 5.03136 22.8125C4.75032 22.7049 4.40596 22.7316 4.26544 22.8722ZM25.7832 24.8358L24.3527 26.3007L22.8783 24.9273C22.0673 24.1724 21.3325 23.5133 21.2458 23.4628C21.1587 23.4123 22.4658 23.3713 24.1503 23.3713H27.2133L25.7832 24.8358ZM32.5539 25.0181L34.1699 26.6648H29.9923H25.8146L27.4307 25.0181C28.5197 23.9082 29.3552 23.3713 29.9923 23.3713C30.6294 23.3713 31.4649 23.9082 32.5539 25.0181ZM38.4091 23.48C38.4091 23.5397 37.784 24.1991 37.0203 24.9445L35.6319 26.3007L34.2014 24.8358L32.7713 23.3713H35.5902C37.1407 23.3713 38.4091 23.4204 38.4091 23.48ZM21.0266 25.2011L22.456 26.6648H19.3798H16.3036L17.733 25.2011C18.5191 24.396 19.2601 23.7373 19.3798 23.7373C19.4995 23.7373 20.2405 24.396 21.0266 25.2011ZM42.2515 25.2011L43.6809 26.6648H40.6048H37.5286L38.958 25.2011C39.7441 24.396 40.4851 23.7373 40.6048 23.7373C40.7244 23.7373 41.4655 24.396 42.2515 25.2011ZM49.479 24.1146C48.6044 24.4662 48.413 25.0078 49.0289 25.3884C49.6086 25.7471 51.9492 24.8406 51.9492 24.2576C51.9492 23.6729 50.7507 23.6033 49.479 24.1146ZM8.1002 24.7173C8.16534 25.055 8.71243 25.466 9.31625 25.6303C11.3886 26.195 12.1538 25.1941 10.1766 24.505C8.55947 23.9411 7.96224 24.0022 8.1002 24.7173ZM25.9833 34.5327L28.1124 40.7538L22.9983 35.4476C20.186 32.5292 17.5471 29.6825 17.134 29.1218L16.3838 28.1023L20.119 28.207L23.8546 28.3116L25.9833 34.5327ZM34.5772 28.769C34.4397 29.1215 33.4132 31.9619 32.2967 35.0816C31.1798 38.2013 30.1551 40.8775 30.019 41.0287C29.8832 41.1798 28.759 38.3393 27.521 34.7161L25.2701 28.1286H30.049C34.4517 28.1286 34.8082 28.1791 34.5772 28.769ZM43.2762 28.6267C42.9044 29.2594 31.822 40.7868 31.822 40.5409C31.822 40.3403 35.2469 30.7565 35.898 29.135C36.3009 28.1319 36.3137 28.1286 39.9355 28.1286C42.8993 28.1286 43.5148 28.2205 43.2762 28.6267ZM9.04179 37.7026C8.48811 37.9049 8.03543 38.325 8.03543 38.6365C8.03543 39.084 8.31648 39.1572 9.37626 38.9852C10.8832 38.7408 11.531 38.2665 11.1657 37.6751C10.8734 37.2023 10.3951 37.2085 9.04179 37.7026ZM48.8338 37.651C48.6205 37.9961 50.709 39.1071 51.5715 39.1071C52.3451 39.1071 51.9151 37.9781 51.0105 37.6341C49.8069 37.1767 49.1237 37.1818 48.8338 37.651ZM5.49575 38.9062C4.22372 39.3453 3.70005 39.9703 4.29618 40.3385C4.81765 40.6609 7.30353 39.7614 7.30353 39.2502C7.30353 38.5216 6.85635 38.4363 5.49575 38.9062ZM52.8443 38.773C52.479 39.3643 53.1268 39.8386 54.6337 40.0831C55.6891 40.2543 55.9746 40.1811 55.9746 39.7398C55.9746 39.4313 55.456 38.998 54.8222 38.777C53.3866 38.2764 53.1513 38.276 52.8443 38.773ZM1.11133 40.3019C-0.0384742 40.8885 -0.294638 41.6687 0.662315 41.6687C1.88458 41.6687 3.27811 40.9913 3.27811 40.397C3.27811 39.7255 2.32299 39.6834 1.11133 40.3019ZM56.7065 40.3118C56.7065 41.0715 59.1737 41.9095 59.7409 41.3423C60.3224 40.7608 59.6633 40.2232 58.0473 39.9608C56.9857 39.7885 56.7065 39.8617 56.7065 40.3118ZM16.798 48.6499C16.1785 49.5197 16.0954 49.8736 16.4328 50.2052C16.7677 50.5349 17.0754 50.3962 17.7587 49.6076C18.2476 49.0429 18.6479 48.3432 18.6479 48.0523C18.6479 47.1458 17.6364 47.4726 16.798 48.6499ZM41.3498 47.9813C41.3572 48.2331 41.7637 48.9295 42.2537 49.5289C42.9205 50.345 43.2498 50.5144 43.5616 50.2026C43.8738 49.8905 43.8105 49.5007 43.3106 48.6546C42.6537 47.5425 41.3242 47.0858 41.3498 47.9813ZM14.6862 51.6642C13.7889 52.6193 13.6326 53.745 14.3974 53.745C14.9851 53.745 16.0863 52.2025 16.0863 51.3791C16.0863 50.5847 15.6094 50.6816 14.6862 51.6642ZM43.8983 51.3458C43.8983 51.6368 44.2986 52.3364 44.7875 52.9011C45.4708 53.6897 45.7785 53.8284 46.1134 53.4987C46.4508 53.1671 46.3677 52.8133 45.7482 51.9434C44.9098 50.7662 43.8983 50.4394 43.8983 51.3458ZM12.0985 55.1557C11.2005 56.4168 11.1189 57.0385 11.8512 57.0385C12.4725 57.0385 13.9638 55.2457 13.7859 54.7122C13.5265 53.9338 12.8403 54.1142 12.0985 55.1557ZM46.3154 54.4143C46.0574 54.8322 47.6339 57.0242 48.1982 57.0323C48.8327 57.0411 48.7698 56.0892 48.0646 55.013C47.4754 54.1135 46.6714 53.8387 46.3154 54.4143Z" fill="#FD9149"/>
</svg>
