<svg width="10" height="11" viewBox="0 0 10 11" fill="none" xmlns="http://www.w3.org/2000/svg">
<path fill-rule="evenodd" clip-rule="evenodd" d="M4.43017 0.801971C4.2931 0.870781 4.12838 1.00488 4.06395 1.10013C3.82931 1.44716 3.80322 1.65273 3.80322 3.15322V4.55567H2.4456C0.962441 4.55567 0.6874 4.58907 0.388885 4.80532C0.0985814 5.01558 0 5.25451 0 5.74777C0 6.12451 0.0128453 6.1773 0.152985 6.37668C0.328538 6.62644 0.563078 6.79922 0.825223 6.87206C0.927028 6.90032 1.62324 6.92278 2.40202 6.92294L3.79657 6.92324L3.81249 8.44704L3.8284 9.97085L3.98532 10.2479C4.19467 10.6175 4.52754 10.8025 4.98015 10.8009C5.3578 10.7995 5.63456 10.683 5.85424 10.4328C6.13809 10.1095 6.17078 9.89166 6.17078 8.32453V6.92324H7.57208C9.18248 6.92324 9.37576 6.8918 9.68833 6.57924C10.1559 6.11167 10.0855 5.15512 9.55676 4.79061C9.26237 4.58771 9.00819 4.55824 7.54347 4.55688L6.17078 4.55567V3.15437C6.17078 1.58725 6.13809 1.36938 5.85424 1.04608C5.51855 0.663796 4.91245 0.559875 4.43017 0.801971Z" fill="#339919"/>
</svg>
