<svg width="18" height="19" viewBox="0 0 18 19" fill="none" xmlns="http://www.w3.org/2000/svg">
<path fill-rule="evenodd" clip-rule="evenodd" d="M10.9432 0.0159501C10.0241 0.0983158 8.9019 0.496933 7.75392 1.14884C6.13513 2.06812 4.4123 3.50924 3.06148 5.07404C1.71308 6.636 0.704261 8.3165 0.264318 9.73351C-0.142243 11.043 -0.0786858 12.1075 0.447353 12.799C0.629752 13.0388 2.59597 14.993 2.77635 15.1139C3.40622 15.5357 4.30151 15.6135 5.40778 15.3426C7.73709 14.7722 10.773 12.5725 12.9164 9.90204C14.304 8.17319 15.2122 6.40677 15.4779 4.92015C15.534 4.60583 15.5347 3.89542 15.4791 3.6373C15.3982 3.2619 15.2808 2.99821 15.072 2.72296C14.8994 2.49537 12.9296 0.535471 12.7393 0.401926C12.287 0.0845114 11.6664 -0.0488364 10.9432 0.0159501ZM11.6016 0.816717C12.0626 0.858526 12.4646 1.08368 12.6273 1.39106C12.6872 1.50435 12.7966 1.81316 12.7815 1.82653C12.7783 1.82936 12.6424 1.8485 12.4794 1.86904C11.1767 2.03331 9.74459 2.76284 8.04623 4.1273C6.12537 5.67055 4.83139 6.94132 3.86653 8.23212C2.81726 9.6358 2.15577 11.1251 1.97429 12.4923C1.9297 12.8283 1.9455 12.8121 1.71967 12.7536C1.26045 12.6346 0.952675 12.3175 0.836709 11.844C0.787702 11.6439 0.770825 11.2166 0.801572 10.9547C0.978462 9.44726 2.05391 7.47156 3.75785 5.52368C4.09447 5.13885 5.12144 4.11166 5.50042 3.7807C6.6324 2.79216 7.71529 2.04566 8.78144 1.51897C9.66394 1.083 10.3752 0.857538 11.0262 0.8075C11.257 0.789767 11.3144 0.790667 11.6016 0.816717ZM12.8086 2.64318C12.8083 2.69144 12.7367 3.09177 12.7077 3.20732L12.674 3.34144L12.5274 3.39295C10.8062 3.99734 8.84884 5.31664 7.13568 7.02703C5.43554 8.72442 4.06741 10.7363 3.44612 12.4526C3.40352 12.5703 3.36531 12.6699 3.36119 12.6741C3.3471 12.6882 2.83396 12.7876 2.77409 12.7878C2.72111 12.788 2.71539 12.7811 2.72388 12.7277C2.93275 11.414 3.36643 10.3576 4.20815 9.11196C4.75061 8.30922 5.36362 7.59228 6.28262 6.68582C6.97497 6.00291 7.43817 5.59003 8.25472 4.92798C9.92694 3.57218 11.2715 2.85422 12.5014 2.66037C12.7223 2.62556 12.8087 2.62073 12.8086 2.64318ZM16.0353 3.66232C16.035 3.67059 16.0554 3.75948 16.0807 3.85984C16.1538 4.15096 16.1642 4.77791 16.1028 5.20122C15.8043 7.25896 14.2302 9.8782 11.9384 12.1306C9.7296 14.3015 7.22918 15.7691 5.22608 16.0705C5.05178 16.0967 4.83655 16.1102 4.58963 16.1103C4.22966 16.1105 4.13948 16.1001 3.81397 16.0213C3.72963 16.0008 3.66682 15.9955 3.65464 16.0077C3.64246 16.0198 3.9309 16.3219 4.3864 16.774C5.18478 17.5664 5.31997 17.6779 5.6484 17.8146C6.24744 18.064 6.98166 18.0742 7.8926 17.8457C9.08178 17.5475 10.4847 16.8182 11.8692 15.7784C13.628 14.4575 15.1322 12.8862 16.2761 11.1749C17.918 8.71865 18.425 6.52906 17.6331 5.31464C17.5474 5.1832 17.3343 4.95381 16.7774 4.39343C16.3694 3.98303 16.0355 3.65402 16.0353 3.66232ZM12.2251 4.55254C11.7509 5.56279 11.1837 6.45795 10.3927 7.44401C9.95383 7.99116 9.65277 8.32772 9.09978 8.88933C7.93972 10.0675 6.74372 11.017 5.54431 11.7121C5.171 11.9284 4.30731 12.355 4.29765 12.3278C4.29399 12.3175 4.36391 12.1515 4.45303 11.9589C4.94012 10.9064 5.69385 9.78072 6.63122 8.70595C6.94104 8.35069 8.21846 7.07109 8.57295 6.76088C9.40806 6.03012 10.2048 5.44189 11.02 4.95419C11.2916 4.79172 12.2705 4.29467 12.3189 4.29467C12.3352 4.29467 12.2978 4.39755 12.2251 4.55254ZM13.9009 4.94367C14.0503 5.01812 14.2191 5.20515 14.281 5.36463C14.3475 5.53639 14.363 5.8569 14.3141 6.05156C14.202 6.49816 13.8528 6.90434 13.4826 7.01873C12.9936 7.16979 12.5632 6.87013 12.4787 6.31986C12.4083 5.8614 12.6617 5.31909 13.0813 5.03006C13.248 4.91525 13.3389 4.88929 13.578 4.88819C13.7603 4.88736 13.8024 4.89458 13.9009 4.94367ZM16.7108 7.46401C16.7864 7.50351 16.8744 7.5983 16.9265 7.6964C16.9576 7.75484 16.9674 7.82044 16.9674 7.97073C16.9675 8.14207 16.9592 8.18636 16.9045 8.3048C16.8304 8.46521 16.6559 8.64199 16.5309 8.68323C16.4196 8.71999 16.2331 8.70303 16.1612 8.64961C16.1299 8.62628 16.0784 8.56777 16.047 8.5196C15.9137 8.31558 15.9133 8.06113 16.0459 7.80883C16.1448 7.62059 16.2583 7.51628 16.4144 7.47026C16.5609 7.42707 16.637 7.42545 16.7108 7.46401ZM10.7968 9.30496C11.0459 9.41901 11.2065 9.6304 11.2539 9.90671C11.2764 10.0377 11.2748 10.0904 11.2434 10.2559C11.0492 11.2789 9.76513 11.9308 9.18464 11.301C8.92802 11.0226 8.89545 10.5831 9.10063 10.167C9.30754 9.74731 9.7291 9.3916 10.1567 9.27586C10.3765 9.21634 10.6283 9.22777 10.7968 9.30496ZM13.491 12.3555C13.7213 12.4754 13.7664 12.8324 13.594 13.1704C13.5355 13.2851 13.3351 13.4938 13.2007 13.5801C12.9205 13.7598 12.536 13.7812 12.3619 13.6266C12.1896 13.4736 12.2021 13.0741 12.3878 12.8049C12.4884 12.6588 12.6784 12.4918 12.8325 12.4138C13.0203 12.3188 13.0566 12.3093 13.2386 12.3071C13.3607 12.3056 13.4152 12.3161 13.491 12.3555ZM6.23168 12.6014C6.49524 12.67 6.69833 12.8269 6.80639 13.0453C6.85788 13.1493 6.8694 13.2016 6.87061 13.3369C6.87188 13.4798 6.86273 13.5205 6.80165 13.6441C6.63161 13.9882 6.29576 14.2624 5.92925 14.3565C5.74315 14.4043 5.40609 14.4005 5.2398 14.3488C4.97455 14.2662 4.81924 14.1364 4.7129 13.9083C4.62632 13.7226 4.63396 13.5484 4.73834 13.3287C4.99435 12.7896 5.67728 12.457 6.23168 12.6014ZM8.61881 15.839C8.96777 15.9051 9.09523 16.2211 8.89479 16.523C8.79294 16.6765 8.69293 16.7541 8.51305 16.8194C8.00488 17.0039 7.5136 16.6543 7.71797 16.2537C7.82198 16.0499 8.00512 15.9072 8.23387 15.8519C8.39513 15.8129 8.46833 15.8104 8.61881 15.839Z" fill="url(#paint0_radial_2033_1662)"/>
<defs>
<radialGradient id="paint0_radial_2033_1662" cx="0" cy="0" r="1" gradientUnits="userSpaceOnUse" gradientTransform="translate(9 9.00485) rotate(90) scale(14.9952 14.9871)">
<stop stop-color="#FFD588"/>
<stop offset="1" stop-color="#FFD588" stop-opacity="0"/>
</radialGradient>
</defs>
</svg>
