<svg width="15" height="15" viewBox="0 0 15 15" fill="none" xmlns="http://www.w3.org/2000/svg">
<path fill-rule="evenodd" clip-rule="evenodd" d="M1.20321 0.105401C0.81393 0.22877 0.218583 0.846738 0.0980214 1.25262C0.0441177 1.43422 0 2.01874 0 2.55152C0 3.45922 0.0111498 3.52813 0.176791 3.64412C0.327273 3.7496 0.377888 3.75185 0.517701 3.65928C0.665134 3.56174 0.685909 3.44495 0.721925 2.51342C0.783289 0.927273 0.927273 0.783289 2.51342 0.721925C3.44495 0.685909 3.56174 0.665134 3.65928 0.517701C3.75185 0.377888 3.7496 0.327273 3.64412 0.176791C3.52701 0.00954549 3.46548 0.000481226 2.50211 0.00818176C1.94214 0.0126737 1.35762 0.0563903 1.20321 0.105401ZM11.3559 0.176791C11.2504 0.327273 11.2482 0.377888 11.3407 0.517701C11.4383 0.665134 11.5551 0.685909 12.4866 0.721925C14.0727 0.783289 14.2167 0.927273 14.2781 2.51342C14.3141 3.44495 14.3349 3.56174 14.4823 3.65928C14.6221 3.75185 14.6727 3.7496 14.8232 3.64412C14.9889 3.52813 15 3.45922 15 2.55152C15 1.35128 14.9092 1.0277 14.4407 0.559251C13.9723 0.0908021 13.6487 0 12.4485 0C11.5408 0 11.4719 0.0111498 11.3559 0.176791ZM2.51872 2.51872L2.24599 2.79144V3.72995V4.66845L2.51872 4.94118L2.79144 5.2139H3.68583C5.09246 5.2139 5.2139 5.0919 5.2139 3.67805V2.79144L4.94118 2.51872L4.66845 2.24599H3.72995H2.79144L2.51872 2.51872ZM6.1123 2.34225C5.98853 2.46602 5.98853 2.74789 6.1123 2.87166C6.17711 2.93647 6.54369 2.96791 7.23529 2.96791H8.26203V3.60393C8.26203 4.07511 8.29468 4.27251 8.38805 4.36596C8.53588 4.51372 8.61802 4.52174 8.82882 4.40896C8.96872 4.33404 8.98396 4.23313 8.98396 3.38222C8.98396 2.75519 8.95163 2.40618 8.8877 2.34225C8.75278 2.20733 6.24722 2.20733 6.1123 2.34225ZM10.0588 2.51872L9.7861 2.79144V3.67805C9.7861 5.0919 9.90754 5.2139 11.3142 5.2139H12.2086L12.4813 4.94118L12.754 4.66845V3.72995V2.79144L12.4813 2.51872L12.2086 2.24599H11.2701H10.3316L10.0588 2.51872ZM4.47497 3.75305L4.49807 4.49807L3.75305 4.47497L3.00802 4.45187L2.98436 3.81722C2.97136 3.46821 2.97979 3.13291 3.00313 3.07211C3.03561 2.98733 3.20912 2.96703 3.74872 2.98484L4.45187 3.00802L4.47497 3.75305ZM11.992 3.72995V4.45187L11.25 4.47497L10.508 4.49799V3.78642C10.508 3.39505 10.5334 3.04949 10.5644 3.01853C10.5954 2.98749 10.9293 2.97249 11.3064 2.98508L11.992 3.00802V3.72995ZM6.1123 3.86631C5.96495 4.01366 5.99775 4.31615 6.17118 4.40896C6.38479 4.52326 7.24564 4.51372 7.36364 4.39572C7.41658 4.34278 7.45989 4.22366 7.45989 4.13102C7.45989 3.85067 7.29874 3.77005 6.73797 3.77005C6.43316 3.77005 6.16773 3.81088 6.1123 3.86631ZM6.1123 5.39037C5.97906 5.52361 5.99198 5.73987 6.14206 5.89003C6.23551 5.9834 6.43291 6.01604 6.90409 6.01604H7.54011V6.37701C7.54011 6.73283 7.53634 6.73797 7.27179 6.73797C6.89968 6.73797 6.67845 6.98463 6.80374 7.25968C6.8935 7.45668 6.91003 7.45989 7.84324 7.45989C8.84751 7.45989 8.98396 7.41513 8.98396 7.0857C8.98396 6.88027 8.77275 6.73797 8.46786 6.73797C8.27743 6.73797 8.26203 6.71102 8.26203 6.37701C8.26203 6.03136 8.27198 6.01604 8.49698 6.01604C8.88914 6.01604 9.12914 5.63182 8.8877 5.39037C8.75278 5.25545 6.24722 5.25545 6.1123 5.39037ZM2.34225 6.1123C2.28682 6.16773 2.24599 6.43316 2.24599 6.73797C2.24599 7.29874 2.3266 7.45989 2.60695 7.45989C2.8873 7.45989 2.96791 7.29874 2.96791 6.73797C2.96791 6.17719 2.8873 6.01604 2.60695 6.01604C2.5143 6.01604 2.39519 6.05936 2.34225 6.1123ZM3.86631 6.1123C3.74254 6.23607 3.74254 6.51794 3.86631 6.64171C3.91925 6.69465 4.08168 6.73797 4.22727 6.73797C4.47329 6.73797 4.49198 6.75666 4.49198 7.00267C4.49198 7.39067 4.60933 7.45989 5.26725 7.45989C5.7742 7.45989 5.86155 7.43832 5.93872 7.29409C6.08005 7.03003 5.84583 6.73797 5.49281 6.73797C5.23075 6.73797 5.2139 6.72201 5.2139 6.47326C5.2139 6.09241 5.09334 6.01604 4.49198 6.01604C4.18717 6.01604 3.92174 6.05687 3.86631 6.1123ZM9.88235 6.1123C9.81842 6.17623 9.7861 6.52524 9.7861 7.15227C9.7861 8.00318 9.80134 8.10409 9.94123 8.17901C10.152 8.29179 10.2342 8.28377 10.382 8.13602C10.4805 8.03743 10.508 7.82647 10.508 7.16816C10.508 6.70516 10.4706 6.25652 10.425 6.17118C10.3322 5.99775 10.0297 5.96495 9.88235 6.1123ZM12.1283 6.1123C12.0754 6.16524 12.0321 6.32767 12.0321 6.47326C12.0321 6.7139 12.0102 6.73797 11.7914 6.73797C11.4645 6.73797 11.2117 6.99521 11.3007 7.23738C11.3532 7.38024 11.4397 7.42516 11.6999 7.44441C12.0285 7.46888 12.0321 7.47257 12.0321 7.78251C12.0321 8.01032 12.0745 8.11869 12.1872 8.17901C12.398 8.29179 12.4802 8.28377 12.628 8.13602C12.7276 8.03639 12.754 7.8211 12.754 7.10928C12.754 6.16324 12.7054 6.01604 12.393 6.01604C12.3004 6.01604 12.1813 6.05936 12.1283 6.1123ZM2.34225 8.35829C2.21848 8.48206 2.21848 8.76393 2.34225 8.8877C2.40618 8.95163 2.75519 8.98396 3.38222 8.98396C4.23313 8.98396 4.33404 8.96872 4.40896 8.82882C4.52174 8.61802 4.51372 8.53588 4.36596 8.38805C4.20578 8.22794 2.4977 8.20283 2.34225 8.35829ZM5.39037 8.35829C5.2666 8.48206 5.2666 8.76393 5.39037 8.8877C5.4458 8.94313 5.71123 8.98396 6.01604 8.98396C6.57682 8.98396 6.73797 8.90334 6.73797 8.62299C6.73797 8.34265 6.57682 8.26203 6.01604 8.26203C5.71123 8.26203 5.4458 8.30286 5.39037 8.35829ZM7.63636 8.35829C7.51259 8.48206 7.51259 8.76393 7.63636 8.8877C7.6893 8.94064 7.85174 8.98396 7.99733 8.98396C8.26147 8.98396 8.26203 8.98476 8.26203 9.38503V9.7861H7.23529C6.14856 9.7861 6.01604 9.82676 6.01604 10.1603C6.01604 10.4526 6.25275 10.508 7.5 10.508C8.15567 10.508 8.74211 10.4714 8.82882 10.425C8.96872 10.3501 8.98396 10.2492 8.98396 9.39826C8.98396 8.77123 8.95163 8.42222 8.8877 8.35829C8.83227 8.30286 8.56684 8.26203 8.26203 8.26203C7.95722 8.26203 7.69179 8.30286 7.63636 8.35829ZM9.92647 9.07059C9.81321 9.1366 9.7861 9.26471 9.7861 9.73396C9.7861 10.0793 9.82516 10.3546 9.88235 10.4118C9.9458 10.4752 10.286 10.508 10.8805 10.508C11.7215 10.508 11.7908 10.496 11.9072 10.3297C11.9759 10.2317 12.0321 10.0512 12.0321 9.92864C12.0321 9.73011 12.0609 9.70588 12.2968 9.70588C12.7507 9.70588 12.9177 9.34837 12.5757 9.10885C12.3727 8.96655 11.7006 8.94104 11.4659 9.06674C11.3711 9.11735 11.2916 9.27281 11.2603 9.46781C11.2101 9.78241 11.2054 9.7861 10.8587 9.7861C10.5125 9.7861 10.508 9.78257 10.508 9.50992C10.508 9.3154 10.4552 9.19676 10.3297 9.10885C10.1224 8.96358 10.1118 8.96262 9.92647 9.07059ZM2.51872 10.0588L2.24599 10.3316V11.2701V12.2086L2.51872 12.4813L2.79144 12.754H3.72995H4.66845L4.94118 12.4813L5.2139 12.2086V11.3129C5.2139 9.90257 5.1057 9.79043 3.74198 9.78786L2.79144 9.7861L2.51872 10.0588ZM4.47497 11.25L4.45187 11.992H3.72995H3.00802L2.98436 11.3573C2.97136 11.0083 2.97922 10.6745 3.00193 10.6153C3.03209 10.5367 3.23695 10.508 3.77053 10.508H4.49799L4.47497 11.25ZM0.176791 11.3559C0.0111498 11.4719 0 11.5408 0 12.4485C0 13.6487 0.0908021 13.9723 0.559251 14.4407C1.0277 14.9092 1.35128 15 2.55152 15C3.45922 15 3.52813 14.9889 3.64412 14.8232C3.7496 14.6727 3.75185 14.6221 3.65928 14.4823C3.56174 14.3349 3.44495 14.3141 2.51342 14.2781C0.927273 14.2167 0.783289 14.0727 0.721925 12.4866C0.685909 11.5551 0.665134 11.4383 0.517701 11.3407C0.377888 11.2482 0.327273 11.2504 0.176791 11.3559ZM6.19436 11.3548C6.04003 11.4629 6.01604 11.5526 6.01604 12.0206C6.01604 12.5932 6.09521 12.754 6.37701 12.754C6.61765 12.754 6.73797 12.6016 6.73797 12.2968V12.0321H7.32168C8.16177 12.0321 8.48078 11.7695 8.1016 11.3904C7.96308 11.2518 7.83425 11.2299 7.15693 11.2299C6.5769 11.2299 6.32615 11.2624 6.19436 11.3548ZM10.6777 11.3609C10.5599 11.4433 10.508 11.5656 10.508 11.7602V12.0409L10.127 12.0164C9.74775 11.9921 9.74583 11.9905 9.70588 11.6711C9.67027 11.3864 9.63906 11.3472 9.42906 11.3233C9.2716 11.3054 9.15754 11.3441 9.08815 11.4389C8.94273 11.6378 8.9558 12.3573 9.10885 12.5757C9.23102 12.7502 9.26912 12.754 10.8976 12.754C12.0848 12.754 12.5891 12.7264 12.6578 12.6578C12.7136 12.6019 12.754 12.3343 12.754 12.0206C12.754 11.5539 12.7297 11.4626 12.5772 11.3559C12.322 11.1771 12.0805 11.3524 12.0473 11.7404L12.0224 12.0321H11.6262C11.2329 12.0321 11.2299 12.0302 11.2287 11.7714C11.2267 11.3367 10.9774 11.1509 10.6777 11.3609ZM14.4549 11.3559C14.2898 11.4715 14.2781 11.5418 14.2779 12.4177C14.2778 13.4579 14.1822 13.7699 13.7711 14.0718C13.578 14.2137 13.3916 14.2438 12.4972 14.2781C11.5549 14.3142 11.4384 14.3347 11.3407 14.4823C11.2482 14.6221 11.2504 14.6727 11.3559 14.8232C11.4719 14.9889 11.5408 15 12.4485 15C13.6481 15 13.9718 14.9091 14.4426 14.4404C14.9228 13.9624 15.014 13.6186 14.9836 12.4027C14.9623 11.546 14.9433 11.4387 14.7958 11.3409C14.6559 11.2482 14.6055 11.2504 14.4549 11.3559Z" fill="black"/>
</svg>
