<svg width="13" height="16" viewBox="0 0 13 16" fill="none" xmlns="http://www.w3.org/2000/svg">
<path fill-rule="evenodd" clip-rule="evenodd" d="M4.75301 0.138098C4.07085 0.469393 3.61113 1.13595 3.51978 1.92601L3.47469 2.31539L2.17593 2.33654C0.6604 2.3613 0.656842 2.36295 0.575695 3.08007L0.529716 3.48669H0.264858H0V4.05972V4.63275L0.213816 4.67551C0.331432 4.69905 0.593142 4.71827 0.795395 4.71827H1.16316V9.30672V13.8952L1.33695 14.2626C1.52504 14.6601 1.87576 15.0115 2.23361 15.161C2.41602 15.2373 3.22605 15.2551 6.50055 15.2551C11.0593 15.2551 10.7941 15.2849 11.3097 14.7142C11.7905 14.1821 11.7684 14.4406 11.7684 9.32835V4.71827H12.1704C12.3915 4.71827 12.6686 4.69905 12.7862 4.67551L13 4.63275V4.05972V3.48669H12.6921H12.3842V3.11421C12.3842 2.81918 12.3499 2.70177 12.2192 2.54974L12.0542 2.35775L10.7482 2.33647L9.44211 2.31526V2.01407C9.44211 1.29879 8.93456 0.507777 8.25986 0.171556C7.91741 0.000914156 7.87944 -0.00271217 6.46948 0.000640459C5.18276 0.00365098 4.99946 0.0183615 4.75301 0.138098ZM7.69805 1.2589C7.99 1.3809 8.20991 1.72779 8.21025 2.06696L8.21053 2.32354H6.46579H4.72105L4.72256 2.13538C4.72516 1.80976 4.95608 1.40163 5.20794 1.27751C5.5211 1.12329 7.34083 1.10961 7.69805 1.2589ZM10.6053 9.23023V13.7422L10.4402 13.9342L10.2751 14.1262L6.67789 14.1461C2.88723 14.1672 2.60814 14.1488 2.44722 13.8673C2.3803 13.7502 2.3556 12.6903 2.33904 9.21696L2.31749 4.71827H6.46141H10.6053V9.23023ZM3.55789 9.40511V12.9288H4.13947H4.72105V9.40511V5.88143H4.13947H3.55789V9.40511ZM5.88421 9.40511V12.9288H6.46579H7.04737V9.40511V5.88143H6.46579H5.88421V9.40511ZM8.27895 9.40511V12.9288H8.86053H9.44211V9.40511V5.88143H8.86053H8.27895V9.40511Z" fill="#FD9149"/>
</svg>
