<svg width="19" height="20" viewBox="0 0 19 20" fill="none" xmlns="http://www.w3.org/2000/svg">
<path fill-rule="evenodd" clip-rule="evenodd" d="M9.1505 0.0173341C8.64796 0.101673 8.08494 0.471137 7.76231 0.928277C7.61936 1.13085 7.53733 1.30077 7.47009 1.5337C7.42215 1.69974 7.40088 1.74407 7.34405 1.7965C7.30647 1.83119 7.2563 1.85955 7.23257 1.85955C7.20884 1.85955 7.11777 1.82878 7.03018 1.79114C6.805 1.69445 6.61325 1.66938 6.41303 1.71049C6.0956 1.77568 5.91581 1.91582 5.75598 2.22271C5.60073 2.52078 5.54006 2.53828 5.19232 2.38518C4.78436 2.20558 4.54737 2.15781 4.15337 2.1758C3.76493 2.19351 3.46428 2.29184 3.12761 2.51129C2.81895 2.71249 2.49814 3.08525 2.34725 3.41802C2.23263 3.67081 2.18824 3.86339 2.17743 4.1547C2.16244 4.55851 2.21463 4.81137 2.39564 5.21209C2.51463 5.47552 2.53861 5.57226 2.50134 5.63865C2.48537 5.66711 2.45068 5.70079 2.42426 5.71348C2.39785 5.72615 2.30824 5.76849 2.2251 5.80756C2.1137 5.85991 2.03976 5.91285 1.94378 6.00905C1.78742 6.16575 1.71482 6.29326 1.67604 6.47922C1.64121 6.64625 1.65051 6.72477 1.73847 7.00741C1.77446 7.12299 1.80389 7.23934 1.80389 7.26596C1.80389 7.34591 1.71278 7.41585 1.53338 7.47367C1.17165 7.59024 0.910626 7.74293 0.654079 7.98801C0.299205 8.32707 0.108856 8.67872 0.029154 9.14254C-0.118958 10.0044 0.308595 10.9195 1.05426 11.3364C1.12358 11.3752 1.32153 11.4581 1.49415 11.5206C1.66676 11.5831 1.81798 11.6443 1.83018 11.6565C1.86487 11.6913 1.85094 11.8486 1.80093 11.9872C1.7616 12.0961 1.75539 12.1491 1.75539 12.3756C1.75539 12.632 1.75681 12.6408 1.818 12.7651C1.88899 12.9093 2.04917 13.0742 2.20163 13.1601C2.44126 13.2951 2.50705 13.3378 2.52422 13.3696C2.55029 13.4179 2.51675 13.5282 2.39531 13.7938C2.25968 14.0905 2.20033 14.2837 2.17126 14.5236C2.10136 15.1004 2.33891 15.7751 2.76427 16.2079C3.20205 16.6534 3.73938 16.8607 4.38242 16.832C4.74799 16.8157 5.00948 16.7373 5.37378 16.5347C5.47516 16.4783 5.5803 16.4268 5.60744 16.4203C5.68037 16.4029 5.75006 16.4682 5.82062 16.62C5.94759 16.8932 5.96846 16.9273 6.07249 17.0314C6.20518 17.164 6.37774 17.2573 6.56184 17.296C6.72668 17.3305 6.84076 17.3208 7.06727 17.253C7.15336 17.2273 7.23903 17.2062 7.25766 17.2062C7.33468 17.2062 7.40465 17.2994 7.47954 17.5016C7.68655 18.0607 7.92826 18.3855 8.33856 18.656C8.9857 19.0827 9.83006 19.1251 10.4958 18.7644C10.9839 18.4999 11.3027 18.1093 11.5166 17.5135C11.5447 17.4352 11.5929 17.3211 11.6236 17.2599C11.6956 17.1167 11.7327 17.1063 11.9181 17.1771C12.3855 17.3558 12.5276 17.3613 12.8391 17.2131C13.0267 17.1239 13.1606 16.9884 13.2688 16.7781C13.3151 16.6881 13.3708 16.5948 13.3926 16.5708C13.4468 16.5111 13.5607 16.5136 13.6971 16.5776C13.9087 16.6769 14.0979 16.7449 14.2628 16.781C15.139 16.9727 16.0124 16.6274 16.4921 15.8997C16.8391 15.3733 16.9319 14.6816 16.7345 14.0935C16.7089 14.0175 16.6437 13.8586 16.5895 13.7404C16.4808 13.5038 16.464 13.3951 16.5271 13.338C16.5469 13.32 16.6347 13.2755 16.7221 13.2392C16.987 13.1292 17.1515 12.9752 17.2556 12.7396C17.3626 12.4977 17.3659 12.2599 17.2662 11.9721C17.1645 11.6788 17.1858 11.6263 17.437 11.5496C17.9596 11.3902 18.3893 11.0799 18.6633 10.664C18.7967 10.4614 18.8807 10.27 18.9503 10.0097C18.994 9.84602 19 9.78578 19 9.50377C19.0001 9.21578 18.9948 9.16425 18.9474 8.99031C18.8443 8.61239 18.6603 8.29828 18.3728 8.00945C18.1535 7.78922 17.9563 7.66282 17.6455 7.54325C17.2981 7.40959 17.2532 7.38898 17.1984 7.33817C17.1378 7.28204 17.1378 7.22516 17.1983 7.0499C17.2706 6.84042 17.2934 6.65875 17.2681 6.49523C17.2236 6.20882 17.064 6.00237 16.7394 5.81161C16.636 5.75083 16.5377 5.6817 16.5211 5.65797C16.471 5.58646 16.4859 5.51043 16.5959 5.27541C16.7777 4.88694 16.8401 4.6339 16.8401 4.28516C16.8401 3.84922 16.7238 3.46412 16.4776 3.08509C16.3583 2.90136 16.0209 2.58228 15.823 2.46597C15.4774 2.26285 15.1465 2.17068 14.7614 2.17023C14.3862 2.1698 14.1283 2.23565 13.7357 2.43219C13.4549 2.57275 13.3906 2.59051 13.3113 2.54949C13.2468 2.51612 13.1734 2.41632 13.1733 2.36174C13.1731 2.2938 13.0315 2.05184 12.9342 1.95328C12.6859 1.70184 12.3642 1.62906 11.9625 1.73344C11.7092 1.79925 11.6689 1.79755 11.6206 1.71889C11.5994 1.68422 11.5554 1.58599 11.523 1.50062C11.3496 1.04428 11.2621 0.899524 11.0002 0.635934C10.6485 0.281913 10.3188 0.110423 9.82876 0.026511C9.64706 -0.00460909 9.30846 -0.00918786 9.1505 0.0173341ZM7.59311 3.11132C7.61785 3.12754 7.69507 3.21266 7.7647 3.30049C8.20061 3.85029 8.68385 4.13086 9.32752 4.20784C9.77796 4.26172 10.3567 4.09624 10.7481 3.80171C10.8176 3.74946 10.9938 3.58358 11.1397 3.43308C11.2857 3.2826 11.4171 3.15946 11.4318 3.15946C11.4464 3.15946 11.5434 3.22009 11.6473 3.29418C11.9021 3.47596 11.9979 3.51005 12.3001 3.5265C12.4335 3.53375 12.5619 3.55028 12.5855 3.56323C12.6533 3.60051 12.6651 3.69145 12.6541 4.09463C12.6427 4.51408 12.6617 4.70243 12.7404 4.95364C12.8285 5.23506 12.9729 5.46677 13.216 5.7169C13.4762 5.98462 13.7057 6.14239 13.9813 6.24297C14.2444 6.33903 14.4107 6.36072 14.8836 6.36072C15.3056 6.36072 15.3095 6.36111 15.3552 6.40674C15.4096 6.46116 15.443 6.56911 15.4431 6.69132C15.4433 6.88394 15.5376 7.12033 15.6775 7.27946C15.7867 7.4035 15.8506 7.50621 15.8506 7.55731C15.8506 7.62789 15.8025 7.68759 15.632 7.8287C15.3428 8.06796 15.191 8.25237 15.0386 8.54986C14.8775 8.86438 14.803 9.16332 14.803 9.4951C14.803 10.1795 15.1269 10.8106 15.6969 11.2367C15.8359 11.3406 15.8839 11.3967 15.891 11.4633C15.8986 11.5357 15.884 11.5679 15.8045 11.6533C15.6208 11.8507 15.5409 12.0339 15.4941 12.3655C15.4467 12.7007 15.442 12.7044 15.1153 12.669C14.6631 12.6201 14.3153 12.6497 14.0021 12.7641C13.3951 12.9856 12.9598 13.4483 12.7255 14.1214L12.6613 14.3057L12.6505 14.8361L12.6397 15.3665L12.5852 15.4133C12.5456 15.4474 12.5077 15.4601 12.4455 15.4601C12.224 15.4601 11.9893 15.5562 11.7935 15.727C11.6368 15.8637 11.5671 15.9061 11.4992 15.9062C11.42 15.9063 11.3696 15.8657 11.2286 15.6877C10.7057 15.0279 10.0802 14.7462 9.29781 14.8179C8.68967 14.8736 8.25587 15.1177 7.78171 15.6709C7.61921 15.8605 7.56702 15.867 7.37975 15.7206C7.15446 15.5446 6.98549 15.4853 6.64313 15.4623C6.43521 15.4484 6.41206 15.443 6.37731 15.4002C6.3432 15.3582 6.34053 15.3342 6.35162 15.169C6.38565 14.6624 6.38595 14.6137 6.35603 14.431C6.23207 13.6743 5.73919 13.054 5.04111 12.7761C4.74587 12.6586 4.6268 12.6406 4.13523 12.6388C3.6 12.6368 3.62756 12.6494 3.58973 12.3907C3.53923 12.0453 3.4624 11.8699 3.2698 11.66C3.19984 11.5838 3.14264 11.5061 3.14268 11.4875C3.14282 11.4216 3.21856 11.3311 3.41475 11.1622C3.73967 10.8824 3.95388 10.5789 4.08467 10.213C4.3992 9.33294 4.09262 8.34498 3.33375 7.793C3.08285 7.61051 3.06696 7.54348 3.22578 7.33763C3.36549 7.15657 3.39015 7.11503 3.44597 6.96673C3.47687 6.88462 3.49821 6.77874 3.50528 6.67237C3.51814 6.47913 3.54674 6.39589 3.61583 6.35063C3.66941 6.31551 3.68754 6.31594 4.06239 6.3615C4.64607 6.43243 5.25809 6.22409 5.70829 5.80122C6.07738 5.45455 6.30848 4.98625 6.36373 4.47306C6.3848 4.27742 6.38181 4.21568 6.33158 3.80516C6.30939 3.62374 6.39702 3.55577 6.69249 3.52531C6.90785 3.50312 7.04946 3.43599 7.24701 3.26248C7.46677 3.06949 7.50425 3.0531 7.59311 3.11132Z" fill="url(#paint0_linear_2033_1656)"/>
<defs>
<linearGradient id="paint0_linear_2033_1656" x1="9" y1="4" x2="9" y2="14.5" gradientUnits="userSpaceOnUse">
<stop stop-color="#FFD588"/>
<stop offset="1" stop-color="#FFD588" stop-opacity="0"/>
</linearGradient>
</defs>
</svg>
