<svg width="13" height="15" viewBox="0 0 13 15" fill="none" xmlns="http://www.w3.org/2000/svg">
<path fill-rule="evenodd" clip-rule="evenodd" d="M3.26761 0.0294878C3.21681 0.0497441 3.11288 0.123073 3.03672 0.1924C2.90866 0.30889 2.89819 0.370951 2.89819 1.01571V1.71304H1.5252C0.539409 1.71304 0.131389 1.73385 0.0783162 1.78692C-0.0261054 1.89135 -0.0261054 4.30536 0.0783162 4.40978C0.185508 4.51697 12.8145 4.51697 12.9217 4.40978C13.0261 4.30536 13.0261 1.89135 12.9217 1.78692C12.8684 1.7336 12.4401 1.71304 11.3825 1.71304H9.9171V1.01571C9.9171 0.362824 9.90786 0.309751 9.77198 0.182118C9.48421 -0.0882328 8.9206 -0.0268482 8.74913 0.293559C8.71422 0.358699 8.68571 0.704719 8.68571 1.0625V1.71304H6.40765H4.12958V1.03923C4.12958 0.429073 4.11647 0.350141 3.99093 0.204222C3.85092 0.0414322 3.46882 -0.0508602 3.26761 0.0294878ZM4.12958 2.40736C4.12958 3.196 4.07546 3.33355 3.72759 3.42966C3.45503 3.50489 3.11855 3.41636 2.99233 3.2362C2.92134 3.1348 2.89819 2.93088 2.89819 2.40736V1.71304H3.51389H4.12958V2.40736ZM9.9171 2.44233C9.9171 3.07545 9.90195 3.18529 9.80246 3.27536C9.62735 3.43384 9.33348 3.4975 9.08893 3.42996C8.73977 3.33355 8.68571 3.19649 8.68571 2.40736V1.71304H9.30141H9.9171V2.44233ZM0.00443299 9.74784V14.5195H6.5H12.9956V9.74784V4.97622H6.5H0.00443299V9.74784ZM12.3649 9.76323L12.3491 13.873H6.5H0.650911L0.634965 9.8402C0.62616 7.62216 0.632256 5.7728 0.648448 5.73044C0.67166 5.66961 1.90483 5.65348 6.52931 5.65348H12.3807L12.3649 9.76323ZM1.39411 6.30433C1.31666 6.38184 1.29757 6.55048 1.29831 7.15091C1.29887 7.56336 1.32177 7.93616 1.34923 7.97951C1.38685 8.0388 1.61804 8.05395 2.28724 8.04108L3.17525 8.0239L3.19243 7.16667C3.20536 6.52222 3.19009 6.29706 3.13086 6.25944C3.08758 6.23199 2.70086 6.20908 2.27148 6.20853C1.64304 6.20779 1.47206 6.22644 1.39411 6.30433ZM4.17022 6.28512C4.07743 6.35297 4.06641 6.46595 4.08149 7.19327L4.09879 8.0239H5.05312H6.00744L6.02462 7.16667C6.03755 6.52222 6.02228 6.29706 5.96305 6.25944C5.82994 6.17497 4.29077 6.19701 4.17022 6.28512ZM6.97538 6.25944C6.91615 6.29706 6.90088 6.52222 6.91381 7.16667L6.93099 8.0239H7.88531H8.83964L8.85688 7.20121C8.86845 6.64715 8.8509 6.35063 8.80313 6.29306C8.74888 6.22774 8.53481 6.20785 7.89319 6.20853C7.43167 6.20908 7.01866 6.23199 6.97538 6.25944ZM9.80757 6.25944C9.74834 6.29706 9.73307 6.52222 9.746 7.16667L9.76318 8.0239H10.6867H11.6103L11.6274 7.16667C11.6404 6.52222 11.6251 6.29706 11.5659 6.25944C11.5226 6.23199 11.1269 6.20951 10.6867 6.20951C10.2465 6.20951 9.85085 6.23199 9.80757 6.25944ZM1.37983 8.87085C1.32664 8.95741 1.35083 10.5955 1.40618 10.6509C1.43635 10.681 1.84677 10.698 2.31815 10.6886L3.17525 10.6714V9.77863V8.88587L2.29186 8.85509C1.80595 8.83815 1.39559 8.84523 1.37983 8.87085ZM4.12626 8.88279C4.03784 8.97157 4.05188 10.5383 4.14189 10.6283C4.22704 10.7134 5.83302 10.7328 5.96305 10.6503C6.02228 10.6127 6.03755 10.3875 6.02462 9.7431L6.00744 8.88587L5.09597 8.85509C4.55786 8.83692 4.16067 8.84825 4.12626 8.88279ZM6.92569 8.84998C6.91165 8.86407 6.9002 9.26976 6.9002 9.75154C6.9002 10.4934 6.9151 10.6331 6.9976 10.6648C7.18619 10.7371 8.71878 10.706 8.79654 10.6283C8.90274 10.5221 8.89991 8.92293 8.79346 8.88624C8.69082 8.85084 6.95826 8.81716 6.92569 8.84998ZM10.6559 8.85509L9.76318 8.88587V9.77863V10.6714H10.6867H11.6103L11.6274 9.78349C11.6369 9.29512 11.623 8.87953 11.5967 8.85995C11.5702 8.84031 11.1469 8.83815 10.6559 8.85509ZM10.6098 11.4871L9.73239 11.506V12.397V13.2881H10.6867H11.641V12.3645C11.641 11.6595 11.6228 11.4442 11.5641 11.4545C11.5218 11.462 11.0923 11.4766 10.6098 11.4871ZM1.33476 11.6C1.28612 11.7267 1.28612 13.064 1.33476 13.1907C1.36653 13.2735 1.50974 13.2881 2.28909 13.2881H3.20604V12.3953V11.5026H2.28909C1.50974 11.5026 1.36653 11.5172 1.33476 11.6ZM4.09553 11.5812C4.07829 11.6262 4.07195 12.0217 4.08149 12.4602L4.09879 13.2573H5.05312H6.00744V12.3953V11.5334L5.06722 11.5164C4.32986 11.503 4.12016 11.517 4.09553 11.5812ZM6.92772 11.5812C6.91048 11.6262 6.90414 12.0217 6.91368 12.4602L6.93099 13.2573H7.88531H8.83964V12.3953V11.5334L7.89941 11.5164C7.16206 11.503 6.95235 11.517 6.92772 11.5812Z" fill="url(#paint0_linear_1898_1226)"/>
<defs>
<linearGradient id="paint0_linear_1898_1226" x1="6.5" y1="0" x2="6.5" y2="14.5195" gradientUnits="userSpaceOnUse">
<stop stop-color="#FD9149"/>
<stop offset="1" stop-color="#FFD588"/>
</linearGradient>
</defs>
</svg>
