<svg width="17" height="17" viewBox="0 0 17 17" fill="none" xmlns="http://www.w3.org/2000/svg">
<path d="M11.6373 16.1918C10.656 16.1986 9.97611 16.0532 9.11629 15.6542C8.41302 15.3301 7.99784 15.0377 7.00057 14.1819L7.00033 14.1817C4.91286 12.3829 2.8329 10.3387 2.17038 9.43035L2.17017 9.43005C1.60594 8.65251 1.14134 7.55796 0.942781 6.55162C0.872588 6.20051 0.84421 5.66462 0.850969 5.14758C0.857715 4.63149 0.899715 4.11367 0.977947 3.80072L0.978251 3.79955C1.28792 2.60217 1.9538 1.66657 2.86889 1.21907C3.13838 1.08104 3.50005 0.947801 3.68536 0.910731L3.68678 0.910461C4.02938 0.845367 4.30565 0.827435 4.54927 0.884024C4.79788 0.941772 4.9965 1.07318 5.19131 1.27495C5.32399 1.4078 5.40973 1.52758 5.51922 1.79376C5.62528 2.05157 5.75829 2.45794 5.98571 3.16696L5.98578 3.16717C6.16179 3.71868 6.29474 4.14902 6.37936 4.49689C6.46382 4.84411 6.50316 5.12059 6.48504 5.36216C6.44759 5.86156 6.16598 6.17303 5.6994 6.62961L5.69903 6.62997C5.46376 6.85861 5.30531 7.04071 5.20614 7.19447C5.10782 7.34689 5.07316 7.46313 5.07316 7.56295C5.07316 7.56052 5.0731 7.55921 5.07323 7.55919C5.07362 7.55913 5.07591 7.57235 5.0881 7.60458C5.10159 7.6402 5.12216 7.68639 5.14899 7.74046C5.20247 7.8482 5.27682 7.97927 5.35808 8.10606C5.89225 8.93366 6.76977 9.89188 7.61501 10.6439C8.03718 11.0194 8.4477 11.3404 8.79943 11.5663C8.97537 11.6794 9.13397 11.767 9.27002 11.8258C9.40868 11.8858 9.5124 11.9108 9.58215 11.9108C9.73491 11.9108 9.82017 11.8958 9.94421 11.8174C10.0837 11.7292 10.2667 11.5635 10.5989 11.2415L10.5988 11.2415L10.6003 11.2401C10.8991 10.9581 11.1217 10.7707 11.3368 10.6562C11.5598 10.5376 11.7669 10.501 12.0258 10.501C12.0625 10.501 12.1052 10.5112 12.1386 10.5201C12.1773 10.5304 12.2243 10.5449 12.2773 10.5626C12.3836 10.5981 12.5211 10.6485 12.6785 10.7091C12.9939 10.8303 13.395 10.9942 13.7996 11.1658C14.2042 11.3374 14.6135 11.5172 14.9453 11.6704C15.2709 11.8206 15.5368 11.9519 15.6422 12.0247L15.6422 12.0247L15.6437 12.0258C15.7765 12.12 15.8991 12.2925 15.9873 12.4637C16.076 12.6357 16.1458 12.8371 16.15 13.0036L16.15 13.0036V13.0074C16.15 13.0534 16.137 13.109 16.1233 13.1582C16.1082 13.2122 16.0871 13.2758 16.0619 13.3444C16.0115 13.4818 15.9425 13.6455 15.8668 13.8038L15.8668 13.8038L15.866 13.8054C15.6427 14.259 15.4576 14.5071 15.0454 14.9193L15.0445 14.9201C14.139 15.8118 13.1389 16.1849 11.6373 16.1918ZM11.6373 16.1918C11.6372 16.1918 11.6371 16.1918 11.6371 16.1918L11.6364 16.0418L11.6374 16.1918C11.6374 16.1918 11.6373 16.1918 11.6373 16.1918ZM4.5821 1.77325L4.58161 1.77287C4.45716 1.67424 4.20216 1.63689 3.86429 1.70268C3.53692 1.76642 3.17153 1.92021 2.86386 2.14533C2.69846 2.26796 2.44171 2.54303 2.30226 2.75221L2.30194 2.75269C1.78822 3.51684 1.61656 4.26072 1.66943 5.53605L1.66945 5.53662C1.7154 6.75754 2.05577 7.81154 2.73862 8.83582C3.01063 9.24383 3.72437 10.0189 4.65073 10.9301C5.57297 11.8373 6.69475 12.8687 7.77275 13.786C9.1426 14.9507 10.2372 15.4017 11.6364 15.4017C12.8804 15.4017 13.7993 15.0563 14.5244 14.3312C14.7354 14.1203 14.9356 13.8494 15.0824 13.5905C15.1557 13.4612 15.2143 13.3373 15.2542 13.2276C15.2949 13.1159 15.3129 13.0277 15.3129 12.9671C15.3129 12.8732 15.2757 12.7873 15.2154 12.73C15.2149 12.7298 15.2074 12.7242 15.1875 12.7122C15.1659 12.6992 15.1364 12.6825 15.0992 12.6624C15.025 12.6223 14.9246 12.571 14.8047 12.5114C14.565 12.3926 14.2512 12.2432 13.9213 12.0904C13.2591 11.7836 12.5418 11.4676 12.2303 11.3562L12.23 11.3561C12.136 11.3222 12.0636 11.3064 11.9976 11.3059C11.9333 11.3054 11.8664 11.3191 11.7838 11.3571C11.6093 11.4374 11.3844 11.6154 11.0055 11.957C10.571 12.3548 10.2484 12.6022 9.93854 12.6998C9.61222 12.8026 9.32197 12.7339 8.97517 12.5728L8.9748 12.5726C8.272 12.2437 7.40904 11.5849 6.6068 10.8164C5.80327 10.0467 5.04849 9.15536 4.56634 8.35181C4.33819 7.97271 4.23712 7.6353 4.32688 7.27034C4.41353 6.91804 4.67248 6.56776 5.08393 6.14281L5.08393 6.14281L5.08499 6.14173C5.36033 5.86303 5.51646 5.68291 5.60528 5.53539C5.68861 5.39698 5.71302 5.28674 5.71302 5.13947C5.71302 5.14077 5.71302 5.14075 5.71281 5.13908C5.71243 5.13598 5.71135 5.12721 5.7083 5.11051C5.7042 5.08807 5.69786 5.05814 5.68922 5.02087C5.67199 4.9465 5.64675 4.84772 5.61516 4.73034C5.55207 4.49586 5.46478 4.19136 5.36849 3.86819C5.17561 3.22076 4.9486 2.50501 4.80949 2.13069C4.7836 2.06173 4.74357 1.9842 4.69912 1.91565C4.65307 1.84461 4.60999 1.79516 4.5821 1.77325Z" fill="black" stroke="black" stroke-width="0.3"/>
</svg>
