<svg width="10" height="11" viewBox="0 0 10 11" fill="none" xmlns="http://www.w3.org/2000/svg">
<path d="M1.53735 0.0851288C1.08922 0.192907 0.913376 0.295012 0.686476 0.572966C0.227002 1.13454 -0.0055712 1.77554 0.000101314 2.46191C0.00577383 2.90437 0.0341364 3.05753 0.232674 3.62478C0.590043 4.64583 0.805598 5.128 1.15162 5.65554C2.00817 6.95454 3.36958 8.27624 4.6232 9.01934C5.13373 9.32566 6.46677 9.83051 7.07373 9.96098C7.69203 10.0858 8.17419 10.0064 8.82653 9.68302C9.62636 9.28028 9.88729 8.92291 9.98373 8.07203C10.0178 7.79408 10.0121 7.77706 9.83057 7.64092C9.72279 7.5615 9.34273 7.34028 8.98536 7.14174C8.628 6.9432 8.20823 6.69928 8.0494 6.5915C7.89057 6.4894 7.6977 6.40431 7.60127 6.40431C7.4311 6.40431 7.23823 6.58016 6.57455 7.32893C6.20016 7.75437 6.12074 7.75437 5.3663 7.2949C4.07297 6.51776 3.29583 5.71794 2.53004 4.35653C2.26343 3.89139 2.28612 3.77226 2.67186 3.42624C3.42063 2.76256 3.59648 2.56969 3.59648 2.39952C3.59648 2.30308 3.51139 2.11022 3.40928 1.95139C3.3015 1.79256 3.05759 1.37279 2.85905 1.01542C2.35987 0.102147 2.26911 -0.00563145 2.04788 4.1008e-05C1.94577 4.1008e-05 1.71887 0.0397491 1.53735 0.0851288Z" fill="black"/>
</svg>
