<svg width="15" height="13" viewBox="0 0 15 13" fill="none" xmlns="http://www.w3.org/2000/svg">
<path d="M5.15889 0.731566C4.8495 0.869802 4.56645 1.13311 4.44138 1.42274L4.32289 1.68605L2.72988 1.7058C1.2422 1.72555 1.1303 1.73213 0.873576 1.87037C0.51153 2.06126 0.156066 2.48255 0.063909 2.83143C0.00466512 3.02891 -0.00850019 4.25329 0.00466512 7.22865L0.0244131 11.3494L0.221893 11.6719C0.346963 11.8694 0.544443 12.0669 0.741923 12.192L1.06447 12.3895L7.44307 12.4092L13.8151 12.4224L14.131 12.2644C14.5128 12.0735 14.6906 11.8892 14.8617 11.5008C14.9934 11.2112 15 11.0861 15 7.07066C15 2.51547 15.0131 2.68003 14.5852 2.23241C14.1245 1.75188 14.0257 1.72555 12.255 1.7058C10.6883 1.68605 10.6686 1.67947 10.6291 1.54123C10.5698 1.29768 10.188 0.896132 9.90498 0.76448C9.66142 0.652575 9.43761 0.639409 7.49573 0.645991C5.87639 0.645991 5.31029 0.66574 5.15889 0.731566ZM9.76016 2.23241L10.0169 2.74586H11.7547C13.5189 2.74586 13.6768 2.76561 13.8612 3.00258C13.9204 3.08157 13.9401 4.06239 13.9467 7.07725V11.0466L13.7822 11.2046L13.6242 11.3691H7.49573H1.36727L1.20929 11.2046L1.04472 11.0466V7.09041V3.12765L1.23562 2.93676L1.42652 2.74586H3.217H5.0009L5.19838 2.30482C5.31029 2.06126 5.42877 1.82429 5.46827 1.77821C5.52093 1.7058 5.95539 1.69263 7.52206 1.7058L9.50344 1.72555L9.76016 2.23241Z" fill="#9C8C8C"/>
<path d="M2.1511 4.39148L2.17743 4.91809H2.69746H3.21749V4.39148V3.86487H2.67771H2.13135L2.1511 4.39148Z" fill="#9C8C8C"/>
<path d="M6.64633 3.97038C5.11257 4.3785 4.07909 5.96492 4.32265 7.5316C4.59912 9.30891 6.30403 10.5662 8.01552 10.2502C9.27281 10.0198 10.2997 9.07194 10.6223 7.84756C11.0567 6.18215 9.9969 4.40483 8.31833 3.9638C7.83779 3.83873 7.12028 3.84531 6.64633 3.97038ZM8.3644 5.09601C8.79228 5.29349 9.2399 5.72136 9.45054 6.1624C9.70068 6.68243 9.70727 7.41969 9.45713 7.95289C8.68037 9.63805 6.36328 9.64463 5.54703 7.96605C5.11915 7.09714 5.41537 5.95176 6.21846 5.33299C6.77798 4.90512 7.69956 4.80638 8.3644 5.09601Z" fill="#9C8C8C"/>
</svg>
