<svg width="9" height="9" viewBox="0 0 9 9" fill="none" xmlns="http://www.w3.org/2000/svg">
<path fill-rule="evenodd" clip-rule="evenodd" d="M0.841484 0.841362C0.485764 1.19708 0.333496 1.38406 0.333496 1.46503C0.333496 1.55152 0.700656 1.94112 1.78813 3.00852C2.58818 3.79383 3.24277 4.46128 3.24277 4.49176C3.24277 4.52223 2.58818 5.20315 1.78813 6.00482C0.898437 6.89634 0.333496 7.49895 0.333496 7.55655C0.333496 7.70132 1.32097 8.66671 1.46905 8.66671C1.55988 8.66671 1.93552 8.32045 3.03384 7.2244C3.82876 6.43111 4.48636 5.77593 4.49513 5.76833C4.50396 5.76079 5.16328 6.4101 5.96032 7.21123C7.07635 8.33303 7.43719 8.66769 7.53014 8.66725C7.67945 8.66656 8.66683 7.70177 8.66683 7.55655C8.66683 7.49886 8.09252 6.88692 7.18552 5.9781L5.70421 4.49388L7.13404 3.08012C7.92043 2.3026 8.58823 1.6208 8.61806 1.56508C8.64789 1.50936 8.65973 1.42415 8.64434 1.37568C8.60174 1.24146 7.65702 0.333374 7.56003 0.333374C7.45583 0.333374 7.1472 0.619074 5.65894 2.09343L4.50016 3.24136L3.51397 2.26774C1.88828 0.662762 1.53512 0.333374 1.4401 0.333374C1.3903 0.333374 1.12092 0.561973 0.841484 0.841362Z" fill="#FD9149"/>
</svg>
