<svg width="25" height="26" viewBox="0 0 25 26" fill="none" xmlns="http://www.w3.org/2000/svg">
<path fill-rule="evenodd" clip-rule="evenodd" d="M10.5997 0.0936089C10.4942 0.145587 10.1664 0.475503 9.87116 0.826642C9.5759 1.17784 8.83933 2.04709 8.23435 2.75836C7.62932 3.46957 6.41055 4.90422 5.52602 5.94643L3.91769 7.84133L2.70827 7.8607C1.61607 7.8782 1.4714 7.89271 1.21601 8.0107C0.794245 8.20554 0.373021 8.6312 0.172662 9.06507C0.00671447 9.4243 0 9.47376 0 10.3381C0 11.4551 0.07518 11.7146 0.545983 12.2231C0.780336 12.4762 0.977038 12.6201 1.25312 12.7404L1.63561 12.907L1.88771 14.2005C2.02632 14.9119 2.34107 16.5191 2.58717 17.7721C3.81139 24.0064 3.72104 23.6703 4.33273 24.2674C4.71493 24.6404 5.16529 24.8866 5.65342 24.9894C6.07302 25.0778 19.1699 25.084 19.6411 24.9961C20.1383 24.9033 20.6545 24.6206 21.0065 24.2485C21.5311 23.6938 21.6227 23.4164 21.9681 21.3393C22.6004 17.5362 23.3502 13.0908 23.3813 12.961C23.399 12.8868 23.4544 12.8261 23.5043 12.8261C23.7054 12.8261 24.189 12.515 24.4759 12.2011C24.9236 11.7113 25 11.4395 25 10.3381C25 9.47376 24.9933 9.4243 24.8273 9.06507C24.627 8.6312 24.2058 8.20554 23.784 8.0107C23.5287 7.89277 23.3839 7.8782 22.2935 7.8607L21.0857 7.84139L19.4757 5.94691C18.5902 4.90488 17.3704 3.47023 16.7651 2.75878C16.1598 2.04733 15.4216 1.17682 15.1248 0.824424C14.4385 0.00949586 14.1819 -0.124556 13.724 0.0926498C13.3216 0.283657 13.1625 0.798165 13.3924 1.16543C13.514 1.35968 13.9379 1.86393 16.9664 5.41729C18.0546 6.69397 18.9538 7.76363 18.9648 7.79427C18.9771 7.8285 16.4752 7.85008 12.5 7.85008C8.58963 7.85008 6.02314 7.82826 6.03519 7.79505C6.04616 7.76477 6.94544 6.69475 8.03357 5.41711C12.0398 0.713333 11.72 1.11525 11.7204 0.782817C11.7207 0.513393 11.5263 0.211475 11.276 0.0926498C11.0225 -0.027614 10.845 -0.0273143 10.5997 0.0936089ZM23.273 9.5535C23.4384 9.69577 23.4412 9.70938 23.4412 10.3581C23.4412 10.9739 23.4315 11.0282 23.2959 11.1726L23.1505 11.3273H12.5H1.84946L1.70408 11.1726C1.56846 11.0282 1.55875 10.9739 1.55875 10.3581C1.55875 9.70938 1.56163 9.69577 1.72698 9.5535L1.8952 9.40884H12.5H23.1048L23.273 9.5535ZM21.7652 13.0809C21.7488 13.1551 21.6688 13.6205 21.5874 14.1151C21.5059 14.6097 21.2481 16.1474 21.0143 17.5323C20.7805 18.9172 20.495 20.6169 20.3797 21.3093C20.2644 22.0018 20.1546 22.6455 20.1357 22.7399C20.1168 22.8343 20.008 23.0148 19.8939 23.1412C19.7348 23.3173 19.614 23.3864 19.3756 23.4377C19.1543 23.4854 17.1629 23.4993 12.4656 23.4861L5.86649 23.4676L5.61781 23.303C5.19329 23.022 5.27362 23.3148 4.40438 18.8813C4.0714 17.1831 3.67944 15.1867 3.53327 14.4448C3.38717 13.7029 3.26757 13.0622 3.26751 13.0209C3.26739 12.9613 5.16001 12.946 12.5311 12.946H21.7948L21.7652 13.0809ZM7.13429 14.9179C6.93849 15.0028 6.69496 15.2805 6.65444 15.4651C6.62074 15.6184 6.7316 16.441 7.1027 18.7913C7.16517 19.187 7.26193 19.821 7.31775 20.2002C7.37362 20.5794 7.45468 20.9768 7.49796 21.0832C7.66331 21.4896 8.22482 21.6409 8.60839 21.3825C8.99922 21.119 9.0259 20.9383 8.84442 19.7842C8.77926 19.37 8.6012 18.2219 8.44862 17.2329C8.2961 16.2438 8.13303 15.3605 8.08621 15.27C8.03939 15.1795 7.93525 15.0623 7.85474 15.0095C7.67878 14.8942 7.30006 14.8461 7.13429 14.9179ZM12.1565 14.9534C12.0499 14.9997 11.9084 15.1268 11.8419 15.2358C11.7254 15.4269 11.721 15.5323 11.721 18.1918C11.721 20.8215 11.7265 20.9585 11.8381 21.1415C11.9025 21.2471 12.0359 21.3753 12.1347 21.4263C12.5023 21.6164 12.9477 21.4929 13.1619 21.1415C13.2735 20.9585 13.279 20.8215 13.279 18.1918C13.279 15.5313 13.2746 15.427 13.1579 15.2356C13.0332 15.0309 12.7271 14.8627 12.4869 14.8668C12.4117 14.8681 12.2629 14.907 12.1565 14.9534ZM17.2382 14.9663C17.124 15.0257 16.9845 15.1552 16.9284 15.2542C16.864 15.3675 16.7243 16.0988 16.5503 17.2326C16.3986 18.2218 16.2339 19.2739 16.1844 19.5707C16.0436 20.4142 16.0185 20.927 16.1097 21.0977C16.3016 21.457 16.8115 21.6178 17.1703 21.4323C17.5303 21.2461 17.5128 21.3179 18.0469 17.8321C18.408 15.4751 18.3994 15.5625 18.2915 15.3403C18.0911 14.9276 17.6285 14.7633 17.2382 14.9663Z" fill="black"/>
</svg>
