<svg width="45" height="51" viewBox="0 0 45 51" fill="none" xmlns="http://www.w3.org/2000/svg">
<path fill-rule="evenodd" clip-rule="evenodd" d="M21.9739 0.293151C21.6845 0.452193 20.915 1.03263 20.264 1.58305C17.6496 3.7931 13.1084 5.8123 9.2153 6.49529C8.13017 6.68563 5.75681 6.84544 3.94088 6.85028C1.7351 6.85613 0.534739 6.96046 0.323762 7.16454C-0.0871427 7.56202 -0.11608 24.5208 0.289564 27.3891C0.661009 30.0185 1.87715 33.5086 3.2435 35.8685C4.79768 38.5526 9.02879 42.6368 12.583 44.884C14.0736 45.8263 16.8844 47.3916 18.8295 48.3621L22.3658 50.1266L23.3536 49.7283C25.2916 48.9471 29.9084 46.4729 32.4964 44.8286C35.9744 42.619 40.2284 38.5017 41.7565 35.866C43.1223 33.5104 44.3387 30.0198 44.7104 27.3891C45.1161 24.5208 45.0871 7.56202 44.6762 7.16454C44.4639 6.95919 43.2667 6.85918 41.0165 6.85918C34.4686 6.85918 29.5327 5.26189 24.8676 1.63318C23.7101 0.732871 22.7039 -0.00203152 22.6315 4.21921e-06C22.5592 0.00229443 22.2632 0.134109 21.9739 0.293151ZM23.7711 3.64296C25.4616 4.96136 28.3098 6.5271 30.5061 7.34522C33.1804 8.34146 35.9081 8.85599 39.5957 9.05956L42.6638 9.22904L42.5609 18.541C42.4673 27.0601 42.411 28.0184 41.9017 29.7979C39.9785 36.5166 35.0486 41.4698 25.6931 46.0839L22.5694 47.6241L21.4825 47.1559C20.8845 46.8984 19.3301 46.1322 18.0279 45.4533C10.5916 41.5772 6.26163 37.5017 4.00244 32.252C2.60873 29.0131 2.37566 26.9026 2.37566 17.5135V9.14939H4.02664C10.1079 9.14939 16.2875 7.26022 20.527 4.10533C21.4675 3.40555 22.3353 2.82281 22.4558 2.81035C22.576 2.79788 23.1679 3.17245 23.7711 3.64296ZM21.4477 8.27784C18.0903 10.9872 15.1082 12.0905 10.523 12.3203C8.88463 12.4025 7.38754 12.5954 7.19603 12.7491C6.92428 12.9674 6.84773 14.4136 6.84773 19.3368C6.84773 27.6678 7.23838 29.6885 9.5365 33.2411C11.3937 36.1125 14.3432 38.4201 19.5884 41.1054L22.4271 42.5587L25.0943 41.2525C30.2554 38.7249 33.5763 36.1591 35.4635 33.2411C37.7616 29.6885 38.1523 27.6678 38.1523 19.3368C38.1523 14.1952 38.0831 12.9733 37.7785 12.7285C37.5627 12.5554 36.1822 12.3824 34.5162 12.3196C30.0147 12.1498 27.7902 11.3332 23.4476 8.25595C22.9559 7.90759 22.4824 7.62666 22.3953 7.63175C22.3082 7.63684 21.8818 7.92744 21.4477 8.27784ZM23.9863 11.3393C27.1373 13.3934 29.624 14.2059 33.5487 14.4645L35.9162 14.6204L35.9078 20.346C35.8986 26.6985 35.7308 27.7869 34.3134 30.687C33.3537 32.6505 31.039 35.1797 28.9451 36.5525C27.2927 37.6358 22.9593 39.94 22.5744 39.94C22.0991 39.94 18.2536 37.9696 16.4495 36.8019C14.0086 35.2219 11.7118 32.7846 10.6866 30.687C9.28133 27.8115 9.11034 26.6993 9.0964 20.346L9.08377 14.6204L11.4513 14.4645C15.3678 14.2067 18.5667 13.1425 21.1847 11.2266C21.7634 10.8032 22.3138 10.4487 22.4079 10.439C22.5018 10.4296 23.2121 10.8347 23.9863 11.3393ZM24.3414 23.7798C21.8818 25.1073 19.751 26.1947 19.6063 26.1957C19.4616 26.1969 19.0252 25.7114 18.6364 25.1167C17.5318 23.4268 16.0584 21.8728 15.5609 21.8728C14.9872 21.8728 14.4766 22.3586 14.4766 22.9044C14.4766 23.482 18.3152 28.5666 18.9129 28.7806C19.2435 28.8986 20.421 28.4019 22.6576 27.2003C24.4519 26.2364 26.8526 24.9582 27.9928 24.3599C30.1765 23.2141 30.8541 22.4374 30.2669 21.7532C30.0831 21.5389 29.6811 21.3644 29.3733 21.3649C29.0653 21.3651 26.8011 22.4519 24.3414 23.7798Z" fill="#FD9149"/>
<path fill-rule="evenodd" clip-rule="evenodd" d="M21.9739 0.293151C21.6845 0.452193 20.915 1.03263 20.264 1.58305C17.6496 3.7931 13.1084 5.8123 9.2153 6.49529C8.13017 6.68563 5.75681 6.84544 3.94088 6.85028C1.7351 6.85613 0.534739 6.96046 0.323762 7.16454C-0.0871427 7.56202 -0.11608 24.5208 0.289564 27.3891C0.661009 30.0185 1.87715 33.5086 3.2435 35.8685C4.79768 38.5526 9.02879 42.6368 12.583 44.884C14.0736 45.8263 16.8844 47.3916 18.8295 48.3621L22.3658 50.1266L23.3536 49.7283C25.2916 48.9471 29.9084 46.4729 32.4964 44.8286C35.9744 42.619 40.2284 38.5017 41.7565 35.866C43.1223 33.5104 44.3387 30.0198 44.7104 27.3891C45.1161 24.5208 45.0871 7.56202 44.6762 7.16454C44.4639 6.95919 43.2667 6.85918 41.0165 6.85918C34.4686 6.85918 29.5327 5.26189 24.8676 1.63318C23.7101 0.732871 22.7039 -0.00203152 22.6315 4.21921e-06C22.5592 0.00229443 22.2632 0.134109 21.9739 0.293151ZM23.7711 3.64296C25.4616 4.96136 28.3098 6.5271 30.5061 7.34522C33.1804 8.34146 35.9081 8.85599 39.5957 9.05956L42.6638 9.22904L42.5609 18.541C42.4673 27.0601 42.411 28.0184 41.9017 29.7979C39.9785 36.5166 35.0486 41.4698 25.6931 46.0839L22.5694 47.6241L21.4825 47.1559C20.8845 46.8984 19.3301 46.1322 18.0279 45.4533C10.5916 41.5772 6.26163 37.5017 4.00244 32.252C2.60873 29.0131 2.37566 26.9026 2.37566 17.5135V9.14939H4.02664C10.1079 9.14939 16.2875 7.26022 20.527 4.10533C21.4675 3.40555 22.3353 2.82281 22.4558 2.81035C22.576 2.79788 23.1679 3.17245 23.7711 3.64296ZM21.4477 8.27784C18.0903 10.9872 15.1082 12.0905 10.523 12.3203C8.88463 12.4025 7.38754 12.5954 7.19603 12.7491C6.92428 12.9674 6.84773 14.4136 6.84773 19.3368C6.84773 27.6678 7.23838 29.6885 9.5365 33.2411C11.3937 36.1125 14.3432 38.4201 19.5884 41.1054L22.4271 42.5587L25.0943 41.2525C30.2554 38.7249 33.5763 36.1591 35.4635 33.2411C37.7616 29.6885 38.1523 27.6678 38.1523 19.3368C38.1523 14.1952 38.0831 12.9733 37.7785 12.7285C37.5627 12.5554 36.1822 12.3824 34.5162 12.3196C30.0147 12.1498 27.7902 11.3332 23.4476 8.25595C22.9559 7.90759 22.4824 7.62666 22.3953 7.63175C22.3082 7.63684 21.8818 7.92744 21.4477 8.27784ZM23.9863 11.3393C27.1373 13.3934 29.624 14.2059 33.5487 14.4645L35.9162 14.6204L35.9078 20.346C35.8986 26.6985 35.7308 27.7869 34.3134 30.687C33.3537 32.6505 31.039 35.1797 28.9451 36.5525C27.2927 37.6358 22.9593 39.94 22.5744 39.94C22.0991 39.94 18.2536 37.9696 16.4495 36.8019C14.0086 35.2219 11.7118 32.7846 10.6866 30.687C9.28133 27.8115 9.11034 26.6993 9.0964 20.346L9.08377 14.6204L11.4513 14.4645C15.3678 14.2067 18.5667 13.1425 21.1847 11.2266C21.7634 10.8032 22.3138 10.4487 22.4079 10.439C22.5018 10.4296 23.2121 10.8347 23.9863 11.3393ZM24.3414 23.7798C21.8818 25.1073 19.751 26.1947 19.6063 26.1957C19.4616 26.1969 19.0252 25.7114 18.6364 25.1167C17.5318 23.4268 16.0584 21.8728 15.5609 21.8728C14.9872 21.8728 14.4766 22.3586 14.4766 22.9044C14.4766 23.482 18.3152 28.5666 18.9129 28.7806C19.2435 28.8986 20.421 28.4019 22.6576 27.2003C24.4519 26.2364 26.8526 24.9582 27.9928 24.3599C30.1765 23.2141 30.8541 22.4374 30.2669 21.7532C30.0831 21.5389 29.6811 21.3644 29.3733 21.3649C29.0653 21.3651 26.8011 22.4519 24.3414 23.7798Z" fill="url(#paint0_linear_520_259)"/>
<defs>
<linearGradient id="paint0_linear_520_259" x1="22.1186" y1="21.3559" x2="22.1186" y2="36.6102" gradientUnits="userSpaceOnUse">
<stop stop-color="#FFD588"/>
<stop offset="1" stop-color="#FFD588" stop-opacity="0"/>
</linearGradient>
</defs>
</svg>
