<svg width="12" height="15" viewBox="0 0 12 15" fill="none" xmlns="http://www.w3.org/2000/svg">
<path fill-rule="evenodd" clip-rule="evenodd" d="M5.3553 0.418032C4.11441 1.45803 2.80943 1.95255 0.997278 2.06971C0.621811 2.09397 0.267818 2.14804 0.210576 2.18991C0.0503518 2.30706 0.00422844 2.76804 0.000162475 4.295C-0.00892242 7.65508 0.361716 9.40929 1.43132 11.0683C1.79561 11.6332 2.57621 12.4464 3.20097 12.9119C3.72262 13.3006 5.02964 13.9824 5.66221 14.1959L6.02326 14.3179L6.48811 14.1376C7.733 13.655 8.72846 13.0494 9.51542 12.2959C11.3771 10.5134 12.0112 8.47164 11.9999 4.295C11.9958 2.76804 11.9497 2.30706 11.7894 2.18991C11.7322 2.14804 11.3782 2.09397 11.0027 2.06971C9.19059 1.95255 7.8856 1.45803 6.64472 0.418032C6.34784 0.169246 6.08679 0 6.00001 0C5.91322 0 5.65218 0.169246 5.3553 0.418032ZM6.48818 1.56032C6.99522 1.94563 7.98973 2.45832 8.62783 2.66334C9.13315 2.82566 9.85798 2.96466 10.5044 3.02324L11.0011 3.06828L10.9701 5.07598C10.9381 7.15458 10.8956 7.5674 10.6052 8.62589C10.091 10.5004 8.80667 11.9832 6.92349 12.8769C6.16246 13.2381 6.0347 13.2721 5.77765 13.1823C5.65535 13.1396 5.33986 13.0023 5.07652 12.8772C3.19239 11.9822 1.90901 10.5003 1.39479 8.62589C1.10452 7.56778 1.06195 7.15433 1.02987 5.08011L0.998929 3.07648L1.69332 2.99929C2.57633 2.90107 3.31145 2.71575 4.01156 2.41474C4.60468 2.15973 5.35371 1.71514 5.71412 1.40409C5.83642 1.29857 5.95604 1.21109 5.97993 1.20969C6.00382 1.20823 6.23253 1.36604 6.48818 1.56032ZM6.57782 6.54075L5.30047 7.80844L4.72234 7.23958C4.21212 6.7375 4.11759 6.67073 3.91728 6.67073C3.74778 6.67073 3.65706 6.7131 3.55871 6.83813C3.30446 7.16131 3.35999 7.26557 4.2714 8.17698C4.97786 8.88344 5.14679 9.02137 5.30549 9.02137C5.46864 9.02137 5.71056 8.80536 7.0341 7.47776C8.29595 6.21204 8.573 5.90271 8.573 5.75957C8.573 5.51739 8.31437 5.27305 8.05815 5.27305C7.87937 5.27305 7.70314 5.42394 6.57782 6.54075Z" fill="white"/>
</svg>
