<svg width="21" height="20" viewBox="0 0 21 20" fill="none" xmlns="http://www.w3.org/2000/svg">
<g filter="url(#filter0_d_205_1943)">
<circle cx="10.9697" cy="6" r="6" fill="url(#paint0_linear_205_1943)"/>
</g>
<path fill-rule="evenodd" clip-rule="evenodd" d="M9.26422 3.07769C9.1859 3.1451 9.17396 3.18084 9.16257 3.3825L9.14964 3.61098H8.63836H8.12711L8.0484 3.69588L7.96973 3.78078V6.29728V8.81378L8.06351 8.90757L8.1573 9.00136H10.9697H13.7822L13.8759 8.90757L13.9697 8.81378V6.29728V3.78078L13.8911 3.69588L13.8123 3.61098H13.3011H12.7898L12.7769 3.3825C12.7655 3.18084 12.7536 3.1451 12.6752 3.07769C12.5478 2.96808 12.3869 2.97495 12.2667 3.09514C12.1821 3.17978 12.1729 3.2095 12.1729 3.39996V3.61098H10.9697H9.76652V3.39996C9.76652 3.2095 9.75737 3.17978 9.67273 3.09514C9.55254 2.97495 9.39166 2.96808 9.26422 3.07769ZM9.16235 4.41328C9.17842 4.69766 9.24696 4.7821 9.46171 4.7821C9.67645 4.7821 9.74499 4.69766 9.76106 4.41328L9.77377 4.18852H10.9734H12.1729V4.39955C12.1729 4.59001 12.1821 4.61972 12.2667 4.70436C12.3206 4.75823 12.3948 4.79815 12.4411 4.79815C12.6702 4.79815 12.7826 4.65569 12.7826 4.36538V4.18612L13.0794 4.19532L13.3761 4.20456V4.65376V5.10296H10.9697H8.56331L8.55429 4.68755C8.54932 4.45907 8.55246 4.2533 8.56129 4.23033C8.57281 4.2003 8.65796 4.18852 8.8635 4.18852H9.14964L9.16235 4.41328ZM13.3845 7.05216L13.3761 8.40777H10.9697H8.56331L8.55494 7.05216L8.54656 5.69654H10.9697H13.3929L13.3845 7.05216ZM8.96268 6.09941C8.90861 6.15697 8.88561 6.21864 8.88561 6.30617C8.88561 6.3937 8.90861 6.45537 8.96268 6.51293C9.0376 6.59266 9.0512 6.59494 9.45336 6.59494C9.68829 6.59494 9.89499 6.57995 9.93176 6.56029C10.017 6.51466 10.0859 6.34493 10.0645 6.23324C10.0552 6.18434 10.0112 6.11574 9.96686 6.08083C9.89576 6.02494 9.83602 6.0174 9.46296 6.0174C9.05053 6.0174 9.03776 6.01948 8.96268 6.09941ZM10.4549 6.09617C10.3455 6.20561 10.3455 6.40672 10.4549 6.51617C10.5308 6.59208 10.5495 6.59494 10.9697 6.59494C11.39 6.59494 11.4087 6.59208 11.4845 6.51617C11.5994 6.4013 11.5964 6.17645 11.4788 6.08391C11.4028 6.02414 11.3507 6.0174 10.964 6.0174C10.5499 6.0174 10.5307 6.02038 10.4549 6.09617ZM11.9629 6.09617C11.905 6.15412 11.8842 6.20959 11.8842 6.30617C11.8842 6.40275 11.905 6.45822 11.9629 6.51617C12.0382 6.59147 12.0595 6.59494 12.4463 6.59494C12.9646 6.59494 13.0682 6.54543 13.0703 6.2967C13.071 6.20927 13.0491 6.1527 12.9926 6.09617C12.9167 6.02025 12.898 6.0174 12.4777 6.0174C12.0575 6.0174 12.0388 6.02025 11.9629 6.09617ZM8.9579 7.30236C8.87188 7.38838 8.86222 7.41601 8.87772 7.53168C8.91006 7.77274 8.96608 7.79815 9.46536 7.79815H9.90041L9.97787 7.70812C10.0302 7.64728 10.055 7.57968 10.0543 7.49956C10.0522 7.25619 9.94559 7.20456 9.44531 7.20456H9.05569L8.9579 7.30236ZM10.5205 7.24162C10.4142 7.29979 10.3761 7.37045 10.3761 7.50992C10.3761 7.61102 10.3958 7.66108 10.459 7.72037C10.538 7.79468 10.5608 7.79815 10.9714 7.79815C11.4647 7.79815 11.5214 7.77219 11.5537 7.53168C11.5692 7.41601 11.5596 7.38838 11.4735 7.30236L11.3757 7.20456L10.9802 7.20553C10.7564 7.2061 10.5568 7.22176 10.5205 7.24162ZM12.0285 7.24332C11.8635 7.33798 11.8319 7.55731 11.9616 7.70812L12.039 7.79815H12.4777H12.9165L12.9939 7.70812C13.1046 7.57939 13.0983 7.41906 12.9775 7.29835C12.8839 7.20469 12.8831 7.20456 12.4882 7.20553C12.2513 7.20614 12.067 7.22128 12.0285 7.24332Z" fill="white"/>
<defs>
<filter id="filter0_d_205_1943" x="0.969727" y="0" width="20" height="20" filterUnits="userSpaceOnUse" color-interpolation-filters="sRGB">
<feFlood flood-opacity="0" result="BackgroundImageFix"/>
<feColorMatrix in="SourceAlpha" type="matrix" values="0 0 0 0 0 0 0 0 0 0 0 0 0 0 0 0 0 0 127 0" result="hardAlpha"/>
<feOffset dy="4"/>
<feGaussianBlur stdDeviation="2"/>
<feComposite in2="hardAlpha" operator="out"/>
<feColorMatrix type="matrix" values="0 0 0 0 0 0 0 0 0 0 0 0 0 0 0 0 0 0 0.25 0"/>
<feBlend mode="normal" in2="BackgroundImageFix" result="effect1_dropShadow_205_1943"/>
<feBlend mode="normal" in="SourceGraphic" in2="effect1_dropShadow_205_1943" result="shape"/>
</filter>
<linearGradient id="paint0_linear_205_1943" x1="10.9697" y1="0" x2="10.9697" y2="12" gradientUnits="userSpaceOnUse">
<stop stop-color="#FD9149"/>
<stop offset="1" stop-color="#FFD588"/>
</linearGradient>
</defs>
</svg>
