<svg width="25" height="24" viewBox="0 0 25 24" fill="none" xmlns="http://www.w3.org/2000/svg">
<path fill-rule="evenodd" clip-rule="evenodd" d="M5.59707 0.160567C3.10546 0.790168 1.00469 2.75804 0.262676 5.1576C-0.0424184 6.14433 -0.0886231 7.7802 0.160264 8.78968C0.380689 9.684 0.883822 10.7655 1.37933 11.41C1.72349 11.8575 1.79327 12.0491 1.80101 12.5686C1.81971 13.8019 2.64139 14.8451 3.81354 15.1235C4.40372 15.2637 4.41444 15.2744 4.5546 15.8646C4.79861 16.8917 5.69651 17.7266 6.74802 17.9043C7.13469 17.9697 7.19721 18.024 7.19947 18.2972C7.20316 18.7435 7.58138 19.509 7.98567 19.888C8.37865 20.2566 9.08363 20.5791 9.49626 20.5791C9.74217 20.5791 9.79814 20.6654 9.92806 21.246C10.2856 22.8436 12.098 23.7647 13.5679 23.096C14.2255 22.7969 15.317 21.7707 15.6547 21.1341C15.9173 20.6392 15.9722 20.6014 16.5052 20.5502C17.5578 20.4491 18.5749 19.4836 18.7129 18.4546C18.771 18.0216 18.8137 17.9734 19.2033 17.9002C20.3769 17.6802 21.2079 16.8497 21.4278 15.6769C21.5017 15.2837 21.5477 15.2435 21.9937 15.1837C22.6599 15.0943 23.3968 14.5519 23.7198 13.9133C24.0241 13.3117 24.0739 12.2915 23.827 11.7128C23.6898 11.3911 23.7109 11.305 24.0755 10.7006C24.7287 9.61803 25 8.56818 25 7.12249C25 5.53795 24.676 4.46857 23.8096 3.19365C22.3256 1.01012 19.8912 -0.141789 17.0892 0.0139741C15.3739 0.109242 14.0354 0.546163 12.9404 1.36808L12.551 1.6602L11.8091 1.17338C10.66 0.419457 9.44648 0.0776844 7.73273 0.0255253C6.72837 -0.00507942 6.09377 0.0350521 5.59707 0.160567ZM9.00706 1.89646C9.743 2.05115 10.7949 2.51963 11.0227 2.79412C11.1613 2.96108 11.0153 3.14411 9.86113 4.24993C8.29088 5.75457 8.09797 6.06871 8.09797 7.12249C8.09797 8.71489 9.15103 9.79082 10.7098 9.79142C11.6887 9.79165 12.0199 9.5885 13.8436 7.86868C15.523 6.28473 15.8347 6.09289 16.4133 6.28628C16.7877 6.41144 22.0131 11.6671 22.3034 12.2106C22.4161 12.4215 22.4092 12.5619 22.2695 12.8962C22.0737 13.3649 21.6154 13.6074 21.1344 13.4967C20.9561 13.4556 20.1945 12.769 19.2777 11.8229C18.4228 10.9406 17.6706 10.2187 17.606 10.2187C17.5415 10.2187 17.2362 10.4752 16.9274 10.7886L16.366 11.3586L18.0334 13.1276C19.3883 14.5652 19.7007 14.9615 19.7007 15.2425C19.7007 15.7481 19.2284 16.1726 18.6641 16.1741C18.24 16.1753 18.1113 16.0729 16.5788 14.5149L14.9453 12.8545L14.346 13.3935C14.0162 13.6899 13.7465 13.982 13.7465 14.0426C13.7465 14.1033 14.4699 14.9149 15.3541 15.8463C16.7437 17.3098 16.9618 17.5922 16.9618 17.928C16.9618 18.1577 16.8645 18.4137 16.7236 18.5546C16.4157 18.8626 15.9298 18.8674 15.8332 18.5634C15.7932 18.4372 15.5453 18.1188 15.2822 17.8557C14.8351 17.4087 14.5235 17.2531 13.7167 17.0745C13.4762 17.0213 13.3893 16.9297 13.3893 16.7299C13.3893 16.5803 13.2487 16.1758 13.0769 15.831C12.7204 15.1156 12.1287 14.661 11.2703 14.4431C10.7364 14.3075 10.7082 14.2789 10.6245 13.7885C10.4514 12.7747 9.5533 11.8997 8.48547 11.7045C8.08796 11.6317 8.04009 11.5811 7.9684 11.1567C7.76119 9.92991 6.59464 8.9839 5.30412 8.99605C4.48982 9.00367 3.99598 9.22481 3.30517 9.89097L2.80739 10.371L2.55994 9.9673C1.89199 8.87768 1.60714 7.42735 1.8259 6.22936C2.18708 4.25088 3.83724 2.50558 5.88692 1.93433C6.5694 1.74415 8.1893 1.72439 9.00706 1.89646ZM18.9862 1.89289C19.8711 2.09676 20.9857 2.71755 21.6624 3.38359C23.0737 4.77248 23.6072 6.7725 23.0382 8.54198C22.5782 9.97254 22.7741 10.0517 20.2327 7.40782C17.6035 4.67268 17.2628 4.44511 15.9106 4.52192C15.4214 4.54967 14.9471 4.65756 14.6768 4.80272C14.4353 4.93241 13.5116 5.7217 12.624 6.55684C10.8714 8.20604 10.6434 8.31727 10.1091 7.78281C9.51055 7.18441 9.62011 6.99876 11.8939 4.75759C14.081 2.60192 14.7406 2.14416 16.022 1.89253C16.7627 1.74701 18.3538 1.74725 18.9862 1.89289ZM5.75926 10.8692C6.48961 11.2469 6.42518 11.8275 5.5536 12.7239C4.75252 13.5476 4.30905 13.6532 3.79758 13.1416C3.34125 12.6854 3.4183 12.3209 4.13042 11.5667C4.96009 10.688 5.20564 10.583 5.75926 10.8692ZM8.44188 13.5079C8.72745 13.6175 8.99944 14.2204 8.91512 14.5566C8.80342 15.0018 7.51779 16.1729 7.14076 16.1729C6.70206 16.1729 6.24418 15.6794 6.24418 15.2065C6.24418 14.9 6.381 14.6881 6.93963 14.1294C7.62806 13.441 7.93577 13.3137 8.44188 13.5079ZM11.3602 16.4336C11.7853 16.8898 11.6778 17.303 10.9299 18.0871C10.3456 18.6997 10.1987 18.7928 9.81707 18.7928C9.28214 18.7928 8.94347 18.4665 8.94347 17.9514C8.94347 17.6693 9.09828 17.433 9.64428 16.8811C10.4394 16.0777 10.9134 15.9539 11.3602 16.4336ZM13.9938 19.1409C14.1853 19.3324 14.3419 19.6049 14.3419 19.7466C14.3419 19.9001 14.0456 20.3128 13.6085 20.768C12.773 21.6382 12.3974 21.7416 11.8953 21.2394C11.4083 20.7524 11.5045 20.3996 12.3571 19.5469C13.2159 18.6883 13.4765 18.6236 13.9938 19.1409Z" fill="black"/>
</svg>
