<svg width="13" height="15" viewBox="0 0 13 15" fill="none" xmlns="http://www.w3.org/2000/svg">
<path d="M8.84254 0.696018C8.3323 0.809403 7.95435 0.985781 7.51341 1.31964C7.30553 1.47082 5.77483 2.97003 4.09925 4.64561C1.05674 7.69442 1.05674 7.70072 1.07564 7.94009C1.10083 8.24875 1.3402 8.45032 1.61107 8.38733C1.73075 8.35583 2.77642 7.35426 4.96853 5.16844C7.40632 2.73696 8.22521 1.95586 8.46458 1.83617C9.98899 1.08657 11.7213 1.98105 12.0362 3.68813C12.1244 4.15427 12.0362 4.696 11.7969 5.16844C11.5512 5.65978 3.60161 13.5905 3.23626 13.7101C1.80004 14.1826 0.49611 12.7716 1.11973 11.4172C1.20162 11.2283 2.17799 10.2141 4.4835 7.91489L7.72758 4.67711L8.03624 4.65191C8.74175 4.58262 9.18899 5.19364 8.93702 5.87395C8.89923 5.96844 7.80947 7.10229 6.51184 8.38733C5.03153 9.85504 4.13704 10.7936 4.11184 10.8944C4.02996 11.2157 4.42051 11.5621 4.73546 11.4424C4.81105 11.4109 5.97011 10.2834 7.30553 8.93536C10.0079 6.22041 9.94489 6.3023 9.94489 5.45821C9.94489 4.7275 9.47875 4.04719 8.79844 3.78262C8.40159 3.63144 7.68978 3.66924 7.29923 3.85821C7.09766 3.959 6.09609 4.92277 3.73389 7.29127C0.155954 10.8818 0.18745 10.844 0.0362696 11.7133C-0.259792 13.4582 1.30241 15.0141 3.05358 14.7243C3.93547 14.5794 3.81578 14.6802 8.20002 10.3086C10.411 8.10386 12.3197 6.15112 12.4457 5.96214C12.8362 5.37632 12.9937 4.82829 13 4.06608C13 3.53695 12.9685 3.32278 12.8551 2.98262C12.2756 1.30704 10.5433 0.318068 8.84254 0.696018Z" fill="#9C8C8C"/>
</svg>
