<svg width="12" height="8" viewBox="0 0 12 8" fill="none" xmlns="http://www.w3.org/2000/svg">
<path fill-rule="evenodd" clip-rule="evenodd" d="M3.14244 0.0814969C2.85464 0.206891 2.57722 0.563529 2.53355 0.864158C2.51266 1.00836 2.50392 1.44208 2.51418 1.82798C2.53061 2.44634 2.54588 2.53215 2.64263 2.55072C2.88957 2.598 2.92982 2.46711 2.92982 1.61567C2.92982 0.693566 2.98968 0.54374 3.40648 0.42201C3.56046 0.376995 4.83584 0.36197 7.4191 0.374735C11.5772 0.395197 11.3868 0.377117 11.5724 0.768509C11.7088 1.05588 11.7088 5.96086 11.5724 6.24824C11.3868 6.63963 11.5772 6.62155 7.4191 6.64201C4.83584 6.65478 3.56046 6.63975 3.40648 6.59474C2.98931 6.47295 2.92982 6.32355 2.92982 5.39796C2.92982 4.74167 2.91144 4.5676 2.83399 4.49009C2.76161 4.41777 2.70921 4.40971 2.62022 4.45735C2.51315 4.51464 2.50233 4.59209 2.50264 5.29706C2.50282 5.72418 2.53 6.1711 2.56311 6.29014C2.63133 6.53574 2.93764 6.85915 3.19338 6.95559C3.30827 6.99889 4.66659 7.01997 7.28565 7.01905C10.9767 7.01777 11.2206 7.01105 11.4563 6.90404C11.594 6.8415 11.7727 6.69778 11.8533 6.58472L12 6.37907V3.50837V0.637679L11.8533 0.432027C11.7727 0.31897 11.594 0.175252 11.4563 0.112708C11.2204 0.00557601 10.9792 -0.000898206 7.26641 7.90519e-05C4.14645 0.000934153 3.28848 0.0178529 3.14244 0.0814969ZM3.79891 1.16729C3.75762 1.20858 3.72385 1.27577 3.72385 1.31657C3.72385 1.35737 4.23923 1.86316 4.86907 2.44048C5.49897 3.01785 6.00379 3.50807 5.9909 3.52981C5.97801 3.55162 5.46263 4.03218 4.84568 4.59771C4.22866 5.16324 3.72385 5.65938 3.72385 5.70018C3.72385 5.7918 3.84802 5.92135 3.93457 5.92C3.96987 5.91951 4.31478 5.62805 4.7011 5.27239C5.08743 4.91679 5.6124 4.43701 5.86764 4.20632L6.33184 3.78689L6.77057 4.18207C7.01195 4.39939 7.23971 4.57725 7.27679 4.57725C7.31386 4.57725 7.54444 4.39805 7.78912 4.17908L8.23401 3.78091L9.40343 4.85461C10.5768 5.93197 10.7784 6.06116 10.7784 5.73579C10.7784 5.61577 10.5386 5.36156 9.66374 4.5541C9.0507 3.98827 8.54906 3.51772 8.54906 3.50837C8.54906 3.49903 9.0507 3.02848 9.66374 2.46265C10.5386 1.65519 10.7784 1.40098 10.7784 1.28096C10.7784 1.18623 10.7393 1.12044 10.6758 1.10823C10.6113 1.09577 10.0095 1.60455 9.05717 2.47676C8.22345 3.2403 7.48128 3.91839 7.40799 3.98357L7.27471 4.10212L5.65191 2.61424C4.75937 1.79585 3.99424 1.11861 3.95155 1.10927C3.90891 1.09986 3.8402 1.126 3.79891 1.16729ZM0.0743982 1.93022C-0.0350547 1.97445 -0.0199072 2.23629 0.0946763 2.28027C0.220437 2.32852 1.60802 2.32852 1.73378 2.28027C1.85905 2.2322 1.85905 1.97493 1.73378 1.92687C1.61908 1.88283 0.184645 1.88576 0.0743982 1.93022ZM0.848875 3.39135C0.790667 3.46153 0.786209 3.51601 0.83275 3.58985C0.888332 3.67805 1.0544 3.69393 2.08132 3.70896C2.73278 3.71848 3.32457 3.71183 3.39646 3.69418C3.56852 3.65197 3.61983 3.50471 3.50311 3.38799C3.36153 3.24641 0.966696 3.24946 0.848875 3.39135ZM0.421325 4.79616C0.363178 4.86621 0.358719 4.92094 0.405078 4.99466C0.455407 5.07467 0.585016 5.10027 1.01232 5.11438C1.70135 5.13716 1.83041 5.10625 1.83041 4.91856C1.83041 4.72573 1.73891 4.69941 1.06943 4.69941C0.625877 4.69941 0.484053 4.7206 0.421325 4.79616Z" fill="black"/>
</svg>
