<svg width="50" height="46" viewBox="0 0 50 46" fill="none" xmlns="http://www.w3.org/2000/svg">
<path fill-rule="evenodd" clip-rule="evenodd" d="M22.3197 0.148638C18.8883 0.614246 15.2503 1.99488 12.3336 3.93806C9.3963 5.89477 6.20062 9.53648 4.80863 12.5131C4.26807 13.6692 4.25164 13.8034 4.6087 14.1602C5.15699 14.7087 5.65499 14.4278 6.26661 13.2253C9.29114 7.27734 15.3175 2.92464 21.9571 1.89213C24.1693 1.54812 28.0272 1.73379 30.1766 2.28739C35.9962 3.78624 41.1701 7.97527 43.8963 13.3948C44.4748 14.5448 45.6485 17.7985 45.6485 18.252C45.6485 18.3028 45.1706 18.112 44.5863 17.8282C43.3727 17.2386 42.6755 17.3638 42.791 18.1505C42.8793 18.7512 45.9193 20.7505 46.7613 20.7614C47.4007 20.7698 50 17.7463 50 16.994C50 16.4304 49.4087 16.0637 48.9537 16.3449C48.8012 16.4391 48.4204 16.8201 48.1078 17.1917C47.3596 18.0809 47.1856 18.0451 46.9856 16.9606C46.8938 16.4621 46.4942 15.2381 46.0977 14.2409C43.8187 8.50881 38.6893 3.52998 32.9069 1.43764C29.5555 0.22503 25.4448 -0.275632 22.3197 0.148638ZM16.7595 14.4662L11.9245 17.5671L11.7432 22.9753C11.6434 25.9496 11.589 30.1238 11.6223 32.2512L11.6828 36.1192L21.2319 36.1714L30.7809 36.2239L34.6995 32.0617L38.6182 27.8997L38.6279 20.012C38.6354 13.981 38.5667 12.0681 38.3356 11.8851C38.1579 11.7444 34.6472 11.588 29.8139 11.5053L21.5945 11.3651L16.7595 14.4662ZM23.7581 13.229C23.6317 13.3373 22.32 14.3163 20.8426 15.4047C18.2707 17.2998 18.1022 17.3837 16.8659 17.3837C16.0519 17.3837 15.6598 17.299 15.8046 17.1545C15.9308 17.0283 17.3941 16.0523 19.0561 14.9855C21.5106 13.4098 22.2574 13.0443 23.0329 13.0389C23.5582 13.0353 23.8846 13.1207 23.7581 13.229ZM28.7147 13.2135C28.7087 13.3131 27.6148 14.2107 26.2839 15.2079C22.5682 17.9921 22.9241 17.3249 22.9241 21.5091V25.132L22.1679 24.7411C21.4502 24.3697 21.1074 24.3734 19.8418 24.7657L19.2979 24.9342V21.7707V18.6072L22.9845 15.8389C26.2929 13.3549 26.7766 13.0687 27.6986 13.0515C28.2639 13.0409 28.721 13.1139 28.7147 13.2135ZM35.1203 13.484C34.9941 13.5996 33.8195 14.5243 32.5104 15.5389L30.1302 17.3837H28.3402C27.3558 17.3837 26.5547 17.3019 26.5602 17.2023C26.5658 17.1027 27.6808 16.1793 29.0382 15.1504L31.5062 13.2797L33.4281 13.2768C34.5307 13.2751 35.2521 13.3634 35.1203 13.484ZM36.9455 20.7229V27.205L34.0446 30.2674L31.1436 33.3299L31.1443 29.6478C31.1448 27.6227 31.2151 24.2783 31.3007 22.2162L31.4562 18.4667L34.1405 16.3647C35.6167 15.2086 36.852 14.2581 36.8851 14.2518C36.9182 14.2458 36.9455 17.1579 36.9455 20.7229ZM17.7927 23.0142C17.8698 27.7317 17.9003 27.7849 19.8967 26.705L21.1405 26.0322L22.4097 26.6753C24.5721 27.7711 24.6163 27.6981 24.6163 23.0486V19.0759H27.1934H29.7702L29.6109 24.5544C29.5231 27.5673 29.4513 31.1029 29.4513 32.4113V34.7896H21.3527H13.2541L13.2553 29.5316C13.2558 26.6395 13.3271 23.0457 13.4134 21.5449L13.5708 18.8165L15.6487 18.8856L17.7265 18.955L17.7927 23.0142ZM1.54429 20.7877C0.403231 21.9974 -0.0485985 22.6528 0.00410279 23.0215C0.113132 23.7828 0.874158 23.8081 1.63833 23.0761L2.3041 22.4384L2.47115 24.4437C3.30446 34.447 10.4544 42.624 20.327 44.8643C23.1303 45.5003 27.7968 45.3983 30.6755 44.6375C38.8602 42.4753 45.0671 36.1688 47.0927 27.957C47.7372 25.3449 47.6879 24.7831 46.8053 24.6813C46.256 24.618 46.1245 24.7166 45.9998 25.2857C45.298 28.4879 44.7642 30.1449 43.8221 32.0457C41.1996 37.3372 36.1234 41.4645 30.2974 43.0424C27.549 43.787 22.6492 43.7868 19.9022 43.0422C15.9992 41.9841 12.7639 40.0735 9.96489 37.1737C6.37226 33.4518 4.48565 29.2342 4.14236 24.1592L3.98765 21.8688L4.77792 22.7691C5.618 23.7257 6.23688 23.8969 6.72594 23.3077C6.96696 23.0171 6.95294 22.8395 6.65365 22.4012C6.01592 21.4668 3.68909 19.0759 3.4176 19.0759C3.27545 19.0759 2.43247 19.8464 1.54429 20.7877Z" fill="#FD9149"/>
<path fill-rule="evenodd" clip-rule="evenodd" d="M22.3197 0.148638C18.8883 0.614246 15.2503 1.99488 12.3336 3.93806C9.3963 5.89477 6.20062 9.53648 4.80863 12.5131C4.26807 13.6692 4.25164 13.8034 4.6087 14.1602C5.15699 14.7087 5.65499 14.4278 6.26661 13.2253C9.29114 7.27734 15.3175 2.92464 21.9571 1.89213C24.1693 1.54812 28.0272 1.73379 30.1766 2.28739C35.9962 3.78624 41.1701 7.97527 43.8963 13.3948C44.4748 14.5448 45.6485 17.7985 45.6485 18.252C45.6485 18.3028 45.1706 18.112 44.5863 17.8282C43.3727 17.2386 42.6755 17.3638 42.791 18.1505C42.8793 18.7512 45.9193 20.7505 46.7613 20.7614C47.4007 20.7698 50 17.7463 50 16.994C50 16.4304 49.4087 16.0637 48.9537 16.3449C48.8012 16.4391 48.4204 16.8201 48.1078 17.1917C47.3596 18.0809 47.1856 18.0451 46.9856 16.9606C46.8938 16.4621 46.4942 15.2381 46.0977 14.2409C43.8187 8.50881 38.6893 3.52998 32.9069 1.43764C29.5555 0.22503 25.4448 -0.275632 22.3197 0.148638ZM16.7595 14.4662L11.9245 17.5671L11.7432 22.9753C11.6434 25.9496 11.589 30.1238 11.6223 32.2512L11.6828 36.1192L21.2319 36.1714L30.7809 36.2239L34.6995 32.0617L38.6182 27.8997L38.6279 20.012C38.6354 13.981 38.5667 12.0681 38.3356 11.8851C38.1579 11.7444 34.6472 11.588 29.8139 11.5053L21.5945 11.3651L16.7595 14.4662ZM23.7581 13.229C23.6317 13.3373 22.32 14.3163 20.8426 15.4047C18.2707 17.2998 18.1022 17.3837 16.8659 17.3837C16.0519 17.3837 15.6598 17.299 15.8046 17.1545C15.9308 17.0283 17.3941 16.0523 19.0561 14.9855C21.5106 13.4098 22.2574 13.0443 23.0329 13.0389C23.5582 13.0353 23.8846 13.1207 23.7581 13.229ZM28.7147 13.2135C28.7087 13.3131 27.6148 14.2107 26.2839 15.2079C22.5682 17.9921 22.9241 17.3249 22.9241 21.5091V25.132L22.1679 24.7411C21.4502 24.3697 21.1074 24.3734 19.8418 24.7657L19.2979 24.9342V21.7707V18.6072L22.9845 15.8389C26.2929 13.3549 26.7766 13.0687 27.6986 13.0515C28.2639 13.0409 28.721 13.1139 28.7147 13.2135ZM35.1203 13.484C34.9941 13.5996 33.8195 14.5243 32.5104 15.5389L30.1302 17.3837H28.3402C27.3558 17.3837 26.5547 17.3019 26.5602 17.2023C26.5658 17.1027 27.6808 16.1793 29.0382 15.1504L31.5062 13.2797L33.4281 13.2768C34.5307 13.2751 35.2521 13.3634 35.1203 13.484ZM36.9455 20.7229V27.205L34.0446 30.2674L31.1436 33.3299L31.1443 29.6478C31.1448 27.6227 31.2151 24.2783 31.3007 22.2162L31.4562 18.4667L34.1405 16.3647C35.6167 15.2086 36.852 14.2581 36.8851 14.2518C36.9182 14.2458 36.9455 17.1579 36.9455 20.7229ZM17.7927 23.0142C17.8698 27.7317 17.9003 27.7849 19.8967 26.705L21.1405 26.0322L22.4097 26.6753C24.5721 27.7711 24.6163 27.6981 24.6163 23.0486V19.0759H27.1934H29.7702L29.6109 24.5544C29.5231 27.5673 29.4513 31.1029 29.4513 32.4113V34.7896H21.3527H13.2541L13.2553 29.5316C13.2558 26.6395 13.3271 23.0457 13.4134 21.5449L13.5708 18.8165L15.6487 18.8856L17.7265 18.955L17.7927 23.0142ZM1.54429 20.7877C0.403231 21.9974 -0.0485985 22.6528 0.00410279 23.0215C0.113132 23.7828 0.874158 23.8081 1.63833 23.0761L2.3041 22.4384L2.47115 24.4437C3.30446 34.447 10.4544 42.624 20.327 44.8643C23.1303 45.5003 27.7968 45.3983 30.6755 44.6375C38.8602 42.4753 45.0671 36.1688 47.0927 27.957C47.7372 25.3449 47.6879 24.7831 46.8053 24.6813C46.256 24.618 46.1245 24.7166 45.9998 25.2857C45.298 28.4879 44.7642 30.1449 43.8221 32.0457C41.1996 37.3372 36.1234 41.4645 30.2974 43.0424C27.549 43.787 22.6492 43.7868 19.9022 43.0422C15.9992 41.9841 12.7639 40.0735 9.96489 37.1737C6.37226 33.4518 4.48565 29.2342 4.14236 24.1592L3.98765 21.8688L4.77792 22.7691C5.618 23.7257 6.23688 23.8969 6.72594 23.3077C6.96696 23.0171 6.95294 22.8395 6.65365 22.4012C6.01592 21.4668 3.68909 19.0759 3.4176 19.0759C3.27545 19.0759 2.43247 19.8464 1.54429 20.7877Z" fill="url(#paint0_linear_520_271)"/>
<defs>
<linearGradient id="paint0_linear_520_271" x1="25" y1="0" x2="25" y2="45.2819" gradientUnits="userSpaceOnUse">
<stop offset="0.323897" stop-color="#FFD588"/>
<stop offset="1" stop-color="#FD9149" stop-opacity="0"/>
</linearGradient>
</defs>
</svg>
