<svg width="20" height="21" viewBox="0 0 20 21" fill="none" xmlns="http://www.w3.org/2000/svg">
<path fill-rule="evenodd" clip-rule="evenodd" d="M0.754627 0.118821C0.568684 0.182867 0.337196 0.367683 0.214643 0.550056L5.78239e-05 0.869163V10.2962C5.78239e-05 20.4914 -0.0162825 20.1578 0.500412 20.4964C0.723448 20.6424 1.21451 20.6564 6.13568 20.6564H11.5265L10.8808 19.9991L10.2351 19.3417H5.82193H1.40871V10.3733V1.40483H8.45198H15.4952V6.03554V10.6662L16.0352 10.7633C16.3322 10.8166 16.6491 10.8926 16.7396 10.932C16.895 10.9998 16.9039 10.7263 16.9039 5.91787C16.9039 1.48493 16.885 0.795538 16.7568 0.547615C16.4638 -0.0189457 16.6842 -0.00429573 8.52542 0.00143279C3.01336 0.00537702 0.995506 0.0358978 0.754627 0.118821ZM3.0991 5.21232V5.92078L3.77994 5.89317L4.46079 5.86556L4.4884 5.18471L4.51601 4.50386H3.80755H3.0991V5.21232ZM5.9164 5.20819V5.91252H9.86063H13.8049V5.20819V4.50386H9.86063H5.9164V5.20819ZM3.0991 8.63592V9.29329H3.80342H4.50775V8.63592V7.97854H3.80342H3.0991V8.63592ZM5.85376 8.63676L5.83799 9.29329H9.82147H13.8049V8.63592V7.97854L9.83715 7.97939L5.86945 7.98033L5.85376 8.63676ZM3.73299 11.4341L3.0991 11.4618V12.1149V12.768H3.80342H4.50775V12.1161C4.50775 11.7576 4.4761 11.4513 4.43732 11.4353C4.39853 11.4193 4.08158 11.4188 3.73299 11.4341ZM5.8995 12.0873L5.86945 12.7684L8.61632 12.7682L11.3632 12.768V12.0871V11.4063H8.64637H5.92964L5.8995 12.0873ZM14.9546 11.8436C14.8904 11.9078 14.8379 12.0963 14.8379 12.2625C14.8379 12.7293 14.7572 12.8472 14.2994 13.0498C13.7232 13.3047 13.5114 13.2866 13.1944 12.9558C13.046 12.8008 12.8903 12.6741 12.8485 12.6741C12.6924 12.6741 12.0206 13.3595 12.0206 13.5187C12.0206 13.6097 12.0868 13.739 12.1676 13.8061C12.2485 13.8733 12.3709 14.0371 12.4398 14.1701C12.5477 14.3787 12.5408 14.4756 12.3898 14.8734C12.1632 15.4702 12.1061 15.5198 11.574 15.581L11.1284 15.6322V16.2426V16.8531L11.574 16.9042C12.1081 16.9657 12.1626 17.0136 12.3956 17.6272L12.5769 18.104L12.2987 18.454C11.9443 18.9 11.9491 19.0477 12.3303 19.4172C12.7029 19.7784 12.947 19.7959 13.2414 19.4825C13.5058 19.2012 13.7449 19.1885 14.3 19.4265C14.7482 19.6185 14.8379 19.7514 14.8379 20.2227C14.8379 20.6318 14.9852 20.7506 15.4906 20.7489C16.0635 20.747 16.1644 20.6635 16.223 20.1421C16.2647 19.7724 16.3218 19.6687 16.565 19.5203C17.0769 19.208 17.4264 19.1942 17.7905 19.4719C17.9674 19.6069 18.1698 19.7173 18.2402 19.7173C18.3766 19.7173 19.0638 19.0583 19.0638 18.9275C19.0638 18.8849 18.9371 18.7055 18.7821 18.5291C18.4572 18.1591 18.4468 18.0854 18.6506 17.5923C18.8837 17.0281 19.0406 16.9 19.4992 16.9C19.9649 16.9 20.0375 16.7728 19.9857 16.0473L19.956 15.6322L19.5334 15.5828C18.9793 15.518 18.8943 15.4557 18.6804 14.9567C18.4385 14.3922 18.4519 14.2582 18.7821 13.9418C18.9371 13.7934 19.0638 13.6253 19.0638 13.5682C19.0638 13.5112 18.8785 13.2825 18.6519 13.0602C18.2077 12.6242 18.0893 12.6218 17.71 13.041C17.4917 13.2822 17.255 13.2863 16.7511 13.0574C16.2848 12.8456 16.219 12.7514 16.1551 12.2045L16.1057 11.7819L15.5885 11.7544C15.2672 11.7374 15.027 11.7712 14.9546 11.8436ZM16.5358 14.8393C17.5465 15.5591 17.4392 17.1847 16.3441 17.7433C15.0069 18.4255 13.5646 17.3178 13.8449 15.824C13.9106 15.4736 14.3435 14.9053 14.6864 14.7191C15.2086 14.4356 16.0452 14.49 16.5358 14.8393ZM3.0991 15.5383V16.2426H3.80342H4.50775V15.5383V14.834H3.80342H3.0991V15.5383ZM5.9164 15.5383V16.2426H8.12329H10.3302V15.5383V14.834H8.12329H5.9164V15.5383Z" fill="black"/>
</svg>
