<svg width="12" height="13" viewBox="0 0 12 13" fill="none" xmlns="http://www.w3.org/2000/svg">
<path fill-rule="evenodd" clip-rule="evenodd" d="M5.33689 0.0402177C4.91397 0.129487 4.19664 0.495329 3.86337 0.79171C3.19213 1.38873 2.86819 2.13793 2.81079 3.22644L2.7746 3.91171H1.3873H0V8.41965V12.9276H6H12V9.94345V6.95933H11.4611H10.9222L10.9055 9.3879L10.8889 11.8165H6H1.11111L1.09467 8.43552L1.07822 5.05457H4.85657H8.63492V4.48314V3.91171H6.27867H3.92248L3.94864 3.22917C3.97854 2.44815 4.11505 2.0959 4.5501 1.67736C4.94851 1.294 5.40241 1.11933 6 1.11933C6.41073 1.11933 6.57473 1.15025 6.85714 1.28117C7.48997 1.57444 7.95537 2.17158 8.04165 2.80098L8.08076 3.08631H8.64235H9.20394L9.16552 2.78473C8.96514 1.21114 7.73575 0.0744399 6.15873 0.00459863C5.86191 -0.00854423 5.49206 0.00745576 5.33689 0.0402177ZM8.30051 6.37311L5.45873 9.21539L5.85733 9.61044L6.25594 10.0055L9.11098 7.14993L11.966 4.29438L11.5881 3.9126C11.3804 3.70257 11.195 3.53076 11.1763 3.53076C11.1577 3.53076 9.86349 4.8098 8.30051 6.37311Z" fill="black"/>
</svg>
