<svg width="12" height="15" viewBox="0 0 12 15" fill="none" xmlns="http://www.w3.org/2000/svg">
<path fill-rule="evenodd" clip-rule="evenodd" d="M3.59058 0.137859C3.11188 0.315193 2.52457 0.749247 2.27597 1.10936C1.86383 1.70636 1.75187 2.07355 1.7518 2.82791C1.75172 3.47761 1.77215 3.57914 1.99331 4.0284C2.28454 4.61996 2.81811 5.14354 3.41265 5.42113C3.78096 5.5931 3.93511 5.62001 4.54703 5.61956C5.19158 5.61904 5.2993 5.59757 5.74632 5.37998C6.33781 5.09218 6.86198 4.55928 7.14256 3.96071C7.3187 3.58488 7.34188 3.4463 7.3386 2.78907C7.33532 2.12796 7.31124 1.99543 7.12601 1.61743C6.85378 1.06195 6.29957 0.505795 5.76056 0.24736C5.17601 -0.0329156 4.18624 -0.0828583 3.59058 0.137859ZM5.2179 1.26724C5.901 1.57695 6.21712 2.06811 6.22145 2.82634C6.22368 3.22104 6.18709 3.374 6.02391 3.65152C5.64867 4.28981 4.87106 4.64008 4.20279 4.47184C3.32156 4.24993 2.74633 3.45696 2.86075 2.62188C3.01684 1.48326 4.19758 0.804706 5.2179 1.26724ZM2.45987 6.88371C1.35337 7.19156 0.4714 8.02464 0.149903 9.06553C0.0128212 9.50928 0 9.75705 0 11.9626C0 14.3478 0.00178893 14.3762 0.163171 14.5264C0.378372 14.727 0.754955 14.7246 0.938849 14.5217C1.07064 14.3762 1.08353 14.1903 1.11812 11.9314L1.15539 9.4978L1.35457 9.1204C1.60562 8.64467 2.03364 8.25497 2.50429 8.07339C2.82393 7.95017 3.0805 7.93243 4.54703 7.93243C6.01802 7.93243 6.26945 7.94987 6.59252 8.0745C7.10939 8.27383 7.54322 8.70125 7.79166 9.25576C8.03258 9.79365 8.14648 9.90211 8.47364 9.90539C8.80416 9.90875 9.04888 9.59582 8.99163 9.24317C8.87572 8.52869 8.08021 7.51783 7.35232 7.15996C6.66497 6.82199 6.3352 6.77845 4.50975 6.78457C3.38202 6.78837 2.68051 6.82228 2.45987 6.88371ZM9.68375 9.82362C9.41495 10.0413 9.44805 10.4381 9.76209 10.7621L10.0128 11.0207L7.17006 11.0419C4.35657 11.0629 4.32571 11.0649 4.16388 11.2267C3.92908 11.4617 3.94652 11.8231 4.20331 12.044L4.40629 12.2186H7.22724H10.0482L9.79914 12.4676C9.4675 12.7992 9.40362 13.0673 9.59497 13.3245C9.70313 13.47 9.82038 13.5289 10.034 13.5451C10.3161 13.5664 10.3525 13.5398 11.1633 12.7179C12.2796 11.5866 12.2797 11.647 11.159 10.5263C10.4491 9.81639 10.2807 9.68415 10.0864 9.68415C9.9597 9.68415 9.77849 9.74692 9.68375 9.82362ZM8.15893 13.3706C8.01432 13.5151 7.97593 13.6303 7.97593 13.9196C7.97593 14.4037 8.18032 14.6784 8.54043 14.6784C8.93841 14.6784 9.09405 14.4704 9.09405 13.9385C9.09405 13.5499 9.07035 13.4779 8.89763 13.3421C8.63711 13.1371 8.38248 13.147 8.15893 13.3706Z" fill="black"/>
</svg>
