<svg width="6" height="6" viewBox="0 0 6 6" fill="none" xmlns="http://www.w3.org/2000/svg">
<path fill-rule="evenodd" clip-rule="evenodd" d="M1.29449 0.0776878C1.21617 0.1451 1.20424 0.180843 1.19284 0.382501L1.17991 0.610982H0.668631H0.15738L0.0786738 0.69588L0 0.780779V3.29728V5.81378L0.0937861 5.90757L0.187572 6.00136H3H5.81243L5.90621 5.90757L6 5.81378V3.29728V0.780779L5.92133 0.69588L5.84262 0.610982H5.33137H4.82009L4.80715 0.382501C4.79576 0.180843 4.78383 0.1451 4.70551 0.0776878C4.57806 -0.0319165 4.41719 -0.0250502 4.29699 0.0951423C4.21235 0.179784 4.20321 0.209495 4.20321 0.399955V0.610982H3H1.79679V0.399955C1.79679 0.209495 1.78765 0.179784 1.70301 0.0951423C1.58281 -0.0250502 1.42194 -0.0319165 1.29449 0.0776878ZM1.19262 1.41328C1.2087 1.69766 1.27723 1.7821 1.49198 1.7821C1.70673 1.7821 1.77526 1.69766 1.79134 1.41328L1.80404 1.18852H3.00363H4.20321V1.39955C4.20321 1.59001 4.21235 1.61972 4.29699 1.70436C4.35087 1.75823 4.42508 1.79815 4.47138 1.79815C4.70044 1.79815 4.81283 1.65569 4.81283 1.36538V1.18612L5.10963 1.19532L5.40642 1.20456V1.65376V2.10296H3H0.593583L0.584567 1.68755C0.579594 1.45907 0.582738 1.2533 0.591561 1.23033C0.60308 1.2003 0.688235 1.18852 0.893775 1.18852H1.17991L1.19262 1.41328ZM5.41479 4.05216L5.40642 5.40777H3H0.593583L0.585208 4.05216L0.576834 2.69654H3H5.42317L5.41479 4.05216ZM0.992952 3.09941C0.938888 3.15697 0.915882 3.21864 0.915882 3.30617C0.915882 3.3937 0.938888 3.45537 0.992952 3.51293C1.06787 3.59266 1.08148 3.59494 1.48364 3.59494C1.71857 3.59494 1.92526 3.57995 1.96203 3.56029C2.04725 3.51466 2.11617 3.34493 2.0948 3.23324C2.08547 3.18434 2.04151 3.11574 1.99713 3.08083C1.92603 3.02494 1.86629 3.0174 1.49323 3.0174C1.0808 3.0174 1.06803 3.01948 0.992952 3.09941ZM2.48519 3.09617C2.37574 3.20561 2.37574 3.40672 2.48519 3.51617C2.56107 3.59208 2.57978 3.59494 3 3.59494C3.42022 3.59494 3.43893 3.59208 3.51481 3.51617C3.62971 3.4013 3.6267 3.17645 3.50904 3.08391C3.43306 3.02414 3.38095 3.0174 2.99422 3.0174C2.58016 3.0174 2.56097 3.02038 2.48519 3.09617ZM3.99321 3.09617C3.93523 3.15412 3.91444 3.20959 3.91444 3.30617C3.91444 3.40275 3.93523 3.45822 3.99321 3.51617C4.06848 3.59147 4.08975 3.59494 4.47658 3.59494C4.99492 3.59494 5.09849 3.54543 5.10058 3.2967C5.10132 3.20927 5.07937 3.1527 5.02283 3.09617C4.94695 3.02025 4.92825 3.0174 4.50802 3.0174C4.0878 3.0174 4.06909 3.02025 3.99321 3.09617ZM0.988171 4.30236C0.90215 4.38838 0.892492 4.41601 0.907989 4.53168C0.940332 4.77274 0.996353 4.79815 1.49564 4.79815H1.93068L2.00814 4.70812C2.06047 4.64728 2.08524 4.57968 2.08453 4.49956C2.08245 4.25619 1.97586 4.20456 1.47558 4.20456H1.08597L0.988171 4.30236ZM2.5508 4.24162C2.44444 4.29979 2.40642 4.37045 2.40642 4.50992C2.40642 4.61102 2.42609 4.66108 2.48923 4.72037C2.56832 4.79468 2.5911 4.79815 3.0017 4.79815C3.49498 4.79815 3.55171 4.77219 3.58399 4.53168C3.59949 4.41601 3.58983 4.38838 3.50381 4.30236L3.40601 4.20456L3.01049 4.20553C2.78663 4.2061 2.58712 4.22176 2.5508 4.24162ZM4.05882 4.24332C3.89378 4.33798 3.86217 4.55731 3.99186 4.70812L4.06932 4.79815H4.50802H4.94673L5.02418 4.70812C5.13491 4.57939 5.12852 4.41906 5.00782 4.29835C4.91416 4.20469 4.91342 4.20456 4.51851 4.20553C4.28153 4.20614 4.09726 4.22128 4.05882 4.24332Z" fill="white"/>
</svg>
