<svg width="9" height="10" viewBox="0 0 9 10" fill="none" xmlns="http://www.w3.org/2000/svg">
<path d="M6.34513 0.0363851C5.78568 0.129627 5.45267 0.329431 4.78666 0.982123C4.23609 1.51937 4.15617 1.63037 4.15617 1.87458C4.15617 2.20759 4.38261 2.42959 4.72006 2.42959C4.93318 2.42959 4.95538 2.41627 5.56367 1.81686C6.16308 1.23077 6.28297 1.16417 6.73141 1.16417C7.01558 1.16417 7.0955 1.18193 7.26866 1.28405C7.65939 1.51493 7.85032 1.83906 7.85475 2.27419C7.8592 2.72264 7.77927 2.83808 6.74029 3.8815C6.20748 4.41875 5.72796 4.86275 5.62583 4.91604C5.20847 5.12472 4.77778 5.07144 4.35597 4.76063C4.14285 4.60079 4.05404 4.56083 3.91196 4.56083C3.41023 4.56083 3.15271 5.1114 3.47683 5.49325C3.53456 5.56429 3.70328 5.70193 3.8498 5.79961C4.55133 6.27026 5.52371 6.29246 6.28741 5.86177C6.39841 5.79517 6.95786 5.27568 7.53063 4.69847C8.64953 3.57957 8.78273 3.39753 8.92926 2.8514C9.19566 1.82574 8.68949 0.720158 7.73487 0.253949C7.24646 0.014185 6.8513 -0.0479765 6.34513 0.0363851Z" fill="black"/>
<path d="M3.33928 2.90001C2.79315 3.03321 2.61111 3.16641 1.47001 4.31196C0.280064 5.5019 0.177942 5.64398 0.0447398 6.30999C-0.283826 7.91286 1.25244 9.34701 2.84643 8.93408C3.32596 8.80976 3.60569 8.61884 4.23174 8.00166C4.86667 7.37117 4.92883 7.26017 4.82227 6.94048C4.72903 6.65632 4.3827 6.4876 4.12074 6.5986C4.05413 6.62524 3.76109 6.88276 3.46804 7.16693C3.14392 7.48217 2.85531 7.7175 2.73543 7.77522C2.49567 7.88178 2.0783 7.89066 1.84297 7.78854C1.59433 7.68642 1.3368 7.42445 1.2258 7.17137C1.11036 6.90052 1.1148 6.50092 1.24356 6.23895C1.359 5.99919 3.18832 4.17431 3.4192 4.06775C3.53908 4.01447 3.70337 3.98339 3.88985 3.98339C4.20954 3.98339 4.39158 4.05443 4.75123 4.3164C4.98655 4.48512 5.10199 4.50288 5.33288 4.40964C5.62148 4.28976 5.74581 3.91235 5.59928 3.62818C5.5238 3.48166 5.16859 3.20194 4.87999 3.05541C4.4493 2.84229 3.84101 2.78013 3.33928 2.90001Z" fill="black"/>
</svg>
