<svg width="8" height="12" viewBox="0 0 8 12" fill="none" xmlns="http://www.w3.org/2000/svg">
<path d="M3.15566 0.723051C2.49899 0.875322 1.78046 1.24648 1.2713 1.69854C0.743107 2.16963 0.267259 3.00712 0.0864369 3.77324C0.000784192 4.15392 -0.0134913 4.32046 0.0103012 4.80583C0.0340936 5.47677 0.114988 5.80511 0.371946 6.34282C0.638421 6.90908 3.48399 11.1536 3.67433 11.2726C3.87895 11.4011 4.23107 11.3725 4.40714 11.2155C4.6403 10.9966 7.53822 6.59977 7.69525 6.21434C7.92841 5.65284 8.00455 5.27216 7.99979 4.62976C7.99979 3.93503 7.89511 3.49249 7.58105 2.86437C7.10044 1.88888 6.27722 1.17986 5.21608 0.832496C4.83064 0.708776 4.69741 0.689741 4.11211 0.675466C3.66006 0.66119 3.35076 0.680224 3.15566 0.723051ZM4.68313 2.06018C5.07808 2.16487 5.49207 2.39804 5.82517 2.70734C6.58652 3.42111 6.86251 4.48225 6.53894 5.43871C6.47232 5.64808 6.36763 5.89552 6.31053 5.98593C6.05357 6.41895 4.02646 9.45962 3.99791 9.45962C3.93129 9.45486 1.95176 6.42371 1.69956 5.93835C1.22371 5.0152 1.19992 4.27288 1.61867 3.42111C1.91369 2.82154 2.62747 2.25052 3.30793 2.06018C3.63151 1.97453 4.34052 1.97453 4.68313 2.06018Z" fill="black"/>
<path d="M3.6605 3.36414C2.90866 3.59254 2.5137 4.31583 2.72783 5.05816C2.83728 5.42456 3.19416 5.79096 3.56057 5.91468C4.06021 6.08123 4.59792 5.94799 4.95004 5.57207C5.24031 5.26753 5.30217 5.1105 5.30217 4.65368C5.30217 4.2968 5.2879 4.22066 5.17369 4.02556C4.85963 3.49261 4.19345 3.20235 3.6605 3.36414Z" fill="black"/>
</svg>
