<svg width="25" height="13" viewBox="0 0 25 13" fill="none" xmlns="http://www.w3.org/2000/svg">
<path fill-rule="evenodd" clip-rule="evenodd" d="M4.78671 0.14275C3.31933 0.46152 1.76352 1.52939 0.973938 2.75975C-0.745926 5.44004 -0.130744 9.05806 2.36758 10.9552C3.23524 11.6141 3.98189 11.9398 5.15142 12.1696C6.04755 12.3456 6.15255 12.3452 7.01087 12.1607C7.51116 12.0532 8.25959 11.7944 8.67412 11.5857C9.54 11.1496 10.8035 10.0123 11.3253 9.19921C11.5192 8.8969 11.6995 8.64953 11.7257 8.64953C11.7519 8.64953 12.0204 8.77466 12.3222 8.9276C12.6239 9.08053 12.9238 9.20566 12.9883 9.20566C13.0529 9.20566 13.3212 9.00712 13.5845 8.76432L14.0632 8.32309L14.444 8.64864C14.9337 9.0674 15.1755 9.06418 15.6202 8.63307L15.9815 8.28305L16.3802 8.63307C16.5994 8.82571 16.853 8.98321 16.9434 8.98321C17.034 8.98321 17.2879 8.81837 17.5077 8.61695L17.9073 8.25079L18.2735 8.61695C18.7352 9.07864 18.9245 9.07664 19.3961 8.60504L19.7742 8.22688L20.1524 8.60504C20.3604 8.81303 20.5995 8.98321 20.6837 8.98321C20.768 8.98321 21.0063 8.82849 21.2134 8.63941L21.5897 8.29551L21.9111 8.63941C22.0878 8.82849 22.3016 8.98321 22.3862 8.98321C22.4707 8.98321 22.7196 8.76398 22.9391 8.49616C23.18 8.20197 23.4633 7.98397 23.6539 7.94593C24.0783 7.86106 24.6639 7.35221 24.8501 6.90654C24.9418 6.68687 25.001 6.13542 25 5.511C24.9979 4.32057 24.806 3.85542 24.0739 3.26571L23.6466 2.92147L17.4561 2.89089L11.2655 2.8603L10.9942 2.46378C10.5713 1.84615 9.62109 1.05735 8.81894 0.658165C7.52962 0.0165108 6.16857 -0.157445 4.78671 0.14275ZM7.54708 1.15133C8.66956 1.479 9.57181 2.131 10.3379 3.16795L10.772 3.75566H16.8968C23.61 3.75566 23.5287 3.74809 23.9222 4.4141C24.1437 4.78904 24.1852 6.14265 23.9885 6.57442C23.858 6.86082 23.4653 7.09239 23.1102 7.09239C22.9933 7.09239 22.7726 7.22708 22.6199 7.39181L22.3423 7.69111L22.1068 7.39181C21.8024 7.00475 21.5597 7.01364 21.1645 7.42606C20.7663 7.84171 20.6729 7.84171 20.2747 7.42606C20.0989 7.24254 19.8737 7.09239 19.7742 7.09239C19.6748 7.09239 19.4496 7.24254 19.2737 7.42606C18.8755 7.84171 18.7821 7.84171 18.3839 7.42606C17.9726 6.99674 17.7885 7.00586 17.3307 7.47812L16.957 7.86373L16.53 7.47812C16.2952 7.2659 16.0429 7.09239 15.9691 7.09239C15.8955 7.09239 15.648 7.27513 15.4193 7.49847L15.0035 7.90444L14.6044 7.55408C14.3848 7.36133 14.129 7.20362 14.0358 7.20362C13.9426 7.20362 13.6338 7.42328 13.3496 7.69189L12.8328 8.18017L12.1462 7.8416C11.7686 7.65541 11.3832 7.53239 11.2898 7.56821C11.1962 7.60413 10.9583 7.93625 10.7611 8.30641C10.3324 9.11067 9.35081 10.1268 8.52653 10.6197C6.79498 11.6547 4.62811 11.5008 2.95106 10.2234C0.409363 8.28739 0.222061 4.52399 2.55978 2.35968C3.26238 1.70924 3.60317 1.50069 4.48085 1.18381C5.19569 0.925771 6.71902 0.909643 7.54708 1.15133ZM3.42533 3.90203C3.21189 3.96999 2.82772 4.23503 2.57168 4.49107C1.81991 5.24295 1.66809 6.20449 2.1488 7.16925C2.32487 7.5225 2.60293 7.85406 2.89011 8.05304C3.2992 8.33655 3.44412 8.37147 4.21146 8.37147C4.99003 8.37147 5.11905 8.33922 5.54582 8.0378C6.76162 7.17892 6.8655 5.3396 5.75203 4.38641C5.06466 3.79803 4.27074 3.63275 3.42533 3.90203ZM5.15275 5.12828C5.62412 5.59965 5.72812 6.00373 5.52691 6.58109C5.1096 7.77853 3.4786 7.85673 2.93227 6.70544C2.66755 6.14754 2.779 5.60209 3.25504 5.12605C3.5787 4.80239 3.69605 4.75668 4.20279 4.75668C4.71019 4.75668 4.82676 4.80228 5.15275 5.12828Z" fill="black"/>
</svg>
