<svg width="8" height="12" viewBox="0 0 8 12" fill="none" xmlns="http://www.w3.org/2000/svg">
<path fill-rule="evenodd" clip-rule="evenodd" d="M0.670113 0.0735084C0.540604 0.119636 0.33683 0.261071 0.217283 0.38774L0 0.618075V5.99693V11.3758L0.217509 11.6064C0.602717 12.0146 0.584377 12.0128 4.11102 11.9936C7.16876 11.977 7.27894 11.9724 7.48045 11.8507C7.59502 11.7815 7.75879 11.6491 7.84438 11.5564C7.99879 11.3892 8 11.3466 8 5.99693C8 0.647302 7.99879 0.604713 7.84438 0.437468C7.75879 0.344785 7.59502 0.212381 7.48045 0.143189C7.27864 0.0213399 7.1723 0.0169467 4.08891 0.0035232C1.52377 -0.00770372 0.859924 0.00590284 0.670113 0.0735084ZM4.43321 0.648278C4.61177 0.792641 4.38075 0.841088 3.51306 0.841088C2.79592 0.841088 2.61155 0.823393 2.57728 0.75115C2.55381 0.701728 2.58166 0.639919 2.63925 0.613865C2.78838 0.54632 4.344 0.576157 4.43321 0.648278ZM5.28302 0.71991C5.28302 0.850667 5.0637 0.831814 5.03192 0.69825C5.01253 0.616733 5.04325 0.591899 5.14408 0.60758C5.22053 0.619478 5.28302 0.669999 5.28302 0.71991ZM1.89358 0.810763C1.9197 0.894782 2.04181 1.03207 2.16498 1.11584C2.38853 1.26789 2.39215 1.2682 4 1.2682C5.60785 1.2682 5.61147 1.26789 5.83502 1.11584C5.95819 1.03207 6.0803 0.894782 6.10642 0.810763C6.14966 0.671342 6.18943 0.65804 6.56211 0.65804C7.2677 0.65804 7.20755 0.160456 7.20755 5.99693C7.20755 10.5948 7.19487 11.1543 7.08898 11.24C6.98513 11.3239 6.5997 11.3358 4 11.3358C1.4003 11.3358 1.01487 11.3239 0.911019 11.24C0.805132 11.1543 0.792453 10.5948 0.792453 5.99693C0.792453 0.160456 0.732302 0.65804 1.43789 0.65804C1.81057 0.65804 1.85034 0.671342 1.89358 0.810763Z" fill="black"/>
</svg>
