<svg width="18" height="18" viewBox="0 0 18 18" fill="none" xmlns="http://www.w3.org/2000/svg">
<path fill-rule="evenodd" clip-rule="evenodd" d="M8.05095 0.133019C7.73517 0.242136 7.3362 0.520907 6.8283 0.987164C5.99671 1.7507 5.86291 1.80227 4.71563 1.80227C4.07895 1.80227 3.88694 1.84468 3.38203 2.09704C2.34117 2.61718 1.82295 3.48357 1.82141 4.70613C1.81997 5.84512 1.76762 5.97978 1.00399 6.81166C0.176452 7.71294 -0.0680996 8.31222 0.0154738 9.23413C0.0839134 9.9889 0.345623 10.4959 1.09749 11.3308C1.4421 11.7134 1.72849 12.0358 1.73398 12.0473C1.73938 12.0588 1.77341 12.5454 1.80965 13.1285C1.88706 14.3765 2.10365 14.9133 2.76472 15.4952C3.31619 15.9805 3.888 16.1665 5.03846 16.2344L5.99121 16.2908L6.72535 16.9522C7.66056 17.7948 8.23738 18.0332 9.19457 17.973C10.0448 17.9195 10.5146 17.6852 11.3558 16.895L11.9971 16.2927L13.0435 16.2335C14.2725 16.1639 14.8827 15.9239 15.4624 15.2823C16.0181 14.6672 16.186 14.1841 16.2525 13.0093L16.3108 11.9789L16.9132 11.3376C17.7033 10.4964 17.9377 10.0266 17.9912 9.17639C18.0514 8.2194 17.8129 7.64238 16.971 6.70794L16.3103 5.97448L16.2507 5.02105C16.1782 3.86057 15.9942 3.29281 15.5134 2.74654C14.9314 2.08547 14.3947 1.86888 13.1467 1.79147C12.5635 1.75523 12.0769 1.7212 12.0655 1.7158C12.054 1.71031 11.7316 1.42392 11.349 1.07932C10.9664 0.734805 10.4614 0.359929 10.2269 0.246377C9.65418 -0.030851 8.67298 -0.0819396 8.05095 0.133019ZM10.1698 2.475C11.0886 3.31257 11.6281 3.53736 12.7197 3.53736C13.5859 3.53736 14.0791 3.69583 14.2696 4.03523C14.3391 4.159 14.4217 4.71577 14.4531 5.27245C14.5239 6.52528 14.6961 6.94314 15.4916 7.79362C16.4702 8.83969 16.4767 9.11412 15.5473 10.1213C14.6903 11.0503 14.5199 11.4496 14.4518 12.691C14.3672 14.2312 14.2494 14.349 12.7092 14.4336C11.4678 14.5018 11.0685 14.6721 10.1395 15.5291C9.1323 16.4586 8.85787 16.452 7.8118 15.4734C6.96132 14.6779 6.54345 14.5057 5.29062 14.435C4.73395 14.4035 4.17718 14.3209 4.05341 14.2514C3.71401 14.061 3.55554 13.5677 3.55554 12.7015C3.55554 11.61 3.33074 11.0704 2.49318 10.1516C1.86855 9.46635 1.82045 9.38248 1.82045 8.97792C1.82045 8.57499 1.86691 8.49277 2.43843 7.88414C3.34038 6.92386 3.47861 6.6022 3.55178 5.29404C3.61087 4.23583 3.6206 4.199 3.91884 3.90067C4.21718 3.60242 4.254 3.59269 5.31222 3.5336C6.62038 3.46044 6.94204 3.32221 7.90232 2.42025C8.51095 1.84873 8.59317 1.80227 8.9961 1.80227C9.40066 1.80227 9.48452 1.85037 10.1698 2.475ZM6.16501 5.53252C5.21524 6.03174 5.15577 7.25035 6.05194 7.84905C7.16327 8.59148 8.59375 7.21488 7.8975 6.0729C7.51799 5.45058 6.7667 5.21625 6.16501 5.53252ZM11.3152 5.47458C10.994 5.65725 5.67427 10.9874 5.51676 11.2846C5.1468 11.9822 5.80305 12.7765 6.5609 12.5484C6.83215 12.4668 12.2809 7.07385 12.4875 6.68259C12.6639 6.34839 12.5937 5.8509 12.3374 5.61898C12.1073 5.41067 11.563 5.33385 11.3152 5.47458ZM10.6155 10.0917C9.94008 10.5034 9.72734 11.3213 10.1363 11.9334C10.6892 12.761 11.8536 12.782 12.3829 11.9741C13.1267 10.839 11.7663 9.39 10.6155 10.0917Z" fill="url(#paint0_linear_1650_14302)"/>
<defs>
<linearGradient id="paint0_linear_1650_14302" x1="9" y1="0" x2="9" y2="17.9818" gradientUnits="userSpaceOnUse">
<stop stop-color="#FFD588"/>
<stop offset="1" stop-color="#FFD588" stop-opacity="0"/>
</linearGradient>
</defs>
</svg>
