<svg width="25" height="22" viewBox="0 0 25 22" fill="none" xmlns="http://www.w3.org/2000/svg">
<path fill-rule="evenodd" clip-rule="evenodd" d="M4.50198 0.14728C4.1304 0.421492 0 7.16744 0 7.50019C0 7.88169 0.443615 8.25217 2.17304 9.315C3.53418 10.1514 4.26441 10.3716 4.48642 10.0124C4.54055 9.92485 4.82702 10.3266 5.1493 10.9421C6.38993 13.3121 7.20678 14.1287 10.8115 16.6029C12.2507 17.5908 14.29 19.0259 15.3432 19.792C16.3965 20.5581 17.3168 21.1849 17.3884 21.1849C17.4601 21.1849 17.7246 20.979 17.9761 20.7275C18.5145 20.1892 18.6974 19.456 18.4754 18.7271C18.2612 18.0237 16.955 16.6152 15.7036 15.7384C14.3364 14.7804 14.0695 14.2252 14.5392 13.3169C14.9387 12.5443 16.2876 12.2884 17.7191 12.7134C19.0925 13.1212 20.1549 14.2333 20.5141 15.6392C20.9746 17.4412 21.6892 18.4946 22.7936 18.9991C23.8935 19.5015 24.4502 19.2161 24.3017 18.2261C24.2202 17.6824 24.2389 17.6341 24.562 17.5531C24.7535 17.505 24.9462 17.3517 24.9904 17.2126C25.1226 16.7959 23.8556 10.2876 23.5642 9.88588C23.4246 9.69361 23.2648 9.32175 23.2092 9.05952C23.1535 8.79743 22.9829 8.28798 22.83 7.92755C22.507 7.16593 22.7014 7.24292 18.593 6.25019C17.1916 5.91166 15.3943 5.3934 14.5989 5.0988C13.8036 4.80407 12.1802 4.23953 10.9914 3.84412C9.50763 3.35051 8.85082 3.07051 8.89668 2.9511C9.07903 2.47581 8.65538 2.04845 6.98587 1.02418C5.24736 -0.0423683 4.91709 -0.159022 4.50198 0.14728ZM6.69334 1.57715C7.49367 2.07957 8.17913 2.57043 8.21659 2.66808C8.28573 2.84822 4.42059 9.18127 4.05768 9.48262C3.86665 9.64114 3.75441 9.5899 2.37012 8.7119C2.34823 8.69799 2.46157 8.46386 2.62216 8.19171C2.78275 7.91956 2.87448 7.63282 2.82614 7.55459C2.66431 7.29264 2.35911 7.4086 2.11285 7.8255C1.97857 8.05275 1.81192 8.23868 1.74251 8.23868C1.47298 8.23868 0.688629 7.6543 0.688629 7.45336C0.688629 7.33685 1.50507 5.93191 2.50289 4.33139C4.74865 0.72931 4.79396 0.663752 5.0387 0.663752C5.14847 0.663752 5.89315 1.07473 6.69334 1.57715ZM11.8444 4.80903C16.1207 6.28008 16.7158 6.45926 19.6073 7.14582C22.0188 7.71849 22.0714 7.73873 22.2422 8.15659C22.6917 9.25702 22.7065 9.24972 21.4206 8.56564C20.294 7.96639 19.8305 7.87962 19.8342 8.26884C19.8351 8.3658 20.4197 8.74702 21.1331 9.11585C23.2996 10.236 23.16 10.0009 23.8248 13.6501C24.1394 15.3766 24.3768 16.8465 24.3527 16.9166C24.2071 17.3386 23.9096 16.5503 23.4182 14.4403C23.1112 13.1216 22.7683 11.903 22.6565 11.7322C22.3876 11.3218 18.7966 8.92731 18.4499 8.92731C17.8553 8.92731 18.2539 9.36596 19.7307 10.3372C21.6487 11.5984 22.2537 12.122 22.3573 12.6105C22.4017 12.8193 22.7194 14.1899 23.0634 15.6563C23.4073 17.1225 23.6889 18.4053 23.6889 18.5068C23.6889 18.7781 23.0337 18.5198 22.4025 17.9994C21.8013 17.5039 21.4512 16.8611 21.2119 15.8136C20.6652 13.4219 18.8094 11.9355 16.3693 11.9355C15.226 11.9355 14.7555 12.103 14.1858 12.7128C13.8883 13.0313 13.8415 13.2088 13.8415 14.0199C13.8415 15.1049 13.9449 15.267 15.1713 16.1021C16.1176 16.7466 17.2361 17.8179 17.62 18.4477C17.9692 19.0204 17.9807 19.7692 17.6471 20.2032L17.3959 20.5299L16.1007 19.5754C14.5903 18.4623 11.1552 16.0466 9.57195 14.9839C8.96596 14.5772 8.17252 13.9663 7.80892 13.6262C6.98642 12.8576 5.96587 11.3471 5.45229 10.1387L5.06198 9.22039L6.76606 6.45857C7.70328 4.93959 8.50113 3.69661 8.53901 3.69634C8.57688 3.69593 10.0643 4.1967 11.8444 4.80903Z" fill="black"/>
</svg>
