<svg width="20" height="23" viewBox="0 0 20 23" fill="none" xmlns="http://www.w3.org/2000/svg">
<path fill-rule="evenodd" clip-rule="evenodd" d="M9.06776 0.0563074C6.82072 0.456779 4.94147 2.24286 4.44936 4.44571C4.26455 5.27282 4.36382 6.95627 4.64659 7.79112C5.38379 9.96749 6.71737 11.6453 8.31966 12.4127C8.9246 12.7023 9.06908 12.7294 9.99975 12.7288C10.8602 12.7282 11.1038 12.6894 11.5717 12.479C13.1668 11.7612 14.6151 9.96556 15.3526 7.79112C15.6357 6.95637 15.7351 5.27343 15.5501 4.44571C15.1065 2.45995 13.5539 0.800229 11.5975 0.220243C10.899 0.0131343 9.73369 -0.0623168 9.06776 0.0563074ZM11.7079 1.75788C13.2551 2.48194 14.3323 4.10409 14.3255 5.69966C14.3193 7.13038 13.4696 9.0577 12.3457 10.1902C11.4596 11.0831 10.8418 11.4022 9.99975 11.4022C9.15319 11.4022 8.54052 11.0838 7.63877 10.1749C7.0652 9.59685 6.80626 9.23029 6.44072 8.47883C5.6916 6.93896 5.50832 5.68867 5.86409 4.5455C6.12425 3.70963 6.47523 3.13942 7.07477 2.57857C8.00554 1.70798 8.90637 1.36535 10.1542 1.4074C10.877 1.43184 11.1359 1.49029 11.7079 1.75788ZM3.88485 12.4858C2.51074 13.3487 1.67202 14.2201 0.955185 15.5297C0.311254 16.7061 -0.177905 18.8945 0.0620926 19.5258C0.285188 20.1126 2.49465 21.4004 4.28705 21.9885C7.78703 23.1367 12.4733 23.0956 15.9715 21.8859C17.7695 21.2641 19.7177 20.1036 19.9385 19.5229C20.1774 18.8947 19.6866 16.703 19.0443 15.5297C18.3275 14.2201 17.4888 13.3487 16.1147 12.4858C15.2905 11.9682 14.6327 12.1294 14.6327 12.8491C14.6327 13.1975 14.7484 13.3137 15.5846 13.8051C16.8656 14.5581 17.9935 16.1286 18.403 17.73C18.7089 18.926 18.7083 18.9283 17.8959 19.4538C16.6299 20.2727 14.887 20.8996 12.9017 21.2498C11.8803 21.4301 8.11724 21.4297 7.09778 21.2494C5.14899 20.9047 3.34987 20.26 2.12402 19.467C1.28886 18.9267 1.28968 18.9295 1.59647 17.73C2.006 16.1286 3.1339 14.5581 4.41494 13.8051C5.26018 13.3084 5.36679 13.1994 5.36679 12.8314C5.36679 12.1295 4.69974 11.974 3.88485 12.4858Z" fill="black"/>
</svg>
