<svg width="22" height="22" viewBox="0 0 22 22" fill="none" xmlns="http://www.w3.org/2000/svg">
<path fill-rule="evenodd" clip-rule="evenodd" d="M0.752078 1.1751C0.577748 1.42365 0.569759 1.79315 0.541798 11.0047L0.512695 20.576L0.724783 20.8673L0.936965 21.1586H11.0344H21.132L21.3131 20.9005C21.4875 20.6521 21.4955 20.2819 21.5247 11.1137L21.5552 1.58521L21.3514 1.25116L21.1476 0.916992H11.0404H0.933256L0.752078 1.1751ZM20.2104 11.0991V19.5638H11.0326H1.85484V11.0991V2.63446H11.0326H20.2104V11.0991ZM3.33441 3.7659C3.1324 4.13774 3.14847 4.54846 3.37654 4.84263C3.76686 5.3461 4.42271 5.00763 4.42271 4.30261C4.42271 3.80418 4.17524 3.49319 3.77865 3.49319C3.58035 3.49319 3.43351 3.58336 3.33441 3.7659ZM5.34096 3.71757C5.12745 4.02181 5.14267 4.54453 5.37377 4.84263C5.92387 5.55219 6.72219 4.59507 6.27186 3.7659C6.08527 3.42216 5.56713 3.39518 5.34096 3.71757ZM7.3382 3.71757C7.10737 4.04646 7.13572 4.66524 7.39222 4.89698C7.83075 5.29322 8.41718 4.9463 8.41718 4.29059C8.41718 3.61881 7.68153 3.22809 7.3382 3.71757ZM3.18633 6.80545V7.66419H11.0326H18.8789V6.80545V5.94672H11.0326H3.18633V6.80545ZM7.4955 9.58873C7.01132 9.94339 6.77155 10.4373 6.7239 11.1785C6.68824 11.7342 6.71953 11.9122 6.92268 12.3082C7.33525 13.1125 8.24637 13.4317 8.89471 12.9993C9.81572 12.3849 9.90826 10.5078 9.0561 9.72503C8.65951 9.3608 7.89771 9.29431 7.4955 9.58873ZM12.6019 10.9151V11.3445H14.7418H16.8816V10.9151V10.4857H14.7418H12.6019V10.9151ZM12.6019 13.246V13.6753H14.7418H16.8816V13.246V12.8166H14.7418H12.6019V13.246ZM6.11427 13.8755C5.8124 13.9918 5.5871 14.1815 5.42475 14.456C5.19716 14.841 5.18356 14.9478 5.18356 16.3551V17.8463H6.61016C7.48438 17.8463 8.03675 17.7995 8.03675 17.7254C8.03675 17.5746 6.72295 13.8916 6.63022 13.7824C6.59304 13.7386 6.36088 13.7805 6.11427 13.8755ZM7.1808 13.7362C7.1808 13.7697 7.40411 14.4434 7.67697 15.2334L8.17314 16.6699L8.67007 15.3259C8.9434 14.5868 9.16947 13.9131 9.17251 13.8287C9.1766 13.7153 8.91782 13.6753 8.17941 13.6753C7.63017 13.6753 7.1808 13.7027 7.1808 13.7362ZM9.42093 14.568C9.24793 15.0554 8.92952 15.9459 8.71344 16.5469C8.49726 17.148 8.33929 17.664 8.36221 17.6937C8.38522 17.7233 9.03822 17.756 9.81344 17.7662L11.2228 17.785L11.2556 17.417C11.2737 17.2145 11.2588 16.5329 11.2223 15.9023C11.1644 14.8994 11.1246 14.7105 10.9041 14.3952C10.7604 14.1895 10.4554 13.959 10.1939 13.8584L9.73554 13.682L9.42093 14.568ZM14.718 14.994L12.6019 15.0294V15.3951V15.7608H14.7418H16.8816V15.3315C16.8816 15.0953 16.8709 14.9147 16.8579 14.9303C16.8448 14.9458 15.8819 14.9745 14.718 14.994Z" fill="#302F2F"/>
</svg>
