<svg width="10" height="14" viewBox="0 0 10 14" fill="none" xmlns="http://www.w3.org/2000/svg">
<path d="M2.87043 0.750759C2.62783 0.857268 2.32605 1.20638 2.25504 1.47857C2.16629 1.78626 2.16629 8.42532 2.25504 8.73301C2.33788 9.03478 2.61599 9.33656 2.91777 9.4549C3.13078 9.53774 3.43848 9.54366 5.09528 9.53183L7.02428 9.51407L7.26096 9.35431C7.40297 9.25964 7.5509 9.09396 7.62783 8.94011C7.75209 8.67975 7.75209 8.6265 7.75209 5.09987C7.75209 1.75668 7.74025 1.50816 7.63966 1.28922C7.50948 1.0052 7.3793 0.880937 7.08345 0.756677C6.78759 0.632416 3.14854 0.626499 2.87043 0.750759ZM6.63374 1.77443C6.63966 1.80401 6.64558 3.30697 6.65149 5.11762L6.65741 8.4194H4.98877H3.31422V5.0762V1.73301H4.97102C5.88226 1.73301 6.63374 1.75076 6.63374 1.77443Z" fill="#9C8C8C"/>
<path d="M0 7.56724C0 9.05837 0.0473373 9.37198 0.372781 9.98736C0.64497 10.5022 1.21893 11.082 1.70414 11.3365C2.31361 11.656 2.6568 11.7329 3.59763 11.7743L4.44379 11.8098L4.42604 12.3483L4.40828 12.8868H3.31361H2.21894L2.20118 13.4371L2.18343 13.9814H4.97041H7.75148V13.4548V12.9341L7.53254 12.9045C7.40828 12.8868 6.91716 12.8809 6.43787 12.8868L5.56213 12.9045V12.3542V11.8098L6.3787 11.7743C6.82249 11.7566 7.33728 11.6974 7.51479 11.6501C8.73373 11.3128 9.65089 10.3365 9.91124 9.09979C9.97041 8.81576 10 8.30689 10 7.45482V6.22997H9.44379H8.88166L8.86391 7.60275C8.84615 8.97553 8.84615 8.98145 8.67456 9.34831C8.46746 9.79801 8.00592 10.2536 7.53254 10.4785L7.18935 10.6383L5.13018 10.656C2.85207 10.6797 2.66864 10.656 2.11834 10.301C1.74556 10.0643 1.49704 9.77434 1.27811 9.30689L1.09467 8.92227L1.07692 7.57316L1.05325 6.22997H0.526627H0V7.56724Z" fill="#9C8C8C"/>
</svg>
