<svg width="13" height="13" viewBox="0 0 13 13" fill="none" xmlns="http://www.w3.org/2000/svg">
<path fill-rule="evenodd" clip-rule="evenodd" d="M5.71638 0.0544415C4.79548 0.159902 3.62107 0.604599 2.81357 1.1536C2.34394 1.47288 1.66704 2.12101 1.30732 2.59582C0.929241 3.09493 0.422871 4.1243 0.243941 4.7577C-0.196489 6.31652 -0.0387087 7.91948 0.702507 9.41606C1.07665 10.1716 1.43978 10.6679 2.02646 11.2258C2.94829 12.1025 4.08659 12.6825 5.37126 12.9303C5.85306 13.0232 7.14417 13.0232 7.62597 12.9303C8.91064 12.6825 10.0489 12.1025 10.9708 11.2258C11.5574 10.6679 11.9206 10.1716 12.2947 9.41606C13.2351 7.51742 13.2351 5.51379 12.2947 3.61515C11.9206 2.85964 11.5574 2.36332 10.9708 1.80539C9.94319 0.828166 8.61304 0.20892 7.20356 0.051599C6.58095 -0.0178958 6.34379 -0.0174317 5.71638 0.0544415ZM8.88781 4.0718C9.40733 4.59672 9.54066 4.76466 9.54066 4.8939C9.54066 5.02408 9.39736 5.201 8.81862 5.7855L8.09659 6.51468L8.81862 7.24524C9.39609 7.82951 9.54066 8.00823 9.54066 8.13777C9.54066 8.26643 9.40646 8.43536 8.88781 8.95941C8.52873 9.32226 8.19845 9.61909 8.15383 9.61909C8.10922 9.61909 7.72505 9.27446 7.30021 8.85331L6.5277 8.08747L5.78388 8.82431C5.26134 9.34186 5.00013 9.56108 4.9058 9.56108C4.72965 9.56108 3.45657 8.31609 3.45657 8.14386C3.45657 8.06943 3.7365 7.74458 4.2099 7.26966L4.96317 6.51398L4.2099 5.76155C3.72885 5.281 3.45657 4.96566 3.45657 4.88897C3.45657 4.71524 4.72832 3.47013 4.9058 3.47013C5.00013 3.47013 5.26134 3.68935 5.78388 4.2069L6.5277 4.94373L7.30021 4.1779C7.72505 3.75675 8.10922 3.41212 8.15383 3.41212C8.19845 3.41212 8.52873 3.70895 8.88781 4.0718Z" fill="#FF0000"/>
</svg>
