<svg width="45" height="46" viewBox="0 0 45 46" fill="none" xmlns="http://www.w3.org/2000/svg">
<path fill-rule="evenodd" clip-rule="evenodd" d="M23.2259 0.293931C22.0367 0.947619 21.4949 2.33842 21.9564 3.55238C22.0681 3.84594 22.0914 4.09268 22.0084 4.10059C21.9254 4.1087 21.015 4.13762 19.9851 4.16529C16.7381 4.25184 15.5121 5.40838 15.5121 8.38471C15.5121 9.72891 15.6575 10.1194 16.1585 10.1194C16.538 10.1194 16.5523 10.4059 16.5523 17.9595C16.5523 25.5054 16.5688 25.8337 16.9903 26.7046C17.2905 27.3244 17.681 27.7382 18.2305 28.0184C18.9932 28.4077 19.4969 28.4277 28.5621 28.4277C39.3024 28.4277 39.0819 28.458 40.0064 26.8457C40.4648 26.0459 40.471 25.9282 40.4746 18.0918L40.4779 10.1483L40.946 10.082C41.3794 10.0204 41.4187 9.89535 41.4748 8.40094C41.5479 6.46256 41.1877 5.53342 40.0813 4.80525C39.4501 4.38977 38.9933 4.2974 37.1491 4.21231C35.4731 4.13512 34.9852 4.04816 35.0534 3.83866C35.1025 3.68865 35.1797 3.19142 35.2253 2.73371C35.3994 0.985691 33.6537 -0.402614 31.9306 0.113762C31.2391 0.320978 30.891 0.646365 29.9092 2.00409C29.2568 2.90598 28.6295 3.64683 28.5151 3.65037C28.4007 3.65391 27.8554 3.00189 27.3032 2.20152C26.7513 1.40137 26.0824 0.604131 25.8169 0.430203C25.0234 -0.0897093 24.02 -0.142345 23.2259 0.293931ZM25.354 1.43341C25.6305 1.69097 26.2 2.38565 26.6194 2.97713L27.3819 4.05274L25.7639 4.13159C23.9842 4.21813 23.3493 3.99532 22.9631 3.14814C22.5379 2.21463 23.3809 1.02397 24.4985 0.97945C24.6924 0.971544 25.0773 1.17585 25.354 1.43341ZM33.7257 1.47606C34.3367 2.08689 34.3941 3.01291 33.862 3.67014C33.5274 4.08332 33.29 4.13388 31.6254 4.14594C30.6014 4.15322 29.7761 4.08831 29.7917 4.00156C29.846 3.69989 31.63 1.34707 31.944 1.16316C32.5086 0.832152 33.2041 0.954276 33.7257 1.47606ZM39.4853 5.6287C40.1773 6.08204 40.4779 6.81499 40.4779 8.04872V9.07918H28.5151H16.5523V8.13256C16.5523 6.5256 17.2553 5.56566 18.5916 5.34804C19.0148 5.27897 23.7737 5.2384 29.1669 5.25775C37.8007 5.28875 39.0342 5.33307 39.4853 5.6287ZM39.4376 17.9316C39.4376 26.4052 39.4096 26.633 38.2992 27.1388C37.902 27.3198 35.2045 27.3874 28.3805 27.3874H19.0073L18.3 26.68L17.5926 25.9727V18.0461V10.1194H28.5151H39.4376V17.9316ZM22.2435 14.1799C22.1726 14.3651 22.1971 14.5989 22.298 14.6996C22.3991 14.8005 24.6993 14.9112 27.4095 14.9457L32.3376 15.0086L32.9763 15.6208C33.7789 16.3904 34.0921 17.444 33.8126 18.4347C33.3339 20.1324 32.5219 20.5711 29.639 20.6899C28.2935 20.7453 27.3709 20.7037 27.3709 20.5876C27.3709 20.4798 27.6517 20.1226 27.995 19.7937C28.6999 19.1183 28.7804 18.7559 28.2692 18.5595C27.8142 18.385 25.4957 20.6356 25.5047 21.2435C25.508 21.4759 26.0678 22.2264 26.7486 22.9113C27.9218 24.0913 28.0052 24.1375 28.3462 23.7967C28.6872 23.4557 28.6645 23.3946 27.9141 22.626L27.1222 21.8151L29.5872 21.7375C31.6849 21.6715 32.1763 21.5891 32.8877 21.1838C34.4004 20.3221 35.239 18.5662 34.8868 16.9983C34.6421 15.91 34.2306 15.288 33.2692 14.5544L32.5015 13.9683L27.437 13.9059C22.928 13.8503 22.3583 13.8805 22.2435 14.1799ZM0.0470582 27.0602C-0.180546 27.6533 0.477718 27.7929 3.77216 27.8501C5.59487 27.8817 7.06286 27.9779 7.03415 28.0636C7.00544 28.1493 6.98213 31.2623 6.98213 34.9812V41.7427H3.5716C0.809555 41.7427 0.139432 41.7991 0.0470582 42.0396C-0.200935 42.686 0.439229 42.7934 4.19887 42.736L7.91461 42.679L8.02217 42.0548L8.12994 41.4307L10.6427 41.3726L13.1555 41.3144L17.8185 43.1926C22.8787 45.2309 23.6957 45.3961 25.5704 44.7596C26.5645 44.422 43.0541 34.078 44.1778 33.0871C45.8609 31.6027 44.7864 28.8438 42.5251 28.8438C42.0378 28.8438 40.9331 29.4583 36.2649 32.3261C34.2038 33.5924 33.4042 34.1945 33.4042 34.4804C33.4042 34.7018 33.5482 34.8771 33.73 34.8771C33.9092 34.8771 35.9083 33.7537 38.1723 32.3806C40.4365 31.0075 42.4724 29.884 42.6965 29.884C43.3175 29.884 44.0147 30.6502 44.0147 31.3326C44.0147 31.7385 43.8295 32.0797 43.4426 32.3868C42.398 33.2159 26.4509 43.2557 25.5207 43.6699C24.0585 44.3213 22.7928 44.1076 19.0489 42.5776C13.3203 40.2365 13.5019 40.2864 10.7176 40.2864H8.23042L8.21919 38.0499C8.19901 34.0289 8.1963 29.9955 8.21357 29.6239C8.22897 29.2929 8.5348 29.2598 11.5729 29.2598C13.6807 29.2598 15.0831 29.3479 15.3698 29.4981C15.6197 29.6291 16.4806 30.3567 17.2828 31.1146C18.2344 32.0138 19.0383 32.582 19.5955 32.7488C20.1618 32.9186 22.0315 33.0047 25.1468 33.0047C29.789 33.0047 29.851 33.0105 30.4175 33.4978C31.1586 34.1352 31.2102 35.291 30.528 35.974C30.0946 36.4082 29.8379 36.4442 26.4814 36.5415C23.0711 36.6406 22.8978 36.6657 22.8978 37.0616C22.8978 37.4565 23.057 37.4809 26.0185 37.5393C29.6935 37.6117 30.2727 37.531 31.1057 36.8301C32.3463 35.7861 32.3455 33.8712 31.1039 32.6808L30.4654 32.0685L25.1121 31.9645L19.759 31.8604L18.9357 31.2026C18.483 30.8408 17.785 30.2008 17.3845 29.7806C16.0836 28.4152 15.7938 28.3347 11.7672 28.2196L8.1264 28.1156L8.06128 27.4394L7.99595 26.7633H4.07862C0.877379 26.7633 0.140264 26.8176 0.0470582 27.0602ZM18.9337 36.7677C18.6563 37.2166 19.2626 37.452 20.5573 37.3976C20.9827 37.38 21.1294 37.267 21.1294 36.9576C21.1294 36.5977 20.9906 36.5415 20.1014 36.5415C19.536 36.5415 19.0106 36.6433 18.9337 36.7677ZM4.49887 39.7503C4.17598 40.1393 4.38091 40.4944 4.92849 40.4944C5.23952 40.4944 5.32961 40.3786 5.2803 40.0426C5.19708 39.4781 4.83674 39.3431 4.49887 39.7503Z" fill="#FD9149"/>
<path fill-rule="evenodd" clip-rule="evenodd" d="M23.2259 0.293931C22.0367 0.947619 21.4949 2.33842 21.9564 3.55238C22.0681 3.84594 22.0914 4.09268 22.0084 4.10059C21.9254 4.1087 21.015 4.13762 19.9851 4.16529C16.7381 4.25184 15.5121 5.40838 15.5121 8.38471C15.5121 9.72891 15.6575 10.1194 16.1585 10.1194C16.538 10.1194 16.5523 10.4059 16.5523 17.9595C16.5523 25.5054 16.5688 25.8337 16.9903 26.7046C17.2905 27.3244 17.681 27.7382 18.2305 28.0184C18.9932 28.4077 19.4969 28.4277 28.5621 28.4277C39.3024 28.4277 39.0819 28.458 40.0064 26.8457C40.4648 26.0459 40.471 25.9282 40.4746 18.0918L40.4779 10.1483L40.946 10.082C41.3794 10.0204 41.4187 9.89535 41.4748 8.40094C41.5479 6.46256 41.1877 5.53342 40.0813 4.80525C39.4501 4.38977 38.9933 4.2974 37.1491 4.21231C35.4731 4.13512 34.9852 4.04816 35.0534 3.83866C35.1025 3.68865 35.1797 3.19142 35.2253 2.73371C35.3994 0.985691 33.6537 -0.402614 31.9306 0.113762C31.2391 0.320978 30.891 0.646365 29.9092 2.00409C29.2568 2.90598 28.6295 3.64683 28.5151 3.65037C28.4007 3.65391 27.8554 3.00189 27.3032 2.20152C26.7513 1.40137 26.0824 0.604131 25.8169 0.430203C25.0234 -0.0897093 24.02 -0.142345 23.2259 0.293931ZM25.354 1.43341C25.6305 1.69097 26.2 2.38565 26.6194 2.97713L27.3819 4.05274L25.7639 4.13159C23.9842 4.21813 23.3493 3.99532 22.9631 3.14814C22.5379 2.21463 23.3809 1.02397 24.4985 0.97945C24.6924 0.971544 25.0773 1.17585 25.354 1.43341ZM33.7257 1.47606C34.3367 2.08689 34.3941 3.01291 33.862 3.67014C33.5274 4.08332 33.29 4.13388 31.6254 4.14594C30.6014 4.15322 29.7761 4.08831 29.7917 4.00156C29.846 3.69989 31.63 1.34707 31.944 1.16316C32.5086 0.832152 33.2041 0.954276 33.7257 1.47606ZM39.4853 5.6287C40.1773 6.08204 40.4779 6.81499 40.4779 8.04872V9.07918H28.5151H16.5523V8.13256C16.5523 6.5256 17.2553 5.56566 18.5916 5.34804C19.0148 5.27897 23.7737 5.2384 29.1669 5.25775C37.8007 5.28875 39.0342 5.33307 39.4853 5.6287ZM39.4376 17.9316C39.4376 26.4052 39.4096 26.633 38.2992 27.1388C37.902 27.3198 35.2045 27.3874 28.3805 27.3874H19.0073L18.3 26.68L17.5926 25.9727V18.0461V10.1194H28.5151H39.4376V17.9316ZM22.2435 14.1799C22.1726 14.3651 22.1971 14.5989 22.298 14.6996C22.3991 14.8005 24.6993 14.9112 27.4095 14.9457L32.3376 15.0086L32.9763 15.6208C33.7789 16.3904 34.0921 17.444 33.8126 18.4347C33.3339 20.1324 32.5219 20.5711 29.639 20.6899C28.2935 20.7453 27.3709 20.7037 27.3709 20.5876C27.3709 20.4798 27.6517 20.1226 27.995 19.7937C28.6999 19.1183 28.7804 18.7559 28.2692 18.5595C27.8142 18.385 25.4957 20.6356 25.5047 21.2435C25.508 21.4759 26.0678 22.2264 26.7486 22.9113C27.9218 24.0913 28.0052 24.1375 28.3462 23.7967C28.6872 23.4557 28.6645 23.3946 27.9141 22.626L27.1222 21.8151L29.5872 21.7375C31.6849 21.6715 32.1763 21.5891 32.8877 21.1838C34.4004 20.3221 35.239 18.5662 34.8868 16.9983C34.6421 15.91 34.2306 15.288 33.2692 14.5544L32.5015 13.9683L27.437 13.9059C22.928 13.8503 22.3583 13.8805 22.2435 14.1799ZM0.0470582 27.0602C-0.180546 27.6533 0.477718 27.7929 3.77216 27.8501C5.59487 27.8817 7.06286 27.9779 7.03415 28.0636C7.00544 28.1493 6.98213 31.2623 6.98213 34.9812V41.7427H3.5716C0.809555 41.7427 0.139432 41.7991 0.0470582 42.0396C-0.200935 42.686 0.439229 42.7934 4.19887 42.736L7.91461 42.679L8.02217 42.0548L8.12994 41.4307L10.6427 41.3726L13.1555 41.3144L17.8185 43.1926C22.8787 45.2309 23.6957 45.3961 25.5704 44.7596C26.5645 44.422 43.0541 34.078 44.1778 33.0871C45.8609 31.6027 44.7864 28.8438 42.5251 28.8438C42.0378 28.8438 40.9331 29.4583 36.2649 32.3261C34.2038 33.5924 33.4042 34.1945 33.4042 34.4804C33.4042 34.7018 33.5482 34.8771 33.73 34.8771C33.9092 34.8771 35.9083 33.7537 38.1723 32.3806C40.4365 31.0075 42.4724 29.884 42.6965 29.884C43.3175 29.884 44.0147 30.6502 44.0147 31.3326C44.0147 31.7385 43.8295 32.0797 43.4426 32.3868C42.398 33.2159 26.4509 43.2557 25.5207 43.6699C24.0585 44.3213 22.7928 44.1076 19.0489 42.5776C13.3203 40.2365 13.5019 40.2864 10.7176 40.2864H8.23042L8.21919 38.0499C8.19901 34.0289 8.1963 29.9955 8.21357 29.6239C8.22897 29.2929 8.5348 29.2598 11.5729 29.2598C13.6807 29.2598 15.0831 29.3479 15.3698 29.4981C15.6197 29.6291 16.4806 30.3567 17.2828 31.1146C18.2344 32.0138 19.0383 32.582 19.5955 32.7488C20.1618 32.9186 22.0315 33.0047 25.1468 33.0047C29.789 33.0047 29.851 33.0105 30.4175 33.4978C31.1586 34.1352 31.2102 35.291 30.528 35.974C30.0946 36.4082 29.8379 36.4442 26.4814 36.5415C23.0711 36.6406 22.8978 36.6657 22.8978 37.0616C22.8978 37.4565 23.057 37.4809 26.0185 37.5393C29.6935 37.6117 30.2727 37.531 31.1057 36.8301C32.3463 35.7861 32.3455 33.8712 31.1039 32.6808L30.4654 32.0685L25.1121 31.9645L19.759 31.8604L18.9357 31.2026C18.483 30.8408 17.785 30.2008 17.3845 29.7806C16.0836 28.4152 15.7938 28.3347 11.7672 28.2196L8.1264 28.1156L8.06128 27.4394L7.99595 26.7633H4.07862C0.877379 26.7633 0.140264 26.8176 0.0470582 27.0602ZM18.9337 36.7677C18.6563 37.2166 19.2626 37.452 20.5573 37.3976C20.9827 37.38 21.1294 37.267 21.1294 36.9576C21.1294 36.5977 20.9906 36.5415 20.1014 36.5415C19.536 36.5415 19.0106 36.6433 18.9337 36.7677ZM4.49887 39.7503C4.17598 40.1393 4.38091 40.4944 4.92849 40.4944C5.23952 40.4944 5.32961 40.3786 5.2803 40.0426C5.19708 39.4781 4.83674 39.3431 4.49887 39.7503Z" fill="url(#paint0_linear_520_265)"/>
<defs>
<linearGradient id="paint0_linear_520_265" x1="22.5" y1="-2.23074e-07" x2="26.25" y2="31.5" gradientUnits="userSpaceOnUse">
<stop stop-color="#FFD588"/>
<stop offset="1" stop-color="#FFD588" stop-opacity="0"/>
</linearGradient>
</defs>
</svg>
