<svg width="22" height="28" viewBox="0 0 22 28" fill="none" xmlns="http://www.w3.org/2000/svg">
<path d="M14.4491 7.27906C16.1054 7.76829 18.1347 9.20939 19.2356 10.6658L19.2358 10.6661C21.7582 14.0216 22.0772 18.1699 20.0969 21.8751L20.0963 21.8761C19.733 22.5428 19.084 23.3351 18.3609 24.048C17.6379 24.7609 16.8288 25.4063 16.1385 25.7726C14.4842 26.6593 13.2678 26.9694 11.3641 26.9933C8.45847 27.0297 6.3323 26.1861 4.24066 24.1595C2.41954 22.4097 1.50043 20.5886 1.16283 18.1137L1.16275 18.1131C0.558167 13.5545 3.49766 8.76715 7.78525 7.36276C7.92569 7.31612 8.06583 7.26314 8.17796 7.21569C8.22498 7.19579 8.26619 7.17723 8.29993 7.16087C8.29868 7.15852 8.29739 7.15611 8.29606 7.15364C8.25589 7.07939 8.18822 6.97418 8.0964 6.84372C7.91383 6.58429 7.64607 6.23949 7.34059 5.8705C6.70879 5.12492 6.34136 4.67467 6.1323 4.35198C6.02664 4.18889 5.95754 4.05267 5.91519 3.92234C5.87232 3.79041 5.85904 3.67122 5.85747 3.54565C5.85432 3.29489 5.95867 3.07555 6.14995 2.90711C6.33718 2.74224 6.60326 2.62924 6.92726 2.56954C7.1357 2.52374 7.24955 2.47745 7.3724 2.36231C7.50695 2.2362 7.6552 2.02477 7.90856 1.62411C7.90868 1.62392 7.9088 1.62372 7.90892 1.62353L8.47534 0.71021L8.51869 0.640312L8.60093 0.63928L11.0332 0.608777L13.4655 0.578273L13.5477 0.577242L13.5928 0.646031L14.182 1.54486M14.4491 7.27906C14.4489 7.279 14.4487 7.27894 14.4485 7.27888L14.406 7.42274L14.4497 7.27925C14.4495 7.27918 14.4493 7.27912 14.4491 7.27906ZM14.4491 7.27906C14.3076 7.23597 14.1666 7.18664 14.0556 7.14226C14.0147 7.12592 13.9788 7.11061 13.949 7.09689C13.9498 7.0954 13.9506 7.09388 13.9514 7.09234C13.9908 7.01766 14.0561 6.91114 14.1438 6.77922C14.3185 6.5165 14.5745 6.16479 14.8705 5.78854L14.8707 5.78828C15.4772 5.01364 15.8296 4.54792 16.0285 4.21888C16.1289 4.05277 16.1939 3.91558 16.2328 3.78604C16.2721 3.65467 16.2825 3.53765 16.281 3.41493C16.2778 3.16416 16.168 2.94751 15.9726 2.78393C15.7813 2.6238 15.5124 2.51751 15.187 2.46595C14.9775 2.42539 14.8625 2.38198 14.7368 2.26996C14.5992 2.14725 14.4456 1.93958 14.1823 1.54535M14.1823 1.54535L14.1827 1.54595L14.0572 1.62818L14.182 1.54486M14.1823 1.54535C14.1822 1.54519 14.1821 1.54502 14.182 1.54486M14.1823 1.54535L14.182 1.54486M11.1103 6.75576L11.215 6.64837L13.0326 4.78464C13.5001 4.30525 13.8618 3.93943 14.1507 3.66564C14.4409 3.39065 14.6512 3.21493 14.8165 3.11088C14.9802 3.0079 15.0848 2.98477 15.1683 2.9925C15.2568 3.0007 15.3498 3.04543 15.4894 3.14025L15.4899 3.14055C15.6091 3.22091 15.6635 3.28587 15.6849 3.35047C15.706 3.41394 15.7054 3.50879 15.6392 3.67233C15.5035 4.00757 15.1377 4.527 14.4474 5.42248L14.4471 5.42287C14.09 5.88924 13.7745 6.32663 13.5559 6.6551C13.447 6.81878 13.3602 6.95834 13.3043 7.06214C13.2769 7.11305 13.2536 7.16121 13.2397 7.20202C13.2331 7.22144 13.2253 7.24831 13.2237 7.27743C13.2225 7.29837 13.222 7.3665 13.2795 7.41656C13.3013 7.43622 13.3273 7.45106 13.3443 7.46035C13.3668 7.47265 13.3938 7.4857 13.4235 7.49909C13.4831 7.526 13.5605 7.55748 13.6494 7.59142C13.8276 7.65944 14.0581 7.73968 14.2978 7.81626L14.2991 7.81666C15.6183 8.22525 16.7252 8.9198 17.9636 10.1147L17.9637 10.1148C18.4412 10.574 18.744 10.8954 18.9924 11.2275C19.2404 11.5591 19.4375 11.9059 19.6992 12.4196C20.8047 14.6011 21.0977 16.4702 20.6724 18.6618C19.979 22.2318 17.5419 24.9552 14.0041 26.1015L14.0035 26.1017C13.3164 26.3275 12.3419 26.4509 11.3575 26.4632C10.373 26.4756 9.39575 26.3767 8.70315 26.1681L8.70261 26.168C6.02149 25.3717 3.90304 23.6368 2.68224 21.2449C2.30091 20.4864 2.05514 19.8763 1.90106 19.2393C1.74692 18.6021 1.68297 17.9313 1.67192 17.0501C1.66045 16.1352 1.70435 15.4607 1.85172 14.8027C1.99914 14.1444 2.25175 13.4953 2.66601 12.6335L2.6663 12.6329C3.66129 10.5391 5.78878 8.63367 7.94964 7.89612L7.9504 7.89586C8.18806 7.81331 8.41678 7.72723 8.59525 7.65289C8.68429 7.6158 8.76255 7.58093 8.82383 7.55032C8.85439 7.53506 8.88241 7.52002 8.90617 7.50558C8.92594 7.49357 8.95094 7.47714 8.97194 7.45685C9.02657 7.40632 9.02541 7.34005 9.02388 7.31849C9.02181 7.2893 9.01355 7.26258 9.00657 7.24334C8.99191 7.20294 8.96782 7.15564 8.93949 7.10584C8.88169 7.00426 8.79212 6.86797 8.67904 6.70775C8.45214 6.38627 8.12232 5.95684 7.74025 5.49295M11.1103 6.75576L7.73996 5.4926C7.74006 5.49272 7.74016 5.49283 7.74025 5.49295M11.1103 6.75576L11.0029 6.65103M11.1103 6.75576L11.0029 6.65103M7.74025 5.49295C7.01507 4.6029 6.61968 4.06353 6.47224 3.71611M7.74025 5.49295L6.47224 3.71611M11.0029 6.65103L9.13919 4.83347C8.18799 3.90584 7.68347 3.43462 7.3437 3.22659C7.17922 3.12589 7.06933 3.09743 6.97682 3.09974C6.88032 3.10216 6.78117 3.13807 6.63344 3.21102L6.63216 3.21164M11.0029 6.65103L6.63216 3.21164M6.63216 3.21164C6.4984 3.27611 6.4429 3.33534 6.4218 3.39197M6.63216 3.21164L6.4218 3.39197M6.4218 3.39197C6.40038 3.44947 6.39944 3.5446 6.47224 3.71611M6.4218 3.39197L6.47224 3.71611M7.9747 2.48807L8.61087 2.48009L9.45164 2.46954L9.73167 1.89148L9.73165 1.89147L9.73264 1.8895C9.82067 1.71439 9.89882 1.5398 9.95447 1.40038C9.98108 1.33373 10.002 1.27657 10.0162 1.23207C9.99834 1.22779 9.97675 1.22341 9.95122 1.21922C9.83279 1.19976 9.6613 1.189 9.46258 1.19149L8.83178 1.1994L8.34648 1.92908L7.9747 2.48807ZM8.15544 3.04881L9.29278 4.20063L9.29349 4.20136C9.67194 4.58985 10.0234 4.9358 10.283 5.18255C10.2928 5.19184 10.3024 5.20098 10.3119 5.20997C10.2182 4.96413 10.093 4.65032 9.95406 4.31241C9.95404 4.31235 9.95402 4.3123 9.95399 4.31224L9.42356 3.03291L8.67052 3.04235L8.15544 3.04881ZM11.8487 5.23922C11.8467 5.24494 11.8448 5.25061 11.8428 5.25625C11.8444 5.25446 11.8459 5.25267 11.8475 5.25088C12.0699 4.99591 12.6943 4.31569 13.2401 3.74272L13.2413 3.74146L13.9881 2.97567L13.4693 2.98217L12.703 2.99178L12.2174 4.24506L12.2173 4.24525C12.0713 4.6205 11.9416 4.97216 11.8487 5.23922ZM10.9887 5.29746C11.0249 5.37357 11.0579 5.44147 11.0868 5.49925C11.1129 5.44617 11.1423 5.38437 11.1743 5.31525C11.2921 5.06145 11.4423 4.71743 11.5904 4.36554C11.7384 4.01373 11.8837 3.65558 11.9915 3.3737C12.0455 3.23258 12.0897 3.11187 12.12 3.02115C12.1206 3.01936 12.1212 3.01758 12.1218 3.01582C12.0712 3.01387 12.0102 3.0123 11.94 3.01115C11.7152 3.00745 11.4045 3.00807 11.0634 3.01234C10.7222 3.01662 10.4116 3.0238 10.1869 3.03313C10.1184 3.03598 10.0585 3.03901 10.0087 3.04215C10.0406 3.12797 10.0857 3.2418 10.1402 3.37495C10.2528 3.64951 10.4038 4.00177 10.5574 4.35C10.711 4.69827 10.8667 5.04129 10.9887 5.29746ZM12.0626 2.4368L11.7696 1.8686C11.6752 1.68558 11.6025 1.5496 11.5398 1.44714C11.4767 1.34405 11.429 1.28376 11.3871 1.2464C11.3173 1.1842 11.2494 1.16908 11.0403 1.1717C10.8311 1.17432 10.7636 1.19114 10.6955 1.25507C10.6545 1.29348 10.6083 1.35494 10.5478 1.45958C10.4877 1.56358 10.4185 1.70134 10.3287 1.88667L10.05 2.46204L11.0563 2.44942L12.0626 2.4368ZM13.5017 2.41875L14.1379 2.41077L13.7522 1.86129L13.2488 1.144L12.5391 1.15291L12.0061 1.15959L12.2991 1.72779L12.6609 2.4293L13.5017 2.41875Z" stroke="#FD9149" stroke-width="0.3"/>
</svg>
