<svg width="15" height="15" viewBox="0 0 15 15" fill="none" xmlns="http://www.w3.org/2000/svg">
<path fill-rule="evenodd" clip-rule="evenodd" d="M0 1.75781V3.51562H0.46875H0.9375V2.22656V0.9375H2.22656H3.51562V0.46875V0H1.75781H0V1.75781ZM11.4844 0.46875V0.9375H12.7734H14.0625V2.22656V3.51562H14.5312H15V1.75781V0H13.2422H11.4844V0.46875ZM1.78453 3.95508L1.81641 6.15234H3.98438H6.15234L6.18551 4.83398L6.21867 3.51562H6.62496H7.03125V4.39453V5.27344H7.5H7.96875V4.39453V3.51562H7.5H7.03125V3.04688C7.03125 2.58926 7.02152 2.57812 6.62109 2.57812C6.23051 2.57812 6.21094 2.55855 6.21094 2.16797V1.75781H3.9818H1.75266L1.78453 3.95508ZM7.05352 2.19727C7.08797 2.61445 7.11059 2.63672 7.5 2.63672C7.88941 2.63672 7.91203 2.61445 7.94648 2.19727L7.98293 1.75781H7.5H7.01707L7.05352 2.19727ZM8.81578 3.95508L8.84766 6.15234L9.69727 6.1868L10.5469 6.22125V6.62625V7.03125H9.26484H7.98293L7.94648 6.5918C7.91203 6.17461 7.88941 6.15234 7.5 6.15234H7.08984V7.03125V7.91016L8.81836 7.94262L10.5469 7.97496V7.50316V7.03125H11.0156H11.4844V7.50516V7.97906L12.334 7.94461L13.1836 7.91016L13.2199 7.4707L13.2564 7.03125H12.3703H11.4844V6.62625V6.22125L12.334 6.1868L13.1836 6.15234L13.2155 3.95508L13.2473 1.75781H11.0156H8.78391L8.81578 3.95508ZM5.27344 3.98438V5.27344H3.98438H2.69531V3.98438V2.69531H3.98438H5.27344V3.98438ZM12.3047 3.98438V5.27344H11.0156H9.72656V3.98438V2.69531H11.0156H12.3047V3.98438ZM3.53789 3.95508C3.57234 4.37227 3.59496 4.39453 3.98438 4.39453C4.37379 4.39453 4.39641 4.37227 4.43086 3.95508L4.4673 3.51562H3.98438H3.50145L3.53789 3.95508ZM10.5691 3.95508C10.6036 4.37227 10.6262 4.39453 11.0156 4.39453C11.405 4.39453 11.4277 4.37227 11.4621 3.95508L11.4986 3.51562H11.0156H10.5327L10.5691 3.95508ZM1.78008 7.4707L1.81641 7.91016L2.66602 7.94461L3.51562 7.97906V8.38406C3.51562 8.76879 3.49512 8.78906 3.10547 8.78906C2.70504 8.78906 2.69531 8.8002 2.69531 9.25781C2.69531 9.71543 2.70504 9.72656 3.10547 9.72656H3.51562V10.5469V11.3672H3.10547C2.70504 11.3672 2.69531 11.3783 2.69531 11.8359V12.3047H2.21953H1.74363L1.78008 12.7441C1.81453 13.1613 1.83715 13.1836 2.22656 13.1836C2.61598 13.1836 2.63859 13.1613 2.67305 12.7441C2.70738 12.3302 2.73246 12.3047 3.10547 12.3047C3.47848 12.3047 3.50355 12.3302 3.53789 12.7441L3.57422 13.1836H5.74219H7.91016L7.94648 12.7441L7.98293 12.3047H7.50703H7.03125V11.8359C7.03125 11.3783 7.02152 11.3672 6.62109 11.3672C6.22066 11.3672 6.21094 11.3783 6.21094 11.8359V12.3047H5.33203H4.45312V11.8945C4.45312 11.5039 4.4727 11.4844 4.86328 11.4844C5.26371 11.4844 5.27344 11.4732 5.27344 11.0156V10.5469H5.74219H6.21094V9.66797V8.78906H6.62109C7.02152 8.78906 7.03125 8.77793 7.03125 8.32031C7.03125 7.8627 7.02152 7.85156 6.62109 7.85156C6.22066 7.85156 6.21094 7.8627 6.21094 8.32031V8.78906H5.74219H5.27344V9.66797V10.5469H4.86328H4.45312V9.26297V7.97906L5.30273 7.94461L6.15234 7.91016L6.18867 7.4707L6.22512 7.03125H3.98438H1.74363L1.78008 7.4707ZM10.6305 7.9241C10.5845 7.97016 10.5469 8.18355 10.5469 8.39848V8.78906H9.25781H7.96875V9.25781C7.96875 9.71543 7.97848 9.72656 8.37891 9.72656C8.76949 9.72656 8.78906 9.74613 8.78906 10.1367C8.78906 10.526 8.76855 10.5469 8.38594 10.5469C8.00484 10.5469 7.98094 10.523 7.94648 10.1074C7.91203 9.69023 7.88941 9.66797 7.5 9.66797C7.11059 9.66797 7.08797 9.69023 7.05352 10.1074L7.01707 10.5469H7.49297H7.96875V11.0156C7.96875 11.4721 7.97941 11.4844 8.37375 11.4844H8.77875L8.8132 12.334L8.84766 13.1836H11.0156H13.1836L13.2155 10.9863L13.2473 8.78906H12.3729H11.4986L11.4621 8.34961C11.4295 7.95551 11.3891 7.90652 11.07 7.87535C10.8743 7.85613 10.6766 7.87816 10.6305 7.9241ZM1.80961 9.76066C1.77445 9.85219 1.76168 10.2642 1.78113 10.6764L1.81641 11.4258H2.22656H2.63672V10.5469V9.66797L2.25504 9.63117C2.0066 9.60727 1.85109 9.6525 1.80961 9.76066ZM12.3047 11.0156V12.3047H11.0156H9.72656V11.0156V9.72656H11.0156H12.3047V11.0156ZM10.5691 10.9863C10.6036 11.4035 10.6262 11.4258 11.0156 11.4258C11.405 11.4258 11.4277 11.4035 11.4621 10.9863L11.4986 10.5469H11.0156H10.5327L10.5691 10.9863ZM0 13.2422V15H1.75781H3.51562V14.5312V14.0625H2.22656H0.9375V12.7734V11.4844H0.46875H0V13.2422ZM14.0625 12.7734V14.0625H12.7734H11.4844V14.5312V15H13.2422H15V13.2422V11.4844H14.5312H14.0625V12.7734Z" fill="#2C2929"/>
</svg>
