<svg width="15" height="15" viewBox="0 0 15 15" fill="none" xmlns="http://www.w3.org/2000/svg">
<path fill-rule="evenodd" clip-rule="evenodd" d="M5.08965 0.0907429C3.68885 0.339387 2.59779 0.93686 1.61986 1.99074C0.504687 3.19255 0 4.49595 0 6.17413C0 7.17274 0.0876791 7.65214 0.426603 8.5064C1.4465 11.0768 4.23944 12.6935 6.98008 12.2999C7.65553 12.2028 8.61327 11.8796 9.11576 11.5791L9.51078 11.3428L11.3237 13.1714L13.1365 15L13.3743 14.955C13.6499 14.9028 14.1315 14.5378 14.5451 14.0674C14.8777 13.6893 15.0424 13.3457 14.9907 13.1379C14.9709 13.0584 14.1592 12.1973 13.1869 11.2243C12.2146 10.2512 11.4191 9.4406 11.4191 9.42305C11.4191 9.40543 11.5213 9.174 11.6463 8.90881C12.5719 6.94467 12.4815 4.8437 11.3915 2.98727C11.0572 2.41797 10.2686 1.55679 9.72538 1.16796C8.36795 0.196306 6.69072 -0.193403 5.08965 0.0907429ZM7.23532 2.20146C7.94535 2.40634 8.47036 2.72323 9.02348 3.28063C9.84104 4.10462 10.2208 5.02524 10.2188 6.17843C10.2168 7.34608 9.84904 8.23516 9.02348 9.0683C8.19499 9.9044 7.26737 10.2974 6.12234 10.2974C4.97732 10.2974 4.04969 9.9044 3.22121 9.0683C2.40111 8.24068 2.02794 7.3452 2.02588 6.20008C2.02448 5.43014 2.11662 5.01428 2.43396 4.35871C2.91973 3.35506 3.89745 2.52763 4.97838 2.20543C5.55843 2.03256 6.64349 2.03061 7.23532 2.20146Z" fill="url(#paint0_linear_711_1457)"/>
<defs>
<linearGradient id="paint0_linear_711_1457" x1="7.5" y1="0" x2="7.5" y2="15" gradientUnits="userSpaceOnUse">
<stop stop-color="#FD9149"/>
<stop offset="1" stop-color="#FFD588"/>
</linearGradient>
</defs>
</svg>
