<svg width="15" height="16" viewBox="0 0 15 16" fill="none" xmlns="http://www.w3.org/2000/svg">
<path d="M4.61503 1.06488C1.47292 1.59065 -0.630163 4.8955 0.171012 8.00005C0.596637 9.60241 1.76085 10.9919 3.32564 11.7305C4.12682 12.1061 4.252 12.1311 5.62902 12.1311C7.0436 12.1311 7.09367 12.1186 8.00751 11.6679L8.93387 11.2048L11.3124 13.5707C13.4029 15.6613 13.7409 15.9492 14.0914 15.9492C14.3668 15.9492 14.5671 15.8491 14.7424 15.6237C15.2682 14.9603 15.1805 14.8226 12.6268 12.2688L10.2608 9.87781L10.6364 9.11419C11.4125 7.54939 11.4125 5.69667 10.6364 4.13188C10.1231 3.10537 9.64742 2.54204 8.73358 1.94116C7.54433 1.13999 6.02961 0.827028 4.61503 1.06488ZM7.20634 3.20552C7.95744 3.55603 8.69602 4.29462 9.03402 5.04572C9.44712 5.93452 9.42209 7.41169 8.97143 8.26294C8.5458 9.06412 7.657 9.86529 6.9059 10.1157C6.15479 10.3785 5.06569 10.366 4.28956 10.1031C3.41327 9.8027 2.36173 8.72612 2.0738 7.8248C1.38529 5.65912 2.58706 3.49344 4.80281 2.9176C5.39117 2.75486 6.55538 2.90508 7.20634 3.20552Z" fill="#323232" fill-opacity="0.5"/>
</svg>
