<svg width="13" height="13" viewBox="0 0 13 13" fill="none" xmlns="http://www.w3.org/2000/svg">
<path fill-rule="evenodd" clip-rule="evenodd" d="M5.63055 0.0545885C4.74338 0.165373 3.73778 0.538936 2.94251 1.05309C2.44611 1.3741 1.64302 2.13309 1.25294 2.65003C0.335079 3.86634 -0.134856 5.6049 0.0338924 7.16005C0.197197 8.66489 0.76581 9.89538 1.79133 10.9631C2.40557 11.6026 2.88489 11.9606 3.60372 12.3167C5.44258 13.2278 7.55581 13.2278 9.39466 12.3167C9.71317 12.1589 10.144 11.9015 10.352 11.7446C10.8692 11.3547 11.6286 10.552 11.9497 10.0559C13.205 8.1163 13.3443 5.67668 12.3178 3.60691C11.9615 2.88844 11.6033 2.40936 10.9635 1.79541C9.53237 0.422132 7.6385 -0.196094 5.63055 0.0545885ZM7.7732 1.54826C8.26809 1.6789 9.17472 2.09663 9.4396 2.31611L9.60036 2.4493L6.01333 6.03288L2.42625 9.61651L2.19449 9.258C0.908325 7.2691 1.18704 4.60976 2.85906 2.91686C3.59839 2.16828 4.49332 1.69071 5.58034 1.46463C6.13152 1.34996 7.17256 1.38967 7.7732 1.54826ZM11.0739 4.2436C11.4727 5.04554 11.5835 5.534 11.5853 6.50096C11.5865 7.15924 11.563 7.39817 11.4598 7.77434C10.9714 9.55476 9.66603 10.8865 7.87674 11.4299C7.42673 11.5666 7.27066 11.5846 6.52815 11.5854C5.84047 11.5863 5.60461 11.5635 5.22518 11.4593C4.69867 11.3149 4.0491 11.0216 3.65514 10.7507L3.38737 10.5666L6.97011 6.98397L10.5529 3.40132L10.6838 3.562C10.7558 3.65038 10.9313 3.95709 11.0739 4.2436Z" fill="black"/>
</svg>
