<svg width="11" height="9" viewBox="0 0 11 9" fill="none" xmlns="http://www.w3.org/2000/svg">
<path d="M10.0478 0.558279C7.52419 1.45746 1.49291 3.63754 0.869419 3.87506C0.474967 4.02351 0.118689 4.1762 0.0720332 4.21438C-0.0340021 4.31617 -0.0255192 4.40948 0.114447 4.53672C0.216241 4.63428 1.05604 5.22383 1.50563 5.52073L1.68377 5.63525L2.20546 5.37228C2.83743 5.05842 5.55618 3.64603 7.47754 2.63233C8.24523 2.22939 8.88569 1.89856 8.89841 1.89856C8.91962 1.89856 5.85732 4.18893 3.90627 5.63101L2.84168 6.41567V7.37423C2.83743 8.18858 2.84592 8.34551 2.90105 8.38792C2.99012 8.46003 3.04102 8.43458 3.79599 7.94258C4.13955 7.71778 4.44493 7.54388 4.47462 7.55661C4.50431 7.56933 4.81393 7.76868 5.16597 8.00196C5.51376 8.23523 5.84459 8.43882 5.90397 8.45155C6.07787 8.4982 5.8658 8.82903 8.77965 4.04048C10.8792 0.587968 11.0403 0.316518 10.9937 0.274104C10.9555 0.23169 10.9937 0.218966 10.0478 0.558279Z" fill="black"/>
</svg>
