<svg width="14" height="13" viewBox="0 0 14 13" fill="none" xmlns="http://www.w3.org/2000/svg">
<path d="M1.01457 0.661492C0.550357 0.898539 0.244171 1.26399 0.0861404 1.80722C0.00712482 2.08377 -0.0126291 3.60482 0.00712483 7.03212C0.0367557 11.8521 0.0367557 11.8718 0.254048 12.178C0.382449 12.3459 0.649126 12.5731 0.846665 12.6719C1.20223 12.8496 1.57756 12.8595 7.00988 12.8891C13.4398 12.9188 13.4101 12.9188 13.7558 12.3163C13.9534 11.9805 13.9632 11.8027 13.9929 7.0815C14.0126 3.77273 13.9929 2.07389 13.9139 1.82697C13.7756 1.33312 13.3608 0.868908 12.8768 0.651615C12.5113 0.483707 12.1064 0.463953 6.95062 0.463953C1.59731 0.463953 1.40965 0.47383 1.01457 0.661492ZM12.8867 1.58992L13.2225 1.92574V5.44193C13.2225 7.37781 13.1928 8.95812 13.1632 8.95812C13.1237 8.95812 12.6002 8.54329 11.9977 8.03957C11.3952 7.54572 10.8323 7.07163 10.7434 7.00249C10.6051 6.89384 10.4372 6.99261 9.58776 7.72351C9.04453 8.18772 8.58031 8.56305 8.56056 8.56305C8.5408 8.56305 8.03708 8.02969 7.43459 7.37781C6.84197 6.72593 6.30861 6.21233 6.24935 6.23209C6.19009 6.25184 4.95547 7.10126 3.51344 8.10871C2.06153 9.11615 0.846665 9.94582 0.826911 9.94582C0.79728 9.94582 0.777526 8.16797 0.777526 5.98516C0.777526 1.86648 0.787403 1.76771 1.21211 1.43189C1.39977 1.27386 1.86399 1.25411 6.98025 1.25411H12.5508L12.8867 1.58992ZM7.86917 8.88898L8.49142 9.56062L9.53837 8.67169C10.4471 7.91117 10.6248 7.80252 10.7532 7.91117C10.8323 7.98031 11.4249 8.47415 12.0669 8.99763L13.2225 9.95569V10.8742C13.2225 11.4471 13.1731 11.8521 13.0941 11.9508C12.9854 12.1089 12.5508 12.1187 7.06914 12.099L1.15285 12.0694L0.965188 11.8323C0.826911 11.6644 0.777526 11.4767 0.79728 11.2002L0.826911 10.8051L3.49369 8.94825L6.16046 7.09138L6.70369 7.65437C7 7.96055 7.52348 8.52354 7.86917 8.88898Z" fill="#9C8C8C"/>
</svg>
