<svg width="10" height="12" viewBox="0 0 10 12" fill="none" xmlns="http://www.w3.org/2000/svg">
<path fill-rule="evenodd" clip-rule="evenodd" d="M4.53388 0.0281537C3.41036 0.228389 2.47073 1.12143 2.22468 2.22285C2.13227 2.63641 2.18191 3.47813 2.32329 3.89556C2.69189 4.98375 3.35869 5.82267 4.15983 6.20634C4.4623 6.35113 4.53454 6.36472 4.99987 6.36442C5.43008 6.36411 5.55191 6.34472 5.78585 6.23948C6.58338 5.88061 7.30755 4.98278 7.6763 3.89556C7.81784 3.47818 7.86753 2.63672 7.77507 2.22285C7.55325 1.22998 6.77695 0.400115 5.79873 0.110122C5.44948 0.00656717 4.86684 -0.0311584 4.53388 0.0281537ZM5.85397 0.878939C6.62757 1.24097 7.16617 2.05205 7.16276 2.84983C7.15965 3.56519 6.73479 4.52885 6.17283 5.09509C5.7298 5.54153 5.42091 5.70109 4.99987 5.70109C4.57659 5.70109 4.27026 5.54189 3.81939 5.08745C3.5326 4.79843 3.40313 4.61514 3.22036 4.23942C2.8458 3.46948 2.75416 2.84433 2.93205 2.27275C3.06212 1.85481 3.23762 1.56971 3.53739 1.28929C4.00277 0.853992 4.45319 0.682674 5.07711 0.703701C5.43848 0.71592 5.56795 0.745143 5.85397 0.878939ZM1.94242 6.24289C1.25537 6.67437 0.836011 7.11007 0.477593 7.76485C0.155627 8.35303 -0.0889526 9.44727 0.0310463 9.76288C0.142594 10.0563 1.24733 10.7002 2.14353 10.9942C3.89351 11.5684 6.23667 11.5478 7.98574 10.943C8.88474 10.632 9.85884 10.0518 9.96926 9.76145C10.0887 9.44733 9.84331 8.3515 9.52216 7.76485C9.16374 7.11007 8.74438 6.67437 8.05733 6.24289C7.64525 5.98411 7.31636 6.0647 7.31636 6.42455C7.31636 6.59877 7.37419 6.65686 7.79228 6.90256C8.4328 7.27905 8.99675 8.06431 9.20151 8.865C9.35445 9.46301 9.35415 9.46413 8.94797 9.72688C8.31494 10.1364 7.44348 10.4498 6.45086 10.6249C5.94016 10.715 4.05862 10.7149 3.54889 10.6247C2.57449 10.4524 1.67493 10.13 1.06201 9.7335C0.64443 9.46336 0.644838 9.46474 0.798235 8.865C1.003 8.06431 1.56695 7.27905 2.20747 6.90256C2.63009 6.65421 2.68339 6.59968 2.68339 6.41569C2.68339 6.06475 2.34987 5.98701 1.94242 6.24289Z" fill="black"/>
</svg>
