<svg width="20" height="11" viewBox="0 0 20 11" fill="none" xmlns="http://www.w3.org/2000/svg">
<path d="M17.5529 1.3387C16.2645 2.07283 15.1777 2.68462 15.1345 2.70621C15.0842 2.7278 15.041 2.52627 15.0194 2.10162C14.9618 1.17316 14.6523 0.618954 13.983 0.280675L13.6303 0.100739H7.47647H1.32267L1.02758 0.259083C0.646115 0.46061 0.257454 0.899653 0.106308 1.29551C-0.00165354 1.57621 -0.00885097 1.98647 0.00554389 5.21091C0.0271362 9.24147 -0.00165357 9.00396 0.574141 9.56536C1.11395 10.0908 0.818853 10.0692 7.54125 10.0692H13.5583L13.9182 9.89644C14.314 9.7165 14.7027 9.32064 14.8754 8.92479C14.933 8.78084 15.005 8.38498 15.0266 8.0395L15.0698 7.40613L17.5385 8.80243L20 10.1987V5.09575C20 2.28876 19.9784 -0.00722218 19.9496 -2.47955e-05C19.9136 -2.47955e-05 18.8412 0.604559 17.5529 1.3387ZM13.5511 1.49704L13.7382 1.66978V5.07416C13.7382 8.313 13.731 8.47855 13.6015 8.63689L13.4647 8.80963L7.54845 8.83122L1.63936 8.84561L1.42344 8.63689L1.21471 8.42816V5.08856C1.21471 1.48265 1.20751 1.51863 1.60337 1.36029C1.68254 1.3243 4.36719 1.30271 7.56284 1.30991L13.364 1.3243L13.5511 1.49704ZM18.762 6.58562L18.7404 8.0539L16.9051 7.01747L15.0698 5.98104L15.0482 5.08856L15.0266 4.19608L16.8835 3.15245L18.7404 2.10162L18.762 3.60589C18.7692 4.43359 18.7692 5.77231 18.762 6.58562Z" fill="black"/>
</svg>
