<svg width="10" height="11" viewBox="0 0 10 11" fill="none" xmlns="http://www.w3.org/2000/svg">
<path fill-rule="evenodd" clip-rule="evenodd" d="M4.26999 0.0365541C3.1673 0.209247 2.07639 0.797084 1.31233 1.63036C-0.0779352 3.14664 -0.398036 5.40151 0.517553 7.22976L0.663825 7.52188L0.319754 8.76881C0.130504 9.45462 -0.00913296 10.0309 0.0093976 10.0495C0.0279282 10.068 0.614749 9.93169 1.31347 9.74651L2.58383 9.40991L2.91881 9.5569C4.21189 10.1244 5.51339 10.1656 6.80676 9.6801C8.00509 9.23028 8.99068 8.2967 9.55413 7.07781C9.89957 6.33037 10.0082 5.81492 9.99952 4.96508C9.99061 4.09188 9.8563 3.5255 9.47504 2.75337C8.84106 1.4695 7.6416 0.503166 6.24624 0.152101C5.68573 0.0110298 4.7733 -0.0422904 4.26999 0.0365541ZM6.06327 0.959376C7.48217 1.32407 8.68337 2.5331 9.06331 3.97878C9.22016 4.5757 9.20486 5.56434 9.03007 6.13072C8.79772 6.88324 8.50966 7.36216 7.94729 7.93075C7.52055 8.36221 7.34618 8.49067 6.87025 8.72416C6.13297 9.0858 5.59032 9.20063 4.80797 9.16034C4.14368 9.12615 3.56404 8.97199 3.04458 8.69134L2.71582 8.51369L1.93873 8.72177C1.51133 8.83618 1.15638 8.92465 1.14998 8.91837C1.14359 8.91209 1.23367 8.57143 1.35023 8.16143L1.5622 7.4159L1.35292 7.02736C0.765145 5.93603 0.675601 4.60619 1.11543 3.50057C1.65766 2.13774 2.88893 1.13434 4.34549 0.868337C4.7271 0.798698 5.62272 0.8461 6.06327 0.959376ZM3.06192 2.72444C2.86645 2.80317 2.58766 3.22244 2.50684 3.55921C2.33504 4.27539 2.80285 5.18261 3.86931 6.20149C4.6207 6.91934 5.60276 7.38661 6.35767 7.38547C6.65266 7.385 6.78058 7.35062 7.03929 7.20226C7.38522 7.00386 7.52778 6.77235 7.52778 6.40897C7.52778 6.15881 7.50794 6.14237 6.84036 5.83811L6.30237 5.59297L6.00349 5.92246C5.83911 6.10364 5.65667 6.25152 5.59803 6.25111C5.43598 6.24985 4.95735 5.99006 4.60743 5.71348C4.26587 5.44353 3.76189 4.80375 3.76189 4.64014C3.76189 4.58377 3.82699 4.47648 3.90655 4.40176C4.19916 4.12679 4.20394 4.00574 3.94672 3.38102C3.66452 2.69563 3.47778 2.55707 3.06192 2.72444Z" fill="black"/>
</svg>
