<svg width="10" height="10" viewBox="0 0 10 10" fill="none" xmlns="http://www.w3.org/2000/svg">
<path d="M4.33067 0.0404472C2.4236 0.280941 0.734874 1.73727 0.191273 3.61223C-0.191922 4.93495 0.00858672 6.44918 0.721507 7.5893C0.832901 7.76299 0.922016 7.92777 0.922016 7.95449C0.922016 7.97676 0.792799 8.38649 0.632392 8.85857C0.471985 9.33066 0.347224 9.73148 0.35168 9.74929C0.360591 9.76711 0.783888 9.64686 1.30075 9.47763L2.23646 9.17923L2.37014 9.26385C2.44588 9.31284 2.66867 9.42864 2.86918 9.52216C3.93856 10.0343 5.2441 10.1412 6.3714 9.81165C8.6973 9.13915 10.2301 6.87672 9.97165 4.49405C9.66866 1.67046 7.15561 -0.311387 4.33067 0.0404472ZM3.49744 2.36523C3.57764 2.44984 4.0856 3.67904 4.0856 3.79929C4.0856 3.85273 3.97866 4.03087 3.84053 4.20011C3.70686 4.36044 3.59547 4.52077 3.59547 4.55194C3.59547 4.65438 3.9341 5.13537 4.22373 5.44266C4.56237 5.80786 4.93665 6.07953 5.39559 6.29775C5.81443 6.49817 5.89464 6.4759 6.17089 6.09734C6.48279 5.6698 6.49616 5.66089 6.77242 5.75442C6.90164 5.79895 7.22691 5.94592 7.49425 6.08398L7.98438 6.33784L7.99775 6.55161C8.0334 7.13503 7.64129 7.58485 6.94619 7.76299C6.68776 7.82979 6.63429 7.82979 6.30902 7.76299C4.95002 7.49132 3.80043 6.71194 2.82908 5.40258C2.10725 4.43615 1.92456 3.67904 2.23646 2.97982C2.37459 2.67252 2.68204 2.35632 2.887 2.30288C3.0786 2.25834 3.42169 2.28952 3.49744 2.36523Z" fill="black"/>
</svg>
