<svg width="13" height="13" viewBox="0 0 13 13" fill="none" xmlns="http://www.w3.org/2000/svg">
<path d="M1.50012 2.75H0.250122V11.5C0.250122 12.1875 0.812622 12.75 1.50012 12.75H10.2501V11.5H1.50012V2.75ZM11.5001 0.25H4.00012C3.31262 0.25 2.75012 0.8125 2.75012 1.5V9C2.75012 9.6875 3.31262 10.25 4.00012 10.25H11.5001C12.1876 10.25 12.7501 9.6875 12.7501 9V1.5C12.7501 0.8125 12.1876 0.25 11.5001 0.25ZM10.8751 5.875H8.37512V8.375H7.12512V5.875H4.62512V4.625H7.12512V2.125H8.37512V4.625H10.8751V5.875Z" fill="white"/>
</svg>
