<svg width="55" height="55" viewBox="0 0 55 55" fill="none" xmlns="http://www.w3.org/2000/svg">
<path fill-rule="evenodd" clip-rule="evenodd" d="M7.61316 0.0635389C5.72394 0.308699 3.91514 1.21357 2.55943 2.5917C1.18158 3.99246 0.305602 5.82164 0.0697947 7.79038C-0.0232649 8.56751 -0.0232649 46.4565 0.0697947 47.2337C0.373156 49.7663 1.77158 52.1013 3.81859 53.4928C4.85337 54.1963 5.74559 54.5815 6.98153 54.8584L7.61316 55H21.3586H35.104L35.4261 54.8186C35.976 54.5089 36.277 53.9999 36.277 53.3795C36.277 52.759 35.976 52.25 35.4261 51.9403L35.104 51.7589L21.4488 51.7283L7.79362 51.6978L7.33055 51.5635C5.25376 50.9613 3.78436 49.3756 3.36382 47.2831C3.25422 46.7375 3.25115 46.1069 3.26631 27.2856L3.28201 7.85154L3.4206 7.39699C4.03533 5.3811 5.36349 4.04181 7.3187 3.46612L7.79362 3.32626H27.0432H46.2928L46.8041 3.46459C48.848 4.01741 50.3559 5.63403 50.781 7.72813C50.8882 8.25612 50.8931 8.85639 50.8938 21.8293C50.8947 36.748 50.8669 35.6664 51.2617 36.1533C51.3624 36.2775 51.5715 36.4549 51.7262 36.5473C51.9697 36.6929 52.0721 36.7154 52.4887 36.7154C52.8344 36.7154 53.0323 36.6839 53.1913 36.6035C53.5062 36.4443 53.8376 36.0973 53.9857 35.7719L54.1129 35.4924V21.6108V7.72923L53.9736 7.08713C53.702 5.83455 53.3221 4.92344 52.6372 3.88226C51.2448 1.76547 48.992 0.373826 46.4447 0.0568733C45.8014 -0.0231751 8.23173 -0.016693 7.61316 0.0635389ZM15.8243 13.2373C14.2733 13.6499 13.1375 14.9671 12.9475 16.5733C12.728 18.4292 13.8235 20.1814 15.5837 20.7898C16.1207 20.9755 17.094 21.0203 17.6297 20.884C18.3367 20.7041 18.9864 20.3303 19.4923 19.8126C20.1965 19.0919 20.5589 18.2931 20.6185 17.33C20.6665 16.555 20.5623 16.0107 20.2352 15.3274C20.0119 14.8609 19.88 14.6783 19.4738 14.273C18.911 13.7116 18.4515 13.4383 17.7736 13.262C17.218 13.1175 16.3173 13.1061 15.8243 13.2373ZM34.4359 17.954C33.5184 19.158 32.5877 20.3771 32.3676 20.663C32.1476 20.9488 31.4021 21.9258 30.7111 22.8339C30.02 23.742 28.8564 25.2693 28.1253 26.2278C27.3942 27.1864 26.151 28.8168 25.3628 29.8511C24.5745 30.8854 23.9128 31.7309 23.8923 31.7301C23.8718 31.7292 23.5582 31.2133 23.1954 30.5835C22.5666 29.4918 21.9792 28.4826 21.0377 26.8758L20.6112 26.148L15.7515 31.1259C13.0786 33.8638 10.1576 36.8675 9.26026 37.8009L7.6288 39.4979H18.2327H28.8365L29.3397 38.9759C30.1531 38.132 31.0258 37.6106 32.1263 37.3106C32.6715 37.162 32.7893 37.1537 34.6925 37.1279L36.6872 37.1008L36.7148 35.0736C36.7391 33.2909 36.7576 32.9816 36.8682 32.5101C37.2418 30.9181 38.2991 29.5269 39.781 28.6771C39.9713 28.5681 40.1269 28.4628 40.1269 28.4432C40.1269 28.4236 40.0333 28.1028 39.9189 27.7304C39.8046 27.358 39.669 26.869 39.6176 26.6437C39.5371 26.291 37.5208 20.0286 36.4555 16.8226L36.104 15.7647L34.4359 17.954ZM41.8954 31.4812C41.5716 31.6306 41.2256 31.9882 41.0667 32.3376C40.9408 32.6142 40.9387 32.681 40.922 37.004L40.9051 41.3897L36.5909 41.4069L32.2767 41.4242L31.9241 41.6002C31.363 41.8802 31.0554 42.399 31.0494 43.0753C31.0437 43.7191 31.3878 44.2667 31.9759 44.5499L32.2767 44.6946L36.5906 44.6952L40.9044 44.6958L40.9217 49.1141L40.939 53.5323L41.0773 53.8179C41.3494 54.3792 41.9736 54.786 42.5632 54.786C43.1117 54.786 43.6671 54.4502 43.9618 53.9406L44.1272 53.6546L44.1573 49.1905L44.1873 44.7264L48.5486 44.6958C53.318 44.6624 53.0845 44.681 53.5293 44.2996C53.7816 44.0834 54.0197 43.6081 54.0633 43.2336C54.1399 42.5762 53.7508 41.8796 53.1326 41.5672L52.8497 41.4242L48.5035 41.4066L44.1573 41.389L44.1567 37.0037L44.1561 32.6182L44.0137 32.3125C43.7309 31.7055 43.2012 31.3673 42.5331 31.3673C42.2801 31.3673 42.055 31.4075 41.8954 31.4812Z" fill="#FFF1DC"/>
</svg>
