<svg width="19" height="16" viewBox="0 0 19 16" fill="none" xmlns="http://www.w3.org/2000/svg">
<path d="M14.7874 0.535275C14.2153 0.765602 13.8587 1.29313 13.9032 1.84294L13.9255 2.16985L12.8928 2.8014L11.86 3.44037L11.548 3.28434C11.013 3.01686 10.5449 3.08373 10.0694 3.49981L9.80194 3.73756L9.08124 3.2992C8.39026 2.88313 8.35311 2.84598 8.3011 2.55621C8.19708 1.9321 7.87759 1.5606 7.32778 1.412C6.88199 1.29313 6.56993 1.38228 6.20587 1.73892C5.81951 2.11041 5.65605 2.56364 5.78236 2.9277C5.83437 3.05401 5.83437 3.17289 5.79722 3.19518C5.7675 3.21747 5.21026 3.58897 4.57129 4.01247C3.41222 4.78518 3.39736 4.79261 3.16703 4.69602C2.60236 4.45827 2.15657 4.53256 1.7182 4.94121C0.997503 5.58761 1.33185 6.80612 2.29774 7.06616C3.06302 7.2742 3.85802 6.6278 3.85802 5.80308V5.50588L5.15082 4.64401C6.43619 3.78957 6.45105 3.78214 6.7111 3.8713C7.02315 3.97532 7.4318 3.90845 7.68442 3.70784C7.89988 3.54439 7.84787 3.5221 8.9475 4.21308C9.51217 4.56971 9.72764 4.74803 9.82423 4.94121C10.1957 5.72878 11.2731 5.89967 11.86 5.26812C12.0606 5.06009 12.2538 4.60686 12.2538 4.36911C12.2538 4.22051 12.4321 4.07934 13.3386 3.5221L14.4233 2.85341L14.6908 2.94999C15.0623 3.08373 15.3372 3.0763 15.6196 2.93513C16.1619 2.66023 16.4146 2.2813 16.4146 1.75378C16.4146 1.17425 16.0356 0.691303 15.4635 0.527845C15.1366 0.438686 15.0252 0.438686 14.7874 0.535275ZM15.5081 1.43429C15.5527 1.47887 15.5973 1.62747 15.5973 1.76121C15.5973 2.22929 14.9583 2.40018 14.7651 1.97668C14.5422 1.4863 15.0772 1.09252 15.5081 1.43429ZM7.40951 2.37046C7.52096 2.51906 7.52096 2.62308 7.40951 2.86827C7.29806 3.11345 7.03058 3.18032 6.7854 3.01686C6.52535 2.85341 6.55507 2.40018 6.82998 2.25901C7.03801 2.15499 7.26834 2.19957 7.40951 2.37046ZM11.3548 4.19822C11.5034 4.51027 11.3399 4.79261 11.0056 4.82233C10.6787 4.85205 10.5449 4.72574 10.5449 4.38397C10.5449 4.05705 10.6861 3.93817 11.0279 3.96789C11.1913 3.97532 11.2805 4.04219 11.3548 4.19822ZM2.87727 5.47616C2.98872 5.55046 3.04073 5.66191 3.04073 5.8328C3.04073 6.13742 2.92928 6.24887 2.59493 6.24887C2.26802 6.24887 2.14914 6.13742 2.14914 5.84766C2.14914 5.42415 2.52806 5.23098 2.87727 5.47616Z" fill="black"/>
<path d="M14.1856 5.69969C14.1113 5.78885 14.0816 6.73245 14.0519 10.009L14.0147 14.1995H13.5838H13.1454V11.5024C13.1454 9.5038 13.1231 8.7831 13.0563 8.71623C12.93 8.58993 10.3889 8.58993 10.2626 8.71623C10.1958 8.7831 10.1735 9.5038 10.1735 11.5024V14.1995H9.76483H9.35619L9.34876 10.9452C9.34133 9.16203 9.34133 7.67605 9.34133 7.65376C9.34876 7.62404 9.28932 7.54974 9.20759 7.47544C9.08871 7.36399 8.90296 7.34913 7.78848 7.36399C6.99348 7.36399 6.46596 7.40114 6.40652 7.45315C6.33222 7.51259 6.30993 8.21843 6.30993 10.8635V14.1995H5.82698H5.34404V12.6095C5.34404 11.2573 5.32918 10.9972 5.22516 10.9006C5.12857 10.7966 4.87596 10.7817 3.64259 10.7817C2.31264 10.7817 2.16404 10.7966 2.05259 10.9155C1.94114 11.0344 1.92628 11.2647 1.92628 12.6169V14.1772L1.05699 14.2218C0.343715 14.2589 0.165397 14.2887 0.0910982 14.3927C-0.0352101 14.5636 -0.0277802 14.727 0.0985281 14.9128C0.202547 15.0539 0.388294 15.0539 8.36801 15.0762C12.8557 15.0837 17.061 15.0688 17.7148 15.0391L18.9036 14.9796L18.9705 14.779C19.0225 14.6304 19.0076 14.5338 18.911 14.3927C18.7922 14.2069 18.755 14.1995 18.1606 14.1995H17.5365L17.5142 10.0165C17.4994 6.59871 17.4696 5.80371 17.3879 5.70712C17.2988 5.59567 17.0907 5.58081 15.7831 5.58081C14.5125 5.58081 14.2599 5.59567 14.1856 5.69969ZM16.6375 10.2988V14.1995H15.7831H14.9286V10.2988V6.3981H15.7831H16.6375V10.2988ZM8.51661 9.57067C8.48689 10.3434 8.4646 11.6956 8.4646 12.5798V14.1995H7.79591H7.12722V11.1904V8.18128H7.84792H8.56119L8.51661 9.57067ZM12.3281 11.8219V14.1995H11.6595H10.9908V11.8219V9.44436H11.6595H12.3281V11.8219ZM4.52675 12.8993V14.1995H3.67974C2.86988 14.1995 2.83273 14.1921 2.78815 14.0286C2.72871 13.8131 2.72871 12.238 2.78815 11.8739L2.84016 11.599H3.67974H4.52675V12.8993Z" fill="black"/>
</svg>
