<svg width="17" height="16" viewBox="0 0 17 16" fill="none" xmlns="http://www.w3.org/2000/svg">
<path d="M1.35168 2.01097L0.193115 3.16954L1.37485 4.34355L2.54886 5.52529L2.83464 5.23178L3.12814 4.946L2.43301 4.25087L1.73787 3.548L4.75013 3.57117C7.69289 3.59435 7.77012 3.60207 8.07907 3.76427C8.48843 3.98053 8.84373 4.33583 9.05999 4.74519C9.1913 4.99235 9.22992 5.19316 9.22992 5.64114C9.22992 6.32856 9.08316 6.67613 8.61201 7.155C8.06363 7.69566 7.8937 7.72656 5.08226 7.72656H2.6261V8.15136V8.57617H5.04364C7.78557 8.57617 8.10225 8.52983 8.80511 8.05096C9.90961 7.29403 10.3653 5.87286 9.88643 4.61388C9.65472 3.99598 9.0291 3.33946 8.40347 3.04596L7.91688 2.82197L4.87371 2.7988L1.82283 2.77563L2.47162 2.12683L3.12814 1.47031L2.81919 1.16136L2.51024 0.85241L1.35168 2.01097Z" fill="black"/>
<path d="M13.6402 1.13782C13.617 1.21506 13.0918 3.18462 12.4739 5.52492C11.856 7.85749 11.3153 9.85022 11.2767 9.94291L11.1995 10.1206H5.59973H0V10.7771V11.4336L6.15584 11.4181L12.3117 11.395L12.5588 10.4681C12.6979 9.95836 13.2308 7.93473 13.756 5.96517L14.6983 2.39679H15.8492H17L16.9768 1.7171L16.9537 1.04513L15.3162 1.02196C13.8101 1.00651 13.6788 1.01424 13.6402 1.13782Z" fill="black"/>
<path d="M2.98907 12.6766C2.83459 12.7616 2.61833 12.9547 2.5102 13.1169C1.59107 14.5149 3.35209 16.0674 4.61106 14.9629C5.22124 14.4222 5.2753 13.534 4.72692 12.947C4.30983 12.499 3.5529 12.3831 2.98907 12.6766Z" fill="black"/>
<path d="M8.70477 12.6766C8.00963 13.0396 7.77019 14.0051 8.21045 14.6616C8.47305 15.0632 8.91331 15.2949 9.39991 15.2949C10.6203 15.2949 11.2382 13.9124 10.4426 12.9623C10.0564 12.5066 9.27633 12.3753 8.70477 12.6766Z" fill="black"/>
</svg>
