<svg width="13" height="14" viewBox="0 0 13 14" fill="none" xmlns="http://www.w3.org/2000/svg">
<path fill-rule="evenodd" clip-rule="evenodd" d="M0.295948 0.297892L0 0.593718L0.00385774 4.96916C0.00663037 8.21843 0.0454471 9.39367 0.154544 9.53579C0.499675 9.98532 0.737397 10.0075 5.19855 10.0075H9.56917L8.3497 11.2466C7.67908 11.9282 7.09478 12.6276 7.05126 12.8009C6.96049 13.1624 7.23908 13.7954 7.53973 13.9108C7.64702 13.9519 7.90511 13.9856 8.1133 13.9856C8.4436 13.9856 8.77897 13.6982 10.7555 11.7218C13.7248 8.75247 13.7088 9.21152 10.9398 6.4196C8.37115 3.82961 8.09715 3.66301 7.3964 4.26576C7.14626 4.48094 7.06416 4.66068 7.06416 4.99303C7.06416 5.39229 7.18399 5.55467 8.32173 6.69626L9.5793 7.95817H5.81431H2.04933V4.48021C2.04933 0.89497 1.98821 0.347799 1.56243 0.119961C1.16402 -0.0931691 0.609013 -0.0152944 0.295948 0.297892Z" fill="#FD9149"/>
</svg>
