<svg width="25" height="25" viewBox="0 0 25 25" fill="none" xmlns="http://www.w3.org/2000/svg">
<path fill-rule="evenodd" clip-rule="evenodd" d="M14.854 0.050528C14.0208 0.172166 12.7592 0.608407 11.6825 1.14714C7.32594 3.32713 2.66962 8.13999 0.857981 12.3356C-0.0774207 14.502 -0.248771 16.191 0.347881 17.3638C0.546619 17.7545 0.654412 17.8718 2.33416 19.5246C3.54915 20.7202 3.93065 21.0638 4.16205 21.1706C4.4177 21.2887 4.47215 21.3436 4.59481 21.6074C4.707 21.8485 4.9902 22.1649 6.00382 23.1815C7.17006 24.3512 7.30596 24.4697 7.68708 24.6502C8.72758 25.1428 9.91469 25.1164 11.623 24.5626C13.6894 23.8927 16.3551 22.1886 18.5864 20.1113C18.8237 19.8903 19.0966 19.649 19.193 19.5749C19.3924 19.4215 20.5601 18.1478 21.1776 17.4102C23.1177 15.0927 24.4641 12.6013 24.8989 10.5245C25.0323 9.88704 25.034 8.76086 24.9021 8.27496C24.7012 7.53438 24.6042 7.40292 23.2522 6.0396C22.2406 5.01942 21.9201 4.7294 21.6498 4.58927C21.3598 4.439 21.2934 4.37475 21.181 4.13619C21.0818 3.92556 20.6651 3.46627 19.4607 2.23969C18.5865 1.34948 17.8157 0.577133 17.7477 0.523419C17.5399 0.359205 17.0439 0.155213 16.6487 0.0715417C16.2425 -0.0144884 15.3695 -0.0246934 14.854 0.050528ZM16.7626 1.22598C17.2134 1.38871 17.7806 2.09747 17.7824 2.5003C17.7829 2.61047 17.7558 2.62375 17.5308 2.62375C17.1759 2.62375 16.2856 2.81364 15.7144 3.01116C14.5497 3.41393 12.9745 4.33448 11.5734 5.4313C9.98011 6.67852 7.97374 8.47802 6.96172 9.56744C5.09745 11.5743 3.92791 13.3807 3.25046 15.2998C3.06682 15.8201 2.82824 16.7688 2.77494 17.1907C2.70002 17.7841 2.70156 17.7812 2.48131 17.74C1.96171 17.6425 1.52774 17.2801 1.26813 16.7269C1.13592 16.4451 1.12554 16.3678 1.12785 15.6819C1.13059 14.8471 1.25211 14.2869 1.65403 13.256C3.65787 8.1158 10.0514 2.20271 14.6971 1.19301C15.3066 1.06056 16.3502 1.07718 16.7626 1.22598ZM20.1416 4.51817C20.4078 4.89888 20.5764 5.67025 20.502 6.16646L20.4643 6.41791L20.18 6.14906C19.8023 5.79199 19.4724 5.66882 18.8938 5.66882C18.5134 5.66882 18.4457 5.6556 18.4724 5.58652C18.6042 5.24542 18.786 4.48108 18.8652 3.9345L18.96 3.28127L19.4735 3.78922C19.756 4.06859 20.0566 4.39664 20.1416 4.51817ZM17.7567 3.97894C17.6712 4.54862 17.6353 4.59564 17.1517 4.77088C16.5922 4.97361 15.3679 5.5666 14.7643 5.92729C11.0767 8.13055 7.58648 11.7014 5.65113 15.2509C5.33329 15.8338 4.8222 16.9641 4.71671 17.3174C4.67791 17.4474 4.60727 17.5743 4.55974 17.5993C4.44662 17.6589 3.84026 17.7832 3.81007 17.753C3.76726 17.7102 3.95431 16.7591 4.11484 16.2031C4.984 13.1937 7.42116 10.148 11.6917 6.73427C13.7549 5.08499 15.5496 4.10409 17.0487 3.80639C17.2563 3.76513 17.5093 3.72908 17.6108 3.72623L17.7954 3.72107L17.7567 3.97894ZM16.9311 6.4466C16.789 6.71287 16.5633 7.1406 16.4297 7.3971C16.0868 8.0555 15.1502 9.43763 14.4779 10.2776C13.08 12.0238 11.4131 13.634 9.58555 15.0034C8.74553 15.6327 7.57297 16.3782 7.19015 16.5263C7.05431 16.5788 6.85074 16.6822 6.73774 16.7559C6.62478 16.8296 6.39745 16.9496 6.23258 17.0225L5.93285 17.155L6.07039 16.8437C7.60475 13.37 11.1975 9.42715 14.9564 7.09177C15.565 6.71364 17.1273 5.90041 17.1677 5.94074C17.1796 5.9527 17.0732 6.18034 16.9311 6.4466ZM21.8521 6.37006C21.969 6.62854 21.9813 6.73119 21.9786 7.42454C21.9763 8.0364 21.9511 8.28396 21.8549 8.64147C21.5857 9.6425 21.1821 10.6113 20.629 11.5843C17.9598 16.2793 12.794 20.758 8.8367 21.8079C8.33483 21.9411 8.15766 21.961 7.46458 21.9625C6.74383 21.9639 6.64174 21.9518 6.3823 21.8346C6.22478 21.7634 6.06743 21.6708 6.03258 21.6288C5.98038 21.566 6.00656 21.5525 6.18181 21.5524C6.56567 21.5521 7.37028 21.3839 8.06831 21.158C11.9649 19.8972 16.7997 15.8441 19.5092 11.5669C20.724 9.64941 21.5271 7.58974 21.5784 6.26C21.5917 5.9155 21.6587 5.94244 21.8521 6.37006ZM19.228 6.81355C19.7296 7.02308 20.0115 7.75384 19.8413 8.40395C19.6244 9.23276 18.857 9.85675 18.205 9.73451C17.7305 9.64552 17.3453 9.06531 17.3444 8.43802C17.3428 7.37801 18.3988 6.46723 19.228 6.81355ZM23.7668 8.31534C23.837 8.50068 23.8988 8.81956 23.9161 9.08566L23.9457 9.53974L23.6765 9.4001C23.5283 9.32329 23.2773 9.2451 23.1185 9.22629C22.8873 9.19891 22.8352 9.17455 22.8569 9.10388C22.9529 8.79076 23.0554 8.23968 23.0872 7.86654L23.1243 7.43068L23.3857 7.71489C23.5413 7.88399 23.6956 8.12715 23.7668 8.31534ZM16.7054 9.9317C17.0854 10.501 17.6458 10.8098 18.3068 10.8141L18.7109 10.8166L18.2851 11.4379C18.051 11.7797 17.6043 12.3812 17.2926 12.7746L16.7258 13.49L16.6073 13.1381C16.3901 12.4927 15.7571 11.9212 15.1036 11.7802C14.932 11.7432 14.7834 11.7067 14.7731 11.6991C14.7629 11.6915 14.9359 11.4673 15.1576 11.2009C15.3792 10.9345 15.7559 10.4502 15.9947 10.1247C16.2335 9.7992 16.4441 9.5523 16.4628 9.57606C16.4815 9.59976 16.5907 9.7598 16.7054 9.9317ZM23.2775 10.4191C23.5974 10.6468 23.6815 11.0267 23.51 11.4698C23.1581 12.3791 22.1188 12.2964 22.1188 11.3592C22.1188 11.0357 22.375 10.5813 22.643 10.4296C22.9139 10.2761 23.073 10.2735 23.2775 10.4191ZM22.0431 13.0569C22.1765 13.1159 22.3814 13.1813 22.4985 13.2023L22.7113 13.2403L22.4235 13.7375C21.8855 14.6666 21.1588 15.6975 20.4026 16.604L20.0225 17.0597L19.9134 16.8393C19.7368 16.4825 19.4063 16.2193 18.9186 16.0471C18.8342 16.0173 18.876 15.9445 19.1988 15.5589C19.7378 14.9154 20.3137 14.1262 20.8764 13.2602L21.3627 12.5119L21.5817 12.7308C21.7021 12.8512 21.9097 12.9979 22.0431 13.0569ZM15.0795 12.9492C15.4814 13.1365 15.6747 13.5461 15.6292 14.1135C15.5929 14.5656 15.3905 14.9468 14.9689 15.3576C14.5538 15.762 14.1595 15.9601 13.6959 15.9973C13.1626 16.0401 12.7783 15.8675 12.5859 15.4987C12.2678 14.8889 12.4801 14.0483 13.1032 13.4497C13.7345 12.8434 14.4588 12.66 15.0795 12.9492ZM11.3741 15.3174C11.4286 15.8007 11.8147 16.4219 12.2558 16.7359C12.346 16.8001 12.5556 16.9078 12.7215 16.9752L13.0231 17.0978L12.3981 17.5623C11.8707 17.9542 10.686 18.7553 10.6358 18.754C10.6274 18.7538 10.6183 18.5699 10.6157 18.3454C10.6117 18.003 10.5827 17.8799 10.4357 17.5812C10.2534 17.2112 9.85684 16.7998 9.51194 16.6229L9.32984 16.5295L9.89285 16.1344C10.2025 15.9172 10.641 15.592 10.8674 15.4117C11.0938 15.2315 11.2944 15.0828 11.3131 15.0812C11.3318 15.0796 11.3593 15.1859 11.3741 15.3174ZM18.8598 17.2272C19.0132 17.3807 19.0759 17.6686 19.0203 17.9649C18.9749 18.2068 18.4082 18.8347 18.1277 18.9538C17.7062 19.1326 17.2433 18.9776 17.1245 18.6179C16.8968 17.9279 17.6907 17.0086 18.4601 17.0715C18.6492 17.087 18.7644 17.1319 18.8598 17.2272ZM8.92297 17.5359C9.6856 17.9267 9.74976 18.7761 9.06815 19.4583C8.80914 19.7176 8.39136 19.9308 8.02962 19.9884C7.52259 20.0691 6.84355 19.7878 6.61606 19.4028C6.30755 18.8807 6.68346 18.0262 7.37731 17.672C7.99153 17.3586 8.4912 17.3146 8.92297 17.5359ZM5.41391 18.7471C5.37127 19.0138 5.46551 19.5363 5.60585 19.8113C5.66479 19.9268 5.80458 20.1226 5.91644 20.2465L6.1199 20.4719L5.61073 20.4429C4.88296 20.4016 4.58378 20.2423 3.85206 19.5064L3.2857 18.9369L3.82665 18.8714C4.12418 18.8353 4.57659 18.7479 4.83208 18.677C5.47407 18.499 5.45398 18.4966 5.41391 18.7471ZM16.1275 19.0757C16.205 19.3341 16.5494 19.736 16.8168 19.88C16.9256 19.9385 17.0145 20.0002 17.0145 20.0172C17.0145 20.0515 16.0705 20.8063 15.5601 21.1801C14.8661 21.6883 13.7043 22.4304 13.6026 22.4304C13.5774 22.4304 13.5566 22.3625 13.5562 22.2795C13.5554 22.0407 13.3197 21.5982 13.0768 21.3792L12.8539 21.1784L13.4935 20.753C14.2048 20.28 14.9695 19.7109 15.5788 19.2012C15.8004 19.0158 16.0002 18.8641 16.0229 18.8641C16.0455 18.8641 16.0926 18.9593 16.1275 19.0757ZM12.1276 22.0178C12.6994 22.3134 12.6173 22.9432 11.9651 23.2654C11.1706 23.6579 10.4308 23.1877 10.7631 22.5015C10.864 22.2931 10.9363 22.2286 11.2183 22.0952C11.5895 21.9197 11.8886 21.8942 12.1276 22.0178ZM9.60168 23.042C9.635 23.1973 9.72182 23.4429 9.79466 23.5878L9.92704 23.8513L9.67621 23.8889C9.29844 23.9456 8.68329 23.8812 8.32824 23.7478C8.13862 23.6766 7.89806 23.5244 7.72769 23.3678L7.44356 23.1066L7.90684 23.0702C8.16167 23.0502 8.60481 22.9748 8.89158 22.9027C9.17835 22.8305 9.4418 22.7688 9.47704 22.7655C9.51227 22.7623 9.56837 22.8867 9.60168 23.042Z" fill="#FD9149"/>
</svg>
