<svg width="25" height="12" viewBox="0 0 25 12" fill="none" xmlns="http://www.w3.org/2000/svg">
<path fill-rule="evenodd" clip-rule="evenodd" d="M10.727 0.0125722C6.32921 0.213027 2.83372 0.922673 1.09342 1.96832C0.648163 2.23586 0.344235 2.51779 0.141964 2.85096L0 3.08479L0.000102041 5.09045C0.000204082 7.63881 0.0160969 7.86902 0.211531 8.15427C0.346862 8.35178 0.812423 8.73485 1.14796 8.92476C2.34342 9.60142 4.25235 10.1455 6.641 10.4903C8.34467 10.7363 9.70571 10.8221 12.5229 10.8613L13.8596 10.8798L14.028 11.0347C14.2212 11.2122 14.4263 11.3243 14.6789 11.3901C14.8352 11.4308 14.8946 11.4345 15.2018 11.4227C15.8399 11.3983 17.6084 11.2284 18.0855 11.1456C18.5204 11.0702 18.809 10.9068 19.1078 10.5665C19.207 10.4536 19.2995 10.3552 19.3133 10.3479C19.3271 10.3406 19.4729 10.3111 19.6373 10.2823C20.0504 10.2101 21.073 9.96962 21.5944 9.82215C22.3724 9.60212 23.362 9.21326 23.8585 8.93242C24.2912 8.68772 24.6842 8.32278 24.8868 7.97757L25 7.78467V5.43683V3.08899L24.9073 2.93126C24.7817 2.71761 24.6719 2.57377 24.5302 2.43717C23.419 1.3665 20.4491 0.522179 16.5434 0.166613C16.0218 0.11913 15.3242 0.0701193 14.6301 0.0322203C14.0791 0.00211503 11.2668 -0.0120316 10.727 0.0125722ZM15 0.884184C15.8931 0.935619 17.2424 1.06781 18.1269 1.19054C19.5679 1.39049 20.7594 1.65166 21.8431 2.00515L22.3214 2.16118V3.15898V4.15675L21.9834 4.05882C20.3345 3.58108 17.7133 3.17184 15.3571 3.02428C14.706 2.98348 12.5982 2.96162 11.2883 2.98206C9.73263 3.00631 9.26633 3.0326 7.99745 3.16747C5.9885 3.381 4.32161 3.68347 2.90179 4.09207L2.52551 4.20037V3.20292V2.20545L2.94005 2.06997C3.48893 1.89058 3.71327 1.82435 4.17092 1.70659C5.69513 1.31435 7.64403 1.03366 9.79592 0.896432C10.0835 0.878093 10.3763 0.85934 10.4464 0.854756C10.7143 0.837247 14.6236 0.862506 15 0.884184ZM15.0638 3.85338C16.2517 3.90259 17.905 4.08475 19.2347 4.31298C20.5325 4.5357 21.4553 4.75995 22.3898 5.07967L22.7911 5.21699L22.6137 5.28641C22.0307 5.5145 19.8186 6.08082 19.5104 6.08093C19.4201 6.08096 19.4154 6.0772 19.3944 5.98817L19.3726 5.89539L19.259 5.89808C19.1492 5.90067 15.8556 6.15485 14.4515 6.26908C13.6777 6.33204 13.6735 6.33322 13.6735 6.48772C13.6735 6.56624 13.6619 6.58855 13.6043 6.62078C13.5407 6.65638 13.4464 6.65938 12.4245 6.65809C9.62758 6.65457 7.01189 6.41078 4.79617 5.94713C4.00444 5.78145 2.84184 5.46152 2.37321 5.28036L2.20814 5.21655L2.66658 5.06126C4.16546 4.55351 6.17263 4.17485 8.53316 3.95451C9.0335 3.90781 9.33314 3.88519 10.2679 3.82369C10.5312 3.80636 14.5254 3.83107 15.0638 3.85338ZM1.50281 5.84891C2.09495 6.0913 2.49987 6.23364 3.06569 6.3983C5.08949 6.98717 7.59352 7.34221 10.523 7.45563C10.8316 7.46759 11.6668 7.48405 12.3788 7.49221L13.6735 7.50708V8.75952C13.6735 9.93177 13.6706 10.013 13.6288 10.0276C13.554 10.0539 11.6525 10.0437 11.1224 10.0142C6.70755 9.76805 3.31661 9.14231 1.78587 8.29126C1.66668 8.225 1.46423 8.08126 1.33597 7.97182C1.01454 7.6976 0.997526 7.65564 0.963163 7.05245C0.93875 6.6234 0.956735 5.64433 0.989031 5.64433C0.996735 5.64433 1.22793 5.73639 1.50281 5.84891ZM24.0306 6.63248V7.62065L23.9418 7.73356C23.6525 8.10122 22.903 8.50453 21.8446 8.86219C21.6455 8.92945 21.4762 8.98451 21.4683 8.98451C21.4605 8.98451 21.4541 8.43052 21.4541 7.75345V6.52236L21.6645 6.47405C22.1476 6.36319 23.2155 5.99127 23.7245 5.75665C23.8578 5.69522 23.9812 5.64481 23.9987 5.64464C24.0238 5.6444 24.0306 5.85636 24.0306 6.63248ZM20.9887 7.8855L20.9821 9.12244L20.8163 9.16318C20.5151 9.23716 19.4664 9.4648 19.4267 9.4648C19.3922 9.4648 19.3878 9.32141 19.3878 8.21987V6.97495L19.4579 6.96239C19.4965 6.95549 19.838 6.88308 20.2168 6.8015C20.5957 6.71991 20.9258 6.65215 20.9505 6.65088C20.9928 6.6487 20.9949 6.71692 20.9887 7.8855ZM18.4119 8.34595C18.405 9.46853 18.3941 9.91212 18.3718 9.9696C18.355 10.0131 18.2945 10.0941 18.2374 10.1496C18.0705 10.3118 17.892 10.3457 16.5051 10.4785C16.0631 10.5208 15.5448 10.5667 15.3532 10.5805C15.0295 10.6038 14.9979 10.6027 14.9071 10.5646C14.7557 10.5011 14.7016 10.4125 14.6787 10.1903C14.6517 9.92821 14.6581 7.26709 14.686 7.17289L14.7085 7.09685L16.2315 6.97289C17.0691 6.90469 17.8665 6.83961 18.0035 6.82826C18.1405 6.81689 18.2906 6.80619 18.337 6.80449L18.4215 6.80139L18.4119 8.34595ZM16.3029 7.35782C16.0105 7.4146 15.7806 7.52509 15.5632 7.71319C15.2514 7.98313 15.102 8.29194 15.102 8.66687C15.102 9.03459 15.2356 9.30017 15.5588 9.57533C15.9067 9.8714 16.1399 9.93773 16.7659 9.91854C17.0794 9.90893 17.0973 9.90577 17.2857 9.82606C17.6154 9.68662 17.9414 9.37322 18.0663 9.07559C18.1395 8.90122 18.1571 8.5237 18.1015 8.32091C17.9856 7.89821 17.5415 7.51394 17.0161 7.38177C16.8122 7.33049 16.4979 7.31992 16.3029 7.35782ZM17.0063 7.86939C17.2247 7.95689 17.3287 8.0285 17.4317 8.16235C17.5672 8.33859 17.6098 8.47667 17.5974 8.69942C17.589 8.85016 17.5722 8.91515 17.5171 9.0116C17.2819 9.42306 16.6795 9.60004 16.1864 9.40256C15.5545 9.14951 15.4482 8.40886 15.9857 8.004C16.283 7.78002 16.6592 7.73041 17.0063 7.86939ZM5.84235 7.95303C5.57418 8.06832 5.56538 8.40843 5.82699 8.54679C5.99429 8.63525 6.19681 8.58961 6.33755 8.4317C6.43653 8.32064 6.44778 8.22286 6.37441 8.11113C6.26219 7.94026 6.03148 7.87171 5.84235 7.95303ZM8.48087 8.2948C8.28584 8.36749 8.19992 8.55053 8.28161 8.71924C8.39048 8.94404 8.68847 9.00693 8.88668 8.84693C9.20352 8.59122 8.87709 8.14709 8.48087 8.2948ZM11.0459 8.46517C10.9517 8.50695 10.8673 8.66601 10.8673 8.80189C10.8673 8.89369 10.8807 8.92921 10.9363 8.9858C11.0629 9.11456 11.2335 9.14576 11.4182 9.07393C11.6905 8.96814 11.7067 8.66071 11.4487 8.49719C11.3634 8.4431 11.1364 8.42504 11.0459 8.46517Z" fill="#FD9149"/>
</svg>
