<svg width="15" height="15" viewBox="0 0 15 15" fill="none" xmlns="http://www.w3.org/2000/svg">
<path fill-rule="evenodd" clip-rule="evenodd" d="M3.2355 0.194176C3.03974 0.362667 3.00991 0.452005 2.98144 0.956035L2.94912 1.52711H1.6712H0.39336L0.19664 1.73931L0 1.95151V8.24134V14.5312L0.234412 14.7656L0.468825 15H7.49831H14.5278L14.7622 14.7656L14.9966 14.5312V8.24134V1.95151L14.8 1.73931L14.6033 1.52711H13.3254H12.0475L12.0152 0.956035C11.9867 0.452005 11.9569 0.362667 11.7611 0.194176C11.4426 -0.0797732 11.0405 -0.0626113 10.7401 0.237802C10.5285 0.449359 10.5056 0.52362 10.5056 0.999662V1.52711H7.49831H4.49096V0.999662C4.49096 0.52362 4.46811 0.449359 4.25655 0.237802C3.95614 -0.0626113 3.55404 -0.0797732 3.2355 0.194176ZM2.98088 3.53241C3.02105 4.24318 3.19235 4.45426 3.7291 4.45426C4.26585 4.45426 4.43715 4.24318 4.47733 3.53241L4.50909 2.97063H7.50737H10.5056V3.49808C10.5056 3.97412 10.5285 4.04839 10.7401 4.25994C10.8747 4.39459 11.0602 4.49435 11.1759 4.49435C11.7484 4.49435 12.0294 4.13828 12.0294 3.41267V2.96462L12.7712 2.98764L13.513 3.01073V4.13347V5.25621H7.49831H1.48362L1.46109 4.21792C1.44866 3.64684 1.45652 3.13255 1.47857 3.07513C1.50736 3.00007 1.7202 2.97063 2.23393 2.97063H2.94912L2.98088 3.53241ZM13.5339 10.1281L13.513 13.5164H7.49831H1.48362L1.46269 10.1281L1.44176 6.73983H7.49831H13.5549L13.5339 10.1281ZM2.48182 7.74677C2.34669 7.89064 2.28919 8.04478 2.28919 8.26355C2.28919 8.48233 2.34669 8.63647 2.48182 8.78034C2.66908 8.97962 2.70308 8.98532 3.70825 8.98532C4.29545 8.98532 4.81207 8.94787 4.90397 8.89871C5.11697 8.78467 5.28923 8.36043 5.23582 8.08127C5.21249 7.95905 5.10262 7.78759 4.99171 7.70034C4.81399 7.56064 4.66467 7.54179 3.73223 7.54179C2.70139 7.54179 2.66948 7.54701 2.48182 7.74677ZM6.21156 7.73867C5.93802 8.01222 5.93802 8.51489 6.21156 8.78844C6.40123 8.97818 6.44798 8.98532 7.49831 8.98532C8.54863 8.98532 8.59538 8.97818 8.78505 8.78844C9.07223 8.50134 9.06469 7.93932 8.77061 7.70804C8.58071 7.55863 8.45047 7.54179 7.48387 7.54179C6.44894 7.54179 6.40099 7.54925 6.21156 7.73867ZM9.98077 7.73867C9.83585 7.88351 9.78389 8.02217 9.78389 8.26355C9.78389 8.50494 9.83585 8.6436 9.98077 8.78844C10.1689 8.97666 10.2221 8.98532 11.1889 8.98532C12.4845 8.98532 12.7434 8.86158 12.7486 8.2399C12.7504 8.02136 12.6956 7.87998 12.5542 7.73867C12.3646 7.54893 12.3178 7.54179 11.2675 7.54179C10.2172 7.54179 10.1704 7.54893 9.98077 7.73867ZM2.46987 10.7535C2.25486 10.9685 2.23073 11.0375 2.26946 11.3266C2.3503 11.9291 2.49032 11.9927 3.73825 11.9927H4.82562L5.01921 11.7676C5.15001 11.6156 5.21192 11.4466 5.21016 11.2464C5.20495 10.6381 4.93854 10.509 3.68812 10.509H2.71431L2.46987 10.7535ZM6.37556 10.6017C6.10972 10.7471 6.01468 10.9236 6.01468 11.2723C6.01468 11.525 6.06384 11.6501 6.22167 11.7983C6.41935 11.984 6.47629 11.9927 7.50256 11.9927C8.73549 11.9927 8.87727 11.9278 8.95795 11.3266C8.99668 11.0375 8.97254 10.9685 8.75754 10.7535L8.5131 10.509L7.52453 10.5114C6.965 10.5129 6.46635 10.552 6.37556 10.6017ZM10.1448 10.6059C9.73224 10.8425 9.65325 11.3907 9.9774 11.7676L10.171 11.9927H11.2675H12.364L12.5576 11.7676C12.8344 11.4459 12.8184 11.0451 12.5167 10.7434C12.2826 10.5094 12.2808 10.509 11.2937 10.5114C10.7014 10.513 10.2408 10.5508 10.1448 10.6059Z" fill="url(#paint0_linear_452_1949)"/>
<defs>
<linearGradient id="paint0_linear_452_1949" x1="7.49831" y1="0" x2="7.49831" y2="15" gradientUnits="userSpaceOnUse">
<stop stop-color="#FD9149"/>
<stop offset="1" stop-color="#FFD588"/>
</linearGradient>
</defs>
</svg>
