<svg width="20" height="19" viewBox="0 0 20 19" fill="none" xmlns="http://www.w3.org/2000/svg">
<path fill-rule="evenodd" clip-rule="evenodd" d="M0 0.809844V1.61969H1.27367C1.98369 1.61969 2.56942 1.65541 2.5973 1.70042C2.62475 1.74492 3.0174 4.37282 3.46989 7.54042L4.29252 13.2996L10.3865 13.2778L16.4804 13.2559L16.9767 11.7699C17.2496 10.9525 17.464 10.2768 17.453 10.2683C17.3955 10.2238 16.0538 9.80338 15.9692 9.80338C15.9146 9.80338 15.7294 10.2254 15.5575 10.7411L15.2451 11.6788H10.4783C7.8566 11.6788 5.71153 11.647 5.71153 11.6081C5.71153 11.5194 4.88098 5.68298 4.81482 5.30661L4.76606 5.02956H7.37001H9.97387V4.17709V3.32462H7.25638H4.53879L4.44818 2.70659C4.39831 2.36662 4.29158 1.61867 4.21102 1.04427L4.06457 0H2.03228H0V0.809844ZM15.0034 0.0930042C14.7924 0.133923 14.3392 0.305695 13.9962 0.474739C11.5095 1.70016 10.9284 4.98966 12.8438 6.99782C13.6889 7.88388 14.6469 8.29707 15.8559 8.29707C17.0657 8.29707 18.0228 7.88388 18.8697 6.99603C20.7763 4.99725 20.1909 1.69027 17.7156 0.476189C16.7994 0.0267675 15.9582 -0.0920665 15.0034 0.0930042ZM16.2631 2.81314L16.2867 3.96398L17.0698 4.75106L17.8529 5.53806L17.5607 5.83958L17.2685 6.14101L16.3491 5.22443L15.4297 4.30786V3.02063C15.4297 2.31266 15.457 1.70596 15.4905 1.67254C15.524 1.63904 15.7062 1.6231 15.8955 1.63699L16.2395 1.66231L16.2631 2.81314ZM4.17709 15.8133V16.6231H5.02956H5.88203V17.0367C5.88203 17.8133 6.49589 18.3836 7.23191 18.2907C7.93613 18.2019 8.41803 17.614 8.32929 16.9523L8.28514 16.6231H11.2558H14.2264L14.2231 17.0606C14.2181 17.7011 14.6382 18.1943 15.277 18.2979C16.0197 18.4184 16.8062 17.6403 16.6709 16.9187L16.6154 16.6231H17.4718H18.3281V15.8133V15.0034H11.2526H4.17709V15.8133Z" fill="black"/>
</svg>
