<svg width="25" height="23" viewBox="0 0 25 23" fill="none" xmlns="http://www.w3.org/2000/svg">
<path fill-rule="evenodd" clip-rule="evenodd" d="M5.78208 0.0293771C5.46117 0.0703596 5.23121 0.188967 5.00448 0.430496C4.76405 0.686597 4.64041 1.03745 4.66947 1.38112C4.68459 1.55996 4.73556 1.76908 4.78622 1.86031C4.8064 1.89661 4.75491 1.96545 4.51461 2.22347L4.21811 2.54183L4.64759 2.97391C4.88379 3.21155 5.07691 3.39426 5.07673 3.37998C5.07655 3.36567 5.04119 3.28399 4.99816 3.1985C4.92286 3.04893 4.92163 3.04099 4.96584 2.9898C4.99111 2.96052 5.17311 2.76011 5.37025 2.54441C5.71693 2.16518 5.78145 2.06619 5.78192 1.91294C5.78218 1.83598 5.7091 1.68357 5.62659 1.5889C5.51308 1.45866 5.48177 1.31599 5.53277 1.16134C5.67748 0.722398 6.30629 0.797892 6.35031 1.25951C6.36572 1.42094 6.31851 1.51435 6.11213 1.73086L5.95405 1.89671L6.12119 2.04665C6.21313 2.12909 6.35363 2.25906 6.4334 2.33547L6.57848 2.47439L6.71872 2.32232C7.08175 1.9287 7.19209 1.68893 7.19209 1.29365C7.19209 0.84887 7.00012 0.48079 6.64276 0.240393C6.38269 0.0654144 6.0803 -0.00871197 5.78208 0.0293771ZM18.6193 0.0649671C18.0872 0.254123 17.7672 0.708877 17.7672 1.2759C17.7672 1.77847 18.0182 2.18917 18.4592 2.40831C18.7602 2.55791 19.0437 2.58716 19.3677 2.50204C19.5056 2.46579 19.5493 2.46266 19.5636 2.48788C19.5737 2.50574 19.6582 2.60139 19.7515 2.70042C19.8447 2.79946 19.9533 2.91746 19.9928 2.96265L20.0646 3.0448L19.9863 3.1994C19.9433 3.28441 19.9044 3.39 19.9 3.43406C19.8955 3.47812 19.8844 3.52649 19.8751 3.54154C19.8458 3.58931 19.7517 4.491 19.7517 4.72393C19.7517 5.32044 19.9959 5.89446 20.4407 6.3434C20.536 6.43957 20.6842 6.56386 20.7701 6.6196C20.8559 6.67534 20.9263 6.73279 20.9264 6.74725C20.9266 6.76175 20.9093 6.85644 20.888 6.95769C20.7545 7.59242 20.9735 8.39852 21.412 8.88663L21.549 9.03917L21.4583 9.23351C21.1614 9.86919 21.158 10.6197 21.4491 11.2453L21.547 11.4558L21.4628 11.5478C21.3554 11.6651 21.24 11.8224 21.24 11.8514C21.24 11.8637 21.2841 11.833 21.3379 11.7832L21.4359 11.6925L21.3471 11.7899C21.2983 11.8434 21.2495 11.8848 21.2388 11.8819C21.228 11.879 21.2173 11.8885 21.2149 11.903C21.2126 11.9174 21.1885 11.9531 21.1614 11.9822C21.0293 12.1238 20.8792 12.6297 20.8571 13.0077C20.8436 13.2399 20.8611 13.447 20.9164 13.7057C20.9287 13.7634 20.9121 13.7844 20.7922 13.8627C20.2157 14.2389 19.8062 14.9353 19.7603 15.6172L19.744 15.8593L19.6629 15.8767C19.2518 15.9651 18.6398 16.4158 18.3839 16.8188C18.2211 17.0753 18.0819 17.386 18.0809 17.4954C18.0806 17.5295 18.0275 17.543 17.7998 17.5667C17.0944 17.6401 16.4771 18.0101 16.0909 18.5911C16.0104 18.7122 15.9697 18.7519 15.9369 18.7413C15.8208 18.7042 15.5633 18.6767 15.3312 18.6765C14.8963 18.6763 14.4788 18.7901 14.2844 18.9619C14.2253 19.0142 14.1993 19.0306 14.2266 18.9982C14.254 18.9659 14.2681 18.9394 14.2581 18.9394C14.2202 18.9394 13.8601 19.2007 13.7765 19.2887L13.6895 19.3805L13.5807 19.3193C13.3977 19.2166 13.0154 19.1028 12.7466 19.0711C12.3588 19.0253 11.9616 19.0815 11.5921 19.2344C11.3282 19.3436 11.2799 19.3793 11.3215 19.4344C11.3398 19.4588 11.3171 19.4439 11.271 19.4014C11.1758 19.3137 11.1565 19.2736 11.2459 19.3492C11.2793 19.3775 11.272 19.3627 11.2288 19.3148C11.1871 19.2685 11.1413 19.238 11.1269 19.2469C11.1125 19.2559 11.1083 19.2509 11.1175 19.2358C11.1268 19.2208 11.1146 19.1923 11.0904 19.1726C11.0527 19.1417 11.0498 19.1422 11.0695 19.1762C11.0822 19.1979 11.042 19.1701 10.9803 19.1145C10.8222 18.9719 10.4359 18.7915 10.1557 18.7295C9.81671 18.6545 9.30281 18.6609 9.04208 18.7435C9.01101 18.7534 8.96587 18.7069 8.87986 18.5766C8.68026 18.2741 8.32987 17.9629 8.00155 17.7963C7.79662 17.6924 7.47511 17.6004 7.19554 17.5657L6.92482 17.5321L6.88001 17.3875C6.67018 16.7099 6.06359 16.1085 5.3744 15.8946L5.24092 15.8532L5.2263 15.6258C5.20825 15.3452 5.15478 15.1319 5.03746 14.8726C4.85353 14.466 4.55443 14.1068 4.2068 13.875C4.07358 13.7862 4.05638 13.7651 4.06891 13.7063C4.1585 13.2864 4.1521 12.8861 4.0499 12.5175C3.97838 12.2594 3.86942 12.0099 3.79009 11.9227C3.76051 11.8901 3.74521 11.8635 3.7561 11.8635C3.77988 11.8635 3.6398 11.6763 3.51906 11.5469L3.43232 11.4538L3.51021 11.3026C3.82952 10.6826 3.83451 9.86351 3.52287 9.22825L3.43143 9.04188L3.54381 8.92043C4.00321 8.42399 4.22903 7.62667 4.09821 6.96298C4.07311 6.83566 4.05693 6.7281 4.0622 6.72392C4.06747 6.71974 4.13053 6.67665 4.20234 6.6282C4.72399 6.27609 5.07088 5.75223 5.19671 5.12665C5.24959 4.86379 5.23719 4.43666 5.15945 3.84425L5.10989 3.46649L4.66067 3.0134L4.21148 2.56033L3.95885 2.56488C3.67507 2.57001 3.59645 2.59502 2.90983 2.89894C2.36157 3.14163 2.09499 3.33718 1.83163 3.6899C1.53718 4.08431 1.3756 4.52544 1.35252 4.998C1.3451 5.14991 1.34988 5.34911 1.36314 5.44065L1.38727 5.60711L1.2547 5.71685C0.803969 6.08993 0.53604 6.49954 0.396814 7.02837C0.321247 7.31543 0.316339 7.86764 0.387048 8.12824C0.511652 8.58736 0.50857 8.58297 1.19585 9.28565L1.8262 9.93011L1.19601 9.30203L0.565807 8.67396L0.429035 8.86801C0.268033 9.09638 0.135987 9.37366 0.0559556 9.65144C0.0071534 9.82087 -0.00133263 9.91312 0.000155723 10.2589C0.00169629 10.6238 0.00926866 10.6909 0.0721971 10.898C0.159487 11.1853 0.267275 11.4044 0.432325 11.63C0.502434 11.7258 0.559801 11.8214 0.559801 11.8425C0.559801 11.8635 0.529747 11.9552 0.493034 12.0463C0.399138 12.279 0.325634 12.6549 0.325556 12.9025C0.325478 13.0942 0.404647 13.5836 0.441777 13.621C0.450238 13.6295 0.614243 13.4786 0.806214 13.2856C1.15297 12.937 1.15538 12.9338 1.17326 12.7895C1.20055 12.5694 1.20232 12.5674 1.31533 12.6255C1.41291 12.6756 1.4132 12.6756 1.47506 12.6181C1.53086 12.5663 1.53258 12.566 1.49232 12.6153C1.46772 12.6453 1.44759 12.6765 1.44759 12.6845C1.44759 12.7163 1.69055 12.7579 1.87639 12.7579C2.23059 12.7579 2.57296 12.5955 2.7917 12.3238C2.84993 12.2515 2.90915 12.1881 2.9233 12.1829C2.96881 12.1663 3.13689 12.4454 3.21298 12.664C3.27426 12.84 3.28698 12.9197 3.28737 13.1308C3.28766 13.2708 3.27894 13.3944 3.268 13.4054C3.25708 13.4164 3.19491 13.3993 3.12987 13.3675C2.62931 13.1225 1.95535 13.3214 1.64136 13.8067L1.56692 13.9218L1.49281 13.833C1.37526 13.6922 1.2411 13.3928 1.20188 13.1837C1.18204 13.0779 1.16107 12.9865 1.1553 12.9807C1.1495 12.9749 0.987871 13.1285 0.796109 13.3221L0.447444 13.674L0.544604 13.8801C0.598028 13.9935 0.680775 14.1454 0.728507 14.2178C0.823865 14.3624 1.07863 14.635 1.27021 14.7975L1.39309 14.9017L1.36562 15.0595C1.32552 15.29 1.35549 15.7287 1.42944 15.9933C1.62595 16.6966 2.1751 17.318 2.81277 17.5586C2.88144 17.5845 2.9426 17.6138 2.94863 17.6236C2.95468 17.6335 2.97215 17.7234 2.98748 17.8236C3.06817 18.3511 3.28922 18.7989 3.6446 19.1549C3.74127 19.2518 3.86866 19.3632 3.9277 19.4025L4.03502 19.4741L4.15785 19.358L4.28067 19.2419L4.16675 19.3643L4.05283 19.4867L4.11651 19.5288C4.32556 19.6668 4.85102 19.8338 5.07605 19.8338C5.15115 19.8338 5.16274 19.8488 5.28406 20.1034C5.73302 21.0457 6.63639 21.5682 7.63552 21.4635L7.8831 21.4375L7.94977 21.5103C7.98645 21.5503 8.05129 21.6295 8.09385 21.6864C8.22143 21.8567 8.53975 22.1117 8.78061 22.2365C9.3748 22.5444 9.97306 22.5872 10.6127 22.3677C10.7635 22.3159 10.9047 22.2715 10.9265 22.269C10.9483 22.2665 10.9835 22.2539 11.0048 22.2409C11.037 22.2214 11.038 22.2243 11.0109 22.2581C10.983 22.2927 11.0005 22.3143 11.1284 22.4034C11.4622 22.6361 11.7929 22.7742 12.1533 22.8315C12.7502 22.9263 13.4034 22.7551 13.9027 22.373C14.0736 22.2423 14.126 22.209 14.1034 22.2459C14.0754 22.2915 14.6226 22.4611 14.8949 22.4913C15.1838 22.5234 15.5359 22.4906 15.8071 22.4063C16.1893 22.2874 16.6091 22.0169 16.844 21.7379C16.9138 21.6551 17.0002 21.5535 17.0361 21.512L17.1014 21.4367L17.3494 21.4631C18.3421 21.5686 19.2955 21.0188 19.6977 20.1088C19.8119 19.8505 19.8139 19.8478 19.8979 19.8393C20.2218 19.8069 20.6042 19.684 20.8711 19.5268L20.9853 19.4596L20.6753 19.1403L20.3653 18.8211L20.6834 19.1346L21.0016 19.4481L21.1012 19.3732C21.156 19.332 21.2831 19.2135 21.3836 19.1098C21.7246 18.7582 21.9334 18.3045 22.0093 17.7501L22.0263 17.6261L22.275 17.5074C22.6661 17.3208 22.8653 17.1639 23.1249 16.838C23.3107 16.6048 23.4602 16.3141 23.5557 16.0007C23.6181 15.7961 23.6262 15.7262 23.627 15.3883C23.6275 15.1785 23.6208 14.9773 23.612 14.9411C23.5979 14.8834 23.6201 14.8561 23.7943 14.7175C24.0561 14.5093 24.2414 14.276 24.4005 13.9547C24.5965 13.5588 24.644 13.3505 24.6435 12.8894C24.6431 12.5547 24.6347 12.4806 24.5753 12.2844C24.5381 12.1614 24.4846 12.0092 24.4565 11.9462L24.4054 11.8316L24.5356 11.6569C25.0198 11.0068 25.1335 10.1527 24.8384 9.38203C24.7666 9.19437 24.4727 8.70695 24.4314 8.70695C24.422 8.70695 24.3552 8.76318 24.2829 8.83189L24.1514 8.95684L24.2732 8.82532C24.4036 8.68445 24.493 8.49619 24.5877 8.16286C24.6703 7.87196 24.67 7.3441 24.5872 7.02345C24.4576 6.52201 24.2036 6.12457 23.7834 5.76572L23.5981 5.6075L23.6222 5.44086C23.6355 5.34919 23.6403 5.14991 23.6329 4.998C23.5995 4.31429 23.2635 3.67127 22.7266 3.26374C22.4776 3.07469 22.4423 3.05561 21.9445 2.84079C21.3439 2.58155 21.3098 2.57145 21.0238 2.56722L20.7684 2.56343L20.4594 2.22252L20.1503 1.88162L20.2119 1.71671C20.4737 1.01609 20.0898 0.260121 19.3618 0.0425294C19.1469 -0.0217064 18.8368 -0.0123421 18.6193 0.0649671ZM19.1846 0.878095C19.5547 1.03763 19.5203 1.5839 19.134 1.68188C18.8259 1.76006 18.5604 1.50964 18.612 1.18957C18.632 1.06541 18.6994 0.97508 18.8272 0.901479C18.9443 0.834008 19.0641 0.82617 19.1846 0.878095ZM20.7961 2.61209C20.7961 2.61638 20.7462 2.6667 20.6852 2.72389L20.5742 2.82787L20.6774 2.71608C20.7734 2.61212 20.7961 2.59218 20.7961 2.61209ZM20.5611 2.84902C20.5611 2.85341 20.5171 2.89779 20.4632 2.94766L20.3653 3.03831L20.4553 2.93966C20.539 2.84786 20.5611 2.82892 20.5611 2.84902ZM20.3522 3.05864C20.3522 3.06261 20.2553 3.16025 20.1368 3.27565L19.9214 3.48548L20.1297 3.26847C20.3231 3.06693 20.3522 3.03946 20.3522 3.05864ZM4.16774 3.48967C4.19691 3.51623 4.23634 3.56834 4.2554 3.60546C4.30582 3.70371 4.40648 4.63597 4.38729 4.82702C4.34846 5.21343 4.15863 5.57446 3.86443 5.82136L3.74529 5.92137L3.65494 5.72161C3.5389 5.46512 3.33374 5.25321 3.07992 5.12768C2.89915 5.03827 2.89432 5.03746 2.54006 5.03746H2.1826L2.19652 4.95854C2.2824 4.47091 2.49583 4.1139 2.8376 3.88618C2.96664 3.80019 3.77477 3.43764 3.889 3.41449C3.96911 3.39826 4.10881 3.43593 4.16774 3.48967ZM21.3208 3.49979C21.4154 3.53904 21.5329 3.5896 21.5819 3.61217C21.6308 3.63471 21.7466 3.68466 21.8392 3.72312C22.2094 3.87684 22.4749 4.1204 22.6352 4.45336C22.7135 4.61603 22.8222 5.01746 22.7953 5.04458C22.7904 5.04953 22.7097 5.04324 22.6159 5.03059C22.0502 4.95423 21.5757 5.20794 21.3328 5.71669L21.2358 5.91995L21.1085 5.8126C20.8195 5.56889 20.634 5.20625 20.5976 4.81387C20.5807 4.63126 20.672 3.75192 20.721 3.62619C20.7771 3.48185 20.9458 3.38305 21.0834 3.41383C21.1193 3.42188 21.2261 3.46055 21.3208 3.49979ZM2.80394 5.95672C2.84491 5.99626 2.8987 6.08214 2.92351 6.14759C2.97453 6.28216 2.97432 6.28248 2.78692 6.35558C2.57993 6.43631 2.36345 6.33183 2.30801 6.12441C2.27253 5.9916 2.28287 5.96496 2.39159 5.90914C2.52051 5.84295 2.70853 5.86466 2.80394 5.95672ZM22.586 5.90432C22.6982 5.95157 22.7136 5.98897 22.6771 6.12562C22.6435 6.2511 22.518 6.36084 22.3828 6.38294C22.2943 6.39743 22.0234 6.3052 22.0234 6.26059C22.0234 6.21753 22.1 6.05936 22.1551 5.98881C22.2529 5.86371 22.4143 5.83204 22.586 5.90432ZM1.71249 6.78595C2.02546 7.19285 2.59218 7.34045 3.09749 7.14664L3.27207 7.07966L3.28988 7.22316C3.32709 7.52327 3.20935 7.96224 3.02289 8.21855L2.9285 8.34831L2.84737 8.24512C2.59432 7.92331 2.34028 7.77792 1.97047 7.7433C1.77372 7.72486 1.55026 7.76448 1.35163 7.85297C1.1964 7.92212 1.19833 7.92391 1.17279 7.68943C1.14065 7.39427 1.25854 6.99467 1.46187 6.70956C1.55065 6.58511 1.56587 6.57388 1.58997 6.61526C1.60501 6.64109 1.66014 6.7179 1.71249 6.78595ZM23.5383 6.72169C23.7363 7.01154 23.849 7.43586 23.8074 7.73475C23.7944 7.82819 23.7725 7.9021 23.7587 7.899C23.7449 7.8959 23.6573 7.86059 23.5639 7.82056C23.4133 7.75595 23.3633 7.74796 23.12 7.74941C22.9026 7.75072 22.8155 7.76298 22.6992 7.80872C22.4972 7.88811 22.2819 8.04936 22.1666 8.20768C22.0563 8.35901 22.048 8.35723 21.9187 8.15423C21.7555 7.89803 21.6667 7.53326 21.6968 7.24304L21.7136 7.08122L21.9401 7.16081C22.1466 7.23334 22.1875 7.23915 22.4018 7.22634C22.6589 7.211 22.8007 7.16534 23.0041 7.03239C23.1445 6.94067 23.3173 6.76235 23.3623 6.66271C23.4026 6.5737 23.4476 6.58877 23.5383 6.72169ZM2.00496 8.61149C2.08753 8.64623 2.25704 8.83084 2.25704 8.886C2.25704 8.93145 2.04376 9.07366 1.94861 9.09165C1.81957 9.11603 1.64314 9.02507 1.58621 8.90483C1.54793 8.82395 1.5472 8.80464 1.58003 8.74264C1.61723 8.67241 1.78466 8.5771 1.87273 8.576C1.89832 8.57568 1.95783 8.59165 2.00496 8.61149ZM23.2637 8.62443C23.3211 8.65076 23.3849 8.70395 23.4054 8.74264C23.4382 8.80456 23.4375 8.8239 23.3997 8.90365C23.3551 8.9979 23.1951 9.10151 23.0941 9.10151C23.0198 9.10151 22.8874 9.03999 22.7945 8.96223L22.7169 8.89736L22.7906 8.79025C22.8674 8.67859 22.9429 8.61683 23.0297 8.5946C23.1212 8.57121 23.1576 8.57584 23.2637 8.62443ZM24.1384 8.97799C24.1384 8.98238 24.0943 9.02676 24.0405 9.07663L23.9425 9.16728L24.0325 9.06863C24.1163 8.97683 24.1384 8.95789 24.1384 8.97799ZM23.9295 9.18843C23.9295 9.19282 23.8854 9.23719 23.8316 9.28707L23.7337 9.37771L23.8236 9.27907C23.9074 9.18727 23.9295 9.16833 23.9295 9.18843ZM23.7206 9.39886C23.7206 9.40325 23.6766 9.44763 23.6227 9.4975L23.5248 9.58815L23.6147 9.48951C23.6985 9.3977 23.7206 9.37877 23.7206 9.39886ZM1.11112 9.65333C1.3415 9.85746 1.67081 9.96181 2.00381 9.93619C2.23341 9.91851 2.43366 9.84207 2.61913 9.70131C2.77828 9.58052 2.77872 9.58076 2.85131 9.81174C2.93891 10.0905 2.90006 10.6785 2.78198 10.8614C2.76266 10.8913 2.73402 10.8807 2.63161 10.8056C2.45873 10.6787 2.32167 10.6128 2.15784 10.5778C1.77048 10.4951 1.38993 10.5958 1.09764 10.8584L0.995783 10.9499L0.959279 10.8797C0.896011 10.7581 0.820915 10.4147 0.820915 10.2471C0.820915 10.0204 0.942307 9.575 1.00411 9.575C1.01435 9.575 1.0625 9.61025 1.11112 9.65333ZM24.0812 9.77431C24.196 10.1154 24.1796 10.5311 24.039 10.8479L23.9935 10.9503L23.8677 10.8407C23.6456 10.647 23.3841 10.5481 23.0957 10.5486C22.7722 10.5492 22.5161 10.6555 22.244 10.9022L22.0886 11.0431L22.18 11.1442L22.2714 11.2453L22.1734 11.1546L22.0754 11.0639L21.9645 11.1677L21.8536 11.2716L21.9569 11.1598L22.0601 11.0481L21.9569 10.9363L21.8536 10.8245L21.9649 10.9288L22.0762 11.0331L22.1429 10.9659L22.2095 10.8987L22.1498 10.7301C22.0455 10.4353 22.0747 9.82918 22.2028 9.63105C22.2212 9.60264 22.2567 9.61782 22.3715 9.70328C22.5604 9.84388 22.7499 9.91743 22.9714 9.93613L23.1499 9.95121L23.3373 9.76968L23.5248 9.58815L23.355 9.76899L23.1853 9.94986L23.2767 9.93326C23.4825 9.89586 23.6405 9.82747 23.8001 9.7067C23.8928 9.63655 23.9802 9.5821 23.9943 9.58568C24.0083 9.58925 24.0474 9.67414 24.0812 9.77431ZM21.3445 10.2984C21.3932 10.349 21.4272 10.3904 21.42 10.3904C21.4128 10.3904 21.3671 10.349 21.3184 10.2984C21.2696 10.2477 21.2357 10.2063 21.2428 10.2063C21.25 10.2063 21.2957 10.2477 21.3445 10.2984ZM3.37983 10.7192L3.00189 11.1007L3.38017 11.4887L3.75845 11.8766L3.37322 11.4955L2.988 11.1143L2.26349 11.8375L1.53898 12.5606L2.25623 11.8312L2.97351 11.1019L2.88291 11.0027L2.79232 10.9034L2.89089 10.9947L2.98947 11.086L3.3608 10.7119C3.56501 10.5062 3.73787 10.3378 3.74495 10.3378C3.752 10.3378 3.5877 10.5095 3.37983 10.7192ZM21.5534 10.5088C21.6021 10.5594 21.6361 10.6009 21.6289 10.6009C21.6217 10.6009 21.576 10.5594 21.5272 10.5088C21.4785 10.4582 21.4445 10.4167 21.4517 10.4167C21.4589 10.4167 21.5046 10.4582 21.5534 10.5088ZM21.7622 10.7192C21.811 10.7699 21.8449 10.8113 21.8378 10.8113C21.8306 10.8113 21.7849 10.7699 21.7361 10.7192C21.6874 10.6686 21.6534 10.6272 21.6606 10.6272C21.6678 10.6272 21.7135 10.6686 21.7622 10.7192ZM22.3889 11.3506C22.4376 11.4012 22.4716 11.4426 22.4644 11.4426C22.4573 11.4426 22.4115 11.4012 22.3628 11.3506C22.3141 11.2999 22.2801 11.2585 22.2873 11.2585C22.2945 11.2585 22.3402 11.2999 22.3889 11.3506ZM21.8406 11.2928C21.8406 11.2972 21.7965 11.3416 21.7427 11.3914L21.6447 11.4821L21.7347 11.3834C21.8185 11.2916 21.8406 11.2727 21.8406 11.2928ZM1.98817 11.4141C2.07698 11.4397 2.25704 11.5715 2.25704 11.6109C2.25704 11.6239 2.21539 11.6857 2.16448 11.7483C2.04833 11.8911 1.91462 11.9393 1.76233 11.8933C1.65836 11.8619 1.55203 11.7574 1.55203 11.6864C1.55203 11.6064 1.64734 11.4862 1.74787 11.4396C1.86952 11.3832 1.87809 11.3823 1.98817 11.4141ZM23.2048 11.4214C23.342 11.4628 23.4544 11.6222 23.4183 11.7243C23.3809 11.8301 23.2658 11.902 23.1386 11.8991C22.9866 11.8957 22.8882 11.8797 22.9 11.8604C22.9055 11.8515 22.884 11.8219 22.8522 11.7947C22.8042 11.7534 22.8005 11.7529 22.8299 11.7912C22.8804 11.8568 22.8505 11.8482 22.7912 11.7801C22.7638 11.7487 22.7561 11.7316 22.7741 11.7422C22.82 11.7692 22.8148 11.7189 22.7675 11.6794C22.7084 11.6299 22.7195 11.5945 22.8191 11.5144C22.9753 11.3889 23.043 11.3725 23.2048 11.4214ZM22.6109 11.5741C22.667 11.632 22.707 11.6794 22.6998 11.6794C22.6926 11.6794 22.6408 11.632 22.5848 11.5741C22.5287 11.5163 22.4886 11.4689 22.4958 11.4689C22.503 11.4689 22.5548 11.5163 22.6109 11.5741ZM21.6317 11.5032C21.6317 11.5076 21.5876 11.552 21.5338 11.6019L21.4359 11.6925L21.5258 11.5939C21.6096 11.5021 21.6317 11.4831 21.6317 11.5032ZM23.1331 12.1002C23.2328 12.2015 23.3086 12.2844 23.3014 12.2844C23.2942 12.2844 23.2067 12.2015 23.107 12.1002C23.0072 11.999 22.9315 11.9161 22.9387 11.9161C22.9458 11.9161 23.0333 11.999 23.1331 12.1002ZM22.2132 12.3404C22.3585 12.5165 22.5233 12.6278 22.7545 12.7058C22.8955 12.7535 22.9661 12.7612 23.1723 12.7516C23.328 12.7444 23.4622 12.7226 23.5327 12.693L23.645 12.6458L23.5849 12.5769L23.5248 12.508L23.5941 12.5694C23.65 12.619 23.6735 12.6254 23.7155 12.6028C23.7727 12.5719 23.7989 12.6064 23.7989 12.7125C23.7989 12.7431 23.8312 12.8041 23.8707 12.8481C23.9102 12.892 23.9175 12.9069 23.887 12.8812L23.8314 12.8344L23.813 13.0131C23.7876 13.259 23.6873 13.5482 23.5635 13.7318C23.5064 13.8164 23.4494 13.8921 23.4367 13.9001C23.424 13.9079 23.3812 13.8643 23.3416 13.803C23.1791 13.5517 22.8753 13.3447 22.5774 13.2824C22.3774 13.2405 22.1264 13.2651 21.9078 13.348C21.809 13.3855 21.7211 13.4091 21.7125 13.4005C21.704 13.3918 21.6982 13.2644 21.6998 13.1174C21.7023 12.8858 21.7138 12.8199 21.7854 12.6263C21.8699 12.3982 22.0393 12.1288 22.0726 12.1697C22.0828 12.1821 22.1461 12.2589 22.2132 12.3404ZM23.4334 12.4027C23.4821 12.4534 23.5161 12.4948 23.5089 12.4948C23.5017 12.4948 23.456 12.4534 23.4073 12.4027C23.3585 12.3521 23.3246 12.3107 23.3318 12.3107C23.3389 12.3107 23.3847 12.3521 23.4334 12.4027ZM24.06 13.034C24.1088 13.0847 24.1427 13.1261 24.1356 13.1261C24.1284 13.1261 24.0827 13.0847 24.0339 13.034C23.9852 12.9834 23.9512 12.942 23.9584 12.942C23.9656 12.942 24.0113 12.9834 24.06 13.034ZM24.2689 13.2445C24.3177 13.2951 24.3516 13.3366 24.3445 13.3366C24.3373 13.3366 24.2916 13.2951 24.2428 13.2445C24.1941 13.1939 24.1601 13.1524 24.1673 13.1524C24.1745 13.1524 24.2202 13.1939 24.2689 13.2445ZM24.4778 13.4549C24.5266 13.5056 24.5605 13.547 24.5533 13.547C24.5462 13.547 24.5004 13.5056 24.4517 13.4549C24.403 13.4043 24.369 13.3629 24.3762 13.3629C24.3834 13.3629 24.4291 13.4043 24.4778 13.4549ZM2.85108 14.17C2.9121 14.193 2.96179 14.2249 2.96147 14.2411C2.96009 14.3118 2.858 14.489 2.78099 14.5542C2.67446 14.6445 2.49627 14.6519 2.36535 14.5715C2.28417 14.5217 2.27911 14.5107 2.29574 14.4204C2.33203 14.2232 2.50625 14.0832 2.67482 14.1157C2.71073 14.1226 2.79005 14.147 2.85108 14.17ZM22.5022 14.1504C22.5852 14.1822 22.6672 14.3006 22.6896 14.4213C22.7063 14.5106 22.7011 14.5217 22.6201 14.5715C22.4829 14.6558 22.3084 14.645 22.1957 14.5453C22.1079 14.4677 21.999 14.2467 22.0321 14.2133C22.0411 14.2043 22.1104 14.1751 22.186 14.1484C22.3207 14.101 22.3741 14.1013 22.5022 14.1504ZM3.89569 14.6978C4.11962 14.882 4.33689 15.2891 4.38162 15.6083L4.39585 15.7099L4.20511 15.6919C3.95146 15.668 3.7221 15.7125 3.50321 15.8282C3.22361 15.9759 3.05036 16.1934 2.89322 16.5941C2.86975 16.654 2.86392 16.6509 2.68039 16.4797C2.41363 16.2309 2.24184 15.9009 2.19782 15.5528L2.18369 15.4411L2.29219 15.4607C2.50437 15.4992 2.80924 15.4803 2.9714 15.4187C3.27807 15.3022 3.52976 15.0643 3.65666 14.7708C3.6975 14.6764 3.741 14.5992 3.75333 14.5992C3.76568 14.5992 3.82973 14.6436 3.89569 14.6978ZM21.3279 14.7689C21.5284 15.2326 22.0263 15.5312 22.5193 15.4834C22.6127 15.4744 22.7147 15.46 22.7458 15.4514C22.799 15.4368 22.8015 15.4428 22.7879 15.5502C22.7434 15.9021 22.5713 16.233 22.3061 16.4769C22.1228 16.6455 22.0756 16.666 22.0756 16.577C22.0755 16.4852 21.9223 16.2115 21.7882 16.0638C21.54 15.7904 21.1727 15.6549 20.7803 15.6919L20.5896 15.7099L20.6038 15.6083C20.6535 15.2537 20.8693 14.8681 21.128 14.6715C21.1804 14.6317 21.2303 14.5992 21.2389 14.5992C21.2475 14.5992 21.2875 14.6755 21.3279 14.7689ZM4.2602 16.562C4.31245 16.5762 4.31658 16.5895 4.30276 16.6998C4.273 16.9374 4.1398 17.0806 3.94864 17.0806C3.76576 17.0806 3.71928 17.0407 3.71928 16.8836C3.71928 16.7634 3.72949 16.7397 3.82064 16.6478C3.91339 16.5544 3.93397 16.5457 4.06217 16.5461C4.13928 16.5463 4.22837 16.5535 4.2602 16.562ZM21.1648 16.6478C21.2559 16.7397 21.2661 16.7634 21.2661 16.8836C21.2661 17.0401 21.2196 17.0806 21.0398 17.0806C20.8474 17.0806 20.7133 16.942 20.6818 16.7104C20.6613 16.5598 20.6785 16.5466 20.8971 16.5461C21.0557 16.5457 21.0681 16.5504 21.1648 16.6478ZM5.3737 16.8153C5.64901 16.9621 5.97875 17.3365 6.0539 17.5876C6.06923 17.6389 6.05562 17.6455 5.87462 17.6749C5.61813 17.7166 5.39192 17.833 5.21008 18.0168C5.06856 18.1599 4.94309 18.3729 4.90615 18.5328C4.89103 18.5983 4.94129 18.5586 5.22416 18.2818L5.56013 17.953L5.21416 18.3085C4.86862 18.6635 4.86818 18.6641 4.86818 18.7885C4.86818 18.9418 4.84674 18.9452 4.60913 18.8295C4.31916 18.6884 3.97935 18.2958 3.8902 17.999C3.87412 17.9455 3.88117 17.9399 3.96428 17.9399C4.22989 17.9399 4.54006 17.8136 4.74909 17.6204C4.96777 17.4183 5.06469 17.2169 5.14277 16.8022C5.15026 16.7624 5.16922 16.7298 5.18489 16.7298C5.20055 16.7298 5.28552 16.7683 5.3737 16.8153ZM19.8435 16.8285C19.8734 17.0154 19.9679 17.2843 20.0446 17.401C20.2519 17.7163 20.6571 17.9399 21.0211 17.9399C21.1044 17.9399 21.1113 17.9454 21.0948 17.999C21.0019 18.3007 20.6736 18.6799 20.3783 18.8265C20.1265 18.9516 20.1334 18.9537 20.1153 18.7469L20.0997 18.5676L19.8147 18.2735L19.5297 17.9793L19.7974 18.2419C19.9446 18.3863 20.065 18.4945 20.065 18.4824C20.065 18.4704 20.0222 18.3784 19.9699 18.2782C19.8032 17.9587 19.4833 17.7339 19.1127 17.676C19.0126 17.6604 18.9257 17.6426 18.9196 17.6364C18.8874 17.6041 19.0986 17.2556 19.2454 17.0989C19.3974 16.9365 19.702 16.7329 19.7962 16.7306C19.8135 16.7302 19.8348 16.7742 19.8435 16.8285ZM7.29844 18.4425C7.58943 18.5054 7.94525 18.7275 8.10461 18.9458C8.19132 19.0646 8.18926 19.0718 8.05377 19.1241C7.69868 19.2612 7.43261 19.5701 7.32375 19.9715C7.28881 20.1004 7.29688 20.4856 7.33652 20.5808C7.38688 20.7017 6.81178 20.545 6.55994 20.3692C6.42162 20.2727 6.14764 19.9796 6.14764 19.9283C6.14764 19.9197 6.16821 19.9127 6.19333 19.9127C6.28376 19.9126 6.56785 19.7547 6.69982 19.6311C6.99234 19.3571 7.10308 19.0743 7.08143 18.6567C7.0671 18.38 7.05668 18.3903 7.29844 18.4425ZM17.9108 18.7356C17.9108 19.0438 17.9144 19.0655 17.9948 19.2364C18.1087 19.4787 18.3256 19.7037 18.5584 19.821C18.6584 19.8714 18.7623 19.9127 18.789 19.9127C18.8745 19.9127 18.8427 19.9667 18.6322 20.1787C18.4842 20.3279 18.3785 20.4085 18.2541 20.4671C18.0548 20.5611 17.8445 20.6222 17.7187 20.6226C17.6452 20.6229 17.6342 20.6155 17.6505 20.5769C17.6612 20.5516 17.6756 20.4284 17.6825 20.3032C17.6927 20.117 17.6846 20.0428 17.6377 19.8955C17.5211 19.529 17.2712 19.2562 16.9316 19.1243C16.8814 19.1048 16.8314 19.0812 16.8206 19.072C16.76 19.0199 17.1549 18.6495 17.3738 18.5531C17.5386 18.4806 17.752 18.4162 17.8325 18.4148L17.9108 18.4133V18.7356ZM6.23989 18.6347C6.27352 18.9058 6.15832 19.0675 5.9148 19.0911C5.76811 19.1053 5.72918 19.0697 5.71069 18.9043C5.69748 18.7862 5.74064 18.6649 5.81929 18.5991C5.8789 18.5493 6.04398 18.4947 6.13923 18.4934C6.22028 18.4923 6.22263 18.4956 6.23989 18.6347ZM19.0919 18.5503C19.1306 18.569 19.1901 18.6257 19.2243 18.6764C19.2748 18.7514 19.2841 18.7924 19.2744 18.8978C19.2605 19.0475 19.2114 19.0973 19.0774 19.0973C18.9586 19.0973 18.8272 19.0124 18.7753 18.9022C18.7297 18.8055 18.7249 18.7443 18.7506 18.5877L18.7673 18.4859L18.8945 18.501C18.9644 18.5094 19.0533 18.5315 19.0919 18.5503ZM4.65929 18.8688C4.65929 18.8733 4.62111 18.9118 4.57443 18.9542L4.48956 19.0315L4.56625 18.946C4.63775 18.8663 4.65929 18.8484 4.65929 18.8688ZM4.47651 19.0526C4.47651 19.057 4.43246 19.1014 4.37859 19.1513L4.28067 19.2419L4.37065 19.1433C4.45442 19.0515 4.47651 19.0326 4.47651 19.0526ZM14.1116 19.1321C14.1116 19.1368 14.0793 19.1694 14.0398 19.2045L13.968 19.2682L14.0313 19.1959C14.0905 19.1283 14.1116 19.1115 14.1116 19.1321ZM13.9027 19.3431C13.9027 19.3481 13.8763 19.3747 13.844 19.4023L13.7852 19.4524L13.835 19.3932C13.8817 19.3376 13.9027 19.322 13.9027 19.3431ZM9.974 19.5586C10.1648 19.6082 10.4162 19.7271 10.5213 19.8174L10.5996 19.8847L10.5082 19.9562C10.1576 20.2305 9.99896 20.547 10.0026 20.9649C10.0045 21.1768 10.032 21.2874 10.1542 21.5749C10.2034 21.6905 9.63552 21.6727 9.32931 21.549C9.13676 21.4713 8.86322 21.2983 8.86322 21.2543C8.86322 21.2425 8.91414 21.2029 8.97639 21.1661C9.17974 21.0461 9.37273 20.7865 9.45039 20.5287C9.51256 20.3222 9.50154 19.9964 9.42462 19.7655C9.38871 19.6578 9.35934 19.5648 9.35934 19.559C9.35934 19.5096 9.78459 19.5093 9.974 19.5586ZM15.5924 19.5392C15.6164 19.5545 15.6084 19.6091 15.5598 19.7634C15.4841 20.0034 15.4737 20.3251 15.535 20.5287C15.6118 20.7837 15.7965 21.0339 16.0067 21.1676C16.0701 21.208 16.1221 21.2498 16.1221 21.2605C16.1222 21.3053 15.8594 21.4698 15.6652 21.5465C15.3475 21.6721 14.7816 21.6913 14.8312 21.5749C14.9551 21.2835 14.98 21.1792 14.9802 20.9517C14.9806 20.5656 14.8311 20.2476 14.5388 20.0126C14.4618 19.9507 14.3988 19.8925 14.3988 19.8832C14.3988 19.8176 14.7856 19.6105 15.0125 19.5547C15.1595 19.5186 15.5441 19.5083 15.5924 19.5392ZM11.4874 19.597C11.5134 19.626 11.5288 19.6497 11.5216 19.6497C11.5144 19.6497 11.4873 19.626 11.4613 19.597C11.4353 19.5681 11.4199 19.5444 11.4271 19.5444C11.4343 19.5444 11.4614 19.5681 11.4874 19.597ZM13.6677 19.5807C13.6677 19.5861 13.6471 19.6069 13.622 19.6267C13.5806 19.6594 13.5797 19.6585 13.6122 19.6168C13.6463 19.573 13.6677 19.559 13.6677 19.5807ZM11.6963 19.8075C11.7223 19.8364 11.7377 19.8601 11.7305 19.8601C11.7233 19.8601 11.6962 19.8364 11.6702 19.8075C11.6442 19.7785 11.6288 19.7549 11.636 19.7549C11.6432 19.7549 11.6703 19.7785 11.6963 19.8075ZM13.4588 19.7911C13.4588 19.7966 13.4383 19.8173 13.4131 19.8372C13.3717 19.8699 13.3708 19.8689 13.4033 19.8272C13.4374 19.7834 13.4588 19.7695 13.4588 19.7911ZM8.61125 19.9856C8.63493 20.0474 8.65428 20.1361 8.65423 20.1828C8.65394 20.4342 8.31538 20.6297 8.19662 20.4471C8.12077 20.3305 8.11759 20.1775 8.18877 20.0705C8.24929 19.9796 8.51965 19.8202 8.5525 19.8561C8.56109 19.8655 8.58754 19.9238 8.61125 19.9856ZM16.7319 19.9882C16.8605 20.1018 16.8846 20.2997 16.788 20.4483C16.706 20.5744 16.5028 20.5293 16.3883 20.3595C16.3177 20.2549 16.3194 20.1044 16.3931 19.9338L16.4351 19.8365L16.5593 19.891C16.6277 19.921 16.7054 19.9647 16.7319 19.9882ZM12.8541 19.9417C12.9165 19.9554 13.0105 19.9859 13.063 20.0095C13.1156 20.033 13.1682 20.0502 13.1801 20.0476C13.1919 20.045 13.194 20.0552 13.1848 20.0703C13.1755 20.0854 13.1571 20.0909 13.1437 20.0826C13.1303 20.0742 13.1194 20.0772 13.1194 20.0892C13.1194 20.1011 13.0733 20.1672 13.0169 20.2359C12.8702 20.4148 12.7945 20.6571 12.7975 20.9386C12.8008 21.2558 12.8821 21.4668 13.1088 21.7471L13.1777 21.8322L13.0532 21.8859C12.8691 21.9654 12.7399 21.9894 12.4917 21.9901C12.2647 21.9908 12.0305 21.9445 11.8896 21.8711L11.8114 21.8303L11.9164 21.6976C12.038 21.5437 12.1387 21.3382 12.1651 21.1901C12.1825 21.0924 12.1808 21.0886 12.1358 21.1238C12.0961 21.1549 12.0968 21.1508 12.1402 21.0996C12.26 20.9581 12.1657 20.4961 11.9584 20.209C11.895 20.1214 11.8501 20.0428 11.8584 20.0344C11.8667 20.026 11.8573 19.9982 11.8376 19.9725C11.8032 19.9279 11.804 19.9279 11.8559 19.9723C11.9061 20.0152 11.9174 20.0156 12.0076 19.9776C12.2135 19.8909 12.5563 19.8764 12.8541 19.9417ZM11.2931 20.7413C11.3975 20.9044 11.3308 21.1526 11.1586 21.2424C11.094 21.276 11.0616 21.2793 11.0137 21.2573C10.8706 21.1916 10.8037 20.9427 10.886 20.7823C10.9071 20.7412 10.9745 20.6705 11.0356 20.6252L11.1468 20.5428L11.1947 20.6026C11.2211 20.6355 11.2653 20.6979 11.2931 20.7413ZM14.0985 20.7807C14.1598 20.9001 14.1487 21.0637 14.0725 21.1645C13.9837 21.2817 13.9216 21.2966 13.8103 21.2273C13.6985 21.1577 13.6413 21.053 13.6425 20.9202C13.6435 20.8164 13.6639 20.7697 13.7695 20.6298L13.8321 20.5469L13.9457 20.6256C14.0082 20.6689 14.077 20.7387 14.0985 20.7807ZM12.9497 21.0701C12.9756 21.099 12.991 21.1227 12.9839 21.1227C12.9767 21.1227 12.9495 21.099 12.9235 21.0701C12.8976 21.0412 12.8822 21.0175 12.8893 21.0175C12.8965 21.0175 12.9237 21.0412 12.9497 21.0701ZM13.1585 21.2805C13.1845 21.3095 13.1999 21.3331 13.1928 21.3331C13.1856 21.3331 13.1584 21.3095 13.1324 21.2805C13.1065 21.2516 13.091 21.2279 13.0982 21.2279C13.1054 21.2279 13.1326 21.2516 13.1585 21.2805ZM11.9966 21.2642C11.9966 21.2696 11.976 21.2904 11.9509 21.3102C11.9095 21.3429 11.9086 21.342 11.941 21.3003C11.9752 21.2564 11.9966 21.2425 11.9966 21.2642ZM13.3674 21.491C13.3934 21.5199 13.4088 21.5436 13.4016 21.5436C13.3945 21.5436 13.3673 21.5199 13.3413 21.491C13.3153 21.462 13.2999 21.4384 13.3071 21.4384C13.3143 21.4384 13.3415 21.462 13.3674 21.491ZM11.7877 21.4746C11.7877 21.4801 11.7671 21.5008 11.742 21.5206C11.7006 21.5533 11.6997 21.5524 11.7321 21.5107C11.7663 21.4669 11.7877 21.453 11.7877 21.4746ZM13.5763 21.7014C13.6023 21.7303 13.6177 21.754 13.6105 21.754C13.6034 21.754 13.5762 21.7303 13.5502 21.7014C13.5242 21.6725 13.5088 21.6488 13.516 21.6488C13.5232 21.6488 13.5503 21.6725 13.5763 21.7014ZM11.5788 21.6851C11.5788 21.6905 11.5582 21.7112 11.5331 21.7311C11.4917 21.7638 11.4908 21.7629 11.5232 21.7211C11.5574 21.6773 11.5788 21.6634 11.5788 21.6851ZM13.7852 21.9118C13.8112 21.9408 13.8266 21.9645 13.8194 21.9645C13.8122 21.9645 13.7851 21.9408 13.7591 21.9118C13.7331 21.8829 13.7177 21.8592 13.7249 21.8592C13.7321 21.8592 13.7592 21.8829 13.7852 21.9118ZM11.3699 21.8955C11.3699 21.9009 11.3493 21.9217 11.3242 21.9415C11.2828 21.9742 11.2819 21.9733 11.3144 21.9316C11.3485 21.8878 11.3699 21.8738 11.3699 21.8955ZM13.9941 22.1223C14.0201 22.1512 14.0355 22.1749 14.0283 22.1749C14.0211 22.1749 13.994 22.1512 13.968 22.1223C13.942 22.0934 13.9266 22.0697 13.9338 22.0697C13.941 22.0697 13.9681 22.0934 13.9941 22.1223ZM11.161 22.1059C11.161 22.1114 11.1404 22.1321 11.1153 22.152C11.0739 22.1847 11.073 22.1837 11.1055 22.142C11.1396 22.0982 11.161 22.0843 11.161 22.1059Z" fill="#FD9149"/>
</svg>
