<svg width="20" height="21" viewBox="0 0 20 21" fill="none" xmlns="http://www.w3.org/2000/svg">
<path d="M1.16286 1.16818C0.958209 1.2612 0.67914 1.45655 0.539606 1.60538C-0.0185319 2.20073 7.26742e-05 1.90306 7.26742e-05 9.70768C7.26742e-05 16.4518 0.00937497 16.8704 0.176816 17.2332C0.390769 17.7077 0.930302 18.1542 1.45123 18.2844C1.70239 18.3495 3.14425 18.3867 5.3954 18.3867H8.93958L8.50237 17.8751L8.05586 17.3635H4.82796C1.721 17.3635 1.60007 17.3542 1.36751 17.1681C1.22798 17.0658 1.07914 16.8239 1.02332 16.6379C0.948906 16.4053 0.930302 14.1263 0.948906 9.43791L0.976813 2.57282L1.28379 2.27515L1.58146 1.96817L5.99075 1.94027L10.4 1.91236L10.4372 4.17282C10.4652 6.16351 10.4838 6.47048 10.6419 6.75885C10.8838 7.21467 11.1535 7.49373 11.5814 7.71699C11.9163 7.89373 12.1489 7.92164 13.7023 7.94955L15.4419 7.98676V8.23792C15.4419 8.47978 15.5814 8.5914 16.4 8.9728C16.4372 8.9914 16.4651 8.54489 16.4651 7.98676V6.9635L13.9721 3.97747L11.4884 1.00073H6.51168C1.86053 0.991432 1.50704 1.01004 1.16286 1.16818ZM13.3954 4.47979C14.3349 5.60537 15.1907 6.61932 15.293 6.74025L15.4884 6.9542L13.7489 6.9263L12 6.89839L11.7489 6.63792L11.4884 6.38676L11.4605 4.26584C11.4326 2.46119 11.4512 2.17282 11.5628 2.29375C11.6372 2.36817 12.4558 3.35421 13.3954 4.47979Z" fill="black"/>
<path d="M2.97681 5.45676V5.92188H5.46982H7.95353L7.92563 5.45676L7.88842 4.99165H5.43261H2.97681V5.45676Z" fill="black"/>
<path d="M2.97681 8.43332V8.89844H5.44191H7.90702V8.43332V7.96821H5.44191H2.97681V8.43332Z" fill="black"/>
<path d="M12.2232 8.98183C10.2511 9.29811 8.64184 10.7307 8.13952 12.6283C7.96277 13.2888 7.96277 14.4888 8.13952 15.1772C8.69765 17.2981 10.7256 18.8516 12.9302 18.8516C14.2883 18.8516 15.479 18.3492 16.4744 17.3632C17.9906 15.8562 18.3534 13.6609 17.3953 11.7167C16.4465 9.79113 14.3069 8.66555 12.2232 8.98183ZM13.8604 10.0237C16.8186 10.7028 17.9348 14.3958 15.8511 16.619C15.0046 17.5213 13.5907 18.0144 12.3721 17.8283C10.6604 17.5585 9.33021 16.2469 9.00463 14.4981C8.65114 12.6097 9.97207 10.5911 11.8976 10.0516C12.4279 9.91206 13.3023 9.89346 13.8604 10.0237Z" fill="black"/>
<path d="M2.97681 10.8985V11.4102H5.23726H7.48842L7.78609 10.8985L8.08377 10.3869H5.53494H2.97681V10.8985Z" fill="black"/>
<path d="M2.97681 13.8751V14.3867H4.9768H6.97679V13.8751V13.3635H4.9768H2.97681V13.8751Z" fill="black"/>
<path d="M17.1813 17.9036L16.8372 18.2571L18.0744 19.485L19.3116 20.7129L19.6558 20.3594L19.9999 20.0059L18.7627 18.778L17.5255 17.5501L17.1813 17.9036Z" fill="black"/>
</svg>
