<svg width="32" height="28" viewBox="0 0 32 28" fill="none" xmlns="http://www.w3.org/2000/svg">
<path fill-rule="evenodd" clip-rule="evenodd" d="M21.5916 0.0230469C21.4705 0.0398842 21.2004 0.0553407 20.9913 0.0574502C20.7821 0.0595596 20.3769 0.0864071 20.0908 0.117128C19.8046 0.147811 19.4714 0.181064 19.3504 0.190959C19.1455 0.207758 18.555 0.291369 18.0897 0.369456C17.9796 0.387943 17.7635 0.422231 17.6094 0.445626C17.4554 0.469022 17.2933 0.501853 17.2493 0.518613C17.1334 0.562643 16.6212 0.675556 16.5389 0.675172C16.5004 0.675019 16.4688 0.692125 16.4688 0.713219C16.4688 0.734313 16.4373 0.751496 16.3988 0.751381C16.3242 0.751189 16.0073 0.845309 15.8085 0.926733C15.7424 0.953772 15.5844 1.02035 15.4572 1.07466C15.33 1.12901 15.217 1.17346 15.2061 1.17346C15.1701 1.17346 14.6482 1.49624 14.6345 1.52697C14.6272 1.5435 14.6044 1.557 14.5838 1.557C14.5474 1.557 14.3696 1.72234 14.2075 1.90682C14.1269 1.99868 14.0364 2.18853 13.9527 2.44185C13.9202 2.5403 13.9075 3.76202 13.9075 6.78539V10.992L13.7374 10.9917C13.6438 10.9916 13.4592 10.9733 13.3271 10.951C13.0556 10.9052 12.7132 10.8674 11.7063 10.7725C10.5441 10.6628 6.491 10.6949 5.80311 10.8191C5.73708 10.8311 5.52997 10.8572 5.34286 10.8773C5.02453 10.9113 4.59546 10.9711 3.98214 11.0668C3.83906 11.0892 3.66977 11.1246 3.60597 11.1456C3.54214 11.1666 3.44737 11.1837 3.3953 11.1837C3.34327 11.1837 3.26939 11.1992 3.23117 11.218C3.19295 11.2369 3.07165 11.2699 2.96159 11.2914C2.85153 11.3128 2.69845 11.3483 2.62141 11.3704C2.54436 11.3923 2.40029 11.4324 2.30123 11.4594C2.20218 11.4863 2.11213 11.5191 2.10113 11.5321C2.09012 11.5452 2.03609 11.566 1.98106 11.5784C1.79264 11.6208 1.58085 11.7011 1.58085 11.7301C1.58085 11.746 1.56108 11.759 1.53686 11.759C1.46747 11.759 1.22334 11.8752 0.940504 12.0429C0.581912 12.2556 0.286754 12.545 0.13115 12.8365L0 13.0822V14.6961C0 16.2342 0.00376202 16.317 0.0800429 16.4603C0.124067 16.5431 0.173573 16.6165 0.190102 16.6235C0.206591 16.6306 0.220198 16.6565 0.220318 16.6811C0.220558 16.7417 0.440636 16.965 0.660354 17.1275C0.759407 17.2008 0.849455 17.2699 0.860461 17.281C0.886235 17.3069 1.51193 17.5985 1.72092 17.682C1.80897 17.7171 1.91227 17.7623 1.95049 17.7824C1.98871 17.8025 2.05518 17.8189 2.09821 17.8189C2.14123 17.8189 2.18757 17.8362 2.20118 17.8573C2.21479 17.8783 2.25881 17.8956 2.29899 17.8956C2.33921 17.8956 2.46304 17.9238 2.57422 17.9582L2.77633 18.0207L2.78894 19.1951C2.80126 20.3467 2.80334 20.3727 2.89667 20.5405C2.94902 20.6346 3.08033 20.7969 3.18851 20.9011L3.38522 21.0906L3.27344 21.1366C3.212 21.1619 3.06264 21.2134 2.94158 21.251C2.24292 21.4681 1.55908 21.9612 1.47839 22.3063C1.46603 22.359 1.43901 22.4321 1.41836 22.4687C1.36609 22.5613 1.36841 25.5929 1.42076 25.6238C1.44277 25.6369 1.46078 25.6839 1.46078 25.7282C1.46078 25.8364 1.66597 26.1369 1.85111 26.2999C2.05494 26.4794 2.46292 26.7553 2.52451 26.7553C2.55213 26.7553 2.5807 26.7682 2.58807 26.784C2.60632 26.8235 2.89059 26.947 2.96295 26.947C2.99521 26.947 3.02162 26.9602 3.02162 26.9764C3.02162 27.0105 3.38165 27.1388 3.47722 27.1388C3.5128 27.1388 3.5419 27.1561 3.5419 27.1772C3.5419 27.1983 3.56683 27.2155 3.59733 27.2155C3.62783 27.2155 3.74041 27.2408 3.84746 27.2716C4.05445 27.3313 4.74967 27.4959 5.08273 27.5641C5.50355 27.6504 6.39091 27.7718 7.01644 27.8286C7.24352 27.8493 7.44383 27.8747 7.46152 27.8852C7.53728 27.9301 9.33853 27.9998 10.4256 28C11.508 28.0002 13.1367 27.9369 13.3933 27.8847C13.4518 27.8728 13.6769 27.8471 13.8936 27.8276C14.2482 27.7958 14.7709 27.7271 15.3282 27.6392C15.4383 27.6219 15.6634 27.5788 15.8285 27.5435C15.9936 27.5082 16.2146 27.4641 16.3196 27.4455C16.4247 27.4269 16.5688 27.3946 16.6398 27.3738C16.7108 27.353 16.8771 27.3053 17.0091 27.2678C17.1412 27.2304 17.2664 27.1861 17.2873 27.1693C17.3082 27.1525 17.3656 27.1388 17.415 27.1388C17.4643 27.1388 17.5158 27.1215 17.5294 27.1005C17.543 27.0794 17.5837 27.0621 17.62 27.0621C17.7263 27.0621 18.4293 26.7218 18.69 26.5441C18.9841 26.3437 19.2257 26.0963 19.3264 25.8923C19.3681 25.8079 19.4175 25.7089 19.4363 25.6723C19.4551 25.6357 19.4704 25.4 19.4704 25.1485V24.6913L19.7006 24.6258C20.144 24.4994 20.483 24.3815 20.6405 24.2988C20.6787 24.2787 20.7373 24.2623 20.7706 24.2623C20.8039 24.2623 20.8313 24.2494 20.8313 24.2335C20.8314 24.2177 20.9169 24.1715 21.0214 24.1309C21.1259 24.0902 21.2229 24.0405 21.2371 24.0202C21.2528 23.9978 21.8371 23.9851 22.7379 23.9877C23.5492 23.9899 24.4741 23.976 24.7933 23.9567C25.7336 23.8999 26.4471 23.844 26.5542 23.8188C26.6093 23.8059 26.7894 23.7798 26.9545 23.7609C27.5111 23.6971 28.1763 23.5891 28.6754 23.4815C28.9052 23.432 29.0298 23.4003 29.5358 23.2625C29.6019 23.2445 29.7415 23.209 29.846 23.1835C29.9505 23.158 30.0361 23.1228 30.0361 23.1052C30.0361 23.0877 30.0724 23.0733 30.1167 23.0733C30.161 23.0733 30.2286 23.0568 30.2668 23.0367C30.305 23.0165 30.4577 22.9481 30.6061 22.8847C30.7545 22.8212 30.9796 22.7058 31.1063 22.6282C31.3366 22.4874 31.7971 22.067 31.7971 21.9977C31.7971 21.9776 31.8151 21.9611 31.8371 21.9611C31.8591 21.9611 31.8771 21.9378 31.8771 21.9095C31.8771 21.881 31.9047 21.8048 31.9384 21.74C31.9931 21.635 31.9998 20.5651 31.9999 11.9765L32 2.33082L31.8739 2.10691C31.7491 1.88553 31.3043 1.44194 31.207 1.44194C31.1793 1.44194 31.1567 1.42859 31.1567 1.41229C31.1567 1.39599 31.0892 1.3487 31.0066 1.3072C30.9241 1.2657 30.8475 1.2209 30.8365 1.20767C30.8255 1.19444 30.6184 1.11041 30.3763 1.02097C30.1342 0.931527 29.9 0.844273 29.856 0.827052C29.812 0.80987 29.6679 0.766799 29.5358 0.731322C29.4038 0.695883 29.2159 0.642764 29.1185 0.613347C29.021 0.583891 28.8935 0.559805 28.835 0.559805C28.7766 0.559805 28.7153 0.546841 28.6989 0.53104C28.6422 0.476271 27.1417 0.241355 26.4342 0.176461C26.2031 0.15529 25.9654 0.128136 25.906 0.116169C25.5072 0.035627 22.0399 -0.0391625 21.5916 0.0230469ZM25.8339 1.45597C26.197 1.49057 26.5662 1.5275 26.6543 1.53809C27.148 1.59731 27.753 1.68268 27.8749 1.71037C28.2442 1.79418 28.6239 1.86475 28.703 1.86432C28.7513 1.86406 28.8018 1.88108 28.8155 1.90218C28.8291 1.92327 28.8835 1.94053 28.9365 1.94053C28.9894 1.94053 29.1189 1.96657 29.2243 1.99841C29.7347 2.1527 29.8276 2.1835 29.9817 2.24951C30.0728 2.28855 30.1944 2.33178 30.2518 2.34562C30.3093 2.35943 30.3563 2.38221 30.3563 2.39621C30.3563 2.41021 30.4193 2.4542 30.4964 2.49397C30.5734 2.53375 30.6364 2.57877 30.6364 2.59404C30.6364 2.6559 30.3798 2.85622 30.1843 2.94689C29.8291 3.11166 29.6862 3.16785 29.6222 3.16785C29.5883 3.16785 29.5507 3.18311 29.5387 3.20179C29.5267 3.22043 29.467 3.24513 29.4062 3.2566C29.3455 3.2681 29.1967 3.30358 29.0756 3.33545C28.51 3.48442 28.2656 3.53658 27.5948 3.65145C27.2036 3.71841 26.9059 3.75684 26.3141 3.81675C26.083 3.84011 25.7498 3.87585 25.5737 3.89618C24.3356 4.03893 21.5167 4.01162 19.8106 3.84037C18.8476 3.74372 18.2886 3.66069 17.4494 3.48967C16.8837 3.37442 16.3758 3.23669 16.0486 3.10978C15.6829 2.96791 15.5663 2.91828 15.5483 2.89657C15.5373 2.88334 15.4878 2.85204 15.4383 2.82707C15.2445 2.72927 15.3667 2.58092 15.8184 2.36537C16.2087 2.17921 16.1996 2.18289 16.3396 2.15339C16.4102 2.13855 16.4782 2.11048 16.4908 2.09099C16.5033 2.07151 16.5655 2.05559 16.6289 2.05559C16.6924 2.05559 16.7541 2.04033 16.7661 2.02165C16.7782 2.00301 16.8738 1.97551 16.9786 1.96055C17.0834 1.9456 17.1872 1.92005 17.2092 1.90375C17.2312 1.88749 17.3213 1.86436 17.4093 1.85232C17.6524 1.81914 18.0399 1.74259 18.1297 1.70999C18.2659 1.66063 19.0406 1.56256 19.9307 1.48205C20.1948 1.45816 20.528 1.4241 20.6711 1.40634C21.1457 1.34747 25.093 1.38544 25.8339 1.45597ZM15.5597 4.29594C15.8041 4.44525 17.225 4.82802 17.9296 4.93433C18.0397 4.95094 18.3008 4.99229 18.5099 5.02619C19.0348 5.11133 19.3908 5.14689 21.0713 5.28197C21.9936 5.35607 25.7563 5.28105 26.1914 5.17987C26.2451 5.16741 26.4522 5.14121 26.6517 5.12169C27.3917 5.04924 28.6635 4.8442 28.8049 4.77455C28.8431 4.75576 28.9075 4.74034 28.9478 4.74034C28.9883 4.74034 29.101 4.71625 29.1985 4.6868C29.296 4.65738 29.4838 4.60457 29.6159 4.56951C29.748 4.53442 29.8873 4.48947 29.9255 4.4696C29.9637 4.44977 30.0225 4.43351 30.0561 4.43351C30.0897 4.43351 30.1485 4.41737 30.1867 4.39761C30.348 4.31435 30.5323 4.24174 30.5826 4.24174C30.6266 4.24174 30.6364 4.46235 30.6364 5.44708V6.65242L30.4929 6.76579C30.3365 6.88937 29.873 7.11826 29.7792 7.11826C29.747 7.11826 29.7105 7.13402 29.6981 7.15328C29.6856 7.17253 29.6036 7.19991 29.5158 7.21414C29.428 7.22837 29.346 7.25576 29.3336 7.27501C29.3212 7.29426 29.2739 7.31003 29.2287 7.31003C29.1834 7.31003 29.0629 7.33507 28.9609 7.36564C28.6684 7.45339 28.1675 7.56431 27.807 7.62123C26.8797 7.76762 26.3099 7.83704 25.6538 7.88361C25.3676 7.90389 24.8543 7.9406 24.5131 7.96522C23.4178 8.04423 20.7155 7.96127 19.4304 7.80916C19.1641 7.77763 18.8809 7.7366 18.1097 7.61782C17.9886 7.59914 17.7635 7.55553 17.6094 7.52082C17.4554 7.48615 17.2392 7.44047 17.1292 7.4193C17.0191 7.39816 16.912 7.36491 16.8911 7.34543C16.8702 7.32594 16.8024 7.31003 16.7404 7.31003C16.6785 7.31003 16.5965 7.29426 16.5583 7.27501C16.5201 7.25572 16.3268 7.18407 16.1286 7.11577C15.9305 7.04746 15.7595 6.97923 15.7484 6.96419C15.7374 6.94916 15.6924 6.92599 15.6484 6.91272C15.6044 6.89945 15.5143 6.84396 15.4483 6.78942L15.3282 6.69023L15.3166 5.46599C15.3051 4.24899 15.3055 4.24174 15.3881 4.24174C15.4338 4.24174 15.511 4.26614 15.5597 4.29594ZM15.5578 8.30722C15.6489 8.34941 15.7399 8.38393 15.7599 8.38393C15.78 8.38393 15.8531 8.40755 15.9225 8.4364C15.9919 8.46528 16.1567 8.51947 16.2887 8.55682C16.4208 8.59422 16.5649 8.63775 16.6089 8.65355C16.6529 8.66939 16.833 8.71177 17.0091 8.74775C17.1852 8.78376 17.3923 8.82821 17.4694 8.84662C17.7179 8.90592 18.0438 8.96613 18.2898 8.99824C19.2342 9.12158 19.3946 9.1411 20.2108 9.23212C20.7954 9.29732 24.5063 9.32252 25.1887 9.26591C26.9081 9.12335 27.8429 8.99827 28.7754 8.78595C28.9295 8.75086 29.1186 8.70786 29.1957 8.69033C29.2727 8.67281 29.4348 8.62981 29.5558 8.59476C29.6769 8.5597 29.8167 8.52173 29.8666 8.51042C29.9164 8.4991 29.967 8.47463 29.979 8.45607C29.991 8.43747 30.0285 8.42228 30.0624 8.42228C30.0963 8.42228 30.1808 8.39881 30.2502 8.37016C30.4618 8.28267 30.5992 8.23051 30.6183 8.23051C30.6283 8.23051 30.6364 8.77648 30.6364 9.44379V10.657L30.5264 10.749C30.4658 10.7995 30.3353 10.8792 30.2362 10.926C30.1372 10.9728 30.0501 11.0241 30.0428 11.0399C30.0354 11.0557 29.9904 11.0692 29.9427 11.0699C29.895 11.0706 29.821 11.0964 29.7783 11.1274C29.7356 11.1584 29.6678 11.1837 29.6277 11.1837C29.5876 11.1837 29.5235 11.2 29.4853 11.2198C29.447 11.2397 29.3077 11.2846 29.1756 11.3197C29.0436 11.3547 28.8905 11.3982 28.8355 11.4162C28.7804 11.4343 28.6634 11.4601 28.5753 11.4735C28.4873 11.4869 28.3612 11.5122 28.2952 11.5296C28.2291 11.5472 28.004 11.5883 27.7949 11.6211C27.5858 11.6539 27.3607 11.6907 27.2946 11.703C27.1319 11.7333 26.3359 11.8308 25.8939 11.8746C24.4432 12.0185 21.5923 12.0195 20.0908 11.8767C19.215 11.7934 18.3314 11.6747 18.0702 11.6051C17.9929 11.5845 17.8631 11.5676 17.7819 11.5675C17.7007 11.5674 17.6245 11.5523 17.6127 11.534C17.6009 11.5156 17.5001 11.4891 17.3886 11.4749C17.2772 11.4608 17.1462 11.4344 17.0976 11.4163C17.0489 11.3983 16.9281 11.3624 16.829 11.3367C16.5338 11.2599 16.2564 11.1759 16.1286 11.1246C15.8287 11.0043 15.5585 10.8692 15.4483 10.7846L15.3282 10.6925L15.3166 9.46151C15.3084 8.59311 15.3179 8.23051 15.3485 8.23051C15.3725 8.23051 15.4667 8.26503 15.5578 8.30722ZM10.5857 12.0415C10.9929 12.0572 11.5602 12.0951 11.8464 12.1255C12.1325 12.1559 12.4339 12.1809 12.5162 12.1809C12.5984 12.1809 12.7424 12.1975 12.8363 12.2176C12.9302 12.2378 13.1511 12.2745 13.3271 12.2992C13.9506 12.3865 14.4646 12.4769 14.8079 12.5598C14.896 12.5811 15.0581 12.6177 15.1681 12.6412C15.2782 12.6648 15.4043 12.6979 15.4483 12.7149C15.4923 12.7318 15.6274 12.7757 15.7484 12.8123C15.8695 12.849 16.0636 12.9203 16.1798 12.971C16.2959 13.0216 16.4085 13.0631 16.4299 13.0631C16.4513 13.0631 16.4688 13.0803 16.4688 13.1014C16.4688 13.1225 16.4899 13.1398 16.5157 13.1398C16.5415 13.1398 16.5949 13.1678 16.6345 13.2021C16.6885 13.249 16.6966 13.282 16.6671 13.3349C16.6163 13.4258 16.3119 13.6265 16.1748 13.6595C16.1164 13.6735 16.0686 13.7004 16.0686 13.7192C16.0686 13.738 16.0281 13.754 15.9786 13.7547C15.929 13.7553 15.8535 13.7812 15.8108 13.8122C15.7681 13.8431 15.7003 13.8685 15.6602 13.8685C15.6201 13.8685 15.556 13.8836 15.5178 13.9021C15.4273 13.946 15.1651 14.0267 14.988 14.0654C14.911 14.0822 14.7219 14.1236 14.5678 14.1574C13.8581 14.3134 13.0776 14.4291 12.1465 14.5164C11.8934 14.5402 11.5244 14.5787 11.3266 14.602C10.8451 14.6588 7.28271 14.6587 6.80313 14.6018C6.6053 14.5784 6.23634 14.5407 5.98321 14.5182C5.2138 14.4498 4.37286 14.3454 4.26229 14.3046C4.22927 14.2924 4.1032 14.2682 3.98214 14.2508C3.7761 14.2211 3.38361 14.1404 3.06164 14.0616C2.9846 14.0427 2.84052 14.0073 2.74147 13.983C2.64242 13.9586 2.52535 13.9249 2.48133 13.9081C2.43731 13.8913 2.26622 13.8302 2.10113 13.7722C1.74998 13.649 1.42076 13.4615 1.42076 13.3847C1.42076 13.355 1.4559 13.302 1.49884 13.2667C1.62331 13.1646 2.03441 12.9518 2.11113 12.9498C2.14967 12.9488 2.18117 12.9323 2.18117 12.913C2.18117 12.8938 2.25313 12.8664 2.34106 12.8522C2.42898 12.8379 2.51107 12.8105 2.52351 12.7912C2.53592 12.772 2.58703 12.7562 2.63709 12.7562C2.68716 12.7562 2.74163 12.7433 2.75812 12.7275C2.77461 12.7117 2.88119 12.6763 2.99493 12.649C3.10867 12.6216 3.27376 12.5818 3.3618 12.5606C3.44985 12.5395 3.64796 12.4971 3.80204 12.4665C4.104 12.4065 4.19481 12.3916 5.18278 12.2396C5.51716 12.1882 6.50033 12.1029 7.18105 12.0662C7.58671 12.0444 7.92293 12.0224 7.92813 12.0174C7.94938 11.9971 9.89563 12.0147 10.5857 12.0415ZM30.6364 13.4624V14.6671L30.5244 14.7568C30.3621 14.8867 29.881 15.1081 29.5358 15.2117C29.4478 15.2382 29.3397 15.2732 29.2957 15.2896C28.9913 15.4028 27.939 15.6182 27.2546 15.7075C27.0565 15.7333 26.8314 15.7689 26.7543 15.7867C26.0462 15.9497 22.8687 16.04 21.0513 15.9488C19.7882 15.8854 18.9026 15.8246 18.6676 15.7852C18.5452 15.7646 18.3696 15.7478 18.2774 15.7478H18.1097V14.4278C18.1097 13.7017 18.0977 13.0778 18.0831 13.0413C18.0594 12.982 18.0773 12.9777 18.2532 13.001C19.4926 13.1654 20.1295 13.2291 21.1714 13.2927C21.9797 13.342 24.0727 13.3432 24.7211 13.2947C24.9919 13.2744 25.3666 13.2485 25.5537 13.237C25.8795 13.217 26.6198 13.1402 27.2146 13.0647C27.5428 13.023 28.045 12.9391 28.4953 12.8508C28.6714 12.8163 28.8695 12.7787 28.9355 12.7673C29.0016 12.7559 29.0736 12.7331 29.0956 12.7166C29.1176 12.7002 29.2214 12.6745 29.3262 12.6595C29.4311 12.6445 29.5267 12.617 29.5387 12.5984C29.5507 12.5797 29.6125 12.5645 29.6759 12.5645C29.7393 12.5645 29.8015 12.5485 29.8141 12.5291C29.8266 12.5096 29.8947 12.4815 29.9652 12.4667C30.0358 12.4518 30.1211 12.4267 30.1548 12.4108C30.3496 12.3191 30.5049 12.2622 30.5664 12.2601C30.6317 12.2578 30.6364 12.3396 30.6364 13.4624ZM1.76094 15.0294C1.91503 15.0841 2.14015 15.1584 2.26121 15.1944C2.38228 15.2305 2.51259 15.2748 2.55081 15.293C2.58903 15.3111 2.6455 15.3259 2.67632 15.3259C2.70709 15.3259 2.81991 15.3506 2.92697 15.3807C3.14357 15.4416 3.55607 15.5258 4.34233 15.6694C4.7794 15.7492 6.11144 15.8862 7.04378 15.9472C7.97019 16.0078 10.1595 16.0078 11.0859 15.9472C11.9815 15.8886 13.5474 15.7298 13.6673 15.6854C13.7003 15.6731 13.8264 15.6489 13.9475 15.6315C14.389 15.5682 15.3622 15.3593 15.5283 15.2922C15.5724 15.2745 15.7164 15.2299 15.8485 15.1932C15.9806 15.1565 16.1162 15.1132 16.15 15.0968C16.1837 15.0805 16.2692 15.055 16.3401 15.0401C16.4109 15.0252 16.4688 14.9971 16.4688 14.9777C16.4688 14.9583 16.5111 14.9424 16.5628 14.9424C16.655 14.9424 16.6573 14.9514 16.6838 15.4272C16.7144 15.9759 16.6994 16.0221 16.4409 16.1733C16.3572 16.2223 16.2827 16.276 16.2754 16.2927C16.268 16.3094 16.2423 16.3231 16.2181 16.3231C16.1812 16.3231 15.9893 16.3906 15.4483 16.5941C15.4043 16.6106 15.3232 16.6332 15.2682 16.6443C15.011 16.696 14.7517 16.7669 14.7245 16.793C14.708 16.8088 14.6389 16.8217 14.5709 16.8217C14.5029 16.8217 14.3843 16.84 14.3074 16.8625C14.1649 16.904 14.0716 16.9208 13.3672 17.0321C12.8541 17.1132 12.5009 17.1518 11.8063 17.2028C11.4982 17.2254 11.101 17.2611 10.9238 17.2821C10.5016 17.3322 7.63265 17.3322 7.14383 17.2821C6.93472 17.2607 6.5205 17.2248 6.22334 17.2022C5.41394 17.1408 5.20179 17.1148 4.09015 16.9408C3.56403 16.8585 2.54244 16.604 2.2412 16.4802C2.19718 16.4621 2.08012 16.4155 1.98106 16.3767C1.88201 16.3378 1.79196 16.295 1.78095 16.2814C1.76995 16.2678 1.72492 16.2459 1.6809 16.2326C1.63688 16.2194 1.55135 16.1675 1.4908 16.1175L1.38074 16.0265V15.4717C1.38074 14.9583 1.40015 14.814 1.45806 14.8972C1.47055 14.9152 1.60686 14.9747 1.76094 15.0294ZM30.6363 17.4641L30.6363 18.6819L30.4462 18.8054C30.1977 18.967 29.8741 19.1226 29.786 19.1228C29.7475 19.1228 29.7159 19.1363 29.7159 19.1526C29.7159 19.1792 29.5076 19.243 29.2357 19.2996C29.1806 19.3111 29.0996 19.3361 29.0556 19.3552C28.9676 19.3935 28.7144 19.4559 28.4352 19.5082C27.4968 19.684 27.362 19.7059 26.8144 19.772C26.6163 19.7958 26.3371 19.8316 26.194 19.8513C25.6797 19.9224 24.6717 19.9758 23.4826 19.995L22.2719 20.0145V19.875C22.2719 19.7983 22.2566 19.7055 22.2378 19.6689C22.0635 19.3283 22.0031 19.2335 21.8765 19.1019C21.7234 18.9427 21.2557 18.6248 21.0513 18.5409C20.9853 18.5138 20.918 18.4741 20.9018 18.4525C20.8659 18.4047 20.8628 17.8906 20.8963 17.5504L20.9209 17.3011L22.607 17.3153C24.4673 17.331 24.9825 17.3076 26.7343 17.1285C26.9104 17.1105 27.2346 17.0672 27.4547 17.0323C27.6748 16.9974 27.9504 16.9544 28.0671 16.9367C28.3091 16.9 28.6392 16.8317 28.8155 16.7819C28.8815 16.7633 29.0124 16.7364 29.1065 16.7223C29.2005 16.7081 29.2871 16.6816 29.299 16.6633C29.3108 16.6449 29.3565 16.6299 29.4006 16.6299C29.4993 16.6299 29.882 16.5159 29.9341 16.471C29.9549 16.4529 30.009 16.4371 30.0541 16.4359C30.0992 16.4347 30.2172 16.3933 30.3163 16.3441C30.6606 16.1729 30.6364 16.0882 30.6363 17.4641ZM18.1217 17.0927C18.2273 17.1124 18.4435 17.1288 18.6019 17.1291C18.9381 17.1298 19.3322 17.2097 19.4215 17.2953C19.478 17.3495 19.4748 17.3623 19.3871 17.4315C19.1122 17.6486 18.285 17.954 17.4894 18.1322C16.1267 18.4375 14.9911 18.5626 12.6445 18.666C11.6627 18.7093 11.226 18.6975 11.226 18.6277C11.226 18.611 11.3836 18.585 11.5762 18.5701C12.3465 18.51 12.7458 18.4702 13.147 18.4136C14.0821 18.2818 14.5528 18.2017 14.6373 18.1601C14.6755 18.1412 14.7464 18.1257 14.7948 18.1257C14.8827 18.1257 15.2972 18.0295 15.4483 17.9741C15.4923 17.9579 15.6364 17.9141 15.7685 17.8767C15.9005 17.8394 16.0653 17.7852 16.1347 17.7563C16.204 17.7275 16.2896 17.7038 16.3248 17.7038C16.36 17.7038 16.3888 17.6866 16.3888 17.6655C16.3888 17.6444 16.4179 17.6271 16.4534 17.6271C16.489 17.6271 16.6015 17.5857 16.7036 17.535C16.8056 17.4843 16.9161 17.4326 16.9491 17.4201C17.0068 17.3984 17.1186 17.3338 17.207 17.2712C17.593 16.9981 17.6034 16.9961 18.1217 17.0927ZM4.37567 18.9746C4.38303 18.9929 4.42377 19.0079 4.46627 19.0079C4.50878 19.0079 4.57481 19.0251 4.61303 19.0462C4.74567 19.1194 5.0788 19.2297 5.42291 19.3144C6.2676 19.5223 6.84983 19.6365 7.37151 19.6967C7.52976 19.715 7.69605 19.7411 7.74103 19.7548C7.83112 19.7822 8.17214 19.8167 9.34501 19.917C10.7446 20.0368 14.0183 20.0008 15.0681 19.8542C15.2112 19.8342 15.5173 19.7968 15.7484 19.7711C16.4619 19.6917 16.551 19.6782 17.2693 19.5415C17.6746 19.4644 18.009 19.3852 18.0791 19.3498C18.1174 19.3305 18.178 19.3147 18.2138 19.3147C18.272 19.3147 18.5517 19.2366 18.7701 19.1594C18.8141 19.1438 18.9387 19.1007 19.0471 19.0638C19.1554 19.0268 19.2904 18.9734 19.3472 18.9451L19.4504 18.8938L19.4616 19.4321L19.4727 19.9705L19.3615 20.074C19.2003 20.2243 18.5347 20.5231 18.1497 20.6181C18.0727 20.6372 17.9376 20.6721 17.8496 20.6957C17.5507 20.776 17.2098 20.8542 17.0291 20.8841C16.9301 20.9005 16.732 20.9351 16.5889 20.961C15.7936 21.1051 15.0894 21.194 14.7426 21.194C14.6002 21.194 14.4633 21.2136 14.4382 21.2377C14.4059 21.2686 13.8242 21.2865 12.4392 21.299C10.1766 21.3194 9.44166 21.287 7.92425 21.1C7.29775 21.0228 6.93812 20.9689 6.86368 20.9409C6.83066 20.9285 6.7136 20.9037 6.60354 20.8857C6.26428 20.8305 5.96788 20.7706 5.86314 20.7362C5.80811 20.7181 5.65503 20.6746 5.52296 20.6396C5.39089 20.6045 5.25158 20.5596 5.21336 20.5397C5.17514 20.5199 5.11782 20.5036 5.08605 20.5036C5.00204 20.5036 4.50726 20.2796 4.33316 20.1628L4.18396 20.0626L4.18308 19.4751L4.18224 18.8876L4.27229 18.9145C4.32184 18.9292 4.36834 18.9563 4.37567 18.9746ZM30.6364 20.7691V21.3031L30.4799 21.4307C30.3048 21.5734 30.1873 21.6332 29.7159 21.8195C29.5086 21.9014 29.1572 21.9994 29.071 21.9994C29.0295 21.9994 28.9955 22.0127 28.9955 22.029C28.9955 22.0561 28.7853 22.1066 28.3152 22.1923C28.2161 22.2104 27.982 22.2538 27.7949 22.2887C26.6005 22.5118 25.4952 22.6038 23.6227 22.6359L22.2719 22.659V22.0032C22.2719 21.4065 22.2783 21.3469 22.342 21.3414C22.3805 21.3382 22.9253 21.3307 23.5526 21.325C24.5861 21.3155 25.1491 21.2874 26.154 21.1955C26.7185 21.1439 27.2863 21.0752 27.4347 21.0406C27.5118 21.0227 27.7009 20.9897 27.8549 20.9672C28.1963 20.9175 28.453 20.869 28.7954 20.7896C28.9385 20.7565 29.1006 20.7202 29.1556 20.7091C29.3571 20.6684 30.2958 20.3728 30.434 20.3065C30.5123 20.269 30.5899 20.2375 30.6064 20.2367C30.6229 20.2359 30.6364 20.4755 30.6364 20.7691ZM20.8832 22.0666C20.914 22.6917 20.893 22.7313 20.4109 22.9539C20.0257 23.1319 19.8827 23.1884 19.8169 23.1884C19.783 23.1884 19.7457 23.2033 19.7339 23.2216C19.7221 23.2398 19.6535 23.2655 19.5815 23.2786C19.5094 23.2918 19.3514 23.3301 19.2303 23.3639C19.0272 23.4207 18.7686 23.4797 18.3098 23.574C18.1519 23.6065 17.6919 23.6853 17.3293 23.742C17.1903 23.7637 16.2322 23.8691 15.9085 23.8982C15.1096 23.9702 13.1485 24.0021 11.9825 23.9623C10.6702 23.9174 10.6207 23.9142 9.74523 23.8189C9.14558 23.7536 9.11585 23.7497 8.60461 23.6677C8.2096 23.6043 8.02594 23.5693 7.60408 23.477C7.45 23.4434 7.26089 23.4021 7.18385 23.3853C7.0068 23.3466 6.74462 23.2659 6.65413 23.222C6.61591 23.2035 6.5646 23.1884 6.54011 23.1884C6.51561 23.1884 6.42981 23.1606 6.34944 23.1266C5.57619 22.7999 5.53501 22.7596 5.55142 22.3471L5.56298 22.057L5.68305 22.0685C5.79967 22.0797 6.21921 22.1619 6.50349 22.2291C6.62311 22.2575 6.91899 22.3049 7.58407 22.4023C7.93185 22.4533 8.75546 22.5399 9.06486 22.5581C9.25196 22.569 9.59414 22.5966 9.82527 22.6193C10.4207 22.6778 13.8613 22.6984 14.7079 22.6485C15.8825 22.5793 16.3471 22.5433 16.869 22.4811C17.6964 22.3824 17.7703 22.3711 18.7544 22.1927C18.8558 22.1742 19.0179 22.1392 19.1146 22.1146C19.2113 22.0901 19.3624 22.0524 19.4504 22.0308C19.8987 21.9208 20.4731 21.7345 20.6711 21.6349C20.8529 21.5434 20.8578 21.5535 20.8832 22.0666ZM4.15863 22.661C4.17396 22.8561 4.20353 23.0322 4.22439 23.0522C4.28766 23.1131 4.26689 23.1884 4.18684 23.1884C4.00827 23.1884 2.93609 22.8165 2.91532 22.7473C2.909 22.7262 2.97984 22.6776 3.07277 22.6392C3.1657 22.6009 3.26935 22.5557 3.30309 22.5387C3.33683 22.5217 3.42628 22.4948 3.50188 22.4789C3.57748 22.4629 3.66693 22.4365 3.70066 22.4202C3.74965 22.3965 3.95396 22.3415 4.10648 22.3111C4.11981 22.3084 4.1433 22.4659 4.15863 22.661ZM3.28176 24.2843C3.45785 24.3419 3.63795 24.4015 3.68197 24.4168C3.86095 24.4788 4.21354 24.5691 4.27633 24.5691C4.31323 24.5691 4.37471 24.5856 4.41293 24.6057C4.45115 24.6258 4.59046 24.6612 4.72253 24.6842C4.8546 24.7073 5.05271 24.7419 5.16277 24.7613C5.27283 24.7806 5.43491 24.8139 5.52296 24.8353C5.61101 24.8566 5.75957 24.8745 5.85314 24.875C5.94671 24.8755 6.02323 24.8932 6.02323 24.9143C6.02323 24.9354 6.1178 24.9528 6.23334 24.9529C6.34888 24.953 6.50717 24.9701 6.58505 24.9908C6.82706 25.0552 8.39894 25.1965 9.66518 25.2677C10.795 25.3311 14.6316 25.3316 15.4883 25.2684C16.0686 25.2256 16.4593 25.1862 17.4639 25.0695C17.648 25.0481 17.8584 25.0147 17.9315 24.9954C18.094 24.9524 18.1097 24.9658 18.1097 25.1478C18.1097 25.269 18.0837 25.3132 17.9457 25.4264C17.7793 25.5629 17.3938 25.7581 17.2906 25.7581C17.2594 25.7581 17.2237 25.774 17.2111 25.7935C17.1986 25.813 17.1305 25.841 17.06 25.8559C16.9894 25.8707 16.9041 25.8965 16.8704 25.9132C16.7166 25.9891 15.5786 26.2567 15.4095 26.2567C15.3532 26.2567 15.2758 26.2726 15.2376 26.2922C15.167 26.3283 14.7144 26.3975 14.2076 26.4497C13.9294 26.4784 13.451 26.5249 12.6068 26.6052C11.9494 26.6677 8.38818 26.6285 7.54405 26.5495C6.25299 26.4287 5.20383 26.26 4.40236 26.0445C4.27029 26.009 4.1082 25.9663 4.04217 25.9496C3.75025 25.8757 3.55371 25.8028 3.21096 25.6409C2.76292 25.4295 2.78149 25.4678 2.78149 24.7549V24.1383L2.87154 24.1589C2.92105 24.1702 3.10567 24.2267 3.28176 24.2843Z" fill="url(#paint0_linear_329_570)"/>
<defs>
<linearGradient id="paint0_linear_329_570" x1="16" y1="0" x2="16" y2="28" gradientUnits="userSpaceOnUse">
<stop stop-color="#FD9149"/>
<stop offset="1" stop-color="#FFD588"/>
</linearGradient>
</defs>
</svg>
