<svg width="17" height="17" viewBox="0 0 17 17" fill="none" xmlns="http://www.w3.org/2000/svg">
<path d="M1.55248 0.129884C1.04786 0.294658 0.285779 1.08763 0.131304 1.60255C-0.043768 2.21015 -0.043768 14.7741 0.131304 15.3817C0.296078 15.9378 1.05816 16.6999 1.61427 16.8647C1.92322 16.9574 3.42678 16.9883 7.17537 16.9883H12.3143L14.652 14.6403L17 12.3025V7.16366C17 3.41506 16.9691 1.9115 16.8764 1.60255C16.7116 1.04644 15.9496 0.284359 15.3935 0.119586C14.8167 -0.0451879 2.08799 -0.0348896 1.55248 0.129884ZM15.1978 1.79822L15.4552 2.04538V6.84441V11.6331H14.0444C12.8292 11.6331 12.582 11.664 12.3245 11.8288C11.7169 12.2304 11.6449 12.4673 11.6449 14.0224V15.4435H6.85613H2.0571L1.80993 15.1861L1.55248 14.9389V8.49214V2.04538L1.80993 1.79822L2.0571 1.54076H8.50386H14.9506L15.1978 1.79822Z" fill="black"/>
<path d="M4.09617 5.64009C3.8593 5.89754 3.8696 6.51545 4.10646 6.72141C4.27124 6.87589 4.56989 6.89648 6.20733 6.89648C8.34938 6.89648 8.45237 6.86559 8.45237 6.155C8.45237 5.49591 8.31849 5.45472 6.16613 5.45472C4.45661 5.45472 4.24034 5.47531 4.09617 5.64009Z" fill="black"/>
<path d="M10.2752 5.64009C10.1722 5.74307 10.1001 6.00053 10.1001 6.20649C10.1001 6.7832 10.3473 6.89648 11.6551 6.89648C12.9012 6.89648 13.0866 6.8038 13.0866 6.155C13.0866 5.5474 12.8807 5.45472 11.5728 5.45472C10.6047 5.45472 10.4193 5.48561 10.2752 5.64009Z" fill="black"/>
<path d="M4.09617 8.72993C3.8593 8.98739 3.8696 9.60529 4.10646 9.81126C4.28154 9.96573 4.68317 9.98633 7.75208 9.98633C10.9652 9.98633 11.2123 9.97603 11.3668 9.80096C11.6037 9.5435 11.5934 8.9256 11.3565 8.71963C11.1814 8.56516 10.7798 8.54456 7.71089 8.54456C4.4978 8.54456 4.25064 8.55486 4.09617 8.72993Z" fill="black"/>
</svg>
