<svg width="18" height="15" viewBox="0 0 18 15" fill="none" xmlns="http://www.w3.org/2000/svg">
<path d="M7.97402 0.379828C6.48179 0.911434 5.54915 2.01195 5.30666 3.48553C5.12946 4.58605 5.53983 5.82646 6.35122 6.66584L6.78024 7.10418L6.10874 7.43993C4.45796 8.27931 3.24553 9.79019 2.79786 11.5622C2.65796 12.0938 2.61133 12.5974 2.61133 13.4741C2.61133 14.6026 2.62065 14.6772 2.81651 14.8078C3.00304 14.9384 3.74915 14.957 9.09319 14.957C14.5678 14.957 15.1833 14.9384 15.3792 14.8078C15.5937 14.6493 15.5937 14.6306 15.5564 13.2876C15.5191 12.1125 15.4725 11.8234 15.2486 11.1425C14.6797 9.46377 13.2714 7.92491 11.7139 7.27206L11.3502 7.12283L11.8352 6.60988C12.1056 6.33009 12.4321 5.85444 12.5719 5.56532C12.7958 5.08035 12.8238 4.91247 12.8238 4.04511C12.8238 3.14045 12.8051 3.01921 12.5253 2.44097C12.1429 1.62024 11.4714 0.94874 10.66 0.566357C9.85796 0.1933 8.72014 0.118689 7.97402 0.379828ZM10.1657 1.44304C10.7067 1.68553 11.2383 2.19848 11.546 2.78605C11.7326 3.1591 11.7885 3.39226 11.7885 3.90522C11.7979 6.46066 8.61755 7.60781 6.91081 5.66791C5.90356 4.53009 6.09008 2.75807 7.30252 1.78812C7.55433 1.59226 7.78749 1.43371 7.81547 1.43371C7.85278 1.42439 8.09527 1.36843 8.34708 1.29382C8.90666 1.12594 9.57817 1.19123 10.1657 1.44304ZM10.3896 7.92491C12.7865 8.54045 14.4466 10.7415 14.4559 13.2969V13.9311H9.04656H3.63723V13.157C3.63723 11.6275 4.13154 10.4524 5.22273 9.36118C5.96884 8.61506 6.70563 8.17672 7.65692 7.92491C8.33775 7.73838 9.68076 7.73838 10.3896 7.92491Z" fill="black"/>
<path d="M13.0571 1.48875C13.0571 1.62865 13.7473 2.73849 13.8405 2.73849C14.0457 2.73849 14.6519 3.31673 14.8478 3.69911C15.1089 4.22139 15.1089 4.98616 14.8478 5.49911C14.6426 5.90948 14.1203 6.4131 13.8126 6.51569C13.5887 6.58098 13.4582 6.99134 13.5887 7.20585C13.682 7.3644 13.738 7.39238 14.7639 7.86803C16.1255 8.50222 17.0675 9.9758 17.0675 11.4774V11.9717H16.7317C16.4613 11.9717 16.4053 11.9996 16.4519 12.1209C16.4799 12.2048 16.5079 12.41 16.5079 12.5872V12.9043H17.0955C17.9442 12.9043 18.0001 12.8204 18.0001 11.5893C18.0001 10.4608 17.8416 9.76129 17.4126 8.95922C17.0582 8.27839 16.1535 7.34575 15.5659 7.03797L15.1369 6.81414L15.4447 6.40378C16.5639 4.93953 15.995 2.61725 14.3255 1.81518C13.9804 1.63797 13.0571 1.40481 13.0571 1.48875Z" fill="black"/>
<path d="M4.0943 1.75038C3.58135 1.92758 3.13368 2.23535 2.7513 2.65504C1.79067 3.71825 1.70674 5.38768 2.55544 6.49753L2.86321 6.90789L2.4342 7.13173C1.82798 7.44882 0.932643 8.37214 0.587565 9.04364C0.149223 9.86437 0 10.5545 0 11.7017C0 12.9328 0.0466321 12.998 0.876684 12.998C1.46425 12.998 1.47358 12.998 1.52953 12.7089C1.65078 12.0934 1.61347 11.9721 1.29637 11.9721H0.997927L1.04456 11.198C1.09119 10.1908 1.45492 9.37939 2.17306 8.67059C2.66736 8.17629 3.65596 7.58872 3.99171 7.58872C4.24352 7.58872 4.49534 7.27162 4.45803 7.01048C4.43938 6.87991 4.26218 6.69338 3.97306 6.49753C3.27358 6.04053 3.04041 5.64882 3.00311 4.84675C2.9658 3.99805 3.20829 3.48509 3.87047 3.03743C4.18756 2.82292 4.42073 2.56178 4.63523 2.17007L4.94301 1.61981H4.68187C4.54197 1.62914 4.28083 1.68509 4.0943 1.75038Z" fill="black"/>
</svg>
