<svg width="18" height="19" viewBox="0 0 18 19" fill="none" xmlns="http://www.w3.org/2000/svg">
<path d="M0.147629 0.167677C-0.0124786 0.327785 -0.0124786 0.383823 0.0115376 3.38585C0.0355538 6.33184 0.0435593 6.45992 0.219678 6.88421C0.315743 7.13238 0.499867 7.50063 0.635959 7.70877L0.876121 8.09303V12.9283V17.7636L1.05224 17.8836C1.21235 17.9957 2.10095 18.0117 9.00161 18.0117C15.9023 18.0117 16.7909 17.9957 16.951 17.8836L17.1271 17.7636V12.9283V8.09303L17.3672 7.70877C17.5033 7.50063 17.6875 7.13238 17.7835 6.88421C17.9596 6.45992 17.9677 6.32383 17.9917 3.52995C18.0077 1.92887 17.9997 0.535927 17.9757 0.431856C17.8556 -0.0324574 18.456 -0.000436783 8.9936 -0.000436783C0.331754 -0.000436783 0.315743 -0.000436783 0.147629 0.167677ZM17.007 3.56197C17.007 6.4199 16.983 6.572 16.4466 7.33251L16.1664 7.72478V12.3839V17.0511H9.00161H1.83677V12.3839V7.72478L1.54857 7.30049C1.01221 6.49995 1.00421 6.46793 0.972186 3.69806C0.956175 2.31313 0.96418 1.13633 0.988197 1.07229C1.02822 0.976223 2.173 0.960213 9.01762 0.976223L17.007 1.00024V3.56197Z" fill="black"/>
<path d="M5.95154 7.68424C5.7354 7.86837 5.35914 8.10853 5.11898 8.22861C4.71871 8.42875 4.59863 8.44476 3.72604 8.44476C2.89348 8.45276 2.76539 8.46877 2.66933 8.60487C2.57326 8.72495 2.55725 9.3974 2.55725 12.3754V16.0019L2.76539 16.162C2.97353 16.3301 3.02957 16.3301 9.0016 16.3301C14.9736 16.3301 15.0297 16.3301 15.2378 16.162L15.4459 16.0019V12.3754C15.4459 9.3974 15.4299 8.72495 15.3339 8.60487C15.2378 8.46877 15.1097 8.45276 14.2772 8.44476C13.4046 8.44476 13.2845 8.42875 12.8842 8.22861C12.6441 8.10853 12.2678 7.86837 12.0517 7.68424C11.8435 7.50813 11.5954 7.36403 11.5153 7.36403C11.4352 7.36403 11.1951 7.52414 10.9789 7.70826C10.3065 8.30066 9.93023 8.44476 9.0016 8.44476C8.28111 8.44476 8.16103 8.42074 7.76076 8.22061C7.5206 8.09252 7.17637 7.85236 6.98424 7.67624C6.80011 7.50813 6.57596 7.36403 6.4879 7.36403C6.40785 7.36403 6.15968 7.50813 5.95154 7.68424ZM6.75208 8.76497C7.99292 9.70961 10.0183 9.70961 11.2671 8.75697L11.5313 8.54883L11.8275 8.75697C12.3399 9.10921 12.9963 9.35737 13.6207 9.44543C13.9569 9.49346 14.2772 9.51748 14.3332 9.50948C14.4293 9.48546 14.4453 9.9898 14.4693 12.3834L14.4853 15.2894H9.0016H3.5179L3.53391 12.3834C3.55793 9.62155 3.56593 9.48546 3.70202 9.50948C4.23839 9.59754 5.67135 9.14923 6.21572 8.72495C6.47189 8.52481 6.43987 8.52481 6.75208 8.76497Z" fill="black"/>
</svg>
