<svg width="14" height="14" viewBox="0 0 14 14" fill="none" xmlns="http://www.w3.org/2000/svg">
<path fill-rule="evenodd" clip-rule="evenodd" d="M5.11862 0.126734C4.38399 0.430766 3.88891 1.04247 3.79054 1.76752L3.74198 2.12486L2.34331 2.14426C0.7112 2.16699 0.707368 2.1685 0.619979 2.8266L0.570463 3.19977H0.285232H0V3.72564V4.25151L0.230263 4.29076C0.356926 4.31236 0.638768 4.33 0.856579 4.33H1.25263V8.54086V12.7517L1.43979 13.0889C1.64235 13.4537 2.02005 13.7762 2.40542 13.9134C2.60186 13.9834 3.47421 13.9998 7.00059 13.9998C11.91 13.9998 11.6244 14.0271 12.1796 13.5034C12.6974 13.015 12.6737 13.2523 12.6737 8.56071V4.33H13.1066C13.3447 4.33 13.6431 4.31236 13.7697 4.29076L14 4.25151V3.72564V3.19977H13.6684H13.3368V2.85794C13.3368 2.58718 13.2999 2.47944 13.1592 2.33991L12.9815 2.16372L11.575 2.1442L10.1684 2.12473V1.84833C10.1684 1.19191 9.62183 0.465992 8.89523 0.157439C8.52644 0.000838929 8.48555 -0.00248898 6.96714 0.000587755C5.58143 0.00335054 5.38403 0.0168505 5.11862 0.126734ZM8.29021 1.15531C8.60462 1.26726 8.84144 1.58561 8.84181 1.89686L8.8421 2.13233H6.96316H5.08421L5.08583 1.95965C5.08863 1.66083 5.33732 1.28629 5.60855 1.17239C5.9458 1.03086 7.9055 1.0183 8.29021 1.15531ZM11.4211 8.47066V12.6113L11.2433 12.7875L11.0655 12.9637L7.19158 12.982C3.10933 13.0013 2.80877 12.9845 2.63546 12.7261C2.5634 12.6187 2.5368 11.646 2.51897 8.45848L2.49576 4.33H6.95844H11.4211V8.47066ZM3.83158 8.63116V11.8649H4.45789H5.08421V8.63116V5.39744H4.45789H3.83158V8.63116ZM6.33684 8.63116V11.8649H6.96316H7.58947V8.63116V5.39744H6.96316H6.33684V8.63116ZM8.91579 8.63116V11.8649H9.5421H10.1684V8.63116V5.39744H9.5421H8.91579V8.63116Z" fill="url(#paint0_linear_1627_9516)"/>
<defs>
<linearGradient id="paint0_linear_1627_9516" x1="7" y1="0" x2="7" y2="14" gradientUnits="userSpaceOnUse">
<stop stop-color="#FD9149"/>
<stop offset="1" stop-color="#FFD588"/>
</linearGradient>
</defs>
</svg>
