<svg width="15" height="22" viewBox="0 0 15 22" fill="none" xmlns="http://www.w3.org/2000/svg">
<path d="M0.142336 1.01775C0.0328467 1.06155 0 3.24038 0 11.3973C0 20.7148 0.0218978 21.7221 0.175182 21.7878C0.394161 21.8754 14.6058 21.8754 14.8248 21.7878C14.9781 21.7221 15 20.8243 15 12.7221V3.73308L13.5985 2.33162L12.208 0.941107L6.24088 0.952057C2.9562 0.952057 0.208029 0.984903 0.142336 1.01775ZM11.8248 2.84622C11.8248 3.88636 11.8577 4.10534 12 4.16009C12.0985 4.19293 12.6569 4.22578 13.2591 4.22578H14.3431V12.7112V21.1966H7.5H0.656934V11.3973V1.59804H6.24088H11.8248V2.84622ZM13.7956 3.48125C13.7956 3.52505 13.5 3.56884 13.1387 3.56884H12.4818V2.83527V2.10169L13.1387 2.74768C13.5 3.10899 13.7956 3.43746 13.7956 3.48125Z" fill="black"/>
<path d="M2.0256 3.15241C1.99275 3.22905 1.9818 5.04657 1.99275 7.1816L2.0256 11.0685L4.47815 11.1013L6.93071 11.1232L7.33582 11.4955C8.31027 12.3714 9.95261 12.1524 10.6314 11.0466C11.157 10.1926 11.0694 9.02102 10.4125 8.35314L10.073 7.99182L10.0511 5.53927L10.0183 3.07576L6.04385 3.04292C2.92341 3.02102 2.05845 3.04292 2.0256 3.15241ZM4.70808 4.82759C4.70808 5.83489 4.72998 5.97722 4.91611 6.07576C5.08034 6.16336 5.20078 6.11956 5.52925 5.86774C5.75918 5.6816 5.97815 5.53927 6.02195 5.53927C6.06575 5.53927 6.28472 5.6816 6.51465 5.86774C6.84312 6.11956 6.96356 6.16336 7.12779 6.07576C7.31392 5.97722 7.33582 5.83489 7.33582 4.82759V3.67795H8.37596H9.41611V5.64876V7.61956H8.86867C7.50005 7.61956 6.58034 8.53927 6.5694 9.88598V10.4663H4.59859H2.62779V7.07211V3.67795H3.66794H4.70808V4.82759ZM6.67888 4.40058V5.11226L6.35042 4.91518C6.0329 4.72905 5.9891 4.72905 5.69348 4.90423L5.36502 5.09036V4.38963V3.67795H6.02195H6.67888V4.40058ZM9.61319 8.49547C9.83217 8.63781 10.0621 8.91153 10.1935 9.20715C10.4891 9.87503 10.3906 10.3896 9.86502 10.9152C9.33947 11.4407 8.82487 11.5393 8.15699 11.2436C6.61319 10.5648 7.07305 8.27649 8.75918 8.27649C9.06575 8.27649 9.39421 8.36409 9.61319 8.49547Z" fill="black"/>
<path d="M8.92337 9.5364C8.55111 9.99625 8.49637 10.0291 8.33213 9.87581C8.22264 9.77727 8.09126 9.70063 8.02556 9.70063C7.85038 9.70063 7.6533 9.9853 7.71899 10.1495C7.80659 10.3795 8.50731 10.8284 8.64965 10.7408C8.97812 10.5327 9.79929 9.5364 9.79929 9.32837C9.79929 8.89041 9.38323 8.98895 8.92337 9.5364Z" fill="black"/>
<path d="M2.12403 13.477C2.08024 13.5646 2.08024 13.7179 2.12403 13.8055C2.17878 13.9478 2.84666 13.9697 7.52184 13.9478L12.8649 13.9149V13.6412V13.3675L7.52184 13.3346C2.84666 13.3127 2.17878 13.3346 2.12403 13.477Z" fill="black"/>
<path d="M2.12403 15.2289C2.08024 15.3165 2.08024 15.4698 2.12403 15.5574C2.17878 15.6997 2.56199 15.7216 4.94885 15.6997L7.71892 15.6669V15.3932V15.1194L4.94885 15.0866C2.56199 15.0647 2.17878 15.0866 2.12403 15.2289Z" fill="black"/>
<path d="M2.15691 17.0026C2.01457 17.1339 2.08027 17.4515 2.25545 17.5171C2.52917 17.6157 12.6241 17.5938 12.7883 17.4843C12.8759 17.4296 12.9197 17.2982 12.8978 17.1887C12.8649 16.9916 12.646 16.9807 7.54377 16.9478C4.62041 16.9369 2.18975 16.9588 2.15691 17.0026Z" fill="black"/>
<path d="M2.12403 18.8422C2.08024 18.9298 2.08024 19.0831 2.12403 19.1707C2.17878 19.313 2.56199 19.3349 4.94885 19.313L7.71892 19.2802V19.0065V18.7327L4.94885 18.6999C2.56199 18.678 2.17878 18.6999 2.12403 18.8422Z" fill="black"/>
</svg>
