<svg width="20" height="15" viewBox="0 0 20 15" fill="none" xmlns="http://www.w3.org/2000/svg">
<path fill-rule="evenodd" clip-rule="evenodd" d="M1.83458 2.46818C0.86566 3.76181 0.0402761 4.86244 0.000404666 4.91423C-0.0732455 5.00965 9.93091 14.3501 10.036 14.2841C10.0654 14.2657 12.3355 12.171 15.0806 9.62936C18.167 6.77188 20.0441 4.97238 19.9992 4.91423C19.9593 4.86244 19.134 3.76181 18.165 2.46818L16.4035 0.116211H9.99981H3.59609L1.83458 2.46818ZM7.40144 2.53538C6.5154 3.42241 5.76913 4.14816 5.74288 4.14816C5.69736 4.14816 4.66868 1.12097 4.66868 0.987111C4.66868 0.95163 5.64602 0.9226 6.84055 0.9226H9.01234L7.40144 2.53538ZM15.5997 0.986125C15.5997 1.08164 14.4202 4.09323 14.3532 4.16876C14.3212 4.20478 13.5509 3.48907 12.6412 2.57839L10.9872 0.9226H13.2935C14.5619 0.9226 15.5997 0.951182 15.5997 0.986125ZM4.41252 2.79987C4.72235 3.73385 4.95298 4.52089 4.92493 4.54893C4.89689 4.57698 4.05941 4.58898 3.06379 4.57563L1.25362 4.55135L2.53551 2.83025C3.24065 1.88364 3.82457 1.10744 3.83326 1.10547C3.84195 1.10341 4.1026 1.86599 4.41252 2.79987ZM13.3598 4.52805C13.3598 4.56551 11.8478 4.59615 9.99981 4.59615C8.15183 4.59615 6.63985 4.56631 6.63985 4.52985C6.63985 4.49329 7.39544 3.70706 8.31893 2.78258L9.99811 1.1018L11.6789 2.78088C12.6034 3.70437 13.3598 4.4906 13.3598 4.52805ZM17.5773 2.9917L18.7466 4.55135L17.0191 4.57572C16.0689 4.58916 15.2425 4.58137 15.1827 4.55843C15.1076 4.52958 15.2484 4.07764 15.6369 3.10048C15.9467 2.32151 16.2272 1.60785 16.2603 1.51458C16.2936 1.42131 16.3404 1.3645 16.3643 1.38851C16.3882 1.41244 16.934 2.13389 17.5773 2.9917ZM6.96178 8.65049C8.56784 11.8674 8.61407 11.9748 8.23874 11.6202C8.0246 11.4179 6.68017 10.1713 5.25107 8.84985C3.82197 7.52836 2.40076 6.2135 2.09272 5.92795C1.78476 5.64231 1.53272 5.38713 1.53272 5.36079C1.53272 5.33444 2.37934 5.31294 3.41403 5.31294H5.29542L6.96178 8.65049ZM13.8078 5.3727C13.8078 5.45442 10.1343 12.6856 10.0442 12.7814C9.99309 12.8357 6.55671 6.21072 6.20682 5.38354C6.19034 5.34475 7.89388 5.31294 9.99237 5.31294C12.0909 5.31294 13.8078 5.33982 13.8078 5.3727ZM18.4519 5.38552C18.4061 5.49689 11.5294 11.8451 11.4935 11.8092C11.4597 11.7755 14.5821 5.61319 14.7283 5.42494C14.7928 5.34179 15.2881 5.31294 16.6486 5.31294C17.6568 5.31294 18.4684 5.34555 18.4519 5.38552Z" fill="url(#paint0_linear_325_2336)"/>
<defs>
<linearGradient id="paint0_linear_325_2336" x1="10" y1="0.116211" x2="10" y2="14.2845" gradientUnits="userSpaceOnUse">
<stop stop-color="#FD9149"/>
<stop offset="1" stop-color="#FFD588"/>
</linearGradient>
</defs>
</svg>
