<svg width="15" height="17" viewBox="0 0 15 17" fill="none" xmlns="http://www.w3.org/2000/svg">
<path fill-rule="evenodd" clip-rule="evenodd" d="M6.19326 0.622034C6.0443 0.748631 6.04259 0.785105 6.02554 4.22187L6.00828 7.69379L4.97829 7.71156C4.41179 7.72128 3.88038 7.74554 3.79749 7.76543C3.71452 7.78531 3.60712 7.8997 3.55881 8.01964C3.48359 8.20662 3.48991 8.26889 3.60314 8.45652C3.8406 8.84991 7.14036 12.6831 7.31631 12.77C7.44502 12.8336 7.5336 12.8339 7.67148 12.7715C7.85261 12.6894 11.1405 8.88127 11.3969 8.45652C11.5101 8.26889 11.5164 8.20662 11.4412 8.01964C11.3929 7.8997 11.2855 7.78531 11.2025 7.76543C11.1196 7.74554 10.5882 7.72128 10.0217 7.71156L8.99172 7.69379L8.97446 4.22187C8.95741 0.785105 8.9557 0.748631 8.80675 0.622034C8.58171 0.430676 6.41829 0.430676 6.19326 0.622034ZM0.020742 14.0477C0.0404185 16.1642 0.0485164 16.2818 0.188525 16.4781C0.269433 16.5914 0.445242 16.7418 0.579213 16.812C0.806025 16.931 1.28323 16.9399 7.5 16.9399C13.7168 16.9399 14.194 16.931 14.4208 16.812C14.5548 16.7418 14.7306 16.5914 14.8115 16.4781C14.9515 16.2818 14.9596 16.1642 14.9793 14.0477L15 11.8236H14.0025H13.0051V13.3585V14.8935H7.5H1.99485V13.3585V11.8236H0.997462H0L0.020742 14.0477Z" fill="white"/>
</svg>
