<svg width="15" height="17" viewBox="0 0 15 17" fill="none" xmlns="http://www.w3.org/2000/svg">
<path fill-rule="evenodd" clip-rule="evenodd" d="M6.19326 0.433557C6.0443 0.560155 6.04259 0.596628 6.02554 4.03339L6.00828 7.50532L4.97829 7.52308C4.41179 7.5328 3.88038 7.55707 3.79749 7.57695C3.71452 7.59683 3.60712 7.71122 3.55881 7.83117C3.48359 8.01814 3.48991 8.08041 3.60314 8.26804C3.8406 8.66143 7.14036 12.4947 7.31631 12.5815C7.44502 12.6451 7.5336 12.6454 7.67148 12.583C7.85261 12.5009 11.1405 8.69279 11.3969 8.26804C11.5101 8.08041 11.5164 8.01814 11.4412 7.83117C11.3929 7.71122 11.2855 7.59683 11.2025 7.57695C11.1196 7.55707 10.5882 7.5328 10.0217 7.52308L8.99172 7.50532L8.97446 4.03339C8.95741 0.596628 8.9557 0.560155 8.80675 0.433557C8.58171 0.2422 6.41829 0.2422 6.19326 0.433557ZM0.020742 13.8592C0.0404185 15.9757 0.0485164 16.0933 0.188525 16.2896C0.269433 16.4029 0.445242 16.5533 0.579213 16.6235C0.806025 16.7425 1.28323 16.7514 7.5 16.7514C13.7168 16.7514 14.194 16.7425 14.4208 16.6235C14.5548 16.5533 14.7306 16.4029 14.8115 16.2896C14.9515 16.0933 14.9596 15.9757 14.9793 13.8592L15 11.6351H14.0025H13.0051V13.17V14.705H7.5H1.99485V13.17V11.6351H0.997462H0L0.020742 13.8592Z" fill="#323232"/>
</svg>
