<svg width="32" height="33" viewBox="0 0 32 33" fill="none" xmlns="http://www.w3.org/2000/svg">
<path fill-rule="evenodd" clip-rule="evenodd" d="M6.2069 0.138399C5.66372 0.350144 5.11048 0.937618 4.69103 1.74766C4.47848 2.15803 4.04814 2.79732 3.73462 3.16831C3.13641 3.87593 3.06855 4.25464 3.49476 4.50549C3.71117 4.63294 3.8531 4.54202 4.46993 3.88148C4.8669 3.45623 5.35669 2.77784 5.55834 2.37383C5.76014 1.96982 6.12538 1.47408 6.37007 1.27208C6.75407 0.955072 6.90634 0.913264 7.48097 0.96752C8.25145 1.04004 8.73945 1.41212 8.97241 2.10431C9.19655 2.77053 9.01034 3.33 8.35476 3.96023C7.32152 4.95333 6.95572 5.66636 6.85352 6.88704C6.81297 7.37182 6.69972 7.59656 6.29779 7.98974C5.90014 8.37886 5.7931 8.58885 5.7931 8.9796C5.7931 9.5526 5.98345 9.9746 6.38221 10.2859C6.66248 10.5046 6.66179 10.5084 6.17641 11.6389C5.90869 12.2624 4.40952 15.736 2.84483 19.3578C1.28014 22.9795 0 25.9906 0 26.0489C0 26.1074 1.56565 27.6953 3.47917 29.5776C5.74828 31.8096 7.05586 33 7.23876 33C7.66662 33 14.5448 26.2056 14.4503 25.8764C14.4109 25.7387 12.9465 22.2333 11.1963 18.0867L8.01393 10.5473L8.42069 10.1482C8.75531 9.82008 8.82759 9.63662 8.82759 9.11639C8.82759 8.57356 8.7589 8.41621 8.34483 8.01004C7.94648 7.61929 7.86262 7.43839 7.8651 6.97499C7.86938 6.19025 8.28414 5.37831 8.94855 4.85456C10.3526 3.74781 10.4441 1.8375 9.15062 0.638063C8.93503 0.43809 8.58386 0.209838 8.37034 0.130687C7.89103 -0.046962 6.67103 -0.0426325 6.2069 0.138399ZM23.7241 0.131228C23.1777 0.355692 22.6266 0.94073 22.2036 1.74563C21.9886 2.15491 21.557 2.78907 21.2446 3.15505C20.6454 3.85659 20.5774 4.24896 21.0102 4.50549C21.2236 4.63199 21.3597 4.55095 21.9077 3.97064C22.263 3.59437 22.7506 2.92396 22.9914 2.48072C23.552 1.44919 23.9767 1.06453 24.6537 0.975502C25.6606 0.843043 26.4828 1.50994 26.4828 2.45893C26.4828 3.11676 26.2386 3.56907 25.517 4.24869C24.7412 4.97917 24.391 5.69532 24.3069 6.72346C24.2481 7.44029 24.1815 7.61794 23.9043 7.79613C23.0114 8.36993 22.945 9.48643 23.7516 10.3565L24.0204 10.6466L20.8217 18.1363C19.0623 22.2558 17.5902 25.7387 17.5503 25.8764C17.455 26.2055 24.3328 33 24.7612 33C24.9441 33 26.2517 31.8096 28.5208 29.5776C30.4343 27.6953 32 26.1079 32 26.0503C32 25.9925 30.535 22.4698 28.7447 18.222C25.9463 11.5828 25.5203 10.4816 25.7102 10.3774C26.0441 10.1939 26.3448 9.53081 26.3448 8.97743C26.3448 8.59345 26.2374 8.37819 25.8621 8.01004C25.4763 7.6316 25.3793 7.43109 25.3793 7.01152C25.3793 6.20932 25.7345 5.50901 26.5012 4.79909C26.8844 4.44433 27.2854 3.949 27.3921 3.69829C27.8502 2.62292 27.4476 1.25814 26.4406 0.47205C25.9913 0.121622 25.7821 0.0570839 24.9923 0.0261001C24.4844 0.00607566 23.9138 0.0534308 23.7241 0.131228ZM7.70276 9.04427C7.76414 9.47101 7.37834 9.77354 7.01545 9.58304C6.7629 9.45044 6.66414 8.91898 6.85697 8.72997C6.9109 8.67693 7.11269 8.65149 7.30524 8.67355C7.55669 8.70237 7.66855 8.80655 7.70276 9.04427ZM25.22 9.04427C25.2814 9.47101 24.8956 9.77354 24.5327 9.58304C24.2801 9.45044 24.1814 8.91898 24.3742 8.72997C24.4281 8.67693 24.6299 8.65149 24.8225 8.67355C25.0739 8.70237 25.1858 8.80655 25.22 9.04427ZM9.03462 18.3939L10.6306 24.8004L9.00717 26.3972C8.11421 27.2753 7.32055 27.9936 7.24359 27.9933C7.16648 27.9931 6.37697 27.2737 5.4891 26.3946L3.87462 24.7966L4.06841 23.9936C4.38028 22.7022 6.8931 12.6887 7.05283 12.1019C7.16441 11.6918 7.22648 11.6158 7.31848 11.7769C7.38455 11.8926 8.15669 14.8703 9.03462 18.3939ZM26.5495 18.4532L28.1331 24.8104L26.5149 26.4017C25.6248 27.2769 24.8335 27.9932 24.7564 27.9935C24.6794 27.9938 23.8858 27.2753 22.9928 26.3972L21.3692 24.8004L22.8968 18.6513C23.7371 15.2692 24.4938 12.2899 24.5785 12.0303C24.715 11.6124 24.7458 11.5893 24.8492 11.8274C24.9134 11.9753 25.6785 14.9568 26.5495 18.4532ZM11.0972 20.5499C12.1908 23.1159 13.0619 25.2384 13.0332 25.2665C12.9152 25.3823 11.1647 24.6646 11.1072 24.4768C11.06 24.3227 9.30331 17.2933 8.89241 15.6139L8.82607 15.3433L8.96759 15.6139C9.04538 15.7627 10.0037 17.984 11.0972 20.5499ZM22.0041 20.0515C21.375 22.5666 20.8374 24.6418 20.8094 24.6629C20.661 24.7752 19.0168 25.3158 18.9684 25.2681C18.937 25.2373 19.6403 23.5092 20.5312 21.4278C21.4221 19.3464 22.3608 17.1417 22.6172 16.5287C22.8737 15.9156 23.0981 15.4286 23.1157 15.4463C23.1335 15.464 22.6332 17.5364 22.0041 20.0515ZM28.5359 20.4171C29.6626 23.0588 30.5418 25.2369 30.4897 25.2572C30.4377 25.2775 29.9959 25.147 29.5079 24.9672C28.9124 24.7479 28.6052 24.5578 28.5735 24.3892C28.5476 24.2509 28.0354 22.2011 27.4356 19.8339C26.8357 17.4668 26.3498 15.4881 26.3557 15.4367C26.3691 15.3217 26.1212 14.7553 28.5359 20.4171ZM4.48593 20.142L3.33697 24.6673L2.4771 24.9826C2.00428 25.1561 1.57241 25.2806 1.51738 25.2592C1.46234 25.2377 2.27559 23.211 3.32428 20.7553C4.3731 18.2996 5.29586 16.1132 5.3749 15.8964C5.45393 15.6797 5.54469 15.5281 5.57669 15.5595C5.60869 15.5909 5.11793 17.653 4.48593 20.142ZM7.03448 30.0878V31.5769L4.20966 28.8084C2.65614 27.2859 1.4331 25.9928 1.49214 25.9349C1.55103 25.8771 2.03076 25.6839 2.55821 25.5056L3.51724 25.1813L5.27586 26.8901L7.03448 28.5988V30.0878ZM13.0971 25.925C13.1684 25.9813 7.70235 31.3764 7.57407 31.3764C7.528 31.3764 7.49641 30.7352 7.50386 29.9515L7.51724 28.5267L9.24428 26.8472L10.9713 25.1679L12.0029 25.5218C12.5702 25.7164 13.0626 25.898 13.0971 25.925ZM22.8095 26.8988L24.5709 28.645L24.5364 30.0107C24.5175 30.7619 24.4661 31.3764 24.4221 31.3764C24.2954 31.3764 18.8334 25.9801 18.9029 25.9237C18.9606 25.8768 20.8 25.206 20.9723 25.169C21.0141 25.1599 21.8407 25.9384 22.8095 26.8988ZM29.757 25.6079C30.2301 25.7667 30.6181 25.9277 30.619 25.9656C30.6199 26.0035 29.3483 27.2815 27.7931 28.8057L24.9655 31.5769V30.0917V28.6065L26.7239 26.8779C27.9297 25.6924 28.5472 25.176 28.6894 25.2342C28.8033 25.2807 29.2837 25.4489 29.757 25.6079Z" fill="url(#paint0_linear_329_901)"/>
<defs>
<linearGradient id="paint0_linear_329_901" x1="16" y1="0" x2="16" y2="33" gradientUnits="userSpaceOnUse">
<stop stop-color="#FD9149"/>
<stop offset="1" stop-color="#FFD588"/>
</linearGradient>
</defs>
</svg>
