<svg width="15" height="16" viewBox="0 0 15 16" fill="none" xmlns="http://www.w3.org/2000/svg">
<path fill-rule="evenodd" clip-rule="evenodd" d="M6.15365 0.401553C5.44326 0.56475 3.81473 0.937237 2.53469 1.2293C1.25465 1.52134 0.160819 1.77206 0.103963 1.78645L0.000584933 1.81261L0.000292467 7.80346L0 13.7943L0.0549304 13.8187C0.0851493 13.8322 1.0475 14.057 2.19351 14.3183C3.33951 14.5797 4.99704 14.9578 5.8769 15.1586L7.47668 15.5236H8.11286H8.74907V14.5583V13.5929L11.8745 13.5865L15 13.5802V7.81258V2.04499L11.8745 2.03862L8.74907 2.03225V1.06691V0.101562L8.09717 0.103193L7.44526 0.104822L6.15365 0.401553ZM7.50019 11.0037L7.494 14.2115L4.38682 13.5014C2.67786 13.1108 1.27687 12.791 1.27353 12.7908C1.27019 12.7905 1.26744 10.5503 1.26744 7.81258C1.26744 5.07486 1.27019 2.83462 1.27353 2.83427C1.27687 2.83392 2.67786 2.51412 4.38682 2.12363L7.494 1.41364L7.50019 4.60482C7.50358 6.35998 7.50358 9.23949 7.50019 11.0037ZM13.7449 7.81271V12.314L11.2531 12.3077L8.76125 12.3013V11.6618V11.0224L9.06588 11.0284C9.23342 11.0318 9.51609 11.0278 9.69402 11.0196L10.0175 11.0046L10.0108 10.374L10.0041 9.74347L9.3766 9.73678L8.74907 9.73008V9.41748V9.10488L9.3766 9.09818L10.0041 9.09149L10.0102 8.50219C10.0136 8.17807 10.0106 7.88751 10.0037 7.85647L9.99102 7.80005H9.37004H8.74907V7.48659V7.17313H9.38098H10.0129L10.0085 6.53995L10.0041 5.90677L9.3766 5.90008L8.74907 5.89338V5.56824V5.2431L9.3766 5.2364L10.0041 5.22971L10.0098 4.59652L10.0154 3.96334H9.38223H8.74907V3.65407C8.74907 3.48396 8.75638 3.33726 8.76532 3.32808C8.77424 3.31888 9.89831 3.31135 11.2633 3.31135H13.7449V7.81271ZM10.6256 4.60279V5.24224H11.8806H13.1357V4.60279V3.96334H11.8806H10.6256V4.60279ZM5.56106 4.70257C5.22176 4.74743 4.93478 4.7941 4.92332 4.80631C4.86225 4.87141 4.19356 6.40547 4.09684 6.70232C4.03518 6.89165 3.97864 7.0468 3.97126 7.04712C3.95544 7.04785 3.89839 6.8512 3.61489 5.819C3.49938 5.39834 3.40309 5.05164 3.40095 5.04855C3.39663 5.04236 2.25353 5.18314 2.12649 5.20551C2.08294 5.21318 2.04728 5.23144 2.04728 5.24613C2.04728 5.2608 2.28972 5.84426 2.58603 6.54269L3.12481 7.81258L2.50764 9.08396C2.16821 9.7832 1.89561 10.3601 1.90187 10.366C1.92046 10.3834 3.21576 10.5431 3.22889 10.5296C3.24863 10.5092 3.79372 8.93225 3.8536 8.72226C3.88396 8.61573 3.91416 8.53409 3.92069 8.54081C3.92724 8.54755 3.95144 8.62943 3.9745 8.72279C3.99753 8.81615 4.20964 9.32698 4.44589 9.85797L4.87539 10.8234L5.61887 10.92C6.02778 10.9731 6.36835 11.0104 6.37566 11.0029C6.38297 10.9954 6.18677 10.5961 5.93963 10.1156C4.64314 7.59482 4.74389 7.80153 4.77613 7.72863C4.79231 7.69204 5.14999 6.98338 5.57098 6.15382C5.99198 5.32427 6.33642 4.63873 6.33642 4.63043C6.33642 4.60523 6.20446 4.61751 5.56106 4.70257ZM10.6256 6.53368V7.17313H11.8806H13.1357V6.53368V5.89423H11.8806H10.6256V6.53368ZM10.642 7.81655C10.633 7.82585 10.6256 8.11944 10.6256 8.46899V9.10448L11.8745 9.09798L13.1235 9.09149V8.45203V7.81258L11.891 7.80609C11.2131 7.8025 10.6511 7.80722 10.642 7.81655ZM10.6256 10.3665V11.0025L11.0825 11.0144C11.5076 11.0254 12.212 11.0254 12.8619 11.0145L13.1365 11.0098L13.13 10.3767L13.1235 9.74347L11.8745 9.73698L10.6256 9.73048V10.3665Z" fill="#FD9149"/>
</svg>
