<svg width="20" height="20" viewBox="0 0 20 20" fill="none" xmlns="http://www.w3.org/2000/svg">
<path d="M0 0.357544V0.702148H2.33625H4.67251V0.357544V0.0129389H2.33625H0V0.357544Z" fill="black"/>
<path d="M13.3708 0.051703C12.6241 0.241236 12.1818 1.05967 12.428 1.80919C12.5323 2.12795 12.5323 2.12364 12.453 2.12364C12.3279 2.12364 12.065 2.29594 11.9232 2.46824C11.6937 2.74393 11.627 3.0713 11.7313 3.43314C11.798 3.67005 12.1443 4.02758 12.3738 4.0965C12.4989 4.13527 13.0538 4.14819 14.3471 4.14819H16.1493L16.2494 4.25588C16.337 4.34203 16.3537 4.40234 16.3537 4.60049V4.8374H16.6875H17.0212V4.59618C17.0212 4.22142 16.9461 4.02327 16.7083 3.78205C16.579 3.64421 16.4372 3.54513 16.3287 3.51067C16.2035 3.47191 15.6487 3.45898 14.3554 3.45898H12.5531L12.453 3.35129C12.3153 3.21345 12.3153 3.0153 12.453 2.87746L12.5531 2.76977H13.788H15.0187V2.42948V2.08487L14.2302 2.07195C13.3667 2.05903 13.3291 2.0461 13.1247 1.7618C13.0037 1.59381 13.0037 1.1889 13.1247 1.0209C13.2874 0.792603 13.4167 0.72799 13.7254 0.71076L14.0175 0.69353V0.353232V0.0129352L13.7588 0.0172424C13.6128 0.0215502 13.4418 0.0344729 13.3708 0.051703Z" fill="black"/>
<path d="M14.6851 0.357544V0.702148H15.0188H15.3526V0.357544V0.0129389H15.0188H14.6851V0.357544Z" fill="black"/>
<path d="M16.02 0.344617V0.69353L16.3121 0.71076C16.6208 0.72799 16.7501 0.792603 16.9128 1.0209C16.9879 1.11998 17.0046 1.21474 17.0129 1.60673L17.0296 2.07626L17.9808 2.08918C18.8694 2.1021 18.9445 2.10641 19.0488 2.19256C19.2699 2.36056 19.3367 2.4984 19.3367 2.76977C19.3367 3.17899 19.1239 3.39868 18.6817 3.45898C18.3312 3.50206 18.1435 3.59683 17.9433 3.82943C17.7597 4.04481 17.6888 4.26019 17.6888 4.59618V4.8374H18.0225H18.3563V4.60049C18.3563 4.27311 18.4522 4.17404 18.811 4.13527C19.1156 4.10081 19.5119 3.90266 19.6746 3.70451C19.733 3.63559 19.8289 3.47621 19.8915 3.3556C19.9833 3.17038 20 3.07992 20 2.76977C20 2.45963 19.9833 2.36917 19.8915 2.18395C19.7247 1.86088 19.5995 1.72304 19.3075 1.55935L19.0446 1.41289L18.3688 1.39997L17.6971 1.38274L17.6679 1.18028C17.6304 0.930445 17.4218 0.51692 17.2591 0.37477C17.0046 0.155085 16.7334 0.0473952 16.3663 0.0215502L16.02 1.23978e-05V0.344617Z" fill="black"/>
<path d="M0.350483 2.06745L0.571593 2.74805H2.3363H4.10101L4.32211 2.06745L4.53905 1.39117H2.3363H0.133545L0.350483 2.06745Z" fill="black"/>
<path d="M0.66748 5.87121V8.28345H2.33623H4.00499V5.87121V3.45898H2.33623H0.66748V5.87121ZM3.00373 5.87121V7.24963H2.33623H1.66873V5.87121V4.49279H2.33623H3.00373V5.87121Z" fill="black"/>
<path d="M8.95293 4.88503C8.69427 4.94964 8.31463 5.17794 8.13107 5.3847C7.85572 5.69054 7.70971 6.0653 7.68468 6.5219L7.66382 6.90527H8.00591H8.34384V6.66405C8.34384 6.53052 8.36469 6.34098 8.3939 6.24191C8.46065 6.00499 8.80691 5.64747 9.03637 5.57855C9.15318 5.54408 9.57454 5.52685 10.3463 5.52685C11.1181 5.52685 11.5395 5.54408 11.6563 5.57855C11.8858 5.64747 12.232 6.00499 12.2988 6.24191C12.328 6.34098 12.3488 6.53052 12.3488 6.66405V6.90527H12.6868H13.0289L13.008 6.5219C12.9663 5.82408 12.6492 5.32009 12.0652 5.01856L11.7481 4.85918L10.4339 4.85057C9.70804 4.84626 9.04471 4.86349 8.95293 4.88503Z" fill="black"/>
<path d="M16.6707 6.2675C16.6624 6.29766 16.5372 8.40836 16.3954 10.9584L16.1367 15.5934L16.3578 15.8087C16.483 15.9294 16.7583 16.1878 16.9711 16.3817L17.3549 16.7435V16.9933V17.2432H18.0015H18.6482L18.644 16.9718C18.644 16.8253 18.5063 14.3485 18.3436 11.471L18.0433 6.23735L17.3633 6.22443C16.8418 6.21581 16.6832 6.22443 16.6707 6.2675Z" fill="black"/>
<path d="M7.07138 7.65454C6.771 7.79669 6.67505 8.01207 6.67505 8.56775V8.97266H8.01422H9.3534L9.33671 8.50313C9.32419 7.99484 9.28665 7.89577 9.03633 7.70623C8.93204 7.62439 8.85694 7.61577 8.06011 7.60716C7.40096 7.59854 7.16733 7.60716 7.07138 7.65454Z" fill="black"/>
<path d="M11.744 7.65454C11.4436 7.79669 11.3477 8.01207 11.3477 8.56775V8.97266H12.6868H14.026L14.0093 8.50313C13.9968 7.99484 13.9593 7.89577 13.7089 7.70623C13.6046 7.62439 13.5296 7.61577 12.7327 7.60716C12.0736 7.59854 11.8399 7.60716 11.744 7.65454Z" fill="black"/>
<path d="M0 14.4863V20H0.333751H0.667501V18.3717V16.7392L2.67 15.0205L4.66834 13.3017L4.67251 11.135V8.97265H2.33625H0V14.4863ZM1.335 10.0065V10.3511H1.00125H0.667501V10.0065V9.66186H1.00125H1.335V10.0065ZM2.67 10.0065V10.3511H2.33625H2.0025V10.0065V9.66186H2.33625H2.67V10.0065ZM4.00501 10.0065V10.3511H3.67126H3.33751V10.0065V9.66186H3.67126H4.00501V10.0065ZM1.335 11.3849V11.7295H1.00125H0.667501V11.3849V11.0403H1.00125H1.335V11.3849ZM2.67 11.3849V11.7295H2.33625H2.0025V11.3849V11.0403H2.33625H2.67V11.3849ZM4.00501 11.3849V11.7295H3.67126H3.33751V11.3849V11.0403H3.67126H4.00501V11.3849ZM1.335 12.7633V13.1079H1.00125H0.667501V12.7633V12.4187H1.00125H1.335V12.7633ZM2.67 12.7633V13.1079H2.33625H2.0025V12.7633V12.4187H2.33625H2.67V12.7633ZM4.00501 12.7633V13.1079H3.67126H3.33751V12.7633V12.4187H3.67126H4.00501V12.7633ZM1.335 14.1417V14.4863H1.00125H0.667501V14.1417V13.7971H1.00125H1.335V14.1417ZM2.67 14.1417V14.4863H2.33625H2.0025V14.1417V13.7971H2.33625H2.67V14.1417Z" fill="black"/>
<path d="M6.67505 10.3511V11.0403H8.01005H9.34505V10.3511V9.66186H8.01005H6.67505V10.3511Z" fill="black"/>
<path d="M11.3477 10.3511V11.0403H12.6827H14.0177V10.3511V9.66186H12.6827H11.3477V10.3511Z" fill="black"/>
<path d="M6.67505 12.4187V13.1079H8.01005H9.34505V12.4187V11.7295H8.01005H6.67505V12.4187Z" fill="black"/>
<path d="M11.3477 12.4186V13.1078H12.424H13.5003L13.6464 13.2629C13.7215 13.349 13.8383 13.4567 13.905 13.5041L14.0177 13.5859V12.6598V11.7294H12.6827H11.3477V12.4186Z" fill="black"/>
<path d="M3.52936 15.1669L1.95239 16.5324L5.75298 16.5453L9.55773 16.554L10.9428 15.2574C11.7063 14.5423 12.3654 13.922 12.4113 13.8747C12.4906 13.7971 12.3946 13.7971 8.80262 13.8014H5.11051L3.52936 15.1669Z" fill="black"/>
<path d="M11.6729 15.49L10.0125 17.0493V18.5225V20H10.68H11.3475V18.277V16.554H13.35H15.3525V18.277V20H16.02H16.6875V18.5225V17.045L15.0354 15.4986C14.1301 14.6457 13.3708 13.9436 13.3583 13.9393C13.3416 13.935 12.5823 14.6328 11.6729 15.49Z" fill="black"/>
<path d="M1.33496 18.6216V20H5.33997H9.34497V18.6216V17.2432H5.33997H1.33496V18.6216Z" fill="black"/>
<path d="M12.0151 18.6216V20H13.3501H14.6851V18.6216V17.2432H13.3501H12.0151V18.6216Z" fill="black"/>
<path d="M17.355 18.9662V20H18.3562H19.3575V18.9662V17.9324H18.3562H17.355V18.9662Z" fill="black"/>
</svg>
