<svg width="20" height="16" viewBox="0 0 20 16" fill="none" xmlns="http://www.w3.org/2000/svg">
<path fill-rule="evenodd" clip-rule="evenodd" d="M9.7745 0.244918C9.70371 0.315706 9.64579 0.554243 9.64579 0.775082C9.64579 1.17064 9.63914 1.17686 9.18995 1.20947C8.80255 1.23746 8.72865 1.28079 8.69797 1.49841C8.65453 1.80549 8.83011 1.93569 9.29077 1.93795C9.60643 1.93945 9.63539 1.9698 9.66617 2.33093C9.73031 3.08547 10.3966 3.05887 10.3966 2.30186C10.3966 1.96497 10.421 1.93945 10.7452 1.93795C11.212 1.93569 11.388 1.80667 11.3444 1.49841C11.3137 1.28079 11.2398 1.23746 10.8524 1.20947C10.4032 1.17686 10.3966 1.17064 10.3966 0.775082C10.3966 0.376842 10.248 0.116211 10.0212 0.116211C9.95629 0.116211 9.84528 0.174129 9.7745 0.244918ZM3.17056 3.92679C3.13345 4.02321 3.1032 4.24308 3.1032 4.41523C3.1032 4.69645 3.06791 4.72841 2.75462 4.72981C2.28774 4.73206 2.11173 4.86109 2.15538 5.16934C2.18606 5.38696 2.25996 5.43029 2.64736 5.45829C3.08121 5.48971 3.10331 5.50784 3.10481 5.83368C3.10706 6.29467 3.23727 6.47024 3.54434 6.42681C3.76196 6.39613 3.80529 6.32223 3.83329 5.93483C3.866 5.48382 3.87072 5.47899 4.27604 5.47899C5.11006 5.47899 5.13634 4.81111 4.30478 4.74911C3.8719 4.71694 3.86525 4.71018 3.83307 4.26646C3.80433 3.8708 3.76647 3.81256 3.51914 3.78392C3.33584 3.76269 3.21442 3.81245 3.17056 3.92679ZM16.2599 3.83444C16.2206 3.8737 16.1884 4.09089 16.1884 4.31709C16.1884 4.72305 16.1831 4.7282 15.7724 4.7282C14.9333 4.7282 14.9014 5.39576 15.7376 5.45807C16.1705 5.49025 16.1771 5.49701 16.2093 5.94072C16.237 6.32202 16.281 6.39624 16.498 6.42681C16.8051 6.47024 16.9353 6.29467 16.9376 5.83368C16.9391 5.50784 16.9612 5.48971 17.395 5.45829C17.7824 5.43029 17.8563 5.38696 17.887 5.16934C17.9306 4.86109 17.7546 4.73206 17.2877 4.72981C16.9745 4.72841 16.9392 4.69645 16.9392 4.41523C16.9392 4.24308 16.9099 4.02589 16.8741 3.93258C16.8093 3.76387 16.3965 3.6979 16.2599 3.83444ZM7.86803 5.59933C7.82556 5.66797 7.5128 6.3809 7.1729 7.1836L6.55511 8.64303L5.60676 8.69666L4.65841 8.75028L3.99675 10.3055L3.33498 11.8607L2.38791 11.9143L1.44074 11.968L0.724164 13.6304C0.330107 14.5448 0.0042651 15.3714 0.000189385 15.4675C-0.00388633 15.5635 0.0583218 15.6965 0.138549 15.763C0.244839 15.8512 2.93009 15.8766 10.0748 15.8565C19.0127 15.8315 19.875 15.8138 19.9762 15.6533C20.0614 15.5183 19.9285 15.0948 19.4042 13.8299C19.0286 12.9238 18.6779 12.1239 18.6249 12.0525C18.566 11.9731 18.1733 11.9104 17.6181 11.8916L16.7077 11.8607L16.0458 10.3055L15.384 8.75028L14.4385 8.69666L13.493 8.64303L12.8297 7.08782L12.1663 5.53262L10.0557 5.50355C8.53848 5.48264 7.92348 5.50956 7.86803 5.59933ZM12.1098 7.32915C12.3605 7.93385 12.5895 8.4889 12.6187 8.56259C12.6604 8.6677 12.0986 8.69666 10.0212 8.69666C7.94375 8.69666 7.38195 8.6677 7.42367 8.56259C7.45284 8.4889 7.68183 7.93385 7.9326 7.32915L8.38843 6.22978H10.0212H11.6539L12.1098 7.32915ZM8.8921 10.5468C9.14287 11.1514 9.37186 11.7066 9.40103 11.7803C9.44275 11.8854 8.88095 11.9143 6.80352 11.9143C4.72608 11.9143 4.16428 11.8854 4.206 11.7803C4.23518 11.7066 4.46417 11.1514 4.71493 10.5468L5.17077 9.44744H6.80352H8.43627L8.8921 10.5468ZM10.4574 10.2584C10.2635 10.7044 10.0618 11.059 10.0094 11.0464C9.91457 11.0237 9.32402 9.7291 9.32402 9.54408C9.32402 9.49088 9.65834 9.44744 10.067 9.44744H10.81L10.4574 10.2584ZM15.3274 10.5468C15.5782 11.1514 15.8072 11.7066 15.8364 11.7803C15.8781 11.8854 15.3163 11.9143 13.2389 11.9143C11.1614 11.9143 10.5996 11.8854 10.6413 11.7803C10.6705 11.7066 10.8995 11.1514 11.1503 10.5468L11.6061 9.44744H13.2389H14.8716L15.3274 10.5468ZM5.67444 13.7645C5.9252 14.3691 6.15419 14.9242 6.18337 14.9979C6.22509 15.103 5.66328 15.132 3.58585 15.132C1.50842 15.132 0.946612 15.103 0.988335 14.9979C1.01751 14.9242 1.2465 14.3691 1.49726 13.7645L1.9531 12.6651H3.58585H5.2186L5.67444 13.7645ZM7.23973 13.4761C7.04581 13.922 6.84417 14.2766 6.79172 14.2641C6.69691 14.2413 6.10636 12.9468 6.10636 12.7617C6.10636 12.7086 6.44067 12.6651 6.84932 12.6651H7.59238L7.23973 13.4761ZM12.1098 13.7645C12.3605 14.3691 12.5895 14.9242 12.6187 14.9979C12.6604 15.103 12.0986 15.132 10.0212 15.132C7.94375 15.132 7.38195 15.103 7.42367 14.9979C7.45284 14.9242 7.68183 14.3691 7.9326 13.7645L8.38843 12.6651H10.0212H11.6539L12.1098 13.7645ZM13.6751 13.4761C13.4811 13.922 13.2795 14.2766 13.2271 14.2641C13.1322 14.2413 12.5417 12.9468 12.5417 12.7617C12.5417 12.7086 12.876 12.6651 13.2846 12.6651H14.0277L13.6751 13.4761ZM18.5451 13.7645C18.7959 14.3691 19.0249 14.9242 19.054 14.9979C19.0958 15.103 18.534 15.132 16.4565 15.132C14.3791 15.132 13.8173 15.103 13.859 14.9979C13.8882 14.9242 14.1172 14.3691 14.3679 13.7645L14.8238 12.6651H16.4565H18.0893L18.5451 13.7645Z" fill="url(#paint0_linear_325_2420)"/>
<defs>
<linearGradient id="paint0_linear_325_2420" x1="10" y1="0.116211" x2="10" y2="15.863" gradientUnits="userSpaceOnUse">
<stop stop-color="#FD9149"/>
<stop offset="1" stop-color="#FFD588"/>
</linearGradient>
</defs>
</svg>
