<svg width="25" height="22" viewBox="0 0 25 22" fill="none" xmlns="http://www.w3.org/2000/svg">
<path fill-rule="evenodd" clip-rule="evenodd" d="M16.8684 0.0180054C16.7738 0.0311595 16.5628 0.043235 16.3994 0.044883C16.2361 0.046531 15.9195 0.0675056 15.6959 0.0915065C15.4724 0.115477 15.2121 0.141456 15.1175 0.149187C14.9574 0.162311 14.4961 0.227632 14.1326 0.288638C14.0466 0.30308 13.8778 0.329868 13.7574 0.348146C13.637 0.366424 13.5104 0.392072 13.476 0.405167C13.3855 0.439565 12.9853 0.527778 12.921 0.527478C12.8909 0.527359 12.8663 0.540722 12.8663 0.557202C12.8663 0.573682 12.8416 0.587106 12.8116 0.587016C12.7533 0.586866 12.5057 0.660397 12.3504 0.72401C12.2988 0.745135 12.1753 0.797152 12.0759 0.83958C11.9766 0.882039 11.8883 0.916767 11.8797 0.916767C11.8516 0.916767 11.4439 1.16894 11.4332 1.19294C11.4275 1.20586 11.4096 1.2164 11.3936 1.2164C11.3652 1.2164 11.2262 1.34558 11.0996 1.4897C11.0366 1.56147 10.966 1.70979 10.9006 1.9077C10.8751 1.98461 10.8652 2.93908 10.8652 5.30109V8.58747L10.7323 8.58729C10.6592 8.5872 10.515 8.57288 10.4118 8.55547C10.1997 8.51967 9.93217 8.49018 9.14553 8.41599C8.23757 8.33033 5.07109 8.35538 4.53368 8.45246C4.48209 8.46178 4.32029 8.48221 4.17411 8.49785C3.92542 8.52449 3.59021 8.57121 3.11104 8.64596C2.99926 8.66343 2.86701 8.69112 2.81717 8.70751C2.7673 8.72387 2.69326 8.73729 2.65258 8.73729C2.61193 8.73729 2.55421 8.74934 2.52435 8.76408C2.49449 8.77882 2.39972 8.80459 2.31374 8.82137C2.22776 8.83812 2.10816 8.8659 2.04797 8.8831C1.98778 8.90027 1.87522 8.93158 1.79784 8.95264C1.72045 8.97371 1.6501 8.9993 1.64151 9.00948C1.63291 9.01967 1.5907 9.03591 1.5477 9.04562C1.4005 9.07876 1.23504 9.14147 1.23504 9.16413C1.23504 9.17656 1.21959 9.18675 1.20068 9.18675C1.14646 9.18675 0.955731 9.27754 0.734769 9.40854C0.454619 9.57466 0.224026 9.80077 0.102461 10.0285L0 10.2205V11.4813C0 12.683 0.00293908 12.7476 0.0625335 12.8596C0.096927 12.9243 0.135604 12.9817 0.148517 12.9871C0.161399 12.9926 0.17203 13.0129 0.172124 13.0321C0.172311 13.0795 0.344247 13.2539 0.515902 13.3809C0.593287 13.4381 0.663637 13.4921 0.672235 13.5007C0.692371 13.521 1.1812 13.7488 1.34447 13.814C1.41326 13.8415 1.49396 13.8768 1.52382 13.8925C1.55368 13.9082 1.60561 13.921 1.63922 13.921C1.67283 13.921 1.70904 13.9345 1.71967 13.951C1.7303 13.9675 1.7647 13.9809 1.79609 13.9809C1.82751 13.9809 1.92425 14.0029 2.01111 14.0298L2.16901 14.0787L2.17886 14.9961C2.18849 15.8959 2.19011 15.9162 2.26303 16.0473C2.30392 16.1208 2.40651 16.2475 2.49102 16.329L2.6447 16.477L2.55737 16.513C2.50938 16.5327 2.39269 16.573 2.29811 16.6023C1.75228 16.7719 1.21803 17.1572 1.15499 17.4268C1.14533 17.468 1.12423 17.5251 1.10809 17.5537C1.06726 17.626 1.06907 19.9944 1.10997 20.0186C1.12717 20.0288 1.14124 20.0655 1.14124 20.1002C1.14124 20.1847 1.30154 20.4194 1.44618 20.5468C1.60542 20.6871 1.92416 20.9026 1.97228 20.9026C1.99385 20.9026 2.01618 20.9127 2.02193 20.925C2.03619 20.9558 2.25827 21.0524 2.3148 21.0524C2.34 21.0524 2.36064 21.0627 2.36064 21.0753C2.36064 21.1019 2.64192 21.2022 2.71658 21.2022C2.74438 21.2022 2.76711 21.2157 2.76711 21.2322C2.76711 21.2486 2.78659 21.2621 2.81041 21.2621C2.83424 21.2621 2.92219 21.2818 3.00583 21.306C3.16754 21.3526 3.71068 21.4812 3.97088 21.5345C4.29965 21.6019 4.9929 21.6967 5.4816 21.7411C5.659 21.7572 5.81549 21.7771 5.82931 21.7853C5.8885 21.8204 7.29572 21.8749 8.14499 21.875C8.9906 21.8751 10.263 21.8257 10.4635 21.7849C10.5092 21.7756 10.6851 21.7556 10.8544 21.7403C11.1314 21.7155 11.5398 21.6618 11.9752 21.5932C12.0612 21.5796 12.237 21.5459 12.366 21.5184C12.495 21.4908 12.6676 21.4563 12.7497 21.4418C12.8318 21.4272 12.9443 21.402 12.9998 21.3857C13.0553 21.3695 13.1852 21.3323 13.2884 21.303C13.3916 21.2737 13.4894 21.2391 13.5057 21.226C13.522 21.2129 13.5669 21.2022 13.6055 21.2022C13.644 21.2022 13.6842 21.1887 13.6948 21.1722C13.7055 21.1558 13.7373 21.1423 13.7656 21.1423C13.8486 21.1423 14.3979 20.8764 14.6016 20.7376C14.8314 20.581 15.0201 20.3877 15.0988 20.2284C15.1313 20.1625 15.1699 20.0851 15.1846 20.0565C15.1993 20.0279 15.2113 19.8437 15.2113 19.6473V19.2901L15.3911 19.2389C15.7375 19.1402 16.0024 19.048 16.1254 18.9834C16.1553 18.9677 16.201 18.9549 16.227 18.9549C16.2531 18.9549 16.2744 18.9448 16.2745 18.9324C16.2745 18.9201 16.3414 18.884 16.423 18.8523C16.5046 18.8205 16.5804 18.7816 16.5915 18.7658C16.6037 18.7483 17.0602 18.7384 17.764 18.7404C18.3978 18.7421 19.1204 18.7313 19.3698 18.7162C20.1043 18.6718 20.6618 18.6281 20.7455 18.6084C20.7885 18.5983 20.9292 18.578 21.0582 18.5632C21.4931 18.5133 22.0127 18.429 22.4026 18.3449C22.5822 18.3063 22.6795 18.2815 23.0749 18.1739C23.1265 18.1598 23.2355 18.132 23.3172 18.1121C23.3989 18.0922 23.4657 18.0647 23.4657 18.051C23.4657 18.0372 23.494 18.026 23.5287 18.026C23.5633 18.026 23.6161 18.0132 23.6459 17.9974C23.6758 17.9817 23.7951 17.9282 23.911 17.8786C24.0269 17.8291 24.2028 17.7389 24.3018 17.6783C24.4817 17.5683 24.8414 17.2399 24.8414 17.1857C24.8414 17.17 24.8555 17.1571 24.8727 17.1571C24.8899 17.1571 24.904 17.1389 24.904 17.1168C24.904 17.0946 24.9256 17.035 24.9519 16.9844C24.9946 16.9024 24.9998 16.0664 24.9999 9.35661L25 1.82095L24.9014 1.64602C24.804 1.47307 24.4565 1.12651 24.3805 1.12651C24.3588 1.12651 24.3412 1.11609 24.3412 1.10335C24.3412 1.09062 24.2884 1.05367 24.2239 1.02125C24.1595 0.988829 24.0996 0.953832 24.091 0.943494C24.0824 0.933157 23.9206 0.867507 23.7315 0.797631C23.5423 0.727756 23.3594 0.659588 23.325 0.646135C23.2906 0.632711 23.1781 0.599062 23.0749 0.571345C22.9717 0.543659 22.825 0.502159 22.7488 0.479177C22.6727 0.456165 22.573 0.437348 22.5274 0.437348C22.4817 0.437348 22.4338 0.42722 22.421 0.414875C22.3767 0.372087 21.2045 0.188559 20.6517 0.13786C20.4711 0.12132 20.2854 0.100106 20.2391 0.0907573C19.9275 0.0278336 17.2187 -0.0305957 16.8684 0.0180054ZM20.1827 1.13748C20.4664 1.16451 20.7549 1.19336 20.8237 1.20163C21.2094 1.2479 21.682 1.31459 21.7773 1.33623C22.0658 1.4017 22.3624 1.45683 22.4242 1.4565C22.4619 1.45629 22.5014 1.4696 22.5121 1.48608C22.5227 1.50256 22.5653 1.51604 22.6066 1.51604C22.648 1.51604 22.7492 1.53639 22.8315 1.56126C23.2303 1.6818 23.3028 1.70586 23.4232 1.75743C23.4944 1.78793 23.5893 1.8217 23.6342 1.83252C23.6791 1.8433 23.7158 1.8611 23.7158 1.87204C23.7158 1.88298 23.7651 1.91734 23.8253 1.94842C23.8855 1.97949 23.9347 2.01467 23.9347 2.02659C23.9347 2.07492 23.7342 2.23142 23.5815 2.30226C23.304 2.43098 23.1923 2.47488 23.1423 2.47488C23.1159 2.47488 23.0865 2.4868 23.0771 2.5014C23.0677 2.51596 23.0211 2.53526 22.9736 2.54422C22.9261 2.5532 22.8099 2.58092 22.7153 2.60582C22.2734 2.7222 22.0825 2.76295 21.5584 2.85269C21.2528 2.90501 21.0202 2.93503 20.5579 2.98184C20.3773 3.00008 20.117 3.02801 19.9795 3.04389C19.0122 3.15542 16.8099 3.13408 15.477 3.00029C14.7247 2.92478 14.288 2.85991 13.6323 2.72631C13.1904 2.63626 12.7936 2.52866 12.538 2.42951C12.2523 2.31868 12.1612 2.27991 12.1471 2.26295C12.1385 2.25261 12.0999 2.22816 12.0612 2.20865C11.9098 2.13224 12.0052 2.01634 12.3582 1.84795C12.663 1.70251 12.6559 1.70538 12.7653 1.68234C12.8204 1.67074 12.8736 1.64881 12.8834 1.63359C12.8932 1.61837 12.9418 1.60593 12.9913 1.60593C13.0409 1.60593 13.0891 1.59401 13.0986 1.57941C13.1079 1.56485 13.1826 1.54337 13.2646 1.53168C13.3464 1.52 13.4275 1.50004 13.4447 1.48731C13.4619 1.4746 13.5323 1.45653 13.601 1.44712C13.7909 1.42121 14.0937 1.3614 14.1638 1.33593C14.2702 1.29737 14.8755 1.22075 15.5709 1.15785C15.7772 1.13919 16.0375 1.11258 16.1493 1.09871C16.5201 1.05271 19.6039 1.08238 20.1827 1.13748ZM12.1561 3.3562C12.3469 3.47285 13.457 3.77189 14.0075 3.85495C14.0935 3.86792 14.2975 3.90022 14.4609 3.92671C14.871 3.99323 15.1491 4.02101 16.462 4.12654C17.1825 4.18443 20.1221 4.12582 20.4621 4.04678C20.504 4.03704 20.6658 4.01657 20.8216 4.00132C21.3998 3.94472 22.3934 3.78453 22.5038 3.73012C22.5337 3.71544 22.584 3.70339 22.6155 3.70339C22.6471 3.70339 22.7352 3.68457 22.8114 3.66156C22.8875 3.63858 23.0342 3.59732 23.1374 3.56993C23.2406 3.54252 23.3494 3.5074 23.3793 3.49188C23.4091 3.47639 23.4551 3.46368 23.4813 3.46368C23.5076 3.46368 23.5535 3.45107 23.5834 3.43564C23.7094 3.37058 23.8534 3.31386 23.8926 3.31386C23.927 3.31386 23.9347 3.48621 23.9347 4.25553V5.1972L23.8226 5.28577C23.7004 5.38232 23.3383 5.56114 23.265 5.56114C23.2398 5.56114 23.2113 5.57346 23.2016 5.5885C23.1919 5.60354 23.1278 5.62493 23.0592 5.63605C22.9906 5.64717 22.9266 5.66856 22.9169 5.6836C22.9072 5.69864 22.8703 5.71096 22.8349 5.71096C22.7995 5.71096 22.7054 5.73053 22.6257 5.75441C22.3972 5.82296 22.0058 5.90962 21.7242 5.95409C20.9998 6.06846 20.5546 6.12269 20.042 6.15907C19.8184 6.17492 19.4174 6.20359 19.1509 6.22283C18.2952 6.28455 16.184 6.21974 15.18 6.10091C14.9719 6.07628 14.7507 6.04422 14.1482 5.95142C14.0536 5.93683 13.8778 5.90276 13.7574 5.87564C13.637 5.84855 13.4682 5.81287 13.3822 5.79633C13.2962 5.77982 13.2125 5.75384 13.1961 5.73862C13.1798 5.72339 13.1269 5.71096 13.0785 5.71096C13.0301 5.71096 12.966 5.69864 12.9362 5.6836C12.9063 5.66853 12.7553 5.61256 12.6005 5.55919C12.4457 5.50583 12.3121 5.45252 12.3035 5.44078C12.2949 5.42903 12.2597 5.41093 12.2253 5.40057C12.1909 5.3902 12.1206 5.34684 12.069 5.30423L11.9752 5.22675L11.9661 4.2703C11.9571 3.31953 11.9574 3.31386 12.0219 3.31386C12.0576 3.31386 12.118 3.33292 12.1561 3.3562ZM12.1545 6.49002C12.2257 6.52298 12.2968 6.54994 12.3124 6.54994C12.3281 6.54994 12.3853 6.5684 12.4395 6.59093C12.4936 6.6135 12.6224 6.65583 12.7256 6.68502C12.8288 6.71423 12.9413 6.74824 12.9757 6.76059C13.0101 6.77296 13.1508 6.80607 13.2884 6.83418C13.426 6.86231 13.5878 6.89704 13.6479 6.91143C13.8421 6.95775 14.0967 7.00479 14.2889 7.02987C15.0267 7.12624 15.152 7.14149 15.7897 7.21259C16.2464 7.26353 19.1455 7.28322 19.6786 7.23899C21.022 7.12761 21.7523 7.0299 22.4808 6.86402C22.6012 6.83661 22.7489 6.80302 22.8091 6.78932C22.8693 6.77563 22.9959 6.74204 23.0905 6.71465C23.1851 6.68727 23.2943 6.6576 23.3333 6.64876C23.3722 6.63992 23.4117 6.62081 23.4211 6.60631C23.4305 6.59177 23.4598 6.57991 23.4863 6.57991C23.5128 6.57991 23.5788 6.56157 23.633 6.53919C23.7983 6.47084 23.9057 6.43009 23.9205 6.43009C23.9283 6.43009 23.9347 6.85662 23.9347 7.37796V8.3258L23.8487 8.39762C23.8014 8.43712 23.6994 8.49938 23.622 8.53594C23.5447 8.57252 23.4767 8.61255 23.4709 8.62493C23.4652 8.63731 23.43 8.64782 23.3928 8.64836C23.3555 8.64887 23.2977 8.6691 23.2643 8.69331C23.2309 8.71749 23.178 8.73729 23.1466 8.73729C23.1153 8.73729 23.0652 8.75 23.0354 8.76549C23.0055 8.78101 22.8967 8.8161 22.7935 8.84348C22.6903 8.87087 22.5707 8.90482 22.5277 8.91893C22.4847 8.93305 22.3933 8.95318 22.3245 8.96364C22.2557 8.97413 22.1572 8.99387 22.1056 9.00754C22.054 9.02123 21.8781 9.05338 21.7148 9.07897C21.5514 9.10459 21.3755 9.13338 21.3239 9.14297C21.1968 9.16661 20.5749 9.24278 20.2296 9.27703C19.0963 9.38942 16.869 9.39023 15.6959 9.27868C15.0117 9.21363 14.3214 9.12086 14.1174 9.0665C14.0569 9.05041 13.9556 9.0372 13.8921 9.03711C13.8286 9.03702 13.7692 9.02521 13.7599 9.01092C13.7507 8.9966 13.6719 8.97583 13.5848 8.96478C13.4978 8.95372 13.3955 8.93311 13.3575 8.91899C13.3195 8.90491 13.2251 8.87689 13.1477 8.85676C12.917 8.79677 12.7003 8.73118 12.6005 8.69112C12.3662 8.59709 12.1551 8.49159 12.069 8.42549L11.9752 8.35352L11.9661 7.3918C11.9597 6.71337 11.9671 6.43009 11.9911 6.43009C12.0098 6.43009 12.0833 6.45706 12.1545 6.49002ZM8.27006 9.4074C8.5882 9.41972 9.03141 9.44926 9.25496 9.47305C9.47852 9.49681 9.71399 9.51629 9.77824 9.51632C9.84247 9.51632 9.95503 9.52926 10.0284 9.54502C10.1017 9.56082 10.2743 9.58946 10.4118 9.60873C10.8989 9.67693 11.3004 9.74758 11.5687 9.81236C11.6375 9.82896 11.7641 9.85758 11.8501 9.87597C11.9361 9.89434 12.0346 9.92023 12.069 9.93351C12.1034 9.94675 12.2089 9.98103 12.3035 10.0096C12.3981 10.0383 12.5497 10.094 12.6404 10.1336C12.7312 10.1732 12.8191 10.2055 12.8359 10.2055C12.8526 10.2055 12.8663 10.219 12.8663 10.2355C12.8663 10.252 12.8828 10.2654 12.9029 10.2654C12.923 10.2654 12.9648 10.2874 12.9957 10.3142C13.0379 10.3507 13.0442 10.3766 13.0211 10.4179C12.9815 10.4889 12.7437 10.6457 12.6366 10.6715C12.5909 10.6824 12.5536 10.7035 12.5536 10.7181C12.5536 10.7328 12.522 10.7453 12.4833 10.7458C12.4445 10.7463 12.3856 10.7666 12.3522 10.7908C12.3188 10.8149 12.2659 10.8348 12.2345 10.8348C12.2032 10.8348 12.1531 10.8466 12.1233 10.861C12.0526 10.8953 11.8477 10.9584 11.7094 10.9886C11.6492 11.0017 11.5015 11.0341 11.3811 11.0605C10.8266 11.1823 10.2169 11.2727 9.48946 11.341C9.2917 11.3595 9.00345 11.3896 8.8489 11.4078C8.47273 11.4522 5.68961 11.4521 5.31494 11.4077C5.16039 11.3894 4.87214 11.36 4.67438 11.3424C4.07328 11.2889 3.4163 11.2073 3.32991 11.1754C3.30412 11.1659 3.20563 11.147 3.11104 11.1334C2.95008 11.1102 2.64345 11.0472 2.39191 10.9856C2.33172 10.9709 2.21916 10.9432 2.14177 10.9242C2.06439 10.9051 1.97293 10.8788 1.93854 10.8657C1.90415 10.8526 1.77048 10.8048 1.64151 10.7595C1.36717 10.6633 1.10997 10.5168 1.10997 10.4568C1.10997 10.4336 1.13742 10.3922 1.17097 10.3646C1.26821 10.2848 1.58938 10.1186 1.64932 10.1171C1.67943 10.1163 1.70404 10.1033 1.70404 10.0883C1.70404 10.0733 1.76026 10.0519 1.82895 10.0407C1.89764 10.0296 1.96177 10.0082 1.97149 9.99316C1.98119 9.97812 2.02112 9.96581 2.06023 9.96581C2.09934 9.96581 2.1419 9.95571 2.15478 9.94336C2.16766 9.93102 2.25093 9.90339 2.33979 9.882C2.42865 9.8606 2.55762 9.82956 2.62641 9.81299C2.6952 9.79645 2.84997 9.76334 2.97034 9.73943C3.20625 9.69257 3.27719 9.68091 4.04905 9.56219C4.31028 9.52201 5.07838 9.45537 5.6102 9.42673C5.92712 9.40965 6.18979 9.39251 6.19385 9.38861C6.21046 9.37273 7.73096 9.38652 8.27006 9.4074ZM23.9347 10.5175V11.4587L23.8472 11.5287C23.7204 11.6302 23.3445 11.8032 23.0749 11.8842C23.0061 11.9048 22.9217 11.9322 22.8873 11.945C22.6494 12.0335 21.8273 12.2018 21.2927 12.2715C21.1379 12.2916 20.962 12.3195 20.9018 12.3333C20.3486 12.4607 17.8661 12.5313 16.4463 12.46C15.4595 12.4105 14.7676 12.3629 14.5841 12.3322C14.4885 12.3161 14.3513 12.303 14.2792 12.303H14.1482V11.2717C14.1482 10.7045 14.1389 10.2171 14.1275 10.1885C14.1089 10.1422 14.1229 10.1388 14.2603 10.1571C15.2286 10.2855 15.7262 10.3352 16.5401 10.3849C17.1717 10.4234 18.8068 10.4244 19.3134 10.3865C19.5249 10.3706 19.8177 10.3504 19.9638 10.3414C20.2183 10.3258 20.7967 10.2658 21.2614 10.2068C21.5178 10.1742 21.9101 10.1087 22.2619 10.0397C22.3995 10.0127 22.5543 9.98336 22.6059 9.97447C22.6575 9.96557 22.7137 9.94774 22.7309 9.93488C22.7481 9.92203 22.8292 9.90192 22.9111 9.89024C22.993 9.87855 23.0677 9.85707 23.0771 9.84251C23.0865 9.82791 23.1348 9.81599 23.1843 9.81599C23.2339 9.81599 23.2825 9.80355 23.2922 9.78833C23.3021 9.77311 23.3552 9.75118 23.4103 9.73958C23.4655 9.72798 23.5321 9.70833 23.5585 9.69592C23.7107 9.62428 23.8319 9.57987 23.88 9.57819C23.931 9.5764 23.9347 9.64034 23.9347 10.5175ZM1.37574 11.7417C1.49611 11.7844 1.67199 11.8425 1.76657 11.8706C1.86115 11.8988 1.96296 11.9335 1.99282 11.9476C2.02268 11.9618 2.0668 11.9734 2.09087 11.9734C2.11492 11.9734 2.20306 11.9926 2.2867 12.0162C2.45591 12.0638 2.77818 12.1295 3.39244 12.2417C3.73391 12.3041 4.77456 12.4111 5.50295 12.4588C6.22671 12.5061 7.93713 12.5061 8.66089 12.4588C9.36058 12.413 10.5839 12.2889 10.6776 12.2542C10.7034 12.2446 10.8019 12.2257 10.8965 12.2121C11.2414 12.1626 12.0017 11.9994 12.1315 11.9471C12.1659 11.9332 12.2785 11.8984 12.3816 11.8697C12.4848 11.8411 12.5908 11.8072 12.6172 11.7944C12.6435 11.7817 12.7103 11.7617 12.7657 11.7501C12.821 11.7384 12.8663 11.7165 12.8663 11.7013C12.8663 11.6861 12.8993 11.6737 12.9397 11.6737C13.0117 11.6737 13.0135 11.6808 13.0342 12.0525C13.0581 12.4812 13.0464 12.5172 12.8444 12.6354C12.779 12.6737 12.7209 12.7156 12.7152 12.7287C12.7094 12.7417 12.6893 12.7524 12.6704 12.7524C12.6416 12.7524 12.4917 12.8052 12.069 12.9641C12.0346 12.977 11.9713 12.9947 11.9283 13.0033C11.7274 13.0437 11.5248 13.0991 11.5035 13.1195C11.4907 13.1319 11.4366 13.142 11.3835 13.142C11.3304 13.142 11.2377 13.1563 11.1777 13.1738C11.0663 13.2063 10.9934 13.2194 10.4431 13.3063C10.0423 13.3697 9.7663 13.3998 9.2237 13.4397C8.98294 13.4574 8.67268 13.4853 8.5342 13.5017C8.20437 13.5407 5.96301 13.5407 5.58112 13.5017C5.41775 13.485 5.09414 13.4569 4.86198 13.4392C4.22964 13.3912 4.0639 13.3709 3.19543 13.235C2.7844 13.1707 1.98628 12.9719 1.75094 12.8752C1.71655 12.861 1.62509 12.8246 1.5477 12.7943C1.47032 12.7639 1.39997 12.7304 1.39137 12.7198C1.38277 12.7093 1.3476 12.6921 1.3132 12.6817C1.27881 12.6714 1.21199 12.6309 1.16469 12.5918L1.0787 12.5207V12.0872C1.0787 11.6862 1.09387 11.5734 1.13911 11.6385C1.14887 11.6525 1.25536 11.699 1.37574 11.7417ZM23.9346 13.6439L23.9346 14.5952L23.7861 14.6917C23.5919 14.818 23.3391 14.9395 23.2703 14.9397C23.2402 14.9397 23.2156 14.9502 23.2156 14.9629C23.2156 14.9837 23.0528 15.0336 22.8404 15.0778C22.7974 15.0868 22.7341 15.1063 22.6997 15.1213C22.6309 15.1511 22.4332 15.1999 22.215 15.2408C21.4819 15.3781 21.3765 15.3953 20.9487 15.4469C20.794 15.4655 20.5759 15.4934 20.4641 15.5089C20.0623 15.5643 19.2748 15.6061 18.3458 15.6211L17.4 15.6363V15.5274C17.4 15.4674 17.388 15.395 17.3733 15.3663C17.2371 15.1002 17.1899 15.0262 17.091 14.9234C16.9714 14.799 16.606 14.5506 16.4463 14.4851C16.3947 14.4639 16.3422 14.4329 16.3295 14.416C16.3015 14.3787 16.2991 13.977 16.3253 13.7113L16.3445 13.5165L17.6617 13.5276C19.1151 13.5398 19.5176 13.5216 20.8862 13.3816C21.0238 13.3676 21.277 13.3338 21.449 13.3065C21.621 13.2793 21.8362 13.2456 21.9274 13.2318C22.1165 13.2031 22.3743 13.1498 22.5121 13.1109C22.5637 13.0963 22.666 13.0753 22.7394 13.0643C22.8129 13.0532 22.8806 13.0325 22.8898 13.0182C22.899 13.0039 22.9348 12.9921 22.9692 12.9921C23.0463 12.9921 23.3453 12.903 23.386 12.8679C23.4023 12.8539 23.4445 12.8415 23.4798 12.8406C23.515 12.8396 23.6072 12.8073 23.6846 12.7688C23.9536 12.6351 23.9347 12.5689 23.9346 13.6439ZM14.1576 13.3537C14.2401 13.3691 14.4089 13.3819 14.5328 13.3821C14.7954 13.3827 15.1033 13.4451 15.173 13.512C15.2172 13.5543 15.2147 13.5643 15.1462 13.6184C14.9314 13.7879 14.2852 14.0266 13.6636 14.1658C12.599 14.4043 11.7118 14.502 9.87852 14.5828C9.11145 14.6166 8.77033 14.6074 8.77033 14.5529C8.77033 14.5399 8.89346 14.5196 9.04391 14.5079C9.64567 14.4609 9.95762 14.4298 10.2711 14.3856C11.0016 14.2827 11.3694 14.2201 11.4354 14.1875C11.4652 14.1728 11.5206 14.1607 11.5584 14.1607C11.6271 14.1607 11.9509 14.0856 12.069 14.0422C12.1034 14.0296 12.2159 13.9954 12.3191 13.9662C12.4223 13.937 12.551 13.8947 12.6052 13.8721C12.6594 13.8496 12.7263 13.8311 12.7537 13.8311C12.7813 13.8311 12.8037 13.8176 12.8037 13.8012C12.8037 13.7847 12.8265 13.7712 12.8542 13.7712C12.882 13.7712 12.9699 13.7388 13.0497 13.6992C13.1294 13.6596 13.2157 13.6192 13.2415 13.6095C13.2866 13.5925 13.3739 13.5421 13.443 13.4932C13.7445 13.2797 13.7526 13.2782 14.1576 13.3537ZM3.41849 14.8239C3.42424 14.8382 3.45607 14.8499 3.48928 14.8499C3.52248 14.8499 3.57407 14.8634 3.60393 14.8799C3.70755 14.937 3.96782 15.0232 4.23665 15.0894C4.89656 15.2518 5.35143 15.341 5.75899 15.3881C5.88262 15.4023 6.01254 15.4227 6.04768 15.4334C6.11806 15.4549 6.38449 15.4818 7.30079 15.5602C8.39422 15.6537 10.9518 15.6256 11.7719 15.5111C11.8837 15.4955 12.1229 15.4662 12.3035 15.4462C12.8608 15.3841 12.9304 15.3736 13.4916 15.2668C13.8082 15.2065 14.0695 15.1447 14.1243 15.117C14.1542 15.1019 14.2016 15.0896 14.2296 15.0896C14.275 15.0896 14.4935 15.0286 14.6641 14.9682C14.6985 14.9561 14.7959 14.9225 14.8805 14.8936C14.9651 14.8647 15.0706 14.823 15.115 14.8009L15.1956 14.7607L15.2043 15.1813L15.213 15.6019L15.1262 15.6828C15.0002 15.8002 14.4802 16.0337 14.1795 16.1079C14.1193 16.1228 14.0138 16.15 13.945 16.1685C13.7115 16.2312 13.4452 16.2924 13.304 16.3157C13.2266 16.3285 13.0719 16.3555 12.9601 16.3758C12.3387 16.4884 11.7886 16.5578 11.5177 16.5578C11.4064 16.5578 11.2994 16.5732 11.2799 16.5919C11.2546 16.6161 10.8001 16.6301 9.71809 16.6398C7.95045 16.6558 7.3763 16.6305 6.19082 16.4844C5.70137 16.4241 5.42041 16.3819 5.36225 16.3601C5.33646 16.3504 5.245 16.331 5.15902 16.317C4.89397 16.2738 4.66241 16.227 4.58058 16.2001C4.53759 16.186 4.41799 16.1521 4.31481 16.1247C4.21163 16.0973 4.10279 16.0622 4.07293 16.0467C4.04307 16.0312 3.9983 16.0185 3.97347 16.0185C3.90785 16.0185 3.52129 15.8435 3.38528 15.7522L3.26872 15.6739L3.26803 15.2149L3.26738 14.756L3.33773 14.7769C3.37644 14.7885 3.41277 14.8096 3.41849 14.8239ZM23.9347 16.2259V16.643L23.8124 16.7428C23.6756 16.8542 23.5838 16.901 23.2156 17.0465C23.0536 17.1104 22.7791 17.1871 22.7117 17.1871C22.6793 17.1871 22.6528 17.1975 22.6528 17.2102C22.6528 17.2313 22.4885 17.2708 22.1212 17.3377C22.0439 17.3519 21.8609 17.3857 21.7148 17.413C20.7816 17.5873 19.9181 17.6592 18.4552 17.6843L17.4 17.7024V17.19C17.4 16.7238 17.4049 16.6773 17.4547 16.673C17.4848 16.6705 17.9104 16.6646 18.4005 16.6601C19.2079 16.6527 19.6478 16.6308 20.4328 16.559C20.8738 16.5187 21.3174 16.465 21.4334 16.438C21.4936 16.424 21.6413 16.3982 21.7617 16.3806C22.0284 16.3418 22.2289 16.3039 22.4964 16.2419C22.6082 16.216 22.7348 16.1877 22.7778 16.179C22.9352 16.1472 23.6686 15.9162 23.7766 15.8644C23.8378 15.8351 23.8983 15.8106 23.9113 15.8099C23.9242 15.8093 23.9347 15.9964 23.9347 16.2259ZM16.315 17.2395C16.339 17.7279 16.3226 17.7588 15.9461 17.9328C15.6451 18.0718 15.5333 18.1159 15.482 18.1159C15.4555 18.1159 15.4263 18.1276 15.4171 18.1418C15.4079 18.1561 15.3543 18.1762 15.298 18.1864C15.2417 18.1967 15.1183 18.2267 15.0237 18.2531C14.865 18.2974 14.663 18.3435 14.3045 18.4172C14.1812 18.4426 13.8218 18.5041 13.5385 18.5484C13.4299 18.5654 12.6814 18.6477 12.4285 18.6705C11.8044 18.7267 10.2723 18.7517 9.3613 18.7205C8.33606 18.6855 8.29742 18.683 7.61346 18.6085C7.14499 18.5575 7.12176 18.5544 6.72235 18.4904C6.41375 18.4408 6.27027 18.4135 5.94069 18.3414C5.82031 18.3151 5.67257 18.2829 5.61238 18.2697C5.47406 18.2396 5.26923 18.1765 5.19854 18.1422C5.16868 18.1278 5.12859 18.1159 5.10946 18.1159C5.09032 18.1159 5.02329 18.0942 4.9605 18.0677C4.3564 17.8124 4.32422 17.781 4.33704 17.4587L4.34608 17.232L4.43988 17.241C4.53099 17.2497 4.85876 17.314 5.08085 17.3665C5.17431 17.3887 5.40546 17.4257 5.92505 17.5018C6.19676 17.5416 6.8402 17.6093 7.08192 17.6235C7.2281 17.632 7.49543 17.6536 7.67599 17.6713C8.14121 17.7171 10.8291 17.7331 11.4905 17.6942C12.4082 17.6401 12.7712 17.612 13.1789 17.5633C13.8254 17.4863 13.883 17.4774 14.6519 17.338C14.7311 17.3236 14.8577 17.2962 14.9333 17.2771C15.0088 17.2579 15.1269 17.2284 15.1956 17.2115C15.5459 17.1256 15.9946 16.9801 16.1493 16.9023C16.2913 16.8308 16.2952 16.8387 16.315 17.2395ZM3.24893 17.7039C3.26091 17.8564 3.28401 17.9939 3.3003 18.0096C3.34973 18.0571 3.33351 18.1159 3.27097 18.1159C3.13146 18.1159 2.29382 17.8254 2.2776 17.7713C2.27266 17.7549 2.328 17.7169 2.4006 17.6869C2.4732 17.657 2.55418 17.6216 2.58054 17.6083C2.6069 17.5951 2.67678 17.574 2.73584 17.5616C2.79491 17.5492 2.86479 17.5286 2.89114 17.5158C2.92941 17.4972 3.08903 17.4543 3.20819 17.4305C3.2186 17.4285 3.23695 17.5515 3.24893 17.7039ZM2.56387 18.9721C2.70145 19.0171 2.84215 19.0637 2.87654 19.0756C3.01637 19.124 3.29183 19.1946 3.34089 19.1946C3.36971 19.1946 3.41774 19.2075 3.4476 19.2232C3.47746 19.2389 3.5863 19.2665 3.68948 19.2845C3.79266 19.3026 3.94743 19.3296 4.03341 19.3447C4.1194 19.3598 4.24603 19.3859 4.31481 19.4025C4.3836 19.4192 4.49966 19.4332 4.57276 19.4336C4.64587 19.434 4.70565 19.4478 4.70565 19.4643C4.70565 19.4808 4.77953 19.4944 4.8698 19.4944C4.96007 19.4945 5.08373 19.5079 5.14457 19.524C5.33364 19.5744 6.56168 19.6848 7.55092 19.7404C8.43359 19.7899 11.431 19.7903 12.1002 19.741C12.5536 19.7075 12.8589 19.6767 13.6437 19.5855C13.7875 19.5688 13.9519 19.5428 14.009 19.5277C14.136 19.4941 14.1482 19.5045 14.1482 19.6467C14.1482 19.7414 14.1279 19.776 14.0201 19.8643C13.8901 19.971 13.5889 20.1235 13.5082 20.1235C13.4839 20.1235 13.456 20.1359 13.4462 20.1512C13.4364 20.1664 13.3832 20.1883 13.3281 20.1999C13.273 20.2115 13.2063 20.2317 13.18 20.2447C13.0599 20.304 12.1707 20.513 12.0387 20.513C11.9947 20.513 11.9342 20.5255 11.9044 20.5407C11.8492 20.569 11.4956 20.6231 11.0997 20.6639C10.8823 20.6863 10.5086 20.7226 9.84903 20.7853C9.33551 20.8341 6.55326 20.8035 5.89379 20.7418C4.88515 20.6474 4.06549 20.5156 3.43934 20.3473C3.33616 20.3196 3.20953 20.2862 3.15794 20.2731C2.92988 20.2154 2.77633 20.1584 2.50856 20.032C2.15853 19.8668 2.17304 19.8967 2.17304 19.3398V18.858L2.24339 18.8741C2.28207 18.883 2.4263 18.9271 2.56387 18.9721Z" fill="#FD9149"/>
</svg>
