<svg width="18" height="19" viewBox="0 0 18 19" fill="none" xmlns="http://www.w3.org/2000/svg">
<path fill-rule="evenodd" clip-rule="evenodd" d="M7.20703 0.164088C5.35129 0.326907 3.87475 1.05657 2.5417 2.46971C1.29528 3.79097 0.484915 5.48345 0.133294 7.49979C-0.394181 10.5249 0.675047 13.9835 2.78814 16.0868C3.58228 16.8773 4.27896 17.3343 5.23326 17.6912C6.37662 18.1187 7.05086 18.1932 9.32039 18.1427C11.0013 18.1052 11.4173 18.0683 12.0174 17.9034C12.9319 17.6522 13.8856 17.2093 14.5812 16.713C17.9518 14.3077 19.0204 8.77493 16.9271 4.56639C15.7913 2.28286 14.1887 0.89553 12.0617 0.354575C11.2796 0.155664 8.53201 0.0478274 7.20703 0.164088ZM11.5565 0.929495C12.8651 1.22436 13.9299 1.85861 15.0033 2.98299C18.1348 6.26313 18.1513 11.8442 15.0396 15.3031C13.8186 16.6604 11.9071 17.5465 10.2003 17.5465C7.3851 17.5465 4.8286 15.6394 3.65384 12.6629C2.65618 10.1351 2.75825 7.43097 3.94295 4.99809C5.45984 1.88299 8.52297 0.246207 11.5565 0.929495ZM7.27292 0.916459C7.27292 1.01454 6.72806 1.22915 6.47922 1.22915C6.05471 1.22915 6.16299 1.06881 6.62998 1.00594C6.86162 0.974722 7.09112 0.935525 7.1399 0.918764C7.18867 0.902092 7.23851 0.885243 7.25075 0.88143C7.26299 0.877616 7.27292 0.893313 7.27292 0.916459ZM6.20875 1.47604C6.20875 1.51435 6.09417 1.61331 5.95414 1.69605C5.74947 1.81693 5.59738 1.83298 5.17818 1.778L4.65683 1.70962L4.92287 1.56161C5.19406 1.41077 6.20875 1.34328 6.20875 1.47604ZM5.31404 2.08279C5.334 2.10044 5.27795 2.19489 5.18945 2.29279C5.01811 2.48203 4.80537 2.50589 4.12208 2.41224L3.69561 2.3538L3.95456 2.14549C4.18487 1.96015 4.27222 1.94339 4.74551 1.99393C5.03816 2.02524 5.294 2.06523 5.31404 2.08279ZM4.54802 2.72928C4.69727 2.73637 4.69753 2.74852 4.55298 2.96907C4.40426 3.19609 4.3852 3.20009 3.73251 3.14093C3.36501 3.10759 3.04665 3.06272 3.0251 3.04126C3.00355 3.01971 3.07219 2.91028 3.17754 2.79809C3.35109 2.61346 3.41751 2.60016 3.87998 2.65798C4.16092 2.69301 4.46155 2.72511 4.54802 2.72928ZM3.61483 3.40547C4.12279 3.46808 4.16633 3.51827 3.91182 3.74867C3.76425 3.88213 3.66325 3.89011 3.10491 3.81278C2.75391 3.7641 2.44423 3.70193 2.41683 3.67444C2.38943 3.64704 2.44078 3.54301 2.53105 3.44334C2.64324 3.31936 2.76677 3.27564 2.92214 3.30508C3.04709 3.32876 3.35871 3.3739 3.61483 3.40547ZM3.39002 4.12849C3.62697 4.17575 3.62857 4.18072 3.49307 4.44268C3.35659 4.70678 3.35118 4.70837 2.80898 4.64718C2.50835 4.61322 2.15327 4.56373 2.0199 4.53713L1.77744 4.48871L1.93121 4.22533C2.08215 3.967 2.09527 3.9631 2.61716 4.02118C2.90981 4.05382 3.25762 4.10215 3.39002 4.12849ZM2.52733 4.87625C3.15085 4.96892 3.19448 4.9894 3.14215 5.16446C3.0204 5.57195 2.91664 5.60387 2.09368 5.48708C1.67439 5.42758 1.33129 5.36107 1.33129 5.33925C1.33129 5.31752 1.39221 5.18193 1.46661 5.038C1.6203 4.74083 1.61861 4.7411 2.52733 4.87625ZM2.22315 5.76492C2.85332 5.86894 2.93287 5.94414 2.72021 6.23502C2.61007 6.3856 2.54808 6.38941 1.85637 6.28832C1.44648 6.22837 1.08236 6.1615 1.04724 6.13977C1.01204 6.11805 1.02809 6.00196 1.0828 5.88171C1.19756 5.62986 1.32597 5.61673 2.22315 5.76492ZM1.90408 6.56083C2.49673 6.64898 2.57265 6.6817 2.57149 6.84905C2.56874 7.22621 2.48955 7.2482 1.64167 7.1072C1.2027 7.03421 0.817824 6.94881 0.786253 6.91742C0.754771 6.88603 0.763462 6.77056 0.805586 6.66086C0.893646 6.43154 0.981263 6.42355 1.90408 6.56083ZM1.73035 7.37732C2.34527 7.4832 2.35139 7.48702 2.37976 7.78197C2.40788 8.07453 2.40318 8.07888 2.11372 8.02762C1.95161 7.99897 1.54962 7.93007 1.22044 7.87446C0.642412 7.77683 0.621838 7.7645 0.621838 7.51637C0.621838 7.21583 0.720895 7.20342 1.73035 7.37732ZM5.5338 7.4284C4.56974 8.01618 4.41491 9.7647 5.25117 10.62C5.7594 11.1399 6.39888 11.2279 6.95012 10.8537C7.25625 10.646 7.27292 10.6437 7.27292 10.8094C7.27292 10.9443 7.3334 10.9841 7.53896 10.9841H7.80501V9.96424V8.9444H7.1399H6.47479V9.29913C6.47479 9.63416 6.4896 9.65385 6.74083 9.65385C7.02222 9.65385 7.06346 9.73721 6.91713 10.0106C6.81674 10.1982 6.32288 10.3228 6.03812 10.2324C5.46516 10.0505 5.42685 8.32913 5.99103 8.11266C6.28076 8.00155 6.57695 8.063 6.79324 8.27929C6.955 8.44105 7.10984 8.501 7.36559 8.501C7.55847 8.501 7.71633 8.45949 7.71633 8.40877C7.71633 8.17749 7.32719 7.5906 7.06984 7.43372C6.68825 7.20102 5.91096 7.19836 5.5338 7.4284ZM9.17956 7.42627C8.5227 7.72788 8.24735 8.24923 8.25036 9.18544C8.25391 10.2783 8.72498 10.8923 9.61481 10.9637C10.3662 11.0239 10.9229 10.5304 11.0862 9.65926C11.2904 8.57035 10.8328 7.58067 10.0169 7.34664C9.61987 7.23277 9.59592 7.23507 9.17956 7.42627ZM11.6183 9.14163V10.8954H12.5938H13.5693V10.4963V10.0973H12.9485H12.3277V8.77635V7.45545L11.973 7.42166L11.6183 7.38778V9.14163ZM13.924 9.10864V10.8067H14.719C15.4788 10.8067 15.5277 10.7947 15.8221 10.5362C16.1995 10.2049 16.3392 9.80762 16.335 9.07787C16.3312 8.40868 16.0861 7.85939 15.7031 7.66136C15.5608 7.58776 15.1022 7.50121 14.6842 7.4691L13.924 7.41066V9.10864ZM1.50865 8.19061C1.92323 8.2636 2.27237 8.32346 2.28461 8.32355C2.29685 8.32355 2.30678 8.46411 2.30678 8.6357C2.30678 8.91328 2.2847 8.94289 2.10725 8.90379C1.99746 8.87958 1.64832 8.81688 1.33129 8.76447C0.468154 8.62178 0.470282 8.62293 0.514357 8.32257C0.559584 8.01449 0.530674 8.01831 1.50865 8.19061ZM10.1982 8.28444C10.4107 8.49692 10.3853 9.75424 10.1635 9.99926C9.93442 10.2524 9.48684 10.2461 9.25086 9.98641C8.88576 9.58459 8.93108 8.52627 9.32704 8.20551C9.55415 8.0215 9.97326 8.05945 10.1982 8.28444ZM15.2946 8.29002C15.5015 8.36939 15.6976 8.79577 15.6976 9.16611C15.6976 9.53644 15.5015 9.96282 15.2946 10.0422C15.2156 10.0724 15.0346 10.0973 14.8922 10.0973H14.6334V9.16611V8.23495H14.8922C15.0346 8.23495 15.2156 8.25978 15.2946 8.29002ZM1.37563 9.03308C2.31955 9.20282 2.30678 9.19732 2.30678 9.43383C2.30678 9.69775 2.27441 9.70005 1.23312 9.50957C0.455739 9.36732 0.444476 9.36156 0.444476 9.10882C0.444476 8.88933 0.473298 8.85847 0.644009 8.89492C0.753796 8.91824 1.08298 8.9805 1.37563 9.03308ZM1.3437 9.79131C2.38278 9.98401 2.39546 9.98942 2.39546 10.2459C2.39546 10.4349 2.36327 10.4633 2.19593 10.4225C2.08614 10.3956 1.71705 10.3264 1.37563 10.2687C0.625031 10.1418 0.444476 10.0564 0.444476 9.82811C0.444476 9.61882 0.418759 9.6198 1.3437 9.79131ZM1.65426 10.5876C2.44663 10.7296 2.46614 10.739 2.51952 11.0057C2.5495 11.1557 2.55819 11.2943 2.53877 11.3137C2.45887 11.3936 0.6856 10.9987 0.613502 10.885C0.570847 10.8175 0.535286 10.6699 0.534488 10.5569C0.533512 10.4027 0.571911 10.3627 0.688349 10.3967C0.77366 10.4217 1.20838 10.5076 1.65426 10.5876ZM2.35112 11.5931C2.58045 11.6502 2.92719 12.0798 2.82477 12.1799C2.80809 12.1962 2.36407 12.1233 1.83792 12.0179C0.895331 11.8291 0.714865 11.7327 0.71185 11.4159C0.710608 11.2838 0.769404 11.2824 1.3978 11.3991C1.77585 11.4693 2.2048 11.5567 2.35112 11.5931ZM2.04482 12.328C2.83479 12.4963 2.95247 12.5456 3.02616 12.7394C3.07219 12.8606 3.09143 12.9782 3.06882 13.0008C3.01064 13.0589 1.21955 12.6647 1.09699 12.5668C0.936479 12.4385 0.886551 12.1369 1.02587 12.1369C1.09256 12.1369 1.55113 12.2229 2.04482 12.328ZM2.19744 13.1179C3.36217 13.3645 3.33051 13.3522 3.44615 13.606C3.50238 13.7294 3.54831 13.8483 3.54831 13.8704C3.54831 13.9447 3.29353 13.9115 2.39431 13.7201C1.59228 13.5493 1.4863 13.5038 1.3711 13.281C1.15729 12.8676 1.08396 12.882 2.19744 13.1179ZM3.96565 14.5126C4.07322 14.641 4.14611 14.7612 4.12767 14.7796C4.05956 14.8477 1.99781 14.3398 1.92891 14.2379C1.65169 13.8282 1.63804 13.8313 2.73032 14.0608C3.59806 14.243 3.80239 14.3178 3.96565 14.5126ZM3.42806 14.9361C4.18753 15.1121 4.46475 15.2167 4.62526 15.3881L4.83419 15.6112L4.52381 15.552C3.25318 15.3098 2.53886 15.0907 2.41586 14.9055C2.25304 14.6603 2.23548 14.6597 3.42806 14.9361ZM4.1501 15.7391C5.02246 15.9341 5.23157 16.0141 5.45496 16.2389C5.60128 16.386 5.66114 16.4863 5.58798 16.4616C5.51482 16.437 4.99027 16.3089 4.42236 16.1771C3.63921 15.9952 3.3408 15.8852 3.18747 15.722C3.07627 15.6036 3.01366 15.5068 3.04833 15.5068C3.083 15.5068 3.57882 15.6113 4.1501 15.7391ZM5.24354 16.6208C6.06003 16.8046 7.00688 17.1774 7.00688 17.3152C7.00688 17.3303 6.51736 17.2387 5.91903 17.1119C5.20913 16.9615 4.69292 16.7978 4.43362 16.6409C4.21493 16.5087 4.08058 16.3989 4.13503 16.3971C4.18939 16.3952 4.68822 16.4959 5.24354 16.6208Z" fill="url(#paint0_linear_325_2335)"/>
<defs>
<linearGradient id="paint0_linear_325_2335" x1="9" y1="0.116211" x2="9" y2="18.1565" gradientUnits="userSpaceOnUse">
<stop stop-color="#FFD588"/>
<stop offset="1" stop-color="#FFD588" stop-opacity="0"/>
</linearGradient>
</defs>
</svg>
