<svg width="17" height="17" viewBox="0 0 17 17" fill="none" xmlns="http://www.w3.org/2000/svg">
<path d="M5.79151 0.214091C5.38812 0.675108 4.98473 1.35703 5.01354 1.55872C5.03275 1.66437 5.11919 1.80844 5.20563 1.86607C5.33049 1.9429 5.42654 1.91409 5.61863 1.73161L5.85874 1.5107V2.94177C5.85874 4.24799 5.87795 4.41127 6.07964 4.74742C6.46382 5.43895 6.74236 5.52539 8.49998 5.52539C10.2576 5.52539 10.5361 5.43895 10.9203 4.74742C11.122 4.41127 11.1412 4.24799 11.1412 2.94177V1.5107L11.3813 1.73161C11.5734 1.91409 11.6695 1.9429 11.7943 1.86607C12.0633 1.69319 12.0344 1.37624 11.7079 0.896012C11.0548 -0.0836487 11.3525 0.00279188 8.49998 0.00279188C6.01241 0.00279188 5.9836 0.00279188 5.79151 0.214091ZM10.3729 2.49036C10.3729 4.18076 10.3633 4.22878 10.1424 4.4881L9.91185 4.75703H8.49998H7.08812L6.85761 4.4881C6.63671 4.22878 6.6271 4.18076 6.6271 2.49036V0.771153H8.49998H10.3729V2.49036Z" fill="black"/>
<path d="M3.46724 3.9207C2.89097 4.53539 2.18024 5.89923 2.22826 6.30262C2.24747 6.52352 2.3051 6.59075 2.5164 6.60996C2.7469 6.63878 2.80453 6.57155 3.15029 5.8416C3.36159 5.39979 3.72657 4.7851 3.97628 4.47776C4.226 4.16081 4.40849 3.86307 4.38928 3.81505C4.37007 3.75742 4.26442 3.65177 4.13956 3.57494C3.93787 3.44047 3.90905 3.45008 3.46724 3.9207Z" fill="black"/>
<path d="M12.8893 3.76621C12.7068 3.9487 12.7452 4.06395 13.2543 4.69785C13.5136 5.0244 13.8786 5.61028 14.0706 6.01367C14.3876 6.67638 14.4356 6.73401 14.6757 6.70519C14.8774 6.68598 14.9447 6.61875 14.9639 6.41706C15.0311 5.82158 13.6673 3.65096 13.2254 3.65096C13.1006 3.65096 12.9565 3.69898 12.8893 3.76621Z" fill="black"/>
<path d="M0.979661 8.6177C0.787571 8.69454 0 9.85669 0 10.0584C0 10.2697 0.172881 10.4714 0.355367 10.4714C0.422599 10.4714 0.557062 10.3753 0.662712 10.2697C0.854802 10.068 0.854802 10.068 0.883616 11.5855C0.912429 13.0166 0.922034 13.1318 1.14294 13.4392C1.53672 13.9962 1.96893 14.1211 3.50565 14.1211C5.04237 14.1211 5.47458 13.9962 5.86836 13.4392C6.07966 13.1318 6.09887 13.0166 6.12768 11.5951C6.1661 10.0776 6.1661 10.068 6.34859 10.2697C6.45424 10.3849 6.5887 10.4714 6.65593 10.4714C6.83842 10.4714 7.0113 10.2697 7.0113 10.0584C7.0113 9.83748 6.30057 8.78098 6.05085 8.64652C5.86836 8.55047 1.21977 8.52166 0.979661 8.6177ZM5.37853 10.9996C5.37853 12.7861 5.3209 13.0646 4.92712 13.2471C4.62938 13.3815 2.38192 13.3815 2.08418 13.2471C1.6904 13.0646 1.63277 12.7861 1.63277 10.9996V9.31883H3.50565H5.37853V10.9996Z" fill="black"/>
<path d="M10.9779 8.6169C10.7666 8.69373 9.98865 9.8943 9.98865 10.1344C9.98865 10.4898 10.4401 10.5762 10.6706 10.2689C10.8338 10.048 10.8434 10.0768 10.8723 11.5943C10.9011 13.2847 10.9395 13.4096 11.5638 13.8706C11.8039 14.0531 11.9576 14.0723 13.4943 14.0723C15.031 14.0723 15.1847 14.0531 15.4248 13.8706C16.0491 13.4096 16.0875 13.2847 16.1163 11.5943C16.1451 10.0768 16.1547 10.048 16.318 10.2689C16.5581 10.5858 16.9999 10.4898 16.9999 10.1248C16.9999 9.84628 16.2316 8.70334 15.9915 8.60729C15.809 8.54006 11.1508 8.54006 10.9779 8.6169ZM15.3672 11.0949C15.3672 12.8621 15.3672 12.8813 15.1271 13.1118C14.9062 13.3423 14.8581 13.3519 13.4943 13.3519C12.1305 13.3519 12.0824 13.3423 11.8615 13.1118C11.6214 12.8813 11.6214 12.8621 11.6214 11.0949V9.31803H13.4943H15.3672V11.0949Z" fill="black"/>
<path d="M6.35817 15.0043C6.29094 15.0716 6.24292 15.2156 6.24292 15.3405C6.24292 15.619 6.49264 15.7247 7.63558 15.9264C8.5288 16.0801 9.5949 16.0128 10.4881 15.7535C10.9683 15.619 11.1124 15.3405 10.8627 15.0908C10.6802 14.9083 10.6514 14.9083 10.1135 15.062C9.37399 15.2637 7.71241 15.2541 7.0593 15.0428C6.48303 14.8603 6.50224 14.8603 6.35817 15.0043Z" fill="black"/>
</svg>
