<svg width="18" height="20" viewBox="0 0 18 20" fill="none" xmlns="http://www.w3.org/2000/svg">
<path d="M0.169014 1.08385C0 1.25286 0 1.36272 0 10.2022V19.1599L0.185915 19.2867C0.346479 19.405 0.769014 19.4219 3.09296 19.4219C5.61127 19.4219 5.81408 19.4134 5.94084 19.2698C6.10986 19.0838 6.12676 18.7374 5.9831 18.5937C5.90704 18.5176 5.22253 18.4923 3.40563 18.4923H0.929577V10.1684V1.84441H7.26761H13.6056V4.27821C13.6056 6.53455 13.6141 6.72892 13.7577 6.85568C13.9437 7.02469 14.2901 7.04159 14.4338 6.89793C14.5099 6.82188 14.5352 6.06131 14.5352 3.99089C14.5352 1.17681 14.5352 1.17681 14.3493 1.05005C14.1803 0.931736 13.369 0.914833 7.2507 0.914833C0.447887 0.914833 0.338028 0.914833 0.169014 1.08385Z" fill="black"/>
<path d="M7.5971 5.85061L7.39429 5.95201L7.36894 10.6253C7.35203 14.8929 7.36049 15.3238 7.48725 15.4675C7.67316 15.6619 7.96049 15.6619 8.13795 15.4675C8.26471 15.3238 8.28161 14.876 8.28161 10.7098C8.28161 7.15201 8.25626 6.07032 8.1802 5.96891C8.01964 5.77455 7.82527 5.7323 7.5971 5.85061Z" fill="black"/>
<path d="M4.27614 9.38199C4.07332 9.66932 4.07332 15.1454 4.27614 15.4327C4.41135 15.6355 4.64797 15.6693 4.90994 15.5341C5.06205 15.4496 5.0705 15.3228 5.0705 12.4073C5.0705 9.49185 5.06205 9.36509 4.90994 9.28059C4.64797 9.14538 4.41135 9.17918 4.27614 9.38199Z" fill="black"/>
<path d="M11.4254 10.6084C11.3324 10.693 11.0197 11.0986 10.724 11.5211L10.1831 12.2817V15.5183C10.1831 18.6282 10.1916 18.7634 10.3437 18.8817C10.4789 18.9831 11.1296 19 14.0704 19C17.1465 19 17.6535 18.9831 17.8141 18.8648L18 18.738V15.5268V12.3239L17.3662 11.462C17.0113 10.9803 16.6648 10.5662 16.5803 10.5324C16.5042 10.4986 15.3465 10.4732 14.0197 10.4732C11.8225 10.4648 11.5775 10.4817 11.4254 10.6084ZM16.3775 11.707L16.5887 11.9859H14.0789H11.5775L11.7634 11.6901L11.9578 11.3944L14.062 11.4113L16.1578 11.4366L16.3775 11.707ZM17.0704 15.493V18.0704L14.0958 18.0535L11.1127 18.0282L11.0873 15.5775C11.0789 14.2338 11.0873 13.0845 11.1127 13.0254C11.138 12.9408 11.8056 12.9155 14.1127 12.9155H17.0704V15.493Z" fill="black"/>
<path d="M12.2197 13.8951C12.0422 14.0726 12.0506 14.3768 12.2366 14.5458C12.3718 14.6726 12.6253 14.6895 13.969 14.6895C15.6844 14.6895 15.8028 14.6557 15.8028 14.1909C15.8028 13.7768 15.7182 13.7599 13.9774 13.7599C12.6084 13.7599 12.3295 13.7852 12.2197 13.8951Z" fill="black"/>
</svg>
