<svg width="15" height="13" viewBox="0 0 15 13" fill="none" xmlns="http://www.w3.org/2000/svg">
<path d="M0.885897 0.0400295C0.592233 0.113445 0.278547 0.353716 0.138389 0.60066C0.0316026 0.79421 0.0249285 1.22136 0.00490595 5.91997C-0.00844239 9.35717 0.00490595 11.1058 0.0516251 11.266C0.151738 11.6064 0.371985 11.8533 0.685671 12.0001C0.945964 12.1203 1.273 12.127 7.5 12.127C13.727 12.127 14.054 12.1203 14.3143 12.0001C14.628 11.8533 14.8483 11.6064 14.9484 11.266C14.9951 11.1058 15.0084 9.35717 14.9951 5.91997C14.9751 0.173513 15.0084 0.560615 14.4612 0.193536L14.1808 0.0133324L7.64016 -1.52588e-05C4.03611 -1.52588e-05 0.999357 0.0133324 0.885897 0.0400295ZM13.8605 2.02893L13.8805 2.9166H7.5H1.12617V2.0623C1.12617 1.58844 1.14619 1.18131 1.17289 1.16129C1.19291 1.13459 4.05613 1.12125 7.5267 1.12792L13.8405 1.14794L13.8605 2.02893ZM2.32752 4.61851V5.18582H1.72684H1.12617V4.61851V4.05121H1.72684H2.32752V4.61851ZM9.26866 4.61851V5.18582H6.36539H3.46213V4.61851V4.05121H6.36539H9.26866V4.61851ZM13.8738 4.61851V5.18582H12.1385H10.4033V4.61851V4.05121H12.1385H13.8738V4.61851ZM2.32752 6.9211V7.52178H1.72684H1.12617V6.9211V6.32042H1.72684H2.32752V6.9211ZM9.25531 6.93445L9.27533 7.52178H6.36539H3.46213V6.9211V6.32042L6.35204 6.33377L9.23528 6.3538L9.25531 6.93445ZM13.8738 6.9211V7.52178H12.1385H10.4033V6.9211V6.32042H12.1385H13.8738V6.9211ZM13.8738 9.82436V10.9923H7.5H1.12617V9.82436V8.65638H7.5H13.8738V9.82436Z" fill="black"/>
<path d="M9.43541 9.42482C9.3353 9.52494 9.26855 9.66509 9.26855 9.78523C9.26855 10.3525 9.39536 10.3926 11.3042 10.3926H12.886L13.0795 10.199C13.193 10.0789 13.2731 9.93206 13.2731 9.82527C13.2731 9.71849 13.193 9.57166 13.0795 9.45152L12.886 9.25797H11.2374H9.59559L9.43541 9.42482Z" fill="black"/>
</svg>
