<svg width="23" height="21" viewBox="0 0 23 21" fill="none" xmlns="http://www.w3.org/2000/svg">
<path d="M6.72837 0.822319C4.1308 1.72923 3.96286 1.95316 4.70182 3.54304L5.0825 4.36038L4.52268 4.89781C4.22038 5.20011 3.79491 5.71515 3.58218 6.02864C3.36945 6.35334 3.14552 6.62205 3.10074 6.62205C3.05595 6.62205 2.63049 6.52129 2.16024 6.39813C0.69351 6.02864 0.424797 6.25257 0.122494 8.11117C-0.179809 9.91379 -0.00066646 10.1825 1.55563 10.3169C2.02588 10.3616 2.45134 10.4176 2.47374 10.4512C2.50733 10.4848 2.60809 10.8095 2.69767 11.1678C2.79843 11.5261 3.02236 12.1531 3.2127 12.5449L3.55979 13.2503L2.888 13.9445C1.76836 15.0865 1.81315 15.3664 3.2239 16.5421C4.04123 17.225 4.28755 17.3706 4.61225 17.3706C5.18327 17.3706 5.3736 17.225 5.89984 16.4413C6.15735 16.0606 6.38128 15.7247 6.40367 15.7135C6.41487 15.6911 6.85153 15.7807 7.35537 15.9039C7.8704 16.0382 8.54219 16.139 8.85568 16.139H9.4267L9.63943 17.0123C9.88575 18.0088 10.2552 18.4902 10.7927 18.4902C10.9718 18.4902 11.5988 18.3111 12.1698 18.0984C13.8269 17.4826 14.0172 17.0907 13.3566 15.6463L12.976 14.8402L13.4574 14.4259C13.7261 14.1908 14.1516 13.6758 14.4203 13.2727C14.6778 12.8808 14.9465 12.5673 15.0137 12.5897C15.0697 12.6233 15.5175 12.7241 15.9878 12.8361C17.3761 13.1607 17.6337 12.9368 17.9472 11.1342C18.2495 9.36517 18.0143 9.01808 16.458 8.89492L15.5399 8.82774L15.4056 8.17835C15.3272 7.82007 15.1033 7.19307 14.8905 6.76761L14.5211 6.00625L15.1816 5.33447C16.2565 4.23722 16.2117 3.77817 14.9241 2.7369C13.9724 1.95316 13.7485 1.8188 13.4238 1.8076C12.9648 1.8076 12.6625 2.04273 12.125 2.81528L11.5988 3.58783L11.1174 3.41988C10.8598 3.33031 10.1993 3.18476 9.65063 3.11758C8.53099 2.96083 8.66535 3.09519 8.29587 1.77401C8.16151 1.25898 8.03835 1.07984 7.75844 0.91189C7.35537 0.665569 7.22101 0.654373 6.72837 0.822319ZM7.78083 2.07632C7.89279 2.4458 8.02715 2.91605 8.06074 3.11758C8.16151 3.55424 8.38544 3.75578 8.68774 3.6774C9.03483 3.58783 10.3896 3.78936 11.1062 4.04688C11.8675 4.3044 11.7891 4.34918 12.5729 3.20715C12.8976 2.72571 13.1999 2.41221 13.3454 2.38981C13.6142 2.35623 15.3272 3.76697 15.3832 4.08047C15.4056 4.20363 15.1145 4.59551 14.6218 5.09934L13.8157 5.92788L14.2747 6.86837C14.5323 7.38341 14.7898 8.09998 14.8681 8.46946C14.9353 8.83894 15.0361 9.19722 15.0921 9.2644C15.1369 9.33158 15.6519 9.42115 16.2117 9.46594C16.7827 9.51072 17.309 9.6003 17.3985 9.67867C17.5665 9.81303 17.5441 10.0593 17.2978 11.5261C17.1298 12.4554 16.9955 12.5226 15.8758 12.2203C15.4056 12.0971 14.9241 11.9627 14.8234 11.9291C14.689 11.8956 14.4987 12.0859 14.1404 12.6345C13.6253 13.4295 13.5022 13.5638 12.7408 14.2692C12.2146 14.7394 12.2146 14.6947 12.8192 15.9039C13.1887 16.6316 13.2447 16.9451 13.0319 17.1131C12.7072 17.3482 10.9158 17.9416 10.7031 17.8744C10.5463 17.8296 10.4232 17.5833 10.2552 17.0011C10.1209 16.5533 9.97532 16.0718 9.93054 15.9151C9.85216 15.6463 9.78499 15.6352 8.84449 15.568C8.29587 15.5232 7.53451 15.3888 7.15383 15.2545C6.77315 15.1201 6.39248 15.0194 6.3141 15.0194C6.23573 15.0305 5.89984 15.4336 5.56394 15.9151C5.11609 16.5868 4.89216 16.8108 4.71302 16.8108C4.34354 16.8108 2.64168 15.4 2.64168 15.0977C2.64168 15.0417 2.99997 14.6275 3.42543 14.1908C3.86209 13.743 4.20918 13.3399 4.20918 13.2951C4.20918 13.2503 4.00764 12.7913 3.76132 12.2986C3.515 11.7948 3.25749 11.0782 3.19031 10.7087C3.11193 10.3393 3.02236 10.0034 2.97758 9.94738C2.94399 9.9026 2.44015 9.82422 1.86913 9.76824C0.447189 9.63388 0.435993 9.62269 0.671117 8.23433C0.783081 7.62973 0.917438 7.06991 0.984617 6.99153C1.14137 6.79 1.43247 6.81239 2.41776 7.06991C2.87681 7.19307 3.31347 7.29384 3.39184 7.29384C3.45902 7.29384 3.68295 7.00273 3.87329 6.64445C4.07482 6.29736 4.58986 5.65916 5.02652 5.2449L5.82146 4.47235L5.35121 3.53185C4.83618 2.49058 4.80259 2.34503 5.04891 2.14349C5.32882 1.90837 7.14264 1.27018 7.36656 1.32616C7.50092 1.37094 7.63528 1.61726 7.78083 2.07632Z" fill="black"/>
<path d="M7.60174 5.48126C6.43732 5.89552 5.63118 6.64568 5.08256 7.8213C4.53393 8.97453 4.53393 10.8443 5.07136 10.7436C5.22811 10.71 5.2617 10.5532 5.27289 9.7023C5.28409 8.85137 5.32888 8.59385 5.58639 8.05643C5.97827 7.26148 6.60527 6.61209 7.36662 6.20902C7.89285 5.92911 8.07199 5.89552 9.02369 5.89552C9.9082 5.89552 10.1769 5.94031 10.6024 6.15304C11.4421 6.56731 12.0019 7.12713 12.405 7.94446C12.7409 8.61625 12.7745 8.78419 12.7745 9.64632C12.7633 10.7883 12.5282 11.393 11.7668 12.2103C10.6808 13.3747 8.93412 13.7218 7.51217 13.0724C7.05312 12.8709 6.62766 12.5462 6.2022 12.0871C5.77673 11.6393 5.50802 11.4377 5.38486 11.4713C5.06016 11.6057 5.21691 11.908 5.97827 12.6581C6.53809 13.2292 6.88518 13.4755 7.38901 13.6658C9.63949 14.5056 11.9683 13.5874 12.976 11.4601C13.3007 10.7772 13.3343 10.6204 13.3343 9.59033C13.3343 8.61625 13.2895 8.39232 13.032 7.8325C12.6177 6.93679 11.834 6.13065 10.9495 5.70518C10.3225 5.39169 10.0873 5.3357 9.20283 5.31331C8.43028 5.27972 8.0496 5.32451 7.60174 5.48126Z" fill="black"/>
<path d="M18.1598 13.4078C17.9246 13.4974 17.6559 13.6205 17.5776 13.6877C17.3984 13.8332 17.376 14.3259 17.5216 14.561C17.5999 14.673 17.5328 14.8409 17.3424 15.0984C17.0737 15.4455 17.0065 15.4791 16.6371 15.4119C16.0996 15.3224 15.8645 15.5911 15.7749 16.386C15.7078 17.0578 15.8085 17.2146 16.3571 17.2817C16.6371 17.3041 16.7154 17.3937 16.861 17.7856C17.0177 18.2446 17.0065 18.267 16.7602 18.5357C16.4243 18.894 16.5027 19.2299 17.0401 19.6554C17.5552 20.0584 17.9358 20.0696 18.2493 19.6778C18.4621 19.4091 18.5292 19.3867 18.9099 19.465C19.2346 19.5322 19.369 19.6442 19.5257 19.9465C19.7608 20.4167 20.052 20.4839 20.7349 20.2264C21.2836 20.0137 21.4515 19.6778 21.2388 19.1963C21.1268 18.9612 21.1492 18.8716 21.4067 18.5693C21.6642 18.267 21.765 18.2222 22.1793 18.2558C22.7391 18.2894 22.8623 18.1439 22.9742 17.3265C23.0638 16.7219 22.9294 16.5092 22.4032 16.4084C22.1121 16.3524 22.0001 16.2629 21.877 15.927C21.7202 15.5239 21.7202 15.4903 21.9665 15.1992C22.336 14.7737 22.3024 14.6058 21.765 14.102C21.2164 13.5981 20.8917 13.5645 20.5334 13.99C20.2983 14.2699 20.2311 14.2923 19.8056 14.2027C19.4473 14.1355 19.3354 14.0572 19.2794 13.8444C19.201 13.5421 18.9211 13.2286 18.7308 13.2398C18.6524 13.2398 18.3949 13.3182 18.1598 13.4078ZM18.8092 14.3147C18.9211 14.7178 18.9883 14.7513 19.94 14.8521C20.6006 14.9193 20.6118 14.9193 20.8245 14.5722L21.026 14.2139L21.3171 14.505L21.6083 14.7961L21.2948 15.1208C20.9813 15.4455 20.9813 15.4455 21.1828 15.815C21.2836 16.0277 21.4067 16.3412 21.4515 16.5316C21.5075 16.8227 21.5747 16.8787 21.9553 16.9235C22.2241 16.957 22.4032 17.0354 22.392 17.1138C22.3808 17.1922 22.3696 17.3601 22.3696 17.4833C22.3472 17.6736 22.2912 17.696 21.8658 17.64C21.4179 17.5728 21.3619 17.5952 21.1828 17.8863C21.0708 18.0655 20.8469 18.323 20.6901 18.4574C20.4102 18.6925 20.4102 18.7037 20.5782 19.1515L20.7573 19.5994L20.4102 19.7114C20.2311 19.7785 20.0632 19.8233 20.052 19.8121C20.0408 19.7897 19.9848 19.5994 19.9288 19.3867C19.828 19.0284 19.772 18.9836 19.3242 18.9276C19.0443 18.894 18.686 18.8268 18.5292 18.7821C18.2829 18.7149 18.1934 18.7597 17.947 19.0732L17.6559 19.4426L17.4096 19.1963L17.1633 18.95L17.4544 18.6029L17.7567 18.2558L17.5328 17.8192C17.4096 17.5728 17.3088 17.2817 17.3088 17.1586C17.3088 16.8899 16.9953 16.6995 16.5923 16.6995C16.29 16.6995 16.2564 16.5988 16.3683 16.1845C16.4243 15.9606 16.4691 15.9494 16.8274 16.0501C17.0513 16.1061 17.2641 16.1173 17.3088 16.0613C17.3536 16.0165 17.5999 15.7254 17.8687 15.4343L18.3501 14.8969L18.171 14.5162C18.003 14.1579 18.003 14.1244 18.1822 14.0124C18.4845 13.8332 18.6972 13.934 18.8092 14.3147Z" fill="black"/>
<path d="M18.4286 15.2671C17.8688 15.659 17.6113 16.0621 17.6001 16.6107C17.5889 17.0137 17.6225 17.0921 17.8128 17.0921C17.9583 17.0921 18.0479 16.9914 18.0927 16.7562C18.2495 16.0285 18.7309 15.5806 19.3803 15.5806C20.4439 15.5806 21.0598 16.9802 20.2984 17.6855C19.7274 18.223 19.1004 18.2454 18.5182 17.7639C18.1711 17.4728 17.8688 17.4952 17.8688 17.8199C17.8688 18.2677 18.9324 18.794 19.6154 18.682C21.0038 18.4581 21.6756 16.8346 20.8358 15.7374C20.276 14.9984 19.1452 14.7857 18.4286 15.2671Z" fill="black"/>
</svg>
