<svg width="32" height="31" viewBox="0 0 32 31" fill="none" xmlns="http://www.w3.org/2000/svg">
<path fill-rule="evenodd" clip-rule="evenodd" d="M1.17909 0.0403007C0.709829 0.189371 0.320101 0.521675 0.140087 0.926182C-0.0746915 1.40889 -0.0367379 3.39974 0.214431 4.82812C0.484733 6.36504 0.990448 7.84981 1.72226 9.25498L2.1797 10.1333L2.17983 12.1036L2.17989 14.0739L1.72657 14.0759C1.03984 14.0789 0.543758 14.3661 0.215307 14.9507C-0.151099 15.6029 -0.0433033 16.355 0.50518 16.9731C1.03403 17.5691 2.20246 18.2925 2.63633 18.2925C3.05351 18.2925 4.01479 17.711 4.6253 17.0894C5.09582 16.6103 5.19661 16.4047 5.23025 15.8548C5.25351 15.4753 5.23437 15.3441 5.11745 15.0807C4.83214 14.4383 4.04643 13.9752 3.38965 14.0624L3.11779 14.0985L3.11979 12.7822L3.12173 11.4659L3.25991 11.6476C4.03843 12.6715 5.40088 13.9551 6.60364 14.7977L7.11949 15.1591V16.9035V18.648L6.81542 18.6089C6.07861 18.5142 5.26933 19.0211 5.02654 19.7292C4.88479 20.1426 4.92224 20.6938 5.11726 21.0641C5.31003 21.4302 5.79192 21.9088 6.32715 22.2659C7.32945 22.9346 7.57418 22.968 8.35207 22.5424C9.05531 22.1576 9.74642 21.531 9.99152 21.0558C10.3466 20.3673 10.2202 19.6408 9.649 19.0875C9.26902 18.7194 8.78963 18.5443 8.32925 18.6054L8.05739 18.6415V17.1839C8.05739 16.3821 8.07852 15.7356 8.10428 15.747C8.13004 15.7585 8.4393 15.9108 8.79138 16.0854C10.6369 17.001 12.7449 17.5626 14.8884 17.71L15.498 17.7518V19.8939C15.498 21.072 15.4892 22.0359 15.4785 22.0359C15.4677 22.0359 15.3116 21.9671 15.1316 21.8829C14.0861 21.3943 12.7422 21.4755 11.7732 22.0858C10.138 23.1157 9.55827 25.0899 10.3918 26.7902C10.7892 27.6009 11.8484 28.6707 13.1425 29.5682C14.2479 30.3348 15.5664 30.9985 15.987 31C16.601 31.0022 18.7113 29.7819 19.9687 28.6974C20.2438 28.4602 20.6593 28.0568 20.892 27.8011C21.5852 27.0391 22.0751 25.9186 21.8885 25.5218C21.7906 25.3136 21.5319 25.219 21.3069 25.3093C21.1321 25.3795 21.0899 25.4557 20.9062 26.0332C20.749 26.5273 20.5372 26.8378 19.9484 27.4372C19.0438 28.3581 17.7296 29.2926 16.5709 29.8386L15.9868 30.1139L15.3829 29.8238C13.5949 28.9649 11.7331 27.4224 11.2227 26.3771C10.5503 25.0001 11.1728 23.3384 12.6056 22.6855C12.9814 22.5143 13.0906 22.4928 13.591 22.4916C14.3043 22.4898 14.5476 22.5636 15.1858 22.9751C15.6297 23.2612 15.7437 23.3079 15.9983 23.3079C16.2528 23.3079 16.3668 23.2612 16.8107 22.9751C17.4493 22.5634 17.6915 22.49 18.4101 22.4909C18.9378 22.4914 19.0102 22.5072 19.4465 22.7161C19.9062 22.9361 20.2626 23.2463 20.7061 23.812C20.9297 24.0974 21.2319 24.1236 21.4335 23.8752C21.6131 23.654 21.5965 23.5057 21.3529 23.1557C20.6888 22.2015 19.6943 21.6428 18.5306 21.5701C17.8696 21.5288 17.2891 21.6613 16.5454 22.0232C16.5196 22.0357 16.4985 21.0798 16.4985 19.8989V17.7518L17.1081 17.71C19.2651 17.5617 21.3795 16.9942 23.2606 16.0586C23.5822 15.8986 23.8664 15.7584 23.8922 15.747C23.918 15.7356 23.9391 16.3821 23.9391 17.1839V18.6415L23.6673 18.6054C23.2069 18.5443 22.7275 18.7194 22.3475 19.0875C21.7769 19.6403 21.6499 20.3674 22.0042 21.0541C22.3825 21.7875 23.8005 22.8234 24.4262 22.8234C25.062 22.8234 26.4934 21.7968 26.8792 21.0641C27.0743 20.6938 27.1117 20.1426 26.97 19.7292C26.7272 19.0211 25.9179 18.5142 25.1811 18.6089L24.877 18.648V16.9035V15.1591L25.3929 14.7977C26.5956 13.9551 27.9581 12.6715 28.7366 11.6476L28.8748 11.4659L28.8767 12.7822L28.8787 14.0985L28.6069 14.0624C27.9684 13.9776 27.1987 14.4175 26.9008 15.0374C26.7096 15.4351 26.6991 16.0701 26.8774 16.4506C27.2048 17.1495 28.7455 18.2925 29.3602 18.2925C29.794 18.2925 30.9625 17.5691 31.4913 16.9731C32.0398 16.355 32.1476 15.6029 31.7812 14.9507C31.4528 14.3661 30.9567 14.0789 30.2699 14.0759L29.8166 14.0739L29.8167 12.1036L29.8168 10.1333L30.2743 9.25498C31.463 6.97247 32.0788 4.34923 31.9919 1.93775C31.9611 1.08076 31.8809 0.817635 31.5485 0.481697C30.7889 -0.286007 29.5444 -0.111798 29.0507 0.831446C28.8879 1.14231 28.8787 1.20439 28.8787 1.99063C28.8787 6.41338 26.8128 10.2272 23.1111 12.6377C20.292 14.4736 16.6169 15.14 13.2471 14.4264C10.0597 13.7514 7.16482 11.8638 5.37387 9.2926C5.20299 9.04728 5.01703 8.8294 4.96076 8.8085C4.62887 8.68511 4.30579 8.87683 4.30579 9.19714C4.30579 9.55839 5.3648 10.892 6.46934 11.9217C8.19032 13.5261 10.277 14.6456 12.6178 15.2205C14.5159 15.6866 16.7648 15.74 18.7078 15.3651C22.3359 14.6651 25.5544 12.5385 27.6161 9.47898C28.0291 8.86616 28.6362 7.70867 28.9121 7.00833C29.4657 5.60303 29.7438 4.17653 29.7966 2.4708C29.8167 1.82115 29.8584 1.24219 29.8893 1.18422C29.9202 1.12632 30.0324 1.03527 30.1387 0.982031C30.3884 0.856947 30.6876 0.909888 30.8852 1.11402C31.034 1.26781 31.0358 1.28441 31.0311 2.43058C31.022 4.6235 30.569 6.54943 29.6038 8.49782C27.6114 12.5201 23.93 15.4196 19.531 16.431C18.2101 16.7347 17.6256 16.7949 15.9983 16.7949C14.4115 16.7949 13.8156 16.7364 12.5771 16.4591C6.94685 15.1986 2.39498 10.733 1.25125 5.34802C1.03678 4.33808 0.969064 3.64658 0.96475 2.42064L0.960623 1.24982L1.16483 1.07289C1.27713 0.975549 1.44033 0.895896 1.52743 0.895896C1.73476 0.895896 2.03433 1.04848 2.11549 1.19543C2.15094 1.25952 2.17989 1.64767 2.17995 2.05793C2.18008 3.83811 2.47583 5.44645 3.0969 7.04406C3.3894 7.79662 3.63695 7.96453 4.02167 7.67136C4.2427 7.50291 4.22432 7.37364 3.8164 6.22633C3.32012 4.83078 3.11835 3.60963 3.11716 1.99493C3.1166 1.25552 3.10109 1.13631 2.96979 0.863126C2.82004 0.551538 2.56455 0.300099 2.22478 0.129888C2.00382 0.0192213 1.4065 -0.031963 1.17909 0.0403007ZM2.1752 15.1274C2.49171 15.3457 2.69436 15.3479 3.07433 15.1374C3.45731 14.925 3.60443 14.9076 3.87398 15.0427C4.25633 15.2342 4.42009 15.7705 4.21407 16.1564C4.09233 16.3846 3.465 16.9279 3.02969 17.1823C2.70167 17.374 2.66785 17.3815 2.47877 17.3057C2.11961 17.1616 1.29495 16.5134 1.10862 16.2288C0.901285 15.912 0.88259 15.6674 1.0436 15.3766C1.27363 14.9611 1.77434 14.8508 2.1752 15.1274ZM28.9222 15.1374C29.3022 15.3479 29.5048 15.3457 29.8213 15.1274C30.2222 14.8508 30.7229 14.9611 30.9529 15.3766C31.1139 15.6674 31.0952 15.912 30.8879 16.2288C30.7016 16.5134 29.8769 17.1616 29.5177 17.3057C29.3287 17.3815 29.2948 17.374 28.9668 17.1823C28.5315 16.9279 27.9042 16.3846 27.7824 16.1564C27.6706 15.9469 27.6651 15.5769 27.7707 15.3747C27.8721 15.1806 28.2293 14.9489 28.427 14.9489C28.5123 14.9489 28.7352 15.0337 28.9222 15.1374ZM7.09216 19.6657C7.38241 19.8869 7.58725 19.887 8.03144 19.6663C8.4251 19.4708 8.44086 19.4681 8.69728 19.5546C9.23563 19.7363 9.41427 20.3381 9.0675 20.8018C8.8551 21.0859 8.40247 21.4604 7.93858 21.7358L7.60088 21.9364L7.28206 21.7744C6.86357 21.5618 6.29983 21.1294 6.08455 20.856C5.8517 20.5602 5.81256 20.1435 5.99176 19.867C6.23186 19.4964 6.74645 19.4023 7.09216 19.6657ZM24.0014 19.6829C24.2579 19.8667 24.619 19.8679 24.8731 19.6859C25.1345 19.4987 25.3746 19.4639 25.646 19.5737C26.0816 19.75 26.2499 20.2697 26.0121 20.7043C25.8688 20.9659 25.1742 21.5415 24.7288 21.7673L24.3956 21.9364L24.0579 21.7358C23.594 21.4604 23.1414 21.0859 22.929 20.8018C22.365 20.0477 23.2384 19.1365 24.0014 19.6829ZM12.4422 23.8862C11.9049 24.3242 11.7334 25.3059 12.0762 25.9821C12.2846 26.3932 12.3801 26.4779 12.6351 26.4779C12.7705 26.4779 12.8751 26.4262 12.981 26.3069C13.1502 26.1164 13.1452 26.0413 12.9326 25.573C12.762 25.1973 12.793 24.9532 13.0599 24.5718C13.2831 24.2526 13.2959 24.0398 13.1024 23.8636C12.9106 23.6891 12.674 23.6972 12.4422 23.8862Z" fill="url(#paint0_linear_329_902)"/>
<defs>
<linearGradient id="paint0_linear_329_902" x1="16" y1="0" x2="16" y2="31" gradientUnits="userSpaceOnUse">
<stop stop-color="#FD9149"/>
<stop offset="1" stop-color="#FFD588"/>
</linearGradient>
</defs>
</svg>
