<svg width="25" height="27" viewBox="0 0 25 27" fill="none" xmlns="http://www.w3.org/2000/svg">
<path fill-rule="evenodd" clip-rule="evenodd" d="M1.63171 0.0171708C0.996566 0.119309 0.307762 0.722197 0.0744534 1.38018C-0.0589282 1.75641 -0.0101866 2.264 0.19731 2.65963C0.457338 3.15541 0.87963 3.50414 1.44376 3.68902C1.69828 3.77242 2.20135 3.76757 2.49606 3.67887C3.08403 3.50185 3.63137 2.96414 3.83235 2.36607C3.91549 2.11866 3.92091 1.67788 3.84388 1.4271C3.69189 0.932166 3.24924 0.430843 2.74904 0.18711C2.44162 0.0373213 1.96103 -0.0357807 1.63171 0.0171708ZM22.4743 0.0818994C22.2214 0.165965 21.97 0.32503 21.7288 0.553613C21.3096 0.95078 21.1173 1.31515 21.0921 1.75954C21.0245 2.95164 22.2326 3.97082 23.4138 3.71817C23.9033 3.61345 24.2999 3.34718 24.6506 2.88794C24.7455 2.76369 24.8629 2.61752 24.9116 2.56309C24.9949 2.46996 25.0001 2.44788 25 2.18659C24.9999 1.91346 24.947 1.51755 24.8779 1.2718C24.8046 1.01138 24.4129 0.55768 24.0214 0.27982C23.8793 0.178977 23.7828 0.138857 23.5633 0.0892788C23.2039 0.00816483 22.7064 0.0047914 22.4743 0.0818994ZM2.26704 1.30292C2.49102 1.39505 2.60278 1.59674 2.60278 1.90879C2.60278 2.15854 2.50843 2.33342 2.31867 2.43541C2.20483 2.49661 2.13767 2.50987 1.94496 2.50923C1.6812 2.50836 1.5622 2.46342 1.43305 2.3158C1.28955 2.15183 1.24591 1.84686 1.33253 1.61337C1.42277 1.36999 1.60465 1.26472 1.93813 1.26277C2.06531 1.26204 2.21085 1.27978 2.26704 1.30292ZM23.4038 1.33081C23.5989 1.42999 23.6847 1.5971 23.6838 1.87611C23.6826 2.25397 23.5422 2.43526 23.1995 2.50143C22.8836 2.56243 22.5665 2.44725 22.449 2.22884C22.339 2.02418 22.3637 1.64837 22.4993 1.46529C22.6516 1.2596 23.1253 1.18918 23.4038 1.33081ZM2.20421 4.46757C1.87912 4.53886 1.58623 4.70814 1.28714 4.99756C0.842385 5.42798 0.662893 5.79521 0.661452 6.27768C0.660481 6.59909 0.713858 6.81764 0.862777 7.10195C1.20813 7.76137 1.89659 8.18721 2.6197 8.18866C3.11467 8.18965 3.55393 8.00191 3.95223 7.61909C4.16559 7.41406 4.2481 7.30803 4.35256 7.10478C4.53738 6.74523 4.6011 6.4315 4.55333 6.11629C4.44438 5.39768 3.8732 4.74958 3.14311 4.51615C2.88546 4.43377 2.45903 4.41169 2.20421 4.46757ZM21.9698 4.46766C21.3285 4.60826 20.6107 5.3041 20.4605 5.93093C20.413 6.12909 20.4198 6.49433 20.4749 6.69936C20.6303 7.27818 21.0375 7.75134 21.6014 8.00833C22.148 8.25742 22.6512 8.253 23.1989 7.99426C23.8488 7.68728 24.3399 6.97418 24.3418 6.33473C24.3442 5.55877 23.7067 4.75127 22.9035 4.51263C22.635 4.43287 22.2198 4.41287 21.9698 4.46766ZM2.9317 5.74605C3.16814 5.85099 3.26111 6.01741 3.25992 6.33367C3.25863 6.6734 3.11059 6.86093 2.7917 6.92668C2.47398 6.99219 2.16398 6.89057 2.04128 6.68069C1.91028 6.45656 1.92861 6.06491 2.07866 5.88147C2.22992 5.6966 2.66468 5.62756 2.9317 5.74605ZM22.6539 5.72334C22.7901 5.76711 22.9285 5.88828 22.9835 6.01196C23.0072 6.06527 23.0263 6.20081 23.026 6.31316C23.0252 6.5481 22.9544 6.72891 22.8251 6.82677C22.6535 6.95653 22.2332 6.98276 22.0206 6.87704C21.7957 6.76523 21.6798 6.46744 21.7398 6.1556C21.7804 5.94419 21.8715 5.8187 22.0368 5.74651C22.184 5.68223 22.4902 5.67072 22.6539 5.72334ZM4.24734 8.25077C3.61771 8.34384 2.85576 9.04016 2.68213 9.68112C2.49756 10.3625 2.81698 11.1462 3.47287 11.6211C3.78499 11.8471 4.10883 11.9595 4.49794 11.9768C4.85896 11.9928 5.09829 11.9454 5.40386 11.7973C6.07472 11.4722 6.54835 10.7707 6.54873 10.1018C6.54907 9.457 6.04161 8.72799 5.37777 8.41965C5.02001 8.25345 4.62666 8.19468 4.24734 8.25077ZM20.0508 8.2511C19.6503 8.31739 19.1644 8.63959 18.8394 9.05435C18.5785 9.38718 18.4784 9.63495 18.4599 9.99329C18.4416 10.3495 18.4835 10.5395 18.6569 10.8849C18.9797 11.5281 19.6065 11.9434 20.3055 11.9773C20.6702 11.995 20.8557 11.9585 21.1941 11.8021C21.6131 11.6086 21.9436 11.2943 22.1592 10.8842C22.5165 10.2051 22.3848 9.45932 21.7997 8.84817C21.5631 8.60104 21.1778 8.37417 20.854 8.29134C20.635 8.23532 20.2597 8.21652 20.0508 8.2511ZM4.90517 9.54121C5.14947 9.64962 5.23408 9.79657 5.23408 10.1124C5.23408 10.5683 4.94197 10.7992 4.44776 10.7339C4.05867 10.6824 3.85653 10.3528 3.94963 9.9216C3.99151 9.72763 4.13385 9.56474 4.30235 9.51793C4.47702 9.46944 4.76881 9.4807 4.90517 9.54121ZM20.7006 9.53061C20.9441 9.62844 21.0514 9.80751 21.0525 10.118C21.0537 10.4806 20.8727 10.6952 20.5308 10.7362C20.039 10.7953 19.7375 10.553 19.7375 10.0986C19.7375 9.83766 19.8876 9.60052 20.0978 9.52935C20.2649 9.47278 20.5582 9.47338 20.7006 9.53061ZM16.8169 11.4113C16.1803 11.5216 15.5993 11.9855 15.2825 12.6366C15.2005 12.8051 15.1832 12.8819 15.1706 13.1325C15.1515 13.5139 15.1982 13.7425 15.3605 14.0626C15.4646 14.2679 15.5432 14.3694 15.7579 14.5755C16.1748 14.9756 16.5966 15.1578 17.1062 15.1578C17.5803 15.1578 18.0138 14.9814 18.4064 14.6289C18.8215 14.2561 19.0158 13.872 19.0416 13.3728C19.0598 13.0219 19.0182 12.8285 18.8536 12.4974C18.6182 12.0239 18.074 11.5878 17.5604 11.4611C17.3136 11.4002 17.0015 11.3793 16.8169 11.4113ZM7.47381 11.4319C6.99169 11.5312 6.37406 12.0287 6.11506 12.5262C5.95997 12.8242 5.91098 13.0448 5.93112 13.3547C5.96965 13.9472 6.3344 14.5213 6.8943 14.8707C7.17015 15.0428 7.43854 15.122 7.80439 15.1393C8.43746 15.1692 9.01099 14.9024 9.40694 14.3939C9.4908 14.2862 9.62227 14.1206 9.69911 14.026L9.83885 13.8538L9.83872 13.5591C9.83866 13.397 9.8173 13.1356 9.7913 12.9782C9.72103 12.5534 9.61434 12.3695 9.21319 11.982C8.83654 11.6181 8.66626 11.5218 8.28381 11.4563C8.05201 11.4165 7.61246 11.4033 7.47381 11.4319ZM8.1718 12.6937C8.42503 12.7954 8.52946 12.9665 8.52946 13.2794C8.52946 13.3766 8.51365 13.5022 8.49429 13.5586C8.33497 14.0228 7.45383 14.0318 7.2723 13.5712C7.25391 13.5245 7.23888 13.3884 7.23888 13.2688C7.23888 12.9472 7.34043 12.7826 7.59799 12.6869C7.73538 12.6358 8.03654 12.6394 8.1718 12.6937ZM17.371 12.6803C17.616 12.7457 17.7637 12.9711 17.7637 13.2794C17.7637 13.7164 17.4995 13.9403 17.0265 13.9042C16.6661 13.8767 16.4853 13.7049 16.4571 13.3632C16.4192 12.905 16.6437 12.6517 17.0906 12.6484C17.1767 12.6478 17.3029 12.6621 17.371 12.6803ZM12.2979 13.2972C12.2634 13.3043 12.1577 13.325 12.0629 13.3431C11.5176 13.4475 10.8603 14.0373 10.6265 14.6321C10.5616 14.7973 10.5484 14.8838 10.548 15.1469C10.5476 15.4139 10.5608 15.5002 10.6329 15.7006C10.9602 16.6107 11.9389 17.2084 12.8147 17.0329C13.1887 16.958 13.5373 16.7719 13.8358 16.4877C14.2702 16.0743 14.4681 15.6123 14.4356 15.0876C14.3785 14.1648 13.5551 13.3717 12.5798 13.3002C12.4592 13.2914 12.3323 13.29 12.2979 13.2972ZM12.8617 14.6229C13.0539 14.7183 13.1436 14.8946 13.1436 15.177C13.1436 15.5805 12.9537 15.7793 12.5444 15.8043C12.0874 15.8323 11.8436 15.6141 11.8436 15.177C11.8436 14.742 12.0736 14.5335 12.5328 14.5524C12.6625 14.5577 12.7819 14.5833 12.8617 14.6229ZM9.62192 17.77C8.86846 17.9121 8.07347 18.4699 7.63821 19.1618C6.90611 20.3255 7.1767 21.5276 8.53786 23.1589C9.10255 23.8356 10.5742 25.2199 11.6369 26.0739C12.0056 26.3702 12.3513 26.5625 12.5152 26.5625C12.6886 26.5625 12.9267 26.4175 13.4177 26.0128C15.864 23.9965 17.131 22.5823 17.5711 21.3771C17.6979 21.0298 17.7391 20.7952 17.7371 20.433C17.7323 19.5674 17.2029 18.7159 16.325 18.1618C15.7562 17.8028 15.2328 17.6951 14.3807 17.7618C14.035 17.7888 13.9366 17.8088 13.7063 17.8991C13.3705 18.0307 13.0351 18.2302 12.7299 18.4795L12.4951 18.6714L12.3393 18.5432C11.8289 18.1231 11.3476 17.8937 10.7469 17.7841C10.4704 17.7337 9.85529 17.726 9.62192 17.77ZM10.9142 19.0869C11.434 19.2308 11.6969 19.5442 11.8286 20.177C11.8579 20.3178 11.9031 20.4737 11.9291 20.5234C12.134 20.9159 12.6385 20.9861 12.9575 20.6665C13.0777 20.546 13.1277 20.414 13.1616 20.1274C13.1989 19.8115 13.2827 19.6346 13.4896 19.4346C13.7916 19.1427 14.2161 19.0023 14.7965 19.0023C15.3632 19.0023 15.7515 19.14 16.0395 19.443C16.2978 19.7148 16.4161 20.0238 16.4167 20.4287C16.4178 21.1199 15.9705 21.8426 14.8147 23.0165C14.1373 23.7046 12.7616 24.933 12.5293 25.0573C12.4906 25.078 12.3985 25.0226 12.1377 24.8219C11.7639 24.5343 10.3438 23.2046 9.79872 22.6318C9.04686 21.8417 8.62306 21.1125 8.5669 20.5123C8.51809 19.9905 8.84484 19.39 9.29439 19.1752C9.42824 19.1113 9.51589 19.0839 9.79186 19.0198C9.9467 18.9839 10.7058 19.0293 10.9142 19.0869Z" fill="#FD9149"/>
</svg>
