<svg width="25" height="28" viewBox="0 0 25 28" fill="none" xmlns="http://www.w3.org/2000/svg">
<path fill-rule="evenodd" clip-rule="evenodd" d="M11.4421 0.0296272C11.2974 0.0549444 10.8238 0.128048 10.3897 0.191973C6.05944 0.829332 2.10189 4.23744 0.64688 8.58218C-0.332036 11.5051 -0.198385 14.5747 1.03742 17.5501C1.72609 19.2083 3.35242 21.2842 4.89531 22.4742C5.69553 23.0914 6.7198 23.7086 6.8303 23.6402C6.87797 23.6106 6.91691 23.4241 6.91691 23.2257C6.91691 23.0273 7.02099 22.5471 7.14822 22.1587C7.36933 21.4834 7.37122 21.4475 7.18979 21.3389C6.57731 20.9726 5.59513 20.1401 4.95918 19.4483C3.80463 18.1922 2.95673 16.5981 2.52968 14.8807C2.2649 13.8156 2.27079 11.2606 2.54041 10.2043C3.53175 6.32125 6.3078 3.53858 10.1816 2.54488C11.3728 2.23939 13.8072 2.26239 15.0202 2.59056C18.5766 3.55293 21.2575 6.17009 22.3535 9.74961C22.6128 10.5965 22.6379 10.8317 22.6437 12.4699C22.649 14.0269 22.6179 14.3804 22.4074 15.1528C22.1211 16.2029 21.6161 17.3357 21.0548 18.1865C20.4958 19.034 19.2067 20.3659 18.3878 20.942C18.0115 21.2067 17.687 21.435 17.6666 21.4495C17.6462 21.4638 17.7258 21.7754 17.8436 22.1417C17.9613 22.5081 18.0891 23.0114 18.1274 23.2603L18.1972 23.7127L18.6872 23.4298C19.6638 22.8659 20.562 22.1683 21.387 21.3331C26.911 15.7416 25.9747 6.50659 19.4401 2.13021C17.9902 1.15909 16.6415 0.592828 14.9149 0.23016C14.1349 0.0663371 11.9517 -0.0597211 11.4421 0.0296272ZM11.4737 20.7293C9.98952 21.2619 9.12689 22.4505 9.12689 23.9626C9.12689 25.2679 9.75779 26.3271 10.9159 26.9662C11.5495 27.3159 11.6661 27.3438 12.4945 27.3438C13.2102 27.3438 13.4853 27.2962 13.8706 27.1059C14.6418 26.7249 15.1921 26.1823 15.5536 25.4461C15.8378 24.8676 15.8854 24.6552 15.8854 23.9681C15.8854 23.2811 15.8378 23.0686 15.5536 22.4901C14.8011 20.9578 13.0013 20.1811 11.4737 20.7293ZM13.2558 23.1683C13.5509 23.4326 13.5995 23.5458 13.5995 23.9681C13.5995 24.3905 13.5509 24.5037 13.2558 24.7679C12.3518 25.5777 11.0215 24.6653 11.4849 23.5535C11.7967 22.8055 12.6448 22.6212 13.2558 23.1683Z" fill="#FD9149"/>
</svg>
