<svg width="15" height="19" viewBox="0 0 15 19" fill="none" xmlns="http://www.w3.org/2000/svg">
<path d="M0.675309 0.0527534C0.375316 0.150251 0.225319 0.27025 0.112821 0.487745C0.0153235 0.70524 0.000323825 1.74772 0.000323825 9.45005C0.000323825 19.1173 -0.0296755 18.5399 0.487813 18.7799C0.712808 18.8923 1.44779 18.8998 7.60516 18.8848L14.475 18.8623L14.715 18.6149L14.9625 18.3749L14.985 11.535L15 4.69515L12.6601 2.3477L10.3126 0.000255585L5.5502 0.00775528C2.93276 0.00775528 0.735308 0.0302544 0.675309 0.0527534ZM10.1401 2.4152C10.1626 3.93767 10.1776 4.11017 10.3126 4.35016C10.6201 4.86765 10.7926 4.91265 12.6226 4.93515L14.25 4.96515L14.235 11.535L14.2125 18.1124L7.48516 18.1349L0.750308 18.1499V9.50255C0.750308 4.74015 0.772807 0.825237 0.802806 0.802738C0.825306 0.772739 2.93276 0.750238 5.48271 0.750238H10.1176L10.1401 2.4152ZM13.575 4.14767C13.575 4.18517 13.0125 4.20016 12.3301 4.18517C11.2051 4.16267 11.0776 4.14767 10.9801 4.02017C10.8976 3.90767 10.8751 3.58518 10.8751 2.6327V1.38773L12.2251 2.7377C12.9675 3.48018 13.575 4.11767 13.575 4.14767Z" fill="black"/>
<path d="M2.25024 2.31802C2.25024 2.58802 2.27274 2.61802 2.45274 2.64052C2.65524 2.66301 2.67024 2.70051 3.45022 5.36296L4.2377 8.0629L6.24766 8.0854C8.19012 8.1004 8.26511 8.1079 8.30261 8.25039C8.33261 8.37789 8.40761 8.40039 8.7076 8.40039C8.9101 8.40039 9.0751 8.37789 9.0751 8.34039C9.0751 8.31039 9.0301 8.1154 8.9776 7.9129L8.8801 7.53791L6.80265 7.51541L4.73269 7.50041L4.64269 7.20042C4.59019 7.03542 4.56769 6.88542 4.58269 6.87042C4.59769 6.85542 5.52767 6.76543 6.65265 6.66043C7.77762 6.56293 8.7151 6.46543 8.7301 6.44293C8.7826 6.39043 9.0151 3.353 8.9851 3.09801L8.9626 2.88801L6.15016 2.85051L3.33772 2.81301L3.26272 2.43802L3.18022 2.06303L2.71523 2.04053L2.25024 2.01803V2.31802ZM6.75015 4.08798V4.65047H7.25264H7.76262L6.99014 5.41546L6.22516 6.18794L5.46017 5.41546L4.68769 4.65047H5.16018H5.62517V4.08798V3.5255H6.18766H6.75015V4.08798Z" fill="black"/>
<path d="M4.82283 8.54998C4.45534 8.69998 4.38034 9.26996 4.69534 9.51746C4.95783 9.72745 5.21282 9.71245 5.43782 9.48746C5.89531 9.03747 5.40782 8.30998 4.82283 8.54998Z" fill="black"/>
<path d="M7.2826 8.55687C6.87011 8.72187 6.77261 9.17936 7.0876 9.48685C7.3126 9.71935 7.58259 9.72685 7.84509 9.50185C8.32508 9.08936 7.86759 8.32438 7.2826 8.55687Z" fill="black"/>
<path d="M2.89539 10.8446C2.82789 10.9046 2.77539 11.0246 2.77539 11.0996C2.77539 11.1746 2.82789 11.2946 2.89539 11.3546C3.00039 11.4596 3.51787 11.4746 7.46279 11.4746H11.9252L12.0452 11.2871C12.1577 11.1146 12.1577 11.0846 12.0452 10.9121L11.9252 10.7246H7.46279C3.51787 10.7246 3.00039 10.7396 2.89539 10.8446Z" fill="black"/>
<path d="M2.86517 13.215C2.72267 13.3575 2.76017 13.6275 2.94016 13.755C3.09016 13.86 3.63765 13.875 7.44007 13.875C9.96751 13.875 11.8425 13.845 11.9475 13.8075C12.1725 13.7175 12.2625 13.485 12.15 13.275C12.0675 13.125 12.0225 13.125 7.51507 13.125C4.06514 13.125 2.93266 13.1475 2.86517 13.215Z" fill="black"/>
<path d="M3.01517 15.3892C2.88768 15.5166 2.90268 15.7941 3.04517 15.9291C3.15017 16.0341 3.63766 16.0491 7.59757 16.0341L12.03 16.0116L12.1425 15.8091C12.2475 15.6291 12.2475 15.5991 12.12 15.4566C11.9775 15.2992 11.9325 15.2992 7.53758 15.2992C4.19265 15.2992 3.08267 15.3217 3.01517 15.3892Z" fill="black"/>
</svg>
