<svg width="20" height="21" viewBox="0 0 20 21" fill="none" xmlns="http://www.w3.org/2000/svg">
<path d="M9.16463 0.110802C7.85462 0.471529 6.89584 1.84799 7.03823 3.14851C7.06671 3.41431 7.11417 3.70859 7.15215 3.79403C7.2091 3.94591 7.02874 3.9554 4.73147 3.98388L2.24434 4.01236L1.96905 4.32563L1.69376 4.6294V6.0818V7.52472L1.02926 8.52147L0.364758 9.51821V10.4485C0.364758 11.0181 0.412223 11.4927 0.497658 11.6826C0.640051 12.0433 1.12419 12.48 1.46593 12.5654L1.69376 12.6224V15.9828V19.3338L0.924837 19.3623C0.326787 19.3813 0.127437 19.4287 0.0514944 19.5522C-0.0244484 19.6661 -0.0149555 19.7515 0.0704801 19.8559C0.184394 19.9888 1.17165 20.0078 10 20.0078C18.8284 20.0078 19.8156 19.9888 19.9295 19.8559C20.015 19.7515 20.0244 19.6661 19.9485 19.5522C19.8726 19.4287 19.6732 19.3813 19.0752 19.3623L18.3062 19.3338V15.9828V12.6224L18.5341 12.5654C18.8758 12.48 19.3599 12.0433 19.5023 11.6826C19.5878 11.4927 19.6352 11.0181 19.6352 10.4485V9.51821L18.9707 8.52147L18.3062 7.52472V6.0818V4.6294L18.031 4.32563L17.7557 4.01236L15.278 3.98388L12.8004 3.9554L12.8668 3.6991C13.0092 3.20547 12.9428 2.22771 12.7339 1.77205C12.1359 0.433558 10.5791 -0.287899 9.16463 0.110802ZM10.9493 0.87023C12.2118 1.44929 12.6485 2.78778 12.003 4.0978C11.7182 4.67686 10.7689 6.15775 10.3133 6.7463C9.95254 7.19247 9.97152 7.20196 9.01274 5.77803C7.73121 3.85098 7.4749 3.09155 7.81665 2.19923C8.31027 0.908201 9.7342 0.300657 10.9493 0.87023ZM7.8736 5.22745C8.06346 5.5502 8.46216 6.14825 8.75644 6.55645C9.05072 6.96464 9.28804 7.31587 9.28804 7.34435C9.28804 7.36334 7.72172 7.37283 5.80416 7.36334L2.31079 7.33486V6.07231C2.31079 5.05658 2.33927 4.79078 2.45319 4.72433C2.52913 4.66737 3.67776 4.6294 5.06372 4.6294H7.53186L7.8736 5.22745ZM17.5468 4.72433C17.6607 4.79078 17.6892 5.05658 17.6892 6.07231V7.33486L14.2053 7.36334C12.2783 7.37283 10.712 7.36334 10.712 7.34435C10.712 7.31587 10.9493 6.96464 11.2436 6.55645C11.5378 6.14825 11.9365 5.5502 12.1264 5.22745L12.4681 4.6294H14.9363C16.3222 4.6294 17.4709 4.66737 17.5468 4.72433ZM3.93407 8.09429C3.90559 8.17972 3.70624 8.49299 3.4974 8.80625L3.10819 9.37582H2.21586C1.72224 9.37582 1.31404 9.35684 1.31404 9.32836C1.31404 9.29988 1.51339 8.97712 1.75071 8.61639L2.19688 7.95189H3.0987C3.85813 7.95189 3.98153 7.97088 3.93407 8.09429ZM6.44018 7.99936C6.44018 8.02784 6.2883 8.35059 6.10793 8.71132L5.77568 9.37582H4.87386C4.38023 9.37582 3.97204 9.35684 3.97204 9.32836C3.97204 9.29988 4.17139 8.97712 4.40871 8.61639L4.85488 7.95189H5.64278C6.07945 7.95189 6.44018 7.97088 6.44018 7.99936ZM8.56658 8.30313C8.5381 8.50248 8.48114 8.81574 8.44317 8.99611L8.37672 9.32836L7.45592 9.35684C6.9528 9.36633 6.53511 9.35684 6.53511 9.32836C6.53511 9.29988 6.687 8.97712 6.86736 8.61639L7.19961 7.95189H7.92107H8.63303L8.56658 8.30313ZM10.7404 8.08479C10.7689 8.16074 10.8259 8.48349 10.8638 8.79676L10.9303 9.37582H10H9.0697L9.13615 8.79676C9.24057 7.93291 9.21209 7.95189 10 7.95189C10.5126 7.95189 10.7025 7.98987 10.7404 8.08479ZM13.275 8.474C13.3605 8.73031 13.4649 9.04357 13.5029 9.16698L13.5788 9.38531L12.601 9.35684L11.6233 9.32836L11.5568 8.99611C11.5189 8.81574 11.4619 8.50248 11.4334 8.30313L11.367 7.9424L12.2403 7.97088L13.1137 7.99936L13.275 8.474ZM15.7906 8.61639C15.971 8.97712 16.1229 9.29988 16.1229 9.32836C16.1229 9.35684 15.6957 9.37582 15.1831 9.37582H14.2433L14.044 8.78726C13.93 8.46451 13.8446 8.14175 13.8446 8.0753C13.8446 7.98037 14.0534 7.95189 14.6515 7.95189H15.4584L15.7906 8.61639ZM18.2493 8.61639C18.4866 8.97712 18.686 9.29988 18.686 9.32836C18.686 9.35684 18.2778 9.37582 17.7841 9.37582H16.8823L16.5501 8.71132C16.3697 8.35059 16.2178 8.02784 16.2178 7.99936C16.2178 7.97088 16.5785 7.95189 17.0152 7.95189H17.8031L18.2493 8.61639ZM3.02276 10.515C3.02276 11.3029 2.8329 11.7206 2.39623 11.9009C1.65579 12.2142 1.04824 11.749 0.962808 10.8187C0.877372 9.9359 0.867879 9.94539 2.02601 9.94539H3.02276V10.515ZM5.68075 10.5624C5.68075 11.3313 5.50039 11.7111 5.04473 11.9009C4.60806 12.0908 4.22835 11.9958 3.92458 11.6351C3.71573 11.3883 3.68726 11.2649 3.68726 10.6479V9.94539H4.684H5.68075V10.5624ZM8.33875 10.5624C8.33875 11.3313 8.15839 11.7111 7.70273 11.9009C7.44642 12.0148 7.30403 12.0243 7.04772 11.9389C6.51612 11.7585 6.34525 11.4548 6.34525 10.6479V9.94539H7.342H8.33875V10.5624ZM10.9967 10.6479C10.9967 11.4548 10.8259 11.7585 10.2943 11.9389C10.038 12.0243 9.89558 12.0148 9.63927 11.9104C9.13615 11.6921 9.00325 11.4358 9.00325 10.6384V9.94539H10H10.9967V10.6479ZM13.6547 10.6479C13.6547 11.4548 13.4839 11.7585 12.9523 11.9389C12.696 12.0243 12.5536 12.0148 12.2973 11.9009C11.8416 11.7111 11.6612 11.3313 11.6612 10.5624V9.94539H12.658H13.6547V10.6479ZM16.3127 10.6479C16.3127 11.2649 16.2843 11.3883 16.0754 11.6351C15.7717 11.9958 15.3919 12.0908 14.9553 11.9009C14.4996 11.7111 14.3192 11.3313 14.3192 10.5624V9.94539H15.316H16.3127V10.6479ZM19.0087 10.6858C19.0087 11.3029 18.9802 11.3978 18.7334 11.6541C18.3917 12.0053 18.0404 12.0813 17.6038 11.9009C17.1671 11.7206 16.9772 11.3029 16.9772 10.515V9.9359L18.0025 9.96438L19.0182 9.99286L19.0087 10.6858ZM3.50689 12.1857C3.72523 12.4515 4.14291 12.6034 4.63654 12.6034C5.14915 12.6034 5.40546 12.5085 5.7472 12.2047L5.95605 12.0148L6.30728 12.2806C6.62055 12.5274 6.74395 12.5559 7.33251 12.5559C7.92107 12.5559 8.05397 12.5274 8.33875 12.2996L8.66151 12.0528L8.99376 12.2996C9.27854 12.518 9.41144 12.5559 10 12.5559C10.5886 12.5559 10.7215 12.518 11.0062 12.2996L11.3385 12.0528L11.6612 12.2996C11.946 12.5274 12.0789 12.5559 12.6675 12.5559C13.256 12.5559 13.3795 12.5274 13.6927 12.2806L14.044 12.0148L14.2528 12.2047C14.5945 12.5085 14.8508 12.6034 15.3635 12.6034C15.8761 12.6034 16.1324 12.5085 16.4836 12.1952L16.6925 12.0053L16.9108 12.1952C17.0247 12.2996 17.262 12.461 17.4329 12.5464L17.7367 12.7078V16.0208V19.3433H16.6925H15.6482L15.6293 16.3721L15.6008 13.4103H10H4.39922L4.37074 16.3721L4.35176 19.3433H3.30754H2.26333V16.0208V12.6983L2.62406 12.518C2.82341 12.4135 3.04174 12.2616 3.10819 12.1857C3.26957 11.9958 3.34551 11.9958 3.50689 12.1857ZM9.66775 16.6853V19.3433H7.342H5.01625V16.6853V14.0273H7.342H9.66775V16.6853ZM14.9837 16.6853V19.3433H12.658H10.3322V16.6853V14.0273H12.658H14.9837V16.6853Z" fill="black"/>
<path d="M9.31643 1.87627C8.92723 2.11359 8.71838 2.52178 8.71838 3.05338C8.71838 3.39512 8.77534 3.54701 9.01266 3.8223C9.57274 4.44883 10.4366 4.44883 10.9872 3.81281C11.2245 3.54701 11.2815 3.40461 11.2815 3.03439C11.2815 1.9617 10.2088 1.32568 9.31643 1.87627ZM10.56 2.66417C10.7404 2.90149 10.7404 2.93946 10.598 3.24324C10.3322 3.79382 9.6202 3.78433 9.38288 3.21476C9.27846 2.96794 9.28795 2.88251 9.42085 2.68316C9.73412 2.20852 10.2088 2.19902 10.56 2.66417Z" fill="black"/>
</svg>
