<svg width="25" height="23" viewBox="0 0 25 23" fill="none" xmlns="http://www.w3.org/2000/svg">
<path fill-rule="evenodd" clip-rule="evenodd" d="M0.452757 0.0984116C0.0537446 0.262573 -0.0731027 0.602879 0.039057 1.20833C0.415148 3.23905 2.66569 4.89809 6.27471 5.80485C7.48588 6.10909 9.40606 6.43164 9.49085 6.34504C9.51499 6.32032 9.45424 5.9518 9.35566 5.52609L9.17662 4.75201L8.17075 4.57739C5.10861 4.04591 2.52849 2.8068 1.87578 1.5543C1.7555 1.32347 1.65703 1.0166 1.65703 0.872596C1.65703 0.559088 1.29996 0.0844683 1.00788 0.00974051C0.892717 -0.0197802 0.642806 0.0200891 0.452757 0.0984116ZM23.9501 0.0437275C23.6428 0.154948 23.3546 0.560831 23.3546 0.882073C23.3546 1.2885 22.9539 1.94297 22.4404 2.37532C21.3514 3.29232 19.4646 4.06432 17.2367 4.50463C16.5951 4.63142 16.0456 4.75909 16.0157 4.78851C15.9857 4.81792 15.8794 5.1823 15.7796 5.59831C15.5665 6.48589 15.4675 6.43655 16.9566 6.18437C21.6635 5.38709 24.6452 3.49994 24.9803 1.10615C25.0202 0.821615 24.9979 0.519872 24.9275 0.391114C24.7749 0.111919 24.2635 -0.0698892 23.9501 0.0437275ZM11.001 4.15626L10.7511 4.3543L11.1667 5.98088C11.3953 6.87544 11.6315 7.69733 11.6914 7.80724C11.7514 7.91716 11.9717 8.07707 12.1809 8.16269C12.5107 8.29755 12.6122 8.29755 12.942 8.16269C13.1512 8.07707 13.3744 7.91193 13.438 7.79559C13.5016 7.67936 13.7391 6.85866 13.9659 5.97184L14.3781 4.35931L14.1251 4.15877C13.9113 3.98927 13.6687 3.95811 12.5614 3.95811C11.4602 3.95811 11.211 3.98981 11.001 4.15626ZM8.08418 9.07163C5.0058 10.035 3.6709 13.6863 5.42361 16.349C5.6111 16.6337 7.10601 18.1735 8.74568 19.7708C11.8895 22.8332 12.0424 22.9458 12.8987 22.8291C13.2282 22.7842 13.7462 22.3274 16.4345 19.7126C19.3079 16.9176 19.6203 16.5776 19.9951 15.8374C20.4002 15.0375 20.4059 15.0076 20.4059 13.7132C20.4059 12.4604 20.3896 12.3665 20.0474 11.6594C19.5712 10.675 18.6508 9.77631 17.6242 9.29309C16.2538 8.6482 14.3584 8.72108 13.0397 9.46934L12.572 9.7347L12.2052 9.51346C11.1488 8.87653 9.3304 8.68154 8.08418 9.07163ZM11.6174 13.7603L8.28246 17.0266L7.80523 16.5681L7.32799 16.1097L9.6809 13.8043C11.9971 11.5349 12.04 11.4997 12.4367 11.5515C12.7694 11.5948 12.9173 11.5428 13.2847 11.2527C13.7574 10.8796 14.5101 10.5004 14.7862 10.4965C14.8775 10.4952 13.4516 11.9639 11.6174 13.7603ZM17.9236 11.4472C18.6102 12.1479 18.8382 12.7116 18.8379 13.7076C18.8376 15.0436 18.7065 15.2246 15.4071 18.4449L12.5623 21.2215L11.1705 19.8622L9.77859 18.5028L13.5896 14.7708C15.6856 12.7181 17.4282 11.0387 17.462 11.0387C17.4957 11.0387 17.7035 11.2226 17.9236 11.4472Z" fill="#FD9149"/>
</svg>
