<svg width="25" height="25" viewBox="0 0 25 25" fill="none" xmlns="http://www.w3.org/2000/svg">
<path fill-rule="evenodd" clip-rule="evenodd" d="M10.9882 1.18322L9.78756 2.36644L8.16711 1.94267L6.54667 1.51889L6.24556 1.74267C5.99456 1.92911 5.87256 2.22589 5.51311 3.52411L5.08189 5.08189L3.52411 5.51311C2.22589 5.87256 1.92911 5.99456 1.74267 6.24556L1.51889 6.54667L1.94267 8.16711L2.36644 9.78756L1.18322 10.9882C0.247556 11.9379 0 12.2541 0 12.5C0 12.7459 0.247556 13.0621 1.18322 14.0118L2.36644 15.2124L1.94267 16.8329L1.51889 18.4533L1.74267 18.7544C1.92911 19.0054 2.22589 19.1274 3.52411 19.4869L5.08189 19.9181L5.51311 21.4759C5.87256 22.7741 5.99456 23.0709 6.24556 23.2573L6.54667 23.4811L8.16711 23.0573L9.78756 22.6336L10.9882 23.8168C11.9379 24.7524 12.2541 25 12.5 25C12.7459 25 13.0621 24.7524 14.0118 23.8168L15.2124 22.6336L16.8329 23.0573L18.4533 23.4811L18.7544 23.2573C19.0054 23.0709 19.1274 22.7741 19.4869 21.4759L19.9181 19.9181L21.4759 19.4869C22.7741 19.1274 23.0709 19.0054 23.2573 18.7544L23.4811 18.4533L23.0573 16.8329L22.6336 15.2124L23.8168 14.0118C24.7524 13.0621 25 12.7459 25 12.5C25 12.2541 24.7524 11.9379 23.8168 10.9882L22.6336 9.78756L23.0573 8.16711L23.4811 6.54667L23.2573 6.24556C23.0709 5.99456 22.7741 5.87256 21.4759 5.51311L19.9181 5.08189L19.4869 3.52411C19.1274 2.22589 19.0054 1.92911 18.7544 1.74267L18.4533 1.51889L16.8329 1.94267L15.2124 2.36644L14.0118 1.18322C13.0621 0.247556 12.7459 0 12.5 0C12.2541 0 11.9379 0.247556 10.9882 1.18322ZM14.2778 3.7C14.4611 3.86633 14.6866 4.02644 14.7788 4.05578C14.8711 4.08511 15.5834 3.94111 16.3618 3.73578L17.777 3.36233L17.8974 3.82011C18.3204 5.42856 18.5563 6.15956 18.6984 6.30156C18.8404 6.44367 19.5714 6.67956 21.1799 7.10256L21.6377 7.223L21.2642 8.63822C21.0589 9.41656 20.9149 10.1291 20.9442 10.2216C20.9736 10.314 21.4408 10.8642 21.9826 11.4443L22.9674 12.4991L22.028 13.4996C21.5113 14.0498 21.0428 14.6 20.9867 14.7222C20.9141 14.8804 20.9932 15.3526 21.2612 16.3608L21.6377 17.777L21.1799 17.8974C19.5714 18.3204 18.8404 18.5563 18.6984 18.6984C18.5563 18.8404 18.3204 19.5714 17.8974 21.1799L17.777 21.6377L16.3618 21.2642C15.5834 21.0589 14.8651 20.9168 14.7654 20.9483C14.6659 20.98 14.1154 21.4484 13.5422 21.9893L12.5 22.9729L11.4777 21.9957C10.9153 21.4582 10.3649 20.9898 10.2543 20.9547C10.1439 20.9196 9.41656 21.0589 8.63822 21.2642L7.223 21.6377L7.10256 21.1799C6.67956 19.5714 6.44367 18.8404 6.30156 18.6984C6.15956 18.5563 5.42856 18.3204 3.82011 17.8974L3.36233 17.777L3.73878 16.3608C4.01144 15.335 4.08678 14.8801 4.01211 14.7112C3.95533 14.583 3.50133 14.0484 3.00311 13.5234C2.50489 12.9983 2.09722 12.5378 2.09722 12.5C2.09722 12.4622 2.50489 12.0017 3.00311 11.4766C3.50133 10.9516 3.95533 10.417 4.01211 10.2888C4.08678 10.1199 4.01144 9.665 3.73878 8.63922L3.36233 7.223L3.82011 7.10256C5.42856 6.67956 6.15956 6.44367 6.30156 6.30156C6.44367 6.15956 6.67956 5.42856 7.10256 3.82011L7.223 3.36233L8.63822 3.73578C9.41656 3.94111 10.1393 4.08189 10.2443 4.04856C10.3493 4.01522 10.8998 3.54556 11.4677 3.00489L12.5 2.02189L13.2222 2.70978C13.6194 3.088 14.0944 3.53367 14.2778 3.7ZM8.05556 6.81967C7.39356 7.13189 7.09178 7.43911 6.78711 8.11111C6.18867 9.43111 6.765 11.0419 8.06 11.6688C8.47422 11.8693 8.71011 11.9053 9.38611 11.8712C10.0829 11.836 10.2808 11.7788 10.6843 11.4951C10.9462 11.311 11.311 10.9462 11.4951 10.6843C11.7788 10.2808 11.836 10.0829 11.8712 9.38611C11.9053 8.71011 11.8693 8.47422 11.6688 8.06C11.0267 6.73344 9.413 6.17956 8.05556 6.81967ZM11.9183 11.9183C8.37533 15.4613 7.88889 15.9889 7.88889 16.2879C7.88889 16.7179 8.28944 17.1111 8.72767 17.1111C9.00622 17.1111 9.62289 16.5404 13.0817 13.0817C16.6247 9.53867 17.1111 9.01111 17.1111 8.71211C17.1111 8.28211 16.7106 7.88889 16.2723 7.88889C15.9938 7.88889 15.3771 8.45956 11.9183 11.9183ZM10.0278 8.557C10.6734 9.26567 10.1538 10.3333 9.16322 10.3333C9.01422 10.3333 8.73022 10.1884 8.53211 10.0113C8.23878 9.74933 8.17167 9.60622 8.17167 9.24244C8.17167 8.20267 9.31889 7.779 10.0278 8.557ZM14.5857 13.3439C14.0501 13.609 13.488 14.202 13.2639 14.7383C13.0297 15.2989 13.0688 16.3979 13.3431 16.9647C13.9733 18.2664 15.5984 18.815 16.9444 18.1803C17.6064 17.8681 17.9082 17.5609 18.2129 16.8889C18.8061 15.5803 18.235 13.9581 16.9647 13.3431C16.3094 13.0259 15.2272 13.0263 14.5857 13.3439ZM16.4679 14.9887C17.2213 15.6618 16.7766 16.8283 15.7664 16.8283C15.3927 16.8283 15.2527 16.7634 14.9887 16.4679C14.0646 15.4338 15.4338 14.0646 16.4679 14.9887Z" fill="black"/>
</svg>
