<svg width="18" height="22" viewBox="0 0 18 22" fill="none" xmlns="http://www.w3.org/2000/svg">
<path d="M1.92399 1.05961C1.15439 1.26484 0.530166 1.80356 0.179572 2.55605C0 2.9494 0 2.99216 0 11.1584C0 19.3589 0 19.3675 0.179572 19.7608C0.444656 20.3337 0.923515 20.8211 1.47933 21.0948L1.96675 21.3342L9.98765 21.3599L18 21.377V13.4245V5.47197H10.2014C5.39572 5.47197 2.28314 5.43776 2.09501 5.38645C1.68456 5.27529 1.1886 4.84774 0.974822 4.42018C0.726841 3.93277 0.769596 3.06056 1.06888 2.61591C1.36817 2.1798 1.80428 1.89762 2.34299 1.79501C2.63373 1.7437 5.58385 1.7095 10.3211 1.7095H17.829L17.9316 1.49572C18.0086 1.31615 18 1.25629 17.8717 1.11092C17.7178 0.939899 17.6152 0.939899 10.0133 0.94845C4.20713 0.94845 2.21473 0.974104 1.92399 1.05961ZM1.74442 6.1133C2.06936 6.22446 3.12969 6.24156 9.6285 6.24156H17.1449V13.3988V20.5646L9.55154 20.5218L1.94964 20.4791L1.61615 20.2482C1.43658 20.1199 1.1886 19.872 1.06888 19.6924L0.855107 19.376L0.829454 12.4667L0.812352 5.54893L1.09454 5.7627C1.24846 5.88242 1.54774 6.03634 1.74442 6.1133Z" fill="black"/>
<path d="M6.07133 8.30246C4.75446 8.81552 3.62572 9.30293 3.57441 9.37989C3.4205 9.58512 3.4376 9.95282 3.61717 10.1067C3.69413 10.1837 4.82287 10.654 6.11408 11.1671C8.18344 11.9709 8.52548 12.082 8.97869 12.082C9.42335 12.082 9.79104 11.9709 11.8433 11.1671C13.1345 10.654 14.2633 10.1837 14.3488 10.1067C14.5198 9.95282 14.5369 9.58512 14.3915 9.37989C14.3317 9.30293 13.1858 8.81552 11.8433 8.29391C9.75684 7.49011 9.34639 7.35329 8.93594 7.36184C8.55114 7.36184 8.05518 7.52431 6.07133 8.30246ZM11.202 8.90958C12.3136 9.33714 13.1858 9.71339 13.1516 9.74759C12.972 9.91006 9.24377 11.2868 8.97869 11.2868C8.71361 11.2868 4.96824 9.91006 4.80577 9.75614C4.72026 9.67063 8.6452 8.13144 8.95304 8.12289C9.07275 8.12289 10.0903 8.47348 11.202 8.90958Z" fill="black"/>
<path d="M3.91637 10.9436C3.47171 11.1232 3.45461 11.2344 3.48026 13.9792L3.50592 16.5189L3.8052 16.784C4.02753 16.9892 4.60045 17.2543 5.96007 17.7674C7.82421 18.4686 8.1748 18.5541 8.43133 18.3574C8.73917 18.118 8.76482 17.9213 8.76482 15.5184C8.76482 12.2947 9.01281 12.6453 5.96863 11.508C4.11304 10.8068 4.19855 10.8325 3.91637 10.9436ZM6.11399 12.4144C7.0033 12.7479 7.76435 13.0814 7.84986 13.184C7.97813 13.3379 7.99523 13.5773 7.99523 15.4842C7.99523 16.7754 7.96102 17.6134 7.90972 17.6134C7.7729 17.6134 4.62611 16.4077 4.42943 16.2795C4.23276 16.1598 4.23276 16.1427 4.23276 13.9279C4.23276 11.8329 4.24131 11.6961 4.38668 11.756C4.46364 11.7902 5.24178 12.0809 6.11399 12.4144Z" fill="black"/>
<path d="M11.7919 11.5766C10.7487 11.9699 9.79951 12.3633 9.67979 12.4402C9.22659 12.731 9.19238 12.9448 9.19238 15.5186C9.19238 17.1519 9.22659 17.9386 9.295 18.0668C9.43181 18.3319 9.62849 18.4602 9.89357 18.4688C10.1416 18.4688 13.6304 17.1775 13.9639 16.9638C14.075 16.8954 14.2375 16.7158 14.323 16.5619C14.4855 16.3053 14.494 16.1172 14.494 13.8341C14.494 11.4141 14.494 11.3799 14.3059 11.1661C13.9639 10.7813 13.81 10.807 11.7919 11.5766ZM13.7244 13.8768C13.7244 15.4759 13.6988 16.083 13.6218 16.1856C13.5278 16.3053 10.2613 17.6136 10.0389 17.6136C9.99618 17.6136 9.96198 16.7243 9.96198 15.493C9.96198 13.7999 9.98763 13.3381 10.0817 13.2013C10.1501 13.1072 10.894 12.7737 11.9031 12.3889C12.8351 12.0298 13.6218 11.7305 13.6646 11.722C13.6988 11.722 13.7244 12.6882 13.7244 13.8768Z" fill="black"/>
<path d="M2.48832 3.30081C2.32585 3.45473 2.30875 3.68561 2.45412 3.83098C2.53108 3.90794 4.36956 3.93359 10.1928 3.93359C17.6494 3.93359 17.8289 3.93359 17.9145 3.77112C18.0342 3.54024 18.0256 3.45473 17.8631 3.30081C17.7434 3.1811 16.9311 3.164 10.1757 3.164C3.42039 3.164 2.60804 3.1811 2.48832 3.30081Z" fill="black"/>
</svg>
