<svg width="18" height="20" viewBox="0 0 18 20" fill="none" xmlns="http://www.w3.org/2000/svg">
<path d="M4.80524 1.0224C4.48001 1.14436 4.07348 1.48585 3.91899 1.76229C3.87021 1.85173 3.81329 2.17696 3.7889 2.49406L3.74012 3.0632L2.7563 3.10386C1.87006 3.14451 1.73184 3.1689 1.30091 3.38843C0.739893 3.67301 0.276443 4.22589 0.105699 4.80317C0.0243921 5.10401 0 6.43744 0 11.3565V17.5358L0.195137 17.918C0.414665 18.3814 0.910637 18.8855 1.29278 19.0725C1.8538 19.3408 2.42295 19.3652 7.60219 19.3652C13.2286 19.3652 13.2124 19.3652 13.8791 18.9099C14.058 18.788 14.3019 18.5359 14.432 18.3489C14.8304 17.7716 14.9198 17.2919 14.9198 15.7959V14.4543L14.4401 14.9259L13.9604 15.4056L13.9279 16.3487C13.8953 17.4545 13.7734 17.796 13.2693 18.1294L12.9359 18.3489H7.48836H2.03267L1.68305 18.1456C1.48792 18.0399 1.25213 17.8204 1.15456 17.6578L0.975683 17.3732V11.2264V5.08775L1.20334 4.73813C1.35783 4.51047 1.55296 4.33972 1.78875 4.23402C2.13024 4.07954 2.3579 4.07954 7.54528 4.0958L12.9359 4.12019L13.2855 4.34785C13.8466 4.72186 13.9441 5.03083 13.9441 6.47809V7.68957L14.432 7.20986L14.9198 6.73014V5.93334C14.9198 4.6243 14.497 3.83562 13.5539 3.37217C13.1311 3.1689 12.9928 3.14451 12.0578 3.11199L11.0171 3.0876V2.61602C11.0171 2.04687 10.9195 1.76229 10.6268 1.45333C10.1552 0.957355 10.139 0.949226 7.52089 0.932964C5.61831 0.916702 5.05729 0.932964 4.80524 1.0224ZM9.79748 2.20948C9.91131 2.32331 9.96009 2.47779 9.96009 2.73798V3.10386H7.39893H4.83776V2.75424C4.83776 2.56723 4.89467 2.32331 4.96785 2.22574C5.08981 2.04687 5.10607 2.04687 7.3664 2.04687C9.52917 2.04687 9.643 2.055 9.79748 2.20948Z" fill="black"/>
<path d="M3.78073 6.73893C3.42298 6.86902 3.33355 7.47882 3.63438 7.69022C3.79699 7.80405 4.34988 7.82031 8.05748 7.82031H12.3098L12.4724 7.60891C12.692 7.32434 12.6838 7.1292 12.4399 6.88528L12.2448 6.68202L8.07374 6.69015C5.78088 6.69015 3.84578 6.71454 3.78073 6.73893Z" fill="black"/>
<path d="M15.6922 7.52743C15.4564 7.63313 15.1231 7.93397 12.0741 10.8285C11.2935 11.5765 10.391 12.4221 10.0739 12.7229L9.50476 13.2596L8.99252 14.6499C8.71608 15.4142 8.49655 16.0972 8.51281 16.1785C8.55346 16.4061 8.87056 16.3736 10.3097 16.0077L11.6675 15.6663L14.7572 12.788C18.1314 9.64954 18.1721 9.59263 17.8956 9.04787C17.7005 8.67386 16.7492 7.69818 16.4321 7.5437C16.1069 7.38921 16.0093 7.38921 15.6922 7.52743ZM16.8142 8.62508C17.1557 8.9747 17.4403 9.31619 17.4403 9.38936C17.4403 9.52758 17.05 9.90973 14.31 12.4546C13.2367 13.4547 12.2041 14.4141 12.009 14.6011L11.6675 14.9264L10.9114 14.1783L10.1552 13.4222L10.8463 12.7555C11.2285 12.3815 12.2611 11.4058 13.131 10.5846C14.001 9.75524 14.9767 8.83647 15.2938 8.53564C15.619 8.22667 15.9524 7.98275 16.0337 7.98275C16.1231 7.98275 16.4646 8.2592 16.8142 8.62508ZM11.0984 15.2191C11.0984 15.2679 9.28523 15.7069 9.24457 15.6663C9.22831 15.65 9.3584 15.2516 9.52915 14.78L9.83811 13.9182L10.4642 14.5442C10.8138 14.8938 11.0984 15.1947 11.0984 15.2191Z" fill="black"/>
<path d="M7.32578 9.02313C4.13855 9.03939 3.73202 9.05566 3.60193 9.17762C3.39866 9.35649 3.41492 9.78742 3.62632 9.98255C3.7808 10.1208 3.98407 10.1289 7.34205 10.1289C9.29341 10.1289 11.0009 10.1045 11.1228 10.072C11.5863 9.95003 11.5781 9.21014 11.1147 9.06379C10.9927 9.03126 9.28528 9.00687 7.32578 9.02313Z" fill="black"/>
<path d="M3.61818 12.6161C3.39052 12.8438 3.39865 13.2991 3.63444 13.4617C3.78892 13.5674 4.13041 13.5918 5.74842 13.5918C7.57782 13.5918 7.69165 13.5837 7.84613 13.4292C8.06566 13.2097 8.05753 12.8519 7.82174 12.6324C7.63474 12.4616 7.56969 12.4535 5.70776 12.4535C3.88649 12.4535 3.77266 12.4616 3.61818 12.6161Z" fill="black"/>
</svg>
