<svg width="16" height="9" viewBox="0 0 16 9" fill="none" xmlns="http://www.w3.org/2000/svg">
<path fill-rule="evenodd" clip-rule="evenodd" d="M8.57924 0.458648C8.36176 0.540363 8.18174 0.805845 8.23589 0.964979C8.26774 1.05844 8.9822 1.55592 10.3675 2.44904L12.4512 3.79244L6.42696 3.81832L0.402659 3.84419L0.209082 3.98941C-0.0469076 4.1814 -0.0469076 4.4385 0.209082 4.6305L0.402659 4.77571L6.42696 4.80159L12.4512 4.82746L10.3675 6.17086C8.9822 7.06398 8.26774 7.56146 8.23589 7.65492C8.1799 7.81949 8.36738 8.08534 8.59489 8.16384C8.67976 8.19319 8.86837 8.21715 9.01397 8.21715C9.25504 8.21715 9.53501 8.0518 12.1479 6.36622C14.9561 4.55468 15.0171 4.511 15.0171 4.30995C15.0171 4.1089 14.9561 4.06522 12.1479 2.25368C9.46321 0.521836 9.26073 0.402861 8.99913 0.40431C8.84542 0.405189 8.65642 0.429616 8.57924 0.458648Z" fill="#FD9149"/>
</svg>
