<svg width="36" height="31" viewBox="0 0 36 31" fill="none" xmlns="http://www.w3.org/2000/svg">
<path fill-rule="evenodd" clip-rule="evenodd" d="M22.9503 0.00984804C20 0.326626 17.0066 1.3828 13.7045 3.27207C10.8754 4.89074 7.9089 7.2411 5.64545 9.65716C2.47126 13.0454 0.489967 16.5811 0.0575362 19.629C-0.0406041 20.3205 -0.00930385 21.496 0.121805 22.0421C0.512563 23.6701 1.56897 25.4328 3.0574 26.9402C4.3265 28.2255 5.40235 28.9789 7.00899 29.7075C9.8123 30.9788 13.1188 31.3246 16.4036 30.6901C20.3357 29.9305 24.2738 27.8503 28.252 24.4313C32.8897 20.4455 35.399 16.5944 35.9439 12.6261C36.0274 12.0178 36.0155 10.5337 35.9224 9.94216C35.7595 8.90781 35.506 8.05475 35.096 7.16101C34.3831 5.60711 33.4487 4.39725 32.0754 3.25037C30.2903 1.75944 28.2805 0.710464 26.3493 0.261668C25.3545 0.0304635 25.2017 0.0126876 24.1229 0.00249651C23.5648 -0.0027546 23.0371 0.000551621 22.9503 0.00984804ZM25.4985 1.59339C25.7465 1.64897 26.1412 1.77601 26.3755 1.87571C26.7257 2.02472 26.8709 2.11648 27.1923 2.39183C27.5197 2.67228 27.6175 2.78683 27.7933 3.09626C28.1168 3.6654 28.2311 4.10879 28.26 4.90634C28.2814 5.49637 28.2394 6.10126 28.1502 6.49004L28.1256 6.597H27.3745C23.777 6.597 19.407 8.21688 15.5779 10.9697C14.862 11.4844 13.3998 12.7464 12.7575 13.404C11.4383 14.7546 10.4011 16.1091 9.55559 17.5854C9.03814 18.489 8.78693 19.0069 8.47334 19.8168C7.93357 21.2107 7.66711 22.5872 7.71825 23.7174L7.74225 24.2481L7.41973 24.2948C7.2423 24.3205 6.69125 24.3505 6.19514 24.3615C5.47406 24.3775 5.21171 24.3686 4.8872 24.3173C3.13213 24.0397 2.15578 23.2219 1.81297 21.7425C1.69367 21.2276 1.70513 20.0868 1.83628 19.4185C2.39838 16.5545 4.31446 13.3437 7.31131 10.2442C11.2111 6.21076 16.4436 2.99085 20.9133 1.87399C22.1742 1.55893 22.9688 1.46184 24.1454 1.47907C24.9404 1.49074 25.101 1.50428 25.4985 1.59339ZM20.4465 2.97175C19.5423 3.24142 19.0442 3.83282 18.2942 5.52733C18.1332 5.89102 17.905 6.4397 17.7872 6.7466C17.5574 7.34484 17.4201 7.53466 17.1456 7.63357C16.8478 7.74089 16.374 7.65932 16.1755 7.46655C15.9728 7.26965 15.9027 6.90635 16.0205 6.66321C16.1053 6.48813 16.3605 6.30644 16.6299 6.22927C16.9554 6.13599 17.1322 5.95217 17.1322 5.70676C17.1322 5.47291 16.9962 5.28384 16.7546 5.18173C16.601 5.11685 16.5534 5.11378 16.3393 5.15512C15.9762 5.22518 15.5881 5.40928 15.3152 5.64087C15.1236 5.80354 14.998 5.97243 14.7303 6.42776C14.2718 7.20738 13.9089 8.13729 13.4803 9.63098C13.3058 10.2389 13.2805 10.2934 13.1039 10.4403C12.5979 10.8612 11.7417 10.5968 11.6845 10.0021C11.6735 9.88833 11.6884 9.7332 11.7174 9.65735C11.7851 9.48041 12.0708 9.2578 12.2979 9.20506C12.6628 9.12034 12.8732 8.88139 12.8357 8.59433C12.8057 8.36519 12.6976 8.23792 12.454 8.14499C12.2555 8.06926 12.2388 8.06879 11.9697 8.13161C11.2038 8.31042 10.6863 8.78326 10.2152 9.73468C9.76102 10.652 9.55085 11.5489 9.4192 13.1317C9.39165 13.4633 9.34921 13.8005 9.32494 13.881C9.22657 14.2072 8.80943 14.445 8.40479 14.4057C7.63116 14.3305 7.39443 13.4606 8.03901 13.0614C8.45489 12.8038 8.49711 12.3733 8.13084 12.1249C7.83033 11.921 7.44562 11.9995 7.03109 12.3493C6.73442 12.5997 6.51725 12.9383 6.42335 13.297C6.24245 13.9879 6.21823 15.2774 6.35687 16.8377C6.45691 17.9642 6.45213 18.2146 6.32598 18.4438C6.20709 18.6599 5.90392 18.8107 5.58871 18.8106C5.2827 18.8106 5.07703 18.7265 4.89041 18.5251C4.76426 18.3889 4.7519 18.3503 4.7519 18.0915C4.7519 17.8282 4.76281 17.7957 4.90096 17.6474C5.21527 17.3101 5.24247 17.0517 4.98981 16.8035C4.51385 16.336 3.75633 16.7696 3.49051 17.6617C3.15743 18.7794 4.21163 19.936 5.56553 19.9383C6.38411 19.9397 7.15174 19.5209 7.50344 18.881C7.62516 18.6596 7.67157 18.5089 7.71356 18.1992C7.7676 17.8004 7.75677 17.5438 7.61556 15.8763C7.59211 15.5994 7.57948 15.3673 7.58746 15.3604C7.59544 15.3535 7.67356 15.3736 7.76105 15.4051C8.61387 15.7125 9.74362 15.4059 10.2717 14.7238C10.5043 14.4234 10.6197 14.0899 10.681 13.5401C10.8483 12.0416 10.9676 11.2647 11.0304 11.2647C11.0429 11.2647 11.1304 11.3174 11.2248 11.382C11.4769 11.5542 11.8646 11.6951 12.2151 11.7419C13.0815 11.8575 14.0409 11.427 14.4199 10.7524C14.4961 10.617 14.6311 10.2524 14.72 9.94216C14.8803 9.38321 15.1441 8.57975 15.235 8.37355L15.2822 8.26651L15.5194 8.42089C15.9897 8.72701 16.5753 8.86012 17.1133 8.78322C17.4694 8.73234 17.9191 8.55769 18.1937 8.3636C18.443 8.18743 18.7235 7.83063 18.8252 7.56021C19.0106 7.06793 19.4461 6.02988 19.481 5.99752C19.5032 5.97687 19.6056 6.03078 19.726 6.12646C20.1597 6.47125 20.8318 6.64321 21.4145 6.55846C21.7829 6.50486 22.2653 6.31317 22.5283 6.11585C23.0135 5.75185 23.35 5.01879 23.1701 4.71765C22.959 4.36407 22.5006 4.28352 22.1614 4.54039C22.0488 4.62566 21.9852 4.72165 21.931 4.88821C21.8732 5.06586 21.8122 5.15326 21.6631 5.27178C21.0077 5.79277 19.9907 5.19702 20.3089 4.47847C20.4093 4.25162 20.6353 4.08588 20.9529 4.00626C21.4789 3.8744 21.6761 3.48126 21.3992 3.11676C21.2428 2.91088 20.8507 2.85121 20.4465 2.97175ZM30.3018 3.85853C30.7511 4.18822 31.4981 4.83924 31.8318 5.192C32.8711 6.29069 33.6924 7.76781 34.0619 9.20311C34.4063 10.5405 34.4175 12.0908 34.0926 13.4525C33.425 16.2507 31.6824 18.9748 28.6991 21.8836C27.9489 22.615 26.2628 24.0697 25.4308 24.7032C21.6337 27.5945 17.9875 29.17 14.3925 29.4727C13.5393 29.5446 11.9714 29.4984 11.1788 29.3781C9.05762 29.056 7.13392 28.2649 5.56278 27.0685C5.1238 26.7343 4.10077 25.7562 4.14917 25.717C4.15819 25.7097 4.2975 25.7275 4.45874 25.7564C5.01394 25.8562 5.90469 25.8949 6.62942 25.8507C7.82248 25.778 8.93035 25.5775 10.2768 25.1904C17.7388 23.0452 25.888 16.2608 28.873 9.70878C29.8776 7.50366 30.2364 5.48167 29.9027 3.90567C29.8531 3.67147 29.841 3.53794 29.8706 3.55299C29.8969 3.56633 30.0909 3.70379 30.3018 3.85853ZM27.6648 8.18101C27.5323 8.6365 26.9664 9.82531 26.4654 10.7007C23.6224 15.6682 17.5781 20.7697 11.8102 23.0698C11.0479 23.3738 9.61183 23.8673 9.48974 23.8673C9.43539 23.8673 9.42249 23.4224 9.46349 22.9629C9.67853 20.5521 11.0502 17.7685 13.2885 15.2013C14.4734 13.8422 16.1692 12.3855 17.7636 11.3572C20.8608 9.35948 24.4736 8.09925 27.1608 8.0791L27.6957 8.0751L27.6648 8.18101ZM28.337 13.3034C28.0206 13.4222 27.6352 13.9596 27.5195 14.4433C27.4049 14.9217 27.4235 15.9854 27.5669 17.1576C27.7578 18.7188 27.7276 19.0882 27.3871 19.3625C27.2095 19.5056 27.0526 19.5498 26.7217 19.5498C26.4724 19.5498 26.4266 19.5374 26.3242 19.4428C26.1309 19.264 26.0886 19.1574 26.0889 18.8496C26.0892 18.5072 26.1899 18.2174 26.3807 18.0104C26.6305 17.7393 26.527 17.3042 26.1787 17.1617C25.8429 17.0243 25.6317 17.0905 25.1788 17.4753C24.7151 17.8694 24.4063 18.3357 24.2301 18.908C24.1013 19.3263 24.1111 20.3314 24.2489 20.8487C24.3604 21.2669 24.3916 21.6793 24.3338 21.9732C24.3056 22.1165 24.2521 22.2005 24.1049 22.333C23.918 22.5013 23.9053 22.5059 23.6327 22.5059C23.2784 22.5059 23.0391 22.4057 22.8714 22.1871C22.7698 22.0547 22.7473 21.982 22.7473 21.7863C22.7473 21.5371 22.7446 21.5421 23.1094 21.1096C23.309 20.8729 23.2203 20.5225 22.9202 20.3626C22.7943 20.2955 22.7155 20.283 22.5101 20.2977C22.2712 20.3148 22.2425 20.3284 22.0372 20.521C21.5176 21.0083 21.2431 21.8389 21.0773 23.4258C20.9887 24.2735 20.9642 24.3603 20.7672 24.525C20.3414 24.8809 19.6135 24.7649 19.3768 24.3033C19.2176 23.9929 19.2886 23.7567 19.6607 23.3583C19.9626 23.0351 19.6474 22.5059 19.1528 22.5059C18.9048 22.5059 18.7624 22.5815 18.4412 22.8837C17.6666 23.6123 17.1118 24.6592 16.7894 26.0004C16.6273 26.675 16.4939 26.8429 16.0422 26.941C15.3881 27.0831 14.8153 26.4888 15.08 25.9427C15.1171 25.866 15.2073 25.7445 15.2804 25.6727C15.6723 25.2878 15.4246 24.7237 14.8636 24.7232C14.639 24.723 14.485 24.7955 14.2575 25.0083C13.7658 25.4683 13.5825 26.213 13.8193 26.7887C13.9588 27.1279 13.7875 27.5524 13.4564 27.6879C13.3572 27.7285 13.2253 27.7826 13.1633 27.8081C13.1013 27.8336 13.0036 27.9361 12.9463 28.0356C12.8067 28.278 12.8445 28.4621 13.0745 28.6614C13.2274 28.7938 13.2652 28.8073 13.4849 28.8072C13.9466 28.8072 14.5587 28.4692 14.7919 28.0855C14.8768 27.9459 14.9188 27.9124 14.9899 27.9278C15.0395 27.9385 15.1911 27.9745 15.3267 28.0078C16.0305 28.1803 16.82 27.9936 17.3616 27.5266C17.7051 27.2303 17.8824 26.915 18.0176 26.36C18.078 26.1122 18.1906 25.7306 18.2679 25.5119L18.4085 25.1144L18.6762 25.3282C19.1087 25.6735 19.6102 25.8511 20.1527 25.8511C20.979 25.8511 21.7274 25.4666 22.0714 24.8654C22.2084 24.6259 22.24 24.5161 22.2968 24.0813C22.3331 23.8032 22.3735 23.5218 22.3865 23.4561L22.4101 23.3365L22.6689 23.4445C22.8113 23.5039 23.0003 23.5631 23.089 23.576L23.2504 23.5996L23.2306 23.8049C23.1905 24.2224 23.5683 24.5098 24.0206 24.4058C24.2369 24.3561 24.6605 23.9789 24.9178 23.6068C25.5672 22.6682 25.7711 21.733 25.5463 20.7243C25.5019 20.5253 25.4766 20.3531 25.4899 20.3416C25.5031 20.3301 25.5917 20.3666 25.6866 20.4225C25.9282 20.5649 26.3822 20.6779 26.7097 20.6772C27.6052 20.6753 28.377 20.2754 28.7353 19.6276C29.0307 19.0935 29.0521 18.7212 28.8749 17.2036C28.8309 16.827 28.8075 16.5079 28.8228 16.4947C28.8382 16.4814 28.8982 16.4925 28.9561 16.5193C29.0141 16.5462 29.2675 16.576 29.5194 16.5858C30.2383 16.6135 30.7491 16.4454 31.208 16.0302C31.608 15.6682 31.7636 15.2999 31.7342 14.7849C31.6998 14.1814 31.4205 13.7226 31.0804 13.7109C30.7062 13.698 30.5203 13.7782 30.391 14.0086C30.2802 14.2061 30.2805 14.2564 30.3947 14.5706C30.5074 14.8808 30.4799 15.0707 30.2958 15.2515C30.1584 15.3865 29.8413 15.5045 29.6158 15.5045C29.3123 15.5045 28.9925 15.3168 28.8536 15.0571C28.7006 14.7712 28.7556 14.5676 29.0992 14.1489C29.2633 13.9488 29.295 13.7388 29.1878 13.5604C29.0248 13.2888 28.665 13.1802 28.337 13.3034Z" fill="url(#paint0_linear_329_900)"/>
<defs>
<linearGradient id="paint0_linear_329_900" x1="18" y1="0" x2="18" y2="31" gradientUnits="userSpaceOnUse">
<stop stop-color="#FD9149"/>
<stop offset="1" stop-color="#FFD588"/>
</linearGradient>
</defs>
</svg>
