<svg width="17" height="19" viewBox="0 0 17 19" fill="none" xmlns="http://www.w3.org/2000/svg">
<path d="M3.02344 7.2417V14.1828H3.59006H4.15668L4.17557 7.82721L4.2039 1.48106H7.93415H11.6644V3.63422V5.77794H13.7231H15.7724V11.7274V17.677L11.0789 17.6959L6.37594 17.7242V18.2908V18.8574H11.6644H16.9529L16.9812 11.5764L17.0001 4.28584L14.9602 2.29322L12.9204 0.300606H7.97192H3.02344V7.2417ZM15.2719 4.23862C15.4419 4.4086 15.5835 4.56915 15.5835 4.59748C15.5835 4.62581 14.9697 4.6447 14.2142 4.6447H12.8449V3.25648V1.85881L13.9025 2.89762C14.4786 3.47368 15.0925 4.06863 15.2719 4.23862Z" fill="black"/>
<path d="M5.95093 3.13487C5.95093 3.44651 5.97926 3.70149 6.02648 3.70149C6.16813 3.71094 10.3517 3.71094 10.5122 3.71094C10.6444 3.70149 10.6728 3.60706 10.6728 3.13487V2.56825H8.31185H5.95093V3.13487Z" fill="black"/>
<path d="M5.95093 7.95096V8.51758H7.55635H9.16178V7.95096V7.38434H7.55635H5.95093V7.95096Z" fill="black"/>
<path d="M10.8616 7.95096V8.51758H12.467H14.0724V7.95096V7.38434H12.467H10.8616V7.95096Z" fill="black"/>
<path d="M5.95093 10.2166V10.7832H7.55635H9.16178V10.2166V9.64996H7.55635H5.95093V10.2166Z" fill="black"/>
<path d="M10.8616 10.2166V10.7832H12.467H14.0724V10.2166V9.64996H12.467H10.8616V10.2166Z" fill="black"/>
<path d="M5.95093 12.4842V13.0508H7.55635H9.16178V12.4842V11.9175H7.55635H5.95093V12.4842Z" fill="black"/>
<path d="M10.8616 12.4842V13.0508H12.467H14.0724V12.4842V11.9175H12.467H10.8616V12.4842Z" fill="black"/>
<path d="M6.51752 13.9665C6.44197 13.9949 5.56371 14.8165 4.58157 15.7986L2.78727 17.5834L1.79569 16.5919C0.747439 15.5436 0.483016 15.4114 0.161931 15.7703C-0.178041 16.148 -0.0647169 16.3463 1.30462 17.7062C2.25843 18.6506 2.67395 19 2.84393 19C3.17446 19 7.27302 14.8826 7.27302 14.552C7.27302 14.1365 6.88583 13.8438 6.51752 13.9665Z" fill="black"/>
<path d="M10.8616 15.5522V16.166H12.467H14.0724V15.5522V14.9383H12.467H10.8616V15.5522Z" fill="black"/>
</svg>
