<svg width="18" height="16" viewBox="0 0 18 16" fill="none" xmlns="http://www.w3.org/2000/svg">
<path d="M1.37455 0.116513C0.842727 0.255605 0.466364 0.574696 0.212727 1.08197L0 1.50742V7.89742V14.2874L0.212727 14.7211C0.474545 15.2447 0.916364 15.5801 1.48091 15.7029C2.05364 15.8256 15.9545 15.8256 16.5273 15.7029C17.0509 15.5883 17.5664 15.2038 17.8118 14.7374L18 14.3774V7.89742V1.41742L17.8118 1.05742C17.5664 0.591059 17.0509 0.206513 16.5273 0.0919676C15.8891 -0.047123 1.89 -0.0225773 1.37455 0.116513ZM16.5191 1.26197C16.6418 1.32742 16.7809 1.4747 16.8382 1.59742C16.9773 1.90015 16.9773 13.8947 16.8382 14.1974C16.6255 14.6638 16.92 14.6474 8.96727 14.6474H1.63636L1.37455 14.4101L1.10455 14.1729V7.89742V1.62197L1.37455 1.3847L1.63636 1.14742H8.96727C15.1445 1.14742 16.3227 1.16379 16.5191 1.26197Z" fill="black"/>
<path d="M10.3091 3.60206C10.1045 3.8066 10.0963 4.19115 10.2927 4.36297C10.4236 4.4857 10.6772 4.50206 12.1581 4.50206H13.8681L11.7245 6.6457L9.57269 8.79751L8.27996 7.50479C7.29814 6.52297 6.94632 6.22024 6.79087 6.22024C6.63541 6.22842 6.07087 6.7357 4.43451 8.33115C2.40541 10.3193 2.28269 10.4502 2.29087 10.7284C2.29087 11.0802 2.49541 11.293 2.82269 11.293C3.01905 11.293 3.36269 10.9902 4.9336 9.42751L6.79905 7.57024L8.04269 8.86297C9.11451 9.9757 9.31905 10.1475 9.53178 10.1475C9.74451 10.1393 10.1372 9.78751 12.1909 7.77479L14.6045 5.41024L14.6454 7.0957C14.6863 8.73206 14.6945 8.77297 14.8827 8.92842C15.1363 9.14115 15.3491 9.12479 15.5863 8.87933L15.7909 8.68297V6.0566V3.43842H13.1318C10.5791 3.43842 10.4645 3.4466 10.3091 3.60206Z" fill="black"/>
</svg>
