<svg width="15" height="15" viewBox="0 0 15 15" fill="none" xmlns="http://www.w3.org/2000/svg">
<path d="M5.91196 0.0342855C5.78867 0.0782938 5.67419 0.163376 5.58613 0.271928C5.47165 0.418621 5.44523 0.585851 5.44523 1.17262C5.44523 1.51295 5.43349 1.72419 5.41588 1.72419C5.4012 1.72419 5.26618 1.777 5.11647 1.84154L4.84348 1.9589L4.43253 1.55109C4.2065 1.32812 3.97461 1.11981 3.91884 1.09047C3.76913 1.01419 3.49908 1.023 3.33176 1.10514C3.14977 1.19903 1.19187 3.15591 1.09794 3.33781C1.01575 3.50504 1.00694 3.77495 1.08326 3.92458C1.11262 3.98032 1.32103 4.2121 1.54412 4.43801L1.95213 4.84875L1.83472 5.12159C1.77014 5.27122 1.7173 5.40618 1.7173 5.42085C1.7173 5.43845 1.50889 5.45019 1.16545 5.45019C0.525539 5.45019 0.37877 5.47952 0.211454 5.64089C-0.011635 5.85799 0.000106499 5.75237 0.000106499 7.50389C0.000106499 9.2554 -0.011635 9.14978 0.211454 9.36689C0.37877 9.52825 0.525539 9.55759 1.16545 9.55759C1.50889 9.55759 1.7173 9.56932 1.7173 9.58693C1.7173 9.6016 1.77014 9.73655 1.83472 9.88618L1.95213 10.159L1.54412 10.5698C1.32103 10.7957 1.11262 11.0275 1.08326 11.0832C1.00694 11.2328 1.01575 11.5027 1.09794 11.67C1.19187 11.8519 3.14977 13.8087 3.33176 13.9026C3.49908 13.9848 3.76913 13.9936 3.91884 13.9173C3.97461 13.888 4.2065 13.6797 4.43253 13.4567L4.84348 13.0489L5.11647 13.1662C5.26618 13.2308 5.4012 13.2836 5.41588 13.2836C5.43349 13.2836 5.44523 13.4919 5.44523 13.8352C5.44523 14.4747 5.47459 14.6214 5.63603 14.7887C5.85325 15.0116 5.74758 14.9999 7.5 14.9999C9.25242 14.9999 9.14675 15.0116 9.36397 14.7887C9.52541 14.6214 9.55477 14.4747 9.55477 13.8352C9.55477 13.4919 9.56651 13.2836 9.58412 13.2836C9.5988 13.2836 9.73382 13.2308 9.88353 13.1662L10.1565 13.0489L10.5675 13.4567C10.7935 13.6797 11.0254 13.888 11.0812 13.9173C11.2309 13.9936 11.5009 13.9848 11.6682 13.9026C11.8502 13.8087 13.8081 11.8519 13.9021 11.67C13.9843 11.5027 13.9931 11.2328 13.9167 11.0832C13.8874 11.0275 13.679 10.7957 13.4559 10.5698L13.0479 10.159L13.1653 9.88618C13.2299 9.73655 13.2827 9.6016 13.2827 9.58693C13.2827 9.56932 13.4911 9.55759 13.8345 9.55759C14.4745 9.55759 14.6212 9.52825 14.7885 9.36689C15.0116 9.14978 14.9999 9.2554 14.9999 7.50389C14.9999 5.75237 15.0116 5.85799 14.7885 5.64089C14.6212 5.47952 14.4745 5.45019 13.8345 5.45019C13.4911 5.45019 13.2827 5.43845 13.2827 5.42085C13.2827 5.40618 13.2299 5.27122 13.1653 5.12159L13.0479 4.84875L13.4559 4.43801C13.679 4.2121 13.8874 3.98032 13.9167 3.92458C13.9931 3.77495 13.9843 3.50504 13.9021 3.33781C13.8081 3.15591 11.8502 1.19903 11.6682 1.10514C11.5009 1.023 11.2309 1.01419 11.0812 1.09047C11.0254 1.11981 10.7935 1.32812 10.5675 1.55109L10.1565 1.9589L9.88353 1.84154C9.73382 1.777 9.5988 1.72419 9.58412 1.72419C9.56651 1.72419 9.55477 1.51588 9.55477 1.17262C9.55477 0.533042 9.52541 0.386349 9.36397 0.219119C9.14675 -0.00385475 9.24655 0.00788116 7.54403 0.00201321C6.34053 -0.00385475 5.99415 0.00201321 5.91196 0.0342855ZM8.18101 1.87675C8.19275 2.44005 8.20743 2.49286 8.4041 2.69823C8.49216 2.79211 8.56848 2.82732 8.87669 2.92707C9.07923 2.99455 9.43441 3.13831 9.66337 3.24979C10.1477 3.48744 10.2446 3.51091 10.4765 3.44343C10.6262 3.39942 10.6849 3.35541 11.0107 3.03856L11.3776 2.68062L11.8502 3.15591L12.3258 3.62826L11.9676 3.99499C11.6506 4.32065 11.6066 4.37933 11.5626 4.52896C11.4951 4.76073 11.5215 4.86635 11.7563 5.34457C11.8678 5.57341 12.0117 5.92547 12.0792 6.12791C12.179 6.43596 12.2142 6.51224 12.3082 6.60026C12.5136 6.79683 12.5665 6.8115 13.1301 6.82323L13.6349 6.83497V7.50389V8.17281L13.1301 8.18454C12.5665 8.19628 12.5136 8.21095 12.3082 8.40752C12.2142 8.49553 12.179 8.57181 12.0792 8.87987C12.0117 9.0823 11.8678 9.43437 11.7563 9.66321C11.5215 10.1414 11.4951 10.247 11.5626 10.4788C11.6066 10.6284 11.6506 10.6871 11.9676 11.0128L12.3258 11.3795L11.8502 11.8519L11.3776 12.3271L11.0107 11.9692C10.6849 11.6524 10.6262 11.6084 10.4765 11.5643C10.2446 11.4969 10.1477 11.5203 9.66337 11.758C9.43441 11.8695 9.07923 12.0132 8.87669 12.0807C8.56848 12.1805 8.49216 12.2157 8.4041 12.3095C8.20743 12.5149 8.19275 12.5677 8.18101 13.1281L8.16927 13.6356H7.5H6.83073L6.81899 13.1281C6.80725 12.5677 6.79257 12.5149 6.5959 12.3095C6.50784 12.2157 6.43152 12.1805 6.12331 12.0807C5.92077 12.0132 5.56852 11.8695 5.33956 11.758C4.86109 11.5233 4.75542 11.4969 4.52353 11.5643C4.37382 11.6084 4.31511 11.6524 3.98929 11.9692L3.62236 12.3271L3.14977 11.8519L2.67424 11.3795L3.03235 11.0128C3.34937 10.6871 3.3934 10.6284 3.43744 10.4788C3.50495 10.247 3.47853 10.1414 3.2437 9.66321C3.13216 9.43437 2.98832 9.0823 2.92081 8.87987C2.82101 8.57181 2.78578 8.49553 2.69185 8.40752C2.48637 8.21095 2.43354 8.19628 1.87288 8.18454L1.36506 8.17281V7.50389V6.83497L1.87288 6.82323C2.43354 6.8115 2.48637 6.79683 2.69185 6.60026C2.78578 6.51224 2.82101 6.43596 2.92081 6.12791C2.98832 5.92547 3.13216 5.57341 3.2437 5.34457C3.47853 4.86635 3.50495 4.76073 3.43744 4.52896C3.3934 4.37933 3.34937 4.32065 3.03235 3.99499L2.67424 3.62826L3.14977 3.15591L3.62236 2.68062L3.98929 3.03856C4.31511 3.35541 4.37382 3.39942 4.52353 3.44343C4.75542 3.51091 4.86109 3.4845 5.33956 3.24979C5.56852 3.13831 5.92077 2.99455 6.12331 2.92707C6.43152 2.82732 6.50784 2.79211 6.5959 2.69823C6.79257 2.49286 6.80725 2.44005 6.81899 1.87675L6.83073 1.37212H7.5H8.16927L8.18101 1.87675Z" fill="#19BC46"/>
<path d="M8.67414 5.89348C8.57727 5.93749 8.31896 6.17513 7.72895 6.7619L6.91585 7.57458L6.66634 7.33694C6.364 7.04356 6.22897 6.97021 6.00001 6.97021C5.71528 6.97021 5.47458 7.1257 5.36597 7.37802C5.3102 7.51591 5.319 7.78876 5.38358 7.92958C5.41881 8.00293 5.64777 8.2523 5.9912 8.59263C6.43445 9.02978 6.57241 9.15007 6.68689 9.19114C6.8454 9.24982 7.05675 9.23808 7.21232 9.15887C7.34735 9.09432 9.45202 6.99368 9.54888 6.82938C9.69859 6.57707 9.63988 6.21327 9.41679 6.00204C9.2348 5.826 8.92071 5.782 8.67414 5.89348Z" fill="#19BC46"/>
</svg>
