<svg width="20" height="28" viewBox="0 0 20 28" fill="none" xmlns="http://www.w3.org/2000/svg">
<path fill-rule="evenodd" clip-rule="evenodd" d="M9.63369 0.303592C9.48369 0.453709 9.43846 0.771837 9.43846 1.67875C9.43846 2.32768 9.49637 2.9668 9.56708 3.09902C9.7121 3.36992 10.0596 3.41416 10.2835 3.19023C10.488 2.98568 10.488 0.462035 10.2835 0.257488C10.0809 0.0549301 9.86719 0.0700909 9.63369 0.303592ZM2.94542 3.10076C2.55248 3.32966 2.71527 3.6714 3.67401 4.63013C4.62901 5.58514 4.98591 5.75626 5.19431 5.35872C5.37276 5.01822 5.18313 4.70793 4.24514 3.80536C3.32556 2.92044 3.28902 2.90068 2.94542 3.10076ZM15.6376 3.92006C15.0987 4.4446 14.6577 4.96466 14.6577 5.07576C14.6577 5.3325 14.8982 5.57619 15.1517 5.57619C15.4404 5.57619 17.1431 3.81518 17.1431 3.51656C17.1431 3.25448 16.9275 2.96655 16.7312 2.96655C16.6687 2.96655 16.1766 3.39565 15.6376 3.92006ZM6.24401 6.72568C6.06021 6.96713 5.21332 9.30413 5.21332 9.56969C5.21332 9.73596 5.69499 10.1242 6.82882 10.8717C7.71734 11.4575 8.44431 11.9557 8.44431 11.9786C8.44431 12.0016 8.1227 12.1133 7.72976 12.2269C5.99087 12.7291 4.31921 13.9628 3.30679 15.4911C2.35067 16.9344 1.97277 18.1661 1.96469 19.8654C1.9581 21.2491 2.14761 22.1764 2.66954 23.3128C3.63747 25.4204 5.25806 26.871 7.51229 27.6476C8.3818 27.9472 8.69347 27.99 9.99767 27.99C11.3019 27.99 11.6135 27.9472 12.483 27.6476C14.7373 26.871 16.3579 25.4204 17.3258 23.3128C17.8477 22.1764 18.0372 21.2491 18.0306 19.8654C18.0226 18.1661 17.6447 16.9344 16.6885 15.4911C15.6761 13.9628 14.0045 12.7291 12.2656 12.2269C11.8726 12.1133 11.551 12.0016 11.551 11.9786C11.551 11.9557 12.278 11.4575 13.1665 10.8717C14.3004 10.1242 14.782 9.73596 14.782 9.56969C14.782 9.30413 13.9351 6.96713 13.7513 6.72568C13.6615 6.60762 12.7602 6.57034 9.99767 6.57034C7.23518 6.57034 6.33385 6.60762 6.24401 6.72568ZM7.8851 7.6403C7.46482 7.96526 6.70455 8.32203 6.70455 8.19416C6.70455 8.12768 6.76942 7.93084 6.84882 7.75674C6.97334 7.48347 7.07089 7.44072 7.56337 7.4442C8.10245 7.44793 8.12009 7.45861 7.8851 7.6403ZM13.1465 7.75674C13.2259 7.93084 13.2908 8.12768 13.2908 8.19416C13.2908 8.32203 12.5305 7.96526 12.1102 7.6403C11.8752 7.45861 11.8929 7.44793 12.432 7.4442C12.9244 7.44072 13.022 7.48347 13.1465 7.75674ZM11.3066 8.3101L12.483 8.99358L11.278 9.02912C10.6153 9.04863 9.49699 9.04863 8.79301 9.02912L7.51304 8.99358L8.75535 8.28028C9.43858 7.88809 10.0275 7.58052 10.0639 7.5968C10.1003 7.6132 10.6595 7.93419 11.3066 8.3101ZM0.143158 9.82618C-0.0477192 10.0171 -0.0477192 10.3312 0.143158 10.5221C0.382375 10.7613 2.78287 10.7229 3.0298 10.476C3.27498 10.2307 3.27498 10.1176 3.0298 9.87229C2.78287 9.62536 0.382375 9.58696 0.143158 9.82618ZM16.9696 9.86831C16.86 9.97791 16.7703 10.1156 16.7703 10.1741C16.7703 10.2327 16.86 10.3704 16.9696 10.48C17.2694 10.7798 19.7273 10.7063 19.9253 10.3916C20.0249 10.2333 20.0249 10.115 19.9253 9.95666C19.7273 9.64202 17.2694 9.56845 16.9696 9.86831ZM11.3067 10.9166C10.0286 11.7679 10.0005 11.7794 9.69122 11.579C9.51799 11.4668 8.92946 11.0768 8.38329 10.7123L7.39026 10.0499L9.99879 10.0501L12.6073 10.0504L11.3067 10.9166ZM11.7424 13.0967C14.1465 13.709 16.1221 15.6325 16.8457 18.0652C17.1768 19.1779 17.146 20.9358 16.7753 22.0885C15.834 25.0161 13.0357 27.0747 9.99767 27.0747C7.62351 27.0747 5.32579 25.8011 4.00046 23.7505C2.63524 21.6382 2.54453 18.8913 3.7636 16.574C4.58688 15.0088 6.4242 13.5704 8.19577 13.1043C9.10144 12.8659 10.8219 12.8623 11.7424 13.0967ZM8.81712 14.2863C6.81366 14.6748 4.92862 16.4492 4.41204 18.433C3.43454 22.1868 6.14782 25.7326 9.99767 25.7326C13.8475 25.7326 16.5608 22.1868 15.5833 18.433C14.8347 15.5582 11.8121 13.7057 8.81712 14.2863ZM11.4448 15.3913C12.8444 15.8282 14.0057 16.9366 14.5348 18.3408C14.9339 19.3998 14.8531 21.0186 14.3499 22.0471C13.6574 23.4626 12.3608 24.434 10.7732 24.7265C8.73609 25.1018 6.59184 23.9814 5.6454 22.0471C5.14224 21.0186 5.06147 19.3998 5.46049 18.3408C6.38021 15.9001 8.97568 14.6208 11.4448 15.3913Z" fill="url(#paint0_linear_325_2337)"/>
<defs>
<linearGradient id="paint0_linear_325_2337" x1="10" y1="0.116211" x2="10" y2="27.99" gradientUnits="userSpaceOnUse">
<stop stop-color="#FD9149"/>
<stop offset="1" stop-color="#FFD588"/>
</linearGradient>
</defs>
</svg>
