<svg width="18" height="21" viewBox="0 0 18 21" fill="none" xmlns="http://www.w3.org/2000/svg">
<path d="M8.63135 2.16691V3.58088L8.95231 3.63293C9.12581 3.66763 9.2993 3.66763 9.34267 3.64161C9.37737 3.61558 9.41207 2.9563 9.41207 2.16691V0.744256H9.02171H8.63135V2.16691Z" fill="black"/>
<path d="M5.29166 1.08289C4.97937 1.15229 4.97937 1.13494 5.30901 2.80916L5.53455 3.96289L5.84684 3.93687C6.07239 3.91952 6.16781 3.86747 6.19383 3.74602C6.2372 3.46843 5.75142 1.00482 5.64733 1.01349C5.59528 1.02217 5.43913 1.04819 5.29166 1.08289Z" fill="black"/>
<path d="M12.3787 1.18785C12.3353 1.30062 12.2139 1.88183 12.1098 2.48038C12.0057 3.07893 11.9016 3.62544 11.8929 3.71219C11.8582 3.85966 12.0664 3.95508 12.4134 3.95508C12.5869 3.95508 12.6216 3.85098 12.8298 2.75797C13.1074 1.30062 13.116 1.09243 12.8905 1.09243C12.7951 1.09243 12.665 1.0664 12.5869 1.04038C12.4915 1.00568 12.4221 1.05773 12.3787 1.18785Z" fill="black"/>
<path d="M1.79574 2.08852C1.55285 2.19261 1.51815 2.24466 1.5702 2.40948C1.71767 2.89526 2.48972 4.82105 2.55044 4.85574C2.66321 4.92514 3.16634 4.70827 3.16634 4.58683C3.16634 4.43068 2.19478 1.95839 2.13405 1.95839C2.10803 1.96707 1.95188 2.01912 1.79574 2.08852Z" fill="black"/>
<path d="M15.5712 2.88776C15.363 3.40825 15.1288 4.01548 15.042 4.24102L14.8772 4.6574L15.1895 4.78752C15.363 4.8656 15.5365 4.89162 15.5798 4.84825C15.6492 4.77885 16.4213 2.86174 16.5601 2.41066C16.6121 2.24584 16.5774 2.19379 16.3172 2.08969C16.1524 2.02029 15.9962 1.95957 15.9702 1.95957C15.9529 1.95957 15.7707 2.37596 15.5712 2.88776Z" fill="black"/>
<path d="M1.95181 7.98811C0.876145 9.35004 0 10.4864 0 10.5298C0 10.5732 2.02988 12.7765 4.51084 15.4397L9.01301 20.2715L9.33398 19.9418C9.69831 19.5602 14.8424 14.0257 16.7248 11.9871C17.4275 11.2238 18 10.5645 18 10.5211C18 10.4431 16.933 9.06377 15.12 6.791L14.0877 5.51582H8.99566L3.90361 5.5245L1.95181 7.98811ZM8.54458 6.37462C8.54458 6.47871 6.5494 9.15919 6.48 9.15919C6.41928 9.15052 4.45012 6.52209 4.39807 6.37462C4.38072 6.33124 5.23084 6.29654 6.45398 6.29654C7.69446 6.29654 8.54458 6.33124 8.54458 6.37462ZM13.6019 6.41799C13.4111 6.73895 11.6154 9.15919 11.5634 9.15919C11.5113 9.15919 9.62892 6.69558 9.4641 6.40064C9.41205 6.32257 9.85446 6.29654 11.5373 6.29654C13.3243 6.29654 13.6627 6.31389 13.6019 6.41799ZM5.11807 8.69076L6.19374 10.1568L3.75614 10.1828C2.42024 10.1915 1.3012 10.1828 1.27518 10.1655C1.24048 10.1221 2.59373 8.38715 3.36578 7.48498C3.7388 7.05124 3.81687 6.9992 3.92096 7.10329C3.99036 7.16401 4.52819 7.88401 5.11807 8.69076ZM15.3802 8.36112C15.9354 9.06377 16.4906 9.76642 16.5947 9.91389L16.7942 10.2002H14.3133C12.3528 10.2002 11.841 10.1741 11.893 10.0874C12.2053 9.56691 14.2092 6.99052 14.2699 7.03389C14.3133 7.05992 14.8164 7.65847 15.3802 8.36112ZM10.2361 8.76883L11.2511 10.1568L10.1667 10.1828C9.56819 10.1915 8.56193 10.1915 7.93735 10.1828L6.79229 10.1568L7.41687 9.28932C8.93494 7.19871 8.98699 7.13799 9.10843 7.25944C9.16916 7.32883 9.67229 8.00546 10.2361 8.76883ZM7.20867 14.5809C7.75518 16.5414 8.19759 18.1462 8.19759 18.1635C8.20627 18.259 7.72048 17.7558 5.1441 14.9886C3.5653 13.2884 2.07325 11.6835 1.83036 11.432L1.38795 10.9809L3.80819 10.9982L6.22843 11.0243L7.20867 14.5809ZM10.9735 11.059C10.9735 11.1023 10.5745 12.5597 10.0973 14.2946C9.61157 16.0209 9.17783 17.591 9.12578 17.7818C9.06506 17.9987 9.02169 18.0768 8.97831 17.9987C8.89157 17.8512 7.06988 11.2238 7.06988 11.085C7.06988 11.0069 7.57301 10.9809 9.02169 10.9809C10.132 10.9809 10.9735 11.0156 10.9735 11.059ZM15.5104 12.1693C14.9031 12.8286 13.3851 14.4508 12.1533 15.7693C10.9128 17.0965 9.88916 18.1635 9.87181 18.1549C9.84578 18.1202 11.7455 11.1544 11.8149 11.0416C11.8323 11.0069 12.9253 10.9809 14.2439 10.9809H16.6294L15.5104 12.1693Z" fill="black"/>
</svg>
