<svg width="18" height="19" viewBox="0 0 18 19" fill="none" xmlns="http://www.w3.org/2000/svg">
<path d="M4.34883 2.81569C2.09869 3.81576 0.213956 4.68119 0.137028 4.73889C-0.0456759 4.89275 -0.0456759 15.1434 0.137028 15.278C0.406275 15.4896 8.37793 18.9609 8.57986 18.9609C8.70487 18.9609 8.95489 18.8744 9.12798 18.7686C9.37799 18.6148 9.4453 18.5186 9.41646 18.3167C9.37799 17.9705 9.12798 17.8359 8.79142 17.9609C8.55102 18.0474 8.13753 17.8936 4.70462 16.3742L0.877459 14.6818V10.22C0.877459 6.01782 0.887075 5.7678 1.04093 5.81588C1.13709 5.84473 2.8295 6.58516 4.80078 7.46022C6.76244 8.33527 8.46447 9.05647 8.56063 9.05647C8.65679 9.05647 10.3877 8.32565 12.407 7.42175C14.4264 6.51785 16.1188 5.78703 16.1669 5.78703C16.2246 5.78703 16.263 6.53708 16.263 7.80639C16.263 9.7392 16.2727 9.82575 16.465 9.92191C16.6188 10.0085 16.715 9.99884 16.8977 9.87383L17.1285 9.72959V7.34482C17.1285 5.5851 17.0996 4.92159 17.0131 4.8062C16.8881 4.65235 8.71449 0.969423 8.52217 0.988655C8.47409 0.988655 6.58936 1.81563 4.34883 2.81569ZM9.94534 2.53683C11.2627 3.1234 11.282 3.14264 11.0127 3.24841C10.8589 3.31572 9.27222 4.01769 7.49326 4.81582L4.24305 6.25822L2.9449 5.67164C2.23331 5.3447 1.64674 5.05622 1.64674 5.02737C1.65635 4.96967 8.34908 1.95987 8.51255 1.95025C8.55102 1.94064 9.19529 2.20989 9.94534 2.53683ZM13.9167 4.30617C14.7052 4.65235 15.3784 4.96967 15.4264 5.00814C15.4649 5.0466 13.936 5.77742 12.0224 6.62362L8.55102 8.1718L7.42595 7.66215C6.81052 7.3929 6.09894 7.06596 5.82969 6.95057L5.34889 6.73902L8.76257 5.21007C10.6377 4.37348 12.2436 3.68113 12.3301 3.68113C12.4166 3.67152 13.1282 3.96 13.9167 4.30617Z" fill="black"/>
<path d="M12.3301 10.1716C10.7819 10.5851 9.48373 11.941 9.14717 13.4892C9.07985 13.7969 9.04139 14.3834 9.07024 14.845C9.1664 16.6624 10.3395 18.1625 12.1377 18.7683C12.6474 18.9414 12.9166 18.9703 13.7244 18.9414C14.6187 18.9126 14.7533 18.8837 15.436 18.5376C17.7246 17.4125 18.6285 14.8354 17.5419 12.5276C17.2246 11.8641 16.1957 10.8159 15.561 10.5082C14.5417 10.0178 13.359 9.89278 12.3301 10.1716ZM15.061 11.2583C15.7918 11.614 16.4745 12.3256 16.8207 13.0757C17.0323 13.5372 17.0804 13.7584 17.0804 14.4892C17.0804 15.2681 17.0515 15.422 16.7726 15.9989C16.4072 16.7778 15.7918 17.4029 15.0322 17.7779C14.5417 18.0183 14.3783 18.0471 13.5224 18.0471C12.6762 18.0471 12.4935 18.0183 12.0127 17.7875C11.705 17.6433 11.2338 17.3067 10.9742 17.0375C8.99331 15.0662 9.95491 11.6717 12.6762 10.9794C13.3494 10.8159 14.3975 10.9313 15.061 11.2583Z" fill="black"/>
<path d="M14.061 14.1905L13.0417 15.2002L12.5417 14.7194C12.2724 14.4598 12.0032 14.2482 11.9455 14.2482C11.8109 14.2482 11.4551 14.604 11.4551 14.7386C11.4551 14.9406 12.8302 16.2676 13.0417 16.2676C13.2437 16.2676 13.4841 16.056 15.0034 14.5079C15.7727 13.729 15.8111 13.6616 15.7053 13.4309C15.4842 12.9501 15.1765 13.0943 14.061 14.1905Z" fill="black"/>
</svg>
