<svg width="25" height="21" viewBox="0 0 25 21" fill="none" xmlns="http://www.w3.org/2000/svg">
<path fill-rule="evenodd" clip-rule="evenodd" d="M1.30921 0.178368C1.03426 0.393408 -0.0563377 3.62457 0.00227582 4.0508C0.0345339 4.28639 0.155879 4.36187 0.55835 4.3964L1.07311 4.44078V8.97346V13.5061L1.39074 13.8165C1.70687 14.1251 1.7379 14.1267 7.67763 14.1267H13.6466L13.8113 14.6003C14.0741 15.3556 14.8801 16.2169 15.7301 16.6508C16.8472 17.2212 18.1128 17.2178 19.2421 16.6413L20.0466 16.2306L22.2635 18.532C23.4828 19.7977 24.5548 20.8333 24.6456 20.8333C24.7365 20.8333 24.8801 20.6988 24.9648 20.5344C25.1041 20.2636 24.9097 20.0168 22.8993 17.913L20.6798 15.5905L21.0669 14.8229C21.4001 14.1624 21.4532 13.8961 21.4482 12.9138C21.4436 11.9686 21.381 11.6495 21.0848 11.0588C20.3795 9.65226 19.1744 8.83847 17.6863 8.76384L16.7903 8.71889L16.7524 6.57121L16.7146 4.42352H17.05C17.5513 4.42352 17.8198 4.27897 17.8198 4.00913C17.8198 3.53253 16.715 0.352882 16.4887 0.178368C16.3104 0.0408105 14.5706 0 8.8974 0C3.22259 0 1.48518 0.0408105 1.30921 0.178368ZM11.2223 1.17723C11.2176 1.2754 11.0477 1.83719 10.8448 2.4258L10.476 3.496L5.70591 3.53353C3.0823 3.55422 0.935837 3.54937 0.935837 3.52283C0.935837 3.4786 1.54133 1.58933 1.68752 1.17723C1.73652 1.03924 2.8241 0.998859 6.49095 0.998859C10.1961 0.998859 11.229 1.03781 11.2223 1.17723ZM16.4124 2.22317C16.7032 3.08747 16.7765 3.46647 16.6616 3.51227C16.5722 3.54795 15.7924 3.55893 14.9288 3.53667L13.3586 3.496L12.9898 2.4258C12.7869 1.83719 12.617 1.2754 12.6123 1.17723C12.6058 1.04366 13.0303 0.998859 14.3021 0.998859H16.0005L16.4124 2.22317ZM11.5055 8.3476V13.2705H6.7011H1.89672V8.84889V4.42737L6.46089 4.3897L11.0251 4.35217L11.2213 3.88841C11.3294 3.63328 11.4375 3.42466 11.4616 3.42466C11.4857 3.42466 11.5055 5.63998 11.5055 8.3476ZM14.3538 4.39255L15.8981 4.43293L15.8937 6.747L15.8894 9.06107L15.2846 9.44249C14.2653 10.0852 13.4273 11.631 13.4273 12.8684C13.4273 13.2424 13.389 13.2705 12.8782 13.2705H12.3291L12.3294 8.31193C12.3295 3.49572 12.3364 3.36772 12.5696 3.85274L12.8095 4.35217L14.3538 4.39255ZM3.84345 7.95234L3.88711 8.3476H6.7011H9.51511V7.99087V7.63413L6.65745 7.59561L3.79967 7.55694L3.84345 7.95234ZM3.86926 9.48616C3.8252 9.60559 3.8252 9.8008 3.86926 9.92023C3.93789 10.1063 4.34517 10.1317 6.73226 10.0986L9.51511 10.0599V9.7032V9.34646L6.73226 9.30779C4.34517 9.27469 3.93789 9.30009 3.86926 9.48616ZM18.9148 9.98916C19.9869 10.5626 20.6127 11.6407 20.6127 12.9138C20.6127 14.7803 19.2725 16.1729 17.4767 16.1729C13.7572 16.1729 13.1728 10.6508 16.7903 9.68864C17.3535 9.53881 18.3316 9.67708 18.9148 9.98916ZM18.797 11.7009C18.0253 12.335 17.9287 12.366 17.6826 12.0576C17.3888 11.6898 17.0968 11.8161 16.0353 12.7701C15.32 13.413 15.0058 13.794 15.0058 14.0181C15.0058 14.5892 15.4926 14.4773 16.3726 13.7039C16.8223 13.3086 17.2316 12.9852 17.2823 12.9852C17.3329 12.9852 17.4513 13.0815 17.5453 13.1992C17.8153 13.5374 18.0032 13.4646 19.0412 12.6203C20.0249 11.8202 20.1517 11.6136 19.8514 11.3014C19.6127 11.0532 19.5619 11.0725 18.797 11.7009Z" fill="black"/>
</svg>
