<svg width="15" height="13" viewBox="0 0 15 13" fill="none" xmlns="http://www.w3.org/2000/svg">
<path d="M0.591463 1.26291C0.054878 2.40926 0 2.56779 0 2.88487C0 3.07999 0.0304878 3.36048 0.0670732 3.50682C0.152439 3.84828 0.536585 4.2995 0.823171 4.39096L1.03659 4.46413V8.14706C1.03659 11.3239 1.04878 11.8605 1.12805 12.0129C1.32927 12.3971 1 12.3788 7.5 12.3788C14 12.3788 13.6707 12.3971 13.872 12.0129C13.9512 11.8605 13.9634 11.3239 13.9634 8.15316V4.47633L14.2073 4.36657C14.5061 4.23852 14.8354 3.86048 14.9268 3.5434C14.9695 3.41535 15 3.12267 15 2.89706C15 2.49462 14.9878 2.46413 14.3537 1.24462L13.7134 0.00071907H7.44512H1.18293L0.591463 1.26291ZM3.10976 0.409256C3.10366 0.470232 3.03049 0.927548 2.93902 1.43365L2.77439 2.34828L1.66463 2.36657C1.04878 2.37267 0.54878 2.36657 0.54878 2.34218C0.54878 2.32389 0.743902 1.85438 0.981707 1.3056L1.42073 0.305597H2.2622C3.03049 0.305597 3.10976 0.317793 3.10976 0.409256ZM5.89634 0.653158C5.87195 0.84828 5.83537 1.31779 5.81707 1.68974L5.77439 2.37877H4.5122H3.25L3.39024 1.56779C3.46951 1.12877 3.55488 0.659256 3.57317 0.531207L3.61585 0.305597H4.77439H5.93293L5.89634 0.653158ZM8.61585 0.561695C8.64024 0.708036 8.67073 1.12267 8.68902 1.49462C8.71341 1.86048 8.7439 2.21413 8.7561 2.26901C8.78658 2.37267 8.70122 2.37877 7.5 2.37877H6.21951L6.2439 2.23852C6.2622 2.16535 6.29268 1.81779 6.31098 1.46413C6.32927 1.11048 6.35976 0.708036 6.38415 0.561695L6.41463 0.305597H7.5H8.58537L8.61585 0.561695ZM11.3415 0.354378C11.3415 0.378768 11.4329 0.84828 11.5488 1.39096L11.7561 2.37877H10.4878H9.22561L9.18293 1.72023C9.16463 1.36048 9.12805 0.897061 9.10366 0.683646L9.06707 0.305597H10.2073C10.8293 0.305597 11.3415 0.32389 11.3415 0.354378ZM13.9634 1.2873C14.2134 1.82999 14.4329 2.2934 14.439 2.32389C14.4512 2.35438 13.9695 2.37877 13.3415 2.37877H12.2256L12.0244 1.38487C11.9146 0.842183 11.8232 0.378768 11.8293 0.348281C11.8293 0.32389 12.2073 0.305597 12.6707 0.305597H13.5061L13.9634 1.2873ZM2.68293 3.06779C2.68293 3.67755 2.31098 4.0434 1.59756 4.12877C0.951219 4.20194 0.426829 3.72633 0.426829 3.0617V2.74462H1.55488H2.68293V3.06779ZM5.73171 3.01901C5.73171 3.58609 5.42683 3.96413 4.85366 4.09218C4.45732 4.17755 4.07317 4.12877 3.71341 3.94584C3.38415 3.77511 3.23171 3.49462 3.23171 3.06779V2.74462H4.48171H5.73171V3.01901ZM8.7561 3.09218C8.73171 3.2873 8.66463 3.52511 8.60976 3.62877C8.27439 4.20194 7.04268 4.3117 6.54878 3.8117C6.34756 3.61657 6.21951 3.28121 6.21951 2.93974V2.74462H7.5061H8.79878L8.7561 3.09218ZM11.7683 3.06779C11.7683 3.49462 11.6159 3.77511 11.2866 3.94584C10.9268 4.12877 10.5427 4.17755 10.1463 4.09218C9.57317 3.96413 9.26829 3.58609 9.26829 3.01901V2.74462H10.5183H11.7683V3.06779ZM14.5732 3.0617C14.5671 3.74462 14.0854 4.18365 13.4024 4.12877C12.6768 4.06779 12.3171 3.72633 12.3171 3.10438V2.74462H13.4451H14.5732V3.0617ZM3.47561 4.2934C3.83537 4.48243 4.34756 4.58609 4.68902 4.5373C5.17073 4.47023 5.59146 4.27511 5.78659 4.0434L5.96341 3.82999L6.21341 4.07999C6.81707 4.68365 8.17683 4.68974 8.78658 4.07999L9.02439 3.84218L9.20732 4.0495C9.79268 4.71413 11.2805 4.69584 11.8598 4.01291L12.0366 3.8117L12.25 4.03121C12.4512 4.23243 12.622 4.3117 13.2805 4.48852C13.3354 4.50682 13.3537 5.26901 13.3537 8.0434C13.3537 9.98852 13.3354 11.6166 13.3171 11.6715C13.2866 11.7568 13.1524 11.769 12.4634 11.769H11.6524L11.6341 9.12267L11.6159 6.47633L11.4329 6.21413C11.3354 6.07389 11.128 5.89096 10.9817 5.8117C10.7256 5.67755 10.6524 5.67145 9.4878 5.67145C8.42683 5.67145 8.23171 5.68974 8.01829 5.7873C7.73171 5.92145 7.47561 6.17755 7.38415 6.42145C7.34146 6.53121 7.31707 7.50072 7.31707 9.18365V11.769L4.5 11.7568L1.67683 11.7385L1.66463 8.14096L1.64634 4.5434L2.10366 4.40316C2.46951 4.2934 2.59146 4.22633 2.7561 4.03121L2.95732 3.7934L3.07927 3.96413C3.14634 4.0617 3.32317 4.20804 3.47561 4.2934ZM10.8902 6.42755L11.0976 6.63487V9.20194V11.769H9.48171H7.86585V9.18974C7.86585 6.84218 7.87805 6.60438 7.97561 6.48852C8.17073 6.24462 8.28658 6.22633 9.5061 6.22023H10.6829L10.8902 6.42755Z" fill="black"/>
<path d="M3.48175 6.67049C3.43297 6.72537 3.41468 7.22537 3.42688 8.35952L3.44517 9.96927L4.60371 9.98757C5.64029 9.99976 5.76834 9.99366 5.83541 9.8961C5.93297 9.76196 5.94517 6.88391 5.85371 6.70098C5.79273 6.59122 5.71346 6.58513 4.67078 6.58513C3.79883 6.58513 3.53663 6.60342 3.48175 6.67049ZM5.3659 8.32293V9.51805L4.65249 9.49976L3.93297 9.48147L3.91468 8.30464L3.90249 7.13391H4.63419H5.3659V8.32293Z" fill="black"/>
<path d="M8.29265 9.47727C8.12801 9.67849 8.4024 9.9163 8.58533 9.73337C8.6646 9.6541 8.67069 9.61142 8.62191 9.52605C8.53045 9.38581 8.39021 9.36752 8.29265 9.47727Z" fill="black"/>
</svg>
