<svg width="25" height="25" viewBox="0 0 25 25" fill="none" xmlns="http://www.w3.org/2000/svg">
<path fill-rule="evenodd" clip-rule="evenodd" d="M0.921165 0.0314849C0.554554 0.147946 0.250079 0.407559 0.109443 0.72358C-0.0583528 1.10069 -0.0287015 2.65605 0.167524 3.77197C0.378698 4.97269 0.773787 6.13266 1.34551 7.23046L1.70289 7.91664L1.70299 9.45595L1.70304 10.9953L1.34889 10.9968C0.812378 10.9991 0.424811 11.2235 0.168208 11.6803C-0.118046 12.1897 -0.0338307 12.7773 0.394671 13.2603C0.807835 13.7259 1.72067 14.291 2.05964 14.291C2.38556 14.291 3.13656 13.8368 3.61352 13.3511C3.98111 12.9768 4.05985 12.8162 4.08613 12.3865C4.1043 12.0901 4.08935 11.9876 3.99801 11.7818C3.77511 11.2799 3.16128 10.9181 2.64817 10.9863L2.43577 11.0145L2.43734 9.98611L2.43885 8.95774L2.54681 9.0997C3.15502 9.8996 4.21944 10.9024 5.1591 11.5607L5.5621 11.843V13.2059V14.5687L5.32455 14.5382C4.74891 14.4643 4.11666 14.8602 3.92698 15.4135C3.81624 15.7364 3.8455 16.167 3.99786 16.4563C4.14846 16.7423 4.52494 17.1163 4.94309 17.3952C5.72613 17.9176 5.91733 17.9438 6.52506 17.6112C7.07446 17.3106 7.61439 16.8211 7.80587 16.4498C8.08329 15.912 7.98456 15.3444 7.53828 14.9121C7.24143 14.6245 6.8669 14.4877 6.50723 14.5355L6.29483 14.5637V13.4249C6.29483 12.7985 6.31134 12.2934 6.33147 12.3024C6.35159 12.3113 6.5932 12.4303 6.86827 12.5668C8.31009 13.282 9.95693 13.7208 11.6316 13.8359L12.1078 13.8686V15.5421C12.1078 16.4625 12.101 17.2156 12.0926 17.2156C12.0842 17.2156 11.9622 17.1618 11.8215 17.096C11.0048 16.7143 9.95483 16.7778 9.19782 17.2545C7.92033 18.0592 7.4674 19.6015 8.11856 20.9299C8.42909 21.5632 9.25659 22.399 10.2676 23.1001C11.1312 23.699 12.1612 24.2176 12.4898 24.2187C12.9695 24.2205 14.6182 23.2671 15.6005 22.4199C15.8155 22.2346 16.1401 21.9194 16.3218 21.7196C16.8634 21.1243 17.2462 20.2489 17.1004 19.9389C17.0239 19.7762 16.8218 19.7024 16.646 19.7729C16.5094 19.8277 16.4764 19.8873 16.3329 20.3384C16.2102 20.7244 16.0447 20.967 15.5847 21.4353C14.878 22.1548 13.8512 22.8848 12.946 23.3114L12.4897 23.5265L12.0179 23.2999C10.621 22.6288 9.16651 21.4238 8.76771 20.6071C8.24239 19.5313 8.72873 18.2331 9.84815 17.723C10.1417 17.5893 10.2271 17.5725 10.618 17.5716C11.1753 17.5702 11.3653 17.6278 11.8639 17.9493C12.2107 18.1728 12.2998 18.2093 12.4986 18.2093C12.6975 18.2093 12.7866 18.1728 13.1333 17.9493C13.6323 17.6276 13.8215 17.5703 14.3829 17.571C14.7952 17.5714 14.8517 17.5837 15.1926 17.7469C15.5517 17.9189 15.8301 18.1612 16.1766 18.6031C16.3513 18.8261 16.5874 18.8466 16.7449 18.6525C16.8853 18.4797 16.8723 18.3638 16.682 18.0904C16.1631 17.3449 15.3861 16.9084 14.477 16.8516C13.9606 16.8194 13.5071 16.9229 12.9261 17.2056C12.9059 17.2154 12.8894 16.4686 12.8894 15.546V13.8686L13.3657 13.8359C15.0509 13.7201 16.7028 13.2767 18.1724 12.5457C18.4236 12.4208 18.6456 12.3113 18.6658 12.3023C18.6859 12.2934 18.7024 12.7985 18.7024 13.4249V14.5637L18.49 14.5355C18.1304 14.4877 17.7558 14.6245 17.459 14.9121C17.0132 15.344 16.914 15.912 17.1908 16.4485C17.4863 17.0215 18.5941 17.8307 19.083 17.8307C19.5797 17.8307 20.698 17.0288 20.9994 16.4563C21.1518 16.167 21.181 15.7364 21.0703 15.4135C20.8806 14.8602 20.2484 14.4643 19.6727 14.5382L19.4352 14.5687V13.2059V11.843L19.8382 11.5607C20.7778 10.9024 21.8422 9.8996 22.4505 9.0997L22.5584 8.95774L22.5599 9.98611L22.5615 11.0145L22.3491 10.9863C21.8503 10.92 21.249 11.2637 21.0162 11.748C20.8668 12.0587 20.8587 12.5547 20.9979 12.8521C21.2538 13.3981 22.4574 14.291 22.9376 14.291C23.2766 14.291 24.1894 13.7259 24.6026 13.2603C25.0311 12.7773 25.1153 12.1897 24.8291 11.6803C24.5725 11.2235 24.1849 10.9991 23.6484 10.9968L23.2942 10.9953L23.2943 9.45595L23.2944 7.91664L23.6518 7.23046C24.5805 5.44724 25.0615 3.39783 24.9937 1.51387C24.9696 0.844348 24.907 0.638778 24.6473 0.376326C24.0538 -0.223443 23.0816 -0.0873424 22.6958 0.649567C22.5687 0.892427 22.5615 0.940933 22.5615 1.55518C22.5615 5.01045 20.9475 7.98998 18.0556 9.87324C15.8531 11.3075 12.9819 11.8281 10.3493 11.2706C7.85917 10.7433 5.59751 9.2686 4.19834 7.25984C4.06483 7.06819 3.91956 6.89797 3.87559 6.88164C3.6163 6.78524 3.3639 6.93502 3.3639 7.18526C3.3639 7.46749 4.19125 8.5094 5.05417 9.31384C6.39868 10.5673 8.02892 11.4419 9.85767 11.891C11.3406 12.2551 13.0975 12.2969 14.6155 12.004C17.4499 11.4571 19.9644 9.79568 21.5751 7.40546C21.8977 6.92669 22.3721 6.0224 22.5876 5.47526C23.0201 4.37737 23.2373 3.26292 23.2786 1.93031C23.2943 1.42277 23.3269 0.970463 23.351 0.925175C23.3751 0.879934 23.4628 0.808808 23.5459 0.767211C23.7409 0.66949 23.9747 0.71085 24.1291 0.870328C24.2453 0.99048 24.2467 1.00345 24.243 1.89889C24.2359 3.61211 23.882 5.11674 23.128 6.63892C21.5714 9.78134 18.6953 12.0465 15.2586 12.8367C14.2266 13.074 13.77 13.121 12.4986 13.121C11.259 13.121 10.7934 13.0753 9.82582 12.8587C5.42723 11.8739 1.87108 8.38518 0.977536 4.17814C0.809985 3.38913 0.757081 2.84889 0.753711 1.89113L0.750487 0.976425L0.910027 0.838196C0.99776 0.762148 1.12526 0.699919 1.1933 0.699919C1.35528 0.699919 1.58932 0.819124 1.65272 0.933929C1.68042 0.983997 1.70304 1.28724 1.70309 1.60776C1.70319 2.99853 1.93424 4.25504 2.41946 5.50318C2.64797 6.09111 2.84136 6.22229 3.14193 5.99325C3.31461 5.86165 3.30025 5.76066 2.98156 4.86432C2.59385 3.77405 2.43621 2.82002 2.43528 1.55854C2.43484 0.980874 2.42273 0.887742 2.32015 0.674317C2.20315 0.430889 2.00356 0.234452 1.73811 0.101475C1.56548 0.0150166 1.09883 -0.0249711 0.921165 0.0314849ZM1.69938 11.8183C1.94665 11.9888 2.10497 11.9906 2.40182 11.8261C2.70102 11.6602 2.81596 11.6466 3.02655 11.7521C3.32526 11.9017 3.4532 12.3207 3.29224 12.6222C3.19713 12.8004 2.70703 13.2249 2.36694 13.4237C2.11068 13.5734 2.08426 13.5793 1.93654 13.5201C1.65595 13.4075 1.01168 12.9011 0.866112 12.6787C0.704129 12.4312 0.689523 12.2402 0.815309 12.013C0.995024 11.6884 1.38621 11.6022 1.69938 11.8183ZM22.5955 11.8261C22.8923 11.9906 23.0506 11.9888 23.2979 11.8183C23.6111 11.6022 24.0022 11.6884 24.182 12.013C24.3077 12.2402 24.2931 12.4312 24.1312 12.6787C23.9856 12.9011 23.3413 13.4075 23.0607 13.5201C22.913 13.5793 22.8866 13.5734 22.6303 13.4237C22.2902 13.2249 21.8001 12.8004 21.705 12.6222C21.6176 12.4585 21.6133 12.1695 21.6959 12.0115C21.7751 11.8598 22.0541 11.6788 22.2086 11.6788C22.2752 11.6788 22.4493 11.745 22.5955 11.8261ZM5.54075 15.3639C5.76751 15.5366 5.92754 15.5367 6.27456 15.3643C6.58211 15.2115 6.59442 15.2094 6.79475 15.2771C7.21534 15.419 7.3549 15.8891 7.08399 16.2514C6.91805 16.4733 6.56443 16.7659 6.20202 16.9811L5.93819 17.1378L5.68911 17.0112C5.36216 16.8452 4.92174 16.5074 4.75355 16.2938C4.57164 16.0627 4.54106 15.7371 4.68106 15.5211C4.86864 15.2316 5.27067 15.1581 5.54075 15.3639ZM18.7511 15.3773C18.9515 15.5208 19.2336 15.5218 19.4321 15.3796C19.6363 15.2334 19.8239 15.2061 20.0359 15.2919C20.3762 15.4297 20.5077 15.8357 20.3219 16.1752C20.21 16.3796 19.6673 16.8293 19.3194 17.0057L19.0591 17.1378L18.7953 16.9811C18.4328 16.7659 18.0792 16.4733 17.9133 16.2514C17.4727 15.6622 18.155 14.9504 18.7511 15.3773ZM9.7205 18.6611C9.3007 19.0033 9.16675 19.7703 9.43449 20.2985C9.59731 20.6197 9.67195 20.6859 9.87115 20.6859C9.97696 20.6859 10.0586 20.6455 10.1414 20.5523C10.2736 20.4034 10.2697 20.3448 10.1036 19.9789C9.97032 19.6854 9.99455 19.4947 10.203 19.1967C10.3774 18.9474 10.3874 18.7811 10.2363 18.6435C10.0864 18.5071 9.90159 18.5134 9.7205 18.6611Z" fill="#FD9149"/>
</svg>
