<svg width="15" height="16" viewBox="0 0 15 16" fill="none" xmlns="http://www.w3.org/2000/svg">
<path d="M0.50792 0.14587C0.387622 0.226068 0.213857 0.399832 0.126975 0.526814C-0.140354 0.927808 -0.0802048 1.02806 1.24976 2.3647C1.9114 3.02634 2.45274 3.59442 2.45274 3.62115C2.45274 3.64788 2.13195 3.66793 1.73763 3.66793C0.795299 3.67462 0.648268 3.78155 0.648268 4.50334C0.648268 4.81077 0.675001 4.90433 0.815349 5.038L0.975746 5.20508H2.88047H4.78519L4.97232 5.04468L5.15945 4.88428L5.1795 3.00629C5.19955 0.874342 5.18618 0.78746 4.73841 0.667162C4.60474 0.627062 4.44434 0.593646 4.39088 0.593646C4.33741 0.593646 4.17702 0.627062 4.04335 0.667162C3.66909 0.76741 3.58889 0.974591 3.58889 1.80999V2.49168L2.33244 1.24192C0.96238 -0.114777 0.928964 -0.14151 0.50792 0.14587Z" fill="black"/>
<path d="M13.9479 0.0389347C13.8945 0.0589848 13.2997 0.620376 12.6313 1.2887L11.4083 2.49836V1.80999C11.4083 1.09489 11.3214 0.787457 11.1076 0.700575C11.0474 0.680525 10.8202 0.660476 10.6063 0.660476C9.79764 0.660476 9.80432 0.647109 9.80432 2.95951V4.79071L9.97809 4.99789L10.1519 5.20507H12.0766C14.3088 5.20507 14.2754 5.21176 14.3356 4.61695C14.3757 4.18922 14.3222 3.97536 14.1351 3.8016C14.0081 3.6813 13.9011 3.66793 13.2195 3.66793H12.4442L13.694 2.41148C15.0841 1.02805 15.1442 0.927805 14.8702 0.526811C14.6029 0.1325 14.2353 -0.0613136 13.9479 0.0389347Z" fill="black"/>
<path d="M6.93048 6.02695C6.60968 6.12719 6.08839 6.66185 6.00151 6.98265C5.76759 7.81137 6.10176 8.58662 6.82355 8.92079C7.27132 9.12797 7.72578 9.12797 8.16688 8.92079C8.56787 8.73366 8.74832 8.54653 8.92876 8.14553C9.18941 7.57746 9.0357 6.76879 8.5946 6.36111C8.18693 5.98685 7.49187 5.8465 6.93048 6.02695Z" fill="black"/>
<path d="M0.942357 9.91015C0.53468 10.0906 0.454481 10.9594 0.815376 11.2668C0.975773 11.4072 1.05597 11.4206 1.73766 11.4206H2.48618L1.26984 12.6369C0.53468 13.3788 0.0401203 13.9268 0.0133874 14.0337C-0.0400785 14.2543 0.0935862 14.5216 0.380965 14.7956C0.53468 14.9493 0.648295 14.9961 0.855475 14.9961C1.10944 14.9961 1.1629 14.9426 2.33915 13.7731C3.00748 13.1047 3.58223 12.5567 3.60897 12.5567C3.6357 12.5567 3.65575 12.8909 3.65575 13.2919C3.65575 13.9869 3.66243 14.0404 3.82283 14.1941C3.96318 14.3411 4.04338 14.3612 4.42432 14.3612C4.80527 14.3612 4.88547 14.3411 5.02581 14.1941L5.19289 14.0337V12.1557C5.19289 10.9394 5.16616 10.2309 5.11938 10.1374C4.96566 9.85669 4.70502 9.81659 2.87381 9.81659C1.5639 9.82327 1.09607 9.84332 0.942357 9.91015Z" fill="black"/>
<path d="M10.1652 9.88321C9.81769 10.0236 9.80432 10.1038 9.80432 12.1421V14.0335L9.9714 14.1939C10.212 14.4412 10.9338 14.4412 11.1744 14.1939C11.3348 14.0402 11.3415 13.9867 11.3415 13.2917C11.3415 12.8907 11.3615 12.5565 11.3882 12.5565C11.415 12.5565 11.9964 13.1112 12.6781 13.7929C13.6405 14.7486 13.9613 15.0293 14.095 15.0293C14.3155 15.0293 14.6764 14.782 14.8702 14.4946C15.1442 14.0936 15.0774 13.9934 13.7274 12.6367L12.511 11.4204H13.1994C13.9947 11.4204 14.2286 11.3335 14.3422 11.0127C14.496 10.5649 14.3823 10.0703 14.0749 9.91662C13.9212 9.83642 13.5469 9.81637 12.0967 9.82306C11.1142 9.82306 10.2387 9.84979 10.1652 9.88321Z" fill="black"/>
</svg>
