<svg width="15" height="14" viewBox="0 0 15 14" fill="none" xmlns="http://www.w3.org/2000/svg">
<path fill-rule="evenodd" clip-rule="evenodd" d="M2.11035 0.0157535C1.58666 0.0765369 1.08527 0.300885 0.709468 0.64257C0.327531 0.989865 0.0847123 1.44338 0.019347 1.9315C-0.00644899 2.12418 -0.00644899 11.5181 0.019347 11.7108C0.103438 12.3388 0.491078 12.9177 1.05851 13.2627C1.34535 13.4371 1.59267 13.5326 1.93527 13.6013L2.11035 13.6364H5.92055H9.73075L9.82006 13.5914C9.97249 13.5146 10.0559 13.3884 10.0559 13.2346C10.0559 13.0807 9.97249 12.9545 9.82006 12.8778L9.73075 12.8328L5.94557 12.8252L2.16038 12.8176L2.03202 12.7843C1.45633 12.635 1.04902 12.2419 0.932444 11.7231C0.902063 11.5878 0.901212 11.4315 0.905414 6.76503L0.909766 1.94666L0.948185 1.83396C1.11859 1.33416 1.48675 1.0021 2.02873 0.859368L2.16038 0.824693H7.49633H12.8323L12.974 0.858989C13.5406 0.996051 13.9586 1.39687 14.0764 1.91607C14.1061 2.04697 14.1075 2.1958 14.1077 5.41221C14.1079 9.11108 14.1002 8.84292 14.2096 8.96362C14.2376 8.99443 14.2955 9.0384 14.3384 9.06132C14.4059 9.09741 14.4343 9.103 14.5498 9.103C14.6456 9.103 14.7005 9.09518 14.7445 9.07526C14.8318 9.03578 14.9237 8.94973 14.9647 8.86906L15 8.79977V5.35805V1.91634L14.9614 1.75714C14.8861 1.44658 14.7808 1.22069 14.5909 0.962543C14.205 0.43772 13.5805 0.0926841 12.8744 0.0141008C12.6961 -0.0057459 2.28182 -0.00413875 2.11035 0.0157535ZM4.38647 3.28197C3.95654 3.38427 3.64169 3.71085 3.58903 4.10909C3.52818 4.56922 3.83185 5.00365 4.31977 5.15451C4.46864 5.20054 4.73842 5.21164 4.88691 5.17784C5.08291 5.13324 5.263 5.04058 5.40323 4.91221C5.59843 4.73354 5.69888 4.53548 5.7154 4.2967C5.72871 4.10454 5.69985 3.9696 5.60915 3.80018C5.54725 3.68453 5.5107 3.63926 5.3981 3.53877C5.2421 3.39957 5.11471 3.33181 4.9268 3.2881C4.77279 3.25228 4.52312 3.24945 4.38647 3.28197ZM9.54556 4.4514C9.29124 4.74992 9.03325 5.05217 8.97225 5.12305C8.91125 5.19393 8.70462 5.43614 8.51306 5.66129C8.3215 5.88644 7.99894 6.2651 7.79629 6.50277C7.59362 6.74043 7.24902 7.14467 7.03051 7.4011C6.81201 7.65753 6.62858 7.86715 6.6229 7.86696C6.61721 7.86674 6.53029 7.73883 6.42972 7.58268C6.25542 7.31202 6.0926 7.06181 5.83161 6.66343L5.71339 6.48298L4.36628 7.71717C3.62536 8.396 2.81567 9.14071 2.56693 9.37212L2.11469 9.79286H5.05406H7.99344L8.13292 9.66344C8.3584 9.45422 8.60028 9.32494 8.90535 9.25057C9.05649 9.21373 9.08914 9.21165 9.6167 9.20525L10.1696 9.19854L10.1773 8.69593C10.184 8.25395 10.1891 8.17726 10.2198 8.06036C10.3234 7.66565 10.6164 7.32071 11.0272 7.11002C11.08 7.08299 11.1231 7.05688 11.1231 7.05203C11.1231 7.04716 11.0972 6.96764 11.0655 6.8753C11.0338 6.78297 10.9962 6.66174 10.9819 6.60586C10.9596 6.51844 10.4007 4.96576 10.1054 4.1709L10.008 3.90861L9.54556 4.4514ZM11.6133 7.80525C11.5236 7.8423 11.4277 7.93097 11.3836 8.01759C11.3487 8.08617 11.3481 8.10272 11.3435 9.17454L11.3388 10.2619L10.1429 10.2662L8.94704 10.2705L8.8493 10.3141C8.69378 10.3835 8.6085 10.5122 8.60684 10.6798C8.60525 10.8394 8.70063 10.9752 8.86366 11.0454L8.94704 11.0813L10.1428 11.0815L11.3386 11.0816L11.3434 12.177L11.3482 13.2725L11.3866 13.3433C11.462 13.4825 11.635 13.5833 11.7984 13.5833C11.9505 13.5833 12.1044 13.5001 12.1861 13.3737L12.232 13.3028L12.2403 12.196L12.2487 11.0892L13.4576 11.0816C14.7797 11.0733 14.7149 11.0779 14.8382 10.9834C14.9082 10.9298 14.9742 10.8119 14.9863 10.7191C15.0075 10.5561 14.8996 10.3834 14.7283 10.3059L14.6498 10.2705L13.4451 10.2661L12.2403 10.2617L12.2401 9.17446L12.24 8.08717L12.2005 8.01136C12.1221 7.86086 11.9753 7.77702 11.7901 7.77702C11.72 7.77702 11.6576 7.78698 11.6133 7.80525Z" fill="url(#paint0_linear_325_1119)"/>
<defs>
<linearGradient id="paint0_linear_325_1119" x1="7.5" y1="0" x2="7.5" y2="13.6364" gradientUnits="userSpaceOnUse">
<stop stop-color="#FD9149"/>
<stop offset="1" stop-color="#FFD588"/>
</linearGradient>
</defs>
</svg>
