<svg width="15" height="20" viewBox="0 0 15 20" fill="none" xmlns="http://www.w3.org/2000/svg">
<path d="M0.263369 0.149534C0.122353 0.29055 0.105763 0.522814 0.0559919 2.32285C-0.018664 4.92751 -0.018664 14.5664 0.0559919 17.1711C0.105763 18.9794 0.122353 19.2034 0.263369 19.3444C0.412681 19.4937 0.70301 19.4937 7.54647 19.4771C13.7512 19.4522 14.6885 19.4356 14.7964 19.3278C14.8959 19.22 14.9291 18.2909 14.9789 13.1894C15.0121 9.87969 15.0038 6.66119 14.9706 6.02246L14.9125 4.87774L12.4821 2.43898L10.0516 0.000221252H5.23213C0.669829 0.000221252 0.404386 0.00851631 0.263369 0.149534ZM9.22208 3.23531C9.24696 5.16807 9.26355 5.40033 9.39627 5.53305C9.529 5.66578 9.76955 5.69066 11.6774 5.72384L13.8093 5.76532L13.8342 12.0447L13.8507 18.3324H7.50499H1.15924V9.75526V1.16983L1.55741 1.13665C1.77308 1.12006 3.58141 1.10347 5.57223 1.09517L9.19719 1.07858L9.22208 3.23531ZM11.694 3.27679L12.9798 4.56253H11.6691H10.3668V3.27679C10.3668 2.5717 10.3751 1.99104 10.3917 1.99104C10.4 1.99104 10.9889 2.5717 11.694 3.27679Z" fill="black"/>
<path d="M2.54458 7.03427C2.42015 7.16699 2.40356 7.42414 2.40356 9.191C2.40356 11.1652 2.40356 11.1901 2.58606 11.3145C2.74366 11.4224 3.08376 11.4473 4.65154 11.4473C6.37692 11.4473 6.55111 11.4307 6.72531 11.2897C6.92439 11.1321 6.92439 11.1321 6.92439 9.17441C6.92439 7.41585 6.9078 7.20847 6.77508 7.07575C6.64236 6.94303 6.41839 6.92644 4.65983 6.90155C2.81832 6.87667 2.6773 6.88496 2.54458 7.03427ZM5.80456 9.16611V10.286H4.64324H3.48193V9.16611V8.04627H4.64324H5.80456V9.16611Z" fill="black"/>
<path d="M10.8645 7.92301L9.83587 8.9516L9.36305 8.50366C8.85704 8.02255 8.63308 7.94789 8.30957 8.18015C8.18514 8.2631 8.12708 8.38753 8.12708 8.57832C8.12708 8.81058 8.23491 8.9516 8.86534 9.56544C9.42111 10.1129 9.65337 10.2871 9.81928 10.2871C10.0018 10.2871 10.317 10.0217 11.329 9.02625C12.5152 7.85665 12.6064 7.74881 12.6064 7.46678C12.6064 7.27599 12.5484 7.11009 12.4571 7.02713C12.1336 6.73681 11.9428 6.83635 10.8645 7.92301Z" fill="black"/>
<path d="M2.73537 12.6659C2.42845 12.7737 2.40356 12.923 2.40356 14.9304C2.40356 16.8217 2.41186 16.9047 2.57776 17.054C2.73537 17.2033 2.90127 17.2116 4.65154 17.2116C7.14836 17.2116 6.92439 17.4356 6.92439 14.947C6.92439 12.8815 6.89951 12.7488 6.45987 12.6576C6.14465 12.5995 2.90957 12.5995 2.73537 12.6659ZM5.78797 14.9055L5.76308 16.0503L4.67642 16.0752C3.38239 16.1 3.48193 16.2162 3.48193 14.7396V13.7691H4.64324H5.81285L5.78797 14.9055Z" fill="black"/>
<path d="M10.8728 13.6379L9.82764 14.6665L9.30504 14.2186C8.74927 13.7375 8.55019 13.6794 8.29304 13.9366C7.97783 14.2518 8.06907 14.5587 8.68291 15.1891C9.40459 15.944 9.7115 16.1348 9.96865 16.002C10.0765 15.9523 10.7069 15.3633 11.3871 14.6997C12.5235 13.5716 12.6065 13.4637 12.6065 13.1734C12.6065 12.8416 12.3825 12.6094 12.0756 12.6094C11.9844 12.6094 11.4867 13.0324 10.8728 13.6379Z" fill="black"/>
</svg>
