<svg width="20" height="19" viewBox="0 0 20 19" fill="none" xmlns="http://www.w3.org/2000/svg">
<path d="M0.837438 0.955444C0.669951 1.02441 0.413793 1.23131 0.26601 1.39879L0 1.72392V7.36924C0 13.32 0 13.3397 0.433498 13.1722C0.571429 13.1131 0.591133 12.6993 0.591133 8.88648V4.65988H10H19.4089V9.63525C19.4089 13.5663 19.3793 14.6796 19.2808 14.9357C19.1626 15.2116 19.1626 15.2904 19.3103 15.5269L19.4778 15.8027L19.7438 15.4973L20 15.182V8.45298V1.72392L19.734 1.39879C19.2217 0.787956 19.6552 0.817513 9.9803 0.817513C2.84729 0.827365 1.07389 0.84707 0.837438 0.955444ZM18.9655 1.56628C19.2709 1.68451 19.4089 2.14756 19.4089 3.08352V3.97022H10H0.591133V3.08352C0.591133 2.18697 0.729064 1.68451 1.00493 1.57613C1.19212 1.49732 18.7685 1.49732 18.9655 1.56628Z" fill="black"/>
<path d="M1.7439 2.27546C1.52715 2.52177 1.537 3.01438 1.75375 3.21142C2.00006 3.42817 2.49267 3.41832 2.68971 3.20157C2.90646 2.95526 2.89661 2.46265 2.67986 2.26561C2.43356 2.04886 1.94095 2.05871 1.7439 2.27546Z" fill="black"/>
<path d="M4.13791 2.29516C3.73397 2.6991 4.03939 3.37891 4.63052 3.37891C5.20195 3.37891 5.49752 2.78777 5.16254 2.31487C4.9655 2.02915 4.41377 2.0193 4.13791 2.29516Z" fill="black"/>
<path d="M6.57154 2.27513C6.35479 2.52144 6.36464 3.01405 6.58139 3.21109C6.99518 3.59533 7.71439 3.28991 7.71439 2.73819C7.71439 2.17661 6.93607 1.87119 6.57154 2.27513Z" fill="black"/>
<path d="M3.12312 8.34414C3.03445 8.57074 4.00981 11.5264 4.19701 11.5954C4.49257 11.7136 4.70932 11.4574 4.98518 10.6791C5.14282 10.2456 5.2906 9.92049 5.33001 9.9599C5.35957 9.99931 5.50735 10.3737 5.65513 10.7875C5.94085 11.5757 6.16745 11.7924 6.45316 11.556C6.60095 11.4377 7.48765 8.76778 7.48765 8.46236C7.48765 8.25547 7.21178 8.14709 7.02459 8.26532C6.94578 8.31458 6.73888 8.79734 6.56154 9.33921C6.19701 10.4427 6.25612 10.4427 5.84233 9.28995C5.62558 8.68896 5.52706 8.58059 5.24134 8.62C5.02459 8.64955 4.94578 8.75793 4.70932 9.43773C4.55169 9.87123 4.4039 10.2358 4.3842 10.2555C4.37435 10.2752 4.20686 9.83182 4.01967 9.27024C3.71425 8.36384 3.65514 8.25547 3.42853 8.22591C3.2709 8.2062 3.15267 8.25547 3.12312 8.34414Z" fill="black"/>
<path d="M7.82262 8.34396C7.73395 8.58042 8.67976 11.4573 8.88666 11.5656C9.19208 11.7331 9.39898 11.5065 9.69454 10.6789C9.84232 10.2356 9.98026 9.88091 9.99996 9.88091C10.0197 9.88091 10.1576 10.2356 10.3054 10.6789C10.6009 11.5065 10.8078 11.7331 11.1133 11.5656C11.3202 11.4573 12.266 8.58042 12.1773 8.34396C12.1477 8.275 12.0197 8.20603 11.8817 8.20603C11.665 8.20603 11.6157 8.2947 11.3202 9.1617C11.1527 9.69372 10.9852 10.1666 10.9556 10.2159C10.9261 10.2651 10.7684 9.93017 10.6009 9.47697C10.3054 8.69864 10.2758 8.64938 9.99996 8.64938C9.7241 8.64938 9.69454 8.69864 9.39898 9.47697C9.23149 9.93017 9.07385 10.2651 9.0443 10.2159C9.01474 10.1666 8.84725 9.69372 8.67976 9.1617C8.3842 8.2947 8.33494 8.20603 8.11819 8.20603C7.98026 8.20603 7.85218 8.275 7.82262 8.34396Z" fill="black"/>
<path d="M12.5517 8.35451C12.4728 8.55156 13.2807 11.2117 13.4975 11.4875C13.7635 11.8126 14.0393 11.6254 14.2955 10.9358C14.4137 10.6008 14.5615 10.2166 14.6108 10.0786C14.6896 9.85205 14.729 9.90131 14.995 10.6205C15.33 11.5269 15.4581 11.7043 15.7536 11.6057C15.9211 11.5565 16.059 11.2412 16.4531 10.0097C16.9654 8.40377 16.9753 8.15747 16.5221 8.22643C16.3645 8.24614 16.2462 8.47274 15.9802 9.27077C15.793 9.83234 15.6255 10.2757 15.6058 10.256C15.596 10.2363 15.4482 9.87175 15.2906 9.43825C15.0443 8.7683 14.9654 8.65008 14.7586 8.62052C14.4728 8.58111 14.3743 8.68949 14.1576 9.29047C13.7438 10.4432 13.8127 10.4432 13.4088 9.29047C13.1132 8.42348 13.0147 8.24614 12.8275 8.22643C12.6994 8.20673 12.5812 8.25599 12.5517 8.35451Z" fill="black"/>
<path d="M14.0395 12.4925C13.9016 12.6206 13.7932 12.7684 13.7932 12.8078C13.8031 12.8472 13.9706 14.0787 14.1774 15.5369C14.5715 18.3842 14.6011 18.4531 15.1627 18.4531C15.5469 18.4531 15.6553 18.3448 16.1479 17.4581L16.6109 16.6305H17.606C18.7587 16.6305 19.0149 16.5024 19.0149 15.931C19.0149 15.6255 18.8967 15.5172 17.074 14.0886C14.3449 11.9802 14.4829 12.0492 14.0395 12.4925ZM16.4041 14.4236C17.3794 15.1822 18.2267 15.8521 18.276 15.9014C18.3449 15.9704 18.0395 15.9901 17.3696 15.9704C16.1774 15.9408 16.2267 15.9113 15.6159 17.0344C15.1233 17.931 15.1922 18.0984 14.8277 15.3497C14.6898 14.3152 14.5617 13.3792 14.5321 13.2512C14.5026 13.1329 14.5124 13.0344 14.5518 13.0344C14.6011 13.0344 15.4287 13.6649 16.4041 14.4236Z" fill="black"/>
<path d="M0.128079 14.2849C0.0492611 14.3144 0 14.5115 0 14.7578C0 15.0829 0.0689655 15.2602 0.26601 15.5065C0.768473 16.1075 0.571429 16.0878 7.5468 16.0878H13.9113L13.8522 15.8612C13.8227 15.743 13.7931 15.5854 13.7931 15.5164C13.7931 15.4277 12.4631 15.3982 7.49754 15.3982C4.02956 15.3982 1.12315 15.3686 1.03448 15.339C0.847291 15.2602 0.591133 14.7972 0.591133 14.5312C0.591133 14.3834 0.364532 14.1765 0.26601 14.2257C0.256158 14.2257 0.187192 14.2553 0.128079 14.2849Z" fill="black"/>
</svg>
