<svg width="19" height="18" viewBox="0 0 19 18" fill="none" xmlns="http://www.w3.org/2000/svg">
<path fill-rule="evenodd" clip-rule="evenodd" d="M7.98745 0.36039C7.66569 0.516594 7.6029 0.646091 7.44988 1.46864C7.37548 1.86857 7.3008 2.2067 7.28389 2.21998C7.26702 2.23326 7.13649 2.28205 6.99388 2.32838C6.85127 2.37471 6.58467 2.47615 6.40145 2.55377L6.06828 2.6949L5.45028 2.28755C4.72075 1.80669 4.5572 1.74396 4.21377 1.81314C3.98388 1.85948 3.97483 1.86645 3.05018 2.70906C2.0746 3.59812 1.97005 3.72376 1.96845 4.00887C1.96718 4.23628 2.02554 4.33849 2.51991 4.97467L2.9649 5.54732L2.81068 5.85511C2.72587 6.02441 2.61525 6.27023 2.56487 6.40138C2.51448 6.53253 2.46143 6.65256 2.44699 6.66808C2.43255 6.68364 2.06487 6.75231 1.62997 6.82073C0.735532 6.96145 0.594715 7.01919 0.424858 7.31509C0.332989 7.47507 0.332031 7.48971 0.332031 8.71252C0.332031 9.93534 0.332989 9.94998 0.424858 10.11C0.594715 10.4059 0.735532 10.4636 1.62997 10.6043C2.06487 10.6727 2.43255 10.7414 2.44699 10.757C2.46143 10.7725 2.51448 10.8925 2.56487 11.0237C2.61525 11.1548 2.72587 11.4006 2.81068 11.5699L2.9649 11.8777L2.51879 12.4504C2.06639 13.0312 1.97228 13.1921 1.96953 13.3898C1.9653 13.6951 2.01341 13.7551 2.9785 14.649C3.4866 15.1196 3.95265 15.5291 4.01416 15.5589C4.18465 15.6417 4.47718 15.6605 4.66355 15.6009C4.75314 15.5722 5.10586 15.3645 5.44737 15.1394L6.06828 14.7301L6.40145 14.87C6.58467 14.9468 6.85127 15.0482 6.99388 15.0951C7.13649 15.142 7.26702 15.1914 7.28389 15.2049C7.3008 15.2182 7.37548 15.5565 7.44988 15.9564C7.6029 16.779 7.66569 16.9085 7.98745 17.0647C8.16142 17.1491 8.17733 17.15 9.50703 17.15C10.8367 17.15 10.8526 17.1491 11.0266 17.0647C11.3484 16.9085 11.4112 16.779 11.5642 15.9564C11.6386 15.5565 11.7133 15.2188 11.7302 15.206C11.747 15.1933 11.9225 15.128 12.1199 15.061C12.3174 14.994 12.5834 14.891 12.7111 14.8322L12.9433 14.7252L13.5688 15.1368C14.2981 15.6167 14.4638 15.6799 14.8091 15.6096C15.0274 15.5651 15.051 15.5469 15.9627 14.7155C16.4746 14.2487 16.9204 13.8195 16.9534 13.7617C17.0441 13.6026 17.0658 13.3017 16.9974 13.1511C16.9654 13.0807 16.7389 12.7653 16.4942 12.4504L16.0492 11.8777L16.2034 11.5699C16.2882 11.4006 16.3988 11.1548 16.4492 11.0237C16.4996 10.8925 16.5526 10.7725 16.5671 10.757C16.5815 10.7414 16.9492 10.6727 17.3841 10.6043C18.2785 10.4636 18.4193 10.4059 18.5892 10.11C18.6811 9.94998 18.682 9.93534 18.682 8.71252C18.682 7.48971 18.6811 7.47507 18.5892 7.31509C18.4193 7.01919 18.2785 6.96145 17.3841 6.82073C16.9492 6.75231 16.5815 6.68364 16.5671 6.66808C16.5526 6.65256 16.4996 6.53253 16.4492 6.40138C16.3988 6.27023 16.2882 6.02441 16.2034 5.85511L16.0492 5.54732L16.4952 4.97467C16.7406 4.65974 16.9667 4.33603 16.9977 4.25532C17.0624 4.08712 17.0416 3.81764 16.9519 3.66118C16.9194 3.60461 16.4742 3.17602 15.9624 2.70877C14.9903 1.82125 14.9251 1.77701 14.5932 1.7809C14.378 1.78343 14.203 1.87001 13.5688 2.28784L12.9433 2.69989L12.7111 2.59288C12.5834 2.534 12.3174 2.43103 12.1199 2.36404C11.9225 2.29702 11.747 2.23179 11.7302 2.21902C11.7133 2.20626 11.6386 1.86857 11.5642 1.46864C11.4112 0.646091 11.3484 0.516594 11.0266 0.36039C10.8526 0.275905 10.8367 0.275024 9.50703 0.275024C8.17733 0.275024 8.16142 0.275905 7.98745 0.36039ZM9.98014 3.1006C10.5529 3.14719 10.9361 3.21887 11.4475 3.37507C12.9801 3.84313 14.2367 4.84668 14.9779 6.19452C15.9676 7.99449 15.8192 10.1531 14.589 11.8491C13.852 12.8652 12.7121 13.6638 11.4475 14.05C10.9229 14.2102 10.5184 14.2843 9.95948 14.3227C7.5208 14.4901 5.20683 13.3053 4.08437 11.3145C3.30373 9.93002 3.17086 8.40173 3.70297 6.92821C4.46649 4.81389 6.55336 3.29968 8.97624 3.10195C9.48649 3.06032 9.48561 3.06032 9.98014 3.1006ZM8.99858 4.43603C8.59591 4.50665 7.97369 4.79804 7.68639 5.05058C7.40368 5.29908 7.22445 5.77605 7.17231 6.41877C7.15045 6.68793 7.12273 6.80939 7.06744 6.87817C6.85717 7.1397 6.98969 7.8975 7.28333 8.11291C7.33407 8.15015 7.41733 8.27139 7.46835 8.38236C7.69804 8.88208 8.11283 9.39497 8.50975 9.67014C8.8716 9.92103 9.13189 10.0083 9.52905 10.0119C9.82457 10.0146 9.87559 10.0034 10.1673 9.87213C10.7037 9.63071 11.275 9.0202 11.5616 8.38236C11.6023 8.29157 11.6843 8.16776 11.7437 8.10723C11.8916 7.95649 11.9625 7.81576 12.0202 7.55842C12.0794 7.29422 12.0484 7.00485 11.9475 6.87913C11.895 6.81383 11.8648 6.68939 11.8447 6.45641C11.7863 5.7777 11.6125 5.30106 11.3344 5.0563C11.1312 4.87757 10.5575 4.57389 10.2672 4.49139C9.92808 4.39509 9.37084 4.37077 8.99858 4.43603ZM7.71192 10.2206C7.29741 10.4809 6.77795 10.6642 6.11627 10.7836C5.50362 10.8941 5.09294 11.0621 5.02249 11.2309C4.96979 11.3572 5.59601 12.0646 6.09648 12.4442C7.04362 13.1625 8.07098 13.5279 9.28763 13.5791C11.0977 13.6553 12.8485 12.8554 13.8768 11.4823C14.0422 11.2615 14.0329 11.2103 13.8005 11.0645C13.6019 10.9398 13.3494 10.8608 12.9007 10.7831C12.2563 10.6715 11.7578 10.4973 11.3179 10.2302C11.0895 10.0914 11.0628 10.0841 11.0628 10.1597C11.0628 10.2264 10.8528 10.3741 10.6464 10.4524C10.4198 10.5385 9.86498 10.6201 9.50703 10.6201C9.14909 10.6201 8.59424 10.5385 8.3677 10.4524C8.1613 10.3741 7.95127 10.2264 7.95127 10.1597C7.95127 10.084 7.91465 10.0933 7.71192 10.2206Z" fill="#FFD588"/>
</svg>
