<svg width="16" height="13" viewBox="0 0 16 13" fill="none" xmlns="http://www.w3.org/2000/svg">
<path fill-rule="evenodd" clip-rule="evenodd" d="M7.75958 0.0535651C7.517 0.114608 7.36488 0.17906 7.12661 0.321731C7.04084 0.37309 6.68996 0.572113 6.34687 0.763983C5.37806 1.30582 3.76832 2.20478 2.43898 2.94636C1.31969 3.57076 1.21763 3.63152 1.08994 3.74941C0.873662 3.94909 0.748628 4.16821 0.694707 4.44216C0.655885 4.63934 0.656729 11.2833 0.695606 11.4701C0.795651 11.951 1.13419 12.3143 1.6361 12.4795L1.79684 12.5324H8.00726H14.2177L14.3784 12.4795C14.8813 12.314 15.2187 11.9519 15.3189 11.4701C15.3423 11.358 15.346 10.8712 15.346 7.96597C15.346 5.57065 15.3401 4.55684 15.3256 4.47071C15.2797 4.19827 15.1419 3.94995 14.9258 3.75023C14.8 3.63398 14.7096 3.57868 13.9975 3.18211C11.74 1.92497 9.06305 0.427705 8.93378 0.349924C8.46201 0.0660337 8.08656 -0.0287372 7.75958 0.0535651ZM8.19073 0.780197C8.23614 0.795787 8.59528 0.989496 8.98882 1.21067C9.38236 1.43185 10.1543 1.86479 10.7043 2.17276C11.2542 2.48072 11.9477 2.86939 12.2454 3.03646C12.5431 3.20351 13.134 3.53489 13.5586 3.77288C14.3414 4.21165 14.4152 4.26183 14.3541 4.31359C14.3237 4.33929 12.3842 5.45187 12.3467 5.46512C12.3263 5.47232 12.3207 5.4044 12.3156 5.08879C12.3094 4.7095 12.3086 4.70238 12.2604 4.61825C12.1989 4.51064 12.0935 4.4224 11.9776 4.38127C11.8904 4.35034 11.7692 4.34936 7.99809 4.34936H4.10855L4.02505 4.3849C3.90299 4.43683 3.8141 4.51608 3.7561 4.62468C3.70545 4.71955 3.70486 4.72445 3.69879 5.09722C3.69426 5.37548 3.68707 5.4719 3.67123 5.46632C3.63324 5.45292 1.70652 4.34609 1.66434 4.31344L1.62355 4.28187L1.66434 4.2373C1.68676 4.2128 2.21698 3.9061 2.84261 3.55578C5.30726 2.17567 6.44765 1.53661 7.07157 1.18589C7.83025 0.759411 7.77659 0.787149 7.90079 0.757251C8.00618 0.731893 8.06318 0.736397 8.19073 0.780197ZM1.71235 4.92933C2.24227 5.23375 5.43244 7.05731 5.90654 7.32679C6.18909 7.4874 6.43103 7.62791 6.44416 7.63906C6.46328 7.65524 6.28642 7.79474 5.56351 8.33363C4.56806 9.07572 2.54499 10.5848 1.89775 11.068C1.52054 11.3497 1.48392 11.373 1.47302 11.3385C1.45746 11.2892 1.45374 4.79647 1.46926 4.79647C1.47575 4.79647 1.58515 4.85625 1.71235 4.92933ZM14.5527 8.08232C14.5494 10.3343 14.5419 11.3775 14.5287 11.3979C14.5119 11.424 14.4291 11.3677 13.8591 10.9421C12.936 10.253 11.0987 8.88303 10.2329 8.23839C9.67925 7.8261 9.50182 7.68531 9.51787 7.67095C9.52961 7.66045 9.96854 7.40678 10.4933 7.10722C11.5896 6.48133 12.2572 6.09956 13.5847 5.33915C14.1044 5.04149 14.5359 4.79762 14.5436 4.79722C14.5513 4.79681 14.5554 6.2751 14.5527 8.08232ZM11.7824 5.31305L11.7775 5.79588L10.4474 6.56228C9.71581 6.98381 9.1038 7.33575 9.08736 7.34437C9.0638 7.35672 8.95902 7.28655 8.592 7.0126C8.33598 6.82152 8.09823 6.65405 8.06366 6.64045C7.9893 6.61121 7.87331 6.62239 7.80394 6.6655C7.7782 6.6815 7.56554 6.83735 7.33134 7.01182L6.90555 7.32907L6.75465 7.2445C6.67163 7.19799 6.07121 6.85381 5.42035 6.47966L4.23698 5.79937L4.23211 5.3148L4.22723 4.83022H8.00726H11.7873L11.7824 5.31305ZM9.33385 8.19053C10.0825 8.74882 11.4692 9.78283 12.4153 10.4883C13.6278 11.3925 14.1298 11.7763 14.1161 11.7889C14.1024 11.8015 12.2779 11.8081 8.03687 11.8111C1.81374 11.8156 1.84616 11.8158 1.83781 11.7558C1.83511 11.7364 1.70487 11.8343 5.02373 9.36003C5.65827 8.88696 6.5747 8.20247 7.06023 7.83894C7.54578 7.47542 7.94971 7.17742 7.95784 7.17671C7.96596 7.17602 8.58517 7.63223 9.33385 8.19053Z" fill="#FFD588"/>
</svg>
