<svg width="32" height="20" viewBox="0 0 32 20" fill="none" xmlns="http://www.w3.org/2000/svg">
<path fill-rule="evenodd" clip-rule="evenodd" d="M13.5505 0.0911224C8.22485 0.827704 3.58537 3.91247 0.487812 8.77647L0 9.54263L0.487812 10.3088C3.38444 14.8571 7.48667 17.7576 12.5332 18.8255C14.1208 19.1614 17.8744 19.1614 19.462 18.8255C24.4483 17.7704 28.5142 14.932 31.3752 10.5087L32 9.54263L31.3752 8.5766C28.5283 4.1751 24.4222 1.29899 19.5286 0.278732C18.2642 0.015172 14.8699 -0.0914241 13.5505 0.0911224ZM18.3966 2.27342C20.0885 2.52845 21.6587 3.03678 23.1929 3.826C24.7321 4.61788 25.7272 5.35179 27.1044 6.7109C28.0109 7.60538 29.4529 9.3441 29.4529 9.54263C29.4529 9.74117 28.0109 11.4799 27.1044 12.3744C25.7272 13.7335 24.7321 14.4674 23.1929 15.2593C18.6882 17.5768 13.3078 17.5768 8.80234 15.2594C7.24896 14.4603 6.12157 13.6192 4.77299 12.253C3.86252 11.3305 2.54259 9.72665 2.54259 9.54263C2.54259 9.35729 3.86093 7.75288 4.77139 6.83029C6.11544 5.46812 7.24217 4.6284 8.80234 3.82586C11.7487 2.31033 15.0734 1.77242 18.3966 2.27342ZM14.4136 3.35751C11.0351 4.26611 8.94491 7.7642 9.80581 11.0694C10.6972 14.4918 14.1901 16.6029 17.5243 15.7344C20.9368 14.8455 23.0576 11.3494 22.1946 8.03603C21.295 4.58243 17.7608 2.4573 14.4136 3.35751ZM16.8409 7.59245C18.2099 8.16447 18.5437 9.95929 17.479 11.0241C16.6147 11.8883 15.3805 11.8883 14.5162 11.0241C12.8685 9.37621 14.6866 6.69238 16.8409 7.59245Z" fill="#FFD588"/>
</svg>
