<svg width="192" height="30" viewBox="0 0 192 30" fill="none" xmlns="http://www.w3.org/2000/svg">
<path fill-rule="evenodd" clip-rule="evenodd" d="M25.4604 0.288686C25.345 0.447527 25.0759 1.01412 24.8624 1.548L24.4744 2.5185L25.0648 4.53199C25.3895 5.63939 25.6551 6.5669 25.6551 6.5932C25.6551 6.6195 25.0121 6.61322 24.2261 6.57935C19.9964 6.39664 16.2495 8.43463 14.3557 11.9483C12.3915 15.5924 13.0219 20.0878 15.9207 23.1099C16.6628 23.8836 18.3688 25.1478 18.6707 25.1478C18.8445 25.1478 20.338 23.894 20.338 23.7481C20.338 23.6952 20.0239 23.5121 19.6401 23.3414C19.2101 23.1499 18.5573 22.6613 17.9396 22.0684C16.3428 20.5361 15.6855 19.0394 15.6855 16.9362C15.6855 14.9804 16.3209 13.4211 17.6971 12C19.1015 10.5497 20.981 9.73988 22.9965 9.7164C25.6555 9.68548 27.923 10.8207 29.3684 12.9067C31.2358 15.6016 31.0758 18.9819 28.9594 21.5475C28.2948 22.3534 26.878 23.3402 25.826 23.7301C25.0979 24.0001 25.0157 24.0771 24.283 25.1775L23.5091 26.3398L24.3555 26.2562C25.611 26.132 27.0422 25.7111 28.2436 25.1129C29.7438 24.3657 31.6242 22.5507 32.3983 21.1027C34.0841 17.949 34.0003 14.3803 32.171 11.4081C31.5543 10.4063 30.3266 9.07847 29.5148 8.53548C29.2197 8.33815 28.9786 8.1412 28.9788 8.09783C28.9791 8.05447 29.9064 7.56845 31.0396 7.01764C33.3052 5.9164 33.2526 5.96695 33.7742 4.39277C34.0437 3.57983 34.0584 3.43793 33.8901 3.28165C33.6715 3.07868 26.1301 0 25.8512 0C25.7516 0 25.5757 0.129845 25.4604 0.288686ZM3.02238 7.88049C1.35999 9.53318 0 10.9719 0 11.0775C0 11.3643 1.4444 12.9225 1.84531 13.0681C2.03672 13.1377 3.14561 13.2571 4.30939 13.3336C5.47331 13.4102 6.44395 13.4905 6.46641 13.5122C6.48888 13.5339 6.23818 14.0677 5.90918 14.6986C5.11228 16.2271 4.78514 17.5299 4.78634 19.17C4.78833 21.9925 5.85428 24.4126 7.93062 26.3092C8.89939 27.1941 9.27944 27.4515 10.4628 28.0247C12.4492 28.987 15.128 29.2625 17.3956 28.7379C20.497 28.0201 23.1938 25.7518 24.4149 22.8338C25.8569 19.388 25.0997 15.3566 22.4858 12.561L21.7756 11.8016L21.0071 12.197C20.5844 12.4144 20.055 12.7758 19.8306 13.0001L19.4225 13.4079L20.1721 13.9852C21.0603 14.6695 22.0311 15.9949 22.4551 17.1025C22.8324 18.0874 22.9677 20.004 22.7363 21.0804C22.3086 23.0684 20.69 25.1022 18.8423 25.9729C15.7017 27.4529 12.5129 26.9655 10.1003 24.6367C7.75143 22.3694 7.21134 19.2733 8.65095 16.3273C8.97211 15.6699 9.35547 15.1936 10.2388 14.3542C11.0795 13.5554 11.4297 13.1274 11.4983 12.8146C11.5505 12.5763 11.7962 11.8538 12.0442 11.209C12.6068 9.74655 12.6155 9.59028 12.1297 9.70229C11.3923 9.87242 10.0224 10.4122 9.52535 10.7285C9.24448 10.9072 8.9959 11.0347 8.9729 11.0118C8.94991 10.9888 8.83147 10.1329 8.70957 9.10965C8.58781 8.08642 8.4283 7.06242 8.35519 6.83403C8.20976 6.38022 6.59057 4.87559 6.24762 4.87559C6.13596 4.87559 4.68465 6.22779 3.02238 7.88049Z" fill="#FFD588"/>
<path fill-rule="evenodd" clip-rule="evenodd" d="M25.4604 0.288686C25.345 0.447527 25.0759 1.01412 24.8624 1.548L24.4744 2.5185L25.0648 4.53199C25.3895 5.63939 25.6551 6.5669 25.6551 6.5932C25.6551 6.6195 25.0121 6.61322 24.2261 6.57935C19.9964 6.39664 16.2495 8.43463 14.3557 11.9483C12.3915 15.5924 13.0219 20.0878 15.9207 23.1099C16.6628 23.8836 18.3688 25.1478 18.6707 25.1478C18.8445 25.1478 20.338 23.894 20.338 23.7481C20.338 23.6952 20.0239 23.5121 19.6401 23.3414C19.2101 23.1499 18.5573 22.6613 17.9396 22.0684C16.3428 20.5361 15.6855 19.0394 15.6855 16.9362C15.6855 14.9804 16.3209 13.4211 17.6971 12C19.1015 10.5497 20.981 9.73988 22.9965 9.7164C25.6555 9.68548 27.923 10.8207 29.3684 12.9067C31.2358 15.6016 31.0758 18.9819 28.9594 21.5475C28.2948 22.3534 26.878 23.3402 25.826 23.7301C25.0979 24.0001 25.0157 24.0771 24.283 25.1775L23.5091 26.3398L24.3555 26.2562C25.611 26.132 27.0422 25.7111 28.2436 25.1129C29.7438 24.3657 31.6242 22.5507 32.3983 21.1027C34.0841 17.949 34.0003 14.3803 32.171 11.4081C31.5543 10.4063 30.3266 9.07847 29.5148 8.53548C29.2197 8.33815 28.9786 8.1412 28.9788 8.09783C28.9791 8.05447 29.9064 7.56845 31.0396 7.01764C33.3052 5.9164 33.2526 5.96695 33.7742 4.39277C34.0437 3.57983 34.0584 3.43793 33.8901 3.28165C33.6715 3.07868 26.1301 0 25.8512 0C25.7516 0 25.5757 0.129845 25.4604 0.288686ZM3.02238 7.88049C1.35999 9.53318 0 10.9719 0 11.0775C0 11.3643 1.4444 12.9225 1.84531 13.0681C2.03672 13.1377 3.14561 13.2571 4.30939 13.3336C5.47331 13.4102 6.44395 13.4905 6.46641 13.5122C6.48888 13.5339 6.23818 14.0677 5.90918 14.6986C5.11228 16.2271 4.78514 17.5299 4.78634 19.17C4.78833 21.9925 5.85428 24.4126 7.93062 26.3092C8.89939 27.1941 9.27944 27.4515 10.4628 28.0247C12.4492 28.987 15.128 29.2625 17.3956 28.7379C20.497 28.0201 23.1938 25.7518 24.4149 22.8338C25.8569 19.388 25.0997 15.3566 22.4858 12.561L21.7756 11.8016L21.0071 12.197C20.5844 12.4144 20.055 12.7758 19.8306 13.0001L19.4225 13.4079L20.1721 13.9852C21.0603 14.6695 22.0311 15.9949 22.4551 17.1025C22.8324 18.0874 22.9677 20.004 22.7363 21.0804C22.3086 23.0684 20.69 25.1022 18.8423 25.9729C15.7017 27.4529 12.5129 26.9655 10.1003 24.6367C7.75143 22.3694 7.21134 19.2733 8.65095 16.3273C8.97211 15.6699 9.35547 15.1936 10.2388 14.3542C11.0795 13.5554 11.4297 13.1274 11.4983 12.8146C11.5505 12.5763 11.7962 11.8538 12.0442 11.209C12.6068 9.74655 12.6155 9.59028 12.1297 9.70229C11.3923 9.87242 10.0224 10.4122 9.52535 10.7285C9.24448 10.9072 8.9959 11.0347 8.9729 11.0118C8.94991 10.9888 8.83147 10.1329 8.70957 9.10965C8.58781 8.08642 8.4283 7.06242 8.35519 6.83403C8.20976 6.38022 6.59057 4.87559 6.24762 4.87559C6.13596 4.87559 4.68465 6.22779 3.02238 7.88049Z" fill="url(#paint0_linear_302_129)"/>
<path d="M46.9112 17.0298C45.2855 17.0298 43.9169 16.7506 42.8053 16.1922C41.7076 15.6209 40.8809 14.8093 40.3251 13.7574C39.7693 12.7056 39.4914 11.4525 39.4914 9.99814C39.4914 8.54377 39.7832 7.29067 40.3668 6.23884C40.9642 5.18702 41.8118 4.37542 42.9095 3.80406C44.0211 3.2327 45.355 2.94702 46.9112 2.94702C47.9811 2.94702 48.912 3.08986 49.704 3.37554C50.496 3.64824 51.2047 4.05079 51.8299 4.58319L51.0588 6.16093C50.6142 5.81032 50.1834 5.53113 49.7666 5.32337C49.3497 5.1156 48.919 4.96626 48.4744 4.87537C48.0297 4.77148 47.5087 4.71954 46.9112 4.71954C45.2299 4.71954 43.9516 5.18053 43.0762 6.10249C42.2009 7.02446 41.7632 8.32951 41.7632 10.0176C41.7632 11.7317 42.18 13.0367 43.0137 13.9327C43.8613 14.8287 45.1882 15.2767 46.9946 15.2767C47.6198 15.2767 48.2381 15.2248 48.8495 15.1209C49.4609 15.004 50.0514 14.8352 50.6211 14.6145L50.2043 15.5689V11.0694H46.5777V9.55014H52.0175V16.0364C51.3784 16.3351 50.5933 16.5753 49.6624 16.7571C48.7453 16.9389 47.8283 17.0298 46.9112 17.0298Z" fill="black"/>
<path d="M53.4317 16.8545L59.9761 3.12233H61.8311L68.4797 16.8545H66.2496L64.4363 12.9588L65.3534 13.5042H56.4538L57.4334 12.9588L55.6201 16.8545H53.4317ZM60.8723 5.34284L57.7043 12.3355L57.2041 11.8875H64.6031L64.1862 12.3355L60.9557 5.34284H60.8723Z" fill="black"/>
<path d="M70.0572 16.8545V3.12233H76.2682C77.8383 3.12233 79.0541 3.47293 79.9156 4.17415C80.777 4.86238 81.2078 5.8298 81.2078 7.07641C81.2078 7.89449 81.0132 8.59571 80.6242 9.18005C80.2351 9.7644 79.6863 10.2124 78.9777 10.5241C78.269 10.8227 77.4353 10.9721 76.4766 10.9721L76.8101 10.6604H77.3728C77.9425 10.6604 78.4497 10.7967 78.8943 11.0694C79.3528 11.3421 79.728 11.7772 80.0198 12.3745L82.1248 16.8545H79.7488L77.6646 12.355C77.4562 11.8226 77.1297 11.4785 76.685 11.3227C76.2543 11.1668 75.7193 11.0889 75.0802 11.0889H72.2248V16.8545H70.0572ZM72.2248 9.55014H75.9139C76.956 9.55014 77.741 9.34237 78.269 8.92684C78.8109 8.5113 79.0819 7.91397 79.0819 7.13484C79.0819 6.34273 78.8109 5.74539 78.269 5.34284C77.741 4.94029 76.956 4.73902 75.9139 4.73902H72.2248V9.55014Z" fill="black"/>
<path d="M84.225 16.8545V3.12233H85.8924L94.917 14.186H94.396V3.12233H96.4176V16.8545H94.7711L85.7673 5.79084H86.2467V16.8545H84.225Z" fill="black"/>
<path d="M99.4919 16.8545V3.12233H109.121V4.73902H101.597V9.06319H108.642V10.6994H101.597V15.2183H109.121V16.8545H99.4919Z" fill="black"/>
<path d="M114.78 16.8545V4.81693H109.757V3.12233H121.971V4.81693H116.948V16.8545H114.78Z" fill="black"/>
<path d="M128.826 16.8545V3.12233H130.994V15.1209H138.205V16.8545H128.826Z" fill="black"/>
<path d="M138.053 16.8545L144.598 3.12233H146.453L153.101 16.8545H150.871L149.058 12.9588L149.975 13.5042H141.075L142.055 12.9588L140.242 16.8545H138.053ZM145.494 5.34284L142.326 12.3355L141.826 11.8875H149.225L148.808 12.3355L145.577 5.34284H145.494Z" fill="black"/>
<path d="M154.679 16.8545V3.12233H156.346L165.371 14.186H164.85V3.12233H166.871V16.8545H165.225L156.221 5.79084H156.7V16.8545H154.679Z" fill="black"/>
<path d="M169.946 16.8545V3.12233H179.575V4.73902H172.051V9.06319H179.095V10.6994H172.051V15.2183H179.575V16.8545H169.946Z" fill="black"/>
<path d="M181.895 16.8545V3.12233H191.524V4.73902H184V9.06319H191.045V10.6994H184V15.2183H191.524V16.8545H181.895Z" fill="black"/>
<path d="M43.7863 27.0967H42.103V21.6421H43.8608C44.3899 21.6421 44.8427 21.7513 45.2191 21.9697C45.5956 22.1863 45.8841 22.498 46.0847 22.9046C46.2854 23.3094 46.3857 23.7941 46.3857 24.3588C46.3857 24.9269 46.2845 25.4161 46.0821 25.8263C45.8796 26.2346 45.5849 26.5489 45.1978 26.7691C44.8108 26.9875 44.3402 27.0967 43.7863 27.0967ZM42.7635 26.5107H43.7436C44.1946 26.5107 44.5684 26.4237 44.8649 26.2497C45.1614 26.0757 45.3825 25.828 45.5281 25.5067C45.6737 25.1853 45.7465 24.8026 45.7465 24.3588C45.7465 23.9184 45.6746 23.5393 45.5308 23.2215C45.3869 22.9019 45.1721 22.6569 44.8862 22.4864C44.6004 22.3142 44.2444 22.2281 43.8182 22.2281H42.7635V26.5107ZM48.6122 27.1926C48.353 27.1926 48.1178 27.1437 47.9065 27.0461C47.6952 26.9466 47.5274 26.8037 47.4031 26.6173C47.2788 26.4291 47.2167 26.2018 47.2167 25.9355C47.2167 25.7011 47.2628 25.5111 47.3551 25.3655C47.4475 25.2181 47.5709 25.1027 47.7254 25.0193C47.8798 24.9358 48.0503 24.8737 48.2367 24.8328C48.4249 24.7902 48.614 24.7565 48.804 24.7316C49.0526 24.6997 49.2541 24.6757 49.4086 24.6597C49.5648 24.642 49.6785 24.6127 49.7495 24.5718C49.8223 24.531 49.8587 24.46 49.8587 24.3588V24.3374C49.8587 24.0747 49.7868 23.8705 49.643 23.7249C49.5009 23.5793 49.2852 23.5065 48.9958 23.5065C48.6957 23.5065 48.4604 23.5722 48.29 23.7036C48.1195 23.835 47.9997 23.9752 47.9304 24.1244L47.3338 23.9113C47.4404 23.6627 47.5824 23.4692 47.76 23.3307C47.9393 23.1904 48.1346 23.0928 48.3459 23.0377C48.559 22.9809 48.7685 22.9525 48.9745 22.9525C49.1059 22.9525 49.2568 22.9685 49.4272 23.0004C49.5995 23.0306 49.7655 23.0937 49.9253 23.1895C50.0869 23.2854 50.2209 23.4301 50.3274 23.6237C50.434 23.8172 50.4872 24.0764 50.4872 24.4014V27.0967H49.8587V26.5427H49.8267C49.7841 26.6315 49.7131 26.7265 49.6137 26.8277C49.5142 26.9289 49.382 27.015 49.2168 27.086C49.0517 27.157 48.8502 27.1926 48.6122 27.1926ZM48.7081 26.6279C48.9567 26.6279 49.1662 26.5791 49.3367 26.4814C49.5089 26.3838 49.6385 26.2577 49.7255 26.1032C49.8143 25.9488 49.8587 25.7863 49.8587 25.6159V25.0406C49.8321 25.0725 49.7735 25.1018 49.6829 25.1285C49.5941 25.1533 49.4912 25.1755 49.374 25.195C49.2586 25.2128 49.1458 25.2288 49.0357 25.243C48.9274 25.2554 48.8395 25.2661 48.7721 25.2749C48.6087 25.2963 48.456 25.3309 48.314 25.3788C48.1737 25.425 48.06 25.4951 47.973 25.5892C47.8878 25.6816 47.8452 25.8076 47.8452 25.9674C47.8452 26.1858 47.926 26.3509 48.0876 26.4628C48.2509 26.5729 48.4578 26.6279 48.7081 26.6279ZM51.5173 27.0967V26.6173L53.8397 23.6343V23.5917H51.5919V23.0058H54.6494V23.5065L52.3909 26.4681V26.5107H54.724V27.0967H51.5173ZM55.5749 27.0967V26.6173L57.8974 23.6343V23.5917H55.6495V23.0058H58.707V23.5065L56.4485 26.4681V26.5107H58.7816V27.0967H55.5749ZM60.3783 21.6421V27.0967H59.7497V21.6421H60.3783ZM61.5295 27.0967V23.0058H62.1581V27.0967H61.5295ZM61.8491 22.324C61.7266 22.324 61.6209 22.2822 61.5322 22.1988C61.4452 22.1153 61.4017 22.015 61.4017 21.8978C61.4017 21.7806 61.4452 21.6803 61.5322 21.5969C61.6209 21.5134 61.7266 21.4717 61.8491 21.4717C61.9716 21.4717 62.0764 21.5134 62.1634 21.5969C62.2522 21.6803 62.2966 21.7806 62.2966 21.8978C62.2966 22.015 62.2522 22.1153 62.1634 22.1988C62.0764 22.2822 61.9716 22.324 61.8491 22.324ZM63.9378 24.6357V27.0967H63.3093V23.0058H63.9165V23.645H63.9698C64.0657 23.4372 64.2113 23.2703 64.4066 23.1443C64.6019 23.0164 64.854 22.9525 65.163 22.9525C65.44 22.9525 65.6823 23.0093 65.8901 23.123C66.0978 23.2348 66.2594 23.4053 66.3748 23.6343C66.4902 23.8616 66.5479 24.1492 66.5479 24.4972V27.0967H65.9194V24.5399C65.9194 24.2185 65.8359 23.9681 65.669 23.7888C65.5021 23.6077 65.2731 23.5171 64.9819 23.5171C64.7812 23.5171 64.6019 23.5606 64.4439 23.6476C64.2876 23.7346 64.1642 23.8616 64.0737 24.0285C63.9831 24.1954 63.9378 24.3978 63.9378 24.6357ZM69.3478 28.716C69.0442 28.716 68.7831 28.6769 68.5648 28.5988C68.3464 28.5225 68.1644 28.4213 68.0188 28.2952C67.8749 28.1709 67.7604 28.0377 67.6752 27.8957L68.1759 27.5441C68.2327 27.6187 68.3046 27.7039 68.3916 27.7998C68.4786 27.8975 68.5976 27.9818 68.7485 28.0528C68.9012 28.1256 69.101 28.162 69.3478 28.162C69.678 28.162 69.9506 28.0821 70.1654 27.9223C70.3803 27.7625 70.4877 27.5122 70.4877 27.1713V26.3403H70.4344C70.3883 26.4149 70.3226 26.5072 70.2373 26.6173C70.1539 26.7256 70.0331 26.8224 69.8751 26.9076C69.7189 26.991 69.5076 27.0328 69.2412 27.0328C68.911 27.0328 68.6145 26.9546 68.3517 26.7984C68.0907 26.6421 67.8838 26.4149 67.7311 26.1166C67.5802 25.8183 67.5047 25.4561 67.5047 25.0299C67.5047 24.6109 67.5784 24.246 67.7258 23.9353C67.8732 23.6228 68.0782 23.3813 68.341 23.2108C68.6038 23.0386 68.9074 22.9525 69.2519 22.9525C69.5182 22.9525 69.7295 22.9969 69.8858 23.0857C70.0438 23.1727 70.1645 23.2721 70.248 23.384C70.3332 23.4941 70.3989 23.5846 70.4451 23.6556H70.509V23.0058H71.1162V27.2139C71.1162 27.5654 71.0363 27.8513 70.8765 28.0715C70.7185 28.2934 70.5054 28.4559 70.2373 28.5589C69.971 28.6636 69.6745 28.716 69.3478 28.716ZM69.3265 26.4681C69.5786 26.4681 69.7917 26.4104 69.9657 26.295C70.1397 26.1796 70.272 26.0136 70.3625 25.797C70.4531 25.5803 70.4983 25.3211 70.4983 25.0193C70.4983 24.7245 70.454 24.4644 70.3652 24.2389C70.2764 24.0134 70.145 23.8367 69.971 23.7089C69.797 23.5811 69.5822 23.5171 69.3265 23.5171C69.0601 23.5171 68.8382 23.5846 68.6606 23.7195C68.4849 23.8545 68.3526 24.0356 68.2638 24.2629C68.1768 24.4901 68.1333 24.7423 68.1333 25.0193C68.1333 25.3034 68.1777 25.5546 68.2665 25.773C68.357 25.9896 68.4902 26.1601 68.666 26.2844C68.8435 26.4069 69.0637 26.4681 69.3265 26.4681ZM74.781 28.6308C74.6745 28.6308 74.5795 28.6219 74.496 28.6041C74.4126 28.5882 74.3549 28.5722 74.3229 28.5562L74.4827 28.0022C74.6354 28.0413 74.7704 28.0555 74.8876 28.0448C75.0047 28.0342 75.1086 27.9818 75.1992 27.8877C75.2915 27.7954 75.3758 27.6453 75.4522 27.4376L75.5694 27.118L74.0566 23.0058H74.7384L75.8677 26.2657H75.9103L77.0395 23.0058H77.7214L75.9849 27.6933C75.9067 27.9046 75.81 28.0795 75.6945 28.218C75.5791 28.3582 75.4451 28.4621 75.2924 28.5296C75.1415 28.597 74.971 28.6308 74.781 28.6308ZM80.0664 27.1819C79.6971 27.1819 79.3731 27.094 79.0943 26.9182C78.8173 26.7425 78.6007 26.4965 78.4445 26.1805C78.29 25.8644 78.2127 25.4951 78.2127 25.0725C78.2127 24.6464 78.29 24.2744 78.4445 23.9566C78.6007 23.6388 78.8173 23.392 79.0943 23.2162C79.3731 23.0404 79.6971 22.9525 80.0664 22.9525C80.4358 22.9525 80.7589 23.0404 81.0359 23.2162C81.3147 23.392 81.5313 23.6388 81.6858 23.9566C81.842 24.2744 81.9201 24.6464 81.9201 25.0725C81.9201 25.4951 81.842 25.8644 81.6858 26.1805C81.5313 26.4965 81.3147 26.7425 81.0359 26.9182C80.7589 27.094 80.4358 27.1819 80.0664 27.1819ZM80.0664 26.6173C80.347 26.6173 80.5778 26.5454 80.7589 26.4015C80.94 26.2577 81.0741 26.0686 81.1611 25.8343C81.2481 25.5999 81.2916 25.346 81.2916 25.0725C81.2916 24.7991 81.2481 24.5443 81.1611 24.3081C81.0741 24.072 80.94 23.8811 80.7589 23.7355C80.5778 23.5899 80.347 23.5171 80.0664 23.5171C79.7859 23.5171 79.5551 23.5899 79.374 23.7355C79.1929 23.8811 79.0588 24.072 78.9718 24.3081C78.8848 24.5443 78.8413 24.7991 78.8413 25.0725C78.8413 25.346 78.8848 25.5999 78.9718 25.8343C79.0588 26.0686 79.1929 26.2577 79.374 26.4015C79.5551 26.5454 79.7859 26.6173 80.0664 26.6173ZM85.4577 25.4241V23.0058H86.0863V27.0967H85.4577V26.4042H85.4151C85.3192 26.6119 85.1701 26.7886 84.9677 26.9342C84.7653 27.078 84.5096 27.1499 84.2006 27.1499C83.9449 27.1499 83.7177 27.094 83.5188 26.9822C83.3199 26.8685 83.1637 26.6981 83.0501 26.4708C82.9364 26.2417 82.8796 25.9532 82.8796 25.6052V23.0058H83.5082V25.5626C83.5082 25.8609 83.5916 26.0988 83.7585 26.2764C83.9272 26.4539 84.142 26.5427 84.403 26.5427C84.5593 26.5427 84.7182 26.5028 84.8798 26.4229C85.0431 26.343 85.1799 26.2204 85.2899 26.0553C85.4018 25.8902 85.4577 25.6798 85.4577 25.4241ZM89.1338 22.2281V21.6421H93.2247V22.2281H91.5095V27.0967H90.849V22.2281H89.1338ZM95.2276 27.1819C94.8583 27.1819 94.5342 27.094 94.2554 26.9182C93.9785 26.7425 93.7618 26.4965 93.6056 26.1805C93.4511 25.8644 93.3739 25.4951 93.3739 25.0725C93.3739 24.6464 93.4511 24.2744 93.6056 23.9566C93.7618 23.6388 93.9785 23.392 94.2554 23.2162C94.5342 23.0404 94.8583 22.9525 95.2276 22.9525C95.5969 22.9525 95.92 23.0404 96.197 23.2162C96.4758 23.392 96.6924 23.6388 96.8469 23.9566C97.0031 24.2744 97.0813 24.6464 97.0813 25.0725C97.0813 25.4951 97.0031 25.8644 96.8469 26.1805C96.6924 26.4965 96.4758 26.7425 96.197 26.9182C95.92 27.094 95.5969 27.1819 95.2276 27.1819ZM95.2276 26.6173C95.5081 26.6173 95.7389 26.5454 95.92 26.4015C96.1012 26.2577 96.2352 26.0686 96.3222 25.8343C96.4092 25.5999 96.4527 25.346 96.4527 25.0725C96.4527 24.7991 96.4092 24.5443 96.3222 24.3081C96.2352 24.072 96.1012 23.8811 95.92 23.7355C95.7389 23.5899 95.5081 23.5171 95.2276 23.5171C94.947 23.5171 94.7162 23.5899 94.5351 23.7355C94.354 23.8811 94.2199 24.072 94.1329 24.3081C94.0459 24.5443 94.0024 24.7991 94.0024 25.0725C94.0024 25.346 94.0459 25.5999 94.1329 25.8343C94.2199 26.0686 94.354 26.2577 94.5351 26.4015C94.7162 26.5454 94.947 26.6173 95.2276 26.6173ZM99.5855 27.1819C99.2446 27.1819 98.9436 27.0958 98.6826 26.9236C98.4216 26.7496 98.2174 26.5045 98.07 26.1885C97.9227 25.8706 97.849 25.4951 97.849 25.0619C97.849 24.6322 97.9227 24.2593 98.07 23.9433C98.2174 23.6272 98.4225 23.3831 98.6853 23.2108C98.9481 23.0386 99.2517 22.9525 99.5961 22.9525C99.8625 22.9525 100.073 22.9969 100.227 23.0857C100.384 23.1727 100.503 23.2721 100.584 23.384C100.668 23.4941 100.732 23.5846 100.779 23.6556H100.832V21.6421H101.46V27.0967H100.853V26.4681H100.779C100.732 26.5427 100.667 26.6368 100.582 26.7504C100.496 26.8623 100.375 26.9626 100.217 27.0514C100.059 27.1384 99.8483 27.1819 99.5855 27.1819ZM99.6707 26.6173C99.9228 26.6173 100.136 26.5516 100.31 26.4202C100.484 26.287 100.616 26.1032 100.707 25.8689C100.797 25.6327 100.843 25.3602 100.843 25.0512C100.843 24.7458 100.798 24.4786 100.709 24.2496C100.621 24.0187 100.489 23.8394 100.315 23.7116C100.141 23.5819 99.9264 23.5171 99.6707 23.5171C99.4044 23.5171 99.1824 23.5855 99.0049 23.7222C98.8291 23.8572 98.6968 24.0409 98.608 24.2735C98.521 24.5044 98.4775 24.7636 98.4775 25.0512C98.4775 25.3424 98.5219 25.607 98.6107 25.8449C98.7012 26.0811 98.8344 26.2693 99.0102 26.4095C99.1878 26.548 99.4079 26.6173 99.6707 26.6173ZM103.903 27.1926C103.644 27.1926 103.408 27.1437 103.197 27.0461C102.986 26.9466 102.818 26.8037 102.694 26.6173C102.569 26.4291 102.507 26.2018 102.507 25.9355C102.507 25.7011 102.553 25.5111 102.646 25.3655C102.738 25.2181 102.861 25.1027 103.016 25.0193C103.17 24.9358 103.341 24.8737 103.527 24.8328C103.715 24.7902 103.905 24.7565 104.095 24.7316C104.343 24.6997 104.545 24.6757 104.699 24.6597C104.855 24.642 104.969 24.6127 105.04 24.5718C105.113 24.531 105.149 24.46 105.149 24.3588V24.3374C105.149 24.0747 105.077 23.8705 104.933 23.7249C104.791 23.5793 104.576 23.5065 104.286 23.5065C103.986 23.5065 103.751 23.5722 103.581 23.7036C103.41 23.835 103.29 23.9752 103.221 24.1244L102.624 23.9113C102.731 23.6627 102.873 23.4692 103.051 23.3307C103.23 23.1904 103.425 23.0928 103.636 23.0377C103.85 22.9809 104.059 22.9525 104.265 22.9525C104.396 22.9525 104.547 22.9685 104.718 23.0004C104.89 23.0306 105.056 23.0937 105.216 23.1895C105.377 23.2854 105.511 23.4301 105.618 23.6237C105.725 23.8172 105.778 24.0764 105.778 24.4014V27.0967H105.149V26.5427H105.117C105.075 26.6315 105.004 26.7265 104.904 26.8277C104.805 26.9289 104.672 27.015 104.507 27.086C104.342 27.157 104.141 27.1926 103.903 27.1926ZM103.999 26.6279C104.247 26.6279 104.457 26.5791 104.627 26.4814C104.799 26.3838 104.929 26.2577 105.016 26.1032C105.105 25.9488 105.149 25.7863 105.149 25.6159V25.0406C105.123 25.0725 105.064 25.1018 104.973 25.1285C104.885 25.1533 104.782 25.1755 104.664 25.195C104.549 25.2128 104.436 25.2288 104.326 25.243C104.218 25.2554 104.13 25.2661 104.063 25.2749C103.899 25.2963 103.747 25.3309 103.604 25.3788C103.464 25.425 103.351 25.4951 103.264 25.5892C103.178 25.6816 103.136 25.8076 103.136 25.9674C103.136 26.1858 103.217 26.3509 103.378 26.4628C103.541 26.5729 103.748 26.6279 103.999 26.6279ZM107.183 28.6308C107.077 28.6308 106.982 28.6219 106.898 28.6041C106.815 28.5882 106.757 28.5722 106.725 28.5562L106.885 28.0022C107.038 28.0413 107.173 28.0555 107.29 28.0448C107.407 28.0342 107.511 27.9818 107.602 27.8877C107.694 27.7954 107.778 27.6453 107.855 27.4376L107.972 27.118L106.459 23.0058H107.141L108.27 26.2657H108.313L109.442 23.0058H110.124L108.387 27.6933C108.309 27.9046 108.212 28.0795 108.097 28.218C107.981 28.3582 107.847 28.4621 107.695 28.5296C107.544 28.597 107.373 28.6308 107.183 28.6308ZM111.634 26.3509L111.592 26.6386C111.562 26.841 111.516 27.0576 111.453 27.2884C111.393 27.5193 111.33 27.7368 111.264 27.941C111.199 28.1452 111.144 28.3076 111.102 28.4284H110.622C110.645 28.3147 110.676 28.1647 110.713 27.9782C110.75 27.7918 110.788 27.5832 110.825 27.3524C110.864 27.1233 110.896 26.8889 110.921 26.6492L110.953 26.3509H111.634ZM114.695 22.2281V21.6421H118.786V22.2281H117.071V27.0967H116.411V22.2281H114.695ZM120.789 27.1819C120.42 27.1819 120.096 27.094 119.817 26.9182C119.54 26.7425 119.323 26.4965 119.167 26.1805C119.013 25.8644 118.935 25.4951 118.935 25.0725C118.935 24.6464 119.013 24.2744 119.167 23.9566C119.323 23.6388 119.54 23.392 119.817 23.2162C120.096 23.0404 120.42 22.9525 120.789 22.9525C121.158 22.9525 121.482 23.0404 121.759 23.2162C122.037 23.392 122.254 23.6388 122.408 23.9566C122.565 24.2744 122.643 24.6464 122.643 25.0725C122.643 25.4951 122.565 25.8644 122.408 26.1805C122.254 26.4965 122.037 26.7425 121.759 26.9182C121.482 27.094 121.158 27.1819 120.789 27.1819ZM120.789 26.6173C121.07 26.6173 121.3 26.5454 121.482 26.4015C121.663 26.2577 121.797 26.0686 121.884 25.8343C121.971 25.5999 122.014 25.346 122.014 25.0725C122.014 24.7991 121.971 24.5443 121.884 24.3081C121.797 24.072 121.663 23.8811 121.482 23.7355C121.3 23.5899 121.07 23.5171 120.789 23.5171C120.509 23.5171 120.278 23.5899 120.097 23.7355C119.916 23.8811 119.781 24.072 119.694 24.3081C119.607 24.5443 119.564 24.7991 119.564 25.0725C119.564 25.346 119.607 25.5999 119.694 25.8343C119.781 26.0686 119.916 26.2577 120.097 26.4015C120.278 26.5454 120.509 26.6173 120.789 26.6173ZM123.602 27.0967V23.0058H124.21V23.645H124.263C124.348 23.4266 124.486 23.257 124.676 23.1363C124.866 23.0138 125.094 22.9525 125.36 22.9525C125.63 22.9525 125.855 23.0138 126.034 23.1363C126.215 23.257 126.356 23.4266 126.457 23.645H126.5C126.605 23.4337 126.762 23.2659 126.971 23.1416C127.181 23.0155 127.432 22.9525 127.725 22.9525C128.091 22.9525 128.39 23.067 128.623 23.2961C128.855 23.5233 128.972 23.8776 128.972 24.3588V27.0967H128.343V24.3588C128.343 24.0569 128.26 23.8412 128.095 23.7116C127.93 23.5819 127.736 23.5171 127.512 23.5171C127.224 23.5171 127.002 23.6041 126.844 23.7781C126.686 23.9504 126.607 24.1688 126.607 24.4333V27.0967H125.967V24.2948C125.967 24.0622 125.892 23.8749 125.741 23.7329C125.59 23.589 125.396 23.5171 125.158 23.5171C124.994 23.5171 124.842 23.5606 124.7 23.6476C124.559 23.7346 124.446 23.8554 124.359 24.0099C124.273 24.1626 124.231 24.3392 124.231 24.5399V27.0967H123.602ZM131.783 27.1819C131.413 27.1819 131.089 27.094 130.811 26.9182C130.534 26.7425 130.317 26.4965 130.161 26.1805C130.006 25.8644 129.929 25.4951 129.929 25.0725C129.929 24.6464 130.006 24.2744 130.161 23.9566C130.317 23.6388 130.534 23.392 130.811 23.2162C131.089 23.0404 131.413 22.9525 131.783 22.9525C132.152 22.9525 132.475 23.0404 132.752 23.2162C133.031 23.392 133.248 23.6388 133.402 23.9566C133.558 24.2744 133.636 24.6464 133.636 25.0725C133.636 25.4951 133.558 25.8644 133.402 26.1805C133.248 26.4965 133.031 26.7425 132.752 26.9182C132.475 27.094 132.152 27.1819 131.783 27.1819ZM131.783 26.6173C132.063 26.6173 132.294 26.5454 132.475 26.4015C132.656 26.2577 132.79 26.0686 132.877 25.8343C132.964 25.5999 133.008 25.346 133.008 25.0725C133.008 24.7991 132.964 24.5443 132.877 24.3081C132.79 24.072 132.656 23.8811 132.475 23.7355C132.294 23.5899 132.063 23.5171 131.783 23.5171C131.502 23.5171 131.271 23.5899 131.09 23.7355C130.909 23.8811 130.775 24.072 130.688 24.3081C130.601 24.5443 130.558 24.7991 130.558 25.0725C130.558 25.346 130.601 25.5999 130.688 25.8343C130.775 26.0686 130.909 26.2577 131.09 26.4015C131.271 26.5454 131.502 26.6173 131.783 26.6173ZM134.596 27.0967V23.0058H135.203V23.6237H135.246C135.32 23.4213 135.455 23.257 135.651 23.1309C135.846 23.0049 136.066 22.9418 136.311 22.9418C136.357 22.9418 136.415 22.9427 136.484 22.9445C136.553 22.9463 136.606 22.949 136.641 22.9525V23.5917C136.62 23.5864 136.571 23.5784 136.495 23.5677C136.42 23.5553 136.341 23.5491 136.258 23.5491C136.059 23.5491 135.881 23.5908 135.725 23.6743C135.571 23.7559 135.448 23.8696 135.358 24.0152C135.269 24.159 135.224 24.3232 135.224 24.5079V27.0967H134.596ZM137.386 27.0967V23.0058H137.994V23.6237H138.036C138.111 23.4213 138.246 23.257 138.441 23.1309C138.636 23.0049 138.857 22.9418 139.102 22.9418C139.148 22.9418 139.206 22.9427 139.275 22.9445C139.344 22.9463 139.396 22.949 139.432 22.9525V23.5917C139.411 23.5864 139.362 23.5784 139.285 23.5677C139.211 23.5553 139.132 23.5491 139.048 23.5491C138.85 23.5491 138.672 23.5908 138.516 23.6743C138.361 23.7559 138.239 23.8696 138.148 24.0152C138.059 24.159 138.015 24.3232 138.015 24.5079V27.0967H137.386ZM141.714 27.1819C141.345 27.1819 141.021 27.094 140.742 26.9182C140.465 26.7425 140.249 26.4965 140.092 26.1805C139.938 25.8644 139.861 25.4951 139.861 25.0725C139.861 24.6464 139.938 24.2744 140.092 23.9566C140.249 23.6388 140.465 23.392 140.742 23.2162C141.021 23.0404 141.345 22.9525 141.714 22.9525C142.084 22.9525 142.407 23.0404 142.684 23.2162C142.963 23.392 143.179 23.6388 143.334 23.9566C143.49 24.2744 143.568 24.6464 143.568 25.0725C143.568 25.4951 143.49 25.8644 143.334 26.1805C143.179 26.4965 142.963 26.7425 142.684 26.9182C142.407 27.094 142.084 27.1819 141.714 27.1819ZM141.714 26.6173C141.995 26.6173 142.226 26.5454 142.407 26.4015C142.588 26.2577 142.722 26.0686 142.809 25.8343C142.896 25.5999 142.94 25.346 142.94 25.0725C142.94 24.7991 142.896 24.5443 142.809 24.3081C142.722 24.072 142.588 23.8811 142.407 23.7355C142.226 23.5899 141.995 23.5171 141.714 23.5171C141.434 23.5171 141.203 23.5899 141.022 23.7355C140.841 23.8811 140.707 24.072 140.62 24.3081C140.533 24.5443 140.489 24.7991 140.489 25.0725C140.489 25.346 140.533 25.5999 140.62 25.8343C140.707 26.0686 140.841 26.2577 141.022 26.4015C141.203 26.5454 141.434 26.6173 141.714 26.6173ZM145.315 27.0967L144.069 23.0058H144.729L145.614 26.1379H145.656L146.53 23.0058H147.201L148.064 26.1272H148.106L148.991 23.0058H149.651L148.405 27.0967H147.787L146.892 23.9539H146.828L145.933 27.0967H145.315ZM154.136 27.1713C153.778 27.1713 153.469 27.1056 153.209 26.9742C152.95 26.8428 152.75 26.6626 152.61 26.4335C152.47 26.2045 152.4 25.9426 152.4 25.6478C152.4 25.4205 152.448 25.219 152.544 25.0432C152.641 24.8657 152.775 24.7014 152.946 24.5505C153.118 24.3978 153.316 24.2451 153.54 24.0924L154.328 23.5065C154.482 23.4053 154.606 23.297 154.698 23.1816C154.792 23.0661 154.839 22.9152 154.839 22.7288C154.839 22.5903 154.778 22.4562 154.656 22.3266C154.535 22.197 154.376 22.1322 154.179 22.1322C154.04 22.1322 153.918 22.1677 153.811 22.2387C153.707 22.308 153.624 22.3968 153.564 22.5051C153.505 22.6116 153.476 22.7217 153.476 22.8353C153.476 22.9632 153.51 23.0928 153.58 23.2242C153.651 23.3538 153.74 23.4869 153.849 23.6237C153.959 23.7586 154.072 23.8971 154.19 24.0392L156.693 27.0967H155.937L153.87 24.6038C153.678 24.373 153.504 24.1634 153.348 23.9752C153.192 23.787 153.067 23.6015 152.975 23.4186C152.883 23.2357 152.837 23.0377 152.837 22.8247C152.837 22.5796 152.891 22.3648 152.999 22.1801C153.109 21.9937 153.263 21.849 153.46 21.746C153.659 21.6412 153.891 21.5889 154.158 21.5889C154.431 21.5889 154.666 21.6421 154.863 21.7487C155.06 21.8534 155.212 21.9928 155.319 22.1668C155.425 22.339 155.479 22.5264 155.479 22.7288C155.479 22.9898 155.414 23.2162 155.284 23.4079C155.155 23.5997 154.978 23.7781 154.754 23.9433L153.668 24.7529C153.422 24.934 153.256 25.1098 153.169 25.2803C153.082 25.4507 153.039 25.5732 153.039 25.6478C153.039 25.8183 153.083 25.9772 153.172 26.1246C153.261 26.2719 153.386 26.3909 153.548 26.4814C153.709 26.572 153.898 26.6173 154.115 26.6173C154.321 26.6173 154.522 26.5738 154.717 26.4868C154.912 26.398 155.089 26.2702 155.247 26.1032C155.407 25.9363 155.533 25.7357 155.625 25.5013C155.719 25.267 155.766 25.0033 155.766 24.7103H156.373C156.373 25.0725 156.332 25.3682 156.248 25.5972C156.165 25.8263 156.071 26.0056 155.966 26.1352C155.861 26.2648 155.777 26.3616 155.713 26.4255C155.692 26.4521 155.672 26.4788 155.654 26.5054C155.637 26.532 155.617 26.5587 155.596 26.5853C155.42 26.7824 155.198 26.9298 154.93 27.0274C154.662 27.1233 154.397 27.1713 154.136 27.1713ZM159.583 27.0967V21.6421H162.854V22.2281H160.244V24.0711H162.609V24.657H160.244V27.0967H159.583ZM165.262 27.1819C164.892 27.1819 164.568 27.094 164.29 26.9182C164.013 26.7425 163.796 26.4965 163.64 26.1805C163.485 25.8644 163.408 25.4951 163.408 25.0725C163.408 24.6464 163.485 24.2744 163.64 23.9566C163.796 23.6388 164.013 23.392 164.29 23.2162C164.568 23.0404 164.892 22.9525 165.262 22.9525C165.631 22.9525 165.954 23.0404 166.231 23.2162C166.51 23.392 166.727 23.6388 166.881 23.9566C167.037 24.2744 167.115 24.6464 167.115 25.0725C167.115 25.4951 167.037 25.8644 166.881 26.1805C166.727 26.4965 166.51 26.7425 166.231 26.9182C165.954 27.094 165.631 27.1819 165.262 27.1819ZM165.262 26.6173C165.542 26.6173 165.773 26.5454 165.954 26.4015C166.135 26.2577 166.269 26.0686 166.356 25.8343C166.443 25.5999 166.487 25.346 166.487 25.0725C166.487 24.7991 166.443 24.5443 166.356 24.3081C166.269 24.072 166.135 23.8811 165.954 23.7355C165.773 23.5899 165.542 23.5171 165.262 23.5171C164.981 23.5171 164.75 23.5899 164.569 23.7355C164.388 23.8811 164.254 24.072 164.167 24.3081C164.08 24.5443 164.037 24.7991 164.037 25.0725C164.037 25.346 164.08 25.5999 164.167 25.8343C164.254 26.0686 164.388 26.2577 164.569 26.4015C164.75 26.5454 164.981 26.6173 165.262 26.6173ZM168.075 27.0967V23.0058H168.682V23.6237H168.725C168.799 23.4213 168.934 23.257 169.13 23.1309C169.325 23.0049 169.545 22.9418 169.79 22.9418C169.836 22.9418 169.894 22.9427 169.963 22.9445C170.032 22.9463 170.085 22.949 170.12 22.9525V23.5917C170.099 23.5864 170.05 23.5784 169.974 23.5677C169.899 23.5553 169.82 23.5491 169.737 23.5491C169.538 23.5491 169.36 23.5908 169.204 23.6743C169.05 23.7559 168.927 23.8696 168.837 24.0152C168.748 24.159 168.703 24.3232 168.703 24.5079V27.0967H168.075ZM172.456 27.1819C172.062 27.1819 171.722 27.0949 171.436 26.9209C171.152 26.7451 170.933 26.5001 170.778 26.1858C170.626 25.8698 170.549 25.5022 170.549 25.0832C170.549 24.6642 170.626 24.2948 170.778 23.9752C170.933 23.6539 171.148 23.4035 171.423 23.2242C171.7 23.0431 172.023 22.9525 172.392 22.9525C172.605 22.9525 172.816 22.988 173.023 23.059C173.231 23.1301 173.42 23.2455 173.591 23.4053C173.761 23.5633 173.897 23.7728 173.998 24.0338C174.099 24.2948 174.15 24.6162 174.15 24.998V25.2643H170.997V24.721H173.511C173.511 24.4901 173.465 24.2842 173.372 24.1031C173.282 23.922 173.152 23.779 172.983 23.6743C172.817 23.5695 172.619 23.5171 172.392 23.5171C172.142 23.5171 171.925 23.5793 171.742 23.7036C171.561 23.8261 171.422 23.9859 171.324 24.183C171.227 24.3801 171.178 24.5914 171.178 24.8169V25.1791C171.178 25.488 171.231 25.7499 171.338 25.9648C171.446 26.1778 171.596 26.3403 171.788 26.4521C171.979 26.5622 172.202 26.6173 172.456 26.6173C172.621 26.6173 172.77 26.5942 172.904 26.548C173.039 26.5001 173.155 26.4291 173.252 26.335C173.35 26.2391 173.426 26.1201 173.479 25.9781L174.086 26.1485C174.022 26.3545 173.915 26.5356 173.764 26.6919C173.613 26.8463 173.426 26.9671 173.205 27.0541C172.983 27.1393 172.733 27.1819 172.456 27.1819ZM178.327 23.0058L176.814 27.0967H176.175L174.662 23.0058H175.344L176.473 26.2657H176.516L177.645 23.0058H178.327ZM180.725 27.1819C180.331 27.1819 179.991 27.0949 179.705 26.9209C179.421 26.7451 179.202 26.5001 179.047 26.1858C178.895 25.8698 178.818 25.5022 178.818 25.0832C178.818 24.6642 178.895 24.2948 179.047 23.9752C179.202 23.6539 179.417 23.4035 179.692 23.2242C179.969 23.0431 180.292 22.9525 180.661 22.9525C180.874 22.9525 181.085 22.988 181.292 23.059C181.5 23.1301 181.689 23.2455 181.86 23.4053C182.03 23.5633 182.166 23.7728 182.267 24.0338C182.368 24.2948 182.419 24.6162 182.419 24.998V25.2643H179.266V24.721H181.78C181.78 24.4901 181.734 24.2842 181.641 24.1031C181.551 23.922 181.421 23.779 181.253 23.6743C181.086 23.5695 180.889 23.5171 180.661 23.5171C180.411 23.5171 180.194 23.5793 180.011 23.7036C179.83 23.8261 179.691 23.9859 179.593 24.183C179.496 24.3801 179.447 24.5914 179.447 24.8169V25.1791C179.447 25.488 179.5 25.7499 179.607 25.9648C179.715 26.1778 179.865 26.3403 180.057 26.4521C180.248 26.5622 180.471 26.6173 180.725 26.6173C180.89 26.6173 181.039 26.5942 181.173 26.548C181.308 26.5001 181.424 26.4291 181.522 26.335C181.619 26.2391 181.695 26.1201 181.748 25.9781L182.355 26.1485C182.291 26.3545 182.184 26.5356 182.033 26.6919C181.882 26.8463 181.696 26.9671 181.474 27.0541C181.252 27.1393 181.002 27.1819 180.725 27.1819ZM183.375 27.0967V23.0058H183.982V23.6237H184.025C184.1 23.4213 184.235 23.257 184.43 23.1309C184.625 23.0049 184.845 22.9418 185.09 22.9418C185.137 22.9418 185.194 22.9427 185.264 22.9445C185.333 22.9463 185.385 22.949 185.421 22.9525V23.5917C185.399 23.5864 185.351 23.5784 185.274 23.5677C185.2 23.5553 185.121 23.5491 185.037 23.5491C184.838 23.5491 184.661 23.5908 184.504 23.6743C184.35 23.7559 184.227 23.8696 184.137 24.0152C184.048 24.159 184.004 24.3232 184.004 24.5079V27.0967H183.375Z" fill="black"/>
<defs>
<linearGradient id="paint0_linear_302_129" x1="16.7463" y1="8.59259" x2="16.7463" y2="20.6759" gradientUnits="userSpaceOnUse">
<stop stop-color="#FD9149"/>
<stop offset="1" stop-color="#FD9149" stop-opacity="0"/>
</linearGradient>
</defs>
</svg>
