<svg width="36" height="15" viewBox="0 0 36 15" fill="none" xmlns="http://www.w3.org/2000/svg">
<path fill-rule="evenodd" clip-rule="evenodd" d="M16.445 0.289742C12.9697 0.463731 9.64676 1.28378 6.54458 2.73304C5.57088 3.18793 3.332 4.53942 2.47716 5.18832C1.7448 5.74422 0.52969 6.81761 0.199128 7.20057L0 7.43128L0.350211 7.87088C2.16945 10.1549 5.39181 12.1759 9.00897 13.3014C11.7537 14.1554 14.4186 14.5386 17.6536 14.5445C19.1102 14.5471 19.9188 14.5046 21.184 14.3587C25.8143 13.8248 30.2398 12.0187 33.6364 9.27666C34.2367 8.79202 35.2425 7.85266 35.472 7.56224L35.5846 7.41972L35.1826 7.00626C33.5243 5.30077 31.3548 3.79771 28.832 2.60656C26.8132 1.65341 23.8679 0.803665 21.5389 0.502484C20.0059 0.304238 17.9068 0.216594 16.445 0.289742ZM18.6603 2.97042C20.4673 3.09396 21.8136 3.47357 23.038 4.2048C24.0897 4.83289 24.6497 5.43713 25.0296 6.35371C25.2476 6.87957 25.2476 7.93992 25.0296 8.46579C24.5153 9.70662 23.3764 10.6577 21.6758 11.2666C20.3951 11.7252 18.6332 11.9513 17.0968 11.8542C15.2561 11.7379 13.8798 11.3633 12.6337 10.6394C11.6667 10.0777 11.0231 9.41294 10.663 8.60375C10.4924 8.22045 10.4765 8.11881 10.4765 7.40975C10.4765 6.70068 10.4924 6.59904 10.663 6.21575C11.0231 5.40655 11.6667 4.74181 12.6337 4.18008C14.2387 3.24772 16.3926 2.81541 18.6603 2.97042ZM16.8898 4.79363C15.3752 4.98991 14.0427 5.74234 13.5552 6.67659C13.3408 7.08749 13.3408 7.732 13.5552 8.1429C14.1505 9.2837 15.9189 10.0895 17.8271 10.0895C19.417 10.0895 20.9911 9.50574 21.7333 8.64086C22.6426 7.5811 22.327 6.3752 20.9165 5.52055C19.8463 4.87206 18.3579 4.60339 16.8898 4.79363Z" fill="#F3BD6A"/>
</svg>
