<svg width="40" height="41" viewBox="0 0 40 41" fill="none" xmlns="http://www.w3.org/2000/svg">
<path fill-rule="evenodd" clip-rule="evenodd" d="M29.9534 0.473139C29.8176 0.69223 29.5011 1.47374 29.2499 2.21012L28.7935 3.54874L29.488 6.32597C29.87 7.85341 30.1825 9.13274 30.1825 9.16902C30.1825 9.2053 29.426 9.19663 28.5013 9.14991C23.5251 8.8979 19.1171 11.7089 16.889 16.5553C14.5783 21.5817 15.3199 27.7823 18.7302 31.9507C19.6033 33.0178 21.6103 34.7615 21.9655 34.7615C22.17 34.7615 23.927 33.0321 23.927 32.8309C23.927 32.758 23.5575 32.5055 23.106 32.2699C22.6001 32.0059 21.8321 31.332 21.1054 30.5142C19.2269 28.4006 18.4535 26.3362 18.4535 23.4353C18.4535 20.7375 19.2011 18.5868 20.8201 16.6266C22.4723 14.6263 24.6835 13.5093 27.0548 13.4769C30.1829 13.4342 32.8506 15.0001 34.5511 17.8773C36.748 21.5944 36.5597 26.2569 34.0699 29.7957C33.288 30.9072 31.6212 32.2683 30.3836 32.8061C29.5269 33.1785 29.4303 33.2847 28.5683 34.8026L27.6578 36.4058L28.6535 36.2904C30.1305 36.1191 31.8144 35.5386 33.2278 34.7134C34.9927 33.6829 37.205 31.1794 38.1156 29.1821C40.0989 24.8321 40.0004 19.9098 37.8482 15.8103C37.1227 14.4285 35.6783 12.597 34.7233 11.848C34.3761 11.5758 34.0924 11.3042 34.0927 11.2444C34.0931 11.1846 35.184 10.5142 36.5172 9.75445C39.1826 8.2355 39.1207 8.30522 39.7344 6.13395C40.0514 5.01265 40.0687 4.81692 39.8707 4.60137C39.6135 4.3214 30.7412 0.0749512 30.4131 0.0749512C30.296 0.0749512 30.0891 0.254047 29.9534 0.473139ZM3.55575 10.9446C1.59998 13.2242 0 15.2086 0 15.3542C0 15.7499 1.69929 17.8991 2.17095 18.0999C2.39614 18.1959 3.70072 18.3606 5.06987 18.4661C6.43919 18.5717 7.58112 18.6825 7.60755 18.7124C7.63398 18.7423 7.33903 19.4787 6.95198 20.3489C6.01444 22.4572 5.62958 24.2541 5.63099 26.5164C5.63333 30.4094 6.88739 33.7475 9.33014 36.3635C10.4699 37.584 10.917 37.9391 12.3091 38.7298C14.6462 40.0571 17.7976 40.437 20.4654 39.7134C24.1141 38.7234 27.2868 35.5947 28.7234 31.5698C30.4199 26.8171 29.5291 21.2564 26.4539 17.4005L25.6183 16.353L24.7143 16.8985C24.217 17.1983 23.5941 17.6968 23.3301 18.0061L22.85 18.5686L23.7319 19.3649C24.7768 20.3087 25.9189 22.1368 26.4178 23.6646C26.8616 25.0231 27.0208 27.6667 26.7485 29.1513C26.2455 31.8935 24.3411 34.6987 22.1674 35.8996C18.4726 37.941 14.7211 37.2687 11.8827 34.0566C9.11933 30.9294 8.48393 26.6588 10.1776 22.5954C10.5554 21.6886 11.0064 21.0317 12.0456 19.8739C13.0348 18.7721 13.4467 18.1817 13.5274 17.7502C13.5888 17.4216 13.8778 16.4251 14.1697 15.5356C14.8315 13.5185 14.8418 13.3029 14.2702 13.4574C13.4027 13.6921 11.791 14.4366 11.2063 14.8728C10.8759 15.1194 10.5834 15.2953 10.5564 15.2636C10.5293 15.2319 10.39 14.0513 10.2466 12.64C10.1033 11.2286 9.91564 9.81621 9.82963 9.5012C9.65855 8.87525 7.75361 6.7999 7.35014 6.7999C7.21877 6.7999 5.51135 8.66501 3.55575 10.9446Z" fill="#FFD588"/>
</svg>
