<svg width="19" height="18" viewBox="0 0 19 18" fill="none" xmlns="http://www.w3.org/2000/svg">
<path fill-rule="evenodd" clip-rule="evenodd" d="M7.98745 0.360756C7.66569 0.51696 7.6029 0.646457 7.44988 1.469C7.37548 1.86894 7.3008 2.20706 7.28389 2.22034C7.26702 2.23362 7.13649 2.28241 6.99388 2.32875C6.85127 2.37508 6.58467 2.47651 6.40145 2.55414L6.06828 2.69527L5.45028 2.28792C4.72075 1.80705 4.5572 1.74432 4.21377 1.81351C3.98388 1.85984 3.97483 1.86681 3.05018 2.70943C2.0746 3.59848 1.97005 3.72413 1.96845 4.00924C1.96718 4.23665 2.02554 4.33885 2.51991 4.97504L2.9649 5.54769L2.81068 5.85548C2.72587 6.02478 2.61525 6.2706 2.56487 6.40175C2.51448 6.5329 2.46143 6.65293 2.44699 6.66845C2.43255 6.684 2.06487 6.75268 1.62997 6.82109C0.735532 6.96182 0.594715 7.01956 0.424858 7.31546C0.332989 7.47544 0.332031 7.49008 0.332031 8.71289C0.332031 9.9357 0.332989 9.95034 0.424858 10.1103C0.594715 10.4062 0.735532 10.464 1.62997 10.6047C2.06487 10.6731 2.43255 10.7418 2.44699 10.7573C2.46143 10.7729 2.51448 10.8929 2.56487 11.024C2.61525 11.1552 2.72587 11.401 2.81068 11.5703L2.9649 11.8781L2.51879 12.4507C2.06639 13.0315 1.97228 13.1924 1.96953 13.3902C1.9653 13.6954 2.01341 13.7554 2.9785 14.6494C3.4866 15.12 3.95265 15.5294 4.01416 15.5593C4.18465 15.642 4.47718 15.6609 4.66355 15.6012C4.75314 15.5725 5.10586 15.3649 5.44737 15.1398L6.06828 14.7305L6.40145 14.8703C6.58467 14.9472 6.85127 15.0485 6.99388 15.0955C7.13649 15.1424 7.26702 15.1918 7.28389 15.2052C7.3008 15.2186 7.37548 15.5568 7.44988 15.9568C7.6029 16.7793 7.66569 16.9088 7.98745 17.065C8.16142 17.1495 8.17733 17.1504 9.50703 17.1504C10.8367 17.1504 10.8526 17.1495 11.0266 17.065C11.3484 16.9088 11.4112 16.7793 11.5642 15.9568C11.6386 15.5568 11.7133 15.2192 11.7302 15.2064C11.747 15.1936 11.9225 15.1284 12.1199 15.0614C12.3174 14.9944 12.5834 14.8914 12.7111 14.8325L12.9433 14.7255L13.5688 15.1371C14.2981 15.6171 14.4638 15.6802 14.8091 15.61C15.0274 15.5655 15.051 15.5472 15.9627 14.7158C16.4746 14.249 16.9204 13.8199 16.9534 13.7621C17.0441 13.603 17.0658 13.302 16.9974 13.1515C16.9654 13.081 16.7389 12.7657 16.4942 12.4507L16.0492 11.8781L16.2034 11.5703C16.2882 11.401 16.3988 11.1552 16.4492 11.024C16.4996 10.8929 16.5526 10.7729 16.5671 10.7573C16.5815 10.7418 16.9492 10.6731 17.3841 10.6047C18.2785 10.464 18.4193 10.4062 18.5892 10.1103C18.6811 9.95034 18.682 9.9357 18.682 8.71289C18.682 7.49008 18.6811 7.47544 18.5892 7.31546C18.4193 7.01956 18.2785 6.96182 17.3841 6.82109C16.9492 6.75268 16.5815 6.684 16.5671 6.66845C16.5526 6.65293 16.4996 6.5329 16.4492 6.40175C16.3988 6.2706 16.2882 6.02478 16.2034 5.85548L16.0492 5.54769L16.4952 4.97504C16.7406 4.6601 16.9667 4.3364 16.9977 4.25569C17.0624 4.08749 17.0416 3.818 16.9519 3.66154C16.9194 3.60497 16.4742 3.17639 15.9624 2.70913C14.9903 1.82162 14.9251 1.77738 14.5932 1.78126C14.378 1.7838 14.203 1.87037 13.5688 2.28821L12.9433 2.70025L12.7111 2.59325C12.5834 2.53437 12.3174 2.43139 12.1199 2.36441C11.9225 2.29738 11.747 2.23216 11.7302 2.21939C11.7133 2.20662 11.6386 1.86894 11.5642 1.469C11.4112 0.646457 11.3484 0.51696 11.0266 0.360756C10.8526 0.276271 10.8367 0.275391 9.50703 0.275391C8.17733 0.275391 8.16142 0.276271 7.98745 0.360756ZM9.98014 3.10096C10.5529 3.14755 10.9361 3.21923 11.4475 3.37544C12.9801 3.8435 14.2367 4.84705 14.9779 6.19488C15.9676 7.99486 15.8192 10.1535 14.589 11.8494C13.852 12.8655 12.7121 13.6641 11.4475 14.0503C10.9229 14.2106 10.5184 14.2847 9.95948 14.3231C7.5208 14.4904 5.20683 13.3056 4.08437 11.3149C3.30373 9.93039 3.17086 8.4021 3.70297 6.92858C4.46649 4.81425 6.55336 3.30005 8.97624 3.10232C9.48649 3.06068 9.48561 3.06068 9.98014 3.10096ZM8.99858 4.4364C8.59591 4.50702 7.97369 4.7984 7.68639 5.05094C7.40368 5.29944 7.22445 5.77642 7.17231 6.41914C7.15045 6.68829 7.12273 6.80976 7.06744 6.87854C6.85717 7.14007 6.98969 7.89786 7.28333 8.11328C7.33407 8.15051 7.41733 8.27176 7.46835 8.38273C7.69804 8.88245 8.11283 9.39534 8.50975 9.67051C8.8716 9.9214 9.13189 10.0087 9.52905 10.0123C9.82457 10.015 9.87559 10.0038 10.1673 9.8725C10.7037 9.63107 11.275 9.02057 11.5616 8.38273C11.6023 8.29193 11.6843 8.16812 11.7437 8.10759C11.8916 7.95685 11.9625 7.81613 12.0202 7.55879C12.0794 7.29458 12.0484 7.00521 11.9475 6.87949C11.895 6.8142 11.8648 6.68976 11.8447 6.45678C11.7863 5.77807 11.6125 5.30143 11.3344 5.05666C11.1312 4.87794 10.5575 4.57426 10.2672 4.49176C9.92808 4.39546 9.37084 4.37114 8.99858 4.4364ZM7.71192 10.221C7.29741 10.4813 6.77795 10.6645 6.11627 10.7839C5.50362 10.8945 5.09294 11.0624 5.02249 11.2313C4.96979 11.3576 5.59601 12.065 6.09648 12.4446C7.04362 13.1629 8.07098 13.5283 9.28763 13.5795C11.0977 13.6557 12.8485 12.8557 13.8768 11.4827C14.0422 11.2619 14.0329 11.2106 13.8005 11.0648C13.6019 10.9401 13.3494 10.8612 12.9007 10.7835C12.2563 10.6719 11.7578 10.4977 11.3179 10.2306C11.0895 10.0918 11.0628 10.0844 11.0628 10.1601C11.0628 10.2268 10.8528 10.3745 10.6464 10.4528C10.4198 10.5388 9.86498 10.6205 9.50703 10.6205C9.14909 10.6205 8.59424 10.5388 8.3677 10.4528C8.1613 10.3745 7.95127 10.2268 7.95127 10.1601C7.95127 10.0844 7.91465 10.0937 7.71192 10.221Z" fill="url(#paint0_linear_6100_20)"/>
<defs>
<linearGradient id="paint0_linear_6100_20" x1="9.50703" y1="0.275391" x2="9.50703" y2="17.1504" gradientUnits="userSpaceOnUse">
<stop stop-color="#FD9149"/>
<stop offset="1" stop-color="#FFD588"/>
</linearGradient>
</defs>
</svg>
