<svg width="16" height="13" viewBox="0 0 16 13" fill="none" xmlns="http://www.w3.org/2000/svg">
<path fill-rule="evenodd" clip-rule="evenodd" d="M7.75958 0.0539313C7.517 0.114975 7.36488 0.179426 7.12661 0.322097C7.04084 0.373456 6.68996 0.57248 6.34687 0.76435C5.37806 1.30618 3.76832 2.20515 2.43898 2.94673C1.31969 3.57113 1.21763 3.63189 1.08994 3.74977C0.873662 3.94946 0.748628 4.16857 0.694707 4.44253C0.655885 4.63971 0.656729 11.2836 0.695606 11.4705C0.795651 11.9514 1.13419 12.3147 1.6361 12.4798L1.79684 12.5327H8.00726H14.2177L14.3784 12.4798C14.8813 12.3144 15.2187 11.9523 15.3189 11.4705C15.3423 11.3583 15.346 10.8716 15.346 7.96634C15.346 5.57102 15.3401 4.55721 15.3256 4.47107C15.2797 4.19864 15.1419 3.95031 14.9258 3.7506C14.8 3.63435 14.7096 3.57904 13.9975 3.18248C11.74 1.92534 9.06305 0.428071 8.93378 0.35029C8.46201 0.0663999 8.08656 -0.028371 7.75958 0.0539313ZM8.19073 0.780564C8.23614 0.796154 8.59528 0.989863 8.98882 1.21104C9.38236 1.43222 10.1543 1.86516 10.7043 2.17312C11.2542 2.48109 11.9477 2.86976 12.2454 3.03682C12.5431 3.20388 13.134 3.53526 13.5586 3.77324C14.3414 4.21202 14.4152 4.2622 14.3541 4.31396C14.3237 4.33966 12.3842 5.45224 12.3467 5.46548C12.3263 5.47269 12.3207 5.40476 12.3156 5.08915C12.3094 4.70987 12.3086 4.70275 12.2604 4.61862C12.1989 4.51101 12.0935 4.42277 11.9776 4.38163C11.8904 4.35071 11.7692 4.34973 7.99809 4.34973H4.10855L4.02505 4.38526C3.90299 4.43719 3.8141 4.51644 3.7561 4.62505C3.70545 4.71992 3.70486 4.72481 3.69879 5.09759C3.69426 5.37584 3.68707 5.47227 3.67123 5.46668C3.63324 5.45329 1.70652 4.34646 1.66434 4.31381L1.62355 4.28224L1.66434 4.23766C1.68676 4.21317 2.21698 3.90646 2.84261 3.55615C5.30726 2.17604 6.44765 1.53698 7.07157 1.18625C7.83025 0.759777 7.77659 0.787515 7.90079 0.757618C8.00618 0.732259 8.06318 0.736764 8.19073 0.780564ZM1.71235 4.92969C2.24227 5.23412 5.43244 7.05767 5.90654 7.32716C6.18909 7.48776 6.43103 7.62827 6.44416 7.63943C6.46328 7.65561 6.28642 7.7951 5.56351 8.334C4.56806 9.07609 2.54499 10.5851 1.89775 11.0684C1.52054 11.35 1.48392 11.3733 1.47302 11.3388C1.45746 11.2896 1.45374 4.79684 1.46926 4.79684C1.47575 4.79684 1.58515 4.85662 1.71235 4.92969ZM14.5527 8.08269C14.5494 10.3347 14.5419 11.3779 14.5287 11.3983C14.5119 11.4244 14.4291 11.368 13.8591 10.9424C12.936 10.2533 11.0987 8.88339 10.2329 8.23876C9.67925 7.82647 9.50182 7.68567 9.51787 7.67131C9.52961 7.66082 9.96854 7.40715 10.4933 7.10758C11.5896 6.48169 12.2572 6.09993 13.5847 5.33952C14.1044 5.04186 14.5359 4.79799 14.5436 4.79758C14.5513 4.79718 14.5554 6.27547 14.5527 8.08269ZM11.7824 5.31342L11.7775 5.79625L10.4474 6.56265C9.71581 6.98418 9.1038 7.33611 9.08736 7.34474C9.0638 7.35709 8.95902 7.28692 8.592 7.01296C8.33598 6.82189 8.09823 6.65441 8.06366 6.64081C7.9893 6.61157 7.87331 6.62276 7.80394 6.66587C7.7782 6.68186 7.56554 6.83771 7.33134 7.01219L6.90555 7.32943L6.75465 7.24487C6.67163 7.19835 6.07121 6.85418 5.42035 6.48002L4.23698 5.79974L4.23211 5.31517L4.22723 4.83059H8.00726H11.7873L11.7824 5.31342ZM9.33385 8.19089C10.0825 8.74919 11.4692 9.7832 12.4153 10.4887C13.6278 11.3929 14.1298 11.7767 14.1161 11.7893C14.1024 11.8018 12.2779 11.8085 8.03687 11.8115C1.81374 11.8159 1.84616 11.8162 1.83781 11.7562C1.83511 11.7368 1.70487 11.8347 5.02373 9.3604C5.65827 8.88732 6.5747 8.20284 7.06023 7.83931C7.54578 7.47578 7.94971 7.17779 7.95784 7.17708C7.96596 7.17639 8.58517 7.63259 9.33385 8.19089Z" fill="#FD9149"/>
</svg>
