<svg width="45" height="38" viewBox="0 0 45 38" fill="none" xmlns="http://www.w3.org/2000/svg">
<path fill-rule="evenodd" clip-rule="evenodd" d="M33.6975 0.378278C33.5448 0.586415 33.1887 1.32885 32.9062 2.02841L32.3926 3.3001L33.174 5.93846C33.6038 7.38954 33.9553 8.6049 33.9553 8.63937C33.9553 8.67383 33.1043 8.6656 32.064 8.62121C26.4658 8.3818 21.5067 11.0523 19.0002 15.6563C16.4006 20.4314 17.2349 26.3219 21.0714 30.2819C22.0537 31.2957 24.3116 32.9522 24.7112 32.9522C24.9413 32.9522 26.9179 31.3093 26.9179 31.1182C26.9179 31.0489 26.5022 30.809 25.9943 30.5852C25.4251 30.3344 24.5611 29.6942 23.7435 28.9173C21.6302 26.9094 20.7602 24.9482 20.7602 22.1923C20.7602 19.6294 21.6012 17.5862 23.4226 15.7241C25.2814 13.8238 27.7689 12.7626 30.4366 12.7318C33.9558 12.6913 36.9569 14.1789 38.87 16.9122C41.3415 20.4435 41.1297 24.8729 38.3286 28.2347C37.449 29.2907 35.5739 30.5837 34.1815 31.0946C33.2178 31.4484 33.109 31.5492 32.1393 32.9912L31.115 34.5143L32.2352 34.4047C33.8969 34.2419 35.7911 33.6905 37.3812 32.9065C39.3668 31.9275 41.8556 29.5492 42.8801 27.6518C45.1113 23.5193 45.0004 18.8431 42.5792 14.9485C41.7631 13.6358 40.1381 11.8959 39.0637 11.1844C38.6731 10.9258 38.354 10.6678 38.3543 10.611C38.3547 10.5541 39.582 9.91728 41.0818 9.19552C44.0805 7.75252 44.0108 7.81876 44.7012 5.75605C45.0578 4.69082 45.0773 4.50487 44.8546 4.3001C44.5652 4.03413 34.5839 0 34.2148 0C34.083 0 33.8502 0.170141 33.6975 0.378278ZM4.00021 10.3262C1.79998 12.4918 0 14.3769 0 14.5153C0 14.8912 1.9117 16.9329 2.44232 17.1237C2.69566 17.2149 4.1633 17.3714 5.70361 17.4716C7.24409 17.5719 8.52876 17.6772 8.55849 17.7056C8.58822 17.734 8.25641 18.4336 7.82097 19.2602C6.76625 21.2631 6.33328 22.9702 6.33486 25.1194C6.3375 28.8177 7.74831 31.9889 10.4964 34.4741C11.7786 35.6336 12.2816 35.9709 13.8478 36.7221C16.4769 37.983 20.0224 38.344 23.0236 37.6565C27.1283 36.716 30.6977 33.7438 32.3138 29.9201C34.2224 25.405 33.2202 20.1224 29.7607 16.4593L28.8206 15.4642L27.8036 15.9823C27.2441 16.2671 26.5434 16.7407 26.2464 17.0346L25.7063 17.5689L26.6984 18.3255C27.8739 19.2221 29.1588 20.9588 29.72 22.4102C30.2193 23.7007 30.3984 26.2122 30.0921 27.6225C29.5261 30.2276 27.3838 32.8926 24.9383 34.0334C20.7817 35.9727 16.5612 35.334 13.368 32.2826C10.2592 29.3117 9.54442 25.2547 11.4498 21.3944C11.8748 20.5329 12.3822 19.9089 13.5513 18.809C14.6641 17.7623 15.1275 17.2014 15.2183 16.7915C15.2874 16.4793 15.6126 15.5326 15.9409 14.6876C16.6854 12.7713 16.697 12.5666 16.054 12.7133C15.0781 12.9363 13.2649 13.6436 12.6071 14.058C12.2353 14.2922 11.9063 14.4593 11.8759 14.4292C11.8455 14.3991 11.6887 13.2776 11.5274 11.9368C11.3662 10.596 11.1551 9.2542 11.0583 8.95494C10.8659 8.36029 8.72281 6.3887 8.2689 6.3887C8.12112 6.3887 6.20027 8.16055 4.00021 10.3262Z" fill="url(#paint0_linear_6100_28)"/>
<defs>
<linearGradient id="paint0_linear_6100_28" x1="22.1642" y1="11.2593" x2="22.1642" y2="27.0926" gradientUnits="userSpaceOnUse">
<stop stop-color="#FD9149"/>
<stop offset="1" stop-color="#FD9149" stop-opacity="0"/>
</linearGradient>
</defs>
</svg>
