<svg width="14" height="17" viewBox="0 0 14 17" fill="none" xmlns="http://www.w3.org/2000/svg">
<path fill-rule="evenodd" clip-rule="evenodd" d="M6.54253 0.960152C5.68846 1.03572 4.884 1.30057 4.14178 1.75054C3.60734 2.07456 3.1387 2.49934 2.84161 2.92905C2.51249 3.40511 2.31728 3.92166 2.22905 4.54994C2.20354 4.73161 2.19931 4.9714 2.19757 6.33973C2.19645 7.20873 2.1905 7.92441 2.18431 7.93009C2.17813 7.93578 2.06215 7.95893 1.92659 7.98152C1.51001 8.05093 1.26797 8.14431 1.00058 8.33876C0.745327 8.52437 0.554703 8.78527 0.450228 9.09197L0.400391 9.23828V12.4501V15.6619L0.440595 15.8006C0.559164 16.2098 0.897631 16.5777 1.3424 16.7808C1.54142 16.8717 1.72742 16.9211 1.96449 16.9461C2.07173 16.9574 3.76167 16.9612 7.09224 16.9576L12.06 16.9523L12.2201 16.9173C12.5149 16.8529 12.7575 16.7518 12.9564 16.6105C13.0786 16.5237 13.2513 16.3582 13.3292 16.2532C13.412 16.1416 13.5165 15.9297 13.5644 15.7763L13.6052 15.6456L13.611 12.6054C13.6149 10.5339 13.6107 9.50268 13.5977 9.36904C13.546 8.83653 13.2197 8.39559 12.6999 8.15561C12.478 8.05317 12.3309 8.01646 11.8609 7.94616L11.804 7.93765L11.7975 6.26696C11.7918 4.80075 11.7874 4.57548 11.7612 4.42655C11.6109 3.57108 11.2247 2.88072 10.5555 2.27136C9.78815 1.57269 8.78779 1.12511 7.67795 0.983918C7.43545 0.953075 6.7781 0.939312 6.54253 0.960152ZM7.5518 1.98189C8.27746 2.07945 8.91972 2.34344 9.47951 2.77423C9.98238 3.16122 10.3409 3.67752 10.5032 4.24853C10.6056 4.60889 10.6026 4.54623 10.6026 6.3125V7.94701L6.99892 7.95113L3.39528 7.95527L3.39564 6.36565C3.39599 4.68225 3.39896 4.61089 3.48177 4.29165C3.5661 3.96651 3.74194 3.61308 3.9602 3.32997C4.1019 3.14618 4.44881 2.81905 4.64912 2.68031C5.18071 2.31212 5.68684 2.10668 6.33155 1.9974C6.68674 1.93718 7.17339 1.931 7.5518 1.98189ZM12.0384 8.99856C12.1842 9.05268 12.2828 9.12747 12.3444 9.23069L12.3977 9.32L12.4023 12.4286C12.4069 15.5118 12.4067 15.5379 12.3711 15.6254C12.3201 15.7506 12.2307 15.839 12.0907 15.9023L11.9719 15.9561L7.1015 15.9608C3.64447 15.964 2.19757 15.9602 2.11556 15.9475C1.89743 15.9139 1.72671 15.8165 1.65193 15.6831C1.63327 15.6498 1.61066 15.5726 1.60169 15.5115C1.5923 15.4474 1.58553 14.1407 1.58571 12.4266C1.58608 9.16034 1.57975 9.34926 1.69408 9.19281C1.76265 9.09898 1.90537 9.00426 2.02177 8.97533C2.09031 8.9583 3.05374 8.95484 7.02114 8.95732L11.9356 8.96041L12.0384 8.99856ZM6.86729 10.4721C6.69327 10.506 6.5349 10.6187 6.45735 10.7639L6.40794 10.8564L6.40336 11.4449C6.40083 11.7685 6.39477 12.0495 6.38992 12.0692C6.38493 12.0895 6.32188 12.1461 6.24549 12.199C5.81641 12.496 5.68753 12.9541 5.91504 13.3736C5.96015 13.4568 6.01891 13.5262 6.1303 13.6281C6.37563 13.8523 6.57964 13.9359 6.91553 13.9496C7.24351 13.9631 7.47307 13.9095 7.71826 13.7622C8.01928 13.5814 8.19327 13.2835 8.19395 12.948C8.19457 12.6428 8.04825 12.392 7.75173 12.1898C7.68217 12.1424 7.6214 12.0878 7.61671 12.0685C7.61201 12.0491 7.60569 11.7722 7.60265 11.453C7.5966 10.8198 7.59648 10.819 7.48786 10.6775C7.3635 10.5156 7.09686 10.4274 6.86729 10.4721Z" fill="#FD9149"/>
</svg>
