<svg width="14" height="17" viewBox="0 0 14 17" fill="none" xmlns="http://www.w3.org/2000/svg">
<path fill-rule="evenodd" clip-rule="evenodd" d="M6.54253 0.959908C5.68846 1.03547 4.884 1.30033 4.14178 1.75029C3.60734 2.07432 3.1387 2.4991 2.84161 2.92881C2.51249 3.40486 2.31728 3.92142 2.22905 4.54969C2.20354 4.73137 2.19931 4.97115 2.19757 6.33949C2.19645 7.20849 2.1905 7.92416 2.18431 7.92985C2.17813 7.93554 2.06215 7.95868 1.92659 7.98127C1.51001 8.05069 1.26797 8.14407 1.00058 8.33851C0.745327 8.52413 0.554703 8.78503 0.450228 9.09173L0.400391 9.23803V12.4499V15.6617L0.440595 15.8004C0.559164 16.2095 0.897631 16.5774 1.3424 16.7806C1.54142 16.8715 1.72742 16.9209 1.96449 16.9459C2.07173 16.9571 3.76167 16.9609 7.09224 16.9574L12.06 16.9521L12.2201 16.9171C12.5149 16.8526 12.7575 16.7516 12.9564 16.6103C13.0786 16.5234 13.2513 16.3579 13.3292 16.2529C13.412 16.1414 13.5165 15.9294 13.5644 15.7761L13.6052 15.6453L13.611 12.6051C13.6149 10.5337 13.6107 9.50243 13.5977 9.36879C13.546 8.83629 13.2197 8.39534 12.6999 8.15536C12.478 8.05293 12.3309 8.01622 11.8609 7.94592L11.804 7.9374L11.7975 6.26672C11.7918 4.80051 11.7874 4.57524 11.7612 4.4263C11.6109 3.57083 11.2247 2.88048 10.5555 2.27111C9.78815 1.57244 8.78779 1.12486 7.67795 0.983674C7.43545 0.952831 6.7781 0.939068 6.54253 0.959908ZM7.5518 1.98164C8.27746 2.07921 8.91972 2.3432 9.47951 2.77399C9.98238 3.16098 10.3409 3.67727 10.5032 4.24829C10.6056 4.60865 10.6026 4.54598 10.6026 6.31225V7.94677L6.99892 7.95089L3.39528 7.95502L3.39564 6.36541C3.39599 4.68201 3.39896 4.61064 3.48177 4.29141C3.5661 3.96627 3.74194 3.61284 3.9602 3.32972C4.1019 3.14594 4.44881 2.81881 4.64912 2.68007C5.18071 2.31188 5.68684 2.10644 6.33155 1.99715C6.68674 1.93694 7.17339 1.93076 7.5518 1.98164ZM12.0384 8.99832C12.1842 9.05243 12.2828 9.12723 12.3444 9.23045L12.3977 9.31976L12.4023 12.4284C12.4069 15.5116 12.4067 15.5377 12.3711 15.6251C12.3201 15.7504 12.2307 15.8387 12.0907 15.9021L11.9719 15.9559L7.1015 15.9605C3.64447 15.9638 2.19757 15.96 2.11556 15.9473C1.89743 15.9136 1.72671 15.8162 1.65193 15.6828C1.63327 15.6495 1.61066 15.5723 1.60169 15.5112C1.5923 15.4472 1.58553 14.1405 1.58571 12.4263C1.58608 9.1601 1.57975 9.34902 1.69408 9.19256C1.76265 9.09874 1.90537 9.00402 2.02177 8.97509C2.09031 8.95806 3.05374 8.95459 7.02114 8.95708L11.9356 8.96017L12.0384 8.99832ZM6.86729 10.4718C6.69327 10.5057 6.5349 10.6185 6.45735 10.7637L6.40794 10.8562L6.40336 11.4446C6.40083 11.7683 6.39477 12.0492 6.38992 12.069C6.38493 12.0892 6.32188 12.1459 6.24549 12.1988C5.81641 12.4957 5.68753 12.9538 5.91504 13.3734C5.96015 13.4565 6.01891 13.526 6.1303 13.6278C6.37563 13.8521 6.57964 13.9356 6.91553 13.9494C7.24351 13.9629 7.47307 13.9093 7.71826 13.762C8.01928 13.5811 8.19327 13.2833 8.19395 12.9477C8.19457 12.6426 8.04825 12.3917 7.75173 12.1896C7.68217 12.1422 7.6214 12.0875 7.61671 12.0682C7.61201 12.0489 7.60569 11.7719 7.60265 11.4528C7.5966 10.8195 7.59648 10.8187 7.48786 10.6773C7.3635 10.5154 7.09686 10.4271 6.86729 10.4718Z" fill="#FFD588"/>
</svg>
