<svg width="10" height="11" viewBox="0 0 10 11" fill="none" xmlns="http://www.w3.org/2000/svg">
<path fill-rule="evenodd" clip-rule="evenodd" d="M4.79886 0.00863597C4.17691 0.0482143 3.5942 0.269441 3.07557 0.662881C2.94397 0.762707 2.62883 1.07581 2.52915 1.20576C2.08146 1.7894 1.86255 2.42586 1.86251 3.14401C1.86248 3.65704 1.96099 4.0878 2.18008 4.53259C2.31699 4.81055 2.46317 5.02701 2.67377 5.26368C2.85335 5.46549 3.1338 5.6978 3.36664 5.83764C3.42704 5.87391 3.47645 5.90516 3.47645 5.90708C3.47645 5.90899 3.44482 5.92086 3.40617 5.93346C3.26804 5.97846 2.98949 6.09293 2.82567 6.17204C2.01686 6.5626 1.31439 7.16885 0.79805 7.9219C0.519451 8.32823 0.293164 8.81359 0.150334 9.31122C0.0660128 9.60501 -0.00721906 9.98917 0.000569568 10.0969C0.0119401 10.254 0.148314 10.3819 0.30442 10.3819C0.380067 10.3819 0.430975 10.3619 0.488848 10.3096C0.560195 10.2452 0.577251 10.2037 0.612414 10.0096C0.744946 9.27784 1.02638 8.62614 1.46719 8.03028C1.96543 7.35677 2.68402 6.80279 3.45563 6.49734C4.94445 5.90797 6.59003 6.20594 7.84454 7.29205C8.65309 7.99206 9.20388 8.96511 9.38531 10.0141C9.423 10.232 9.46014 10.2985 9.57583 10.3551C9.74707 10.4388 9.95874 10.3237 9.99511 10.127C10.0037 10.0806 10.0015 10.0422 9.9842 9.93064C9.87366 9.21951 9.60922 8.5334 9.22406 7.95834C8.59839 7.02421 7.69754 6.3239 6.63997 5.94947L6.5183 5.9064L6.62936 5.83904C7.03917 5.59052 7.43331 5.19566 7.6842 4.78224C8.3154 3.7422 8.28828 2.41938 7.61504 1.40881C7.44377 1.15173 7.17201 0.856191 6.94328 0.678271C6.41698 0.268878 5.84272 0.0509424 5.17866 0.00858391C4.99911 -0.00286996 4.97951 -0.00286996 4.79886 0.00863597ZM5.34031 0.555392C5.79414 0.62272 6.23174 0.817238 6.60638 1.11816C7.15755 1.56089 7.5305 2.23381 7.6008 2.91243C7.61617 3.06085 7.60753 3.38198 7.58453 3.51722C7.49785 4.0268 7.26771 4.4777 6.9022 4.85404C6.42991 5.34033 5.82675 5.61953 5.15642 5.66214C4.41097 5.70953 3.67221 5.42736 3.13059 4.88836C2.92788 4.68663 2.76377 4.45715 2.63789 4.19939C2.51713 3.95214 2.44369 3.71207 2.40892 3.45096C2.38465 3.26858 2.39165 2.92056 2.42308 2.74683C2.56294 1.97396 3.03496 1.30149 3.72772 0.888158C4.05039 0.695639 4.40304 0.579716 4.78844 0.539471C4.90847 0.526944 5.20652 0.535535 5.34031 0.555392Z" fill="url(#paint0_linear_302_148)"/>
<defs>
<linearGradient id="paint0_linear_302_148" x1="5" y1="0" x2="5" y2="10.3827" gradientUnits="userSpaceOnUse">
<stop stop-color="#FD9149"/>
<stop offset="1" stop-color="#FFD588"/>
</linearGradient>
</defs>
</svg>
