<svg width="15" height="16" viewBox="0 0 15 16" fill="none" xmlns="http://www.w3.org/2000/svg">
<path fill-rule="evenodd" clip-rule="evenodd" d="M7.98283 1.38434L6.96294 2.40497C6.76394 2.60412 6.43975 2.59955 6.24644 2.39487C5.57989 1.68916 4.74995 1.27666 3.87558 1.21655C2.85284 1.1463 1.7473 1.5612 1.03579 2.28233C0.540759 2.78396 0.298583 3.21454 0.121054 3.90851C-0.175629 5.06848 0.0748868 6.16508 0.852118 7.10957C1.06755 7.3713 1.18622 7.69926 1.18816 8.03825L1.20424 10.8456C1.22272 14.068 1.22779 14.1846 1.36035 14.4103C1.54922 14.7318 1.86672 14.9278 2.27742 14.9767C2.46823 14.9994 5.22123 15.0088 8.3952 14.9978L13.8686 14.9786C14.0631 14.9779 14.2535 14.9232 14.4186 14.8205C14.5756 14.723 14.7334 14.5407 14.8356 14.3391C14.9437 14.1258 15 13.89 15 13.6508V9.89713C15 5.89889 14.9961 5.77153 14.8649 5.50053C14.687 5.13293 14.5383 5.00711 14.1162 4.86674C13.8913 4.79193 13.7038 4.63335 13.5928 4.42395L12.8867 3.09225C12.4031 2.18045 11.9619 1.40555 11.9062 1.37026C11.8365 1.32616 11.7301 1.34184 11.5655 1.4203C11.4339 1.48308 11.2852 1.53445 11.2351 1.53445C11.185 1.53445 10.7959 1.1892 10.3704 0.767224C9.94493 0.345251 9.54484 0 9.48146 0C9.41801 0 8.74365 0.622919 7.98283 1.38434ZM10.0539 1.35845C10.3302 1.63617 10.2599 2.10181 9.91401 2.28567L8.88956 2.83019C7.94387 3.33282 7.14055 3.74979 7.1044 3.75673C7.06817 3.76374 7.00859 3.6696 6.97197 3.54764C6.93092 3.41102 6.96819 3.26288 7.06902 3.16195L8.16663 2.06323C8.8604 1.36879 9.44396 0.800582 9.46344 0.800582C9.48299 0.800582 9.74865 1.05163 10.0539 1.35845ZM4.3616 1.90418C5.87597 2.29607 6.8743 3.93986 6.52311 5.46317C6.27633 6.53381 5.32197 7.48811 4.25119 7.73495C2.71794 8.08848 1.08689 7.09776 0.692402 5.57338C0.115516 3.3441 2.13232 1.3273 4.3616 1.90418ZM12.0834 2.8408C12.2961 3.24149 12.6167 3.847 12.796 4.18638C12.9439 4.46653 12.7408 4.80349 12.424 4.80349H10.1581H7.35638C7.26688 4.80349 7.19433 4.73094 7.19433 4.64144C7.19433 4.55237 7.23856 4.43522 7.2926 4.38118C7.34664 4.32708 7.90958 4.01178 8.54351 3.68041C9.17744 3.34903 10.1165 2.85201 10.6302 2.57587C11.1439 2.2998 11.594 2.08251 11.6304 2.09312C11.6669 2.10373 11.8707 2.44017 12.0834 2.8408ZM2.28976 3.33896C2.21738 3.56686 2.36962 3.66927 2.78259 3.67033C3.17647 3.67133 3.45995 3.77207 3.51192 3.92952C3.5364 4.00358 3.48323 4.01485 3.25433 3.98416C2.78979 3.92185 2.33426 3.99931 2.28683 4.14861C2.20657 4.40153 2.36535 4.46991 3.03277 4.46991C3.42352 4.46991 3.65842 4.49613 3.65842 4.53963C3.65842 4.70882 3.33059 4.92765 3.01636 4.96828C2.58745 5.02378 2.49525 5.08029 2.46883 5.30399C2.44995 5.46397 2.54575 5.59026 3.13478 6.18129C3.81874 6.86759 4.05958 7.00609 4.15165 6.76612C4.22517 6.57444 4.19635 6.52708 3.68811 6.00483C3.19662 5.4998 3.18842 5.48585 3.35627 5.44376C3.60799 5.38058 4.03963 4.96341 4.1269 4.69901C4.20042 4.47625 4.21229 4.46991 4.55714 4.46991C4.93355 4.46991 5.03703 4.38105 4.95637 4.12693C4.92388 4.02452 4.84849 4.00291 4.52359 4.00291C4.20289 4.00291 4.11736 3.97903 4.06105 3.87388C3.95457 3.67487 3.96418 3.66933 4.41751 3.66933C4.88218 3.66933 5.03563 3.576 4.96037 3.33896C4.91867 3.20746 4.8685 3.20233 3.62507 3.20233C2.38163 3.20233 2.33146 3.20746 2.28976 3.33896ZM14.2046 5.59894C14.3294 5.7238 14.3996 5.89315 14.3996 6.06973V7.10003C14.3996 7.82136 13.8148 8.40611 13.0935 8.40611H12.6945C10.6767 8.40611 10.5021 8.43666 10.0583 8.86724C9.31273 9.59064 9.4888 10.7285 10.4237 11.2288C10.6829 11.3675 10.7917 11.376 12.5482 11.3955L13.0974 11.4016C13.8189 11.4096 14.3996 11.9967 14.3996 12.7182V13.7447C14.3996 13.9213 14.3294 14.0906 14.2046 14.2155C14.0797 14.3403 13.9103 14.4105 13.7338 14.4105H8.09498H2.4562C2.27962 14.4105 2.11027 14.3403 1.98541 14.2155C1.86055 14.0906 1.7904 13.9213 1.7904 13.7447V10.9784V8.22173C1.7904 8.09119 1.92831 8.00673 2.04458 8.06606C2.42946 8.2624 3.06139 8.40624 3.5346 8.40511C5.11789 8.40144 6.53251 7.37196 7.01126 5.875C7.10045 5.59609 7.35964 5.40678 7.65247 5.40665L10.5853 5.4054L13.7338 5.40405C13.9103 5.40397 14.0797 5.47408 14.2046 5.59894ZM14.3996 9.9072C14.3996 10.4046 13.9963 10.8079 13.4989 10.8079H12.6472C11.0775 10.8079 10.8713 10.7952 10.6677 10.686C10.2279 10.4501 10.0687 9.85069 10.3315 9.41971C10.565 9.03677 10.7043 9.01208 12.6483 9.00915L13.4989 9.00788C13.9961 9.00714 14.3996 9.41 14.3996 9.9072Z" fill="#FD9149"/>
</svg>
