<svg width="15" height="9" viewBox="0 0 15 9" fill="none" xmlns="http://www.w3.org/2000/svg">
<path fill-rule="evenodd" clip-rule="evenodd" d="M8.56215 0.577789C8.34467 0.659504 8.16465 0.924986 8.2188 1.08412C8.25065 1.17758 8.96511 1.67506 10.3504 2.56818L12.4341 3.91158L6.40987 3.93746L0.385569 3.96333L0.191992 4.10855C-0.0639974 4.30054 -0.0639974 4.55764 0.191992 4.74964L0.385569 4.89485L6.40987 4.92073L12.4341 4.9466L10.3504 6.29C8.96511 7.18312 8.25065 7.6806 8.2188 7.77406C8.16281 7.93863 8.35029 8.20448 8.5778 8.28298C8.66267 8.31233 8.85128 8.33629 8.99688 8.33629C9.23795 8.33629 9.51792 8.17094 12.1308 6.48536C14.939 4.67382 15 4.63014 15 4.42909C15 4.22804 14.939 4.18436 12.1308 2.37282C9.44612 0.640977 9.24364 0.522001 8.98204 0.52345C8.82833 0.52433 8.63933 0.548757 8.56215 0.577789Z" fill="#FD9149"/>
</svg>
