<svg width="15" height="15" viewBox="0 0 15 15" fill="none" xmlns="http://www.w3.org/2000/svg">
<path fill-rule="evenodd" clip-rule="evenodd" d="M3.21442 5.36053V10.7211H1.60717H0L0.0526928 11.3864C0.126219 12.3136 0.284526 13.0225 0.539398 13.5652C0.815712 14.1538 1.08572 14.4719 1.5306 14.7335L1.88379 14.941H7.13026C11.2062 14.941 12.4888 14.9184 12.879 14.8395C13.5307 14.7076 14.213 14.3274 14.5228 13.9235C15.0127 13.2844 15 13.4857 15 6.41119V0H9.10719H3.21442V5.36053ZM13.9178 7.06525L13.8974 13.0659L13.7074 13.2695C13.6028 13.3815 13.3918 13.5375 13.2384 13.6161C12.9345 13.772 11.9334 13.955 11.8082 13.8776C11.7593 13.8474 11.7304 13.2533 11.7304 12.276V10.7225L8.02368 10.7028L4.31693 10.683L4.29739 5.87377L4.27778 1.0645H9.10795H13.9381L13.9178 7.06525ZM5.34342 3.72507V4.25801H9.11069H12.8779L12.8555 3.74476L12.8329 3.23152L9.08818 3.21183L5.34342 3.19206V3.72507ZM5.34342 5.85407V6.38701H9.11069H12.8779L12.8555 5.87377L12.8329 5.36053L9.08818 5.34083L5.34342 5.32106V5.85407ZM5.39482 7.50147C5.36653 7.52975 5.34342 7.76957 5.34342 8.03448V8.51601H9.11069H12.8779L12.8555 8.00277L12.8329 7.48953L9.13958 7.46984C7.10821 7.45896 5.4231 7.47318 5.39482 7.50147ZM10.7039 12.812V13.8765L6.43354 13.8962L2.16307 13.9159L1.92508 13.7155C1.79414 13.6054 1.62276 13.3892 1.54414 13.2351C1.38697 12.9271 1.16145 12.122 1.16145 11.869V11.7084L5.9327 11.7279L10.7039 11.7475V12.812Z" fill="url(#paint0_linear_496_2954)"/>
<defs>
<linearGradient id="paint0_linear_496_2954" x1="7.5" y1="0" x2="7.5" y2="14.941" gradientUnits="userSpaceOnUse">
<stop stop-color="#FD9149"/>
<stop offset="1" stop-color="#FFD588"/>
</linearGradient>
</defs>
</svg>
