<svg width="7" height="9" viewBox="0 0 7 9" fill="none" xmlns="http://www.w3.org/2000/svg">
<path fill-rule="evenodd" clip-rule="evenodd" d="M2.52879 0.0147647C2.26011 0.121043 2.14908 0.339081 2.148 0.76253L2.14724 1.06603H1.30478C0.49985 1.06603 0.455452 1.0695 0.308347 1.14408C0.0815688 1.25903 0.0186827 1.39257 0.00258832 1.79358C-0.0190906 2.33382 0.0936744 2.57565 0.406579 2.6599L0.549972 2.69851L0.559476 5.27285L0.569014 7.84719L0.661696 8.02281C0.772484 8.23273 0.986602 8.4345 1.20648 8.53616C1.36475 8.60932 1.39423 8.61029 3.5 8.61029C5.60577 8.61029 5.63525 8.60932 5.79352 8.53616C6.0134 8.4345 6.22752 8.23273 6.3383 8.02281L6.43098 7.84719L6.44052 5.27285L6.45003 2.69851L6.59342 2.6599C6.90632 2.57565 7.01909 2.33382 6.99741 1.79358C6.98132 1.39257 6.91843 1.25903 6.69165 1.14408C6.54455 1.0695 6.50015 1.06603 5.69522 1.06603H4.85276L4.852 0.76253C4.8511 0.403805 4.7828 0.217957 4.60535 0.0913866C4.48949 0.00876401 4.48086 0.0080356 3.53469 0.00113304C3.01006 -0.00268244 2.5574 0.00345702 2.52879 0.0147647ZM4.11991 0.549383C4.25966 0.598118 4.29778 0.671167 4.29778 0.890314V1.06603H3.5H2.70222V0.895448C2.70222 0.669849 2.72657 0.616432 2.85484 0.560587C2.98994 0.501759 3.95869 0.493192 4.11991 0.549383ZM6.37896 1.69039C6.47178 1.78321 6.4689 1.95886 6.37292 2.06104L6.29748 2.14131H3.50486H0.712234L0.631935 2.0659C0.529749 1.96985 0.524442 1.78699 0.621044 1.69039C0.689271 1.62216 0.736653 1.62101 3.5 1.62101C6.26335 1.62101 6.31073 1.62216 6.37896 1.69039ZM5.92002 5.20851C5.9108 7.69592 5.90996 7.7217 5.83813 7.81864C5.7982 7.87251 5.71395 7.95167 5.65089 7.99461L5.53622 8.07265H3.5H1.46378L1.34911 7.99461C1.28605 7.95167 1.20179 7.87251 1.16187 7.81864C1.09004 7.7217 1.0892 7.69592 1.07998 5.20851L1.07065 2.69629H3.5H5.92935L5.92002 5.20851ZM1.97984 3.85182C1.9045 3.93202 1.90443 3.93389 1.90443 5.65169C1.90443 7.27112 1.90815 7.37584 1.9684 7.45024C2.06097 7.56457 2.23815 7.55728 2.34349 7.43481L2.42473 7.34036V5.64111V3.94183L2.33957 3.85671C2.23035 3.74745 2.07984 3.74541 1.97984 3.85182ZM3.32744 3.84007C3.28977 3.87773 3.25019 3.94405 3.23947 3.98748C3.22872 4.03087 3.22442 4.81128 3.2299 5.72172C3.23982 7.37334 3.24003 7.37723 3.31595 7.45316C3.41571 7.55284 3.58429 7.55284 3.68404 7.45316C3.75997 7.37723 3.76018 7.37334 3.7701 5.72172C3.77558 4.81128 3.77128 4.03087 3.76053 3.98748C3.73073 3.86691 3.61571 3.77156 3.5 3.77156C3.44263 3.77156 3.36521 3.80229 3.32744 3.84007ZM4.66043 3.85671L4.57527 3.94183V5.64111V7.34036L4.65651 7.43481C4.76185 7.55728 4.93903 7.56457 5.0316 7.45024C5.09185 7.37584 5.09557 7.27098 5.09557 5.64684V3.92241L5.0153 3.84697C4.90878 3.74693 4.76629 3.75085 4.66043 3.85671Z" fill="black"/>
</svg>
