<svg width="14" height="15" viewBox="0 0 14 15" fill="none" xmlns="http://www.w3.org/2000/svg">
<path d="M6.83555 0.972578C6.70125 1.01643 6.57244 1.09317 6.32302 1.28229C5.99687 1.5317 5.96398 1.53444 5.53367 1.38644C4.8841 1.16443 4.68403 1.23295 4.28935 1.82223C4.19616 1.95927 4.09201 2.09082 4.05364 2.11549C3.99883 2.15112 3.90016 2.15934 3.55482 2.16483C3.18207 2.16757 3.10532 2.17579 2.99843 2.22512C2.77917 2.32653 2.63939 2.53209 2.54346 2.9021C2.51879 2.99529 2.47494 3.13233 2.44479 3.20359C2.37901 3.35707 2.29405 3.40915 1.96789 3.49959C1.55403 3.61197 1.36492 3.7353 1.26077 3.96279C1.21143 4.06968 1.20321 4.14642 1.20047 4.51917C1.19499 4.86451 1.18677 4.96318 1.15114 5.018C1.12647 5.05637 0.99491 5.16052 0.85787 5.25371C0.268598 5.64838 0.197338 5.84846 0.422083 6.49803C0.572827 6.92559 0.567345 6.95848 0.317933 7.28738C0.0493344 7.64368 0 7.74783 0 7.96436C0 8.18088 0.0493344 8.28503 0.317933 8.64133C0.567345 8.97023 0.572827 9.00312 0.422083 9.43068C0.197338 10.0803 0.268598 10.2803 0.85787 10.675C1.20321 10.908 1.20321 10.908 1.19499 11.3575C1.18677 11.7987 1.22514 11.9687 1.3704 12.1304C1.48551 12.2592 1.62255 12.3277 1.94597 12.4209C2.38724 12.5497 2.43383 12.5963 2.54346 13.0266C2.63939 13.3966 2.77917 13.6022 2.99843 13.7036C3.10532 13.7529 3.18207 13.7611 3.55482 13.7639C3.90016 13.7694 3.99883 13.7776 4.05364 13.8132C4.09201 13.8379 4.19616 13.9694 4.28935 14.1065C4.68128 14.693 4.88684 14.7643 5.52545 14.545C5.96946 14.3888 5.98316 14.3915 6.30658 14.6355C6.68481 14.9178 6.78348 14.9644 7 14.9644C7.21104 14.9644 7.34808 14.9041 7.64409 14.6738C8.01958 14.3833 8.01684 14.3833 8.47455 14.545C9.11316 14.7643 9.31872 14.693 9.71065 14.1065C9.80384 13.9694 9.90799 13.8379 9.94636 13.8132C10.0012 13.7776 10.0998 13.7694 10.4452 13.7639C10.9413 13.7584 11.0536 13.7283 11.2181 13.5419C11.325 13.4185 11.3661 13.3254 11.4593 13.0074C11.5854 12.5771 11.6073 12.5552 12.0568 12.4209C12.3637 12.3304 12.4569 12.2866 12.5775 12.1824C12.7639 12.018 12.794 11.9056 12.7995 11.4095C12.805 11.0642 12.8132 10.9655 12.8489 10.9107C12.8735 10.8723 13.0051 10.7682 13.1421 10.675C13.7287 10.2831 13.7999 10.0775 13.5807 9.43891C13.4244 8.9949 13.4272 8.98119 13.6711 8.65778C13.9534 8.27955 14 8.18088 14 7.96436C14 7.74783 13.9534 7.64916 13.6711 7.27093C13.4272 6.94752 13.4244 6.93382 13.5807 6.48981C13.7999 5.8512 13.7287 5.64564 13.1421 5.25371C13.0051 5.16052 12.8735 5.05637 12.8489 5.018C12.8132 4.96318 12.805 4.86451 12.7995 4.51917C12.794 4.02309 12.7639 3.91071 12.5775 3.74627C12.4542 3.63937 12.3692 3.601 12.0294 3.49685C11.8951 3.45848 11.7443 3.40367 11.6977 3.379C11.6018 3.32967 11.5278 3.18166 11.4565 2.9021C11.3606 2.53209 11.2208 2.32653 11.0016 2.22512C10.8947 2.17579 10.8179 2.16757 10.4452 2.16483C10.0998 2.15934 10.0012 2.15112 9.94636 2.11549C9.90799 2.09082 9.80384 1.95927 9.71065 1.82223C9.31872 1.23569 9.11316 1.16443 8.47455 1.3837C8.29914 1.44674 8.12373 1.49607 8.08262 1.49607C7.98669 1.49607 7.87157 1.43303 7.64409 1.25762C7.53994 1.1754 7.39193 1.07673 7.31793 1.03836C7.17541 0.967096 6.94792 0.934207 6.83555 0.972578ZM7.15348 1.41111C7.20008 1.43851 7.3289 1.53444 7.44127 1.61941C7.86335 1.9483 8.02506 1.97297 8.54307 1.79482C8.72396 1.73178 8.91034 1.68244 8.96241 1.6797C9.08301 1.67696 9.17619 1.76467 9.38449 2.07438C9.68324 2.51565 9.79287 2.56772 10.4041 2.5732L10.7415 2.57742C10.8058 2.57823 10.8666 2.60665 10.9084 2.65543C10.944 2.69654 11.0043 2.83906 11.0427 2.97062C11.2373 3.62293 11.3113 3.70241 11.8841 3.88331C12.0842 3.94634 12.2706 4.02309 12.3117 4.05872C12.3587 4.09877 12.3861 4.15719 12.3869 4.21896L12.3912 4.56028C12.3966 5.18244 12.4405 5.27289 12.8927 5.57986C13.1997 5.78816 13.2874 5.88409 13.2847 6.00194C13.2819 6.05402 13.2326 6.24039 13.1695 6.42129C12.9859 6.953 13.0133 7.09004 13.3833 7.57516C13.6711 7.95613 13.6711 7.97258 13.3833 8.35355C13.0133 8.83867 12.9859 8.97571 13.1695 9.50743C13.2326 9.68832 13.2819 9.87469 13.2847 9.92677C13.2874 10.0446 13.1997 10.1405 12.8927 10.3489C12.4405 10.6558 12.3966 10.7463 12.3912 11.3684L12.3869 11.7059C12.3861 11.7701 12.3577 11.8309 12.3089 11.8727C12.2678 11.9084 12.1253 11.9687 11.9937 12.007C11.325 12.2071 11.2428 12.2893 11.0427 12.9581C11.0043 13.0896 10.944 13.2322 10.9084 13.2733C10.8666 13.3221 10.8058 13.3505 10.7415 13.3513L10.4041 13.3555C9.78191 13.361 9.69146 13.4048 9.38449 13.8571C9.17619 14.164 9.08027 14.2517 8.96241 14.249C8.91034 14.2463 8.72396 14.1969 8.54307 14.1339C8.01135 13.9503 7.87431 13.9777 7.38919 14.3477C7.00822 14.6355 6.99178 14.6355 6.61081 14.3477C6.12569 13.9777 5.98865 13.9503 5.45693 14.1339C5.27604 14.1969 5.08966 14.2463 5.03759 14.249C4.91973 14.2517 4.82381 14.164 4.61551 13.8571C4.30854 13.4048 4.21809 13.361 3.59593 13.3555L3.2546 13.3512C3.19284 13.3505 3.13442 13.323 3.09436 13.276C3.05873 13.2349 2.98199 13.0485 2.91895 12.8485C2.74628 12.3003 2.64487 12.1989 2.09671 12.0372C1.75959 11.9358 1.66641 11.8864 1.62803 11.785C1.61159 11.7467 1.60337 11.5411 1.60611 11.3273C1.60885 10.9792 1.60337 10.9244 1.54855 10.8011C1.46907 10.6229 1.38959 10.5407 1.10728 10.3489C0.800313 10.1405 0.712608 10.0446 0.715348 9.92677C0.718089 9.87469 0.767424 9.68832 0.830462 9.50743C1.0141 8.97571 0.986688 8.83867 0.61668 8.35355C0.328896 7.97258 0.328896 7.95613 0.61668 7.57516C0.981206 7.09826 1.01135 6.95026 0.844166 6.45966C0.646829 5.88683 0.644088 5.89505 1.10728 5.57986C1.55951 5.27289 1.60611 5.1797 1.61159 4.56028L1.61372 4.21897C1.61411 4.15724 1.64134 4.09874 1.68833 4.05872C1.72944 4.02309 1.91582 3.94634 2.1159 3.88331C2.66954 3.7079 2.75176 3.62293 2.92991 3.0501C2.98473 2.86921 3.05873 2.69654 3.09436 2.65269C3.13439 2.6057 3.19289 2.57846 3.25461 2.57808L3.59593 2.57594C4.21535 2.57046 4.30854 2.52387 4.61551 2.07164C4.82381 1.76467 4.91973 1.67696 5.03759 1.6797C5.08966 1.68244 5.27604 1.73178 5.45693 1.79482C5.97494 1.97297 6.13665 1.9483 6.55873 1.61941C6.82459 1.41385 6.91778 1.35903 7 1.35903C7.03837 1.35903 7.10689 1.3837 7.15348 1.41111Z" fill="#FEAA6F"/>
<path d="M6.47928 2.73198C5.54193 2.82791 4.57443 3.2034 3.84263 3.75978C3.5247 4.00097 3.48907 4.07223 3.60418 4.22023C3.69737 4.33809 3.79604 4.31616 4.03723 4.13253C4.93621 3.43911 6.09557 3.0691 7.20285 3.12392C8.42525 3.18695 9.54075 3.66933 10.3904 4.50528C11.0071 5.11373 11.4511 5.86471 11.6704 6.67873C12.0705 8.1615 11.7663 9.70731 10.8317 10.927C10.648 11.1681 10.6261 11.2668 10.744 11.36C10.8865 11.4724 10.955 11.4422 11.1606 11.1764C11.5196 10.7077 11.7992 10.1815 11.9883 9.61412C12.5392 7.94497 12.224 6.12509 11.1441 4.73002C10.0505 3.32125 8.2608 2.55383 6.47928 2.73198Z" fill="#FEAA6F"/>
<path d="M3.00407 4.55764C2.91362 4.63712 2.65324 4.99068 2.50524 5.23736C1.70767 6.55842 1.52952 8.16179 2.01464 9.62263C2.53813 11.1986 3.76601 12.4265 5.34197 12.95C6.97822 13.4954 8.78167 13.2021 10.1521 12.1688C10.4782 11.9222 10.5139 11.8591 10.396 11.7084C10.3028 11.5905 10.2041 11.6125 9.96295 11.7961C9.4285 12.2045 8.84745 12.4895 8.20884 12.654C6.73703 13.0322 5.16656 12.6978 3.98527 11.755C1.91049 10.0995 1.5487 7.10658 3.16851 5.00165C3.35215 4.76046 3.37407 4.66179 3.25622 4.5686C3.16577 4.49734 3.07807 4.4946 3.00407 4.55764Z" fill="#FEAA6F"/>
<path d="M5.31445 4.93318C4.55799 5.11682 4.17154 6.05965 4.53607 6.83256C4.76081 7.30397 5.27334 7.5945 5.72557 7.50405C5.95306 7.45746 6.12299 7.36427 6.30388 7.18338C7.03019 6.46255 6.69856 5.12504 5.74476 4.92496C5.56935 4.88933 5.49261 4.88933 5.31445 4.93318ZM5.72831 5.34704C5.92017 5.4046 6.0764 5.54712 6.18329 5.76639C6.26551 5.93357 6.27373 5.9692 6.27373 6.21039C6.27373 6.43788 6.26551 6.48996 6.19699 6.63522C6.05173 6.94493 5.83521 7.10115 5.54742 7.10115C5.25964 7.10115 5.04311 6.94493 4.89785 6.63522C4.82933 6.48996 4.82111 6.43788 4.82111 6.21039C4.82111 5.9692 4.82933 5.93357 4.91156 5.76639C5.01571 5.5526 5.17467 5.4046 5.35557 5.34704C5.51727 5.29771 5.56387 5.29771 5.72831 5.34704Z" fill="#FEAA6F"/>
<path d="M7.98957 5.18767C7.91831 5.25071 5.76678 10.365 5.76678 10.4802C5.76678 10.6336 5.9559 10.7296 6.07649 10.6364C6.13405 10.5953 8.31573 5.42338 8.31573 5.33294C8.31573 5.25619 8.19513 5.14108 8.11565 5.14108C8.07728 5.14108 8.02246 5.16301 7.98957 5.18767Z" fill="#FEAA6F"/>
<path d="M8.22509 8.43292C7.94005 8.50144 7.61664 8.75633 7.47138 9.03041C7.04382 9.83072 7.46042 10.8476 8.28265 11.0065C8.72392 11.0942 9.2337 10.8174 9.45023 10.3679C9.72156 9.80606 9.62564 9.15923 9.20904 8.74537C8.924 8.46033 8.57592 8.35069 8.22509 8.43292ZM8.76229 8.90433C8.924 9.00026 9.01444 9.10441 9.09941 9.29079C9.34334 9.82524 9.08022 10.4858 8.57866 10.5981C8.15658 10.6913 7.75094 10.3104 7.71805 9.78961C7.69064 9.33464 7.91265 8.95915 8.28813 8.83856C8.40599 8.80018 8.63895 8.83307 8.76229 8.90433Z" fill="#FEAA6F"/>
</svg>
