<svg width="17" height="15" viewBox="0 0 17 15" fill="none" xmlns="http://www.w3.org/2000/svg">
<path fill-rule="evenodd" clip-rule="evenodd" d="M12.7302 0.14932C12.6725 0.23148 12.538 0.524546 12.4312 0.800689L12.2372 1.30267L12.5324 2.34413C12.6948 2.91692 12.8275 3.39667 12.8275 3.41028C12.8275 3.42388 12.5061 3.42063 12.1131 3.40311C9.99818 3.30861 8.12476 4.36274 7.17785 6.18014C6.19577 8.06502 6.51095 10.3902 7.96033 11.9534C8.33139 12.3536 9.18439 13.0075 9.33533 13.0075C9.42227 13.0075 10.169 12.3589 10.169 12.2835C10.169 12.2561 10.0119 12.1614 9.82006 12.0731C9.60504 11.9741 9.27864 11.7214 8.96978 11.4147C8.17142 10.6221 7.84275 9.84797 7.84275 8.76013C7.84275 7.74847 8.16045 6.94194 8.84855 6.20688C9.55074 5.45676 10.4905 5.03787 11.4983 5.02572C12.8277 5.00973 13.9615 5.59692 14.6842 6.67588C15.6179 8.0698 15.5379 9.81824 14.4797 11.1453C14.1474 11.5621 13.439 12.0725 12.913 12.2742C12.5489 12.4138 12.5079 12.4536 12.1415 13.0229L11.7546 13.6241L12.1777 13.5808C12.8055 13.5165 13.5211 13.2989 14.1218 12.9894C14.8719 12.603 15.8121 11.6642 16.1991 10.9152C17.042 9.28394 17.0002 7.43808 16.0855 5.90074C15.7772 5.38257 15.1633 4.69576 14.7574 4.4149C14.6098 4.31284 14.4893 4.21097 14.4894 4.18853C14.4895 4.1661 14.9532 3.91472 15.5198 3.62981C16.6526 3.0602 16.6263 3.08635 16.8871 2.27212C17.0218 1.85164 17.0292 1.77824 16.9451 1.69741C16.8357 1.59242 13.065 0 12.9256 0C12.8758 0 12.7879 0.067161 12.7302 0.14932ZM1.51119 4.07611C0.679993 4.93096 0 5.6751 0 5.72972C0 5.87811 0.722198 6.68404 0.922653 6.75937C1.01836 6.79534 1.5728 6.85712 2.1547 6.89668C2.73665 6.9363 3.22197 6.97784 3.23321 6.98905C3.24444 7.00027 3.11909 7.27641 2.95459 7.60273C2.55614 8.39333 2.39257 9.0672 2.39317 9.91553C2.39417 11.3754 2.92714 12.6272 3.96531 13.6082C4.4497 14.0659 4.63972 14.199 5.23138 14.4956C6.22462 14.9933 7.564 15.1358 8.69781 14.8644C10.2485 14.4932 11.5969 13.3199 12.2074 11.8106C12.9284 10.0283 12.5499 7.94305 11.2429 6.49709L10.8878 6.10428L10.5036 6.30882C10.2922 6.42124 10.0275 6.60819 9.9153 6.72419L9.71125 6.9351L10.086 7.23374C10.5302 7.58766 11.0155 8.27321 11.2276 8.84614C11.4162 9.35555 11.4838 10.3469 11.3681 10.9036C11.1543 11.932 10.345 12.9839 9.42114 13.4343C7.85086 14.1998 6.25645 13.9476 5.05013 12.7431C3.87571 11.5704 3.60567 9.96896 4.32548 8.44516C4.48605 8.10511 4.67774 7.85876 5.11939 7.42461C5.53977 7.01142 5.71484 6.79003 5.74914 6.62823C5.77526 6.50499 5.89808 6.13129 6.0221 5.79774C6.30338 5.04132 6.30777 4.96049 6.06484 5.01842C5.69616 5.10642 5.01119 5.38562 4.76268 5.54921C4.62224 5.64165 4.49795 5.70762 4.48645 5.69574C4.47495 5.68386 4.41573 5.24114 4.35479 4.71189C4.29391 4.18263 4.21415 3.65297 4.17759 3.53484C4.10488 3.30011 3.29528 2.52185 3.12381 2.52185C3.06798 2.52185 2.34232 3.22127 1.51119 4.07611Z" fill="url(#paint0_linear_2958_185)"/>
<defs>
<linearGradient id="paint0_linear_2958_185" x1="8.37314" y1="4.44444" x2="8.37313" y2="10.6944" gradientUnits="userSpaceOnUse">
<stop stop-color="#FD9149"/>
<stop offset="1" stop-color="#FFD588"/>
</linearGradient>
</defs>
</svg>
