<svg width="14" height="14" viewBox="0 0 14 14" fill="none" xmlns="http://www.w3.org/2000/svg">
<path fill-rule="evenodd" clip-rule="evenodd" d="M1.00215 0.0427853C0.740904 0.105985 0.505561 0.244501 0.330842 0.437869C-0.0269418 0.833955 0.000484654 0.288001 0.000484654 7.01006C0.000484654 12.6866 0.00549295 13.0545 0.0850535 13.2238C0.20883 13.4872 0.472649 13.7584 0.729265 13.8859L0.954448 13.9978H6.98827C12.6648 13.9978 13.0327 13.9928 13.202 13.9133C13.4654 13.7895 13.7366 13.5257 13.8642 13.2691L13.9761 13.0439L13.9894 9.40689C13.9968 7.40658 13.9858 5.76991 13.9651 5.76991C13.9444 5.76991 13.5147 6.18307 13.0102 6.6881L12.0929 7.60629L12.0805 9.8481L12.0681 12.0899H6.98827H1.90841V7.01006V1.9302L4.15023 1.9178L6.39204 1.9054L7.31023 0.988163C7.81526 0.48366 8.22842 0.0545667 8.22842 0.0346766C8.22842 -0.011543 1.19399 -0.00357735 1.00215 0.0427853ZM11.0037 0.442782L10.5628 0.885517L10.9701 1.16221C11.6801 1.64449 12.3874 2.34976 12.8737 3.06032L13.1248 3.42721L13.5624 2.98781L14 2.54842L13.9496 2.14642C13.7778 0.776431 13.1439 0.177056 11.7087 0.0275218L11.4446 0L11.0037 0.442782ZM7.01417 4.43207C5.46751 5.97902 4.21185 7.25256 4.22383 7.2621C4.2358 7.27164 4.39831 7.37953 4.5849 7.50183C5.29613 7.96794 6.03245 8.70692 6.55899 9.48293L6.76433 9.78557L9.57165 6.97877C11.4738 5.077 12.3705 4.14893 12.3527 4.10047C12.3383 4.06112 12.2279 3.86479 12.1073 3.66418C11.6909 2.97122 11.0271 2.3074 10.3342 1.891C10.1335 1.77046 9.93721 1.66004 9.89786 1.64559C9.8494 1.62784 8.91967 2.52624 7.01417 4.43207ZM3.32443 8.12176L3.17241 8.27859V9.55228V10.8259H4.44605H5.71974L5.87447 10.676L6.0292 10.5259L5.92951 10.3301C5.49031 9.46733 4.66232 8.62841 3.74179 8.11342L3.4764 7.96498L3.32443 8.12176Z" fill="#FD9149"/>
</svg>
