<svg width="20" height="20" viewBox="0 0 20 20" fill="none" xmlns="http://www.w3.org/2000/svg">
<path d="M17.6691 0.0318246C17.4538 0.0983083 17.313 0.207811 16.8081 0.716215L16.2798 1.24808L17.5243 2.48781L18.7649 3.73145L19.2971 3.20349C19.5867 2.91409 19.8646 2.60513 19.9115 2.5191C20.025 2.30791 20.0289 1.88163 19.9233 1.65872C19.8802 1.56877 19.5593 1.21289 19.1601 0.813985C18.5731 0.227365 18.444 0.113951 18.2796 0.0592003C18.0761 -0.00728345 17.8334 -0.0190158 17.6691 0.0318246Z" fill="#FD9149"/>
<path d="M11.7092 5.81499L8.00313 9.51852L7.55308 10.8677C7.30653 11.6108 7.10303 12.26 7.10303 12.3108C7.10303 12.4986 7.25565 12.7332 7.43176 12.8192C7.52177 12.8662 7.63918 12.9014 7.69005 12.9014C7.74093 12.9014 8.39057 12.698 9.13414 12.4516L10.4882 12.0019L14.206 8.28662L17.9239 4.57135L16.6911 3.33945C16.0141 2.66288 15.4505 2.10755 15.4388 2.10755C15.4271 2.10755 13.7521 3.77355 11.7092 5.81499Z" fill="#FD9149"/>
<path d="M1.72194 3.24221C0.962723 3.39864 0.344389 3.94224 0.0900107 4.68138L0 4.94341V11.6113V18.2792L0.0900107 18.5374C0.313081 19.1866 0.81401 19.6871 1.45974 19.9101L1.72194 20H8.39448H15.067L15.3292 19.9101C15.9671 19.6871 16.4485 19.2139 16.6989 18.5491L16.789 18.3184L16.8007 12.8432L16.8085 7.3681L14.0221 10.1487C11.4666 12.6946 11.2122 12.9371 10.9774 13.0466C10.5195 13.2656 8.10879 14.0399 7.81528 14.0634C7.33 14.1025 6.81342 13.907 6.45338 13.5511C6.08942 13.1835 5.88983 12.6477 5.94462 12.151C5.97202 11.8812 6.76646 9.43301 6.95822 9.0302C7.0678 8.79555 7.31044 8.54135 9.85813 5.98759L12.6367 3.2031L7.25956 3.20701C4.30095 3.21092 1.80804 3.22656 1.72194 3.24221Z" fill="#FD9149"/>
</svg>
