<svg width="142" height="114" viewBox="0 0 142 114" fill="none" xmlns="http://www.w3.org/2000/svg">
<path fill-rule="evenodd" clip-rule="evenodd" d="M106.334 1.13434C105.853 1.75848 104.729 3.98482 103.837 6.0826L102.217 9.89601L104.682 17.8077C106.039 22.159 107.148 25.8035 107.148 25.9069C107.148 26.0102 104.462 25.9855 101.18 25.8524C83.5142 25.1345 67.8656 33.1425 59.9561 46.9487C51.7529 61.2676 54.3855 78.9316 66.4921 90.8064C69.5916 93.8465 76.7167 98.8139 77.9775 98.8139C78.7037 98.8139 84.941 93.8873 84.941 93.3141C84.941 93.1064 83.6291 92.3869 82.0263 91.7159C80.2304 90.9637 77.5039 89.0439 74.924 86.7142C68.2553 80.6931 65.51 74.8122 65.51 66.5481C65.51 58.8628 68.1637 52.7359 73.9114 47.1519C79.7768 41.4534 87.6263 38.2712 96.0444 38.179C107.149 38.0575 116.62 42.5182 122.656 50.7147C130.455 61.3039 129.787 74.5863 120.948 84.6674C118.172 87.8339 112.255 91.7114 107.862 93.2435C104.82 94.3042 104.477 94.6067 101.417 98.9308L98.1851 103.498L101.72 103.169C106.963 102.681 112.941 101.028 117.959 98.6767C124.224 95.7411 132.078 88.6093 135.31 82.9195C142.351 70.5274 142.001 56.5049 134.361 44.8262C131.786 40.8898 126.658 35.6723 123.268 33.5387C122.035 32.7634 121.028 31.9895 121.029 31.8191C121.03 31.6487 124.903 29.7389 129.636 27.5746C139.098 23.2475 138.878 23.4461 141.057 17.2607C142.182 14.0664 142.244 13.5088 141.541 12.8947C140.628 12.0971 109.131 0 107.967 0C107.551 0 106.816 0.510202 106.334 1.13434ZM12.6229 30.965C5.67994 37.459 0 43.1121 0 43.527C0 44.6543 6.03248 50.7767 7.70687 51.3489C8.50631 51.6222 13.1375 52.0916 17.9981 52.392C22.8591 52.693 26.913 53.0086 27.0068 53.0938C27.1006 53.179 26.0536 55.2768 24.6795 57.7557C21.3513 63.7617 19.985 68.8808 19.99 75.3254C19.9983 86.4158 24.4502 95.9251 33.122 103.377C37.1681 106.855 38.7553 107.866 43.6974 110.118C51.9939 113.9 63.1817 114.982 72.6523 112.921C85.605 110.1 96.8683 101.187 101.968 89.7215C107.991 76.182 104.828 60.341 93.9114 49.3565L90.9451 46.3724L87.7357 47.9262C85.9703 48.7803 83.759 50.2005 82.8219 51.0817L81.1175 52.6839L84.2481 54.9526C87.9578 57.6413 92.0122 62.8492 93.7832 67.2015C95.3587 71.0714 95.9239 78.6024 94.9573 82.8317C93.1714 90.6436 86.4111 98.6349 78.6942 102.056C65.5778 107.871 52.2598 105.956 42.1835 96.8058C32.3736 87.897 30.118 75.7313 36.1304 64.1554C37.4717 61.5721 39.0728 59.7007 42.7619 56.4026C46.2734 53.2637 47.7357 51.5819 48.0222 50.3527C48.2404 49.4165 49.2663 46.5776 50.3023 44.0438C52.6517 38.2974 52.6884 37.6834 50.6592 38.1235C47.5797 38.792 41.8581 40.913 39.7824 42.1557C38.6093 42.858 37.5711 43.3591 37.4751 43.2689C37.379 43.1786 36.8844 39.8154 36.3753 35.7948C35.8667 31.7742 35.2005 27.7506 34.8952 26.8532C34.2878 25.07 27.5253 19.1578 26.093 19.1578C25.6266 19.1578 19.5653 24.4711 12.6229 30.965Z" fill="#D9D9D9"/>
</svg>
