<svg width="97" height="78" viewBox="0 0 97 78" fill="none" xmlns="http://www.w3.org/2000/svg">
<path fill-rule="evenodd" clip-rule="evenodd" d="M72.6369 0.776466C72.3077 1.20369 71.5402 2.72764 70.9311 4.16358L69.8241 6.77389L71.5083 12.1895C72.4348 15.168 73.1925 17.6627 73.1925 17.7334C73.1925 17.8042 71.3581 17.7873 69.1157 17.6962C57.0484 17.2048 46.3589 22.6863 40.9559 32.1367C35.3524 41.9381 37.1507 54.0292 45.4207 62.1576C47.538 64.2386 52.4051 67.6388 53.2663 67.6388C53.7624 67.6388 58.0231 64.2665 58.0231 63.8741C58.0231 63.732 57.1269 63.2395 56.0321 62.7802C54.8052 62.2653 52.9428 60.9512 51.1805 59.3565C46.6251 55.235 44.7498 51.2095 44.7498 45.5527C44.7498 40.292 46.5626 36.0981 50.4888 32.2758C54.4954 28.3752 59.8574 26.1969 65.6078 26.1338C73.1936 26.0506 79.6626 29.104 83.7864 34.7146C89.1139 41.963 88.6573 51.0549 82.6195 57.9554C80.7234 60.1229 76.6815 62.7771 73.6802 63.8258C71.6027 64.5519 71.3684 64.759 69.278 67.7189L67.0701 70.8451L69.4847 70.6201C73.0666 70.286 77.1498 69.1541 80.5773 67.5449C84.8574 65.5354 90.2221 60.6537 92.4304 56.7589C97.2398 48.2765 97.0009 38.678 91.7819 30.6839C90.0226 27.9893 86.52 24.4179 84.204 22.9575C83.3621 22.4267 82.6741 21.897 82.6749 21.7804C82.6757 21.6637 85.3212 20.3565 88.5542 18.875C95.0179 15.9131 94.8677 16.049 96.3558 11.815C97.1245 9.62852 97.1666 9.24684 96.6865 8.82652C96.0627 8.28057 74.5475 0 73.7519 0C73.4678 0 72.9661 0.349237 72.6369 0.776466ZM8.62268 21.1958C3.87996 25.641 0 29.5105 0 29.7945C0 30.5662 4.12078 34.757 5.26455 35.1487C5.81065 35.3357 8.97424 35.657 12.2944 35.8627C15.615 36.0687 18.3842 36.2848 18.4483 36.3431C18.5124 36.4014 17.7971 37.8373 16.8585 39.5342C14.585 43.6453 13.6517 47.1494 13.6551 51.5608C13.6608 59.1522 16.7019 65.6614 22.6256 70.7626C25.3894 73.1427 26.4737 73.835 29.8496 75.3769C35.5169 77.9651 43.1593 78.706 49.6287 77.2949C58.4766 75.3644 66.1706 69.2635 69.6542 61.415C73.7682 52.1471 71.608 41.3038 64.1507 33.7849L62.1245 31.7423L59.9321 32.8059C58.7262 33.3904 57.2157 34.3626 56.5755 34.9658L55.4113 36.0625L57.5498 37.6154C60.0838 39.4558 62.8534 43.0207 64.0632 45.9999C65.1394 48.6489 65.5255 53.8039 64.8652 56.6989C63.6452 62.0462 59.0273 67.5163 53.7559 69.8581C44.7961 73.8388 35.6986 72.5278 28.8155 66.2643C22.1144 60.1661 20.5735 51.8386 24.6807 43.9148C25.5969 42.1466 26.6906 40.8656 29.2106 38.6079C31.6093 36.4594 32.6082 35.3081 32.8039 34.4668C32.9529 33.826 33.6538 31.8827 34.3614 30.1483C35.9663 26.2149 35.9914 25.7945 34.6053 26.0958C32.5016 26.5534 28.5932 28.0052 27.1753 28.8559C26.3739 29.3366 25.6648 29.6796 25.5992 29.6179C25.5336 29.5561 25.1957 27.2539 24.8479 24.5018C24.5005 21.7497 24.0454 18.9955 23.8369 18.3812C23.422 17.1606 18.8025 13.1136 17.8241 13.1136C17.5055 13.1136 13.365 16.7506 8.62268 21.1958Z" fill="url(#paint0_linear_2958_224)" fill-opacity="0.15"/>
<defs>
<linearGradient id="paint0_linear_2958_224" x1="47.7761" y1="23.1111" x2="47.7761" y2="55.6111" gradientUnits="userSpaceOnUse">
<stop stop-color="#FD9149"/>
<stop offset="1" stop-color="#FD9149"/>
</linearGradient>
</defs>
</svg>
