<svg width="20" height="20" viewBox="0 0 20 20" fill="none" xmlns="http://www.w3.org/2000/svg">
<g clip-path="url(#clip0_5836_2387)">
<path d="M1.19978 0.133064C0.746448 0.293064 0.222003 0.853064 0.0975586 1.29751C-0.0357747 1.7864 -0.0357747 18.222 0.0975586 18.7108C0.230892 19.1731 0.826447 19.7686 1.28867 19.902C1.78645 20.0353 18.2131 20.0353 18.7109 19.902C19.1731 19.7686 19.7687 19.1731 19.902 18.7108C20.0353 18.2131 20.0353 1.7864 19.902 1.28862C19.7687 0.826397 19.1731 0.230841 18.7109 0.0975075C18.462 0.0263977 15.8487 -0.000268936 9.95534 -0.000268936C2.942 0.00861931 1.49311 0.0263977 1.19978 0.133064ZM18.8176 1.18195C19.0576 1.42195 19.0664 1.45751 19.0931 2.53306L19.1287 3.64417H9.99978H0.870892L0.906448 2.54195C0.933114 1.36862 1.01311 1.16418 1.46645 0.968618C1.56423 0.933064 5.45756 0.906397 10.1064 0.915285L18.5776 0.933064L18.8176 1.18195ZM19.1109 9.99973V15.4664H9.99978H0.88867V9.99973V4.53306H9.99978H19.1109V9.99973ZM19.0931 17.4664C19.0664 18.542 19.0576 18.5775 18.8176 18.8175L18.5776 19.0664H9.99978H1.422L1.182 18.8175C0.942003 18.5775 0.933114 18.542 0.906448 17.4664L0.870892 16.3553H9.99978H19.1287L19.0931 17.4664Z" fill="black"/>
<path d="M1.973 1.97333C1.80411 2.14222 1.84855 2.46222 2.053 2.61333C2.28411 2.77333 2.57744 2.68444 2.67522 2.42666C2.81744 2.03555 2.26633 1.68 1.973 1.97333Z" fill="black"/>
<path d="M3.73311 2.03491C3.59089 2.31047 3.62645 2.47047 3.86645 2.63047C4.07089 2.7638 4.10645 2.7638 4.31089 2.63047C4.55089 2.47047 4.60422 2.15047 4.42645 1.97269C4.25756 1.8038 3.83978 1.83936 3.73311 2.03491Z" fill="black"/>
<path d="M5.564 2.05227C5.29733 2.43449 5.74178 2.87894 6.124 2.61227C6.32844 2.46116 6.37289 2.14116 6.204 1.97227C6.03511 1.80338 5.71511 1.84783 5.564 2.05227Z" fill="black"/>
<path d="M5.72412 17.3328C5.47523 17.4306 5.40412 17.715 5.57301 17.9461C5.69745 18.1328 5.75079 18.1328 9.99967 18.1328C14.2486 18.1328 14.3019 18.1328 14.4263 17.9461C14.5952 17.7061 14.5152 17.4306 14.2486 17.3239C13.973 17.2261 5.9819 17.2261 5.72412 17.3328Z" fill="black"/>
</g>
<defs>
<clipPath id="clip0_5836_2387">
<rect width="20" height="20" fill="white"/>
</clipPath>
</defs>
</svg>
