<svg width="14" height="14" viewBox="0 0 14 14" fill="none" xmlns="http://www.w3.org/2000/svg">
<path d="M5.51783 0.0319986C5.40276 0.0730734 5.29591 0.152483 5.21372 0.253798C5.10688 0.390712 5.08222 0.546793 5.08222 1.09445C5.08222 1.41209 5.07126 1.60924 5.05482 1.60924C5.04112 1.60924 4.9151 1.65853 4.77537 1.71877C4.62141 1.78496 4.44268 1.751 4.32372 1.63295L4.13703 1.44768C3.92607 1.23957 3.70964 1.04516 3.65758 1.01778C3.51786 0.94658 3.26581 0.954795 3.10964 1.03147C2.93978 1.11909 1.11241 2.94551 1.02474 3.11529C0.948031 3.27137 0.939812 3.52329 1.01104 3.66294C1.03844 3.71497 1.23296 3.93129 1.44117 4.14214L1.62661 4.32881C1.74465 4.44764 1.77861 4.6263 1.7124 4.78015C1.65213 4.91981 1.60282 5.04577 1.60282 5.05946C1.60282 5.07589 1.4083 5.08684 1.08776 5.08684C0.490503 5.08684 0.353519 5.11422 0.197357 5.26483C-0.0108594 5.46746 9.93991e-05 5.36888 9.93991e-05 7.00363C9.93991e-05 8.63837 -0.0108594 8.5398 0.197357 8.74243C0.353519 8.89303 0.490503 8.92041 1.08776 8.92041C1.4083 8.92041 1.60282 8.93137 1.60282 8.9478C1.60282 8.96149 1.65213 9.08745 1.7124 9.2271C1.77861 9.38096 1.74465 9.55961 1.62661 9.67845L1.44117 9.86512C1.23296 10.076 1.03844 10.2923 1.01104 10.3443C0.939812 10.484 0.948031 10.7359 1.02474 10.892C1.11241 11.0617 2.93978 12.8882 3.10964 12.9758C3.26581 13.0525 3.51786 13.0607 3.65758 12.9895C3.70964 12.9621 3.92607 12.7677 4.13703 12.5596L4.32372 12.3743C4.44268 12.2563 4.62141 12.2223 4.77537 12.2885C4.9151 12.3487 5.04112 12.398 5.05482 12.398C5.07126 12.398 5.08222 12.5924 5.08222 12.9128C5.08222 13.5098 5.10962 13.6467 5.2603 13.8027C5.46304 14.0109 5.36441 13.9999 7 13.9999C8.63559 13.9999 8.53696 14.0109 8.7397 13.8027C8.89038 13.6467 8.91778 13.5098 8.91778 12.9128C8.91778 12.5924 8.92874 12.398 8.94518 12.398C8.95888 12.398 9.0849 12.3487 9.22463 12.2885C9.37859 12.2223 9.55732 12.2563 9.67628 12.3743L9.86297 12.5596C10.0739 12.7677 10.2904 12.9621 10.3424 12.9895C10.4821 13.0607 10.7342 13.0525 10.8904 12.9758C11.0602 12.8882 12.8876 11.0617 12.9753 10.892C13.052 10.7359 13.0602 10.484 12.989 10.3443C12.9616 10.2923 12.767 10.076 12.5588 9.86512L12.3734 9.67845C12.2553 9.55961 12.2214 9.38096 12.2876 9.2271C12.3479 9.08745 12.3972 8.96149 12.3972 8.9478C12.3972 8.93137 12.5917 8.92041 12.9122 8.92041C13.5095 8.92041 13.6465 8.89303 13.8026 8.74243C14.0109 8.5398 13.9999 8.63837 13.9999 7.00363C13.9999 5.36888 14.0109 5.46746 13.8026 5.26483C13.6465 5.11422 13.5095 5.08684 12.9122 5.08684C12.5917 5.08684 12.3972 5.07589 12.3972 5.05946C12.3972 5.04577 12.3479 4.91981 12.2876 4.78015C12.2214 4.6263 12.2553 4.44764 12.3734 4.32881L12.5588 4.14214C12.767 3.93129 12.9616 3.71497 12.989 3.66294C13.0602 3.52329 13.052 3.27137 12.9753 3.11529C12.8876 2.94551 11.0602 1.11909 10.8904 1.03147C10.7342 0.954795 10.4821 0.94658 10.3424 1.01778C10.2904 1.04516 10.0739 1.23957 9.86297 1.44768L9.67628 1.63295C9.55732 1.751 9.37859 1.78496 9.22463 1.71877C9.0849 1.65853 8.95888 1.60924 8.94518 1.60924C8.92874 1.60924 8.91778 1.41482 8.91778 1.09445C8.91778 0.497504 8.89038 0.360591 8.7397 0.20451C8.53696 -0.00359821 8.63011 0.00735474 7.0411 0.00187778C5.91782 -0.00359821 5.59454 0.00187778 5.51783 0.0319986ZM7.63561 1.75163C7.64657 2.27738 7.66026 2.32667 7.84382 2.51835C7.92601 2.60597 7.99725 2.63883 8.28491 2.73193C8.47395 2.79491 8.80545 2.92908 9.01915 3.03314C9.4712 3.25494 9.56161 3.27684 9.77804 3.21387C9.91777 3.17279 9.97256 3.13172 10.2767 2.83598C10.4663 2.65097 10.7696 2.65328 10.9565 2.84116L11.0602 2.94551L11.1646 3.04923C11.3525 3.23589 11.3549 3.53915 11.1698 3.72866C10.8739 4.03261 10.8328 4.08737 10.7917 4.22702C10.7287 4.44335 10.7534 4.54192 10.9725 4.98826C11.0767 5.20185 11.2109 5.53044 11.2739 5.71938C11.3671 6.0069 11.3999 6.07809 11.4876 6.16024C11.6794 6.3437 11.7287 6.3574 12.2547 6.36835C12.5167 6.37444 12.7259 6.58858 12.7259 6.85066V7.00363V7.1566C12.7259 7.41867 12.5167 7.63282 12.2547 7.63891C11.7287 7.64986 11.6794 7.66355 11.4876 7.84701C11.3999 7.92916 11.3671 8.00036 11.2739 8.28787C11.2109 8.47682 11.0767 8.80541 10.9725 9.01899C10.7534 9.46533 10.7287 9.56391 10.7917 9.78023C10.8328 9.91988 10.8739 9.97465 11.1698 10.2786C11.3549 10.4681 11.3525 10.7714 11.1646 10.958L11.0602 11.0617L10.9565 11.1661C10.7696 11.354 10.4663 11.3563 10.2767 11.1713C9.97256 10.8755 9.91777 10.8345 9.77804 10.7934C9.56161 10.7304 9.4712 10.7523 9.01915 10.9741C8.80545 11.0782 8.47395 11.2123 8.28491 11.2753C7.99725 11.3684 7.92601 11.4013 7.84382 11.4889C7.66026 11.6806 7.64657 11.7299 7.63561 12.2529C7.62951 12.5163 7.41425 12.7266 7.1508 12.7266H7H6.8492C6.58575 12.7266 6.37049 12.5163 6.36439 12.2529C6.35343 11.7299 6.33974 11.6806 6.15618 11.4889C6.07399 11.4013 6.00275 11.3684 5.71509 11.2753C5.52605 11.2123 5.19729 11.0782 4.98359 10.9741C4.53702 10.7551 4.43839 10.7304 4.22196 10.7934C4.08223 10.8345 4.02744 10.8755 3.72333 11.1713C3.53367 11.3563 3.23037 11.354 3.04354 11.1661L2.93978 11.0617L2.83537 10.958C2.64745 10.7714 2.64514 10.4681 2.8302 10.2786C3.12608 9.97465 3.16718 9.91988 3.20827 9.78023C3.27129 9.56391 3.24663 9.46533 3.02745 9.01899C2.92335 8.80541 2.7891 8.47682 2.72609 8.28787C2.63294 8.00036 2.60006 7.92916 2.51239 7.84701C2.32061 7.66355 2.2713 7.64986 1.74802 7.63891C1.4845 7.63282 1.27405 7.41745 1.27405 7.15386V7.00363V6.85339C1.27405 6.58981 1.4845 6.37444 1.74802 6.36835C2.2713 6.3574 2.32061 6.3437 2.51239 6.16024C2.60006 6.07809 2.63294 6.0069 2.72609 5.71938C2.7891 5.53044 2.92335 5.20185 3.02745 4.98826C3.24663 4.54192 3.27129 4.44335 3.20827 4.22702C3.16718 4.08737 3.12608 4.03261 2.8302 3.72866C2.64514 3.53915 2.64745 3.23589 2.83537 3.04923L2.93978 2.94551L3.04354 2.84116C3.23037 2.65328 3.53367 2.65097 3.72333 2.83598C4.02744 3.13172 4.08223 3.17279 4.22196 3.21387C4.43839 3.27684 4.53702 3.2522 4.98359 3.03314C5.19729 2.92908 5.52605 2.79491 5.71509 2.73193C6.00275 2.63883 6.07399 2.60597 6.15618 2.51835C6.33974 2.32667 6.35343 2.27738 6.36439 1.75163C6.37049 1.48976 6.58452 1.28065 6.84646 1.28065H7H7.15354C7.41548 1.28065 7.62951 1.48976 7.63561 1.75163Z" fill="#FEAA6F"/>
<path d="M8.09573 5.49982C8.00532 5.54089 7.76423 5.76269 7.21355 6.31035L6.68212 6.8415C6.5556 6.96796 6.35131 6.97042 6.22178 6.84705C5.9396 6.57322 5.81357 6.50476 5.59988 6.50476C5.33413 6.50476 5.10947 6.64989 5.0081 6.88538C4.95605 7.01408 4.96427 7.26874 5.02454 7.40018C5.05742 7.46863 5.27111 7.70139 5.59166 8.01902C6.00535 8.42703 6.13411 8.5393 6.24096 8.57763C6.38891 8.6324 6.58616 8.62144 6.73137 8.54751C6.85739 8.48727 8.82175 6.52667 8.91216 6.37333C9.05188 6.13784 8.99709 5.79829 8.78887 5.60114C8.61901 5.43684 8.32586 5.39576 8.09573 5.49982Z" fill="#FEAA6F"/>
</svg>
