<svg width="14" height="9" viewBox="0 0 14 9" fill="none" xmlns="http://www.w3.org/2000/svg">
<path fill-rule="evenodd" clip-rule="evenodd" d="M5.92836 0.0398661C3.59837 0.362121 1.5686 1.71171 0.213418 3.83971C0.0832149 4.0442 0.0832149 4.3056 0.213418 4.5101C1.48069 6.5 3.27542 7.76896 5.48328 8.23614C6.17787 8.3831 7.82004 8.3831 8.51462 8.23614C10.6961 7.77456 12.4749 6.53276 13.7267 4.59754C13.893 4.34033 13.893 4.00947 13.7267 3.75226C12.4811 1.82661 10.6847 0.56831 8.54377 0.121945C7.99061 0.00663777 6.5056 -0.039998 5.92836 0.0398661ZM8.04849 0.994621C8.78872 1.1062 9.47567 1.32859 10.1469 1.67387C10.8203 2.02032 11.2556 2.34141 11.8582 2.93602C12.2548 3.32735 12.8856 4.08804 12.8856 4.1749C12.8856 4.26176 12.2548 5.02245 11.8582 5.41379C11.2556 6.0084 10.8203 6.32948 10.1469 6.67593C8.1761 7.68985 5.82215 7.68986 3.85102 6.67599C3.17142 6.32639 2.67819 5.95838 2.08818 5.36068C1.68985 4.9571 1.11238 4.25541 1.11238 4.1749C1.11238 4.09381 1.68915 3.39188 2.08748 2.98825C2.67551 2.3923 3.16845 2.02493 3.85102 1.67382C5.14004 1.01077 6.59462 0.775432 8.04849 0.994621ZM6.30594 1.46891C4.82787 1.86642 3.9134 3.39684 4.29004 4.84285C4.68004 6.34015 6.20818 7.26378 7.66689 6.88381C9.15983 6.49492 10.0877 4.96538 9.71013 3.51576C9.31658 2.00481 7.77037 1.07507 6.30594 1.46891ZM7.3679 3.3217C7.96682 3.57196 8.11285 4.35719 7.64707 4.82303C7.26891 5.20113 6.72899 5.20113 6.35083 4.82303C5.62995 4.10209 6.42539 2.92791 7.3679 3.3217Z" fill="#FEAA6F"/>
</svg>
