<svg width="15" height="12" viewBox="0 0 15 12" fill="none" xmlns="http://www.w3.org/2000/svg">
<path fill-rule="evenodd" clip-rule="evenodd" d="M0.170643 0.142643C0.0463725 0.279997 0.0406776 0.4842 0.0207456 5.57487L0.000866244 10.6435C0.000309984 10.7853 0.0541013 10.922 0.151185 11.0254C0.2477 11.1281 0.382369 11.1863 0.523304 11.1863H7.50034H14.5059C14.6284 11.1863 14.7452 11.1345 14.8275 11.0437C14.9517 10.9064 14.9574 10.7019 14.9783 5.63514L14.999 0.604205C14.9997 0.452081 14.9488 0.304221 14.8547 0.184676C14.763 0.0680741 14.6229 0 14.4746 0H7.50461H0.492218C0.369692 0 0.25288 0.0518149 0.170643 0.142643ZM14.0414 5.62707V8.30499C14.0414 9.40956 13.1459 10.305 12.0414 10.305H7.49905H2.95674C1.85217 10.305 0.956737 9.40956 0.956737 8.30499V5.62707V2.94914C0.956737 1.84458 1.85217 0.949144 2.95674 0.949144H7.49905H12.0414C13.1459 0.949144 14.0414 1.84457 14.0414 2.94914V5.62707ZM2.01144 1.57443C1.86744 1.77992 1.8789 2.0069 2.04147 2.16947C2.31971 2.44771 2.78723 2.26066 2.78723 1.87103C2.78723 1.59558 2.61082 1.42372 2.32811 1.42372C2.18676 1.42372 2.08208 1.47355 2.01144 1.57443ZM3.4418 1.54771C3.2896 1.71585 3.30044 2.00473 3.46519 2.16947C3.85732 2.5616 4.4264 2.03266 4.10539 1.57443C3.97237 1.38446 3.60302 1.36955 3.4418 1.54771ZM4.86552 1.54771C4.70097 1.72948 4.72118 2.07144 4.90402 2.19951C5.21663 2.41849 5.63466 2.22676 5.63466 1.86439C5.63466 1.49314 5.11026 1.27721 4.86552 1.54771ZM1.90588 3.25421C1.90588 3.51631 2.11835 3.72878 2.38045 3.72878H7.49905H12.6176C12.8797 3.72878 13.0922 3.51631 13.0922 3.25421C13.0922 2.99211 12.8797 2.77964 12.6176 2.77964H7.49905H2.38045C2.11835 2.77964 1.90588 2.99211 1.90588 3.25421ZM4.97765 4.79236C4.6325 4.98836 4.46159 5.26131 4.42762 5.67093C4.4022 5.97805 4.4245 6.07642 4.56931 6.29527C4.86341 6.73974 5.5129 6.91614 5.97507 6.67716C6.6316 6.33764 6.69757 5.30029 6.09011 4.86769C5.80741 4.6664 5.26436 4.62965 4.97765 4.79236ZM8.61769 5.52537C8.61769 5.65642 8.72392 5.76266 8.85497 5.76266H10.1431H11.4312C11.5623 5.76266 11.6685 5.65642 11.6685 5.52537C11.6685 5.39432 11.5623 5.28809 11.4312 5.28809H10.1431H8.85497C8.72392 5.28809 8.61769 5.39432 8.61769 5.52537ZM8.61769 6.8135C8.61769 6.94455 8.72392 7.05078 8.85497 7.05078H10.1431H11.4312C11.5623 7.05078 11.6685 6.94455 11.6685 6.8135C11.6685 6.68245 11.5623 6.57621 11.4312 6.57621H10.1431H8.85497C8.72392 6.57621 8.61769 6.68245 8.61769 6.8135ZM3.99305 7.16143C3.77786 7.2257 3.61726 7.33051 3.50153 7.48224C3.33929 7.69498 3.3296 7.75403 3.3296 8.53172C3.3296 8.98687 3.69857 9.35585 4.15373 9.35585H4.34654C4.96972 9.35585 5.36348 9.32995 5.36348 9.289C5.36348 9.20568 4.42694 7.17031 4.36084 7.10997C4.33433 7.08577 4.16884 7.10889 3.99305 7.16143ZM4.75331 7.08441C4.75331 7.10292 4.9125 7.47526 5.10701 7.91186L5.12581 7.95406C5.2576 8.24986 5.67552 8.25527 5.81493 7.96298C6.00978 7.55451 6.17093 7.18217 6.1731 7.13553C6.17601 7.07289 5.99154 7.05078 5.46517 7.05078C5.07365 7.05078 4.75331 7.0659 4.75331 7.08441ZM6.35018 7.54414C6.22686 7.81349 5.99988 8.30562 5.84585 8.63775C5.69174 8.96995 5.57914 9.2551 5.59547 9.27151C5.61188 9.28785 6.07737 9.30595 6.62997 9.31158L7.42993 9.31984C7.54628 9.32104 7.64474 9.23416 7.65803 9.11856C7.67091 9.0067 7.66027 8.63002 7.6343 8.28148C7.59302 7.72725 7.56461 7.62285 7.40746 7.44861C7.30502 7.33492 7.0876 7.20753 6.90116 7.15194C6.71381 7.09603 6.51389 7.18667 6.43248 7.36443L6.35018 7.54414ZM10.1261 7.77952L8.81977 7.79649C8.70774 7.79795 8.61769 7.88918 8.61769 8.00122C8.61769 8.11283 8.70817 8.20332 8.81979 8.20332H10.1431H11.4312C11.5623 8.20332 11.6685 8.09708 11.6685 7.96603C11.6685 7.83552 11.6608 7.73573 11.6516 7.74434C11.6423 7.75288 10.9558 7.76874 10.1261 7.77952Z" fill="#FEAA6F"/>
</svg>
