<svg width="15" height="17" viewBox="0 0 15 17" fill="none" xmlns="http://www.w3.org/2000/svg">
<path fill-rule="evenodd" clip-rule="evenodd" d="M0.32174 0.253118C0.118598 0.412856 0 0.656986 0 0.91541V7.43579V13.9777C0 14.2251 0.10225 14.4616 0.282545 14.631C0.560572 14.8922 0.628583 14.8965 4.48372 14.8965H7.9552C8.17741 14.8965 8.33628 14.6816 8.27109 14.4691C8.19308 14.2151 7.95847 14.0418 7.69277 14.0418H4.43622H2.73261C1.62805 14.0418 0.732614 13.1463 0.732614 12.0418V7.44824V2.85472C0.732614 1.75015 1.62804 0.854716 2.73261 0.854716H6.53247H10.3323C11.4369 0.854716 12.3323 1.75015 12.3323 2.85472V4.82304V8.36401C12.3323 8.60003 12.5237 8.79137 12.7597 8.79137C12.9957 8.79137 13.1871 8.60003 13.1871 8.36401V4.75259V1.21855C13.1871 0.89537 13.0587 0.585428 12.8301 0.356905C12.6016 0.128383 12.2917 0 11.9685 0H6.55836C0.759233 0 0.63713 0.00500618 0.32174 0.253118ZM2.9235 3.73255C2.80579 3.87443 2.79651 3.98334 2.8898 4.13121C3.00482 4.31351 3.39054 4.33463 6.60684 4.33463H9.82924C10.0315 4.33463 10.1955 4.17063 10.1955 3.96833C10.1955 3.76548 10.0321 3.60053 9.82925 3.59869L6.64054 3.56966C3.50629 3.54121 3.06636 3.56038 2.9235 3.73255ZM2.95671 7.22663C2.74108 7.44226 2.77465 7.66583 3.0445 7.81028C3.29982 7.94691 9.49736 7.98952 9.98846 7.85802C10.2057 7.79978 10.2612 7.70979 10.2327 7.46277C10.2115 7.28007 10.0575 7.14173 9.87363 7.14005L6.6503 7.11063C3.99507 7.08645 3.06782 7.11551 2.95671 7.22663ZM7.77719 9.84621C7.60771 10.0157 7.85521 10.1345 8.37744 10.1345C9.04021 10.1345 9.05682 10.1655 9.65781 12.5155C10.2231 14.7259 10.1248 14.6523 12.51 14.6523C14.1158 14.6523 14.4081 14.6241 14.4081 14.4691C14.4081 14.3148 14.1299 14.286 12.6376 14.286C11.0299 14.286 10.8446 14.2635 10.6229 14.0418C10.4886 13.9075 10.3787 13.7426 10.3787 13.6755C10.3787 13.599 11.1288 13.5534 12.3847 13.5534H13.7132C14.1146 13.5534 14.4678 13.2882 14.5799 12.9028C14.9179 11.7401 15.0561 11.019 14.9794 10.8189C14.9136 10.6474 14.5771 10.6229 12.2872 10.6229H10.1665C9.85896 10.6229 9.57437 10.4604 9.41812 10.1955C9.17965 9.79151 9.13008 9.76819 8.51053 9.76819C8.15021 9.76819 7.82017 9.80335 7.77719 9.84621ZM2.99993 10.6627C2.84401 10.7768 2.80371 10.9042 2.86367 11.0934C2.94706 11.3558 2.98955 11.3614 4.67969 11.3283C6.36935 11.2953 6.41135 11.288 6.44932 11.02C6.50635 10.6191 6.06934 10.5008 4.53317 10.5008C3.63621 10.5008 3.15134 10.552 2.99993 10.6627ZM10.5021 15.2002C10.1194 15.6613 10.8349 16.3769 11.2961 15.9941C11.5147 15.8126 11.5335 15.3676 11.3311 15.1651C11.1287 14.9627 10.6836 14.9815 10.5021 15.2002ZM13.0894 15.1651C12.6947 15.5597 13.1375 16.2272 13.6797 16.0551C13.9774 15.9606 14.1214 15.4447 13.9183 15.2002C13.7369 14.9815 13.2918 14.9627 13.0894 15.1651Z" fill="#FD9149"/>
</svg>
