<svg width="14" height="16" viewBox="0 0 14 16" fill="none" xmlns="http://www.w3.org/2000/svg">
<path fill-rule="evenodd" clip-rule="evenodd" d="M9.56662 0.0572864C9.51167 0.0892064 9.43783 0.166464 9.40251 0.22895C9.33859 0.342009 9.33827 0.347785 9.3302 1.44528L9.32213 2.54801L9.00198 2.56738C8.10066 2.62187 7.35587 2.83445 6.6168 3.24811C4.87461 4.22325 3.72362 6.08117 3.52712 8.23548C3.48407 8.70754 3.4899 9.84315 3.53601 9.96455C3.6437 10.248 3.99519 10.3442 4.20692 10.1483C4.25134 10.1072 4.33961 9.96897 4.40306 9.84111C5.09695 8.44322 6.2592 7.49567 7.69719 7.15553C7.91951 7.10294 8.09718 7.0879 8.6464 7.07505L9.32207 7.05926L9.3302 8.16848C9.33827 9.27323 9.33857 9.27819 9.4026 9.39149C9.52579 9.60946 9.808 9.68584 9.99424 9.55163C10.1209 9.46039 13.9253 5.09721 13.9638 4.99914C14.0122 4.87585 14.0121 4.74411 13.9636 4.62115C13.908 4.48015 10.0521 0.0912822 9.9376 0.0386338C9.81315 -0.0185574 9.68615 -0.0121795 9.56662 0.0572864ZM11.756 3.43632C12.4044 4.17818 12.935 4.79616 12.935 4.8096C12.935 4.82308 12.3227 5.53387 11.5743 6.38918L10.2135 7.94429L10.1999 7.16693C10.1801 6.04293 10.2456 6.10379 9.0552 6.10379C8.13206 6.10379 7.79733 6.13782 7.24717 6.28758C6.28724 6.5489 5.42889 7.0718 4.70133 7.83842L4.42032 8.13452L4.43928 7.96905C4.4497 7.87804 4.49488 7.65096 4.53971 7.46441C4.93978 5.79948 6.06082 4.45006 7.54342 3.84878C8.07577 3.6329 8.53817 3.54863 9.33829 3.5217C10.2241 3.49189 10.1999 3.52303 10.1999 2.4141V1.66679L10.3884 1.87715C10.4921 1.99282 11.1075 2.69446 11.756 3.43632ZM1.37627 2.58378C1.09042 2.62987 0.80749 2.77073 0.565865 2.98722C0.377057 3.15641 0.156793 3.51159 0.0736442 3.78106L0.0113644 3.98281L0.00373328 8.88664C-0.00480045 14.3482 -0.0157138 14.0088 0.182477 14.4445C0.30545 14.7149 0.596144 15.0428 0.837003 15.1828C0.930053 15.2369 1.10127 15.3079 1.21746 15.3406C1.42446 15.3988 1.54134 15.4 6.99972 15.4C12.4581 15.4 12.575 15.3988 12.782 15.3406C12.8982 15.3079 13.0694 15.2369 13.1624 15.1828C13.4033 15.0428 13.694 14.7149 13.817 14.4445C14.0094 14.0213 14.0042 14.1242 13.9957 10.897C13.9881 8.02811 13.9876 8.00284 13.9317 7.92046C13.8245 7.76258 13.7371 7.71333 13.5641 7.71333C13.3912 7.71333 13.3037 7.76258 13.1966 7.92046C13.1408 8.00269 13.14 8.03301 13.1265 10.9271C13.1133 13.7575 13.1111 13.8544 13.059 13.97C12.9903 14.1224 12.8403 14.2875 12.7016 14.3631C12.5948 14.4213 12.5067 14.4222 6.99972 14.4222C1.49276 14.4222 1.40463 14.4213 1.2978 14.3631C1.15918 14.2875 1.00915 14.1224 0.940419 13.97C0.887576 13.8528 0.886619 13.7627 0.886619 8.97689V4.10315L0.945835 3.98281C1.02321 3.82559 1.18727 3.65341 1.32425 3.58566C1.42249 3.53708 1.55509 3.53001 2.62345 3.5165C3.79971 3.50164 3.81423 3.5007 3.89878 3.43437C4.07419 3.29673 4.12867 2.98559 4.01133 2.79139C3.97736 2.73517 3.89476 2.65869 3.82775 2.62148C3.7071 2.55442 3.69547 2.55381 2.61081 2.55754C2.0085 2.55959 1.45296 2.57141 1.37627 2.58378Z" fill="black"/>
</svg>
