<svg width="20" height="21" viewBox="0 0 20 21" fill="none" xmlns="http://www.w3.org/2000/svg">
<path d="M5.14 1.09386C4.38327 1.36094 3.90252 1.99303 3.90252 2.72306V3.07917L3.38616 3.14149C2.69175 3.22161 1.76587 3.65784 1.76587 3.90712C1.76587 4.19201 1.99734 4.21871 2.54931 3.96944C3.26152 3.65784 3.8491 3.59552 4.54351 3.76468C5.65635 4.04956 6.51992 4.91313 6.8048 6.02596C7.14311 7.37918 6.43979 8.86593 5.1578 9.48912C4.72157 9.71169 4.56132 9.7384 3.81349 9.7384C3.06566 9.7384 2.91432 9.71169 2.49589 9.48912C1.89941 9.17753 1.39195 8.67007 1.08036 8.07359C0.85779 7.65516 0.831082 7.50381 0.831082 6.75599C0.831082 6.00816 0.85779 5.84791 1.08036 5.39387C1.36524 4.833 1.34744 4.59263 1.03584 4.63714C0.893401 4.65495 0.75986 4.80629 0.590709 5.1535C-0.0948005 6.53342 0.190086 8.19823 1.27622 9.29326C1.76587 9.77401 2.49589 10.1746 3.05676 10.2726C3.94703 10.415 3.91142 10.3972 3.88471 10.6999C3.858 10.9848 3.8491 10.9848 3.25262 11.0471C1.62342 11.2073 0.33253 12.4359 0.047643 14.0829C-0.29066 16.0771 1.2139 18.0268 3.25262 18.2227L3.858 18.285L3.90252 18.9527C3.96484 19.7807 4.18741 20.1902 4.77498 20.5374L5.19341 20.7778L9.82282 20.8045C15.1199 20.8401 15.209 20.8312 15.7787 20.2614C16.1883 19.843 16.3663 19.38 16.3663 18.7123V18.2672L16.8649 18.2138C18.3783 18.0624 19.6781 16.7804 19.9541 15.1869C20.2835 13.2461 18.7968 11.2519 16.8649 11.056C16.3663 11.0026 16.3663 11.0026 16.3663 10.7088C16.3663 10.3883 16.3663 10.3883 17.1231 10.2726C18.4674 10.0589 19.6692 8.82142 19.9363 7.36137C20.3013 5.35826 18.868 3.41747 16.8204 3.14149C16.4108 3.08807 16.3663 3.06136 16.3663 2.8566C16.3663 2.08206 15.7342 1.25411 15.0131 1.07606C14.3899 0.915808 5.57623 0.933613 5.14 1.09386ZM15.1823 1.77047C15.3425 1.8595 15.5295 2.06426 15.6096 2.2067C15.7876 2.55391 15.7876 3.1949 15.6185 3.1949C15.5473 3.1949 15.4315 3.21271 15.3603 3.24832C15.2713 3.28393 15.2179 3.2038 15.1823 2.94563C15.1466 2.74977 15.0309 2.5183 14.8885 2.38475C14.6926 2.1978 14.5591 2.17109 13.9359 2.14438C13.0723 2.11767 12.823 2.2156 12.6806 2.66074L12.5827 2.97233L10.268 2.99904C8.99487 3.00794 7.86423 2.99904 7.75739 2.97233C7.62385 2.94563 7.55263 2.8566 7.55263 2.74086C7.55263 2.64293 7.4547 2.46488 7.33006 2.34914C7.14311 2.15328 7.03627 2.12658 6.43979 2.12658C5.44269 2.12658 5.05987 2.37585 5.05987 3.02575C5.05987 3.27503 5.03316 3.30173 4.86401 3.24832C4.74828 3.22161 4.60583 3.1949 4.55242 3.1949C4.38327 3.1949 4.40997 2.57171 4.59693 2.23341C4.67705 2.07316 4.87291 1.8684 5.01536 1.77047C5.27354 1.60132 5.45159 1.59241 10.0899 1.59241C14.7015 1.59241 14.9063 1.60132 15.1823 1.77047ZM7.04518 3.01685C7.15201 3.5154 7.34787 3.55101 10.1611 3.55101C12.5471 3.55101 12.7073 3.54211 12.921 3.37296C13.0367 3.27503 13.1702 3.09697 13.197 2.97233C13.2504 2.74977 13.2771 2.74086 13.9003 2.76757L14.5413 2.79428L14.568 3.21271C14.5858 3.45308 14.5591 3.64004 14.5057 3.64004C14.4611 3.64004 14.203 3.8448 13.927 4.09407C13.3572 4.61043 12.9477 5.37607 12.7963 6.16841C12.5738 7.40588 13.1702 8.88374 14.1941 9.62266L14.5858 9.89865V10.6554V11.4032L13.9893 11.9552C13.5531 12.3647 13.4106 12.5517 13.4551 12.6585C13.5798 12.979 13.7845 12.9256 14.2742 12.4626C14.9686 11.8038 15.4315 11.6169 16.3663 11.6169C17.2833 11.608 17.9154 11.8661 18.5208 12.4715C20.0431 13.985 19.5891 16.5045 17.6305 17.4214C17.2032 17.6262 16.9984 17.6618 16.3663 17.6618C15.7164 17.6618 15.5384 17.6262 15.1021 17.4125C14.4878 17.1098 13.9359 16.5757 13.6243 15.9703C13.4106 15.5786 13.3839 15.4094 13.3661 14.5904C13.3572 14.074 13.3483 13.6289 13.3483 13.5844C13.3305 13.4597 12.9833 13.522 12.9121 13.6734C12.7607 13.9583 12.7073 14.715 12.8052 15.2136C12.9922 16.1751 13.4907 16.9852 14.2831 17.5817C14.5858 17.8221 14.5947 17.831 14.568 18.4096L14.5413 18.9972H10.0899H5.63855L5.61184 18.3473C5.58513 17.733 5.60294 17.6796 5.8166 17.5105C6.53772 16.9407 7.02737 16.1127 7.20543 15.178C7.40129 14.1007 6.95615 12.8454 6.08368 12.0175L5.59403 11.5546V10.7088C5.59403 10.2459 5.62964 9.87194 5.67416 9.87194C5.71867 9.87194 5.97685 9.66717 6.25283 9.4179C6.60004 9.0974 6.84932 8.7591 7.08079 8.28725C7.39238 7.65516 7.41909 7.55723 7.41909 6.8094C7.41909 5.51851 6.98286 4.61043 6.01246 3.8537C5.64745 3.56882 5.59403 3.48869 5.59403 3.1949C5.59403 3.01685 5.62074 2.83879 5.65635 2.81208C5.68306 2.77647 6.00356 2.74977 6.35076 2.74977C6.99176 2.74977 7.00066 2.74977 7.04518 3.01685ZM17.1052 3.77358C18.4674 4.12969 19.4289 5.34936 19.42 6.71147C19.411 7.58394 19.144 8.26945 18.5564 8.84812C17.8531 9.55144 17.3901 9.7384 16.3663 9.7384C15.6185 9.7384 15.4671 9.71169 15.0576 9.48912C14.381 9.14191 14.0338 8.79471 13.6955 8.16262C13.2949 7.41479 13.2237 6.44439 13.5085 5.67876C13.8469 4.77958 14.7015 4.01395 15.6452 3.76468C16.1972 3.61333 16.4999 3.61333 17.1052 3.77358ZM15.7253 10.6999C15.6986 11.0115 15.663 11.0738 15.4582 11.1272L15.209 11.1895V10.6732V10.1479L15.485 10.2459C15.7342 10.326 15.752 10.3705 15.7253 10.6999ZM5.05987 10.6999C5.05987 10.967 5.03316 11.1984 5.00645 11.2251C4.97975 11.2519 4.84621 11.2341 4.69486 11.1806C4.46339 11.0916 4.43668 11.0382 4.43668 10.7088C4.43668 10.3171 4.499 10.2459 4.86401 10.2369C5.04207 10.228 5.05987 10.2637 5.05987 10.6999ZM4.92633 11.875C5.56733 12.1866 6.22613 12.9078 6.4754 13.5666C6.74248 14.2699 6.70687 15.3026 6.38638 15.9703C6.11039 16.5579 5.52281 17.1366 4.89962 17.4214C4.47229 17.6262 4.26753 17.6618 3.63544 17.6618C3.00334 17.6618 2.79858 17.6262 2.37125 17.4214C1.43647 16.9852 0.795471 16.1484 0.608514 15.1156C0.33253 13.6111 1.37415 12.0442 2.89651 11.6525C3.45738 11.51 4.40107 11.6169 4.92633 11.875ZM5.05987 18.5788C5.05987 19.1575 5.19341 19.4067 5.56733 19.567C5.75428 19.6382 7.02737 19.6649 10.2502 19.6471L14.6748 19.6204L14.9152 19.38C15.1021 19.1842 15.1556 19.0328 15.1912 18.6144C15.2268 18.0891 15.2357 18.0802 15.4671 18.1426C15.6808 18.2049 15.6986 18.2494 15.7253 18.7568C15.752 19.4067 15.6007 19.7718 15.1823 20.021C14.9063 20.1902 14.7015 20.1991 10.0988 20.1991C5.44269 20.1991 5.29134 20.1902 5.01536 20.021C4.62364 19.7807 4.43668 19.3533 4.43668 18.7034C4.43668 18.1426 4.47229 18.098 4.90852 18.0713C5.03316 18.0624 5.05987 18.1426 5.05987 18.5788Z" fill="black"/>
<path d="M9.98324 2.0094C9.82299 2.07172 9.84079 2.47235 10.001 2.53466C10.1613 2.59698 10.4017 2.42783 10.4017 2.24978C10.4017 2.10733 10.1346 1.95599 9.98324 2.0094Z" fill="black"/>
<path d="M9.27064 8.43709C8.04206 8.85552 7.29424 10.1019 7.53461 11.3216C7.60583 11.6955 7.58803 11.8468 7.43668 12.2653C7.15179 13.0398 7.33875 13.2802 8.06877 13.0843C8.43378 12.9864 8.4961 13.0042 8.96795 13.2268C9.67126 13.574 10.5971 13.574 11.2559 13.2357C12.4489 12.6125 12.992 11.2593 12.5646 9.99507C12.351 9.37188 11.5853 8.62405 10.9443 8.41929C10.339 8.22343 9.85822 8.23233 9.27064 8.43709ZM11.0245 9.06919C11.7189 9.42529 12.1284 10.1019 12.1284 10.8942C12.1284 12.0338 11.2648 12.9152 10.1253 12.933C9.72468 12.9419 9.51992 12.8795 9.06588 12.6481C8.58513 12.3899 8.4783 12.3632 8.24683 12.4433C7.97975 12.5323 7.97975 12.5323 8.05097 12.292C8.09548 12.1584 8.11329 11.6777 8.09548 11.2236C8.07768 10.5292 8.10438 10.3423 8.26463 10.004C8.75428 8.98016 10.0274 8.55283 11.0245 9.06919Z" fill="black"/>
<path d="M9.33318 10.0052C9.17293 10.1921 9.11952 10.7975 9.24416 11.0201C9.3777 11.2783 10.1077 11.7412 10.3837 11.7412C10.8377 11.7412 11.3808 11.2249 11.2651 10.9044C11.1849 10.6907 10.9357 10.7352 10.7042 10.9845L10.4905 11.216L10.1344 11.029C9.7071 10.8153 9.64478 10.6996 9.77832 10.3702C9.92966 9.96957 9.59136 9.69359 9.33318 10.0052Z" fill="black"/>
<path d="M15.4583 13.1744C15.3159 13.2545 15.2981 13.4237 15.2981 14.679C15.2981 16.5663 15.2446 16.5307 16.8649 15.6138C18.0312 14.955 18.0668 14.9193 18.0401 14.6523C18.0134 14.403 17.9155 14.3229 16.856 13.7264C16.2239 13.3703 15.6809 13.0765 15.6542 13.0765C15.6275 13.0765 15.5384 13.121 15.4583 13.1744ZM16.9807 14.4386L17.3724 14.6612L16.6691 15.0707C16.2863 15.2933 15.9391 15.4802 15.9034 15.4802C15.8589 15.4802 15.8322 15.0974 15.8322 14.6345V13.7798L16.215 14.0024C16.4198 14.127 16.767 14.3229 16.9807 14.4386Z" fill="black"/>
<path d="M16.402 4.70718C16.0192 4.86742 15.8323 5.22353 15.8323 5.82892V6.38979L15.5029 6.4165C15.2091 6.44321 15.1646 6.46991 15.1646 6.66577C15.1646 6.86163 15.2091 6.88834 15.5029 6.91505L15.8323 6.94176V7.90325C15.8323 8.90926 15.9213 9.15853 16.2329 9.03389C16.3397 8.99828 16.3664 8.79352 16.3664 7.95667V6.93285H16.6691C17.2656 6.93285 17.3368 6.4343 16.7492 6.38089C16.4109 6.35418 16.4109 6.35418 16.3842 5.92685C16.3486 5.36598 16.4643 5.24134 16.9807 5.24134C17.4971 5.24134 17.7909 5.05438 17.6484 4.82291C17.5416 4.64486 16.7314 4.56473 16.402 4.70718Z" fill="black"/>
<path d="M3.66214 12.9521C3.5108 13.0322 3.31494 13.2281 3.23481 13.3972C3.06566 13.7623 2.89651 13.7534 2.37125 13.3349C1.97953 13.0233 1.81928 13.0144 1.64123 13.2726C1.34744 13.691 1.50769 14.7416 1.92612 15.1778L2.10417 15.3647L1.8905 15.4716C1.70355 15.5517 1.66794 15.6229 1.69464 15.8633C1.73026 16.2817 2.15759 16.4865 2.92322 16.4331C4.05386 16.3618 4.85511 15.801 5.22902 14.8217C5.32695 14.5724 5.4872 14.2074 5.58513 14.0115C5.8166 13.5753 5.8166 13.326 5.60294 13.1302C5.4783 13.0144 5.35366 12.9877 5.1578 13.0322C4.98865 13.0678 4.80169 13.0411 4.62364 12.9521C4.28533 12.7741 4.02716 12.7741 3.66214 12.9521ZM4.40107 13.4774C4.4901 13.5486 4.70376 13.6109 4.86401 13.6109C5.19341 13.6109 5.20231 13.6376 4.97975 13.9492C4.89072 14.0828 4.77498 14.3409 4.72157 14.5279C4.5079 15.2935 3.91142 15.7565 2.96773 15.8722L2.5226 15.9345L2.77187 15.7387C2.90541 15.6407 3.01225 15.5072 3.01225 15.4449C3.01225 15.3825 2.81639 15.16 2.56711 14.9552C2.24661 14.6881 2.11307 14.5012 2.06856 14.2697C2.04185 14.1006 2.03295 13.9403 2.05966 13.9136C2.07746 13.8869 2.23771 13.9492 2.39796 14.0471C2.73626 14.243 3.35945 14.3587 3.5108 14.2608C3.56421 14.2163 3.63544 14.0382 3.67105 13.8513C3.71556 13.6198 3.79569 13.4863 3.92923 13.4329C4.19631 13.326 4.20521 13.326 4.40107 13.4774Z" fill="black"/>
<path d="M2.10423 4.96634L1.81044 5.22452L1.78373 6.55103C1.73031 8.73219 1.83714 8.83902 4.01831 8.78561L5.34481 8.7589L5.60299 8.46511L5.86117 8.18022V6.7914C5.86117 4.71707 5.85227 4.70817 3.76903 4.70817H2.38911L2.10423 4.96634ZM5.18456 5.38477C5.38042 5.57173 5.39823 7.92204 5.20237 8.08229C5.12225 8.15352 4.6593 8.18022 3.76013 8.16242L2.43363 8.13571L2.40692 6.80921C2.38911 5.91003 2.41582 5.44709 2.48704 5.36697C2.64729 5.17111 4.99761 5.18891 5.18456 5.38477Z" fill="black"/>
<path d="M3.27039 6.1233C3.06562 6.32807 3.01221 6.46161 3.01221 6.7554C3.01221 7.25395 3.3149 7.55664 3.81345 7.55664C4.71263 7.55664 5.03312 6.39929 4.24968 5.98976C3.86687 5.7939 3.56418 5.83842 3.27039 6.1233ZM4.02712 6.54173C4.22298 6.72869 4.05382 7.04028 3.78674 7.00467C3.53747 6.96906 3.47515 6.66637 3.68881 6.51502C3.88467 6.37258 3.85796 6.37258 4.02712 6.54173Z" fill="black"/>
</svg>
