<svg width="20" height="20" viewBox="0 0 20 20" fill="none" xmlns="http://www.w3.org/2000/svg">
<circle cx="10" cy="10" r="9.5" fill="#FD9149" stroke="#FD9149"/>
<path d="M10.1008 6.02362C9.87028 6.08812 9.83902 6.11548 8.82295 7.12602C8.28756 7.65963 7.82447 8.1346 7.79321 8.18151C7.55092 8.54507 7.59977 9.02786 7.90849 9.33864C8.19377 9.62206 8.60997 9.69047 8.97927 9.51065C9.03007 9.48524 9.14926 9.38946 9.24501 9.29955L9.415 9.13536V10.9121C9.415 12.8139 9.41305 12.7768 9.5127 12.984C9.56937 13.0993 9.74718 13.2909 9.85855 13.3573C10.1399 13.5215 10.5268 13.5215 10.8082 13.3573C10.9196 13.2909 11.0974 13.0993 11.154 12.984C11.2537 12.7768 11.2517 12.8139 11.2517 10.9121V9.13536L11.4237 9.29955C11.6503 9.52042 11.8457 9.61033 12.0958 9.61033C12.7856 9.61229 13.2311 8.90276 12.9302 8.28315C12.8755 8.16587 12.7739 8.05837 11.8985 7.18075C11.3651 6.64518 10.8883 6.17999 10.8375 6.14871C10.7867 6.11548 10.6988 6.07053 10.6421 6.04903C10.5053 5.99625 10.2435 5.98453 10.1008 6.02362Z" fill="white"/>
<path d="M6.09328 12.2896C5.78846 12.3405 5.49731 12.5867 5.38203 12.8897C5.34295 12.9972 5.341 13.0324 5.33514 14.0762C5.32927 15.2665 5.33318 15.3251 5.45042 15.5304C5.52858 15.6653 5.66731 15.804 5.80213 15.8822C6.02684 16.0093 5.74547 16.0034 10.4018 15.9975L14.6224 15.9917L14.7357 15.9467C14.8979 15.8803 15.0757 15.7376 15.1734 15.5949C15.3277 15.3682 15.3238 15.4033 15.3316 14.2032C15.3375 13.0988 15.3336 12.9992 15.2574 12.8311C15.0874 12.4519 14.681 12.2251 14.2863 12.2877C14.13 12.3131 13.9346 12.3991 13.8193 12.4929C13.7079 12.5848 13.5848 12.7724 13.5379 12.9268C13.5027 13.0422 13.4988 13.1086 13.4988 13.609V14.1641H10.3353H7.16991L7.16405 13.5719C7.15623 12.8956 7.15037 12.8643 6.97647 12.6336C6.77521 12.3717 6.42154 12.233 6.09328 12.2896Z" fill="white"/>
</svg>
