<svg width="45" height="45" viewBox="0 0 45 45" fill="none" xmlns="http://www.w3.org/2000/svg">
<circle cx="22.5" cy="22.5" r="22" fill="url(#paint0_linear_6436_573)" stroke="#FFD3B6"/>
<path d="M17.9027 12.118C17.0268 12.4301 16.4027 13.0543 16.1208 13.8798C16.0302 14.1315 16 16.4368 16 22.2657V30.3093L16.2617 30.5509C16.7248 30.9838 17.047 30.8932 18.3859 30.0073L19.594 29.2221L20.3993 30.0073C21.1141 30.712 21.255 30.8026 21.5872 30.8026C21.9094 30.8026 22.0503 30.712 22.6846 30.0979C23.0872 29.7053 23.4497 29.3932 23.5 29.3932C23.5503 29.3932 23.9128 29.7153 24.3154 30.0979C24.9497 30.712 25.0906 30.8026 25.4128 30.8026C25.745 30.8026 25.8859 30.712 26.6007 30.0073L27.406 29.2221L28.6141 30.0073C29.953 30.8932 30.2752 30.9838 30.7383 30.5509L31 30.3093L30.9899 22.2254C30.9899 16.3059 30.9497 14.0509 30.8691 13.8194C30.6477 13.2153 30.1443 12.6415 29.5805 12.3294L29.0369 12.0274L23.651 12.0073C19.4128 11.9872 18.1846 12.0073 17.9027 12.118ZM28.896 14.1717L29.1879 14.4939V21.2892C29.1879 25.0241 29.1678 28.0845 29.1376 28.0845C29.1174 28.0845 28.745 27.8529 28.3221 27.5811C27.2248 26.8664 27.0436 26.8966 25.9966 27.9133L25.3725 28.5274L24.6174 27.8026C23.9631 27.1684 23.8322 27.0778 23.5 27.0778C23.1678 27.0778 23.0369 27.1684 22.3826 27.8026L21.6275 28.5274L21.0034 27.9133C19.9564 26.8966 19.7752 26.8664 18.6779 27.5811C18.255 27.8529 17.8826 28.0845 17.8624 28.0845C17.8322 28.0845 17.8121 25.0341 17.8121 21.2992V14.514L18.0638 14.2019C18.2047 14.0408 18.4262 13.8798 18.547 13.8596C18.6678 13.8294 20.9832 13.8194 23.6812 13.8294L28.604 13.8395L28.896 14.1717Z" fill="black"/>
<path d="M20.5704 16.8097C20.2986 16.9204 19.8456 17.464 19.765 17.7761C19.5939 18.4506 20.057 19.2157 20.7617 19.407C21.9496 19.7392 22.916 18.5815 22.3825 17.454C22.0905 16.8399 21.2449 16.5379 20.5704 16.8097Z" fill="black"/>
<path d="M22.8758 19.7488C21.1946 21.43 19.7953 22.8998 19.7651 23.0206C19.604 23.6246 20.0369 24.1582 20.6812 24.1582C21.0839 24.1582 21.1342 24.1179 24.1846 21.0575C26.9832 18.2488 27.2752 17.9267 27.2752 17.6246C27.2752 17.1515 26.8121 16.7085 26.3087 16.7085C25.9362 16.7085 25.7953 16.8293 22.8758 19.7488Z" fill="black"/>
<path d="M25.1007 21.6306C24.7584 21.842 24.4564 22.3857 24.4564 22.7883C24.4564 22.9393 24.5168 23.2112 24.5974 23.4024C25.0202 24.3991 26.641 24.4091 27.1041 23.4226C27.3155 22.9796 27.3155 22.6172 27.1141 22.1843C26.7819 21.4897 25.7752 21.2179 25.1007 21.6306Z" fill="black"/>
<defs>
<linearGradient id="paint0_linear_6436_573" x1="22.5" y1="14.7857" x2="22.5" y2="37.9286" gradientUnits="userSpaceOnUse">
<stop stop-color="#FFD588"/>
<stop offset="1" stop-color="#F8A88C"/>
</linearGradient>
</defs>
</svg>
