<svg width="45" height="45" viewBox="0 0 45 45" fill="none" xmlns="http://www.w3.org/2000/svg">
<circle cx="22.5" cy="22.5" r="22" fill="url(#paint0_linear_6436_576)" stroke="#FFD3B6"/>
<path d="M28.9523 9.46308C28.8263 9.88718 28.8515 9.99782 29.2923 10.6616L29.7834 11.3992H22.6056C15.8056 11.3992 15.4026 11.4176 15.2137 11.7311C14.9619 12.1368 14.9367 12.524 15.1508 12.8375C15.2641 13.0034 17.0775 13.0587 22.5175 13.0587C26.4841 13.0587 29.733 13.114 29.733 13.1878C29.733 13.2616 29.5315 13.6303 29.2797 13.9991C28.7634 14.7736 28.776 15.3821 29.3175 15.5665C29.5819 15.6771 29.7708 15.4927 30.6271 14.2388C31.1812 13.4459 31.6597 12.6346 31.6975 12.4318C31.7604 12.1736 31.5212 11.7127 30.7278 10.551C29.5819 8.87303 29.2167 8.63332 28.9523 9.46308Z" fill="black"/>
<path d="M15.3652 17.8351L15 18.3698V26.0589C15 34.1169 15.0252 34.5779 15.5667 34.8913C15.68 34.9466 16.3348 35.002 17.0274 35.002C18.1985 35.002 18.3119 34.9651 18.5889 34.541L18.9037 34.0984V26.1511V18.2039L18.5889 17.7613C18.3119 17.3372 18.1985 17.3003 17.0148 17.3003C15.7681 17.3003 15.7304 17.3188 15.3652 17.8351ZM17.8711 26.188L17.8333 33.4346L16.9896 33.4899L16.1333 33.5453V26.2433V18.9599H17.0148H17.8963L17.8711 26.188Z" fill="black"/>
<path d="M21.8757 17.7613L21.5483 18.2039V26.1511V34.0984L21.8631 34.541C22.1527 34.9651 22.2535 35.002 23.5001 35.002C24.7468 35.002 24.8475 34.9651 25.1372 34.541L25.452 34.0984V26.1511V18.2039L25.1246 17.7613C24.8098 17.3372 24.6838 17.3003 23.5001 17.3003C22.3164 17.3003 22.1905 17.3372 21.8757 17.7613ZM24.3186 26.2433V33.5268H23.5001H22.6816V26.2433V18.9599H23.5001H24.3186V26.2433Z" fill="black"/>
<path d="M28.411 17.7613L28.0962 18.2039V26.1511V34.0984L28.411 34.541C28.688 34.9651 28.8014 35.002 29.9725 35.002C30.6651 35.002 31.3199 34.9466 31.4332 34.8913C31.9747 34.5779 31.9999 34.1169 31.9999 26.0589V18.3698L31.6347 17.8351C31.2695 17.3188 31.2317 17.3003 29.9851 17.3003C28.8014 17.3003 28.688 17.3372 28.411 17.7613ZM30.8666 26.2433V33.5453L30.0229 33.4899L29.1666 33.4346L29.1288 26.188L29.1036 18.9599H29.9851H30.8666V26.2433Z" fill="black"/>
<defs>
<linearGradient id="paint0_linear_6436_576" x1="22.5" y1="14.7857" x2="22.5" y2="37.9286" gradientUnits="userSpaceOnUse">
<stop stop-color="#FFD588"/>
<stop offset="1" stop-color="#F8A88C"/>
</linearGradient>
</defs>
</svg>
