<svg width="15" height="15" viewBox="0 0 15 15" fill="none" xmlns="http://www.w3.org/2000/svg">
<path d="M0 3.38879V6.77734L3.37048 6.75927L6.73193 6.73216L6.75904 3.36168L6.77711 0.000235081H3.38855H0V3.38879ZM5.24096 3.34361V5.2412H3.34337H1.44578V3.40686C1.44578 2.39481 1.47289 1.53638 1.50904 1.50927C1.53614 1.47313 2.39458 1.44602 3.40663 1.44602H5.24096V3.34361Z" fill="black"/>
<path d="M8.24097 3.36168L8.26808 6.73216L11.6386 6.75927L15 6.77734V3.38879V0.000235081H11.6115H8.2229L8.24097 3.36168ZM13.5362 3.36168L13.5542 5.2412H11.6566H9.75905V3.34361V1.44602L11.6386 1.46409L13.509 1.4912L13.5362 3.36168Z" fill="black"/>
<path d="M0 11.6114V15H3.38855H6.77711L6.75904 11.6295L6.73193 8.26807L3.37048 8.24096L0 8.22289V11.6114ZM5.24096 11.6566V13.5542L3.37048 13.5361L1.49096 13.509L1.46386 11.6295L1.44578 9.75904H3.34337H5.24096V11.6566Z" fill="black"/>
<path d="M8.28615 8.28614C8.25001 8.31325 8.2229 9.84036 8.2229 11.6747V15H11.6115H15V11.6114V8.22289H11.6747C9.84037 8.22289 8.31326 8.25 8.28615 8.28614ZM13.5362 11.6295L13.509 13.509L11.6386 13.5361L9.75905 13.5542V11.6566V9.75904H11.6566H13.5542L13.5362 11.6295Z" fill="black"/>
</svg>
