<svg width="15" height="16" viewBox="0 0 15 16" fill="none" xmlns="http://www.w3.org/2000/svg">
<path d="M6.81712 0.29516L6.54846 0.57501V4.26904C6.55966 6.29516 6.52607 7.95188 6.49249 7.95188C6.45891 7.95188 5.97757 7.49292 5.42906 6.93322C4.86936 6.37352 4.27607 5.8474 4.09697 5.74665C3.49249 5.43322 2.79846 5.88098 2.79846 6.5974C2.79846 6.95561 2.97757 7.16829 4.89175 9.08247C7.08577 11.2989 7.33204 11.4668 7.91413 11.1646C8.08204 11.0638 9.12309 10.0899 10.2201 8.98173C12.0223 7.1571 12.2014 6.94441 12.2014 6.58621C12.2014 6.07128 11.7873 5.66829 11.2388 5.66829C10.8917 5.66829 10.7238 5.80262 9.70518 6.81009C9.07831 7.43695 8.51861 7.95188 8.47383 7.95188C8.42906 7.95188 8.39548 6.28397 8.39548 4.25785V0.552623L8.11563 0.283966C7.74622 -0.0966311 7.18652 -0.0966311 6.81712 0.29516Z" fill="black"/>
<path d="M0.291045 9.64197L0 9.86585V12.2166C0 14.4106 0.011194 14.5673 0.223881 14.78C0.447761 15.0039 0.593284 15.0039 7.47761 15.0039H14.5187L14.7537 14.7464C14.9888 14.5002 15 14.3882 15 12.2166C15 9.96659 15 9.9554 14.7201 9.68674C14.3955 9.35092 13.8918 9.32853 13.5336 9.61958C13.2761 9.82107 13.2649 9.92182 13.209 11.5002L13.153 13.1569H7.5H1.84701L1.79104 11.5002C1.73507 9.92182 1.72388 9.82107 1.46642 9.61958C1.1306 9.33973 0.660448 9.35092 0.291045 9.64197Z" fill="black"/>
</svg>
