<svg width="18" height="17" viewBox="0 0 18 17" fill="none" xmlns="http://www.w3.org/2000/svg">
<path d="M3.41675 2.17194V4.34375H3.88214H4.34753V2.63732V0.930898H7.7216H11.0957V2.09437V3.25784H12.2204H13.345V3.8008V4.34375H13.8492H14.3534V3.27336C14.3534 2.52873 14.3224 2.16418 14.2603 2.08661C14.206 2.01681 13.7018 1.52039 13.1434 0.985193L12.1195 0.000120163H7.76813H3.41675V2.17194ZM12.647 1.82289L13.1434 2.32706H12.6237H12.104V1.82289C12.104 1.54366 12.1118 1.31872 12.1273 1.31872C12.135 1.31872 12.3755 1.54366 12.647 1.82289Z" fill="black"/>
<path d="M0.973529 4.87816C0.577949 5.05656 0.190125 5.49092 0.0892904 5.87099C-0.0348133 6.30536 -0.0270569 11.6418 0.0970469 12.0452C0.228907 12.4718 0.733078 12.9914 1.12866 13.1C1.2993 13.1466 1.91982 13.1854 2.50156 13.1854H3.56419L3.58746 14.6125C3.61073 15.9234 3.62625 16.063 3.77362 16.2647C4.08388 16.6835 3.95202 16.6758 9.00149 16.6758C14.051 16.6758 13.9191 16.6835 14.2294 16.2647C14.3767 16.063 14.3922 15.9234 14.4155 14.6125L14.4388 13.1854H15.5014C16.0832 13.1854 16.6959 13.1466 16.8666 13.1C17.2932 12.9837 17.7973 12.4485 17.9059 12.0064C18.03 11.5255 18.03 6.41395 17.9137 5.9408C17.8051 5.50644 17.4328 5.05656 17.0372 4.87816C16.7347 4.73855 16.3469 4.73079 9.00149 4.73079C1.70264 4.73079 1.26828 4.73855 0.973529 4.87816ZM16.6726 5.77791C16.7968 5.83997 16.9131 5.94856 16.9441 6.01061C16.9674 6.08042 16.9907 7.42229 16.9907 8.9891V11.8435L16.789 12.0296C16.6028 12.208 16.533 12.2158 15.5092 12.2391L14.431 12.2701V11.5177C14.431 10.6412 14.3224 10.3077 13.9501 10.0828C13.7019 9.93539 13.5701 9.92763 9.00149 9.92763C4.43292 9.92763 4.30106 9.93539 4.05285 10.0828C3.6883 10.3077 3.57195 10.649 3.57195 11.5177V12.2546H2.53258C1.52424 12.2546 1.48546 12.2468 1.25276 12.0529L1.01231 11.8512V8.96583C1.01231 5.93304 1.01231 5.9408 1.36135 5.75464C1.46994 5.69259 3.72708 5.66932 8.98598 5.66157C15.3928 5.66157 16.4865 5.67708 16.6726 5.77791ZM13.4227 13.3017V15.745H9.00149H4.58029V13.3017V10.8584H9.00149H13.4227V13.3017Z" fill="black"/>
</svg>
