<svg width="45" height="45" viewBox="0 0 45 45" fill="none" xmlns="http://www.w3.org/2000/svg">
<circle cx="22.5" cy="22.5" r="22" fill="url(#paint0_linear_6436_559)" stroke="#FFD3B6"/>
<path d="M21.1692 10.7805C19.8887 12.071 19.4085 12.6112 19.4585 12.7313C19.4985 12.8513 19.6886 12.9013 20.2288 12.9213L20.9491 12.9514V16.5929V20.2344L20.3489 20.5545C20.0287 20.7346 19.4985 21.1047 19.1884 21.3948C18.8683 21.6749 18.5982 21.905 18.5681 21.905C18.5381 21.905 18.5581 19.364 18.5881 18.9838C18.5982 18.9438 18.8983 18.9038 19.2584 18.8838C20.4289 18.8338 20.4089 18.7637 18.4481 16.7929C17.5077 15.8626 16.6674 15.0422 16.5673 14.9922C16.4173 14.9022 16.1171 15.1623 14.6465 16.6229C12.5156 18.7237 12.4556 18.9038 13.8062 18.9038H14.3964V24.8563V30.8087H13.266C12.0154 30.8087 11.6453 30.9288 11.8554 31.2789C11.9654 31.449 12.4656 31.459 23.05 31.459C33.6344 31.459 34.1346 31.449 34.2446 31.2789C34.4547 30.9288 34.0845 30.8087 32.834 30.8087H31.7036V24.8563V18.9038H32.3438C33.0241 18.9038 33.2742 18.7637 33.1642 18.4336C33.0641 18.1335 29.8528 15.0022 29.6427 15.0022C29.5227 15.0022 28.7423 15.7125 27.7019 16.7529C25.6911 18.7637 25.6611 18.8338 26.8416 18.8838C27.2017 18.9038 27.5018 18.9438 27.5118 18.9838C27.5518 19.5041 27.5418 21.905 27.4918 21.905C27.4618 21.905 27.3117 21.765 27.1417 21.5949C26.7815 21.2148 26.1012 20.7246 25.561 20.4544L25.1509 20.2544V16.6029V12.9514L25.501 12.9313C25.6911 12.9313 26.0112 12.9213 26.2113 12.9113C26.9616 12.8913 26.8315 12.6812 24.9308 10.7805C23.9504 9.80005 23.1 8.99972 23.05 8.99972C22.99 8.99972 22.1396 9.80005 21.1692 10.7805ZM25.0308 12.3011L24.5506 12.3511L24.5206 16.1527L24.5006 19.9542H23.05H21.5994L21.5794 16.1527L21.5494 12.3511L21.0592 12.3211L20.569 12.2911L21.8095 11.0406L23.05 9.80005L24.2805 11.0206L25.511 12.2511L25.0308 12.3011ZM17.7478 17.003L18.9483 18.2035H18.5381C18.318 18.2035 18.0879 18.2535 18.0179 18.3236C17.9279 18.4136 17.8979 19.0839 17.8979 20.7246C17.8979 22.5653 17.8679 23.0755 17.7478 23.3056C17.1476 24.4661 17.1275 26.717 17.7078 27.9475C17.8578 28.2677 17.8979 28.5878 17.8979 29.5782V30.8087H16.4973H15.0967V24.6762C15.0967 21.2248 15.0567 18.4936 15.0067 18.4136C14.9567 18.3336 14.7266 18.2435 14.4965 18.2135L14.0663 18.1535L15.2568 16.973C15.907 16.3327 16.4573 15.8025 16.4973 15.8025C16.5273 15.8025 17.0875 16.3428 17.7478 17.003ZM30.8832 17.023L32.0737 18.2035H31.6635C31.4334 18.2035 31.1933 18.2535 31.1233 18.3236C31.0333 18.4136 31.0033 19.9542 31.0033 24.6262V30.8087H29.6027H28.2021V29.5782C28.2021 28.5778 28.2421 28.2677 28.3922 27.9475C28.9124 26.8671 28.9524 24.7862 28.4722 23.5957C28.2121 22.9555 28.2021 22.8955 28.2021 20.6745C28.2021 18.5437 28.1921 18.4036 28.012 18.3036C27.902 18.2535 27.6619 18.2035 27.4818 18.2035C27.1617 18.2035 27.1717 18.1835 28.3522 17.003C29.0124 16.3428 29.5827 15.8125 29.6227 15.8225C29.6627 15.8425 30.233 16.3828 30.8832 17.023ZM23.9003 20.6145C26.3313 21.0047 28.2021 23.2256 28.2021 25.7066C28.2021 28.0576 26.4714 30.2285 24.2005 30.7187C23.4602 30.8787 21.9795 30.7887 21.2893 30.5386C17.7478 29.2581 16.7574 24.7062 19.4385 22.0551C20.1688 21.3348 20.9991 20.8746 21.9495 20.6745C22.8099 20.4845 23.08 20.4745 23.9003 20.6145ZM18.8583 29.7283C18.9583 29.8383 19.3184 30.1384 19.6386 30.3785L20.2288 30.8187L19.3985 30.7887L18.5581 30.7587L18.5481 30.1284C18.5381 29.7883 18.5681 29.5082 18.5982 29.5082C18.6382 29.5082 18.7482 29.6082 18.8583 29.7283ZM27.5819 30.1484L27.6119 30.7887L26.7615 30.8287C26.2813 30.8487 25.9012 30.8387 25.9012 30.8087C25.9012 30.7787 26.1213 30.6086 26.3814 30.4386C26.6515 30.2585 26.9916 29.9784 27.1517 29.8083C27.3117 29.6482 27.4618 29.5082 27.4918 29.5082C27.5218 29.5082 27.5618 29.7983 27.5819 30.1484Z" fill="black"/>
<path d="M21.7495 21.7845C21.0192 22.0446 20.579 22.3348 20.0187 22.955C19.1284 23.9254 18.7682 25.0859 18.9783 26.3064C19.5686 29.7478 23.7403 31.0083 26.0913 28.4573C27.6219 26.7966 27.5118 24.2856 25.8411 22.7049C25.0308 21.9346 24.3605 21.6645 23.2001 21.6345C22.4898 21.6145 22.1196 21.6545 21.7495 21.7845ZM24.0904 22.3948C25.1309 22.7149 25.8612 23.3952 26.2813 24.4356C26.6115 25.266 26.5714 26.4064 26.1713 27.2268C25.501 28.5973 23.9604 29.3677 22.4598 29.0976C20.7891 28.7974 19.7086 27.5669 19.6186 25.8662C19.5686 24.7958 19.8287 24.0755 20.529 23.3352C21.4994 22.3047 22.7499 21.9746 24.0904 22.3948Z" fill="black"/>
<path d="M21.7494 24.0068C21.7194 24.0668 21.7194 24.1969 21.7494 24.3069C21.7995 24.467 21.8995 24.507 22.2296 24.507C22.6398 24.507 23.1 24.7171 23.1 24.9172C23.1 24.9672 22.8099 25.0072 22.4597 25.0072C21.7795 25.0072 21.6494 25.0772 21.7494 25.4074C21.7995 25.5774 21.8995 25.6074 22.4597 25.6074C22.8099 25.6074 23.1 25.6475 23.1 25.6975C23.1 25.8675 22.6098 26.1076 22.2697 26.1076C21.9295 26.1076 21.6494 26.3077 21.7194 26.4978C21.7294 26.5478 22.1196 26.978 22.5798 27.4582C23.4101 28.3186 23.7203 28.4786 23.7803 28.0585C23.8003 27.9284 23.6202 27.6483 23.3001 27.2881L22.7999 26.7279L23.15 26.5178C23.3401 26.4078 23.5702 26.1577 23.6702 25.9676C23.7803 25.7175 23.9103 25.6074 24.0904 25.5874C24.2905 25.5674 24.3505 25.4974 24.3505 25.3073C24.3505 25.1072 24.2905 25.0472 24.0504 25.0072C23.8403 24.9672 23.7403 24.8971 23.7203 24.7271C23.6902 24.547 23.7303 24.507 23.9303 24.507C24.2205 24.507 24.4506 24.2769 24.3605 24.0568C24.3205 23.9368 24.0804 23.9067 23.06 23.9067C22.3297 23.9067 21.7895 23.9468 21.7494 24.0068Z" fill="black"/>
<defs>
<linearGradient id="paint0_linear_6436_559" x1="22.5" y1="14.7857" x2="22.5" y2="37.9286" gradientUnits="userSpaceOnUse">
<stop stop-color="#FFD588"/>
<stop offset="1" stop-color="#F8A88C"/>
</linearGradient>
</defs>
</svg>
