<svg width="12" height="13" viewBox="0 0 12 13" fill="none" xmlns="http://www.w3.org/2000/svg">
<path d="M4.07045 0.0712566C2.13953 0.445674 0.647207 1.83637 0.128372 3.74589C-0.0427905 4.37705 -0.0427905 5.65007 0.128372 6.26518C0.604416 7.9982 1.86674 9.29261 3.59975 9.82215C4.02766 9.95052 4.15603 9.96656 4.953 9.96656C5.65905 9.97191 5.91044 9.95052 6.20463 9.87029C6.7609 9.72052 7.25834 9.50122 7.6916 9.21238C7.90555 9.07331 8.10345 8.94494 8.1302 8.93424C8.15159 8.92355 8.86299 9.60284 9.7081 10.4426C10.7404 11.4749 11.286 11.9831 11.393 12.0098C11.73 12.09 12.0723 11.7424 11.9867 11.4054C11.9653 11.3091 11.4251 10.7261 10.4248 9.72587C9.58508 8.88075 8.90578 8.16936 8.91647 8.14797C8.92717 8.12122 9.05554 7.92332 9.19461 7.70936C9.48345 7.27611 9.70275 6.77867 9.85252 6.22239C9.93275 5.92821 9.95414 5.67681 9.9488 4.97077C9.9488 4.1738 9.93275 4.04543 9.80438 3.61752C9.27484 1.88985 7.95904 0.60079 6.26346 0.151489C5.71788 0.0070715 4.61068 -0.0357189 4.07045 0.0712566ZM5.94788 1.11963C7.33857 1.47799 8.34415 2.41404 8.8095 3.79403C8.96461 4.25938 8.98066 4.36101 8.98601 4.97077C8.98601 5.45216 8.95926 5.73565 8.88973 5.9817C8.55275 7.20123 7.74508 8.16401 6.64323 8.66145C6.05486 8.92889 5.68579 9.00378 4.953 9.00378C4.34324 8.99843 4.24161 8.98238 3.77626 8.82727C2.38557 8.35657 1.45488 7.34564 1.09651 5.93356C0.936043 5.29705 0.968135 4.3824 1.17674 3.76729C1.63139 2.41939 2.77069 1.38706 4.12394 1.09288C4.62672 0.980556 5.45579 0.996602 5.94788 1.11963Z" fill="black"/>
</svg>
