<svg width="46" height="45" viewBox="0 0 46 45" fill="none" xmlns="http://www.w3.org/2000/svg">
<path d="M45.5 22.5C45.5 34.64 35.4368 44.5 23 44.5C10.5632 44.5 0.5 34.64 0.5 22.5C0.5 10.36 10.5632 0.5 23 0.5C35.4368 0.5 45.5 10.36 45.5 22.5Z" fill="url(#paint0_linear_6436_576)" stroke="#FFD3B6"/>
<path d="M20.3837 10.082C20.2581 10.1343 19.986 10.3018 19.7663 10.4483C19.536 10.5948 19.2535 10.7204 19.1174 10.7204C18.9814 10.7204 18.8244 10.8146 18.7616 10.9297C18.6779 11.0971 18.814 11.4529 19.557 12.9495L20.4674 14.7599L20.1744 15.0739C19.9128 15.346 19.8919 15.4297 19.9442 15.9634L19.9965 16.5495L19.557 16.6855C17.7256 17.2297 15.8419 18.8832 14.9 20.7669C14.0314 22.4936 14 22.7657 14 27.7262C14 31.975 14 32.0169 14.2302 32.4564C14.3872 32.7285 14.6384 33.0006 14.9209 33.1681L15.3814 33.4297H23H30.6186L31.0791 33.1681C31.3616 33.0006 31.6128 32.7285 31.7698 32.4564C32 32.0169 32 31.975 32 27.7262C32 22.7657 31.9686 22.4936 31.1 20.7669C30.1581 18.8727 28.2744 17.2297 26.4326 16.6855C26.1709 16.6018 25.9826 16.4867 25.9826 16.3925C25.9826 16.225 26.1814 16.2564 26.9244 16.539C27.6151 16.8006 28.0651 16.6855 28.7663 16.0471C29.3942 15.482 29.614 15.4297 30.1058 15.7436C30.2942 15.8483 30.6395 15.9739 30.8802 16.0157C31.2674 16.0785 31.3198 16.0576 31.3198 15.8902C31.3198 15.482 31.1837 15.2204 30.9849 15.2204C30.8802 15.2204 30.6081 15.1262 30.3779 15.0111C29.6349 14.6343 28.7244 14.8227 28.264 15.4402C28.1384 15.6076 27.8977 15.7855 27.7302 15.8483C27.3012 15.9948 27.2488 15.9006 27.636 15.7018C28.0547 15.482 28.3581 15.0425 28.4837 14.4774C28.6198 13.8495 28.9965 13.546 29.6035 13.546C29.8651 13.546 30.2105 13.4727 30.3884 13.389L30.6919 13.2215L30.4721 12.9181C30.2837 12.6669 30.2105 12.6355 29.9907 12.7192C29.8547 12.7715 29.5721 12.8134 29.3628 12.8134C28.5884 12.8134 27.7616 13.525 27.7616 14.1948C27.7616 14.3413 27.6465 14.6134 27.5 14.7808C27.2802 15.0425 27.1442 15.0948 26.6 15.1471C26.0558 15.1995 25.9302 15.1681 25.7523 14.9902L25.5326 14.7704L26.443 12.9495C27.186 11.4529 27.3221 11.0971 27.2384 10.9297C27.1756 10.8146 27.0186 10.7204 26.893 10.7204C26.757 10.7204 26.4012 10.5529 26.0872 10.3436C25.564 10.0088 25.4593 9.97736 24.8733 10.0088C24.3605 10.0402 24.1512 10.1134 23.7849 10.3855C23.1884 10.8146 22.8116 10.825 22.2151 10.3855C21.8593 10.1239 21.6395 10.0402 21.1791 10.0192C20.8547 10.0088 20.4988 10.0297 20.3837 10.082ZM21.9012 11.0867C22.3512 11.3797 22.5709 11.4529 23 11.4529C23.4291 11.4529 23.6488 11.3797 24.0988 11.0867C24.8209 10.6367 25.1977 10.6157 25.7105 11.0239C25.9302 11.1913 26.15 11.3588 26.2233 11.3797C26.307 11.4111 26.0663 11.9971 25.543 13.0646L24.7267 14.6971H23H21.2733L20.457 13.0646C19.9337 11.9971 19.693 11.4111 19.7767 11.3797C19.85 11.3588 20.0698 11.1913 20.2895 11.0239C20.8023 10.6157 21.1791 10.6367 21.9012 11.0867ZM25.2291 15.5553C25.4174 15.7436 25.3756 16.0367 25.1558 16.1622C24.8837 16.2983 21.1163 16.2983 20.8442 16.1622C20.6244 16.0367 20.5826 15.7436 20.7709 15.5553C20.9488 15.3774 25.0512 15.3774 25.2291 15.5553ZM26.0349 17.3448C28.4837 18.1506 30.3779 20.1599 31.0163 22.6297C31.1942 23.3413 31.2151 23.8122 31.2151 27.7053V31.9855L30.8593 32.3413L30.5035 32.6971H23H15.4965L15.1407 32.3413L14.7849 31.9855V27.7053C14.7849 23.8122 14.8058 23.3413 14.9837 22.6297C15.5698 20.3483 17.3593 18.3181 19.4837 17.5122C20.6453 17.0727 21.2209 16.9995 23.2616 17.0413C25.0198 17.0622 25.2709 17.0936 26.0349 17.3448Z" fill="black"/>
<path d="M22.3721 19.7834C21.1477 19.9718 20.1431 20.4532 19.2535 21.2904C17.7047 22.7346 17.1291 25.0055 17.8198 26.9834C18.5942 29.2334 20.6454 30.709 23 30.709C25.3547 30.709 27.4059 29.2334 28.1803 26.9834C29.1849 24.0846 27.4791 20.8404 24.5175 19.9927C23.8791 19.8148 22.8535 19.7206 22.3721 19.7834ZM24.4024 20.7567C27.364 21.6776 28.6617 25.2985 26.9454 27.8101C25.5535 29.8299 23.0524 30.5206 20.907 29.4636C20.2477 29.1392 19.3373 28.302 18.9605 27.6741C17.4012 25.1206 18.6989 21.6776 21.5663 20.7567C22.3721 20.5055 23.5861 20.5055 24.4024 20.7567Z" fill="black"/>
<path d="M20.7187 22.7654C20.3105 23.0793 20.1536 23.6758 20.3733 24.1363C20.771 24.9735 21.828 25.0781 22.3931 24.3247C22.728 23.8851 22.5815 23.0584 22.1001 22.713C21.7547 22.4723 21.0536 22.4933 20.7187 22.7654ZM21.6291 23.3409C21.8594 23.4247 21.8384 23.8747 21.6082 24.0002C21.3466 24.1363 21.064 23.9479 21.064 23.6444C21.064 23.3409 21.2943 23.2154 21.6291 23.3409Z" fill="black"/>
<path d="M22.7384 25.0049L20.3838 27.3596L20.6454 27.6212L20.907 27.8828L23.2617 25.5282L25.6163 23.1735L25.3547 22.9119L25.0931 22.6503L22.7384 25.0049Z" fill="black"/>
<path d="M23.9 25.8537C23.4186 26.199 23.2721 27.0257 23.607 27.4653C24.1721 28.2188 25.2291 28.1141 25.6267 27.2769C25.8465 26.8164 25.6895 26.2199 25.2814 25.906C24.9465 25.6339 24.2453 25.613 23.9 25.8537ZM24.7686 26.4816C24.9988 26.5653 24.9779 27.0153 24.7477 27.1409C24.486 27.2769 24.2035 27.0885 24.2035 26.785C24.2035 26.4816 24.4337 26.356 24.7686 26.4816Z" fill="black"/>
<defs>
<linearGradient id="paint0_linear_6436_576" x1="23" y1="14.7857" x2="23" y2="37.9286" gradientUnits="userSpaceOnUse">
<stop stop-color="#FFD588"/>
<stop offset="1" stop-color="#F8A88C"/>
</linearGradient>
</defs>
</svg>
