<svg width="45" height="45" viewBox="0 0 45 45" fill="none" xmlns="http://www.w3.org/2000/svg">
<circle cx="22.5" cy="22.5" r="22" fill="url(#paint0_linear_6436_566)" stroke="#FFD3B6"/>
<path d="M17.2797 14.1835C17.1119 14.3217 17.0428 14.4698 17.0527 14.7462C17.0527 15.0916 17.2797 15.4272 19.4414 18.2699C20.7542 19.9874 21.8695 21.4878 21.9288 21.5963C22.1657 22.0306 22.0373 22.2478 19.6191 25.4557C18.3063 27.2226 17.1711 28.7525 17.1021 28.871C16.9441 29.1868 16.9639 29.4336 17.2008 29.7297L17.3982 29.9863H22.1262C26.7555 29.9863 26.8641 29.9863 26.9628 29.7889C27.0417 29.6409 27.0022 29.3053 26.7752 28.3478C26.6173 27.6667 26.4692 27.0844 26.4495 27.0745C26.4298 27.0548 26.1731 27.0942 25.877 27.1633C25.2749 27.3015 25.265 27.3114 25.4328 28.3281L25.5118 28.792L22.3631 28.7722C19.6289 28.7525 19.2144 28.7328 19.1847 28.6044C19.1749 28.5156 19.5203 27.9629 19.9645 27.3706C22.7678 23.6099 23.8042 22.1491 23.8042 21.9319C23.8042 21.7148 23.4883 21.2706 20.3791 17.1842C19.7079 16.3057 19.165 15.5161 19.165 15.4272C19.165 15.2989 19.5598 15.2792 22.3631 15.2792H25.5611L25.423 15.7924C25.1959 16.6808 25.2058 16.7203 25.8474 16.8486C26.1534 16.9078 26.4199 16.9374 26.4396 16.9177C26.4594 16.8979 26.6074 16.3353 26.7654 15.6641C27.0319 14.5586 27.0417 14.4204 26.9035 14.223L26.7654 13.996H22.136C17.7436 13.996 17.4969 14.0059 17.2797 14.1835Z" fill="black"/>
<defs>
<linearGradient id="paint0_linear_6436_566" x1="22.5" y1="14.7857" x2="22.5" y2="37.9286" gradientUnits="userSpaceOnUse">
<stop stop-color="#FFD588"/>
<stop offset="1" stop-color="#F8A88C"/>
</linearGradient>
</defs>
</svg>
