<svg width="36" height="30" viewBox="0 0 36 30" fill="none" xmlns="http://www.w3.org/2000/svg">
<path fill-rule="evenodd" clip-rule="evenodd" d="M26.958 0.298641C26.8359 0.462959 26.551 1.04909 26.3249 1.60138L25.9141 2.60534L26.5392 4.68826C26.883 5.83385 27.1642 6.79334 27.1642 6.82055C27.1642 6.84776 26.4834 6.84126 25.6512 6.80622C21.1726 6.61721 17.2054 8.72548 15.2001 12.3603C13.1205 16.13 13.7879 20.7805 16.8572 23.9068C17.643 24.7071 19.4493 26.0149 19.7689 26.0149C19.953 26.0149 21.5343 24.7179 21.5343 24.567C21.5343 24.5123 21.2017 24.3229 20.7954 24.1462C20.3401 23.9482 19.6489 23.4428 18.9948 22.8294C17.3042 21.2442 16.6082 19.696 16.6082 17.5203C16.6082 15.4969 17.2809 13.8839 18.7381 12.4138C20.2251 10.9135 22.2151 10.0757 24.3493 10.0514C27.1646 10.0195 29.5655 11.1938 31.096 13.3518C33.0732 16.1396 32.9038 19.6365 30.6629 22.2905C29.9592 23.1242 28.4591 24.145 27.3452 24.5484C26.5742 24.8277 26.4872 24.9073 25.7114 26.0457L24.892 27.2481L25.7881 27.1616C27.1175 27.0331 28.6329 26.5977 29.905 25.9788C31.4935 25.2059 33.4845 23.3283 34.304 21.8304C36.089 18.5679 36.0003 14.8762 34.0634 11.8015C33.4104 10.7651 32.1105 9.39152 31.251 8.82981C30.9385 8.62567 30.6832 8.42193 30.6835 8.37707C30.6837 8.33221 31.6656 7.82943 32.8655 7.25962C35.2644 6.12041 35.2086 6.1727 35.7609 4.54425C36.0462 3.70328 36.0618 3.55648 35.8837 3.39481C35.6521 3.18484 27.6671 0 27.3718 0C27.2664 0 27.0802 0.134322 26.958 0.298641ZM3.20017 8.15223C1.43999 9.86191 0 11.3502 0 11.4594C0 11.7562 1.52936 13.3681 1.95385 13.5187C2.15653 13.5907 3.33064 13.7142 4.56289 13.7934C5.79527 13.8726 6.823 13.9557 6.84679 13.9781C6.87058 14.0005 6.60513 14.5528 6.25678 15.2055C5.413 16.7867 5.06662 18.1344 5.06789 19.8311C5.07 22.7508 6.19865 25.2544 8.39712 27.2164C9.42289 28.1318 9.82529 28.3981 11.0782 28.9911C13.1815 29.9866 16.0179 30.2715 18.4189 29.7288C21.7027 28.9863 24.5581 26.6398 25.8511 23.6211C27.3779 20.0566 26.5762 15.8861 23.8085 12.9942L23.0565 12.2086L22.2429 12.6176C21.7953 12.8425 21.2347 13.2164 20.9971 13.4484L20.565 13.8702L21.3587 14.4675C22.2992 15.1753 23.327 16.5464 23.776 17.6923C24.1755 18.7111 24.3187 20.6938 24.0737 21.8073C23.6209 23.8639 21.907 25.9678 19.9506 26.8685C16.6253 28.3995 13.249 27.8953 10.6944 25.4863C8.2074 23.1408 7.63554 19.9379 9.15983 16.8903C9.49988 16.2102 9.90579 15.7175 10.8411 14.8492C11.7313 14.0228 12.102 13.5801 12.1746 13.2565C12.23 13.01 12.4901 12.2626 12.7527 11.5955C13.3483 10.0826 13.3576 9.92098 12.8432 10.0368C12.0625 10.2128 10.6119 10.7712 10.0857 11.0984C9.78827 11.2833 9.52507 11.4152 9.50072 11.3915C9.47637 11.3677 9.35097 10.4823 9.2219 9.42377C9.09298 8.36526 8.92408 7.30595 8.84667 7.06969C8.69269 6.60023 6.97825 5.04371 6.61512 5.04371C6.49689 5.04371 4.96022 6.44254 3.20017 8.15223Z" fill="url(#paint0_linear_7995_25)"/>
<defs>
<linearGradient id="paint0_linear_7995_25" x1="18" y1="0" x2="18" y2="30" gradientUnits="userSpaceOnUse">
<stop stop-color="#F77433"/>
<stop offset="1" stop-color="#FEAF38"/>
</linearGradient>
</defs>
</svg>
