<svg width="196" height="30" viewBox="0 0 196 30" fill="none" xmlns="http://www.w3.org/2000/svg">
<path d="M50.4198 17.0828C48.7941 17.0828 47.4255 16.8036 46.3139 16.2452C45.2162 15.6738 44.3895 14.8622 43.8337 13.8104C43.2779 12.7586 43 11.5055 43 10.0511C43 8.59675 43.2918 7.34365 43.8754 6.29182C44.4728 5.24 45.3204 4.4284 46.4181 3.85704C47.5297 3.28568 48.8636 3 50.4198 3C51.4897 3 52.4207 3.14284 53.2127 3.42852C54.0047 3.70122 54.7133 4.10377 55.3386 4.63617L54.5674 6.21391C54.1228 5.8633 53.692 5.58411 53.2752 5.37634C52.8583 5.16858 52.4276 5.01924 51.983 4.92835C51.5383 4.82446 51.0173 4.77252 50.4198 4.77252C48.7385 4.77252 47.4602 5.2335 46.5848 6.15547C45.7095 7.07744 45.2718 8.38248 45.2718 10.0706C45.2718 11.7847 45.6886 13.0897 46.5223 13.9857C47.3699 14.8817 48.6969 15.3297 50.5032 15.3297C51.1284 15.3297 51.7468 15.2778 52.3581 15.1739C52.9695 15.057 53.56 14.8882 54.1297 14.6675L53.7129 15.6219V11.1224H50.0863V9.60312H55.5261V16.0894C54.887 16.388 54.1019 16.6283 53.171 16.8101C52.2539 16.9919 51.3369 17.0828 50.4198 17.0828Z" fill="black"/>
<path d="M56.9403 16.9075L63.4847 3.1753H65.3397L71.9883 16.9075H69.7582L67.945 13.0118L68.862 13.5572H59.9624L60.942 13.0118L59.1287 16.9075H56.9403ZM64.3809 5.39582L61.2129 12.3885L60.7127 11.9405H68.1117L67.6949 12.3885L64.4643 5.39582H64.3809Z" fill="black"/>
<path d="M73.5658 16.9075V3.1753H79.7768C81.3469 3.1753 82.5627 3.52591 83.4242 4.22713C84.2856 4.91536 84.7164 5.88278 84.7164 7.12938C84.7164 7.94747 84.5218 8.64869 84.1328 9.23303C83.7437 9.81738 83.1949 10.2654 82.4863 10.577C81.7776 10.8757 80.9439 11.025 79.9852 11.025L80.3187 10.7134H80.8814C81.4511 10.7134 81.9583 10.8497 82.4029 11.1224C82.8614 11.3951 83.2366 11.8301 83.5284 12.4275L85.6334 16.9075H83.2574L81.1732 12.408C80.9648 11.8756 80.6383 11.5315 80.1936 11.3756C79.7629 11.2198 79.2279 11.1419 78.5888 11.1419H75.7334V16.9075H73.5658ZM75.7334 9.60312H79.4225C80.4646 9.60312 81.2496 9.39535 81.7776 8.97982C82.3195 8.56428 82.5905 7.96695 82.5905 7.18782C82.5905 6.39571 82.3195 5.79837 81.7776 5.39582C81.2496 4.99327 80.4646 4.792 79.4225 4.792H75.7334V9.60312Z" fill="black"/>
<path d="M87.7336 16.9075V3.1753H89.401L98.4256 14.2389H97.9046V3.1753H99.9263V16.9075H98.2797L89.2759 5.84382H89.7553V16.9075H87.7336Z" fill="black"/>
<path d="M103 16.9075V3.1753H112.63V4.792H105.106V9.11616H112.15V10.7523H105.106V15.2713H112.63V16.9075H103Z" fill="black"/>
<path d="M118.289 16.9075V4.86991H113.266V3.1753H125.479V4.86991H120.456V16.9075H118.289Z" fill="black"/>
<path d="M132.335 16.9075V3.1753H134.503V15.1739H141.714V16.9075H132.335Z" fill="black"/>
<path d="M141.562 16.9075L148.106 3.1753H149.961L156.61 16.9075H154.38L152.567 13.0118L153.484 13.5572H144.584L145.564 13.0118L143.75 16.9075H141.562ZM149.003 5.39582L145.835 12.3885L145.334 11.9405H152.733L152.316 12.3885L149.086 5.39582H149.003Z" fill="black"/>
<path d="M158.187 16.9075V3.1753H159.855L168.879 14.2389H168.358V3.1753H170.38V16.9075H168.734L159.73 5.84382H160.209V16.9075H158.187Z" fill="black"/>
<path d="M173.454 16.9075V3.1753H183.083V4.792H175.559V9.11616H182.604V10.7523H175.559V15.2713H183.083V16.9075H173.454Z" fill="black"/>
<path d="M185.403 16.9075V3.1753H195.033V4.792H187.509V9.11616H194.553V10.7523H187.509V15.2713H195.033V16.9075H185.403Z" fill="black"/>
<path d="M47.2949 27.1497H45.6117V21.6951H47.3695C47.8986 21.6951 48.3514 21.8043 48.7278 22.0227C49.1042 22.2393 49.3928 22.5509 49.5934 22.9575C49.794 23.3624 49.8944 23.8471 49.8944 24.4117C49.8944 24.9799 49.7931 25.4691 49.5907 25.8792C49.3883 26.2876 49.0936 26.6019 48.7065 26.8221C48.3194 27.0405 47.8489 27.1497 47.2949 27.1497ZM46.2722 26.5637H47.2523C47.7033 26.5637 48.0771 26.4767 48.3736 26.3027C48.6701 26.1287 48.8912 25.881 49.0368 25.5596C49.1824 25.2383 49.2551 24.8556 49.2551 24.4117C49.2551 23.9714 49.1832 23.5923 49.0394 23.2745C48.8956 22.9549 48.6808 22.7098 48.3949 22.5394C48.109 22.3672 47.753 22.2811 47.3269 22.2811H46.2722V26.5637ZM52.1209 27.2455C51.8617 27.2455 51.6264 27.1967 51.4151 27.0991C51.2038 26.9996 51.036 26.8567 50.9118 26.6703C50.7875 26.482 50.7253 26.2548 50.7253 25.9884C50.7253 25.7541 50.7715 25.5641 50.8638 25.4185C50.9561 25.2711 51.0795 25.1557 51.234 25.0722C51.3885 24.9888 51.5589 24.9266 51.7454 24.8858C51.9336 24.8432 52.1227 24.8095 52.3127 24.7846C52.5613 24.7526 52.7628 24.7287 52.9173 24.7127C53.0735 24.6949 53.1871 24.6656 53.2582 24.6248C53.331 24.584 53.3674 24.5129 53.3674 24.4117V24.3904C53.3674 24.1276 53.2955 23.9235 53.1516 23.7779C53.0096 23.6323 52.7939 23.5595 52.5044 23.5595C52.2044 23.5595 51.9691 23.6252 51.7987 23.7565C51.6282 23.8879 51.5083 24.0282 51.4391 24.1774L50.8425 23.9643C50.949 23.7157 51.0911 23.5222 51.2686 23.3837C51.448 23.2434 51.6433 23.1458 51.8546 23.0907C52.0676 23.0339 52.2772 23.0055 52.4831 23.0055C52.6145 23.0055 52.7654 23.0215 52.9359 23.0534C53.1081 23.0836 53.2741 23.1466 53.4339 23.2425C53.5955 23.3384 53.7296 23.4831 53.8361 23.6766C53.9426 23.8702 53.9959 24.1294 53.9959 24.4543V27.1497H53.3674V26.5957H53.3354C53.2928 26.6845 53.2218 26.7795 53.1223 26.8807C53.0229 26.9819 52.8906 27.068 52.7255 27.139C52.5604 27.21 52.3588 27.2455 52.1209 27.2455ZM52.2168 26.6809C52.4654 26.6809 52.6749 26.6321 52.8453 26.5344C53.0176 26.4368 53.1472 26.3107 53.2342 26.1562C53.323 26.0018 53.3674 25.8393 53.3674 25.6688V25.0936C53.3407 25.1255 53.2821 25.1548 53.1916 25.1814C53.1028 25.2063 52.9998 25.2285 52.8826 25.248C52.7672 25.2658 52.6545 25.2818 52.5444 25.296C52.4361 25.3084 52.3482 25.319 52.2807 25.3279C52.1174 25.3492 51.9647 25.3839 51.8226 25.4318C51.6824 25.478 51.5687 25.5481 51.4817 25.6422C51.3965 25.7345 51.3539 25.8606 51.3539 26.0204C51.3539 26.2388 51.4347 26.4039 51.5962 26.5158C51.7596 26.6259 51.9664 26.6809 52.2168 26.6809ZM55.026 27.1497V26.6703L57.3484 23.6873V23.6447H55.1005V23.0587H58.1581V23.5595L55.8995 26.5211V26.5637H58.2326V27.1497H55.026ZM59.0836 27.1497V26.6703L61.406 23.6873V23.6447H59.1582V23.0587H62.2157V23.5595L59.9572 26.5211V26.5637H62.2903V27.1497H59.0836ZM63.8869 21.6951V27.1497H63.2584V21.6951H63.8869ZM65.0382 27.1497V23.0587H65.6667V27.1497H65.0382ZM65.3578 22.3769C65.2353 22.3769 65.1296 22.3352 65.0408 22.2518C64.9538 22.1683 64.9103 22.068 64.9103 21.9508C64.9103 21.8336 64.9538 21.7333 65.0408 21.6498C65.1296 21.5664 65.2353 21.5247 65.3578 21.5247C65.4803 21.5247 65.585 21.5664 65.6721 21.6498C65.7608 21.7333 65.8052 21.8336 65.8052 21.9508C65.8052 22.068 65.7608 22.1683 65.6721 22.2518C65.585 22.3352 65.4803 22.3769 65.3578 22.3769ZM67.4465 24.6887V27.1497H66.818V23.0587H67.4252V23.698H67.4785C67.5744 23.4902 67.7199 23.3233 67.9153 23.1972C68.1106 23.0694 68.3627 23.0055 68.6717 23.0055C68.9486 23.0055 69.191 23.0623 69.3987 23.1759C69.6065 23.2878 69.7681 23.4583 69.8835 23.6873C69.9989 23.9146 70.0566 24.2022 70.0566 24.5502V27.1497H69.428V24.5928C69.428 24.2715 69.3446 24.0211 69.1777 23.8418C69.0108 23.6607 68.7817 23.5701 68.4905 23.5701C68.2899 23.5701 68.1106 23.6136 67.9525 23.7006C67.7963 23.7876 67.6729 23.9146 67.5823 24.0815C67.4918 24.2484 67.4465 24.4508 67.4465 24.6887ZM72.8564 28.769C72.5528 28.769 72.2918 28.7299 72.0734 28.6518C71.855 28.5754 71.673 28.4742 71.5274 28.3482C71.3836 28.2239 71.2691 28.0907 71.1839 27.9487L71.6846 27.5971C71.7414 27.6717 71.8133 27.7569 71.9003 27.8528C71.9873 27.9504 72.1063 28.0348 72.2572 28.1058C72.4099 28.1786 72.6096 28.215 72.8564 28.215C73.1867 28.215 73.4593 28.1351 73.6741 27.9753C73.8889 27.8155 73.9964 27.5651 73.9964 27.2242V26.3933H73.9431C73.8969 26.4678 73.8312 26.5602 73.746 26.6703C73.6626 26.7786 73.5418 26.8753 73.3838 26.9606C73.2275 27.044 73.0162 27.0857 72.7499 27.0857C72.4197 27.0857 72.1231 27.0076 71.8604 26.8514C71.5993 26.6951 71.3925 26.4678 71.2398 26.1695C71.0889 25.8712 71.0134 25.509 71.0134 25.0829C71.0134 24.6639 71.0871 24.299 71.2345 23.9883C71.3818 23.6758 71.5869 23.4343 71.8497 23.2638C72.1125 23.0916 72.4161 23.0055 72.7606 23.0055C73.0269 23.0055 73.2382 23.0499 73.3944 23.1386C73.5525 23.2257 73.6732 23.3251 73.7567 23.4369C73.8419 23.547 73.9076 23.6376 73.9537 23.7086H74.0177V23.0587H74.6249V27.2668C74.6249 27.6184 74.545 27.9043 74.3852 28.1244C74.2272 28.3464 74.0141 28.5089 73.746 28.6118C73.4797 28.7166 73.1831 28.769 72.8564 28.769ZM72.8351 26.5211C73.0873 26.5211 73.3003 26.4634 73.4743 26.348C73.6483 26.2326 73.7806 26.0666 73.8712 25.8499C73.9617 25.6333 74.007 25.3741 74.007 25.0722C74.007 24.7775 73.9626 24.5174 73.8738 24.2919C73.7851 24.0664 73.6537 23.8897 73.4797 23.7619C73.3057 23.634 73.0908 23.5701 72.8351 23.5701C72.5688 23.5701 72.3469 23.6376 72.1693 23.7725C71.9935 23.9075 71.8612 24.0886 71.7725 24.3159C71.6855 24.5431 71.642 24.7953 71.642 25.0722C71.642 25.3563 71.6863 25.6076 71.7751 25.826C71.8657 26.0426 71.9988 26.213 72.1746 26.3373C72.3522 26.4598 72.5724 26.5211 72.8351 26.5211ZM78.2897 28.6837C78.1831 28.6837 78.0882 28.6749 78.0047 28.6571C77.9213 28.6411 77.8635 28.6252 77.8316 28.6092L77.9914 28.0552C78.1441 28.0943 78.279 28.1085 78.3962 28.0978C78.5134 28.0872 78.6173 28.0348 78.7078 27.9407C78.8002 27.8483 78.8845 27.6983 78.9608 27.4906L79.078 27.171L77.5653 23.0587H78.2471L79.3763 26.3187H79.4189L80.5482 23.0587H81.23L79.4935 27.7462C79.4154 27.9575 79.3186 28.1324 79.2032 28.2709C79.0878 28.4112 78.9537 28.5151 78.801 28.5825C78.6501 28.65 78.4797 28.6837 78.2897 28.6837ZM83.5751 27.2349C83.2058 27.2349 82.8817 27.147 82.603 26.9712C82.326 26.7954 82.1094 26.5495 81.9531 26.2335C81.7987 25.9174 81.7214 25.5481 81.7214 25.1255C81.7214 24.6994 81.7987 24.3274 81.9531 24.0096C82.1094 23.6917 82.326 23.4449 82.603 23.2692C82.8817 23.0934 83.2058 23.0055 83.5751 23.0055C83.9444 23.0055 84.2676 23.0934 84.5446 23.2692C84.8233 23.4449 85.04 23.6917 85.1944 24.0096C85.3507 24.3274 85.4288 24.6994 85.4288 25.1255C85.4288 25.5481 85.3507 25.9174 85.1944 26.2335C85.04 26.5495 84.8233 26.7954 84.5446 26.9712C84.2676 27.147 83.9444 27.2349 83.5751 27.2349ZM83.5751 26.6703C83.8556 26.6703 84.0865 26.5983 84.2676 26.4545C84.4487 26.3107 84.5827 26.1216 84.6697 25.8872C84.7567 25.6529 84.8002 25.3989 84.8002 25.1255C84.8002 24.8521 84.7567 24.5973 84.6697 24.3611C84.5827 24.125 84.4487 23.9341 84.2676 23.7885C84.0865 23.6429 83.8556 23.5701 83.5751 23.5701C83.2946 23.5701 83.0637 23.6429 82.8826 23.7885C82.7015 23.9341 82.5675 24.125 82.4805 24.3611C82.3935 24.5973 82.35 24.8521 82.35 25.1255C82.35 25.3989 82.3935 25.6529 82.4805 25.8872C82.5675 26.1216 82.7015 26.3107 82.8826 26.4545C83.0637 26.5983 83.2946 26.6703 83.5751 26.6703ZM88.9664 25.4771V23.0587H89.5949V27.1497H88.9664V26.4572H88.9238C88.8279 26.6649 88.6788 26.8416 88.4763 26.9872C88.2739 27.131 88.0182 27.2029 87.7093 27.2029C87.4536 27.2029 87.2263 27.147 87.0275 27.0351C86.8286 26.9215 86.6724 26.751 86.5587 26.5238C86.4451 26.2947 86.3883 26.0062 86.3883 25.6582V23.0587H87.0168V25.6156C87.0168 25.9139 87.1003 26.1518 87.2672 26.3293C87.4359 26.5069 87.6507 26.5957 87.9117 26.5957C88.068 26.5957 88.2269 26.5557 88.3885 26.4758C88.5518 26.3959 88.6885 26.2734 88.7986 26.1083C88.9105 25.9432 88.9664 25.7328 88.9664 25.4771ZM92.6425 22.2811V21.6951H96.7334V22.2811H95.0182V27.1497H94.3577V22.2811H92.6425ZM98.7362 27.2349C98.3669 27.2349 98.0429 27.147 97.7641 26.9712C97.4871 26.7954 97.2705 26.5495 97.1143 26.2335C96.9598 25.9174 96.8825 25.5481 96.8825 25.1255C96.8825 24.6994 96.9598 24.3274 97.1143 24.0096C97.2705 23.6917 97.4871 23.4449 97.7641 23.2692C98.0429 23.0934 98.3669 23.0055 98.7362 23.0055C99.1056 23.0055 99.4287 23.0934 99.7057 23.2692C99.9845 23.4449 100.201 23.6917 100.356 24.0096C100.512 24.3274 100.59 24.6994 100.59 25.1255C100.59 25.5481 100.512 25.9174 100.356 26.2335C100.201 26.5495 99.9845 26.7954 99.7057 26.9712C99.4287 27.147 99.1056 27.2349 98.7362 27.2349ZM98.7362 26.6703C99.0168 26.6703 99.2476 26.5983 99.4287 26.4545C99.6098 26.3107 99.7439 26.1216 99.8309 25.8872C99.9179 25.6529 99.9614 25.3989 99.9614 25.1255C99.9614 24.8521 99.9179 24.5973 99.8309 24.3611C99.7439 24.125 99.6098 23.9341 99.4287 23.7885C99.2476 23.6429 99.0168 23.5701 98.7362 23.5701C98.4557 23.5701 98.2249 23.6429 98.0438 23.7885C97.8627 23.9341 97.7286 24.125 97.6416 24.3611C97.5546 24.5973 97.5111 24.8521 97.5111 25.1255C97.5111 25.3989 97.5546 25.6529 97.6416 25.8872C97.7286 26.1216 97.8627 26.3107 98.0438 26.4545C98.2249 26.5983 98.4557 26.6703 98.7362 26.6703ZM103.094 27.2349C102.753 27.2349 102.452 27.1488 102.191 26.9765C101.93 26.8025 101.726 26.5575 101.579 26.2415C101.431 25.9236 101.358 25.5481 101.358 25.1149C101.358 24.6852 101.431 24.3123 101.579 23.9962C101.726 23.6802 101.931 23.4361 102.194 23.2638C102.457 23.0916 102.76 23.0055 103.105 23.0055C103.371 23.0055 103.582 23.0499 103.736 23.1386C103.892 23.2257 104.011 23.3251 104.093 23.4369C104.176 23.547 104.241 23.6376 104.287 23.7086H104.341V21.6951H104.969V27.1497H104.362V26.5211H104.287C104.241 26.5957 104.175 26.6898 104.09 26.8034C104.005 26.9153 103.883 27.0156 103.725 27.1044C103.567 27.1914 103.357 27.2349 103.094 27.2349ZM103.179 26.6703C103.432 26.6703 103.645 26.6046 103.819 26.4732C103.993 26.34 104.125 26.1562 104.215 25.9219C104.306 25.6857 104.351 25.4132 104.351 25.1042C104.351 24.7988 104.307 24.5316 104.218 24.3025C104.129 24.0717 103.998 23.8924 103.824 23.7645C103.65 23.6349 103.435 23.5701 103.179 23.5701C102.913 23.5701 102.691 23.6385 102.514 23.7752C102.338 23.9101 102.205 24.0939 102.117 24.3265C102.03 24.5573 101.986 24.8166 101.986 25.1042C101.986 25.3954 102.031 25.66 102.119 25.8979C102.21 26.134 102.343 26.3222 102.519 26.4625C102.696 26.601 102.917 26.6703 103.179 26.6703ZM107.411 27.2455C107.152 27.2455 106.917 27.1967 106.706 27.0991C106.494 26.9996 106.327 26.8567 106.202 26.6703C106.078 26.482 106.016 26.2548 106.016 25.9884C106.016 25.7541 106.062 25.5641 106.154 25.4185C106.247 25.2711 106.37 25.1557 106.525 25.0722C106.679 24.9888 106.849 24.9266 107.036 24.8858C107.224 24.8432 107.413 24.8095 107.603 24.7846C107.852 24.7526 108.053 24.7287 108.208 24.7127C108.364 24.6949 108.478 24.6656 108.549 24.6248C108.621 24.584 108.658 24.5129 108.658 24.4117V24.3904C108.658 24.1276 108.586 23.9235 108.442 23.7779C108.3 23.6323 108.084 23.5595 107.795 23.5595C107.495 23.5595 107.26 23.6252 107.089 23.7565C106.919 23.8879 106.799 24.0282 106.73 24.1774L106.133 23.9643C106.24 23.7157 106.382 23.5222 106.559 23.3837C106.739 23.2434 106.934 23.1458 107.145 23.0907C107.358 23.0339 107.568 23.0055 107.774 23.0055C107.905 23.0055 108.056 23.0215 108.226 23.0534C108.399 23.0836 108.565 23.1466 108.724 23.2425C108.886 23.3384 109.02 23.4831 109.127 23.6766C109.233 23.8702 109.286 24.1294 109.286 24.4543V27.1497H108.658V26.5957H108.626C108.583 26.6845 108.512 26.7795 108.413 26.8807C108.313 26.9819 108.181 27.068 108.016 27.139C107.851 27.21 107.649 27.2455 107.411 27.2455ZM107.507 26.6809C107.756 26.6809 107.965 26.6321 108.136 26.5344C108.308 26.4368 108.438 26.3107 108.525 26.1562C108.614 26.0018 108.658 25.8393 108.658 25.6688V25.0936C108.631 25.1255 108.573 25.1548 108.482 25.1814C108.393 25.2063 108.29 25.2285 108.173 25.248C108.058 25.2658 107.945 25.2818 107.835 25.296C107.727 25.3084 107.639 25.319 107.571 25.3279C107.408 25.3492 107.255 25.3839 107.113 25.4318C106.973 25.478 106.859 25.5481 106.772 25.6422C106.687 25.7345 106.644 25.8606 106.644 26.0204C106.644 26.2388 106.725 26.4039 106.887 26.5158C107.05 26.6259 107.257 26.6809 107.507 26.6809ZM110.692 28.6837C110.585 28.6837 110.491 28.6749 110.407 28.6571C110.324 28.6411 110.266 28.6252 110.234 28.6092L110.394 28.0552C110.546 28.0943 110.681 28.1085 110.799 28.0978C110.916 28.0872 111.02 28.0348 111.11 27.9407C111.203 27.8483 111.287 27.6983 111.363 27.4906L111.48 27.171L109.968 23.0587H110.649L111.779 26.3187H111.821L112.951 23.0587H113.632L111.896 27.7462C111.818 27.9575 111.721 28.1324 111.606 28.2709C111.49 28.4112 111.356 28.5151 111.203 28.5825C111.052 28.65 110.882 28.6837 110.692 28.6837ZM115.143 26.4039L115.101 26.6916C115.07 26.894 115.024 27.1106 114.962 27.3414C114.902 27.5722 114.839 27.7898 114.773 27.9939C114.707 28.1981 114.653 28.3606 114.61 28.4813H114.131C114.154 28.3677 114.184 28.2177 114.222 28.0312C114.259 27.8448 114.296 27.6362 114.333 27.4053C114.373 27.1763 114.405 26.9419 114.429 26.7022L114.461 26.4039H115.143ZM118.204 22.2811V21.6951H122.295V22.2811H120.58V27.1497H119.919V22.2811H118.204ZM124.298 27.2349C123.928 27.2349 123.604 27.147 123.326 26.9712C123.049 26.7954 122.832 26.5495 122.676 26.2335C122.521 25.9174 122.444 25.5481 122.444 25.1255C122.444 24.6994 122.521 24.3274 122.676 24.0096C122.832 23.6917 123.049 23.4449 123.326 23.2692C123.604 23.0934 123.928 23.0055 124.298 23.0055C124.667 23.0055 124.99 23.0934 125.267 23.2692C125.546 23.4449 125.763 23.6917 125.917 24.0096C126.073 24.3274 126.151 24.6994 126.151 25.1255C126.151 25.5481 126.073 25.9174 125.917 26.2335C125.763 26.5495 125.546 26.7954 125.267 26.9712C124.99 27.147 124.667 27.2349 124.298 27.2349ZM124.298 26.6703C124.578 26.6703 124.809 26.5983 124.99 26.4545C125.171 26.3107 125.305 26.1216 125.392 25.8872C125.479 25.6529 125.523 25.3989 125.523 25.1255C125.523 24.8521 125.479 24.5973 125.392 24.3611C125.305 24.125 125.171 23.9341 124.99 23.7885C124.809 23.6429 124.578 23.5701 124.298 23.5701C124.017 23.5701 123.786 23.6429 123.605 23.7885C123.424 23.9341 123.29 24.125 123.203 24.3611C123.116 24.5973 123.073 24.8521 123.073 25.1255C123.073 25.3989 123.116 25.6529 123.203 25.8872C123.29 26.1216 123.424 26.3107 123.605 26.4545C123.786 26.5983 124.017 26.6703 124.298 26.6703ZM127.111 27.1497V23.0587H127.718V23.698H127.771C127.857 23.4796 127.994 23.31 128.184 23.1893C128.374 23.0667 128.602 23.0055 128.869 23.0055C129.139 23.0055 129.363 23.0667 129.543 23.1893C129.724 23.31 129.865 23.4796 129.966 23.698H130.009C130.113 23.4867 130.271 23.3189 130.48 23.1946C130.69 23.0685 130.941 23.0055 131.234 23.0055C131.6 23.0055 131.899 23.12 132.131 23.3491C132.364 23.5763 132.48 23.9306 132.48 24.4117V27.1497H131.852V24.4117C131.852 24.1099 131.769 23.8942 131.604 23.7645C131.439 23.6349 131.244 23.5701 131.021 23.5701C130.733 23.5701 130.51 23.6571 130.352 23.8311C130.194 24.0034 130.115 24.2217 130.115 24.4863V27.1497H129.476V24.3478C129.476 24.1152 129.401 23.9279 129.25 23.7858C129.099 23.642 128.904 23.5701 128.666 23.5701C128.503 23.5701 128.35 23.6136 128.208 23.7006C128.068 23.7876 127.954 23.9084 127.867 24.0628C127.782 24.2155 127.739 24.3922 127.739 24.5928V27.1497H127.111ZM135.291 27.2349C134.922 27.2349 134.598 27.147 134.319 26.9712C134.042 26.7954 133.826 26.5495 133.669 26.2335C133.515 25.9174 133.438 25.5481 133.438 25.1255C133.438 24.6994 133.515 24.3274 133.669 24.0096C133.826 23.6917 134.042 23.4449 134.319 23.2692C134.598 23.0934 134.922 23.0055 135.291 23.0055C135.661 23.0055 135.984 23.0934 136.261 23.2692C136.54 23.4449 136.756 23.6917 136.911 24.0096C137.067 24.3274 137.145 24.6994 137.145 25.1255C137.145 25.5481 137.067 25.9174 136.911 26.2335C136.756 26.5495 136.54 26.7954 136.261 26.9712C135.984 27.147 135.661 27.2349 135.291 27.2349ZM135.291 26.6703C135.572 26.6703 135.803 26.5983 135.984 26.4545C136.165 26.3107 136.299 26.1216 136.386 25.8872C136.473 25.6529 136.517 25.3989 136.517 25.1255C136.517 24.8521 136.473 24.5973 136.386 24.3611C136.299 24.125 136.165 23.9341 135.984 23.7885C135.803 23.6429 135.572 23.5701 135.291 23.5701C135.011 23.5701 134.78 23.6429 134.599 23.7885C134.418 23.9341 134.284 24.125 134.197 24.3611C134.11 24.5973 134.066 24.8521 134.066 25.1255C134.066 25.3989 134.11 25.6529 134.197 25.8872C134.284 26.1216 134.418 26.3107 134.599 26.4545C134.78 26.5983 135.011 26.6703 135.291 26.6703ZM138.105 27.1497V23.0587H138.712V23.6766H138.754C138.829 23.4742 138.964 23.31 139.159 23.1839C139.355 23.0579 139.575 22.9948 139.82 22.9948C139.866 22.9948 139.924 22.9957 139.993 22.9975C140.062 22.9993 140.115 23.0019 140.15 23.0055V23.6447C140.129 23.6394 140.08 23.6314 140.004 23.6207C139.929 23.6083 139.85 23.6021 139.767 23.6021C139.568 23.6021 139.39 23.6438 139.234 23.7273C139.079 23.8089 138.957 23.9226 138.866 24.0682C138.778 24.212 138.733 24.3762 138.733 24.5609V27.1497H138.105ZM140.895 27.1497V23.0587H141.502V23.6766H141.545C141.62 23.4742 141.754 23.31 141.95 23.1839C142.145 23.0579 142.365 22.9948 142.61 22.9948C142.656 22.9948 142.714 22.9957 142.783 22.9975C142.853 22.9993 142.905 23.0019 142.941 23.0055V23.6447C142.919 23.6394 142.87 23.6314 142.794 23.6207C142.72 23.6083 142.64 23.6021 142.557 23.6021C142.358 23.6021 142.181 23.6438 142.024 23.7273C141.87 23.8089 141.747 23.9226 141.657 24.0682C141.568 24.212 141.524 24.3762 141.524 24.5609V27.1497H140.895ZM145.223 27.2349C144.854 27.2349 144.53 27.147 144.251 26.9712C143.974 26.7954 143.757 26.5495 143.601 26.2335C143.447 25.9174 143.369 25.5481 143.369 25.1255C143.369 24.6994 143.447 24.3274 143.601 24.0096C143.757 23.6917 143.974 23.4449 144.251 23.2692C144.53 23.0934 144.854 23.0055 145.223 23.0055C145.592 23.0055 145.916 23.0934 146.193 23.2692C146.471 23.4449 146.688 23.6917 146.842 24.0096C146.999 24.3274 147.077 24.6994 147.077 25.1255C147.077 25.5481 146.999 25.9174 146.842 26.2335C146.688 26.5495 146.471 26.7954 146.193 26.9712C145.916 27.147 145.592 27.2349 145.223 27.2349ZM145.223 26.6703C145.504 26.6703 145.734 26.5983 145.916 26.4545C146.097 26.3107 146.231 26.1216 146.318 25.8872C146.405 25.6529 146.448 25.3989 146.448 25.1255C146.448 24.8521 146.405 24.5973 146.318 24.3611C146.231 24.125 146.097 23.9341 145.916 23.7885C145.734 23.6429 145.504 23.5701 145.223 23.5701C144.943 23.5701 144.712 23.6429 144.531 23.7885C144.349 23.9341 144.215 24.125 144.128 24.3611C144.041 24.5973 143.998 24.8521 143.998 25.1255C143.998 25.3989 144.041 25.6529 144.128 25.8872C144.215 26.1216 144.349 26.3107 144.531 26.4545C144.712 26.5983 144.943 26.6703 145.223 26.6703ZM148.824 27.1497L147.577 23.0587H148.238L149.122 26.1909H149.165L150.038 23.0587H150.71L151.572 26.1802H151.615L152.499 23.0587H153.16L151.913 27.1497H151.295L150.401 24.0069H150.337L149.442 27.1497H148.824ZM157.645 27.2242C157.286 27.2242 156.977 27.1585 156.718 27.0271C156.459 26.8958 156.259 26.7155 156.119 26.4865C155.979 26.2574 155.908 25.9955 155.908 25.7008C155.908 25.4735 155.956 25.272 156.052 25.0962C156.15 24.9187 156.284 24.7544 156.454 24.6035C156.627 24.4508 156.825 24.2981 157.048 24.1454L157.837 23.5595C157.991 23.4583 158.115 23.3499 158.207 23.2345C158.301 23.1191 158.348 22.9682 158.348 22.7818C158.348 22.6433 158.287 22.5092 158.164 22.3796C158.044 22.25 157.885 22.1852 157.688 22.1852C157.549 22.1852 157.427 22.2207 157.32 22.2917C157.215 22.361 157.133 22.4497 157.072 22.558C157.014 22.6646 156.984 22.7747 156.984 22.8883C156.984 23.0161 157.019 23.1458 157.088 23.2771C157.159 23.4068 157.249 23.5399 157.357 23.6766C157.467 23.8116 157.581 23.9501 157.698 24.0921L160.202 27.1497H159.445L157.379 24.6568C157.187 24.4259 157.013 24.2164 156.857 24.0282C156.7 23.84 156.576 23.6545 156.484 23.4716C156.391 23.2887 156.345 23.0907 156.345 22.8776C156.345 22.6326 156.399 22.4178 156.508 22.2331C156.618 22.0467 156.771 21.902 156.968 21.799C157.167 21.6942 157.4 21.6418 157.666 21.6418C157.94 21.6418 158.175 21.6951 158.372 21.8016C158.569 21.9064 158.721 22.0458 158.827 22.2198C158.934 22.392 158.987 22.5793 158.987 22.7818C158.987 23.0428 158.922 23.2692 158.793 23.4609C158.663 23.6527 158.487 23.8311 158.263 23.9962L157.176 24.8059C156.931 24.987 156.765 25.1628 156.678 25.3333C156.591 25.5037 156.548 25.6262 156.548 25.7008C156.548 25.8712 156.592 26.0302 156.681 26.1775C156.77 26.3249 156.895 26.4439 157.056 26.5344C157.218 26.625 157.407 26.6703 157.624 26.6703C157.83 26.6703 158.03 26.6268 158.226 26.5398C158.421 26.451 158.598 26.3231 158.756 26.1562C158.915 25.9893 159.041 25.7887 159.134 25.5543C159.228 25.3199 159.275 25.0563 159.275 24.7633H159.882C159.882 25.1255 159.84 25.4211 159.757 25.6502C159.674 25.8792 159.579 26.0586 159.475 26.1882C159.37 26.3178 159.286 26.4146 159.222 26.4785C159.2 26.5051 159.181 26.5318 159.163 26.5584C159.145 26.585 159.126 26.6117 159.104 26.6383C158.929 26.8354 158.707 26.9828 158.439 27.0804C158.17 27.1763 157.906 27.2242 157.645 27.2242ZM163.092 27.1497V21.6951H166.363V22.2811H163.753V24.1241H166.118V24.71H163.753V27.1497H163.092ZM168.77 27.2349C168.401 27.2349 168.077 27.147 167.798 26.9712C167.521 26.7954 167.305 26.5495 167.148 26.2335C166.994 25.9174 166.917 25.5481 166.917 25.1255C166.917 24.6994 166.994 24.3274 167.148 24.0096C167.305 23.6917 167.521 23.4449 167.798 23.2692C168.077 23.0934 168.401 23.0055 168.77 23.0055C169.14 23.0055 169.463 23.0934 169.74 23.2692C170.019 23.4449 170.235 23.6917 170.39 24.0096C170.546 24.3274 170.624 24.6994 170.624 25.1255C170.624 25.5481 170.546 25.9174 170.39 26.2335C170.235 26.5495 170.019 26.7954 169.74 26.9712C169.463 27.147 169.14 27.2349 168.77 27.2349ZM168.77 26.6703C169.051 26.6703 169.282 26.5983 169.463 26.4545C169.644 26.3107 169.778 26.1216 169.865 25.8872C169.952 25.6529 169.996 25.3989 169.996 25.1255C169.996 24.8521 169.952 24.5973 169.865 24.3611C169.778 24.125 169.644 23.9341 169.463 23.7885C169.282 23.6429 169.051 23.5701 168.77 23.5701C168.49 23.5701 168.259 23.6429 168.078 23.7885C167.897 23.9341 167.763 24.125 167.676 24.3611C167.589 24.5973 167.545 24.8521 167.545 25.1255C167.545 25.3989 167.589 25.6529 167.676 25.8872C167.763 26.1216 167.897 26.3107 168.078 26.4545C168.259 26.5983 168.49 26.6703 168.77 26.6703ZM171.584 27.1497V23.0587H172.191V23.6766H172.233C172.308 23.4742 172.443 23.31 172.638 23.1839C172.834 23.0579 173.054 22.9948 173.299 22.9948C173.345 22.9948 173.403 22.9957 173.472 22.9975C173.541 22.9993 173.594 23.0019 173.629 23.0055V23.6447C173.608 23.6394 173.559 23.6314 173.483 23.6207C173.408 23.6083 173.329 23.6021 173.246 23.6021C173.047 23.6021 172.869 23.6438 172.713 23.7273C172.558 23.8089 172.436 23.9226 172.345 24.0682C172.257 24.212 172.212 24.3762 172.212 24.5609V27.1497H171.584ZM175.965 27.2349C175.571 27.2349 175.231 27.1479 174.945 26.9739C174.661 26.7981 174.441 26.5531 174.287 26.2388C174.134 25.9227 174.058 25.5552 174.058 25.1362C174.058 24.7171 174.134 24.3478 174.287 24.0282C174.441 23.7068 174.656 23.4565 174.931 23.2771C175.208 23.096 175.532 23.0055 175.901 23.0055C176.114 23.0055 176.324 23.041 176.532 23.112C176.74 23.183 176.929 23.2985 177.099 23.4583C177.27 23.6163 177.406 23.8258 177.507 24.0868C177.608 24.3478 177.659 24.6692 177.659 25.0509V25.3173H174.505V24.7739H177.019C177.019 24.5431 176.973 24.3372 176.881 24.1561C176.79 23.9749 176.661 23.832 176.492 23.7273C176.325 23.6225 176.128 23.5701 175.901 23.5701C175.651 23.5701 175.434 23.6323 175.251 23.7565C175.07 23.8791 174.931 24.0389 174.833 24.236C174.735 24.433 174.686 24.6443 174.686 24.8698V25.232C174.686 25.541 174.74 25.8029 174.846 26.0177C174.955 26.2308 175.105 26.3933 175.296 26.5051C175.488 26.6152 175.711 26.6703 175.965 26.6703C176.13 26.6703 176.279 26.6472 176.412 26.601C176.547 26.5531 176.663 26.482 176.761 26.3879C176.859 26.2921 176.934 26.1731 176.988 26.0311L177.595 26.2015C177.531 26.4075 177.423 26.5886 177.273 26.7448C177.122 26.8993 176.935 27.02 176.713 27.107C176.491 27.1923 176.242 27.2349 175.965 27.2349ZM181.835 23.0587L180.323 27.1497H179.684L178.171 23.0587H178.853L179.982 26.3187H180.024L181.154 23.0587H181.835ZM184.234 27.2349C183.84 27.2349 183.5 27.1479 183.214 26.9739C182.93 26.7981 182.71 26.5531 182.556 26.2388C182.403 25.9227 182.327 25.5552 182.327 25.1362C182.327 24.7171 182.403 24.3478 182.556 24.0282C182.71 23.7068 182.925 23.4565 183.2 23.2771C183.477 23.096 183.801 23.0055 184.17 23.0055C184.383 23.0055 184.593 23.041 184.801 23.112C185.009 23.183 185.198 23.2985 185.368 23.4583C185.539 23.6163 185.675 23.8258 185.776 24.0868C185.877 24.3478 185.928 24.6692 185.928 25.0509V25.3173H182.774V24.7739H185.289C185.289 24.5431 185.242 24.3372 185.15 24.1561C185.059 23.9749 184.93 23.832 184.761 23.7273C184.594 23.6225 184.397 23.5701 184.17 23.5701C183.92 23.5701 183.703 23.6323 183.52 23.7565C183.339 23.8791 183.2 24.0389 183.102 24.236C183.004 24.433 182.955 24.6443 182.955 24.8698V25.232C182.955 25.541 183.009 25.8029 183.115 26.0177C183.224 26.2308 183.374 26.3933 183.565 26.5051C183.757 26.6152 183.98 26.6703 184.234 26.6703C184.399 26.6703 184.548 26.6472 184.681 26.601C184.816 26.5531 184.933 26.482 185.03 26.3879C185.128 26.2921 185.203 26.1731 185.257 26.0311L185.864 26.2015C185.8 26.4075 185.692 26.5886 185.542 26.7448C185.391 26.8993 185.204 27.02 184.982 27.107C184.76 27.1923 184.511 27.2349 184.234 27.2349ZM186.884 27.1497V23.0587H187.491V23.6766H187.534C187.608 23.4742 187.743 23.31 187.939 23.1839C188.134 23.0579 188.354 22.9948 188.599 22.9948C188.645 22.9948 188.703 22.9957 188.772 22.9975C188.841 22.9993 188.894 23.0019 188.929 23.0055V23.6447C188.908 23.6394 188.859 23.6314 188.783 23.6207C188.708 23.6083 188.629 23.6021 188.546 23.6021C188.347 23.6021 188.169 23.6438 188.013 23.7273C187.859 23.8089 187.736 23.9226 187.646 24.0682C187.557 24.212 187.512 24.3762 187.512 24.5609V27.1497H186.884Z" fill="black"/>
<path fill-rule="evenodd" clip-rule="evenodd" d="M26.958 0.298641C26.8359 0.462959 26.551 1.04909 26.3249 1.60138L25.9141 2.60534L26.5392 4.68826C26.883 5.83385 27.1642 6.79334 27.1642 6.82055C27.1642 6.84776 26.4834 6.84126 25.6512 6.80622C21.1726 6.61721 17.2054 8.72548 15.2001 12.3603C13.1205 16.13 13.7879 20.7805 16.8572 23.9068C17.643 24.7071 19.4493 26.0149 19.7689 26.0149C19.953 26.0149 21.5343 24.7179 21.5343 24.567C21.5343 24.5123 21.2017 24.3229 20.7954 24.1462C20.3401 23.9482 19.6489 23.4428 18.9948 22.8294C17.3042 21.2442 16.6082 19.6959 16.6082 17.5203C16.6082 15.4969 17.2809 13.8839 18.7381 12.4138C20.2251 10.9135 22.2151 10.0757 24.3493 10.0514C27.1646 10.0195 29.5655 11.1938 31.096 13.3518C33.0732 16.1396 32.9038 19.6365 30.6629 22.2905C29.9592 23.1242 28.4591 24.145 27.3452 24.5484C26.5742 24.8277 26.4872 24.9073 25.7114 26.0457L24.892 27.2481L25.7881 27.1616C27.1175 27.0331 28.6329 26.5977 29.905 25.9788C31.4935 25.2059 33.4845 23.3283 34.3041 21.8304C36.089 18.5679 36.0003 14.8762 34.0634 11.8015C33.4104 10.7651 32.1105 9.39152 31.251 8.82981C30.9385 8.62567 30.6832 8.42193 30.6835 8.37707C30.6838 8.33221 31.6656 7.82943 32.8655 7.25962C35.2644 6.12041 35.2086 6.1727 35.7609 4.54425C36.0462 3.70328 36.0618 3.55648 35.8837 3.39481C35.6521 3.18484 27.6671 0 27.3718 0C27.2664 0 27.0802 0.134322 26.958 0.298641ZM3.20017 8.15223C1.43999 9.86191 0 11.3502 0 11.4594C0 11.7562 1.52936 13.3681 1.95385 13.5187C2.15653 13.5907 3.33064 13.7142 4.56289 13.7934C5.79527 13.8726 6.823 13.9557 6.84679 13.9781C6.87058 14.0005 6.60513 14.5528 6.25678 15.2055C5.413 16.7867 5.06662 18.1344 5.06789 19.8311C5.07 22.7508 6.19865 25.2544 8.39712 27.2164C9.42289 28.1318 9.82529 28.3981 11.0782 28.9911C13.1815 29.9866 16.0179 30.2715 18.4189 29.7288C21.7027 28.9863 24.5581 26.6398 25.8511 23.6211C27.3779 20.0566 26.5762 15.8861 23.8085 12.9942L23.0565 12.2086L22.2429 12.6176C21.7953 12.8425 21.2347 13.2164 20.9971 13.4484L20.565 13.8702L21.3587 14.4675C22.2992 15.1753 23.327 16.5464 23.776 17.6923C24.1755 18.7111 24.3187 20.6938 24.0737 21.8073C23.6209 23.8639 21.907 25.9678 19.9506 26.8685C16.6253 28.3995 13.249 27.8953 10.6944 25.4863C8.2074 23.1408 7.63554 19.9379 9.15983 16.8903C9.49988 16.2102 9.90579 15.7175 10.8411 14.8492C11.7313 14.0228 12.102 13.5801 12.1746 13.2565C12.23 13.01 12.4901 12.2626 12.7527 11.5955C13.3483 10.0826 13.3576 9.92098 12.8432 10.0368C12.0625 10.2128 10.6119 10.7712 10.0857 11.0984C9.78827 11.2833 9.52507 11.4152 9.50072 11.3915C9.47637 11.3677 9.35097 10.4823 9.2219 9.42377C9.09298 8.36526 8.92408 7.30595 8.84667 7.06969C8.69269 6.60023 6.97825 5.04371 6.61512 5.04371C6.49689 5.04371 4.96022 6.44254 3.20017 8.15223Z" fill="url(#paint0_linear_7995_21)"/>
<defs>
<linearGradient id="paint0_linear_7995_21" x1="18" y1="0" x2="18" y2="30" gradientUnits="userSpaceOnUse">
<stop stop-color="#F77433"/>
<stop offset="1" stop-color="#FEAF38"/>
</linearGradient>
</defs>
</svg>
