<svg width="153" height="132" viewBox="0 0 153 132" fill="none" xmlns="http://www.w3.org/2000/svg">
<path fill-rule="evenodd" clip-rule="evenodd" d="M100.883 0.825585C100.544 1.27984 99.7527 2.90019 99.1248 4.42697L97.9836 7.2024L99.7199 12.9606C100.675 16.1275 101.456 18.78 101.456 18.8552C101.456 18.9305 99.5651 18.9125 97.2533 18.8156C84.8128 18.2931 73.7927 24.1214 68.2226 34.1697C62.4457 44.5911 64.2997 57.4471 72.8254 66.0897C75.0082 68.3023 80.0258 71.9176 80.9137 71.9176C81.4251 71.9176 85.8176 68.332 85.8176 67.9148C85.8176 67.7636 84.8937 67.24 83.765 66.7516C82.5003 66.2042 80.5802 64.8069 78.7634 63.1114C74.0671 58.7292 72.1338 54.449 72.1338 48.4343C72.1338 42.8409 74.0026 38.3816 78.0503 34.3175C82.1808 30.1702 87.7087 27.8541 93.6369 27.787C101.457 27.6985 108.126 30.9451 112.378 36.9106C117.87 44.6175 117.399 54.2846 111.175 61.6216C109.22 63.9263 105.053 66.7483 101.959 67.8634C99.8173 68.6354 99.5756 68.8556 97.4206 72.0027L95.1444 75.3267L97.6337 75.0875C101.326 74.7323 105.536 73.5288 109.069 71.8178C113.482 69.6812 119.012 64.4906 121.289 60.3495C126.247 51.3304 126.001 41.1248 120.62 32.6249C118.807 29.7599 115.196 25.9626 112.808 24.4098C111.94 23.8455 111.231 23.2822 111.232 23.1582C111.233 23.0342 113.96 21.6443 117.293 20.069C123.957 16.9197 123.802 17.0643 125.336 12.5625C126.128 10.2376 126.172 9.83179 125.677 9.38488C125.034 8.8044 102.853 0 102.033 0C101.74 0 101.223 0.37133 100.883 0.825585ZM34.8894 22.5366C30 27.263 26 31.3774 26 31.6793C26 32.4998 30.2482 36.9557 31.4274 37.3722C31.9904 37.5711 35.2518 37.9127 38.6747 38.1314C42.098 38.3504 44.9528 38.5801 45.0189 38.6421C45.0849 38.7041 44.3476 40.2309 43.3799 42.0351C41.0361 46.4063 40.0739 50.1321 40.0775 54.8225C40.0833 62.8941 43.2185 69.8151 49.3253 75.239C52.1747 77.7697 53.2925 78.5058 56.7728 80.1452C62.6154 82.8971 70.4941 83.6849 77.1636 82.1846C86.2852 80.132 94.2171 73.6451 97.8085 65.3001C102.05 55.4459 99.8227 43.9167 92.1348 35.9221L90.0459 33.7503L87.7857 34.8811C86.5424 35.5027 84.9852 36.5363 84.3253 37.1777L83.125 38.3438L85.3297 39.995C87.9421 41.9518 90.7973 45.7422 92.0445 48.9098C93.154 51.7264 93.552 57.2075 92.8714 60.2857C91.6136 65.9712 86.8529 71.7873 81.4185 74.2773C72.1815 78.5098 62.8027 77.1158 55.7067 70.4561C48.7983 63.9722 47.2098 55.1179 51.444 46.6929C52.3885 44.8127 53.5161 43.4507 56.114 41.0503C58.5869 38.7658 59.6167 37.5417 59.8184 36.6472C59.9721 35.9658 60.6946 33.8996 61.4241 32.0554C63.0787 27.8732 63.1045 27.4263 61.6755 27.7466C59.5068 28.2332 55.4776 29.7768 54.0157 30.6813C53.1896 31.1924 52.4585 31.5571 52.3909 31.4915C52.3233 31.4258 51.9749 28.978 51.6164 26.0518C51.2583 23.1255 50.7891 20.1971 50.5741 19.544C50.1464 18.2462 45.384 13.9432 44.3753 13.9432C44.0469 13.9432 39.7784 17.8102 34.8894 22.5366Z" fill="url(#paint0_linear_7835_342)"/>
<path d="M7.44041 119.054C5.81021 119.054 4.43778 118.776 3.32311 118.218C2.22237 117.648 1.39334 116.838 0.836002 115.789C0.278667 114.739 0 113.488 0 112.037C0 110.585 0.292601 109.335 0.877802 108.285C1.47694 107.235 2.32687 106.426 3.42761 105.855C4.54228 105.285 5.87988 105 7.44041 105C8.51328 105 9.44682 105.143 10.241 105.428C11.0352 105.7 11.7458 106.102 12.3728 106.633L11.5995 108.207C11.1537 107.858 10.7217 107.579 10.3037 107.372C9.88572 107.164 9.45379 107.015 9.00792 106.924C8.56205 106.821 8.03955 106.769 7.44041 106.769C5.75448 106.769 4.47261 107.229 3.59481 108.149C2.71701 109.069 2.2781 110.372 2.2781 112.056C2.2781 113.767 2.69611 115.069 3.53211 115.963C4.38204 116.858 5.71268 117.305 7.52402 117.305C8.15102 117.305 8.77105 117.253 9.38412 117.149C9.99719 117.033 10.5894 116.864 11.1606 116.644L10.7426 117.596V113.106H7.10601V111.59H12.5609V118.063C11.92 118.361 11.1328 118.601 10.1992 118.782C9.27962 118.964 8.36002 119.054 7.44041 119.054Z" fill="black"/>
<path d="M13.979 118.879L20.5416 105.175H22.4017L29.0689 118.879H26.8326L25.0142 114.992L25.9339 115.536H17.0095L17.9918 114.992L16.1735 118.879H13.979ZM21.4403 107.391L18.2635 114.369L17.7619 113.922H25.1814L24.7634 114.369L21.5239 107.391H21.4403Z" fill="black"/>
<path d="M30.6507 118.879V105.175H36.8789C38.4534 105.175 39.6726 105.525 40.5364 106.225C41.4003 106.911 41.8323 107.877 41.8323 109.121C41.8323 109.937 41.6372 110.637 41.2471 111.22C40.8569 111.804 40.3065 112.251 39.5959 112.562C38.8853 112.86 38.0493 113.009 37.0879 113.009L37.4223 112.698H37.9866C38.5579 112.698 39.0665 112.834 39.5123 113.106C39.9721 113.378 40.3483 113.812 40.6409 114.408L42.7519 118.879H40.3692L38.2792 114.389C38.0702 113.858 37.7428 113.514 37.2969 113.359C36.865 113.203 36.3286 113.125 35.6876 113.125H32.8243V118.879H30.6507ZM32.8243 111.59H36.5236C37.5686 111.59 38.3559 111.382 38.8853 110.968C39.4287 110.553 39.7004 109.957 39.7004 109.179C39.7004 108.389 39.4287 107.793 38.8853 107.391C38.3559 106.989 37.5686 106.788 36.5236 106.788H32.8243V111.59Z" fill="black"/>
<path d="M44.8579 118.879V105.175H46.5299L55.5796 116.216H55.0571V105.175H57.0844V118.879H55.4333L46.4045 107.838H46.8852V118.879H44.8579Z" fill="black"/>
<path d="M60.1671 118.879V105.175H69.823V106.788H62.278V111.104H69.3423V112.737H62.278V117.246H69.823V118.879H60.1671Z" fill="black"/>
<path d="M75.498 118.879V106.866H70.4611V105.175H82.7085V106.866H77.6716V118.879H75.498Z" fill="black"/>
<path d="M89.5831 118.879V105.175H91.7567V117.149H98.9882V118.879H89.5831Z" fill="black"/>
<path d="M98.8356 118.879L105.398 105.175H107.258L113.925 118.879H111.689L109.871 114.992L110.79 115.536H101.866L102.848 114.992L101.03 118.879H98.8356ZM106.297 107.391L103.12 114.369L102.619 113.922H110.038L109.62 114.369L106.381 107.391H106.297Z" fill="black"/>
<path d="M115.507 118.879V105.175H117.179L126.229 116.216H125.707V105.175H127.734V118.879H126.083L117.054 107.838H117.535V118.879H115.507Z" fill="black"/>
<path d="M130.817 118.879V105.175H140.472V106.788H132.928V111.104H139.992V112.737H132.928V117.246H140.472V118.879H130.817Z" fill="black"/>
<path d="M142.799 118.879V105.175H152.455V106.788H144.91V111.104H151.974V112.737H144.91V117.246H152.455V118.879H142.799Z" fill="black"/>
<path d="M4.30029 129.115H2.61705V123.66H4.37487C4.90399 123.66 5.35676 123.77 5.73318 123.988C6.1096 124.205 6.39813 124.516 6.59877 124.923C6.79941 125.328 6.89972 125.812 6.89972 126.377C6.89972 126.945 6.79852 127.434 6.5961 127.845C6.39369 128.253 6.09894 128.567 5.71187 128.787C5.3248 129.006 4.85427 129.115 4.30029 129.115ZM3.27757 128.529H4.25768C4.70867 128.529 5.08243 128.442 5.37895 128.268C5.67547 128.094 5.89653 127.846 6.04213 127.525C6.18772 127.204 6.26052 126.821 6.26052 126.377C6.26052 125.937 6.18861 125.558 6.04479 125.24C5.90097 124.92 5.68612 124.675 5.40026 124.505C5.11439 124.332 4.75839 124.246 4.33225 124.246H3.27757V128.529ZM9.12629 129.211C8.86705 129.211 8.63179 129.162 8.4205 129.064C8.20921 128.965 8.04142 128.822 7.91713 128.636C7.79284 128.447 7.73069 128.22 7.73069 127.954C7.73069 127.719 7.77686 127.529 7.86919 127.384C7.96151 127.236 8.08492 127.121 8.23939 127.038C8.39387 126.954 8.56432 126.892 8.75075 126.851C8.93896 126.809 9.12806 126.775 9.31805 126.75C9.56663 126.718 9.76816 126.694 9.92263 126.678C10.0789 126.66 10.1925 126.631 10.2635 126.59C10.3363 126.549 10.3727 126.478 10.3727 126.377V126.356C10.3727 126.093 10.3008 125.889 10.157 125.743C10.015 125.598 9.79923 125.525 9.50981 125.525C9.20974 125.525 8.97448 125.59 8.80402 125.722C8.63357 125.853 8.51372 125.994 8.44447 126.143L7.84788 125.93C7.95441 125.681 8.09646 125.488 8.27401 125.349C8.45335 125.209 8.64866 125.111 8.85995 125.056C9.07302 124.999 9.28254 124.971 9.4885 124.971C9.6199 124.971 9.77082 124.987 9.94127 125.019C10.1135 125.049 10.2795 125.112 10.4393 125.208C10.6009 125.304 10.735 125.448 10.8415 125.642C10.948 125.836 11.0013 126.095 11.0013 126.42V129.115H10.3727V128.561H10.3408C10.2982 128.65 10.2271 128.745 10.1277 128.846C10.0283 128.947 9.896 129.033 9.73087 129.104C9.56574 129.175 9.36421 129.211 9.12629 129.211ZM9.22217 128.646C9.47075 128.646 9.68026 128.597 9.85072 128.5C10.0229 128.402 10.1526 128.276 10.2396 128.122C10.3283 127.967 10.3727 127.805 10.3727 127.634V127.059C10.3461 127.091 10.2875 127.12 10.197 127.147C10.1082 127.172 10.0052 127.194 9.88801 127.213C9.77259 127.231 9.65985 127.247 9.54976 127.261C9.44145 127.274 9.35356 127.284 9.28609 127.293C9.12274 127.315 8.97004 127.349 8.82799 127.397C8.68772 127.443 8.57409 127.513 8.48708 127.608C8.40186 127.7 8.35924 127.826 8.35924 127.986C8.35924 128.204 8.44003 128.369 8.60161 128.481C8.76496 128.591 8.97181 128.646 9.22217 128.646ZM12.0313 129.115V128.636L14.3538 125.653V125.61H12.1059V125.024H15.1634V125.525L12.9049 128.486V128.529H15.238V129.115H12.0313ZM16.089 129.115V128.636L18.4114 125.653V125.61H16.1635V125.024H19.2211V125.525L16.9625 128.486V128.529H19.2956V129.115H16.089ZM20.8923 123.66V129.115H20.2638V123.66H20.8923ZM22.0435 129.115V125.024H22.6721V129.115H22.0435ZM22.3631 124.342C22.2406 124.342 22.135 124.301 22.0462 124.217C21.9592 124.134 21.9157 124.033 21.9157 123.916C21.9157 123.799 21.9592 123.699 22.0462 123.615C22.135 123.532 22.2406 123.49 22.3631 123.49C22.4857 123.49 22.5904 123.532 22.6774 123.615C22.7662 123.699 22.8106 123.799 22.8106 123.916C22.8106 124.033 22.7662 124.134 22.6774 124.217C22.5904 124.301 22.4857 124.342 22.3631 124.342ZM24.4519 126.654V129.115H23.8233V125.024H24.4306V125.663H24.4838C24.5797 125.456 24.7253 125.289 24.9206 125.163C25.1159 125.035 25.3681 124.971 25.677 124.971C25.954 124.971 26.1964 125.028 26.4041 125.141C26.6119 125.253 26.7734 125.424 26.8888 125.653C27.0043 125.88 27.062 126.168 27.062 126.516V129.115H26.4334V126.558C26.4334 126.237 26.35 125.986 26.1831 125.807C26.0162 125.626 25.7871 125.535 25.4959 125.535C25.2953 125.535 25.1159 125.579 24.9579 125.666C24.8017 125.753 24.6783 125.88 24.5877 126.047C24.4972 126.214 24.4519 126.416 24.4519 126.654ZM29.8618 130.734C29.5582 130.734 29.2972 130.695 29.0788 130.617C28.8604 130.541 28.6784 130.44 28.5328 130.313C28.389 130.189 28.2745 130.056 28.1892 129.914L28.6899 129.562C28.7468 129.637 28.8187 129.722 28.9057 129.818C28.9927 129.916 29.1116 130 29.2626 130.071C29.4153 130.144 29.615 130.18 29.8618 130.18C30.1921 130.18 30.4646 130.1 30.6795 129.941C30.8943 129.781 31.0017 129.53 31.0017 129.19V128.359H30.9485C30.9023 128.433 30.8366 128.526 30.7514 128.636C30.6679 128.744 30.5472 128.841 30.3892 128.926C30.2329 129.009 30.0216 129.051 29.7553 129.051C29.425 129.051 29.1285 128.973 28.8657 128.817C28.6047 128.66 28.3979 128.433 28.2452 128.135C28.0942 127.837 28.0188 127.474 28.0188 127.048C28.0188 126.629 28.0925 126.264 28.2398 125.954C28.3872 125.641 28.5923 125.4 28.8551 125.229C29.1179 125.057 29.4215 124.971 29.7659 124.971C30.0323 124.971 30.2436 125.015 30.3998 125.104C30.5578 125.191 30.6786 125.29 30.762 125.402C30.8473 125.512 30.913 125.603 30.9591 125.674H31.023V125.024H31.6303V129.232C31.6303 129.584 31.5504 129.87 31.3906 130.09C31.2326 130.312 31.0195 130.474 30.7514 130.577C30.485 130.682 30.1885 130.734 29.8618 130.734ZM29.8405 128.486C30.0926 128.486 30.3057 128.429 30.4797 128.313C30.6537 128.198 30.786 128.032 30.8766 127.815C30.9671 127.599 31.0124 127.339 31.0124 127.038C31.0124 126.743 30.968 126.483 30.8792 126.257C30.7904 126.032 30.659 125.855 30.485 125.727C30.311 125.599 30.0962 125.535 29.8405 125.535C29.5742 125.535 29.3522 125.603 29.1747 125.738C28.9989 125.873 28.8666 126.054 28.7778 126.281C28.6908 126.508 28.6473 126.761 28.6473 127.038C28.6473 127.322 28.6917 127.573 28.7805 127.791C28.871 128.008 29.0042 128.178 29.18 128.303C29.3576 128.425 29.5777 128.486 29.8405 128.486ZM35.2951 130.649C35.1885 130.649 35.0935 130.64 35.0101 130.622C34.9266 130.606 34.8689 130.59 34.837 130.575L34.9968 130.021C35.1495 130.06 35.2844 130.074 35.4016 130.063C35.5188 130.052 35.6226 130 35.7132 129.906C35.8055 129.814 35.8899 129.664 35.9662 129.456L36.0834 129.136L34.5706 125.024H35.2524L36.3817 128.284H36.4243L37.5536 125.024H38.2354L36.4989 129.712C36.4208 129.923 36.324 130.098 36.2086 130.236C36.0932 130.377 35.9591 130.48 35.8064 130.548C35.6555 130.615 35.485 130.649 35.2951 130.649ZM40.5805 129.2C40.2112 129.2 39.8871 129.112 39.6084 128.937C39.3314 128.761 39.1147 128.515 38.9585 128.199C38.804 127.883 38.7268 127.513 38.7268 127.091C38.7268 126.665 38.804 126.293 38.9585 125.975C39.1147 125.657 39.3314 125.41 39.6084 125.234C39.8871 125.059 40.2112 124.971 40.5805 124.971C40.9498 124.971 41.2729 125.059 41.5499 125.234C41.8287 125.41 42.0453 125.657 42.1998 125.975C42.356 126.293 42.4342 126.665 42.4342 127.091C42.4342 127.513 42.356 127.883 42.1998 128.199C42.0453 128.515 41.8287 128.761 41.5499 128.937C41.2729 129.112 40.9498 129.2 40.5805 129.2ZM40.5805 128.636C40.861 128.636 41.0918 128.564 41.2729 128.42C41.4541 128.276 41.5881 128.087 41.6751 127.853C41.7621 127.618 41.8056 127.364 41.8056 127.091C41.8056 126.817 41.7621 126.563 41.6751 126.326C41.5881 126.09 41.4541 125.899 41.2729 125.754C41.0918 125.608 40.861 125.535 40.5805 125.535C40.2999 125.535 40.0691 125.608 39.888 125.754C39.7069 125.899 39.5728 126.09 39.4858 126.326C39.3988 126.563 39.3553 126.817 39.3553 127.091C39.3553 127.364 39.3988 127.618 39.4858 127.853C39.5728 128.087 39.7069 128.276 39.888 128.42C40.0691 128.564 40.2999 128.636 40.5805 128.636ZM45.9718 127.442V125.024H46.6003V129.115H45.9718V128.423H45.9292C45.8333 128.63 45.6841 128.807 45.4817 128.953C45.2793 129.096 45.0236 129.168 44.7147 129.168C44.459 129.168 44.2317 129.112 44.0328 129C43.834 128.887 43.6777 128.716 43.5641 128.489C43.4505 128.26 43.3936 127.972 43.3936 127.624V125.024H44.0222V127.581C44.0222 127.879 44.1056 128.117 44.2725 128.295C44.4412 128.472 44.6561 128.561 44.9171 128.561C45.0733 128.561 45.2322 128.521 45.3938 128.441C45.5572 128.361 45.6939 128.239 45.804 128.074C45.9158 127.908 45.9718 127.698 45.9718 127.442ZM49.6479 124.246V123.66H53.7388V124.246H52.0236V129.115H51.3631V124.246H49.6479ZM55.7416 129.2C55.3723 129.2 55.0483 129.112 54.7695 128.937C54.4925 128.761 54.2759 128.515 54.1196 128.199C53.9652 127.883 53.8879 127.513 53.8879 127.091C53.8879 126.665 53.9652 126.293 54.1196 125.975C54.2759 125.657 54.4925 125.41 54.7695 125.234C55.0483 125.059 55.3723 124.971 55.7416 124.971C56.1109 124.971 56.4341 125.059 56.7111 125.234C56.9898 125.41 57.2065 125.657 57.3609 125.975C57.5172 126.293 57.5953 126.665 57.5953 127.091C57.5953 127.513 57.5172 127.883 57.3609 128.199C57.2065 128.515 56.9898 128.761 56.7111 128.937C56.4341 129.112 56.1109 129.2 55.7416 129.2ZM55.7416 128.636C56.0222 128.636 56.253 128.564 56.4341 128.42C56.6152 128.276 56.7492 128.087 56.8362 127.853C56.9233 127.618 56.9668 127.364 56.9668 127.091C56.9668 126.817 56.9233 126.563 56.8362 126.326C56.7492 126.09 56.6152 125.899 56.4341 125.754C56.253 125.608 56.0222 125.535 55.7416 125.535C55.4611 125.535 55.2302 125.608 55.0491 125.754C54.868 125.899 54.734 126.09 54.647 126.326C54.56 126.563 54.5165 126.817 54.5165 127.091C54.5165 127.364 54.56 127.618 54.647 127.853C54.734 128.087 54.868 128.276 55.0491 128.42C55.2302 128.564 55.4611 128.636 55.7416 128.636ZM60.0995 129.2C59.7586 129.2 59.4577 129.114 59.1966 128.942C58.9356 128.768 58.7314 128.523 58.5841 128.207C58.4367 127.889 58.363 127.513 58.363 127.08C58.363 126.651 58.4367 126.278 58.5841 125.962C58.7314 125.646 58.9365 125.401 59.1993 125.229C59.4621 125.057 59.7657 124.971 60.1102 124.971C60.3765 124.971 60.5869 125.015 60.7414 125.104C60.8976 125.191 61.0166 125.29 61.0983 125.402C61.1817 125.512 61.2465 125.603 61.2927 125.674H61.346V123.66H61.9745V129.115H61.3673V128.486H61.2927C61.2465 128.561 61.1808 128.655 61.0956 128.769C61.0104 128.881 60.8888 128.981 60.7307 129.07C60.5727 129.157 60.3623 129.2 60.0995 129.2ZM60.1847 128.636C60.4369 128.636 60.6499 128.57 60.824 128.438C60.998 128.305 61.1302 128.122 61.2208 127.887C61.3113 127.651 61.3566 127.378 61.3566 127.07C61.3566 126.764 61.3122 126.497 61.2235 126.268C61.1347 126.037 61.0033 125.858 60.8293 125.73C60.6553 125.6 60.4404 125.535 60.1847 125.535C59.9184 125.535 59.6965 125.604 59.5189 125.741C59.3431 125.875 59.2108 126.059 59.1221 126.292C59.0351 126.523 58.9916 126.782 58.9916 127.07C58.9916 127.361 59.036 127.625 59.1247 127.863C59.2153 128.099 59.3485 128.288 59.5242 128.428C59.7018 128.566 59.922 128.636 60.1847 128.636ZM64.4168 129.211C64.1576 129.211 63.9223 129.162 63.711 129.064C63.4997 128.965 63.3319 128.822 63.2077 128.636C63.0834 128.447 63.0212 128.22 63.0212 127.954C63.0212 127.719 63.0674 127.529 63.1597 127.384C63.252 127.236 63.3754 127.121 63.5299 127.038C63.6844 126.954 63.8548 126.892 64.0413 126.851C64.2295 126.809 64.4186 126.775 64.6086 126.75C64.8572 126.718 65.0587 126.694 65.2132 126.678C65.3694 126.66 65.483 126.631 65.5541 126.59C65.6269 126.549 65.6633 126.478 65.6633 126.377V126.356C65.6633 126.093 65.5914 125.889 65.4475 125.743C65.3055 125.598 65.0898 125.525 64.8003 125.525C64.5003 125.525 64.265 125.59 64.0945 125.722C63.9241 125.853 63.8042 125.994 63.735 126.143L63.1384 125.93C63.2449 125.681 63.387 125.488 63.5645 125.349C63.7439 125.209 63.9392 125.111 64.1505 125.056C64.3635 124.999 64.5731 124.971 64.779 124.971C64.9104 124.971 65.0613 124.987 65.2318 125.019C65.404 125.049 65.57 125.112 65.7298 125.208C65.8914 125.304 66.0255 125.448 66.132 125.642C66.2385 125.836 66.2918 126.095 66.2918 126.42V129.115H65.6633V128.561H65.6313C65.5887 128.65 65.5177 128.745 65.4182 128.846C65.3188 128.947 65.1865 129.033 65.0214 129.104C64.8563 129.175 64.6547 129.211 64.4168 129.211ZM64.5127 128.646C64.7613 128.646 64.9708 128.597 65.1412 128.5C65.3135 128.402 65.4431 128.276 65.5301 128.122C65.6189 127.967 65.6633 127.805 65.6633 127.634V127.059C65.6366 127.091 65.578 127.12 65.4875 127.147C65.3987 127.172 65.2957 127.194 65.1785 127.213C65.0631 127.231 64.9504 127.247 64.8403 127.261C64.732 127.274 64.6441 127.284 64.5766 127.293C64.4133 127.315 64.2606 127.349 64.1185 127.397C63.9782 127.443 63.8646 127.513 63.7776 127.608C63.6924 127.7 63.6498 127.826 63.6498 127.986C63.6498 128.204 63.7306 128.369 63.8921 128.481C64.0555 128.591 64.2623 128.646 64.5127 128.646ZM67.6974 130.649C67.5909 130.649 67.4959 130.64 67.4124 130.622C67.329 130.606 67.2713 130.59 67.2393 130.575L67.3991 130.021C67.5518 130.06 67.6867 130.074 67.8039 130.063C67.9211 130.052 68.025 130 68.1155 129.906C68.2079 129.814 68.2922 129.664 68.3686 129.456L68.4858 129.136L66.973 125.024H67.6548L68.784 128.284H68.8267L69.9559 125.024H70.6377L68.9012 129.712C68.8231 129.923 68.7263 130.098 68.6109 130.236C68.4955 130.377 68.3615 130.48 68.2088 130.548C68.0578 130.615 67.8874 130.649 67.6974 130.649ZM72.1485 128.369L72.1059 128.657C72.0757 128.859 72.0296 129.076 71.9674 129.307C71.907 129.538 71.844 129.755 71.7783 129.959C71.7126 130.163 71.6585 130.326 71.6159 130.447H71.1365C71.1595 130.333 71.1897 130.183 71.227 129.997C71.2643 129.81 71.3016 129.601 71.3389 129.371C71.3779 129.142 71.4099 128.907 71.4347 128.668L71.4667 128.369H72.1485ZM75.2094 124.246V123.66H79.3003V124.246H77.5851V129.115H76.9246V124.246H75.2094ZM81.3031 129.2C80.9338 129.2 80.6098 129.112 80.331 128.937C80.054 128.761 79.8374 128.515 79.6812 128.199C79.5267 127.883 79.4494 127.513 79.4494 127.091C79.4494 126.665 79.5267 126.293 79.6812 125.975C79.8374 125.657 80.054 125.41 80.331 125.234C80.6098 125.059 80.9338 124.971 81.3031 124.971C81.6725 124.971 81.9956 125.059 82.2726 125.234C82.5514 125.41 82.768 125.657 82.9225 125.975C83.0787 126.293 83.1568 126.665 83.1568 127.091C83.1568 127.513 83.0787 127.883 82.9225 128.199C82.768 128.515 82.5514 128.761 82.2726 128.937C81.9956 129.112 81.6725 129.2 81.3031 129.2ZM81.3031 128.636C81.5837 128.636 81.8145 128.564 81.9956 128.42C82.1767 128.276 82.3108 128.087 82.3978 127.853C82.4848 127.618 82.5283 127.364 82.5283 127.091C82.5283 126.817 82.4848 126.563 82.3978 126.326C82.3108 126.09 82.1767 125.899 81.9956 125.754C81.8145 125.608 81.5837 125.535 81.3031 125.535C81.0226 125.535 80.7918 125.608 80.6107 125.754C80.4296 125.899 80.2955 126.09 80.2085 126.326C80.1215 126.563 80.078 126.817 80.078 127.091C80.078 127.364 80.1215 127.618 80.2085 127.853C80.2955 128.087 80.4296 128.276 80.6107 128.42C80.7918 128.564 81.0226 128.636 81.3031 128.636ZM84.1163 129.115V125.024H84.7235V125.663H84.7768C84.862 125.445 84.9996 125.275 85.1896 125.155C85.3796 125.032 85.6078 124.971 85.8741 124.971C86.144 124.971 86.3686 125.032 86.5479 125.155C86.729 125.275 86.8702 125.445 86.9714 125.663H87.014C87.1188 125.452 87.2759 125.284 87.4854 125.16C87.695 125.034 87.9462 124.971 88.2392 124.971C88.6049 124.971 88.9041 125.085 89.1367 125.314C89.3693 125.542 89.4856 125.896 89.4856 126.377V129.115H88.8571V126.377C88.8571 126.075 88.7745 125.859 88.6094 125.73C88.4442 125.6 88.2498 125.535 88.0261 125.535C87.7385 125.535 87.5156 125.622 87.3576 125.796C87.1996 125.969 87.1206 126.187 87.1206 126.452V129.115H86.4814V126.313C86.4814 126.081 86.4059 125.893 86.255 125.751C86.104 125.607 85.9096 125.535 85.6717 125.535C85.5083 125.535 85.3556 125.579 85.2136 125.666C85.0733 125.753 84.9597 125.874 84.8727 126.028C84.7875 126.181 84.7449 126.358 84.7449 126.558V129.115H84.1163ZM92.2968 129.2C91.9275 129.2 91.6034 129.112 91.3247 128.937C91.0477 128.761 90.8311 128.515 90.6748 128.199C90.5203 127.883 90.4431 127.513 90.4431 127.091C90.4431 126.665 90.5203 126.293 90.6748 125.975C90.8311 125.657 91.0477 125.41 91.3247 125.234C91.6034 125.059 91.9275 124.971 92.2968 124.971C92.6661 124.971 92.9893 125.059 93.2662 125.234C93.545 125.41 93.7616 125.657 93.9161 125.975C94.0724 126.293 94.1505 126.665 94.1505 127.091C94.1505 127.513 94.0724 127.883 93.9161 128.199C93.7616 128.515 93.545 128.761 93.2662 128.937C92.9893 129.112 92.6661 129.2 92.2968 129.2ZM92.2968 128.636C92.5773 128.636 92.8081 128.564 92.9893 128.42C93.1704 128.276 93.3044 128.087 93.3914 127.853C93.4784 127.618 93.5219 127.364 93.5219 127.091C93.5219 126.817 93.4784 126.563 93.3914 126.326C93.3044 126.09 93.1704 125.899 92.9893 125.754C92.8081 125.608 92.5773 125.535 92.2968 125.535C92.0162 125.535 91.7854 125.608 91.6043 125.754C91.4232 125.899 91.2892 126.09 91.2021 126.326C91.1151 126.563 91.0716 126.817 91.0716 127.091C91.0716 127.364 91.1151 127.618 91.2021 127.853C91.2892 128.087 91.4232 128.276 91.6043 128.42C91.7854 128.564 92.0162 128.636 92.2968 128.636ZM95.11 129.115V125.024H95.7172V125.642H95.7598C95.8344 125.44 95.9693 125.275 96.1646 125.149C96.36 125.023 96.5801 124.96 96.8252 124.96C96.8713 124.96 96.929 124.961 96.9983 124.963C97.0675 124.965 97.1199 124.967 97.1554 124.971V125.61C97.1341 125.605 97.0853 125.597 97.0089 125.586C96.9343 125.574 96.8553 125.567 96.7719 125.567C96.573 125.567 96.3955 125.609 96.2392 125.693C96.0847 125.774 95.9622 125.888 95.8717 126.033C95.7829 126.177 95.7385 126.342 95.7385 126.526V129.115H95.11ZM97.9005 129.115V125.024H98.5077V125.642H98.5503C98.6249 125.44 98.7599 125.275 98.9552 125.149C99.1505 125.023 99.3706 124.96 99.6157 124.96C99.6618 124.96 99.7195 124.961 99.7888 124.963C99.858 124.965 99.9104 124.967 99.9459 124.971V125.61C99.9246 125.605 99.8758 125.597 99.7994 125.586C99.7249 125.574 99.6459 125.567 99.5624 125.567C99.3635 125.567 99.186 125.609 99.0297 125.693C98.8753 125.774 98.7528 125.888 98.6622 126.033C98.5734 126.177 98.529 126.342 98.529 126.526V129.115H97.9005ZM102.228 129.2C101.859 129.2 101.535 129.112 101.256 128.937C100.979 128.761 100.763 128.515 100.606 128.199C100.452 127.883 100.375 127.513 100.375 127.091C100.375 126.665 100.452 126.293 100.606 125.975C100.763 125.657 100.979 125.41 101.256 125.234C101.535 125.059 101.859 124.971 102.228 124.971C102.598 124.971 102.921 125.059 103.198 125.234C103.477 125.41 103.693 125.657 103.848 125.975C104.004 126.293 104.082 126.665 104.082 127.091C104.082 127.513 104.004 127.883 103.848 128.199C103.693 128.515 103.477 128.761 103.198 128.937C102.921 129.112 102.598 129.2 102.228 129.2ZM102.228 128.636C102.509 128.636 102.74 128.564 102.921 128.42C103.102 128.276 103.236 128.087 103.323 127.853C103.41 127.618 103.454 127.364 103.454 127.091C103.454 126.817 103.41 126.563 103.323 126.326C103.236 126.09 103.102 125.899 102.921 125.754C102.74 125.608 102.509 125.535 102.228 125.535C101.948 125.535 101.717 125.608 101.536 125.754C101.355 125.899 101.221 126.09 101.134 126.326C101.047 126.563 101.003 126.817 101.003 127.091C101.003 127.364 101.047 127.618 101.134 127.853C101.221 128.087 101.355 128.276 101.536 128.42C101.717 128.564 101.948 128.636 102.228 128.636ZM105.829 129.115L104.583 125.024H105.243L106.128 128.156H106.17L107.044 125.024H107.715L108.578 128.146H108.62L109.505 125.024H110.165L108.919 129.115H108.301L107.406 125.972H107.342L106.447 129.115H105.829ZM114.65 129.19C114.292 129.19 113.983 129.124 113.723 128.992C113.464 128.861 113.264 128.681 113.124 128.452C112.984 128.223 112.914 127.961 112.914 127.666C112.914 127.439 112.962 127.237 113.058 127.062C113.155 126.884 113.289 126.72 113.46 126.569C113.632 126.416 113.83 126.263 114.054 126.111L114.842 125.525C114.997 125.424 115.12 125.315 115.212 125.2C115.306 125.084 115.353 124.934 115.353 124.747C115.353 124.609 115.292 124.475 115.17 124.345C115.049 124.215 114.89 124.151 114.693 124.151C114.554 124.151 114.432 124.186 114.325 124.257C114.221 124.326 114.138 124.415 114.078 124.523C114.019 124.63 113.99 124.74 113.99 124.854C113.99 124.981 114.024 125.111 114.094 125.242C114.165 125.372 114.254 125.505 114.363 125.642C114.473 125.777 114.586 125.915 114.704 126.057L117.207 129.115H116.451L114.384 126.622C114.192 126.391 114.018 126.182 113.862 125.994C113.706 125.805 113.581 125.62 113.489 125.437C113.397 125.254 113.351 125.056 113.351 124.843C113.351 124.598 113.405 124.383 113.513 124.198C113.623 124.012 113.777 123.867 113.974 123.764C114.173 123.66 114.405 123.607 114.672 123.607C114.945 123.607 115.18 123.66 115.377 123.767C115.574 123.872 115.726 124.011 115.833 124.185C115.939 124.357 115.993 124.545 115.993 124.747C115.993 125.008 115.928 125.234 115.798 125.426C115.669 125.618 115.492 125.796 115.268 125.962L114.182 126.771C113.937 126.952 113.771 127.128 113.684 127.299C113.597 127.469 113.553 127.592 113.553 127.666C113.553 127.837 113.597 127.995 113.686 128.143C113.775 128.29 113.9 128.409 114.062 128.5C114.223 128.59 114.412 128.636 114.629 128.636C114.835 128.636 115.036 128.592 115.231 128.505C115.426 128.416 115.603 128.288 115.761 128.122C115.921 127.955 116.047 127.754 116.139 127.52C116.233 127.285 116.28 127.022 116.28 126.729H116.888C116.888 127.091 116.846 127.386 116.762 127.616C116.679 127.845 116.585 128.024 116.48 128.154C116.375 128.283 116.291 128.38 116.227 128.444C116.206 128.47 116.186 128.497 116.168 128.524C116.151 128.55 116.131 128.577 116.11 128.604C115.934 128.801 115.712 128.948 115.444 129.046C115.176 129.142 114.911 129.19 114.65 129.19ZM120.098 129.115V123.66H123.368V124.246H120.758V126.089H123.123V126.675H120.758V129.115H120.098ZM125.776 129.2C125.406 129.2 125.082 129.112 124.804 128.937C124.527 128.761 124.31 128.515 124.154 128.199C123.999 127.883 123.922 127.513 123.922 127.091C123.922 126.665 123.999 126.293 124.154 125.975C124.31 125.657 124.527 125.41 124.804 125.234C125.082 125.059 125.406 124.971 125.776 124.971C126.145 124.971 126.468 125.059 126.745 125.234C127.024 125.41 127.241 125.657 127.395 125.975C127.551 126.293 127.629 126.665 127.629 127.091C127.629 127.513 127.551 127.883 127.395 128.199C127.241 128.515 127.024 128.761 126.745 128.937C126.468 129.112 126.145 129.2 125.776 129.2ZM125.776 128.636C126.056 128.636 126.287 128.564 126.468 128.42C126.649 128.276 126.783 128.087 126.87 127.853C126.957 127.618 127.001 127.364 127.001 127.091C127.001 126.817 126.957 126.563 126.87 126.326C126.783 126.09 126.649 125.899 126.468 125.754C126.287 125.608 126.056 125.535 125.776 125.535C125.495 125.535 125.264 125.608 125.083 125.754C124.902 125.899 124.768 126.09 124.681 126.326C124.594 126.563 124.551 126.817 124.551 127.091C124.551 127.364 124.594 127.618 124.681 127.853C124.768 128.087 124.902 128.276 125.083 128.42C125.264 128.564 125.495 128.636 125.776 128.636ZM128.589 129.115V125.024H129.196V125.642H129.239C129.313 125.44 129.448 125.275 129.644 125.149C129.839 125.023 130.059 124.96 130.304 124.96C130.35 124.96 130.408 124.961 130.477 124.963C130.547 124.965 130.599 124.967 130.634 124.971V125.61C130.613 125.605 130.564 125.597 130.488 125.586C130.413 125.574 130.334 125.567 130.251 125.567C130.052 125.567 129.874 125.609 129.718 125.693C129.564 125.774 129.441 125.888 129.351 126.033C129.262 126.177 129.218 126.342 129.218 126.526V129.115H128.589ZM132.97 129.2C132.576 129.2 132.236 129.113 131.95 128.939C131.666 128.763 131.447 128.518 131.292 128.204C131.14 127.888 131.063 127.521 131.063 127.101C131.063 126.682 131.14 126.313 131.292 125.994C131.447 125.672 131.662 125.422 131.937 125.242C132.214 125.061 132.537 124.971 132.906 124.971C133.119 124.971 133.33 125.006 133.537 125.077C133.745 125.148 133.934 125.264 134.105 125.424C134.275 125.582 134.411 125.791 134.512 126.052C134.613 126.313 134.664 126.635 134.664 127.016V127.283H131.511V126.739H134.025C134.025 126.508 133.979 126.302 133.886 126.121C133.796 125.94 133.666 125.797 133.498 125.693C133.331 125.588 133.134 125.535 132.906 125.535C132.656 125.535 132.439 125.598 132.256 125.722C132.075 125.844 131.936 126.004 131.838 126.201C131.741 126.398 131.692 126.61 131.692 126.835V127.197C131.692 127.506 131.745 127.768 131.852 127.983C131.96 128.196 132.11 128.359 132.302 128.47C132.493 128.581 132.716 128.636 132.97 128.636C133.135 128.636 133.284 128.613 133.418 128.566C133.553 128.518 133.669 128.447 133.767 128.353C133.864 128.257 133.94 128.138 133.993 127.996L134.6 128.167C134.536 128.373 134.429 128.554 134.278 128.71C134.127 128.865 133.941 128.985 133.719 129.072C133.497 129.158 133.247 129.2 132.97 129.2ZM138.841 125.024L137.328 129.115H136.689L135.176 125.024H135.858L136.987 128.284H137.03L138.159 125.024H138.841ZM141.239 129.2C140.845 129.2 140.505 129.113 140.219 128.939C139.935 128.763 139.716 128.518 139.561 128.204C139.409 127.888 139.332 127.521 139.332 127.101C139.332 126.682 139.409 126.313 139.561 125.994C139.716 125.672 139.931 125.422 140.206 125.242C140.483 125.061 140.806 124.971 141.175 124.971C141.388 124.971 141.599 125.006 141.807 125.077C142.014 125.148 142.203 125.264 142.374 125.424C142.544 125.582 142.68 125.791 142.781 126.052C142.883 126.313 142.933 126.635 142.933 127.016V127.283H139.78V126.739H142.294C142.294 126.508 142.248 126.302 142.155 126.121C142.065 125.94 141.935 125.797 141.767 125.693C141.6 125.588 141.403 125.535 141.175 125.535C140.925 125.535 140.708 125.598 140.525 125.722C140.344 125.844 140.205 126.004 140.107 126.201C140.01 126.398 139.961 126.61 139.961 126.835V127.197C139.961 127.506 140.014 127.768 140.121 127.983C140.229 128.196 140.379 128.359 140.571 128.47C140.762 128.581 140.985 128.636 141.239 128.636C141.404 128.636 141.553 128.613 141.687 128.566C141.822 128.518 141.938 128.447 142.036 128.353C142.133 128.257 142.209 128.138 142.262 127.996L142.869 128.167C142.805 128.373 142.698 128.554 142.547 128.71C142.396 128.865 142.21 128.985 141.988 129.072C141.766 129.158 141.516 129.2 141.239 129.2ZM143.889 129.115V125.024H144.496V125.642H144.539C144.614 125.44 144.749 125.275 144.944 125.149C145.139 125.023 145.359 124.96 145.604 124.96C145.651 124.96 145.708 124.961 145.778 124.963C145.847 124.965 145.899 124.967 145.935 124.971V125.61C145.913 125.605 145.865 125.597 145.788 125.586C145.714 125.574 145.635 125.567 145.551 125.567C145.352 125.567 145.175 125.609 145.019 125.693C144.864 125.774 144.742 125.888 144.651 126.033C144.562 126.177 144.518 126.342 144.518 126.526V129.115H143.889Z" fill="black"/>
<defs>
<linearGradient id="paint0_linear_7835_342" x1="76" y1="0" x2="76" y2="82.9342" gradientUnits="userSpaceOnUse">
<stop stop-color="#F77433"/>
<stop offset="1" stop-color="#FEAF38"/>
</linearGradient>
</defs>
</svg>
