<svg width="22" height="22" viewBox="0 0 22 22" fill="none" xmlns="http://www.w3.org/2000/svg">
<path fill-rule="evenodd" clip-rule="evenodd" d="M0 2.57812V5.15625H0.6875H1.375V3.26562V1.375H3.26562H5.15625V0.6875V0H2.57812H0V2.57812ZM16.8438 0.6875V1.375H18.7344H20.625V3.26562V5.15625H21.3125H22V2.57812V0H19.4219H16.8438V0.6875ZM2.61731 5.80078L2.66406 9.02344H5.84375H9.02344L9.07208 7.08984L9.12072 5.15625H9.71661H10.3125V6.44531V7.73438H11H11.6875V6.44531V5.15625H11H10.3125V4.46875C10.3125 3.79758 10.2982 3.78125 9.71094 3.78125C9.13808 3.78125 9.10938 3.75255 9.10938 3.17969V2.57812H5.83997H2.57056L2.61731 5.80078ZM10.3452 3.22266C10.3957 3.83453 10.4289 3.86719 11 3.86719C11.5711 3.86719 11.6043 3.83453 11.6548 3.22266L11.7083 2.57812H11H10.2917L10.3452 3.22266ZM12.9298 5.80078L12.9766 9.02344L14.2227 9.07397L15.4688 9.1245V9.7185V10.3125H13.5884H11.7083L11.6548 9.66797C11.6043 9.05609 11.5711 9.02344 11 9.02344H10.3984V10.3125V11.6016L12.9336 11.6492L15.4688 11.6966V11.0046V10.3125H16.1562H16.8438V11.0076V11.7026L18.0898 11.6521L19.3359 11.6016L19.3892 10.957L19.4427 10.3125H18.1431H16.8438V9.7185V9.1245L18.0898 9.07397L19.3359 9.02344L19.3827 5.80078L19.4294 2.57812H16.1562H12.8831L12.9298 5.80078ZM7.73438 5.84375V7.73438H5.84375H3.95312V5.84375V3.95312H5.84375H7.73438V5.84375ZM18.0469 5.84375V7.73438H16.1562H14.2656V5.84375V3.95312H16.1562H18.0469V5.84375ZM5.18891 5.80078C5.23944 6.41266 5.27261 6.44531 5.84375 6.44531C6.41489 6.44531 6.44806 6.41266 6.49859 5.80078L6.55205 5.15625H5.84375H5.13545L5.18891 5.80078ZM15.5014 5.80078C15.5519 6.41266 15.5851 6.44531 16.1562 6.44531C16.7274 6.44531 16.7606 6.41266 16.8111 5.80078L16.8645 5.15625H16.1562H15.448L15.5014 5.80078ZM2.61078 10.957L2.66406 11.6016L3.91016 11.6521L5.15625 11.7026V12.2966C5.15625 12.8609 5.12617 12.8906 4.55469 12.8906C3.96739 12.8906 3.95312 12.907 3.95312 13.5781C3.95312 14.2493 3.96739 14.2656 4.55469 14.2656H5.15625V15.4688V16.6719H4.55469C3.96739 16.6719 3.95312 16.6882 3.95312 17.3594V18.0469H3.25531H2.55733L2.61078 18.6914C2.66131 19.3033 2.69448 19.3359 3.26562 19.3359C3.83677 19.3359 3.86994 19.3033 3.92047 18.6914C3.97083 18.0843 4.00761 18.0469 4.55469 18.0469C5.10177 18.0469 5.13855 18.0843 5.18891 18.6914L5.24219 19.3359H8.42188H11.6016L11.6548 18.6914L11.7083 18.0469H11.0103H10.3125V17.3594C10.3125 16.6882 10.2982 16.6719 9.71094 16.6719C9.12364 16.6719 9.10938 16.6882 9.10938 17.3594V18.0469H7.82031H6.53125V17.4453C6.53125 16.8725 6.55995 16.8438 7.13281 16.8438C7.72011 16.8438 7.73438 16.8274 7.73438 16.1562V15.4688H8.42188H9.10938V14.1797V12.8906H9.71094C10.2982 12.8906 10.3125 12.8743 10.3125 12.2031C10.3125 11.532 10.2982 11.5156 9.71094 11.5156C9.12364 11.5156 9.10938 11.532 9.10938 12.2031V12.8906H8.42188H7.73438V14.1797V15.4688H7.13281H6.53125V13.5857V11.7026L7.77734 11.6521L9.02344 11.6016L9.07672 10.957L9.13017 10.3125H5.84375H2.55733L2.61078 10.957ZM15.5915 11.622C15.5239 11.6896 15.4688 12.0025 15.4688 12.3178V12.8906H13.5781H11.6875V13.5781C11.6875 14.2493 11.7018 14.2656 12.2891 14.2656C12.8619 14.2656 12.8906 14.2943 12.8906 14.8672C12.8906 15.4382 12.8605 15.4688 12.2994 15.4688C11.7404 15.4688 11.7054 15.4337 11.6548 14.8242C11.6043 14.2123 11.5711 14.1797 11 14.1797C10.4289 14.1797 10.3957 14.2123 10.3452 14.8242L10.2917 15.4688H10.9897H11.6875V16.1562C11.6875 16.8257 11.7031 16.8438 12.2815 16.8438H12.8755L12.926 18.0898L12.9766 19.3359H16.1562H19.3359L19.3827 16.1133L19.4294 12.8906H18.1469H16.8645L16.8111 12.2461C16.7633 11.6681 16.704 11.5962 16.236 11.5505C15.949 11.5223 15.659 11.5546 15.5915 11.622ZM2.65409 14.3156C2.60253 14.4499 2.5838 15.0542 2.61233 15.6587L2.66406 16.7578H3.26562H3.86719V15.4688V14.1797L3.30739 14.1257C2.94302 14.0907 2.71494 14.157 2.65409 14.3156ZM18.0469 16.1562V18.0469H16.1562H14.2656V16.1562V14.2656H16.1562H18.0469V16.1562ZM15.5014 16.1133C15.5519 16.7252 15.5851 16.7578 16.1562 16.7578C16.7274 16.7578 16.7606 16.7252 16.8111 16.1133L16.8645 15.4688H16.1562H15.448L15.5014 16.1133ZM0 19.4219V22H2.57812H5.15625V21.3125V20.625H3.26562H1.375V18.7344V16.8438H0.6875H0V19.4219ZM20.625 18.7344V20.625H18.7344H16.8438V21.3125V22H19.4219H22V19.4219V16.8438H21.3125H20.625V18.7344Z" fill="#2C2929"/>
</svg>
