<svg width="450" height="46" viewBox="0 0 450 46" fill="none" xmlns="http://www.w3.org/2000/svg">
<path d="M0 38C0 21.4315 13.4315 8 30 8H450C450 24.5685 436.569 38 420 38H0Z" fill="url(#paint0_linear_11527_347)"/>
<path d="M81.155 18.32H85.085C86.835 18.32 88.19 18.785 89.15 19.715C90.12 20.645 90.605 21.955 90.605 23.645C90.605 25.345 90.12 26.665 89.15 27.605C88.19 28.535 86.835 29 85.085 29H81.155V18.32ZM84.965 27.425C87.425 27.425 88.655 26.165 88.655 23.645C88.655 21.145 87.425 19.895 84.965 19.895H83.09V27.425H84.965ZM92.5808 18.32H94.5158V29H92.5808V18.32ZM103.924 26.495H98.7038L97.6238 29H95.6738L100.504 18.32H102.079L106.924 29H104.989L103.924 26.495ZM103.279 24.995L101.314 20.42L99.3488 24.995H103.279ZM118.489 18.32V29H116.779V22.37L113.944 29H112.669L109.819 22.445V29H108.109V18.32H109.639L113.314 26.675L116.959 18.32H118.489ZM125.563 29.135C124.533 29.135 123.633 28.915 122.863 28.475C122.103 28.025 121.513 27.39 121.093 26.57C120.683 25.74 120.478 24.765 120.478 23.645C120.478 22.535 120.683 21.57 121.093 20.75C121.503 19.92 122.088 19.285 122.848 18.845C123.618 18.405 124.523 18.185 125.563 18.185C126.603 18.185 127.503 18.405 128.263 18.845C129.033 19.285 129.618 19.92 130.018 20.75C130.428 21.57 130.633 22.535 130.633 23.645C130.633 24.765 130.428 25.74 130.018 26.57C129.608 27.39 129.023 28.025 128.263 28.475C127.503 28.915 126.603 29.135 125.563 29.135ZM125.563 27.59C126.553 27.59 127.323 27.25 127.873 26.57C128.423 25.89 128.698 24.915 128.698 23.645C128.698 22.385 128.423 21.42 127.873 20.75C127.323 20.07 126.553 19.73 125.563 19.73C124.573 19.73 123.803 20.065 123.253 20.735C122.703 21.405 122.428 22.375 122.428 23.645C122.428 24.915 122.703 25.89 123.253 26.57C123.803 27.25 124.573 27.59 125.563 27.59ZM141.615 18.32V29H140.175L134.415 21.515V29H132.615V18.32H134.055L139.8 25.79V18.32H141.615ZM143.938 18.32H147.868C149.618 18.32 150.973 18.785 151.933 19.715C152.903 20.645 153.388 21.955 153.388 23.645C153.388 25.345 152.903 26.665 151.933 27.605C150.973 28.535 149.618 29 147.868 29H143.938V18.32ZM147.748 27.425C150.208 27.425 151.438 26.165 151.438 23.645C151.438 21.145 150.208 19.895 147.748 19.895H145.873V27.425H147.748ZM159.48 18.32H163.41C165.16 18.32 166.515 18.785 167.475 19.715C168.445 20.645 168.93 21.955 168.93 23.645C168.93 25.345 168.445 26.665 167.475 27.605C166.515 28.535 165.16 29 163.41 29H159.48V18.32ZM163.29 27.425C165.75 27.425 166.98 26.165 166.98 23.645C166.98 21.145 165.75 19.895 163.29 19.895H161.415V27.425H163.29ZM170.906 18.32H178.046V19.85H172.796V22.805H177.731V24.335H172.796V27.47H178.046V29H170.906V18.32ZM182.347 19.91H178.867V18.32H187.792V19.91H184.297V29H182.347V19.91ZM194.905 26.495H189.685L188.605 29H186.655L191.485 18.32H193.06L197.905 29H195.97L194.905 26.495ZM194.26 24.995L192.295 20.42L190.33 24.995H194.26ZM199.06 18.32H200.995V29H199.06V18.32ZM203.308 18.32H205.243V27.41H210.238V29H203.308V18.32ZM215.126 29.135C214.306 29.135 213.536 29.025 212.816 28.805C212.106 28.585 211.501 28.27 211.001 27.86L211.661 26.45C212.181 26.84 212.721 27.13 213.281 27.32C213.851 27.5 214.471 27.59 215.141 27.59C215.881 27.59 216.451 27.46 216.851 27.2C217.261 26.94 217.466 26.575 217.466 26.105C217.466 25.705 217.276 25.4 216.896 25.19C216.526 24.97 215.911 24.765 215.051 24.575C213.711 24.285 212.736 23.91 212.126 23.45C211.516 22.99 211.211 22.32 211.211 21.44C211.211 20.81 211.381 20.25 211.721 19.76C212.061 19.27 212.541 18.885 213.161 18.605C213.791 18.325 214.516 18.185 215.336 18.185C216.086 18.185 216.796 18.3 217.466 18.53C218.146 18.75 218.701 19.06 219.131 19.46L218.486 20.87C217.536 20.11 216.486 19.73 215.336 19.73C214.646 19.73 214.101 19.875 213.701 20.165C213.301 20.445 213.101 20.83 213.101 21.32C213.101 21.74 213.276 22.06 213.626 22.28C213.986 22.5 214.596 22.705 215.456 22.895C216.346 23.105 217.071 23.335 217.631 23.585C218.191 23.825 218.621 24.14 218.921 24.53C219.221 24.91 219.371 25.39 219.371 25.97C219.371 26.61 219.201 27.17 218.861 27.65C218.521 28.12 218.031 28.485 217.391 28.745C216.751 29.005 215.996 29.135 215.126 29.135Z" fill="black"/>
<circle cx="52" cy="23" r="22" fill="white" stroke="#FE9B52" stroke-width="2"/>
<path fill-rule="evenodd" clip-rule="evenodd" d="M52.1595 12.1231C52.1271 12.2075 52.1148 12.9298 52.1322 13.7282L52.1637 15.1796H52.5H52.8363V13.6101V12.0406L52.5274 12.0051C52.3419 11.9838 52.1948 12.031 52.1595 12.1231ZM47.4215 12.1909C47.145 12.3694 47.2466 12.7172 47.9103 13.8619C48.5788 15.0149 48.84 15.2578 49.1422 15.007C49.4046 14.7891 49.3336 14.5722 48.5938 13.3304C47.9103 12.1828 47.7204 11.9981 47.4215 12.1909ZM57.1306 12.2368C56.9148 12.4078 55.6951 14.5231 55.6951 14.7264C55.6951 14.933 55.9869 15.1488 56.2067 15.1048C56.3654 15.073 57.8251 12.7469 57.8251 12.5259C57.8251 12.423 57.4943 12.0967 57.3901 12.0967C57.3446 12.0967 57.2278 12.1598 57.1306 12.2368ZM42.8011 13.2206C42.6459 13.5107 42.8405 13.7927 43.9016 14.8153C44.7241 15.608 45.0608 15.737 45.2729 15.3406C45.3831 15.1348 45.2822 14.9925 44.3593 14.0514C43.7888 13.4695 43.2321 12.9935 43.1223 12.9935C43.0126 12.9935 42.8679 13.0958 42.8011 13.2206ZM60.6997 13.9866C59.9215 14.7684 59.7193 15.0368 59.7491 15.2478C59.7744 15.4273 59.8719 15.5279 60.0435 15.5524C60.2369 15.5797 60.5224 15.3727 61.2028 14.7116C61.6993 14.2291 62.1533 13.746 62.2114 13.6381C62.3474 13.386 62.1473 12.9935 61.8827 12.9935C61.7757 12.9935 61.2434 13.4404 60.6997 13.9866ZM43.2835 19.8575C41.1388 21.9978 40 23.2129 40 23.3613C40 23.6733 52.1888 35.8635 52.5008 35.8635C52.812 35.8635 65 23.6719 65 23.3606C65 23.2132 63.8539 21.9905 61.7165 19.8575L58.433 16.581H52.5H46.567L43.2835 19.8575ZM48.3154 20.2241L46.4462 22.9705L43.9247 22.9708L41.403 22.9711L44.148 20.2245L46.8929 17.4778H48.5387H50.1845L48.3154 20.2241ZM55.6615 20.2245L57.4998 22.915L55.0355 22.9452C53.6803 22.9618 51.4326 22.9618 50.0409 22.9452L47.5105 22.915L49.3694 20.193L51.2284 17.4709L52.5258 17.5024L53.8232 17.5339L55.6615 20.2245ZM60.852 20.2245L63.597 22.9711L61.0753 22.9696L58.5538 22.9681L56.7321 20.2888C55.7302 18.8151 54.9103 17.5798 54.9103 17.5436C54.9103 17.5074 55.6296 17.4778 56.5087 17.4778H58.1071L60.852 20.2245ZM48.8565 28.6886C50.2132 31.4016 51.3104 33.6213 51.2946 33.6213C51.2788 33.6213 49.0465 31.4016 46.3341 28.6886L41.4024 23.7558H43.896H46.3897L48.8565 28.6886ZM57.6009 23.8116C57.6009 23.8423 56.4534 26.163 55.0509 28.9688L52.5008 34.0704L49.9561 28.9972C48.5565 26.207 47.4086 23.8861 47.4053 23.8399C47.4019 23.7937 49.6945 23.7558 52.5 23.7558C55.3055 23.7558 57.6009 23.781 57.6009 23.8116ZM63.5426 23.7843C63.5426 23.8 61.3188 26.0324 58.6009 28.7451L53.6592 33.6774L56.1348 28.7166L58.6103 23.7558H61.0765C62.4328 23.7558 63.5426 23.7686 63.5426 23.7843Z" fill="black"/>
<defs>
<linearGradient id="paint0_linear_11527_347" x1="-7.59716e-07" y1="23" x2="269.667" y2="23" gradientUnits="userSpaceOnUse">
<stop stop-color="#FD9149"/>
<stop offset="1" stop-color="#FFD588"/>
</linearGradient>
</defs>
</svg>
