<svg width="450" height="46" viewBox="0 0 450 46" fill="none" xmlns="http://www.w3.org/2000/svg">
<path d="M0 37C0 20.4315 13.4315 7 30 7H450C450 23.5685 436.569 37 420 37H0Z" fill="url(#paint0_linear_11565_12)"/>
<path d="M81.155 18.32H85.79C86.94 18.32 87.835 18.6 88.475 19.16C89.115 19.71 89.435 20.465 89.435 21.425C89.435 22.385 89.11 23.145 88.46 23.705C87.82 24.265 86.93 24.545 85.79 24.545H83.09V29H81.155V18.32ZM85.565 23.045C86.235 23.045 86.74 22.91 87.08 22.64C87.43 22.36 87.605 21.96 87.605 21.44C87.605 20.91 87.435 20.51 87.095 20.24C86.755 19.96 86.245 19.82 85.565 19.82H83.09V23.045H85.565ZM99.9352 29H97.8952L96.5302 25.445C96.4102 25.115 96.2252 24.885 95.9752 24.755C95.7252 24.625 95.4002 24.56 95.0002 24.56H93.0652V29H91.1452V18.32H95.7202C96.9302 18.32 97.8502 18.585 98.4802 19.115C99.1102 19.645 99.4252 20.405 99.4252 21.395C99.4252 22.105 99.2352 22.71 98.8552 23.21C98.4852 23.7 97.9552 24.05 97.2652 24.26C97.8952 24.39 98.3502 24.83 98.6302 25.58L99.9352 29ZM95.4502 23.06C96.1802 23.06 96.7202 22.925 97.0702 22.655C97.4202 22.385 97.5952 21.975 97.5952 21.425C97.5952 20.885 97.4202 20.485 97.0702 20.225C96.7302 19.955 96.1902 19.82 95.4502 19.82H93.0352V23.06H95.4502ZM106.344 29.135C105.314 29.135 104.414 28.915 103.644 28.475C102.884 28.025 102.294 27.39 101.874 26.57C101.464 25.74 101.259 24.765 101.259 23.645C101.259 22.535 101.464 21.57 101.874 20.75C102.284 19.92 102.869 19.285 103.629 18.845C104.399 18.405 105.304 18.185 106.344 18.185C107.384 18.185 108.284 18.405 109.044 18.845C109.814 19.285 110.399 19.92 110.799 20.75C111.209 21.57 111.414 22.535 111.414 23.645C111.414 24.765 111.209 25.74 110.799 26.57C110.389 27.39 109.804 28.025 109.044 28.475C108.284 28.915 107.384 29.135 106.344 29.135ZM106.344 27.59C107.334 27.59 108.104 27.25 108.654 26.57C109.204 25.89 109.479 24.915 109.479 23.645C109.479 22.385 109.204 21.42 108.654 20.75C108.104 20.07 107.334 19.73 106.344 19.73C105.354 19.73 104.584 20.065 104.034 20.735C103.484 21.405 103.209 22.375 103.209 23.645C103.209 24.915 103.484 25.89 104.034 26.57C104.584 27.25 105.354 27.59 106.344 27.59ZM113.396 18.32H117.326C119.076 18.32 120.431 18.785 121.391 19.715C122.361 20.645 122.846 21.955 122.846 23.645C122.846 25.345 122.361 26.665 121.391 27.605C120.431 28.535 119.076 29 117.326 29H113.396V18.32ZM117.206 27.425C119.666 27.425 120.896 26.165 120.896 23.645C120.896 21.145 119.666 19.895 117.206 19.895H115.331V27.425H117.206ZM129.232 29.135C127.762 29.135 126.647 28.76 125.887 28.01C125.137 27.25 124.762 26.14 124.762 24.68V18.32H126.667V24.785C126.667 25.705 126.882 26.405 127.312 26.885C127.742 27.355 128.382 27.59 129.232 27.59C130.062 27.59 130.692 27.35 131.122 26.87C131.562 26.39 131.782 25.695 131.782 24.785V18.32H133.687V24.68C133.687 26.13 133.307 27.235 132.547 27.995C131.787 28.755 130.682 29.135 129.232 29.135ZM140.771 29.135C139.721 29.135 138.801 28.91 138.011 28.46C137.231 28.01 136.631 27.375 136.211 26.555C135.791 25.725 135.581 24.755 135.581 23.645C135.581 22.545 135.791 21.585 136.211 20.765C136.631 19.935 137.231 19.3 138.011 18.86C138.801 18.41 139.721 18.185 140.771 18.185C141.491 18.185 142.166 18.3 142.796 18.53C143.436 18.75 143.966 19.06 144.386 19.46L143.756 20.87C143.276 20.48 142.796 20.2 142.316 20.03C141.846 19.85 141.341 19.76 140.801 19.76C139.771 19.76 138.971 20.095 138.401 20.765C137.841 21.435 137.561 22.395 137.561 23.645C137.561 24.905 137.841 25.875 138.401 26.555C138.961 27.225 139.761 27.56 140.801 27.56C141.341 27.56 141.846 27.475 142.316 27.305C142.796 27.125 143.276 26.84 143.756 26.45L144.386 27.86C143.966 28.26 143.436 28.575 142.796 28.805C142.166 29.025 141.491 29.135 140.771 29.135ZM148.553 19.91H145.073V18.32H153.998V19.91H150.503V29H148.553V19.91ZM159.451 18.32H163.381C165.131 18.32 166.486 18.785 167.446 19.715C168.416 20.645 168.901 21.955 168.901 23.645C168.901 25.345 168.416 26.665 167.446 27.605C166.486 28.535 165.131 29 163.381 29H159.451V18.32ZM163.261 27.425C165.721 27.425 166.951 26.165 166.951 23.645C166.951 21.145 165.721 19.895 163.261 19.895H161.386V27.425H163.261ZM170.877 18.32H178.017V19.85H172.767V22.805H177.702V24.335H172.767V27.47H178.017V29H170.877V18.32ZM182.317 19.91H178.837V18.32H187.762V19.91H184.267V29H182.317V19.91ZM194.876 26.495H189.656L188.576 29H186.626L191.456 18.32H193.031L197.876 29H195.941L194.876 26.495ZM194.231 24.995L192.266 20.42L190.301 24.995H194.231ZM199.031 18.32H200.966V29H199.031V18.32ZM203.279 18.32H205.214V27.41H210.209V29H203.279V18.32ZM215.097 29.135C214.277 29.135 213.507 29.025 212.787 28.805C212.077 28.585 211.472 28.27 210.972 27.86L211.632 26.45C212.152 26.84 212.692 27.13 213.252 27.32C213.822 27.5 214.442 27.59 215.112 27.59C215.852 27.59 216.422 27.46 216.822 27.2C217.232 26.94 217.437 26.575 217.437 26.105C217.437 25.705 217.247 25.4 216.867 25.19C216.497 24.97 215.882 24.765 215.022 24.575C213.682 24.285 212.707 23.91 212.097 23.45C211.487 22.99 211.182 22.32 211.182 21.44C211.182 20.81 211.352 20.25 211.692 19.76C212.032 19.27 212.512 18.885 213.132 18.605C213.762 18.325 214.487 18.185 215.307 18.185C216.057 18.185 216.767 18.3 217.437 18.53C218.117 18.75 218.672 19.06 219.102 19.46L218.457 20.87C217.507 20.11 216.457 19.73 215.307 19.73C214.617 19.73 214.072 19.875 213.672 20.165C213.272 20.445 213.072 20.83 213.072 21.32C213.072 21.74 213.247 22.06 213.597 22.28C213.957 22.5 214.567 22.705 215.427 22.895C216.317 23.105 217.042 23.335 217.602 23.585C218.162 23.825 218.592 24.14 218.892 24.53C219.192 24.91 219.342 25.39 219.342 25.97C219.342 26.61 219.172 27.17 218.832 27.65C218.492 28.12 218.002 28.485 217.362 28.745C216.722 29.005 215.967 29.135 215.097 29.135Z" fill="black"/>
<circle cx="52" cy="23" r="22" fill="white" stroke="#FE9B52" stroke-width="2"/>
<path fill-rule="evenodd" clip-rule="evenodd" d="M43.6564 9.19511C43.0193 9.41515 42.4596 9.90868 42.1912 10.4875C42.01 10.8778 42.0008 11.3578 42.0008 20.3354C42.0008 30.9669 41.944 30.2056 42.7948 30.9727C43.5859 31.6859 43.3882 31.6709 51.9981 31.6709C60.575 31.6709 60.4147 31.6828 61.1794 30.9918C61.3985 30.7939 61.6727 30.4357 61.7889 30.1958C61.9949 29.7702 62 29.6087 62 23.555V17.3505L58.038 13.1752L54.0761 9L49.1389 9.00339C44.62 9.00646 44.1557 9.02267 43.6564 9.19511ZM53.2804 13.4624C53.3228 16.0913 53.3604 16.7054 53.4972 17.0061C53.7146 17.4837 54.4984 18.1654 55.0045 18.317C55.2686 18.3961 56.3299 18.4377 58.0881 18.4377H60.769V24.0205V29.6035L60.506 29.9161C60.3612 30.088 60.0728 30.276 59.8648 30.3337C59.3477 30.4773 44.6486 30.4773 44.1314 30.3337C43.9235 30.276 43.635 30.088 43.4903 29.9161L43.2273 29.6035V20.3414V11.0794L43.4494 10.7969C43.8875 10.24 43.9275 10.236 48.7668 10.2601L53.2291 10.2823L53.2804 13.4624ZM58.0293 14.9808L60.188 17.2172L57.7106 17.1863L55.2331 17.1554L54.8979 16.8202L54.5627 16.485L54.5381 13.8966L54.5136 11.3081L55.1921 12.0262C55.5653 12.4211 56.842 13.7507 58.0293 14.9808ZM47.6384 12.7956V13.4111H48.2539H48.8693V12.7956V12.1801H48.2539H47.6384V12.7956ZM47.0229 14.6353C47.0229 15.223 47.0326 15.2451 47.305 15.2765L47.5871 15.3089L47.6166 16.2578L47.646 17.2067H47.3345H47.0229V17.8222V18.4377H48.2539H49.4848V17.8222V17.2067H49.1771H48.8693V16.2321V15.2576H49.1771H49.4848V14.6421V14.0266H48.2539H47.0229V14.6353ZM45.2335 21.2303C45.0045 21.5571 45.0354 21.7779 45.3441 22.0206C45.611 22.2306 45.6949 22.2332 52.0166 22.2332H58.4189L58.6707 21.9814C58.9642 21.688 58.9819 21.5431 58.7628 21.2303L58.6032 21.0022H51.9981H45.3931L45.2335 21.2303ZM45.5089 24.8013C45.1439 24.948 45.0079 25.3488 45.2154 25.6656L45.3862 25.9262H51.9981H58.61L58.7808 25.6656C58.9955 25.3379 58.8486 24.9452 58.4554 24.7958C58.1166 24.6669 45.8302 24.6721 45.5089 24.8013Z" fill="black"/>
<defs>
<linearGradient id="paint0_linear_11565_12" x1="-7.59716e-07" y1="22" x2="269.667" y2="22" gradientUnits="userSpaceOnUse">
<stop stop-color="#FD9149"/>
<stop offset="1" stop-color="#FFD588"/>
</linearGradient>
</defs>
</svg>
