<svg width="12" height="12" viewBox="0 0 12 12" fill="none" xmlns="http://www.w3.org/2000/svg">
<path d="M0.957521 0.102313C0.604562 0.225314 0.294385 0.514099 0.139297 0.877754C-0.0157917 1.24676 0.0162956 1.76015 0.219515 2.10776C0.647345 2.84042 1.62066 3.0169 2.32123 2.48212C2.77045 2.13985 2.94693 1.41254 2.71162 0.867059C2.55654 0.503403 2.21427 0.193227 1.85062 0.0862691C1.49231 -0.0206883 1.31048 -0.0206883 0.957521 0.102313Z" fill="black"/>
<path d="M5.54604 0.0807865C4.38555 0.455137 4.2572 2.11298 5.34817 2.64242C5.87226 2.89912 6.54075 2.8082 6.95788 2.41781C7.31084 2.08624 7.45523 1.46589 7.30014 0.95249C7.21993 0.685096 6.87766 0.294701 6.59957 0.150309C6.32148 0.0112641 5.85622 -0.020823 5.54604 0.0807865Z" fill="black"/>
<path d="M10.2519 0.0487981C9.16093 0.380366 8.86145 1.74407 9.71711 2.47138C9.96846 2.69065 10.2733 2.79226 10.6637 2.78691C11.5728 2.77621 12.1985 1.88847 11.9418 0.990024C11.7386 0.300148 10.9257 -0.154421 10.2519 0.0487981Z" fill="black"/>
<path d="M1.04303 4.56739C0.0643728 4.82943 -0.326022 6.03805 0.310375 6.80814C0.577769 7.12902 0.95212 7.30015 1.40134 7.2948C1.83987 7.2948 2.09122 7.18249 2.40139 6.86162C2.66344 6.58888 2.7704 6.31614 2.7704 5.9097C2.7704 5.49257 2.626 5.161 2.32652 4.88826C1.96287 4.56204 1.4976 4.44438 1.04303 4.56739Z" fill="black"/>
<path d="M5.66908 4.54637C5.35355 4.61054 5.17172 4.7175 4.91503 4.99024C4.32676 5.63734 4.47115 6.64808 5.21985 7.09731C5.71186 7.39144 6.16108 7.39679 6.66378 7.108C7.28413 6.74969 7.51944 5.90473 7.17718 5.24694C7.07022 5.03303 6.65843 4.67472 6.44987 4.61054C6.15573 4.51963 5.90973 4.50359 5.66908 4.54637Z" fill="black"/>
<path d="M10.2359 4.56765C9.62625 4.73343 9.24121 5.20404 9.19308 5.81905C9.16099 6.28966 9.30538 6.65332 9.65299 6.9528C9.89365 7.16671 10.2894 7.32715 10.5728 7.32715C11.0809 7.32715 11.6477 6.9421 11.8563 6.46079C12.0756 5.9474 11.9365 5.26287 11.5247 4.88317C11.2199 4.59439 10.6477 4.45534 10.2359 4.56765Z" fill="black"/>
<path d="M1.17668 9.04379C0.064321 9.24166 -0.347465 10.584 0.454716 11.4075C0.663283 11.6215 1.1125 11.8193 1.39594 11.8193C1.88795 11.8193 2.44947 11.4824 2.66339 11.0546C2.89869 10.5947 2.83987 9.95828 2.52434 9.54114C2.24091 9.17214 1.66333 8.95822 1.17668 9.04379Z" fill="black"/>
<path d="M5.74379 9.04379C4.58865 9.22027 4.17686 10.7016 5.07531 11.4664C5.29992 11.6589 5.70635 11.8193 5.97375 11.8193C6.47645 11.8193 7.01658 11.4664 7.23585 10.9904C7.71181 9.97967 6.86149 8.87801 5.74379 9.04379Z" fill="black"/>
<path d="M10.3377 9.04909C9.83496 9.11862 9.3483 9.59993 9.236 10.124C9.113 10.7176 9.39644 11.3273 9.93122 11.6268C10.327 11.846 10.8404 11.8621 11.2361 11.6589C12.0704 11.231 12.2522 10.0759 11.5837 9.42345C11.2468 9.09188 10.8457 8.96888 10.3377 9.04909Z" fill="black"/>
</svg>
