<svg width="13" height="15" viewBox="0 0 13 15" fill="none" xmlns="http://www.w3.org/2000/svg">
<path d="M4.4249 0.157599C4.33757 0.244932 4.27935 0.397763 4.27935 0.550595C4.27935 0.761649 4.33757 0.848981 4.6869 1.14737L5.09445 1.4967L4.78151 1.58403C4.24296 1.72231 3.44241 2.08619 2.91842 2.43552C-0.443883 4.66978 -0.996988 9.393 1.76126 12.2895C3.05669 13.665 4.64323 14.3491 6.49905 14.3491C10.2252 14.3491 13.1873 11.2415 12.9908 7.54447C12.918 6.27815 12.4231 4.80077 12.0374 4.69889C11.7608 4.63339 11.4988 4.72072 11.3606 4.93177C11.2441 5.11372 11.2441 5.14283 11.3678 5.46305C12.0228 7.15147 12.0665 8.49785 11.4988 9.88061C10.0578 13.4249 5.46561 14.3928 2.75831 11.7291C1.04077 10.0407 0.618662 7.64636 1.65937 5.50671C2.32164 4.14578 3.56613 3.09051 4.99256 2.67568L5.38556 2.55924L5.25456 2.76302C5.18906 2.87218 5.05078 3.07596 4.95617 3.21424C4.7524 3.52718 4.74512 3.72367 4.94162 3.97112C5.12356 4.19672 5.49472 4.22584 5.71305 4.02934C5.98961 3.78917 7.04487 2.08619 7.04487 1.88969C7.04487 1.63497 6.93571 1.52581 5.91683 0.710705C4.97073 -0.046176 4.72329 -0.140786 4.4249 0.157599Z" fill="black"/>
</svg>
