<svg width="15" height="16" viewBox="0 0 15 16" fill="none" xmlns="http://www.w3.org/2000/svg">
<path d="M6.7258 0.0403366C6.68348 0.0544415 6.66233 0.20959 6.67643 0.371792L6.70464 0.682091L7.2124 0.64683C8.20677 0.583359 9.58195 0.879554 10.534 1.35205C11.9445 2.06433 13.0376 3.17858 13.7005 4.58903C14.1236 5.49172 14.307 6.21105 14.3563 7.19131C14.4903 9.95579 13.0093 12.4734 10.534 13.6794C9.48322 14.1942 8.96136 14.3211 7.73427 14.3634L6.70464 14.3987L6.67643 14.7019L6.65527 15.0052L7.07136 15.0405C7.58617 15.0898 8.67927 14.984 9.29281 14.8359C12.2548 14.1025 14.5044 11.6201 14.9487 8.60881C15.0545 7.84012 14.991 6.48609 14.8077 5.73855C14.4833 4.41273 13.8204 3.24911 12.826 2.24769C11.6835 1.08407 10.3295 0.385897 8.70748 0.103806C8.13624 0.00507545 6.9021 -0.0372381 6.7258 0.0403366Z" fill="black"/>
<path d="M4.57498 0.590496C4.03195 0.816168 3.60882 1.04184 3.5524 1.12647C3.52419 1.16878 3.57356 1.30982 3.65819 1.44382L3.80628 1.68359L4.34931 1.41561C4.6455 1.26751 4.96285 1.11941 5.04748 1.09826C5.19557 1.04889 5.19557 1.04184 5.08979 0.738593C5.03337 0.562287 4.97696 0.421242 4.97696 0.421242C4.9699 0.428295 4.78654 0.498817 4.57498 0.590496Z" fill="black"/>
<path d="M1.73985 2.65664C1.52828 2.91758 1.29556 3.22082 1.23209 3.32661C1.1122 3.50996 1.1122 3.51702 1.37313 3.69332L1.63406 3.86963L1.84563 3.57343C1.96552 3.41123 2.17709 3.12914 2.32518 2.95284L2.59317 2.62843L2.36044 2.40276L2.12772 2.17709L1.73985 2.65664Z" fill="black"/>
<path d="M8.60893 6.8808L6.76125 9.66644L5.45658 8.49577C4.73725 7.85401 4.11665 7.33215 4.08139 7.33215C4.05318 7.33215 3.94035 7.43088 3.84867 7.55782L3.67236 7.78349L3.99677 8.07263C4.18012 8.23483 4.90651 8.87659 5.60468 9.50424L6.88819 10.6396L8.94744 7.53666C10.0829 5.83707 10.9996 4.42662 10.9855 4.41957C10.8657 4.32084 10.506 4.08812 10.4848 4.08812C10.4778 4.08812 9.63151 5.34341 8.60893 6.8808Z" fill="black"/>
<path d="M0.244869 5.43514C0.124981 5.83006 -0.0301681 6.63402 0.00509314 6.66223C0.0191976 6.66928 0.160242 6.69749 0.322444 6.71865L0.611586 6.75391L0.703265 6.28141C0.745579 6.02753 0.830205 5.69607 0.879571 5.54797L0.978303 5.27999L0.731474 5.1742C0.597481 5.11779 0.456437 5.07547 0.421175 5.07547C0.378862 5.07547 0.301287 5.23767 0.244869 5.43514Z" fill="black"/>
<path d="M0.110757 8.36925C-0.00207877 8.39746 -0.00913101 8.44683 0.0261302 8.69366C0.0896004 9.04627 0.315272 9.9419 0.357586 9.98422C0.378742 9.99832 0.519787 9.96306 0.674936 9.89959L0.957026 9.78675L0.830086 9.32131C0.766616 9.06037 0.689041 8.72892 0.660832 8.58082C0.625571 8.35515 0.597362 8.31989 0.428108 8.32694C0.322324 8.33399 0.18128 8.3481 0.110757 8.36925Z" fill="black"/>
<path d="M1.43668 11.3241C1.3591 11.3805 1.25332 11.4581 1.1969 11.4863C1.08406 11.5568 1.30973 11.9235 1.82455 12.5018L2.12779 12.8403L2.36052 12.6147L2.59324 12.389L2.32526 12.0928C2.17011 11.9306 1.96559 11.6626 1.85981 11.5004C1.64119 11.176 1.63414 11.176 1.43668 11.3241Z" fill="black"/>
<path d="M3.65813 13.6231C3.58056 13.75 3.51709 13.8769 3.51709 13.9051C3.51709 13.9898 4.84996 14.6174 4.94869 14.5751C4.99806 14.5539 5.07564 14.427 5.11795 14.286L5.19552 14.025L4.90638 13.9122C4.74418 13.8417 4.44093 13.7006 4.24347 13.5948C4.03896 13.4891 3.8556 13.3974 3.83444 13.3974C3.81328 13.3974 3.73571 13.5032 3.65813 13.6231Z" fill="black"/>
</svg>
