<svg width="15" height="15" viewBox="0 0 15 15" fill="none" xmlns="http://www.w3.org/2000/svg">
<path fill-rule="evenodd" clip-rule="evenodd" d="M6.49679 0.0629867C5.47313 0.190814 4.31282 0.621849 3.3952 1.21511C2.82243 1.5855 1.89579 2.46126 1.4457 3.05772C0.38663 4.46116 -0.155603 6.4672 0.0391066 8.26159C0.227535 9.99795 0.883627 11.4178 2.06692 12.6497C2.77566 13.3876 3.32872 13.8007 4.15814 14.2116C6.2799 15.2628 8.71824 15.2628 10.84 14.2116C11.2075 14.0295 11.7046 13.7325 11.9446 13.5515C12.5414 13.1016 13.4176 12.1754 13.7882 11.6029C15.2366 9.36496 15.3972 6.55001 14.2129 4.16182C13.8017 3.33281 13.3885 2.78003 12.6502 2.07163C10.9989 0.487076 8.81366 -0.226262 6.49679 0.0629867ZM8.96908 1.78646C9.54011 1.93719 10.5862 2.41918 10.8918 2.67244L11.0773 2.82611L6.93846 6.96101L2.79952 11.096L2.53211 10.6823C1.04807 8.38742 1.36967 5.31895 3.29892 3.3656C4.15199 2.50187 5.18461 1.95082 6.43886 1.68995C7.07484 1.55765 8.27603 1.60346 8.96908 1.78646ZM12.7775 4.89646C13.2378 5.82178 13.3655 6.38538 13.3677 7.50111C13.3691 8.26066 13.342 8.53635 13.2229 8.97039C12.6593 11.0247 11.1531 12.5614 9.08855 13.1884C8.5693 13.3461 8.38922 13.3668 7.53248 13.3678C6.73901 13.3688 6.46685 13.3424 6.02906 13.2223C5.42154 13.0556 4.67204 12.7173 4.21747 12.4047L3.9085 12.1923L8.04244 8.05843L12.1764 3.9246L12.3274 4.11C12.4106 4.21198 12.6131 4.56588 12.7775 4.89646Z" fill="black"/>
</svg>
