<svg width="15" height="16" viewBox="0 0 15 16" fill="none" xmlns="http://www.w3.org/2000/svg">
<path d="M3.59539 3.39435C0.00112474 6.76992 -0.160522 6.95058 0.0676854 7.3024C0.153263 7.45454 0.514592 7.48307 0.771326 7.37847C0.923464 7.3024 0.932973 7.48307 0.932973 10.4022C0.932973 13.8253 0.942481 13.8824 1.57005 14.4719C2.15008 15.0329 2.09303 15.0234 7.49394 15.0234C12.8949 15.0234 12.8283 15.0329 13.4273 14.4719C13.9028 14.025 14.0549 13.5686 14.0549 12.5036C14.0549 11.4862 13.9883 11.3151 13.6175 11.3151C13.2942 11.3151 13.2277 11.4957 13.1801 12.4371C13.1326 13.426 12.9994 13.7112 12.4289 13.9965C12.1342 14.1486 11.6968 14.1676 7.49394 14.1676C3.21505 14.1676 2.85372 14.1486 2.49239 13.987C1.79826 13.6732 1.78875 13.6161 1.78875 9.75564V6.38006L4.60331 3.73666C6.14371 2.28184 7.4464 1.09326 7.48443 1.09326C7.52247 1.09326 8.82515 2.28184 10.3751 3.73666L13.1991 6.38957V7.79685C13.1991 9.09954 13.2181 9.22315 13.3798 9.31824C13.5795 9.41332 13.8647 9.35627 13.9788 9.18512C14.0169 9.12806 14.0549 8.66214 14.0549 8.14867V7.22633L14.2926 7.37847C14.4257 7.46405 14.5969 7.50209 14.711 7.46405C14.9392 7.39749 15.0818 6.97911 14.9487 6.77943C14.9012 6.71287 13.2657 5.15345 11.3069 3.32779C8.35923 0.570279 7.70313 -0.000239372 7.48443 -0.000239372C7.25622 -0.000239372 6.60013 0.570279 3.59539 3.39435Z" fill="black"/>
</svg>
