<svg width="18" height="18" viewBox="0 0 18 18" fill="none" xmlns="http://www.w3.org/2000/svg">
<path d="M6.26537 1.16094C5.87054 2.01295 5.68351 2.30388 5.53805 2.30388C5.43414 2.30388 4.88346 2.23114 4.31199 2.14802C3.74052 2.0649 3.21061 1.99217 3.13788 1.99217C3.03398 1.99217 3.00281 2.2831 3.02359 3.31174L3.03398 4.63131L1.81831 5.0781C1.14294 5.31707 0.571468 5.53527 0.550688 5.55605C0.529907 5.57683 0.800056 6.09635 1.14294 6.69899C1.48582 7.31202 1.76636 7.83153 1.76636 7.85231C1.76636 7.88348 1.37152 8.34066 0.883178 8.87057C0.394833 9.40047 0 9.85765 0 9.88882C0 9.91999 0.477955 10.2421 1.0702 10.6058C1.65206 10.9798 2.14041 11.2915 2.16119 11.3019C2.18197 11.3123 2.0469 11.8734 1.87026 12.5487C1.69362 13.2137 1.56894 13.8164 1.60011 13.8891C1.63128 13.9722 2.05729 14.045 2.82617 14.0865C3.47037 14.1281 4.04184 14.2008 4.09379 14.2528C4.14574 14.3047 4.31199 14.897 4.45745 15.5723C4.66526 16.4659 4.77955 16.7984 4.89385 16.7776C4.97697 16.7776 5.51727 16.5594 6.10952 16.31L7.19011 15.8633L7.51221 16.2269C7.69924 16.4347 8.10446 16.8919 8.41617 17.2556L8.99803 17.9102L9.76691 16.9958C10.1825 16.4867 10.567 16.0295 10.6085 15.9776C10.6501 15.9256 11.2423 16.1022 11.9489 16.3828C12.645 16.6529 13.2269 16.8503 13.2373 16.84C13.2477 16.8192 13.3724 16.2581 13.5074 15.6035C13.6425 14.9489 13.7776 14.3774 13.8088 14.3359C13.8399 14.2943 14.4633 14.2112 15.2011 14.1385C16.4375 14.0138 16.5206 13.993 16.4583 13.806C16.3752 13.5358 15.7933 11.5097 15.7933 11.4785C15.7933 11.4578 16.3128 11.1045 16.9466 10.6785C17.5804 10.2525 18.048 9.88882 17.9961 9.84726C17.9441 9.81609 17.5285 9.37969 17.0713 8.88096L16.2401 7.96661L16.8427 6.87562C17.1752 6.27298 17.4558 5.73269 17.4558 5.65995C17.4558 5.59761 16.9155 5.35863 16.2609 5.14044L15.066 4.75599V3.37408C15.066 2.61559 15.0556 1.99217 15.0452 1.99217C15.0244 1.99217 14.453 2.08568 13.7672 2.19997C13.0814 2.30388 12.4892 2.36622 12.4476 2.32466C12.4061 2.2831 12.1359 1.78436 11.8346 1.21289C11.5437 0.641422 11.2631 0.132298 11.2216 0.0907345C11.18 0.038784 10.6917 0.340103 10.141 0.745327C9.5695 1.18172 9.08115 1.47265 8.99803 1.44148C8.91491 1.41031 8.42656 1.07782 7.90704 0.703766C7.38753 0.329714 6.91996 0.0180035 6.8784 0.0180035C6.82645 0.0180035 6.5563 0.52713 6.26537 1.16094ZM8.09407 1.5246C8.62398 1.89865 9.07076 2.19997 9.10193 2.19997C9.1331 2.19997 9.55911 1.89865 10.0475 1.5246C10.5462 1.15055 10.9826 0.8804 11.0241 0.921963C11.0657 0.973913 11.2943 1.37914 11.5229 1.83631C12.1463 3.09354 12.0736 3.04159 12.9879 2.87534C13.4139 2.80261 13.923 2.71949 14.1205 2.69871L14.4737 2.66754L14.4841 3.90399L14.4945 5.14044L15.5855 5.5041C16.1881 5.70152 16.6869 5.87815 16.7077 5.88854C16.7284 5.90932 16.4791 6.38728 16.1674 6.95875C15.8453 7.53021 15.5855 8.03934 15.5855 8.09129C15.5855 8.14324 15.9388 8.52769 16.3648 8.95369C16.7908 9.37969 17.1441 9.75375 17.1441 9.79531C17.1441 9.83687 16.6973 10.159 16.157 10.5226C15.6167 10.8759 15.1699 11.2188 15.1699 11.2811C15.1699 11.3435 15.3154 11.863 15.4816 12.4345C15.6478 12.9955 15.7725 13.4839 15.7517 13.4943C15.7414 13.515 15.2114 13.5774 14.588 13.6397C13.9646 13.7021 13.4139 13.7956 13.3724 13.8371C13.3204 13.8787 13.1957 14.3774 13.071 14.9385C12.9567 15.4996 12.8321 15.9983 12.8009 16.0399C12.7593 16.0711 12.2294 15.9048 11.6164 15.6555L10.515 15.2087L9.74613 16.1438L8.98764 17.0685L8.57203 16.5698C8.34344 16.2997 7.96939 15.8737 7.7408 15.6243L7.32519 15.1775L6.34849 15.6035C5.8082 15.8321 5.30946 16.0191 5.24712 16.0191C5.17439 16.0191 5.03931 15.6555 4.93541 15.1775C4.8419 14.7203 4.71721 14.1904 4.66526 14.0034L4.57175 13.6605L3.45998 13.5878C2.84695 13.5462 2.30665 13.4839 2.27548 13.4631C2.23392 13.4423 2.31704 13.0163 2.45212 12.5072C2.8989 10.9382 2.96125 11.1564 1.8287 10.4187L0.820836 9.76414L1.66245 8.84979L2.49368 7.93544L1.91182 6.92757C1.60011 6.37689 1.36113 5.88854 1.4027 5.85737C1.43387 5.81581 1.94299 5.61839 2.52485 5.41059L3.58467 5.03653L3.56388 3.82086C3.55349 3.09354 3.58467 2.61559 3.63662 2.61559C3.69896 2.61559 4.21848 2.68832 4.80033 2.77144C5.38219 2.86495 5.9121 2.91691 5.97444 2.88573C6.03678 2.86495 6.29654 2.39739 6.5563 1.8467C6.80567 1.29601 7.04465 0.84923 7.07582 0.84923C7.11738 0.84923 7.57455 1.15055 8.09407 1.5246Z" fill="black"/>
<path d="M3.91697 7.24974C3.87541 7.2913 3.84424 8.07058 3.84424 8.97454C3.84424 10.5435 3.85463 10.6162 4.05204 10.6162C4.24946 10.6162 4.25985 10.5435 4.25985 9.36937C4.25985 8.68361 4.29102 8.12253 4.34297 8.12253C4.38454 8.12253 4.77937 8.68361 5.23654 9.36937C5.90152 10.3876 6.09894 10.6162 6.30675 10.6162H6.54572L6.52494 8.93298C6.49377 7.42638 6.47299 7.23935 6.31714 7.20818C6.15089 7.17701 6.13011 7.31208 6.10933 8.50697L6.07816 9.83694L5.19498 8.53814C4.37415 7.33287 4.104 7.06272 3.91697 7.24974Z" fill="black"/>
<path d="M7.34593 7.24974C7.30436 7.2913 7.27319 8.07058 7.27319 8.97454V10.6162H8.57199C9.79804 10.6162 9.87078 10.6058 9.87078 10.4084C9.87078 10.211 9.79804 10.2006 8.83174 10.2006H7.79271V9.62913V9.05766H8.72784C9.59024 9.05766 9.66297 9.04727 9.66297 8.84985C9.66297 8.65244 9.59024 8.64205 8.72784 8.64205H7.79271V8.12253V7.60301H8.79018C9.68375 7.60301 9.77726 7.58223 9.74609 7.41599C9.71492 7.26013 9.55907 7.23935 8.56159 7.20818C7.93817 7.19779 7.38749 7.21857 7.34593 7.24974Z" fill="black"/>
<path d="M10.1824 7.30169C10.1824 7.36404 10.3798 8.13292 10.6188 9.0161C11.0136 10.4604 11.0759 10.6162 11.2837 10.6162C11.4812 10.6162 11.5539 10.4707 11.8968 9.20313C12.1358 8.3719 12.3228 7.85238 12.3747 7.9355C12.4163 8.00824 12.6033 8.64205 12.7903 9.3382C13.1021 10.4707 13.1644 10.6162 13.3618 10.6162C13.5592 10.6162 13.632 10.45 14.0164 9.06805C14.4944 7.33287 14.5255 7.15623 14.2658 7.20818C14.1203 7.22896 13.9956 7.56145 13.7255 8.63166L13.3722 10.024L12.9982 8.63166C12.6449 7.31208 12.6137 7.23935 12.3643 7.23935C12.0838 7.23935 12.0215 7.4056 11.45 9.36937L11.263 10.0447L11.024 9.00571C10.6188 7.21857 10.6084 7.1874 10.3902 7.1874C10.2759 7.1874 10.1824 7.23935 10.1824 7.30169Z" fill="black"/>
</svg>
