<svg width="13" height="14" viewBox="0 0 13 14" fill="none" xmlns="http://www.w3.org/2000/svg">
<path d="M4.56013 0.239699C4.2057 0.527082 3.86084 1.04437 3.86084 1.3126C3.86084 1.67662 3.51598 1.9161 2.98911 1.9161C2.53887 1.9161 2.47182 1.95442 1.97369 2.41423C1.67672 2.69204 1.32229 3.08479 1.16901 3.28596C0.939108 3.60208 0.919949 3.6883 0.996585 3.92778C1.0828 4.14811 1.05406 4.26306 0.862473 4.5696C0.191912 5.63292 -0.00925584 6.15979 0.000323597 6.84951C0.000323597 7.98946 0.603828 9.00488 1.27439 9.00488C1.6863 9.00488 1.77252 8.82287 1.70546 8.0661C1.58093 6.86867 2.0599 6.22685 3.06574 6.22685C3.49682 6.22685 3.55429 6.25558 4.11948 6.82077C4.58887 7.29016 4.74214 7.39554 4.83794 7.29974C5.01037 7.12731 3.84168 5.95862 3.4106 5.88199C2.06948 5.63292 1.15944 6.6196 1.33187 8.13315C1.38934 8.68876 1.38934 8.70792 1.18817 8.65044C0.900791 8.57381 0.622987 8.20021 0.460137 7.63502C0.182333 6.68666 0.268548 6.2939 1.05406 4.9432C1.4564 4.27264 1.48514 4.15769 1.39892 3.9182C1.30313 3.65956 1.33187 3.60208 1.90663 2.989C2.51014 2.3376 2.51972 2.32802 3.11364 2.27054C3.59261 2.21306 3.75546 2.15559 3.93747 1.964C4.05242 1.82031 4.14822 1.60956 4.14822 1.47545C4.14822 1.23596 4.84752 0.383391 5.04869 0.383391C5.10616 0.383391 5.51808 0.73783 5.94915 1.17848L6.73467 1.97358L6.28443 2.41423C6.00663 2.67288 5.69051 2.88362 5.5085 2.92194C5.04869 3.01774 4.81878 3.43923 4.81878 4.16727V4.75161L5.48934 5.41259C6.01621 5.93946 6.17906 6.05442 6.27485 5.95862C6.37065 5.86283 6.26527 5.70956 5.79588 5.24016C5.21154 4.64624 5.20196 4.63666 5.20196 4.10021C5.20196 3.51587 5.35523 3.25722 5.70009 3.25722C5.93957 3.25722 6.52392 2.80699 6.87836 2.34718L7.137 2.00232L6.88794 1.6383C6.55266 1.15933 5.24027 0.000213623 5.02953 0.000213623C4.94331 0.000213623 4.73256 0.105588 4.56013 0.239699Z" fill="black"/>
<path d="M9.69462 1.47503C9.10069 1.68578 8.71751 1.954 8.39181 2.3755C8.02779 2.86405 7.8841 3.31428 7.8841 4.02316V4.55003L5.74789 6.68624L3.62125 8.81288H2.98901C1.70537 8.81288 0.680368 9.69419 0.460041 10.997C0.383405 11.4855 0.565415 12.3477 0.766583 12.4243C0.852798 12.4626 1.18808 12.204 1.69579 11.6963C2.18434 11.2173 2.54836 10.9204 2.68247 10.9204C2.88364 10.9204 3.47756 11.5047 3.47756 11.7059C3.47756 11.7633 3.11354 12.1848 2.66331 12.6351C2.21308 13.0949 1.84906 13.5164 1.84906 13.5739C1.84906 13.8612 3.16144 13.9954 3.8799 13.775C4.09065 13.7176 4.45467 13.4876 4.69415 13.2769C5.2785 12.7692 5.58504 12.0986 5.58504 11.3514V10.7767L7.72125 8.65003L9.84789 6.53297L10.5184 6.49466C11.3231 6.43718 11.8308 6.20727 12.329 5.65167C12.8079 5.11522 12.9899 4.67456 12.9995 3.97526C13.0091 3.39092 12.8271 2.77783 12.6451 2.77783C12.5972 2.77783 12.1757 3.14185 11.7255 3.59209C11.2656 4.04232 10.8441 4.40634 10.7867 4.40634C10.643 4.40634 9.99158 3.74536 9.99158 3.61125C9.99158 3.54419 10.3652 3.12269 10.8154 2.67246C11.3423 2.14559 11.6297 1.78157 11.5913 1.69536C11.5339 1.54209 10.825 1.34092 10.3556 1.34092C10.1832 1.3505 9.88621 1.40798 9.69462 1.47503ZM10.9974 1.78157C11.122 1.82947 11.007 2.0019 10.4131 2.59583C9.51261 3.50587 9.46471 3.73578 10.0778 4.34886C10.3843 4.65541 10.5376 4.73204 10.8058 4.73204C11.1028 4.73204 11.2369 4.63625 11.85 4.03274C12.4056 3.47713 12.5589 3.37176 12.6163 3.49629C12.8271 4.0519 12.4631 5.1248 11.8979 5.59419C11.4189 5.99653 11.0357 6.13064 10.3077 6.13064H9.6563L7.43387 8.35307L5.20186 10.5851V11.2365C5.20186 11.5909 5.14438 12.022 5.07733 12.1944C4.67499 13.1332 3.61168 13.7271 2.65373 13.5451L2.30887 13.4781L3.03691 12.75C3.66915 12.1082 3.76495 11.9741 3.76495 11.6771C3.76495 11.3897 3.68831 11.2556 3.33387 10.9299C2.70163 10.3456 2.5292 10.3839 1.63831 11.2748C0.900695 12.0028 0.900695 12.0028 0.833639 11.7442C0.747424 11.3993 0.852798 10.7 1.03481 10.3456C1.44672 9.5505 2.47172 9.01405 3.30513 9.14816L3.69789 9.21522L5.96822 6.94489L8.24812 4.66498L8.23854 4.03274C8.22896 3.04606 8.68878 2.30844 9.5605 1.90611C9.94368 1.73368 10.6909 1.66662 10.9974 1.78157Z" fill="black"/>
<path d="M8.45873 8.1808C8.45873 8.25743 9.25382 9.08127 10.2309 10.0296C11.5433 11.2941 12.0031 11.7922 12.0031 11.9647C12.0031 12.1084 11.8403 12.3479 11.5816 12.6065C10.9015 13.2962 10.9015 13.2962 8.8898 11.2271C7.50078 9.8093 7.10803 9.46444 7.01223 9.55066C6.92602 9.64645 7.2134 10.0009 8.41083 11.2558C10.4608 13.4112 10.5087 13.4399 10.9685 13.3824C11.6966 13.2866 12.4438 12.3862 12.3192 11.7539C12.2809 11.5719 11.7253 10.9588 10.4896 9.77099C9.51247 8.82262 8.65032 8.04669 8.58326 8.04669C8.5162 8.04669 8.45873 8.10416 8.45873 8.1808Z" fill="black"/>
</svg>
