<svg width="18" height="11" viewBox="0 0 18 11" fill="none" xmlns="http://www.w3.org/2000/svg">
<path d="M4.17355 0.131454C4.09953 0.22193 4.0913 0.295956 4.1571 0.394656C4.23113 0.518033 4.56836 0.534483 7.62809 0.559158L11.0086 0.575608V2.49206C11.0086 3.87387 11.0333 4.43318 11.1073 4.5072C11.1813 4.58123 11.864 4.60591 13.6818 4.60591H16.1575L16.6839 4.97603C16.98 5.18166 17.2597 5.42841 17.3173 5.53534C17.3831 5.65872 17.416 6.15222 17.4242 7.04876V8.38945H16.9882C16.5441 8.38945 16.5441 8.38945 16.4536 8.0769C16.3302 7.66564 15.845 7.11456 15.4173 6.88426C14.9402 6.6375 14.0683 6.6375 13.5913 6.88426C13.1636 7.11456 12.6783 7.66564 12.5549 8.0769L12.4644 8.38945H10.7043C9.10038 8.38945 8.94411 8.373 8.90298 8.2414C8.32722 6.25092 5.65407 6.15222 4.95494 8.10157L4.86446 8.34832L4.00082 8.373C3.04671 8.39767 2.85754 8.47993 3.02204 8.79248C3.10429 8.94053 3.21122 8.96521 3.9926 8.98166L4.86446 9.00633L4.96316 9.36001C5.11121 9.83707 5.42377 10.2319 5.8926 10.5033C6.2216 10.7007 6.36965 10.7336 6.89606 10.7336C7.39779 10.7336 7.57874 10.6925 7.88307 10.528C8.319 10.2812 8.7467 9.73836 8.87008 9.29421L8.96056 8.96521H10.7043H12.4562L12.5631 9.35179C12.6372 9.64789 12.777 9.85352 13.0896 10.1578C13.6982 10.7418 14.3562 10.9146 15.1541 10.676C15.6558 10.528 16.3138 9.85352 16.4454 9.35179L16.5523 8.96521H17.1445C17.4735 8.96521 17.7943 8.94053 17.8683 8.91586C17.9835 8.87473 17.9999 8.64443 17.9999 7.22971C17.9999 5.23101 17.9753 5.15699 17.0787 4.53188C16.5194 4.12885 16.4372 4.03015 15.3844 2.4098C14.1259 0.460457 14.0519 0.361756 13.5995 0.156129C13.2952 0.0163021 12.9662 -0.00014782 8.7796 -0.00014782C4.77398 -0.00014782 4.27225 0.0163021 4.17355 0.131454ZM13.361 0.70721C13.6242 0.830586 13.9121 1.23362 15.4255 3.59422L15.7051 4.03015H13.6406H11.5844V2.36045C11.5844 1.43924 11.609 0.65786 11.6419 0.633184C11.7571 0.518033 13.0813 0.575608 13.361 0.70721ZM7.63632 7.49291C8.34367 7.88772 8.56575 8.8336 8.11337 9.51629C7.88307 9.86997 7.32376 10.199 6.97008 10.199C6.00775 10.199 5.25926 9.26953 5.49779 8.38122C5.67874 7.70677 6.43545 7.18036 7.06056 7.28729C7.21684 7.31196 7.48004 7.41066 7.63632 7.49291ZM15.2116 7.44356C16.0424 7.87949 16.1904 9.16261 15.4913 9.77949C14.5618 10.5938 13.18 10.0674 13.0813 8.85828C12.9826 7.69032 14.1588 6.90893 15.2116 7.44356Z" fill="black"/>
<path d="M2.1255 2.34422C2.07615 2.41003 2.04325 2.52518 2.0597 2.60743C2.08437 2.74725 2.23243 2.75548 3.91035 2.78015C5.68697 2.7966 5.73632 2.7966 5.78567 2.6321C5.90904 2.25375 5.76099 2.22085 3.93502 2.22085C2.54498 2.22085 2.20775 2.24552 2.1255 2.34422Z" fill="black"/>
<path d="M0.0610676 4.57328C-0.0129583 4.66376 -0.0211833 4.73779 0.0446174 4.83649C0.118643 4.95986 0.365396 4.97631 2.17492 5.00099C4.00089 5.01744 4.23119 5.00921 4.32167 4.88584C4.39569 4.78714 4.39569 4.70489 4.33812 4.59796C4.26409 4.44991 4.12426 4.44168 2.21604 4.44168C0.447647 4.44168 0.159769 4.45813 0.0610676 4.57328Z" fill="black"/>
<path d="M1.27003 6.38229C1.196 6.44809 1.13843 6.53856 1.13843 6.57969C1.13843 6.62081 1.196 6.71129 1.27003 6.77709C1.37696 6.88402 1.61548 6.90869 2.61072 6.90869C3.86093 6.90869 4.01721 6.86757 4.01721 6.56324C4.01721 6.31648 3.72933 6.25068 2.54492 6.25068C1.60726 6.25068 1.37696 6.27536 1.27003 6.38229Z" fill="black"/>
</svg>
