<svg width="236" height="33" viewBox="0 0 236 33" fill="none" xmlns="http://www.w3.org/2000/svg">
<path fill-rule="evenodd" clip-rule="evenodd" d="M27.9111 0.321158C27.7846 0.497867 27.4897 1.12819 27.2556 1.72212L26.8303 2.80179L27.4774 5.04176C27.8334 6.27372 28.1246 7.30557 28.1246 7.33483C28.1246 7.36409 27.4197 7.3571 26.5581 7.31942C21.9211 7.11616 17.8136 9.38339 15.7375 13.2922C13.5843 17.3463 14.2753 22.3474 17.4531 25.7094C18.2667 26.5701 20.1369 27.9765 20.4678 27.9765C20.6584 27.9765 22.2956 26.5816 22.2956 26.4194C22.2956 26.3605 21.9513 26.1569 21.5306 25.9669C21.0592 25.7539 20.3435 25.2104 19.6664 24.5508C17.9159 22.8461 17.1953 21.181 17.1953 18.8413C17.1953 16.6654 17.8919 14.9307 19.4006 13.3498C20.9401 11.7364 23.0005 10.8355 25.2101 10.8093C28.125 10.7749 30.6108 12.0379 32.1954 14.3585C34.2425 17.3565 34.067 21.1171 31.747 23.9713C31.0183 24.8678 29.4652 25.9656 28.312 26.3994C27.5137 26.6997 27.4236 26.7853 26.6204 28.0096L25.772 29.3026L26.6998 29.2096C28.0762 29.0714 29.6452 28.6032 30.9622 27.9376C32.6069 27.1065 34.6683 25.0873 35.5168 23.4764C37.3649 19.9679 37.2731 15.9978 35.2676 12.6913C34.5916 11.5768 33.2457 10.0996 32.3558 9.49559C32.0323 9.27606 31.7679 9.05695 31.7682 9.00871C31.7685 8.96046 32.7851 8.41978 34.0274 7.80701C36.5111 6.58189 36.4534 6.63813 37.0252 4.88689C37.3206 3.98251 37.3368 3.82464 37.1523 3.65079C36.9126 3.42498 28.6452 0 28.3395 0C28.2304 0 28.0376 0.14445 27.9111 0.321158ZM3.31331 8.76691C1.49089 10.6055 0 12.206 0 12.3235C0 12.6427 1.58343 14.3761 2.02293 14.5381C2.23277 14.6154 3.44839 14.7483 4.7242 14.8334C6.00015 14.9186 7.06422 15.0079 7.08885 15.0321C7.11348 15.0562 6.83864 15.6501 6.47798 16.352C5.60437 18.0524 5.24574 19.5017 5.24706 21.3264C5.24924 24.4663 6.41779 27.1586 8.69399 29.2685C9.75602 30.253 10.1726 30.5393 11.4699 31.1771C13.6476 32.2476 16.5842 32.5541 19.0701 31.9704C22.4699 31.1719 25.4264 28.6485 26.765 25.4022C28.3458 21.5689 27.5157 17.0839 24.6502 13.974L23.8716 13.1291L23.0292 13.569C22.5658 13.8108 21.9854 14.2129 21.7394 14.4624L21.2921 14.916L22.1138 15.5583C23.0875 16.3196 24.1517 17.794 24.6166 19.0263C25.0301 20.1219 25.1785 22.2541 24.9248 23.4516C24.456 25.6633 22.6815 27.9258 20.656 28.8944C17.2131 30.5409 13.7174 29.9986 11.0725 27.4079C8.49756 24.8856 7.90548 21.4413 9.48366 18.1639C9.83573 17.4325 10.256 16.9026 11.2243 15.9689C12.146 15.0802 12.5299 14.604 12.6051 14.256C12.6623 13.9909 12.9316 13.1872 13.2035 12.4698C13.8202 10.8429 13.8299 10.669 13.2972 10.7936C12.4889 10.9829 10.9871 11.5834 10.4422 11.9352C10.1343 12.1341 9.86182 12.276 9.83661 12.2504C9.8114 12.2249 9.68156 11.2727 9.54793 10.1343C9.41445 8.99601 9.23958 7.85682 9.15943 7.60275C9.00001 7.09789 7.22496 5.42401 6.84899 5.42401C6.72658 5.42401 5.13558 6.92832 3.31331 8.76691Z" fill="black"/>
<path d="M55.245 24.5469C53.2194 24.5469 51.5141 24.1991 50.1291 23.5033C48.7614 22.7914 47.7313 21.7802 47.0388 20.4696C46.3463 19.1591 46 17.5977 46 15.7856C46 13.9735 46.3636 12.4121 47.0907 11.1016C47.8351 9.79101 48.8912 8.77977 50.2589 8.06786C51.6439 7.35595 53.306 7 55.245 7C56.5781 7 57.738 7.17798 58.7248 7.53393C59.7117 7.87371 60.5946 8.37528 61.3737 9.03865L60.4128 11.0045C59.8588 10.5676 59.3221 10.2198 58.8027 9.96089C58.2834 9.70202 57.7467 9.51595 57.1927 9.40269C56.6387 9.27325 55.9894 9.20854 55.245 9.20854C53.1501 9.20854 51.5574 9.78292 50.4667 10.9317C49.376 12.0804 48.8306 13.7065 48.8306 15.8099C48.8306 17.9456 49.35 19.5717 50.3888 20.6881C51.4448 21.8045 53.0982 22.3627 55.3489 22.3627C56.1279 22.3627 56.8983 22.298 57.6601 22.1685C58.4219 22.0229 59.1577 21.8126 59.8675 21.5375L59.3481 22.7267V17.1204H54.8295V15.2274H61.6074V23.3092C60.811 23.6813 59.8328 23.9806 58.6729 24.2072C57.5303 24.4337 56.3876 24.5469 55.245 24.5469Z" fill="black"/>
<path d="M63.3694 24.3285L71.5237 7.21843H73.835L82.1191 24.3285H79.3404L77.0811 19.4746L78.2237 20.1541H67.135L68.3555 19.4746L66.0962 24.3285H63.3694ZM72.6404 9.98516L68.6931 18.698L68.0698 18.1398H77.2888L76.7695 18.698L72.7443 9.98516H72.6404Z" fill="black"/>
<path d="M84.0846 24.3285V7.21843H91.8234C93.7797 7.21843 95.2946 7.65528 96.368 8.52899C97.4414 9.38651 97.9781 10.5919 97.9781 12.1452C97.9781 13.1645 97.7357 14.0382 97.2509 14.7663C96.7662 15.4944 96.0823 16.0526 95.1994 16.4409C94.3164 16.813 93.2777 16.9991 92.0831 16.9991L92.4986 16.6108H93.1998C93.9096 16.6108 94.5415 16.7807 95.0955 17.1204C95.6668 17.4602 96.1343 18.0022 96.4978 18.7465L99.1207 24.3285H96.1602L93.5633 18.7222C93.3036 18.0589 92.8968 17.6301 92.3428 17.4359C91.8061 17.2418 91.1395 17.1447 90.3432 17.1447H86.7854V24.3285H84.0846ZM86.7854 15.2274H91.3819C92.6804 15.2274 93.6585 14.9685 94.3164 14.4508C94.9916 13.933 95.3292 13.1888 95.3292 12.218C95.3292 11.231 94.9916 10.4867 94.3164 9.98516C93.6585 9.48359 92.6804 9.23281 91.3819 9.23281H86.7854V15.2274Z" fill="black"/>
<path d="M101.737 24.3285V7.21843H103.815L115.06 21.0036H114.41V7.21843H116.929V24.3285H114.878L103.659 10.5434H104.256V24.3285H101.737Z" fill="black"/>
<path d="M120.76 24.3285V7.21843H132.758V9.23281H123.383V14.6207H132.16V16.6593H123.383V22.2899H132.758V24.3285H120.76Z" fill="black"/>
<path d="M139.809 24.3285V9.32988H133.55V7.21843H148.768V9.32988H142.51V24.3285H139.809Z" fill="black"/>
<path d="M157.31 24.3285V7.21843H160.011V22.1685H168.996V24.3285H157.31Z" fill="black"/>
<path d="M168.807 24.3285L176.961 7.21843H179.272L187.556 24.3285H184.778L182.518 19.4746L183.661 20.1541H172.572L173.793 19.4746L171.534 24.3285H168.807ZM178.078 9.98516L174.13 18.698L173.507 18.1398H182.726L182.207 18.698L178.182 9.98516H178.078Z" fill="black"/>
<path d="M189.522 24.3285V7.21843H191.6L202.844 21.0036H202.195V7.21843H204.714V24.3285H202.662L191.444 10.5434H192.041V24.3285H189.522Z" fill="black"/>
<path d="M208.544 24.3285V7.21843H220.542V9.23281H211.167V14.6207H219.945V16.6593H211.167V22.2899H220.542V24.3285H208.544Z" fill="black"/>
<path d="M223.433 24.3285V7.21843H235.431V9.23281H226.056V14.6207H234.833V16.6593H226.056V22.2899H235.431V24.3285H223.433Z" fill="black"/>
</svg>
