<svg width="20" height="21" viewBox="0 0 20 21" fill="none" xmlns="http://www.w3.org/2000/svg">
<path d="M1.07729 0.246261C0.809718 0.385399 0.488631 0.663674 0.328088 0.909841L0.0391096 1.34866L0.00700089 5.30873C-0.0144049 7.89883 0.0177038 9.41864 0.0819211 9.66481C0.231762 10.1571 0.906044 10.7779 1.45189 10.9277C1.97633 11.0776 6.97458 11.0776 7.49903 10.9385C8.03417 10.7886 8.53721 10.3498 8.77267 9.81465C8.95462 9.42934 8.97603 9.04404 8.97603 5.49068C8.97603 1.73396 8.96532 1.57342 8.75126 1.1132C8.61213 0.83492 8.34455 0.535239 8.08769 0.363993L7.65957 0.0750151L4.59854 0.0429068C1.64454 0.0215006 1.52681 0.0215006 1.07729 0.246261ZM7.0281 5.50138L7.0495 9.01193H4.48081H1.91212V5.5549C1.91212 3.64978 1.94422 2.05505 1.98704 2.01224C2.02985 1.98013 3.16435 1.95872 4.52362 1.96943L6.99599 2.00154L7.0281 5.50138Z" fill="black"/>
<path d="M12.1012 0.246395C11.823 0.385533 11.5126 0.663808 11.352 0.909975L11.0631 1.34879V3.50008V5.65136L11.3627 6.10088C11.9193 6.94641 12.0798 6.97852 15.5048 6.97852C18.2875 6.97852 18.5444 6.96781 18.919 6.76446C19.8822 6.28283 20.0214 5.79049 19.9786 3.27531C19.9465 1.3809 19.9358 1.33809 19.6575 0.909975C19.4862 0.653105 19.1866 0.385533 18.9083 0.246395C18.4588 0.0323372 18.2661 0.0216346 15.4941 0.0216346C12.7113 0.0216346 12.5401 0.0323372 12.1012 0.246395ZM18.0199 3.50008V4.99848H15.5048H12.9896L12.9575 3.61781C12.9468 2.8472 12.9575 2.16221 12.9789 2.08729C13.0217 1.96956 13.5461 1.94816 15.5262 1.96956L18.0199 2.00167V3.50008Z" fill="black"/>
<path d="M12.3689 9.1725C11.8337 9.35445 11.4591 9.70764 11.213 10.2428C11.031 10.6388 11.0096 11.0134 11.0096 14.5668C11.0096 18.3235 11.0203 18.484 11.2344 18.9442C11.3735 19.2225 11.6411 19.5222 11.8979 19.6934L12.3368 19.9824H15.5048H18.6729L19.1117 19.6934C19.3686 19.5222 19.6361 19.2225 19.7753 18.9442C19.9893 18.484 20 18.3235 20 14.5454C20 12.0409 19.9572 10.5211 19.8823 10.3284C19.7218 9.9003 19.2722 9.45077 18.7692 9.21531C18.3839 9.03336 18.0414 9.01196 15.5583 9.02266C13.482 9.02266 12.6685 9.05477 12.3689 9.1725ZM18.0521 14.5454L18.02 18.0559H15.5048H12.9896L12.9575 14.5454L12.9361 11.0455H15.5048H18.0735L18.0521 14.5454Z" fill="black"/>
<path d="M1.10939 13.2612C0.0926181 13.7963 -0.0358166 14.2138 0.00699495 16.7289C0.0391036 18.6769 0.0391036 18.7197 0.328082 19.1478C0.499328 19.4047 0.799009 19.6722 1.07728 19.8114C1.52681 20.0254 1.71946 20.0361 4.4808 20.0361C7.24215 20.0361 7.4348 20.0254 7.88432 19.8114C8.1626 19.6722 8.46228 19.4047 8.63353 19.1478L8.92251 18.709V16.5577V14.4064L8.62282 13.9569C8.06627 13.1114 7.90573 13.0793 4.4594 13.0793C1.91211 13.09 1.37697 13.1114 1.10939 13.2612ZM6.99598 16.5577V18.0561H4.4808H1.96562L1.93352 16.6754C1.92281 15.9048 1.93352 15.2198 1.95492 15.1449C1.99773 15.0272 2.52217 15.0058 4.50221 15.0272L6.99598 15.0593V16.5577Z" fill="black"/>
</svg>
