<svg width="29" height="18" viewBox="0 0 29 18" fill="none" xmlns="http://www.w3.org/2000/svg">
<path d="M5.42967 0.898428C5.24806 0.976259 5.01456 1.24867 4.91078 1.4692L4.7162 1.89728H2.67958C0.266766 1.89728 -0.0575372 1.97511 0.00732334 2.57183L0.0462397 2.99991L2.42014 3.03883L4.79403 3.06477L4.75512 4.33604L4.7162 5.59433H3.14658C1.51209 5.59433 1.14887 5.69811 1.14887 6.17808C1.14887 6.64507 1.49912 6.74885 3.1336 6.74885L4.7162 6.76182L4.75512 8.02012L4.79403 9.29139H3.67843C2.61472 9.29139 2.56283 9.30436 2.42014 9.62866C2.27744 9.92702 2.29042 10.0049 2.56283 10.2124C2.79633 10.407 3.08171 10.4589 3.82113 10.4589H4.78106V11.6912V12.9236H4.35298C3.84707 12.9236 3.61357 13.1182 3.61357 13.5333C3.61357 13.8576 3.95085 14.0911 4.44379 14.0911C4.66431 14.0911 4.78106 14.1689 4.78106 14.2986C4.78106 14.4024 4.9497 14.6748 5.15725 14.8824C5.5075 15.2196 5.62425 15.2586 6.37663 15.2586C7.21982 15.2586 7.23279 15.2586 7.36251 15.6866C7.57007 16.2963 8.23164 17.0357 8.84133 17.36C9.60669 17.7492 10.9298 17.7362 11.5655 17.3471C12.1752 16.9709 12.7589 16.2963 12.9665 15.7256L13.1351 15.2586H17.1694H21.2038L21.3724 15.7256C22.1248 17.8011 24.9397 18.307 26.4056 16.6336C26.6261 16.3871 26.8726 15.985 26.9634 15.7256L27.119 15.2586H28.0011H28.8833L28.9481 12.2361L29 9.22652L26.5223 6.80074L24.0447 4.37495L22.2675 4.36198H20.4773V2.94802C20.4773 1.62486 20.4514 1.49514 20.166 1.15787L19.8547 0.794651L12.7978 0.768705C7.36251 0.742762 5.67614 0.768705 5.42967 0.898428ZM19.3098 7.99417V14.0911H16.2354H13.1481L12.9146 13.5073C12.253 11.9247 10.3331 11.2631 8.78944 12.0934C8.14084 12.4436 7.51818 13.196 7.29765 13.8576C7.24576 14.0392 7.0901 14.0911 6.51933 14.0911H5.81883V8.08498C5.81883 4.77709 5.85775 2.027 5.90964 1.98808C5.94855 1.9362 8.98403 1.89728 12.6551 1.89728H19.3098V7.99417ZM25.757 7.63095L27.8714 9.74541V11.9118V14.0911H27.4952C27.1839 14.0911 27.0931 14.0132 26.9764 13.676C26.5872 12.5733 25.3678 11.7172 24.1614 11.7172C22.955 11.7172 21.7356 12.5733 21.3724 13.663C21.2556 14.0132 21.1648 14.0911 20.8535 14.0911H20.4773V9.81027V5.52947H22.0599H23.6555L25.757 7.63095ZM11.1633 13.1441C12.0065 13.637 12.2919 14.8564 11.7471 15.6607C10.9039 16.932 9.04889 16.7633 8.47811 15.3623C8.2057 14.6878 8.2965 14.117 8.7635 13.5592C9.39913 12.8068 10.3202 12.6512 11.1633 13.1441ZM25.1862 13.1441C25.6662 13.3906 26.1072 14.3505 26.0164 14.9472C25.7959 16.2704 24.2392 16.9709 23.1366 16.2444C22.3453 15.7256 22.0859 14.6878 22.5529 13.8705C23.1107 12.8717 24.1225 12.5993 25.1862 13.1441Z" fill="black"/>
</svg>
