<svg width="22" height="20" viewBox="0 0 22 20" fill="none" xmlns="http://www.w3.org/2000/svg">
<path d="M0.9 3.23936V3.2616V10.3886V17.5155V17.5387L0.910245 17.5596L1.15969 18.0674L1.15976 18.0675C1.32672 18.4061 1.60016 18.7497 1.90977 19.0365C2.21899 19.323 2.57109 19.5592 2.89955 19.6765L2.90041 19.6768L2.90041 19.6768C3.1335 19.7577 3.35532 19.798 4.04369 19.8192C4.7316 19.8405 5.89616 19.8427 8.02004 19.8427H12.6437H12.692L12.7221 19.8047L12.8908 19.5916C13.0045 19.453 13.0675 19.2996 13.0754 19.143C13.0833 18.986 13.0354 18.8329 12.9392 18.6963L12.9365 18.6923L12.9364 18.6924C12.9167 18.667 12.8917 18.6394 12.8523 18.6152C12.8145 18.592 12.7687 18.5751 12.7107 18.5616C12.5969 18.5352 12.4155 18.5175 12.1081 18.5036C11.49 18.4756 10.3317 18.4623 8.11013 18.44C5.87735 18.4177 4.72393 18.4044 4.08486 18.3744C3.76497 18.3594 3.57914 18.3404 3.45325 18.3154C3.33157 18.2912 3.26541 18.2613 3.18372 18.2194L3.18281 18.2189L3.18281 18.2189C3.09668 18.1759 2.98648 18.0937 2.87692 17.9939C2.76863 17.8953 2.66675 17.7847 2.59569 17.6888L2.34722 17.3326V10.3886V3.44449L2.59571 3.08832C2.66676 2.99239 2.76864 2.88182 2.87692 2.78319C2.98648 2.6834 3.09668 2.60124 3.18281 2.55817L3.18552 2.55682L3.18549 2.55678C3.26621 2.51332 3.3264 2.48309 3.4672 2.45916C3.61434 2.43415 3.8469 2.41669 4.27002 2.40499C5.11456 2.38166 6.69608 2.38165 9.8196 2.38165H16.1182L16.4692 2.58222L0.9 3.23936ZM0.9 3.23936L0.909431 3.21921M0.9 3.23936L0.909431 3.21921M0.909431 3.21921L1.10511 2.80117C1.10517 2.80103 1.10523 2.80091 1.10529 2.80077C1.5189 1.90039 2.4173 1.17469 3.34989 0.989868C3.39387 0.980858 3.48025 0.973879 3.59438 0.967672C3.71211 0.961271 3.86759 0.955357 4.05504 0.949909C4.43006 0.939011 4.93522 0.92992 5.52688 0.922609C6.71032 0.907986 8.24138 0.900469 9.77279 0.899912C11.3042 0.899355 12.8364 0.905758 14.022 0.918987C14.6148 0.925602 15.1213 0.933926 15.4979 0.943951C15.6862 0.948961 15.8424 0.954411 15.961 0.96031C16.0768 0.966068 16.1635 0.972513 16.2075 0.980633L16.2084 0.980822C16.9156 1.11858 17.4603 1.4234 17.9557 1.96469L17.9558 1.9648C18.2857 2.32634 18.4828 2.59894 18.5978 3.03804C18.7105 3.46798 18.7437 4.05493 18.7659 5.04109V5.04116C18.7837 5.85333 18.7906 6.28557 18.7689 6.54392C18.7579 6.6747 18.7391 6.76816 18.7073 6.84714C18.6752 6.92676 18.6322 6.98546 18.5845 7.04683L18.5841 7.04732M0.909431 3.21921L18.5841 7.04732M18.5841 7.04732C18.3166 7.38681 17.8461 7.4206 17.544 7.11851C17.4985 7.07306 17.458 7.02413 17.4271 6.95063C17.3973 6.87998 17.3787 6.79223 17.366 6.67185C17.3408 6.43262 17.3365 6.03433 17.3365 5.31951C17.3365 4.32718 17.3045 3.7513 17.1799 3.36705M18.5841 7.04732L17.1799 3.36705M17.1799 3.36705C17.1189 3.17863 17.036 3.03842 16.9238 2.91863M17.1799 3.36705L16.9238 2.91863M16.9238 2.91863C16.8104 2.79757 16.6637 2.6937 16.4693 2.58228L16.9238 2.91863Z" fill="black" stroke="black" stroke-width="0.2"/>
<path d="M14.354 5.25532H14.3941L14.4231 5.28306L14.6272 5.47829C14.6274 5.47842 14.6275 5.47856 14.6277 5.47869C14.7838 5.62494 14.8647 5.80959 14.8593 5.99628C14.8539 6.18335 14.7622 6.36134 14.5946 6.49361C14.5649 6.5176 14.5322 6.54301 14.4898 6.56553C14.4468 6.58836 14.3974 6.60641 14.3332 6.62109C14.208 6.64974 14.0179 6.6674 13.6939 6.67909C13.044 6.70254 11.8246 6.70254 9.4334 6.70254H9.42752H9.42188C7.03489 6.70254 5.81332 6.70254 5.16572 6.68021C4.84321 6.66909 4.65514 6.6523 4.53453 6.62489C4.47263 6.61082 4.42493 6.59323 4.38428 6.57006C4.34379 6.54699 4.31483 6.52087 4.28996 6.4972C3.99971 6.22717 3.98923 5.7435 4.26995 5.46279C4.29428 5.43845 4.32291 5.41165 4.3639 5.38804C4.40457 5.36461 4.45259 5.34699 4.51476 5.33295C4.63603 5.30556 4.82602 5.28877 5.15127 5.27765C5.80443 5.25532 7.0349 5.25532 9.43087 5.25532H9.43643H14.354Z" fill="black" stroke="black" stroke-width="0.2"/>
<path d="M18.5485 10.2786L18.5485 10.2786L18.5483 10.2784C18.3684 10.085 18.2036 9.89096 18.0832 9.73305C18.0231 9.6543 17.9729 9.583 17.9372 9.52438C17.9195 9.49518 17.9042 9.46733 17.893 9.44211C17.8833 9.42006 17.8711 9.38822 17.8711 9.35504C17.8711 9.3184 17.8865 9.2846 17.8977 9.26289C17.9108 9.23747 17.9287 9.20976 17.9494 9.18104C17.9908 9.12333 18.049 9.0536 18.1188 8.977C18.2587 8.8235 18.4506 8.63614 18.6622 8.45157C18.8732 8.26301 19.0826 8.09185 19.2514 7.96724C19.3357 7.90503 19.4113 7.85334 19.4727 7.81673C19.5033 7.7985 19.5322 7.78295 19.558 7.77164C19.5803 7.76187 19.6127 7.74947 19.646 7.74947C19.682 7.74947 19.7148 7.76398 19.7362 7.77496C19.7608 7.78758 19.7871 7.8046 19.8138 7.82385C19.8675 7.86253 19.9312 7.91629 20.0001 7.97908C20.1383 8.10506 20.3042 8.27385 20.4636 8.44785C20.623 8.62186 20.7776 8.80293 20.893 8.95382C20.9505 9.02907 20.9996 9.09852 21.0348 9.15682C21.0524 9.18588 21.0676 9.21402 21.0787 9.23996C21.0888 9.26341 21.1001 9.29519 21.1001 9.32832C21.1001 9.36174 21.0868 9.39158 21.0779 9.40943C21.0673 9.4306 21.0532 9.45313 21.0373 9.47589C21.0055 9.52166 20.9611 9.57651 20.9087 9.63663C20.8036 9.75732 20.6601 9.9061 20.5042 10.0581C20.1942 10.3602 19.8251 10.6849 19.6022 10.8288L19.6022 10.8288L19.6015 10.8293L19.3342 10.9985L19.2643 11.0428L19.2077 10.9824L18.5485 10.2786Z" fill="black" stroke="black" stroke-width="0.2"/>
<path d="M4.29043 9.82545L4.29043 9.82545L4.29139 9.82458C4.34518 9.77591 4.40006 9.73355 4.5055 9.70335C4.60329 9.67534 4.74341 9.65804 4.96796 9.64631C5.41895 9.62275 6.24427 9.62056 7.83286 9.62056C9.41255 9.62056 10.2379 9.62275 10.6889 9.64631C10.9133 9.65803 11.0536 9.67532 11.1505 9.70344C11.2558 9.73399 11.3094 9.77729 11.3601 9.82802C11.508 9.97591 11.5747 10.1914 11.5709 10.3906C11.5672 10.5877 11.4935 10.7929 11.3297 10.9067C11.269 10.9509 11.1889 10.9786 11.0699 10.9987C10.9496 11.019 10.7793 11.0331 10.5307 11.0432C10.0326 11.0633 9.20406 11.0678 7.79723 11.0678C6.21754 11.0678 5.39222 11.0656 4.94123 11.042C4.71683 11.0303 4.57647 11.013 4.47955 10.9849C4.37429 10.9543 4.32068 10.911 4.26995 10.8603C3.98908 10.5794 3.99972 10.0954 4.29043 9.82545Z" fill="black" stroke="black" stroke-width="0.2"/>
<path d="M12.5259 14.1657C12.5259 14.1419 12.5336 14.1229 12.5374 14.1142C12.5422 14.1035 12.548 14.0935 12.5534 14.0849C12.5643 14.0676 12.5789 14.0482 12.5954 14.0278C12.6288 13.9866 12.6765 13.9333 12.736 13.8702C12.8553 13.7436 13.0269 13.5719 13.2378 13.3678C13.6598 12.9592 14.242 12.4172 14.8839 11.8376C15.5212 11.2583 16.1095 10.7324 16.5443 10.3511C16.7617 10.1605 16.9411 10.0057 17.0691 9.89833C17.1331 9.84477 17.1849 9.80239 17.2227 9.77313C17.2414 9.75864 17.2579 9.74638 17.2712 9.73736C17.2777 9.73297 17.2852 9.72814 17.2929 9.72402C17.2967 9.72198 17.3022 9.71917 17.3089 9.71662C17.3135 9.71487 17.3282 9.70932 17.3475 9.70932C17.3698 9.70932 17.3889 9.71539 17.4012 9.72018C17.4146 9.7254 17.4274 9.7321 17.439 9.73891C17.4622 9.75253 17.4877 9.77083 17.514 9.79155C17.5671 9.83327 17.6319 9.89144 17.7032 9.95964C17.8462 10.0964 18.0214 10.2796 18.1911 10.4672C18.3608 10.6548 18.5265 10.8485 18.6502 11.0068C18.7119 11.0857 18.7644 11.1573 18.802 11.2158C18.8206 11.2448 18.8368 11.2726 18.8487 11.2975C18.8587 11.3183 18.8729 11.3513 18.8729 11.3862C18.8729 11.4077 18.866 11.4239 18.8636 11.4293C18.8604 11.4367 18.8568 11.4428 18.8542 11.4469C18.8491 11.4551 18.8431 11.4629 18.8378 11.4695C18.8269 11.4831 18.8122 11.4995 18.7951 11.5179C18.7604 11.555 18.7105 11.6055 18.6481 11.6668C18.5232 11.7897 18.345 11.9594 18.1312 12.16C17.7035 12.5612 17.1316 13.0875 16.5539 13.6127C15.9763 14.138 15.3927 14.6625 14.9416 15.0604C14.7161 15.2593 14.5233 15.4268 14.3809 15.5471C14.3097 15.6071 14.2505 15.6559 14.2057 15.6911C14.1833 15.7086 14.1638 15.7234 14.1477 15.7348C14.1349 15.7437 14.1151 15.7573 14.0958 15.7647L14.0602 15.6712L14.0964 15.7644C14.0511 15.7821 14.007 15.7694 13.984 15.7612C13.9563 15.7513 13.9275 15.7358 13.8996 15.7185C13.8433 15.6834 13.776 15.6314 13.7036 15.5698C13.558 15.4459 13.381 15.2739 13.2104 15.0942C13.0396 14.9145 12.8731 14.7249 12.7485 14.5651C12.6864 14.4854 12.6334 14.4114 12.5954 14.3487C12.5764 14.3174 12.5601 14.2871 12.5482 14.259C12.5372 14.2331 12.5259 14.1999 12.5259 14.1657Z" fill="black" stroke="black" stroke-width="0.2"/>
<path d="M4.34115 14.1854L4.34115 14.1854L4.34207 14.1847C4.40257 14.1382 4.46135 14.0962 4.5513 14.0654C4.63819 14.0356 4.74886 14.0179 4.91321 14.0072C5.24107 13.9857 5.8141 13.9903 6.90757 14.0036C6.90758 14.0036 6.90759 14.0036 6.9076 14.0036L6.92448 14.0038C8.03708 14.017 8.60483 14.0237 8.91396 14.0542C9.06901 14.0695 9.17207 14.0916 9.24937 14.131C9.32966 14.1719 9.37368 14.2275 9.41506 14.2798L9.41609 14.2811C9.54004 14.4303 9.60367 14.5996 9.60102 14.7678C9.59836 14.9368 9.52877 15.097 9.40025 15.2255C9.35157 15.2742 9.2997 15.3172 9.21067 15.3484C9.12739 15.3777 9.01559 15.3953 8.84887 15.4071C8.51475 15.4308 7.92433 15.433 6.81729 15.433C5.79843 15.433 5.20696 15.4286 4.85248 15.4072C4.50694 15.3864 4.35646 15.3495 4.25538 15.2554C4.10303 15.1188 4.04304 14.9142 4.05951 14.7177C4.07607 14.5204 4.17021 14.3201 4.34115 14.1854Z" fill="black" stroke="black" stroke-width="0.2"/>
<path d="M11.6125 15.536L11.6125 15.536L11.6132 15.5339L11.925 14.5718L11.9739 14.4208L12.089 14.5301L12.4453 14.8686L12.4453 14.8686L12.4465 14.8698C12.7031 15.1219 12.975 15.423 13.1764 15.6683C13.2769 15.7907 13.3614 15.901 13.4179 15.9854C13.4458 16.027 13.4692 16.0658 13.484 16.0983C13.4912 16.1139 13.499 16.1336 13.5024 16.1545C13.5049 16.1694 13.511 16.218 13.4734 16.2573C13.4604 16.271 13.4459 16.2798 13.4376 16.2845C13.4272 16.2904 13.416 16.2956 13.405 16.3003C13.383 16.3096 13.3557 16.3192 13.3252 16.329C13.2638 16.3485 13.1824 16.3708 13.0889 16.3943C12.9013 16.4414 12.6595 16.4949 12.4197 16.5436C12.1799 16.5922 11.9408 16.6362 11.7587 16.6643C11.668 16.6782 11.5896 16.6885 11.5318 16.6932C11.5034 16.6955 11.4768 16.6968 11.455 16.6959C11.4445 16.6954 11.4307 16.6943 11.4168 16.6909C11.4098 16.6892 11.3993 16.6861 11.388 16.68C11.3773 16.6743 11.3586 16.6621 11.3453 16.6388L11.3404 16.6302L11.3372 16.6208C11.3319 16.6049 11.3317 16.591 11.3317 16.5867C11.3316 16.5802 11.332 16.5743 11.3324 16.5699C11.3332 16.561 11.3347 16.5514 11.3364 16.5421C11.3397 16.5232 11.3449 16.4987 11.3516 16.4703C11.3649 16.4132 11.385 16.3348 11.4102 16.2414C11.4606 16.0543 11.5321 15.8039 11.6125 15.536Z" fill="black" stroke="black" stroke-width="0.2"/>
</svg>
