<svg width="18" height="18" viewBox="0 0 18 18" fill="none" xmlns="http://www.w3.org/2000/svg">
<path d="M7.79354 0.0468502C3.66901 0.564377 0.579531 3.18338 0.0620045 6.61003C-0.267331 8.76639 0.736357 11.2286 2.57122 12.7263L3.12012 13.1732V15.1179C3.12012 16.1843 3.14364 17.0625 3.16716 17.0625C3.19069 17.0625 4.0846 16.5763 5.14318 15.9882L7.07998 14.914L8.88348 14.9061C10.5694 14.8983 10.7419 14.8826 11.5025 14.6866C13.6118 14.1377 15.3212 13.087 16.4817 11.6363C19.9476 7.30791 17.1953 1.4426 11.1104 0.203676C10.2165 0.0154858 8.60904 -0.0550861 7.79354 0.0468502ZM10.8124 1.34851C12.6708 1.70137 14.4979 2.72858 15.5094 4.00671C17.0306 5.92784 17.2266 8.17045 16.0426 10.2014C15.6113 10.9384 14.4743 12.0519 13.651 12.5302C12.8826 12.985 11.8397 13.4006 11.0006 13.5731C10.1381 13.7613 8.67177 13.8162 7.75433 13.6986L6.99373 13.5966L5.64502 14.3416L4.29631 15.0865V13.8084V12.5302L3.80231 12.1774C3.14364 11.7069 2.34383 10.8443 1.9596 10.1857C0.422705 7.59019 1.25388 4.50856 3.99834 2.65017C5.15886 1.85819 6.54677 1.38771 8.29538 1.19168C8.75802 1.13679 10.1773 1.23089 10.8124 1.34851Z" fill="black"/>
</svg>
