<svg width="18" height="21" viewBox="0 0 18 21" fill="none" xmlns="http://www.w3.org/2000/svg">
<path d="M8.37203 0.291174C7.52375 0.65613 7.14893 1.28741 7.19825 2.24418L7.22784 2.89519L6.73465 3.09246C5.91597 3.42783 5.38333 3.79278 4.80137 4.40433C3.815 5.43015 3.34154 6.7223 2.92727 9.41509C2.51299 12.2164 2.20722 12.9857 1.15181 13.9228C0.767122 14.2582 0.372575 14.6922 0.273938 14.8894C-0.130473 15.6983 -0.0811549 16.9214 0.382438 17.3751L0.648758 17.6513H3.56841H6.4782L6.54724 18.0162C6.76424 19.2393 7.7802 20.1172 8.99344 20.1172C10.2165 20.1172 11.1141 19.3873 11.4298 18.1247L11.5383 17.6513H14.4283C17.1902 17.6513 17.3184 17.6414 17.565 17.4441C17.9102 17.1778 18.0582 16.586 17.9793 15.8363C17.8806 15.0078 17.6636 14.6428 16.8548 13.9228C15.7994 12.9857 15.4936 12.2164 15.0793 9.41509C14.6749 6.75189 14.2212 5.4992 13.3039 4.50297C12.6627 3.81251 12.1005 3.4081 11.341 3.10233L10.7788 2.87546L10.8084 2.23432C10.8577 1.44522 10.6111 0.902721 10.0291 0.518038C9.59512 0.231991 8.7863 0.123491 8.37203 0.291174ZM9.48662 1.69182C9.69376 1.98773 9.6839 2.15541 9.42744 2.43159C9.15126 2.7275 8.81589 2.71764 8.5693 2.402C8.32271 2.08636 8.31284 1.97786 8.51998 1.69182C8.61862 1.54386 8.76657 1.47482 9.0033 1.47482C9.24003 1.47482 9.38799 1.54386 9.48662 1.69182ZM10.4237 4.12815C10.7492 4.22678 11.2128 4.42406 11.4396 4.56215C11.9821 4.87779 12.712 5.65702 12.9981 6.20939C13.3039 6.80121 13.6491 8.25117 13.8858 9.88854C14.2902 12.6898 14.7242 13.7157 16.0164 14.8598C16.6082 15.3925 16.6772 15.4911 16.7167 15.9054L16.7759 16.369H9.01316H1.26031V15.9646C1.26031 15.5898 1.31949 15.5108 2.09872 14.7612C3.32182 13.5677 3.72623 12.6109 4.12078 9.88854C4.36737 8.14267 4.72246 6.74203 5.06769 6.11075C5.38333 5.52879 6.19215 4.7397 6.76424 4.44379C7.7802 3.92101 9.33867 3.79278 10.4237 4.12815ZM10.2363 17.74C10.2363 17.9669 10.0291 18.3417 9.77267 18.5785C9.55567 18.7856 9.39785 18.8349 9.0033 18.8349C8.72712 18.8349 8.42134 18.7659 8.32271 18.687C8.06625 18.4897 7.77034 18.0359 7.77034 17.8189C7.77034 17.671 7.89857 17.6513 9.0033 17.6513C9.70362 17.6513 10.2363 17.6907 10.2363 17.74Z" fill="black"/>
</svg>
