<svg width="20" height="22" viewBox="0 0 20 22" fill="none" xmlns="http://www.w3.org/2000/svg">
<path d="M9.46503 0.0229874C7.64364 0.215899 6.04523 1.33328 5.23099 2.98932C4.90279 3.65824 4.74496 4.27205 4.67731 5.16145L4.66228 5.35687H3.5474H2.43503L2.24462 5.4195C1.7661 5.57984 1.43289 5.96316 1.34771 6.4492C1.32767 6.55693 1.01199 9.67358 0.643708 13.3715C0.0123607 19.7225 -0.0227141 20.1058 0.00735003 20.2687C0.0950371 20.7672 0.515935 21.2107 1.01199 21.3284C1.15229 21.361 2.21205 21.366 9.99115 21.366C19.762 21.366 18.9603 21.3785 19.301 21.2007C19.509 21.0904 19.762 20.8324 19.8572 20.637C19.9399 20.4666 20 20.2361 20 20.0883C20 20.0257 19.8246 18.2343 19.6117 16.1048C19.3987 13.9753 19.1006 10.9889 18.9503 9.46563C18.7999 7.94238 18.6646 6.60703 18.6496 6.4968C18.6145 6.23624 18.4868 5.97318 18.3014 5.77776C18.1235 5.59237 17.9657 5.49216 17.7327 5.417C17.5448 5.35687 17.5322 5.35687 16.4549 5.35687H15.3676L15.3551 5.24914C15.3476 5.19151 15.3376 5.04119 15.33 4.91843C15.29 4.23948 15.067 3.48287 14.7112 2.82146C13.9571 1.42097 12.6343 0.426348 11.106 0.10817C10.62 0.0054512 9.95106 -0.0271187 9.46503 0.0229874ZM10.7302 1.39842C12.509 1.7166 13.902 3.29246 14.0047 5.09882L14.0197 5.35687H10.0162H6.01266L6.02769 5.07376C6.06527 4.40484 6.30579 3.71086 6.71416 3.08953C6.93964 2.7488 7.44321 2.24773 7.78645 2.01975C8.68837 1.42348 9.688 1.21303 10.7302 1.39842ZM4.6723 7.10309C4.68232 7.5741 4.70988 7.67181 4.87022 7.83215C5.01303 7.97495 5.13078 8.02506 5.34373 8.02506C5.55669 8.02506 5.67444 7.97495 5.81724 7.83215C5.97759 7.67431 6.00264 7.5741 6.01517 7.10309L6.02519 6.6847H10.0187H14.0122V7.03545C14.0122 7.22585 14.0248 7.44131 14.0398 7.51146C14.0774 7.69185 14.2001 7.8547 14.363 7.94739C14.4832 8.01504 14.5233 8.02506 14.6887 8.02506C14.9116 8.02255 15.0294 7.97245 15.1747 7.81211C15.33 7.63924 15.3476 7.5741 15.3601 7.10309L15.3701 6.6847L16.3497 6.68971L17.3318 6.69723L17.3744 7.16072C17.3995 7.41626 17.4521 7.95741 17.4947 8.36328C17.6174 9.57086 17.6951 10.35 17.7452 10.8686C17.8128 11.5676 18.2588 16.0046 18.3465 16.8815C18.5294 18.6728 18.6471 19.8804 18.6471 19.9555V20.0382H9.99115H1.33518V19.9806C1.33518 19.9129 2.63295 6.87761 2.65299 6.76487L2.66552 6.6847H3.66265H4.66228L4.6723 7.10309Z" fill="black"/>
<path d="M7.61108 9.39278C6.98724 9.47796 6.45611 9.73601 6.01267 10.1744C5.55419 10.6279 5.25605 11.1565 5.12828 11.7353C5.07567 11.9758 5.06815 12.5595 5.11575 12.7975C5.20344 13.2485 5.42641 13.7546 5.71202 14.1579C5.935 14.4736 6.74673 15.2728 8.97649 17.3723C9.29968 17.678 9.60032 17.9435 9.64291 17.9661C9.86839 18.0813 10.1164 18.0663 10.3168 17.926C10.377 17.8809 10.8304 17.4875 11.3215 17.0466C13.2932 15.2828 13.7517 14.8219 14.1851 14.1755C14.7363 13.3512 14.9893 12.5721 14.9567 11.7954C14.9142 10.7632 14.4632 9.97652 13.6991 9.60072C13.3709 9.44038 13.1379 9.38526 12.7721 9.38526C12.1257 9.38276 11.7975 9.5456 10.7678 10.3774C10.0663 10.9436 9.13182 11.8154 9.04914 11.9783C8.8888 12.289 9.01657 12.6873 9.32974 12.8602C9.44248 12.9228 9.49259 12.9353 9.6404 12.9353C9.89344 12.9353 9.98113 12.8802 10.5123 12.3817C11.1561 11.7754 12.038 11.0463 12.4013 10.8183C12.5216 10.7432 12.5666 10.7306 12.7245 10.7231C12.9299 10.7106 13.0251 10.7356 13.1955 10.8434C13.4986 11.0363 13.689 11.6275 13.6139 12.1512C13.5312 12.7174 13.223 13.3136 12.6844 13.9375C12.4965 14.1579 11.7699 14.8519 11.0559 15.4933C10.4371 16.0495 10.0187 16.4203 9.98364 16.4403C9.96109 16.4528 9.90347 16.4153 9.80826 16.3251C8.08208 14.7066 7.00228 13.6594 6.84695 13.4539C6.70915 13.2711 6.54881 12.9754 6.48868 12.7975C6.42104 12.5996 6.39348 12.314 6.42104 12.1211C6.47365 11.7453 6.62397 11.4647 6.93463 11.1515C7.26784 10.8158 7.56598 10.7006 8.04951 10.7256C8.27499 10.7356 8.35516 10.7532 8.61321 10.8434C8.94642 10.9611 9.02409 10.9636 9.25208 10.8659C9.39488 10.8033 9.51263 10.683 9.58278 10.5227C9.62287 10.4375 9.63038 10.3699 9.62287 10.2296C9.60784 9.90136 9.44248 9.72348 9.00906 9.56565C8.57313 9.40781 8.00943 9.33766 7.61108 9.39278Z" fill="black"/>
</svg>
